<svg xmlns="http://www.w3.org/2000/svg" xmlns:xlink="http://www.w3.org/1999/xlink" id="Layer_1" x="0px" y="0px" viewBox="0 0 268.8 146.82" style="enable-background:new 0 0 268.8 146.82;" xml:space="preserve"><style type="text/css">	.st0{fill:#231F20;}	.st1{fill:#5F6DB2;}	.st2{fill:#FFFFFF;}</style><g>	<path class="st0" d="M13.33,71.95v-59.4c0-1.31,1.06-2.38,2.38-2.38h11.02c1.31,0,2.38,1.06,2.38,2.38v59.4  c0,1.31-1.06,2.38-2.38,2.38H15.71C14.4,74.33,13.33,73.27,13.33,71.95z"></path>	<path class="st0" d="M36.33,71.95v-59.4c0-1.31,1.06-2.38,2.38-2.38h38.86c1.31,0,2.38,1.06,2.38,2.38v9.3  c0,1.31-1.06,2.38-2.38,2.38H54.47c-1.31,0-2.38,1.06-2.38,2.38v5.97c0,1.31,1.06,2.38,2.38,2.38h19.03c1.31,0,2.38,1.06,2.38,2.38  v9.3c0,1.31-1.06,2.38-2.38,2.38H54.47c-1.31,0-2.38,1.06-2.38,2.38v6.51c0,1.31,1.06,2.38,2.38,2.38h23.09  c1.31,0,2.38,1.06,2.38,2.38v9.3c0,1.31-1.06,2.38-2.38,2.38H38.7C37.39,74.33,36.33,73.27,36.33,71.95z"></path>	<path class="st0" d="M185.73,71.95V51.3c0-1.31-1.06-2.38-2.38-2.38h-12c-1.31,0-2.38,1.06-2.38,2.38v20.66  c0,1.31-1.06,2.38-2.38,2.38h-11.02c-1.31,0-2.38-1.06-2.38-2.38v-59.4c0-1.31,1.06-2.38,2.38-2.38h11.02  c1.31,0,2.38,1.06,2.38,2.38v19.93c0,1.31,1.06,2.38,2.38,2.38h12c1.31,0,2.38-1.06,2.38-2.38V12.56c0-1.31,1.06-2.38,2.38-2.38  h11.02c1.31,0,2.38,1.06,2.38,2.38v59.4c0,1.31-1.06,2.38-2.38,2.38h-11.02C186.8,74.33,185.73,73.27,185.73,71.95z"></path>	<path class="st0" d="M234.66,51.45h-7.26c-1.31,0-2.38,1.06-2.38,2.38v18.13c0,1.31-1.06,2.38-2.38,2.38h-11.02  c-1.31,0-2.38-1.06-2.38-2.38v-59.4c0-1.31,1.06-2.38,2.38-2.38h23.03c14.23,0,21.89,10.09,21.89,20.63S248.9,51.45,234.66,51.45z   M233.94,24.33h-6.54c-1.31,0-2.38,1.06-2.38,2.38v8.22c0,1.31,1.06,2.38,2.38,2.38h6.54c4.32,0,6.85-3.15,6.85-6.49  C240.79,27.48,238.26,24.33,233.94,24.33z"></path>	<g>		<path class="st1" d="M148.33,12.6c-8.9-8.12-22.8-7.31-31.32,1.21l-0.95,0.95l-1.45-1.45c-4.2-4.2-9.81-6.52-15.79-6.52   c-5.98,0-11.59,2.31-15.79,6.52c-4.2,4.2-6.52,9.81-6.52,15.79s2.31,11.59,6.52,15.79l1.45,1.45l3.77,3.77l24.04,24.04v0   c2.08,2.08,5.46,2.08,7.54,0v0l24.04-24.04l3.77-3.77l1.45-1.45c4.2-4.2,6.52-9.81,6.52-15.79   C155.6,22.78,153.01,16.87,148.33,12.6z"></path>		<g>			<path class="st2" d="M130.61,19.61c-0.1,0-0.2-0.01-0.3-0.02c-0.44-0.06-0.88-0.1-1.31-0.11c-1.16-0.02-2.08-0.98-2.06-2.14    c0.02-1.14,0.96-2.06,2.1-2.06c0.01,0,0.03,0,0.04,0c0.61,0.01,1.22,0.06,1.83,0.15c1.15,0.17,1.94,1.23,1.77,2.38    C132.53,18.85,131.63,19.61,130.61,19.61z"></path>			<path class="st2" d="M144.09,33.99c-1.06,0-1.98-0.81-2.09-1.89c-0.08-0.82-0.24-1.64-0.45-2.44c-0.22-0.79-0.5-1.56-0.85-2.3    c-0.34-0.74-0.75-1.45-1.21-2.12c-0.47-0.67-0.99-1.31-1.56-1.89c-0.49-0.5-1.01-0.96-1.55-1.36c-0.93-0.69-1.12-2.01-0.42-2.94    c0.69-0.93,2.01-1.12,2.94-0.42c0.71,0.53,1.4,1.13,2.04,1.78c0.74,0.75,1.42,1.58,2.02,2.45c0.6,0.86,1.12,1.78,1.57,2.73    c0.44,0.95,0.81,1.95,1.09,2.96c0.28,1.02,0.48,2.07,0.58,3.13c0.12,1.15-0.73,2.18-1.88,2.3    C144.23,33.98,144.16,33.99,144.09,33.99z"></path>		</g>	</g></g><path class="st1" d="M44.65,105.19h18.7v4.31H49.08v8.94h12.18v4.06H49.08v12.91h-4.43V105.19z M64.27,124.63 c0-2.27,0.18-4.01,0.54-5.23c0.37-1.19,0.95-2.19,1.73-3.01c0.58-0.71,1.38-1.35,2.41-1.92c1.02-0.54,2.32-0.82,3.91-0.84 c1.65,0.03,2.98,0.31,3.99,0.85c1,0.57,1.78,1.21,2.33,1.93c0.83,0.82,1.41,1.82,1.76,3c0.33,1.22,0.5,2.96,0.5,5.22 c0,2.27-0.17,3.99-0.5,5.18c-0.35,1.19-0.94,2.22-1.77,3.09c-0.27,0.32-0.6,0.63-0.98,0.93c-0.35,0.35-0.8,0.64-1.34,0.89 c-1.02,0.59-2.35,0.9-3.99,0.93c-1.59-0.03-2.9-0.34-3.91-0.93c-1.03-0.54-1.83-1.15-2.41-1.82c-0.78-0.87-1.35-1.9-1.73-3.09 C64.45,128.62,64.27,126.89,64.27,124.63z M77.27,124.67c0-1.54-0.07-2.66-0.2-3.37c-0.13-0.68-0.41-1.28-0.83-1.79 c-0.31-0.48-0.76-0.87-1.37-1.14c-0.58-0.29-1.25-0.44-2.01-0.44c-0.71,0-1.37,0.15-1.97,0.44c-0.58,0.28-1.05,0.66-1.41,1.14 c-0.36,0.51-0.62,1.11-0.78,1.79c-0.16,0.71-0.24,1.82-0.24,3.33c0,1.5,0.08,2.59,0.24,3.29c0.16,0.71,0.42,1.33,0.78,1.87 c0.36,0.42,0.83,0.78,1.41,1.1c0.6,0.3,1.26,0.46,1.97,0.46c0.76,0,1.43-0.15,2.01-0.46c0.6-0.32,1.06-0.69,1.37-1.1 c0.42-0.54,0.69-1.16,0.83-1.87C77.2,127.22,77.27,126.14,77.27,124.67z M84.53,113.89h4.18v12.82c0,1.45,0.39,2.59,1.18,3.4 c0.78,0.82,1.77,1.22,2.97,1.22c1.2,0,2.19-0.41,2.95-1.22c0.78-0.82,1.16-1.95,1.16-3.4v-12.82h4.18v21.51h-4.18v-2.3H96.9 c-1.38,1.7-3.18,2.55-5.39,2.55c-1.72-0.03-3.28-0.68-4.67-1.94c-1.51-1.24-2.28-3.07-2.31-5.5V113.89z M104.76,113.89h4.18v2.28 h0.08c1.38-1.7,3.18-2.55,5.41-2.55c1.72,0,3.3,0.63,4.73,1.89c1.42,1.27,2.16,3.14,2.23,5.6v14.3h-4.18v-12.82 c0-1.51-0.39-2.66-1.16-3.44c-0.76-0.8-1.75-1.2-2.95-1.2c-1.2,0-2.2,0.4-2.97,1.2c-0.79,0.79-1.18,1.94-1.18,3.44v12.82h-4.18 V113.89z M137.25,133.16c-1.38,1.61-3.18,2.44-5.4,2.49c-1.26-0.03-2.33-0.3-3.23-0.81c-0.94-0.5-1.72-1.16-2.35-1.99 c-0.58-0.68-0.96-1.6-1.14-2.76c-0.23-1.11-0.34-2.93-0.34-5.48c0-2.59,0.11-4.42,0.34-5.52c0.19-1.11,0.57-2,1.14-2.68 c1.18-1.8,3.03-2.73,5.58-2.8c1.07,0,2.06,0.23,2.97,0.68c0.84,0.48,1.65,1.1,2.43,1.86v-10.97h4.18v30.21h-4.18V133.16z  M133.13,117.93c-0.99,0-1.75,0.17-2.27,0.52c-0.58,0.37-1,0.89-1.27,1.54c-0.25,0.65-0.42,1.36-0.5,2.12 c-0.08,0.82-0.12,1.66-0.12,2.52c0,0.82,0.04,1.62,0.12,2.39c0.08,0.82,0.25,1.55,0.5,2.2c0.27,0.62,0.69,1.14,1.27,1.54 c0.52,0.39,1.28,0.58,2.27,0.58c0.99,0,1.77-0.21,2.35-0.62c0.58-0.4,0.97-0.93,1.18-1.58c0.27-0.65,0.45-1.38,0.54-2.18 c0.03-0.79,0.04-1.57,0.04-2.33c0-0.83-0.01-1.63-0.04-2.39c-0.09-0.76-0.27-1.47-0.54-2.12c-0.21-0.65-0.61-1.18-1.18-1.58 C134.9,118.13,134.12,117.93,133.13,117.93z M157.04,133.5h-0.08c-0.39,0.73-0.99,1.27-1.81,1.62c-0.8,0.36-1.91,0.54-3.33,0.54 c-2.33-0.03-4.12-0.66-5.38-1.91c-1.32-1.22-1.99-2.77-1.99-4.66c0-1.81,0.58-3.31,1.73-4.5c1.15-1.22,2.84-1.84,5.06-1.86h5.8 v-2.27c0.03-1.9-1.4-2.82-4.28-2.77c-1.04,0-1.87,0.11-2.47,0.33c-0.63,0.26-1.12,0.71-1.49,1.33l-3.29-2.59 c1.59-2.14,3.94-3.19,7.04-3.13c2.62-0.03,4.71,0.48,6.28,1.53c1.56,1.08,2.36,2.93,2.39,5.55v14.69h-4.18V133.5z M157.04,126.28 h-5.03c-2.44,0.06-3.65,0.92-3.62,2.59c0,0.73,0.31,1.35,0.94,1.87c0.6,0.57,1.6,0.85,3,0.85c1.76,0.03,3-0.19,3.72-0.64 c0.66-0.46,0.99-1.49,0.99-3.11V126.28z M165.57,107.34h4.18v6.55h3.05v3.31h-3.05v12.54c-0.03,1.09,0.47,1.62,1.49,1.6h1.57v4.06 h-2.18c-1.47,0-2.67-0.47-3.61-1.41c-0.96-0.9-1.44-2.19-1.44-3.89v-12.9h-2.1v-3.31h2.1V107.34z M176.24,105.19h4.18v4.31h-4.18 V105.19z M176.24,113.89h4.18v21.51h-4.18V113.89z M184.01,124.63c0-2.27,0.18-4.01,0.54-5.23c0.37-1.19,0.95-2.19,1.73-3.01 c0.58-0.71,1.38-1.35,2.41-1.92c1.02-0.54,2.32-0.82,3.91-0.84c1.65,0.03,2.98,0.31,3.99,0.85c1,0.57,1.78,1.21,2.33,1.93 c0.83,0.82,1.41,1.82,1.76,3c0.33,1.22,0.5,2.96,0.5,5.22c0,2.27-0.17,3.99-0.5,5.18c-0.35,1.19-0.94,2.22-1.77,3.09 c-0.27,0.32-0.6,0.63-0.98,0.93c-0.35,0.35-0.8,0.64-1.34,0.89c-1.02,0.59-2.35,0.9-3.99,0.93c-1.59-0.03-2.9-0.34-3.91-0.93 c-1.03-0.54-1.83-1.15-2.41-1.82c-0.78-0.87-1.35-1.9-1.73-3.09C184.19,128.62,184.01,126.89,184.01,124.63z M197.01,124.67 c0-1.54-0.07-2.66-0.2-3.37c-0.13-0.68-0.41-1.28-0.83-1.79c-0.31-0.48-0.76-0.87-1.37-1.14c-0.58-0.29-1.25-0.44-2.01-0.44 c-0.71,0-1.37,0.15-1.97,0.44c-0.58,0.28-1.05,0.66-1.41,1.14c-0.36,0.51-0.62,1.11-0.78,1.79c-0.16,0.71-0.24,1.82-0.24,3.33 c0,1.5,0.08,2.59,0.24,3.29c0.16,0.71,0.42,1.33,0.78,1.87c0.36,0.42,0.83,0.78,1.41,1.1c0.6,0.3,1.26,0.46,1.97,0.46 c0.76,0,1.43-0.15,2.01-0.46c0.6-0.32,1.06-0.69,1.37-1.1c0.42-0.54,0.69-1.16,0.83-1.87C196.94,127.22,197.01,126.14,197.01,124.67 z M204.78,113.89h4.18v2.28h0.08c1.38-1.7,3.18-2.55,5.41-2.55c1.72,0,3.3,0.63,4.73,1.89c1.42,1.27,2.16,3.14,2.23,5.6v14.3h-4.18 v-12.82c0-1.51-0.39-2.66-1.16-3.44c-0.76-0.8-1.75-1.2-2.95-1.2c-1.2,0-2.2,0.4-2.97,1.2c-0.79,0.79-1.18,1.94-1.18,3.44v12.82 h-4.18V113.89z"></path><path d="M13.87,102.85c0.13-0.06,34.81-16.58,112.7-16.58c2.4,0,4.84,0.02,7.32,0.05c87.78,1.14,121.65,16.46,121.79,16.52 c0.48,0.22,0.69,0.78,0.48,1.26c-0.22,0.48-0.78,0.69-1.26,0.48c-0.11-0.05-33.46-15.21-121.03-16.35c-2.47-0.03-4.9-0.05-7.3-0.05 c-77.63,0-111.77,16.45-111.88,16.39c-0.48,0.23-1.05,0.03-1.27-0.45C13.2,103.64,13.4,103.07,13.87,102.85z"></path></svg>