<?xml version="1.0" encoding="UTF-8" standalone="no"?>
<!DOCTYPE svg PUBLIC "-//W3C//DTD SVG 1.1//EN" "http://www.w3.org/Graphics/SVG/1.1/DTD/svg11.dtd">
<svg xmlns="http://www.w3.org/2000/svg" version="1.1" viewBox="0.00 0.00 1024.00 1024.00">
<g stroke-width="2.00" fill="none" stroke-linecap="butt">
<path stroke="#5b524a" vector-effect="non-scaling-stroke" d="
  M 438.70 213.11
  Q 410.38 221.02 383.97 233.96
  Q 369.93 240.84 359.73 249.18
  Q 349.93 257.19 351.52 269.66"
/>
<path stroke="#665a51" vector-effect="non-scaling-stroke" d="
  M 351.52 269.66
  C 353.80 278.24 361.06 284.94 370.19 284.04
  Q 374.64 283.61 378.22 281.22
  Q 427.38 248.37 484.95 241.28"
/>
<path stroke="#736861" vector-effect="non-scaling-stroke" d="
  M 484.95 241.28
  C 516.93 237.84 548.13 241.51 578.78 251.08"
/>
<path stroke="#837973" vector-effect="non-scaling-stroke" d="
  M 578.78 251.08
  Q 614.28 262.61 644.67 283.88
  Q 653.65 290.17 660.68 295.86
  C 677.93 309.83 694.66 328.05 706.65 346.29"
/>
<path stroke="#15110d" vector-effect="non-scaling-stroke" d="
  M 706.65 346.29
  Q 705.93 347.65 703.88 345.91
  Q 703.39 345.49 703.00 346.02
  Q 702.78 346.33 702.40 346.38
  Q 701.72 346.47 701.63 347.16
  Q 701.55 347.79 700.92 347.66
  Q 700.35 347.54 700.39 348.12
  Q 700.45 348.83 699.96 349.29
  Q 699.68 349.55 699.52 349.90
  L 698.77 351.48
  Q 698.52 352.01 697.95 351.87
  Q 696.97 351.63 696.59 352.55
  Q 696.13 353.70 696.27 354.92
  Q 696.32 355.32 695.97 355.58
  Q 695.83 355.68 695.89 355.84
  Q 695.95 355.97 696.06 356.05
  Q 696.43 356.30 696.31 356.73
  Q 695.88 358.25 694.74 359.07
  Q 694.24 359.42 694.48 359.99
  Q 695.20 361.68 695.66 363.52
  Q 696.03 364.99 696.89 366.58
  Q 699.05 370.52 701.06 374.12
  C 701.55 375.00 701.63 376.03 702.07 376.95
  Q 704.10 381.26 705.84 385.28
  C 706.74 387.36 707.31 390.38 708.76 392.76"
/>
<path stroke="#231d19" vector-effect="non-scaling-stroke" d="
  M 708.76 392.76
  Q 711.31 399.37 713.28 406.23
  Q 713.86 408.25 714.78 410.66
  Q 715.87 413.51 716.16 415.12
  Q 717.61 423.12 719.45 430.98"
/>
<path stroke="#5b524a" vector-effect="non-scaling-stroke" d="
  M 719.45 430.98
  Q 720.62 436.42 721.14 443.50
  Q 722.77 465.53 721.87 485.54
  Q 721.54 493.06 720.36 500.14
  Q 717.83 515.27 713.60 530.41
  C 703.79 565.55 684.83 595.96 658.92 622.05
  C 650.92 630.10 641.53 637.87 632.44 644.24
  Q 596.96 669.10 555.66 679.37
  Q 547.83 681.32 539.36 682.61
  A 0.16 0.16 0.0 0 0 539.36 682.92
  C 545.43 684.12 551.19 683.83 557.22 684.04
  C 571.03 684.53 584.97 681.13 596.90 674.67
  Q 597.98 674.08 597.15 674.98
  L 563.78 711.26"
/>
<path stroke="#837973" vector-effect="non-scaling-stroke" d="
  M 563.78 711.26
  Q 545.25 731.37 526.41 751.24
  C 522.56 755.30 519.11 759.89 515.02 763.50
  C 509.60 768.30 504.65 764.30 500.90 760.10
  Q 488.22 745.88 463.29 718.47
  Q 457.06 711.61 452.00 706.93"
/>
<path stroke="#2e2722" vector-effect="non-scaling-stroke" d="
  M 452.00 706.93
  Q 447.75 701.69 440.21 693.79
  Q 435.23 688.55 423.58 675.24
  Q 422.98 674.56 422.50 673.90
  Q 421.40 672.39 422.98 673.38
  C 427.76 676.40 432.12 678.46 437.95 680.04
  Q 443.66 681.58 448.73 682.67
  Q 462.72 685.68 477.09 683.22
  Q 480.54 682.63 477.13 681.83
  Q 464.31 678.82 451.24 675.30
  Q 439.97 672.26 432.57 668.96
  C 429.55 667.61 426.42 667.04 423.41 665.50
  Q 415.43 661.41 407.85 657.65
  Q 395.20 651.37 377.36 637.70"
/>
<path stroke="#231d19" vector-effect="non-scaling-stroke" d="
  M 377.36 637.70
  C 361.03 624.68 348.51 610.64 336.77 594.50
  Q 333.78 590.38 331.48 585.96"
/>
<path stroke="#15110d" vector-effect="non-scaling-stroke" d="
  M 331.48 585.96
  Q 321.87 570.96 314.39 554.84
  Q 312.38 550.50 311.03 545.20
  A 1.74 1.71 -89.5 0 0 309.85 543.98
  C 308.19 543.48 307.54 545.13 305.88 544.54
  Q 305.42 544.37 304.97 544.57
  Q 303.66 545.17 302.34 545.80
  Q 301.37 546.26 300.02 546.33
  Q 297.25 546.48 294.54 546.64
  Q 293.27 546.71 292.01 547.30
  Q 290.57 547.98 289.30 548.65
  Q 288.87 548.88 288.41 548.76
  Q 287.17 548.45 286.35 549.51
  Q 286.04 549.91 286.03 550.41
  Q 285.99 552.22 285.00 553.83"
/>
<path stroke="#837973" vector-effect="non-scaling-stroke" d="
  M 285.00 553.83
  Q 276.32 529.43 273.41 500.10
  Q 269.61 461.75 277.73 426.99
  Q 279.85 417.91 282.59 409.04"
/>
<path stroke="#736861" vector-effect="non-scaling-stroke" d="
  M 282.59 409.04
  Q 286.21 397.92 289.44 389.93
  C 296.83 371.64 306.84 354.12 318.54 337.93
  Q 321.55 333.76 325.57 329.06
  Q 328.14 326.05 330.64 321.10"
/>
<path stroke="#665a51" vector-effect="non-scaling-stroke" d="
  M 330.64 321.10
  Q 334.09 313.59 331.55 306.69
  C 326.78 293.75 310.01 291.27 300.57 300.33
  Q 296.10 304.62 291.04 311.79"
/>
<path stroke="#736861" vector-effect="non-scaling-stroke" d="
  M 291.04 311.79
  Q 283.10 321.77 276.36 332.63
  Q 257.88 362.37 246.74 395.43"
/>
<path stroke="#837973" vector-effect="non-scaling-stroke" d="
  M 246.74 395.43
  C 232.80 438.00 230.02 483.51 238.06 526.99
  Q 243.51 556.45 256.66 585.75"
/>
<path stroke="#837973" vector-effect="non-scaling-stroke" d="
  M 256.66 585.75
  C 276.50 630.24 308.65 670.92 349.18 699.07
  Q 362.66 708.43 374.06 714.99
  C 391.07 724.78 409.63 732.19 428.02 739.44
  Q 432.49 741.20 435.79 744.81
  Q 462.52 774.07 495.39 810.32
  C 501.82 817.41 512.68 819.32 520.34 813.28
  Q 523.81 810.54 527.32 806.81
  Q 549.83 782.86 573.59 756.17
  Q 579.16 749.91 585.18 743.61
  C 587.22 741.47 589.66 740.51 592.29 739.38
  Q 603.03 734.81 613.82 730.31
  Q 652.98 714.00 686.37 687.22
  C 701.59 675.01 715.72 660.35 727.88 645.11
  Q 740.23 629.65 752.61 608.22
  Q 757.63 599.52 761.58 590.42
  Q 770.34 570.23 775.34 553.24
  Q 782.72 528.17 785.42 500.00
  Q 790.09 451.29 775.10 402.43
  Q 767.27 376.90 757.58 357.43
  C 753.68 349.61 748.91 341.62 744.31 334.05
  Q 730.21 310.84 711.27 291.18
  Q 679.93 258.67 641.66 236.82
  Q 622.95 226.14 596.98 217.66"
/>
<path stroke="#736861" vector-effect="non-scaling-stroke" d="
  M 596.98 217.66
  Q 559.84 205.10 520.72 203.63"
/>
<path stroke="#665a51" vector-effect="non-scaling-stroke" d="
  M 520.72 203.63
  Q 478.96 201.91 438.70 213.11"
/>
<path stroke="#d2bcaf" vector-effect="non-scaling-stroke" d="
  M 520.72 203.63
  Q 519.72 203.82 518.61 203.80
  Q 518.95 204.00 519.32 203.87
  Q 519.82 203.69 520.22 204.04
  A 0.17 0.17 0.0 0 1 520.03 204.31
  Q 519.77 204.17 519.65 204.42
  Q 519.49 204.75 519.84 204.84
  L 522.42 205.50
  Q 522.88 205.62 523.07 206.06
  Q 523.71 207.48 522.49 208.47
  Q 521.13 209.57 520.00 210.93
  A 1.99 1.92 10.8 0 1 519.07 211.54
  Q 516.46 212.31 514.32 213.42
  C 512.80 214.20 512.03 215.70 510.59 216.59
  Q 506.21 219.31 502.50 222.39
  A 0.95 0.89 -61.0 0 1 501.88 222.59
  Q 501.60 222.57 501.33 222.68
  Q 500.97 222.82 500.68 223.07
  Q 499.46 224.08 498.11 225.11
  Q 493.44 228.70 486.29 235.91
  Q 486.08 236.13 485.78 236.08
  Q 485.51 236.03 485.41 236.26
  Q 485.01 237.20 485.33 238.08
  Q 485.51 238.57 485.10 238.90
  L 483.57 240.11
  Q 483.05 240.51 483.69 240.67
  Q 484.29 240.83 484.95 241.28"
/>
<path stroke="#baa698" vector-effect="non-scaling-stroke" d="
  M 351.52 269.66
  Q 351.87 267.28 352.00 265.50
  Q 352.19 263.05 353.00 265.37
  Q 353.50 266.81 355.26 267.54
  Q 355.61 267.69 355.86 267.97
  Q 356.70 268.96 358.01 269.01
  Q 358.55 269.04 358.95 268.68
  Q 359.24 268.42 359.61 268.41
  Q 360.08 268.38 360.53 268.23
  Q 366.94 266.03 373.74 263.28
  Q 376.30 262.24 378.85 261.56
  Q 381.63 260.81 383.89 259.12
  Q 386.20 257.38 388.73 256.38
  Q 390.31 255.75 391.45 254.84
  Q 392.65 253.88 393.89 252.98
  Q 395.22 252.00 396.66 251.57
  Q 397.94 251.18 398.95 250.29
  Q 400.27 249.13 401.93 248.15
  Q 407.58 244.81 412.93 241.39
  Q 415.51 239.74 417.75 237.85
  Q 419.96 235.99 422.35 234.33
  Q 426.97 231.11 431.48 227.33
  Q 432.02 226.88 432.64 226.60
  Q 433.31 226.31 433.69 225.70
  Q 435.08 223.48 436.22 221.40
  C 436.89 220.18 438.19 219.46 438.69 218.01
  Q 439.07 216.92 439.92 216.13
  Q 440.33 215.75 440.03 215.27
  L 438.70 213.11"
/>
<path stroke="#efdbd2" vector-effect="non-scaling-stroke" d="
  M 596.98 217.66
  L 592.20 217.89
  Q 591.77 217.91 592.09 218.19
  Q 592.45 218.51 592.77 218.27
  Q 593.22 217.94 593.61 218.33
  Q 593.82 218.54 593.87 218.85
  A 0.41 0.41 0.0 0 1 593.72 219.24
  Q 593.44 219.48 593.20 219.39
  Q 592.43 219.08 592.83 219.81
  Q 593.17 220.43 593.30 221.14
  Q 593.38 221.55 593.20 221.93
  Q 592.12 224.18 590.24 225.79
  Q 589.87 226.11 589.69 226.57
  Q 588.92 228.55 587.16 230.12
  Q 586.07 231.09 585.52 232.50
  Q 585.02 233.77 584.29 234.86
  Q 583.65 235.83 582.93 236.86
  Q 582.40 237.63 582.04 238.52
  C 581.40 240.10 581.47 241.42 580.31 242.85
  Q 579.11 244.35 577.65 245.30
  Q 577.05 245.69 577.74 245.84
  Q 577.90 245.87 578.00 246.02
  Q 578.28 246.44 577.97 246.83
  Q 577.05 247.98 575.73 247.77
  Q 575.20 247.69 574.84 248.09
  Q 574.67 248.28 574.39 248.35
  Q 573.20 248.62 574.42 248.66
  Q 575.76 248.70 576.07 249.48
  Q 576.22 249.85 576.62 249.87
  Q 578.79 249.98 578.78 251.08"
/>
<path stroke="#feece4" vector-effect="non-scaling-stroke" d="
  M 256.66 585.75
  Q 256.63 584.55 257.04 584.08
  Q 257.44 583.63 257.77 584.14
  Q 258.30 584.95 258.11 585.85
  Q 258.01 586.31 258.44 586.51
  Q 258.69 586.63 258.93 586.52
  Q 259.59 586.24 259.29 586.89
  Q 259.16 587.17 259.29 587.49
  Q 259.52 588.05 259.71 587.47
  Q 259.98 586.66 259.48 585.97
  Q 259.19 585.57 259.11 585.09
  Q 258.88 583.76 259.73 582.67
  Q 260.00 582.33 260.11 581.92
  Q 260.42 580.76 261.60 580.39
  Q 261.77 580.34 261.85 580.18
  Q 261.93 580.00 261.86 579.84
  Q 261.70 579.47 262.08 579.34
  Q 262.50 579.20 262.97 579.21
  Q 263.48 579.21 263.68 579.68
  Q 264.01 580.47 265.04 580.36
  Q 265.78 580.28 266.21 579.78
  Q 266.96 578.91 267.47 577.88
  Q 267.70 577.42 268.19 577.25
  Q 269.48 576.83 270.78 576.93
  Q 271.26 576.97 271.64 576.67
  Q 272.40 576.06 273.34 575.98
  Q 273.89 575.94 274.01 575.40
  Q 274.13 574.89 274.66 574.88
  Q 275.46 574.86 275.84 574.14
  Q 276.98 571.97 279.78 572.56
  Q 280.42 572.70 281.04 572.45
  Q 281.78 572.15 282.73 572.24
  Q 283.36 572.29 283.58 571.71
  Q 284.51 569.22 287.93 570.74
  Q 288.24 570.88 288.25 570.53
  Q 288.25 570.27 288.50 570.25
  A 0.23 0.23 0.0 0 1 288.74 570.55
  Q 288.68 570.73 288.80 570.86
  A 0.22 0.21 -39.7 0 0 289.09 570.88
  Q 290.63 569.77 291.34 569.95"
/>
<path stroke="#90847e" vector-effect="non-scaling-stroke" d="
  M 291.34 569.95
  L 300.37 588.84"
/>
<path stroke="#9e918a" vector-effect="non-scaling-stroke" d="
  M 300.37 588.84
  Q 309.00 603.60 319.19 617.32
  Q 334.75 638.27 354.76 655.02"
/>
<path stroke="#aa9b93" vector-effect="non-scaling-stroke" d="
  M 354.76 655.02
  Q 376.59 673.60 398.36 684.64
  Q 418.79 695.00 440.23 703.07
  Q 445.76 705.15 452.00 706.93"
/>
<path stroke="#d7c5bb" vector-effect="non-scaling-stroke" d="
  M 563.78 711.26
  Q 565.46 710.32 566.97 708.99
  Q 568.72 707.45 570.17 706.86
  Q 573.78 705.38 576.99 704.24
  Q 600.48 695.90 624.24 683.08
  Q 642.84 673.04 659.31 659.98
  Q 671.24 650.51 683.81 636.80
  Q 698.00 621.33 703.27 614.18
  Q 728.80 579.50 740.27 537.26
  Q 742.64 528.51 744.87 511.77"
/>
<path stroke="#aa9b93" vector-effect="non-scaling-stroke" d="
  M 744.87 511.77
  Q 749.73 479.38 745.67 446.99"
/>
<path stroke="#9e918a" vector-effect="non-scaling-stroke" d="
  M 745.67 446.99
  Q 739.82 404.96 719.56 367.46"
/>
<path stroke="#90847e" vector-effect="non-scaling-stroke" d="
  M 719.56 367.46
  L 706.65 346.29"
/>
<path stroke="#302923" vector-effect="non-scaling-stroke" d="
  M 331.48 585.96
  Q 330.16 585.93 329.40 584.61
  A 0.15 0.15 0.0 0 0 329.13 584.63
  Q 329.00 584.90 328.80 584.68
  Q 328.62 584.47 328.51 584.17
  Q 328.43 583.96 328.36 583.72
  Q 328.07 582.85 328.19 583.76
  Q 328.37 585.22 326.64 585.50
  Q 326.25 585.56 326.04 585.24
  Q 325.79 584.87 325.39 585.07
  Q 322.29 586.67 319.25 587.01
  Q 318.80 587.06 318.49 587.39
  Q 317.67 588.25 316.84 587.37
  Q 316.27 586.76 316.07 587.59
  Q 316.03 587.76 315.90 587.89
  Q 315.52 588.25 315.10 587.94
  Q 314.78 587.70 314.49 588.02
  A 0.70 0.69 -70.0 0 1 313.99 588.26
  Q 311.81 588.36 309.83 588.24
  Q 308.53 588.17 307.36 588.39
  Q 305.75 588.70 304.20 587.77
  Q 303.84 587.56 303.50 587.80
  Q 302.92 588.21 302.53 588.75
  Q 302.23 589.14 301.75 589.06
  L 300.37 588.84"
/>
<path stroke="#302923" vector-effect="non-scaling-stroke" d="
  M 719.56 367.46
  Q 719.38 368.37 718.29 368.26
  Q 718.25 368.26 718.23 368.22
  L 718.09 367.82
  A 0.68 0.68 0.0 0 0 717.45 367.37
  L 717.04 367.37
  Q 716.67 367.37 716.68 367.74
  Q 716.70 368.65 715.74 368.90
  Q 715.22 369.04 714.99 369.53
  Q 714.72 370.10 714.15 370.37
  Q 713.50 370.68 713.28 371.36
  Q 712.74 372.96 712.14 374.40
  Q 711.22 376.60 708.75 378.44
  A 0.95 0.93 72.2 0 0 708.37 379.20
  L 708.37 381.72
  A 0.40 0.40 0.0 0 1 707.86 382.11
  Q 707.58 382.04 707.47 382.30
  Q 707.31 382.71 707.18 383.13
  Q 706.93 384.02 707.11 384.98
  Q 707.50 386.96 707.63 388.68
  Q 707.66 389.14 707.92 389.53
  Q 708.91 390.96 708.76 392.76"
/>
<path stroke="#827469" vector-effect="non-scaling-stroke" d="
  M 733.01 461.91
  Q 733.37 464.01 734.03 466.02
  Q 734.70 468.05 735.28 470.05
  Q 739.23 483.62 741.08 490.75
  Q 743.95 501.87 743.57 511.43
  A 0.58 0.57 79.8 0 0 744.37 511.99
  Q 744.70 511.85 744.59 511.51
  Q 744.46 511.10 744.87 511.77"
/>
<path stroke="#4a3f38" vector-effect="non-scaling-stroke" d="
  M 377.36 637.70
  L 373.86 636.94
  Q 373.39 636.84 373.04 637.16
  Q 370.97 638.96 368.92 641.02
  Q 367.90 642.04 366.46 642.43
  Q 366.02 642.54 365.75 642.92
  Q 364.37 644.87 362.91 646.71
  C 361.83 648.06 360.09 648.69 359.54 650.43
  Q 359.39 650.90 358.96 651.13
  Q 358.05 651.62 357.13 652.10
  Q 356.59 652.38 356.33 652.85
  Q 355.99 653.49 356.24 654.13
  Q 356.42 654.59 356.00 654.87
  Q 355.54 655.16 354.76 655.02"
/>
<path stroke="#90847e" vector-effect="non-scaling-stroke" d="
  M 285.00 553.83
  L 291.34 569.95"
/>
<path stroke="#4a3f38" vector-effect="non-scaling-stroke" d="
  M 745.67 446.99
  L 745.59 460.26
  Q 745.58 461.22 745.04 460.43
  Q 744.74 459.99 744.71 459.38
  Q 744.70 459.17 744.50 459.18
  L 744.49 459.18
  Q 744.28 459.19 744.32 459.40
  Q 744.76 461.61 743.29 463.39
  Q 742.99 463.76 743.33 464.10
  Q 743.71 464.47 743.58 464.99
  Q 742.74 468.45 740.64 470.79
  Q 740.31 471.16 739.83 471.03
  Q 738.95 470.80 738.17 471.40
  Q 737.75 471.72 737.86 472.24
  Q 737.95 472.59 737.83 472.95
  Q 737.62 473.58 737.37 472.96
  L 733.01 461.91"
/>
<path stroke="#776a60" vector-effect="non-scaling-stroke" d="
  M 733.01 461.91
  Q 730.44 454.79 727.58 447.59
  Q 726.82 445.68 725.85 443.93
  Q 724.67 441.80 724.13 440.23
  Q 722.85 436.45 721.06 433.10
  Q 720.75 432.50 720.61 431.85
  Q 719.98 428.91 719.45 430.98"
/>
<path stroke="#efdbd2" vector-effect="non-scaling-stroke" d="
  M 282.59 409.04
  Q 282.19 408.71 281.74 408.99
  Q 281.16 409.34 281.10 408.67
  Q 280.93 406.87 279.09 407.32
  Q 278.55 407.45 278.15 407.06
  Q 276.77 405.75 275.07 405.44
  Q 273.62 405.18 272.33 404.62
  Q 271.27 404.15 270.09 404.09
  Q 263.66 403.76 257.65 402.52
  C 256.22 402.23 254.81 402.74 253.35 402.73
  Q 252.66 402.72 252.15 402.29
  Q 251.79 401.98 251.32 401.88
  Q 249.65 401.51 248.17 400.55
  Q 247.87 400.36 247.87 400.72
  L 247.87 401.89
  Q 247.87 402.62 247.38 402.09
  Q 246.89 401.57 247.27 400.95
  Q 247.50 400.57 247.28 400.19
  Q 246.88 399.50 247.36 398.83
  Q 247.66 398.40 247.72 397.88
  Q 248.11 394.72 246.74 395.43"
/>
<path stroke="#d2bcaf" vector-effect="non-scaling-stroke" d="
  M 330.64 321.10
  Q 329.94 319.61 330.79 318.82
  Q 331.20 318.44 330.95 317.93
  Q 330.61 317.24 330.78 316.44
  Q 330.83 316.22 330.63 316.12
  Q 328.62 315.11 327.22 315.98
  Q 326.92 316.17 326.57 316.10
  L 320.56 315.01
  Q 320.51 315.00 320.47 315.02
  L 319.50 315.37
  A 0.71 0.55 33.7 0 1 319.22 315.39
  L 311.57 314.26
  Q 311.24 314.22 310.94 314.33
  Q 310.71 314.42 310.46 314.37
  Q 308.97 314.10 307.45 313.99
  Q 305.95 313.89 304.33 313.46
  Q 302.83 313.06 301.01 313.23
  Q 300.50 313.28 300.05 313.03
  Q 299.74 312.86 299.40 312.72
  Q 299.01 312.56 298.66 312.81
  Q 298.08 313.21 297.31 313.19
  C 296.20 313.17 295.93 312.43 294.74 312.60
  Q 294.54 312.63 294.34 312.56
  Q 294.13 312.49 294.17 312.26
  Q 294.27 311.63 293.70 311.92
  Q 293.34 312.09 293.12 312.50
  Q 292.84 313.03 292.35 313.08
  Q 291.90 313.12 291.80 312.68
  Q 291.70 312.24 291.04 311.79"
/>
<path stroke="#736861" vector-effect="non-scaling-stroke" d="
  M 340.75 380.48
  Q 332.86 396.25 329.05 413.52
  Q 327.59 420.15 331.57 425.23
  Q 339.49 435.33 349.61 442.17
  Q 353.68 444.92 357.45 442.36
  C 362.25 439.12 361.89 432.96 363.02 428.00
  C 365.49 417.15 369.51 407.81 374.09 398.03
  Q 374.31 397.58 374.71 397.87
  Q 388.39 407.47 403.82 414.43"
/>
<path stroke="#837973" vector-effect="non-scaling-stroke" d="
  M 403.82 414.43
  Q 445.44 433.76 491.43 436.49
  Q 491.93 436.52 491.92 437.02
  Q 491.65 454.08 491.78 471.72
  Q 491.81 477.22 492.81 479.69
  C 497.47 491.20 513.97 492.05 522.77 485.72
  C 528.24 481.79 528.24 476.53 528.08 470.47
  Q 527.65 453.81 528.02 437.17
  A 0.41 0.41 0.0 0 1 528.40 436.77
  Q 563.49 433.89 596.30 422.19
  C 613.27 416.14 629.09 407.59 643.78 397.27
  A 0.59 0.58 58.9 0 1 644.64 397.49
  L 648.88 406.00"
/>
<path stroke="#15110d" vector-effect="non-scaling-stroke" d="
  M 648.88 406.00
  Q 648.95 406.50 648.84 406.79
  Q 648.62 407.36 648.16 406.97
  Q 647.55 406.44 646.79 406.63
  Q 646.32 406.75 646.33 407.24
  Q 646.47 412.65 646.29 418.00
  C 646.22 419.98 645.24 421.75 645.37 423.71
  Q 645.57 426.86 644.77 429.57
  C 644.16 431.66 644.09 433.77 643.56 435.89
  Q 640.54 447.89 634.76 459.84
  Q 633.49 462.47 632.93 465.09
  A 0.42 0.42 0.0 0 0 633.50 465.57
  Q 650.42 458.74 665.37 447.62
  Q 668.70 445.15 672.81 440.21"
/>
<path stroke="#837973" vector-effect="non-scaling-stroke" d="
  M 672.81 440.21
  Q 679.70 434.36 686.10 427.60
  C 689.12 424.40 692.01 419.78 691.21 415.33
  Q 690.27 410.09 688.44 404.45
  C 674.99 363.08 645.92 327.07 610.52 302.23
  Q 605.13 298.44 599.32 295.23"
/>
<path stroke="#736861" vector-effect="non-scaling-stroke" d="
  M 599.32 295.23
  Q 582.63 285.33 562.50 279.23
  Q 545.72 274.14 530.48 272.38"
/>
<path stroke="#665a51" vector-effect="non-scaling-stroke" d="
  M 530.48 272.38
  Q 513.34 271.13 499.75 271.79
  Q 468.87 273.28 438.74 286.46
  Q 422.50 293.57 413.07 299.66
  Q 379.78 321.13 356.08 354.07
  Q 348.58 364.48 340.75 380.48"
/>
<path stroke="#d2bcaf" vector-effect="non-scaling-stroke" d="
  M 530.48 272.38
  L 528.17 272.53
  Q 527.71 272.56 527.29 272.74
  Q 526.48 273.07 525.62 272.78
  Q 525.18 272.63 524.86 272.96
  Q 524.16 273.68 523.13 273.96
  A 1.34 1.32 -89.9 0 0 522.20 274.90
  Q 521.94 275.85 521.17 276.45
  Q 518.78 278.32 516.66 280.91
  Q 516.07 281.63 516.85 281.13
  L 519.60 279.36
  Q 520.15 279.00 520.00 279.64
  Q 519.75 280.63 518.87 281.30
  Q 512.49 286.18 505.64 290.91
  Q 504.92 291.41 504.39 291.95
  Q 503.85 292.51 503.08 292.60
  A 1.11 1.09 13.1 0 0 502.29 293.08
  C 500.54 295.62 498.03 296.69 495.91 298.77
  Q 494.43 300.22 492.57 301.48
  Q 490.83 302.66 489.37 304.05
  Q 487.84 305.50 486.17 306.54
  Q 486.01 306.64 486.09 306.82
  Q 486.17 306.97 486.09 307.09
  Q 485.90 307.41 485.50 307.51
  Q 480.93 308.63 478.48 311.33"
/>
<path stroke="#665a51" vector-effect="non-scaling-stroke" d="
  M 478.48 311.33
  Q 448.78 318.49 425.50 335.29
  Q 417.36 341.17 407.01 352.05"
/>
<path stroke="#d2bcaf" vector-effect="non-scaling-stroke" d="
  M 407.01 352.05
  Q 405.78 352.17 405.75 352.17
  A 3.10 2.43 -71.8 0 0 403.20 353.87
  Q 402.74 354.78 401.88 355.37
  Q 401.49 355.64 401.02 355.64
  L 398.60 355.69
  Q 398.19 355.70 398.13 356.10
  Q 398.00 357.07 397.05 357.14
  Q 393.79 357.41 391.75 359.57
  Q 391.51 359.83 391.16 359.84
  Q 389.32 359.94 388.01 361.48
  Q 387.64 361.91 387.13 362.14
  L 384.72 363.24
  Q 384.21 363.48 384.15 364.04
  Q 384.10 364.44 383.72 364.57
  Q 377.48 366.66 372.21 370.00
  Q 370.82 370.88 369.58 371.39
  C 368.19 371.96 366.59 372.75 365.10 373.02
  Q 364.17 373.19 363.50 373.82
  Q 363.11 374.19 362.57 374.28
  L 356.41 375.35
  Q 355.87 375.44 355.43 375.77
  Q 354.29 376.62 352.94 376.35
  A 1.17 1.16 -63.0 0 0 351.87 376.70
  Q 351.26 377.33 350.43 377.02
  A 1.48 1.47 37.4 0 0 349.05 377.20
  Q 347.10 378.58 344.67 378.07
  Q 343.99 377.92 343.83 378.60
  Q 343.78 378.81 343.56 378.82
  Q 342.87 378.82 343.12 379.48
  Q 343.27 379.86 342.79 380.03
  Q 342.75 380.05 342.74 380.01
  L 342.62 379.51
  Q 342.51 379.08 342.26 379.44
  Q 341.79 380.14 340.75 380.48"
/>
<path stroke="#efdbd2" vector-effect="non-scaling-stroke" d="
  M 599.32 295.23
  Q 599.03 296.77 597.85 296.99
  A 0.16 0.16 0.0 0 1 597.66 296.84
  Q 597.66 296.71 597.61 296.57
  Q 597.40 295.93 597.46 296.83
  Q 597.47 296.98 597.40 297.11
  Q 597.24 297.46 596.92 297.25
  Q 596.41 296.92 596.27 297.53
  Q 594.05 298.56 593.26 300.80
  A 1.93 1.86 -12.2 0 1 592.73 301.59
  Q 590.83 303.28 589.11 305.35
  C 588.53 306.06 587.46 306.42 586.89 307.15
  Q 585.29 309.19 582.25 311.11
  Q 580.81 312.02 579.79 313.83
  Q 579.72 313.95 579.63 314.04
  Q 579.49 314.17 579.30 314.13
  Q 578.75 314.00 578.34 314.41
  Q 576.69 316.07 574.63 317.06
  C 573.66 317.52 573.07 318.13 572.30 318.85
  Q 571.95 319.18 571.46 319.19
  L 569.59 319.22
  Q 568.96 319.23 569.52 319.53
  L 569.78 319.67
  Q 570.30 319.95 569.72 320.04
  L 568.27 320.29"
/>
<path stroke="#736861" vector-effect="non-scaling-stroke" d="
  M 568.27 320.29
  Q 550.11 312.24 529.12 309.31
  Q 527.97 309.14 527.97 310.31
  Q 528.09 331.25 528.11 352.21
  Q 528.12 361.77 527.52 364.00
  C 525.00 373.37 514.97 378.05 505.72 376.13
  C 498.52 374.64 491.73 368.03 491.73 360.17
  Q 491.74 335.69 491.74 310.31
  Q 491.74 309.77 491.20 309.83
  L 478.48 311.33"
/>
<path stroke="#736861" vector-effect="non-scaling-stroke" d="
  M 467.23 395.63
  C 450.78 392.17 433.82 387.24 419.38 379.57
  Q 407.37 373.19 396.37 365.62
  A 0.64 0.63 34.4 0 1 396.20 364.74
  Q 400.87 357.91 407.01 352.05"
/>
<path stroke="#90847e" vector-effect="non-scaling-stroke" d="
  M 672.81 440.21
  C 670.49 441.68 667.54 443.97 664.96 443.89
  C 660.58 443.76 657.84 438.07 657.25 434.24
  Q 654.97 419.64 648.88 406.00"
/>
<path stroke="#efdbd2" vector-effect="non-scaling-stroke" d="
  M 403.82 414.43
  Q 403.52 413.30 402.25 413.11
  Q 401.34 412.97 401.27 411.96
  Q 401.26 411.80 401.14 411.69
  Q 400.93 411.52 400.78 411.75
  A 0.33 0.32 45.5 0 1 400.24 411.74
  Q 400.07 411.48 400.07 411.14
  Q 400.07 410.94 400.25 410.89
  Q 401.44 410.50 401.69 411.50
  Q 401.77 411.83 402.11 411.85
  Q 403.25 411.92 404.33 411.84
  Q 404.85 411.80 404.44 412.13
  Q 404.32 412.23 404.35 412.41
  Q 404.49 413.09 405.17 412.95
  L 408.55 412.25
  Q 409.03 412.15 409.45 412.40
  L 411.12 413.40
  Q 411.59 413.68 411.96 413.27
  Q 412.44 412.75 413.17 412.83
  A 1.22 1.22 0.0 0 0 414.12 412.50
  Q 415.33 411.35 416.99 411.93
  Q 417.45 412.09 417.93 412.00
  Q 419.28 411.74 420.75 411.85
  Q 426.27 412.26 430.46 411.66
  Q 432.78 411.32 435.20 410.20
  Q 437.27 409.24 439.58 408.51
  Q 445.33 406.68 450.86 404.20
  Q 450.98 404.15 452.03 403.38
  Q 452.63 402.95 453.35 403.10
  A 1.80 1.80 0.0 0 0 454.67 402.85
  Q 455.65 402.23 456.41 401.27
  Q 456.78 400.82 457.36 400.72
  L 462.29 399.92
  Q 462.77 399.84 463.09 399.48
  Q 463.66 398.82 464.03 398.13
  Q 464.26 397.68 464.69 397.93
  Q 464.94 398.08 465.21 398.19
  Q 466.32 398.67 465.39 397.89
  Q 464.76 397.35 464.35 396.75
  Q 463.40 395.33 465.06 395.75
  Q 465.85 395.95 467.23 395.63"
/>
<path stroke="#837973" vector-effect="non-scaling-stroke" d="
  M 467.23 395.63
  Q 530.85 408.04 589.89 384.14
  C 601.66 379.37 612.07 373.05 622.13 365.70
  A 0.68 0.68 0.0 0 0 622.28 364.75
  Q 600.96 335.52 568.27 320.29"
/>
<path stroke="#837973" vector-effect="non-scaling-stroke" d="
  M 632.95 614.48
  Q 634.41 613.31 635.82 612.05
  C 653.56 596.18 668.38 577.65 678.95 556.21
  Q 690.42 532.95 695.21 510.23
  Q 699.85 488.23 699.23 459.00
  C 699.17 456.23 696.91 453.62 694.01 454.61
  Q 693.57 454.76 693.28 455.12
  Q 688.77 460.83 680.43 466.37
  Q 651.99 485.26 618.90 495.15
  C 608.95 498.13 598.75 501.32 589.00 503.62
  C 577.00 506.45 562.12 508.92 548.72 510.44
  Q 484.97 517.70 420.75 501.50
  Q 398.71 495.94 379.13 487.13
  Q 365.52 481.00 360.90 478.51
  Q 344.27 469.52 326.55 454.79
  A 1.68 1.68 0.0 0 0 325.56 454.40
  C 322.28 454.20 321.20 457.08 321.23 459.94
  C 321.41 477.47 321.29 492.55 324.54 508.48
  Q 333.99 554.81 363.77 591.02
  Q 370.51 599.23 377.12 606.02
  C 393.51 622.88 414.14 635.88 436.80 645.36
  C 467.95 658.39 501.37 663.52 534.20 658.69
  Q 575.83 652.56 612.39 629.81
  C 619.57 625.34 626.35 619.75 632.95 614.48"
/>
<path stroke="#15110d" vector-effect="non-scaling-stroke" d="
  M 487.96 839.99
  Q 485.24 839.77 482.52 839.84
  Q 476.90 839.99 471.34 840.04
  C 463.06 840.11 454.66 841.05 446.47 841.46
  Q 439.09 841.82 431.61 842.56
  C 423.46 843.35 415.18 843.50 406.77 844.96
  C 404.09 845.42 401.46 845.26 398.71 845.91
  Q 395.86 846.58 392.80 846.88
  Q 379.94 848.15 366.78 851.34
  C 361.55 852.61 356.43 853.62 352.54 857.50
  Q 349.91 860.12 352.82 862.27
  Q 358.77 866.68 367.30 868.54
  Q 398.17 875.28 435.22 877.36
  Q 437.48 877.48 442.13 877.82
  Q 478.04 880.42 508.03 880.16
  Q 533.77 879.95 561.02 878.91
  Q 571.40 878.51 580.00 877.77
  Q 597.45 876.26 613.99 874.64
  Q 631.61 872.90 649.70 869.02
  Q 657.59 867.33 664.36 863.94
  Q 666.47 862.89 667.96 860.44
  Q 668.23 860.01 668.11 859.52
  C 666.88 854.62 656.91 852.37 652.62 850.94
  C 649.25 849.81 645.74 849.67 642.31 848.84
  Q 639.81 848.25 637.06 847.91
  Q 628.59 846.86 621.05 845.78
  Q 604.12 843.38 582.40 841.77
  Q 559.41 840.06 538.19 839.51
  Q 522.05 839.09 502.61 839.45
  Q 499.20 839.52 495.60 839.93
  Q 492.04 840.33 487.96 839.99"
/>
<path stroke="#837973" vector-effect="non-scaling-stroke" d="
  M 371.17 537.05
  L 372.33 539.37"
/>
<path stroke="#90847e" vector-effect="non-scaling-stroke" d="
  M 372.33 539.37
  Q 380.21 555.81 392.22 569.48"
/>
<path stroke="#9e918a" vector-effect="non-scaling-stroke" d="
  M 392.22 569.48
  Q 405.16 585.43 422.26 597.04"
/>
<path stroke="#aa9b93" vector-effect="non-scaling-stroke" d="
  M 422.26 597.04
  Q 453.50 618.52 491.41 622.90
  Q 491.94 622.96 491.94 622.43
  L 492.31 549.23
  A 1.07 1.07 0.0 0 0 491.32 548.16
  L 473.51 546.87"
/>
<path stroke="#9e918a" vector-effect="non-scaling-stroke" d="
  M 473.51 546.87
  Q 451.35 545.01 435.12 541.63
  Q 425.75 539.67 405.71 534.19"
/>
<path stroke="#90847e" vector-effect="non-scaling-stroke" d="
  M 405.71 534.19
  Q 384.21 527.76 364.35 518.93
  Q 363.10 518.38 363.64 519.63
  L 371.17 537.05"
/>
<path stroke="#302923" vector-effect="non-scaling-stroke" d="
  M 405.71 534.19
  Q 406.08 535.01 407.16 535.21
  Q 407.77 535.32 407.28 535.70
  Q 406.85 536.03 406.29 535.94
  Q 404.03 535.55 401.65 535.04
  Q 401.51 535.01 401.40 534.92
  Q 401.27 534.83 401.32 534.64
  Q 401.37 534.37 401.10 534.37
  Q 399.41 534.36 397.59 534.38
  Q 397.26 534.38 396.98 534.22
  Q 396.67 534.04 396.68 533.68
  Q 396.71 533.24 396.32 533.03
  Q 394.28 531.90 392.42 532.12
  A 0.97 0.88 -25.6 0 1 391.69 531.90
  Q 391.58 531.80 391.57 531.65
  Q 391.53 531.12 391.01 531.03
  L 387.00 530.36
  Q 386.65 530.31 386.67 530.66
  Q 386.68 530.81 386.61 530.95
  Q 386.37 531.44 385.84 531.29
  Q 384.15 530.79 382.26 530.97
  Q 382.08 530.99 382.04 531.17
  Q 382.00 531.33 381.76 531.34
  Q 381.63 531.35 381.53 531.29
  Q 380.47 530.66 379.79 531.68
  A 0.84 0.81 8.8 0 1 379.32 532.01
  L 374.47 533.18
  Q 373.90 533.31 373.41 533.00
  L 371.95 532.08
  Q 371.36 531.70 371.48 532.39
  Q 371.81 534.33 372.75 536.05"
/>
<path stroke="#15110d" vector-effect="non-scaling-stroke" d="
  M 372.75 536.05
  Q 372.22 535.88 371.79 535.89
  Q 371.30 535.91 371.34 536.40
  Q 371.37 536.79 371.17 537.05"
/>
<path stroke="#2e2722" vector-effect="non-scaling-stroke" d="
  M 444.29 557.02
  Q 457.94 559.46 469.50 560.45
  Q 477.61 561.14 484.68 561.80
  C 486.33 561.96 487.75 562.61 489.44 562.31
  Q 489.97 562.22 490.14 562.73
  Q 490.86 564.84 490.66 566.76
  Q 490.24 570.81 490.86 573.96"
/>
<path stroke="#15110d" vector-effect="non-scaling-stroke" d="
  M 490.86 573.96
  L 490.74 579.44
  A 1.70 1.70 0.0 0 1 488.65 581.06
  Q 486.94 580.66 486.12 582.22
  A 1.08 1.06 13.0 0 1 485.21 582.78
  L 483.19 582.83
  Q 482.65 582.85 482.25 583.21
  Q 480.86 584.47 478.97 584.30
  Q 478.44 584.25 478.18 584.72
  Q 477.74 585.54 476.78 585.72
  Q 474.68 586.11 472.89 586.95
  Q 471.72 587.50 469.69 587.95
  Q 468.32 588.26 466.81 589.36
  Q 466.37 589.67 465.84 589.65
  Q 465.31 589.63 464.94 590.01
  Q 464.69 590.27 464.33 590.31
  L 461.06 590.65
  Q 460.57 590.70 460.19 591.02
  Q 458.63 592.33 456.89 591.41
  A 1.26 1.16 -29.9 0 0 456.28 591.27
  L 452.32 591.39
  Q 451.87 591.41 451.51 591.14
  Q 450.62 590.48 449.17 591.16"
/>
<path stroke="#2e2722" vector-effect="non-scaling-stroke" d="
  M 449.17 591.16
  L 436.90 586.20"
/>
<path stroke="#231d19" vector-effect="non-scaling-stroke" d="
  M 436.90 586.20
  Q 424.85 580.01 413.74 572.58"
/>
<path stroke="#15110d" vector-effect="non-scaling-stroke" d="
  M 413.74 572.58
  Q 412.00 571.15 407.60 568.39
  Q 403.92 566.09 396.53 560.02
  Q 390.07 554.71 377.09 542.57
  Q 376.22 541.76 374.75 540.95
  Q 373.57 540.29 372.33 539.37"
/>
<path stroke="#4a3f38" vector-effect="non-scaling-stroke" d="
  M 473.51 546.87
  Q 473.42 547.29 473.98 547.33
  A 0.48 0.48 0.0 0 1 474.41 547.91
  Q 474.37 548.09 474.22 548.23
  Q 474.05 548.38 473.82 548.38
  Q 469.50 548.38 465.20 548.36
  C 463.57 548.35 462.05 548.78 460.47 549.24
  Q 459.99 549.38 459.50 549.27
  C 457.51 548.84 455.13 550.40 453.50 551.44
  Q 452.42 552.12 451.25 552.03
  Q 450.78 551.99 450.33 552.05
  L 444.86 552.78
  A 0.88 0.88 0.0 0 0 444.12 553.85
  Q 444.23 554.33 443.90 554.62
  Q 443.24 555.19 443.91 555.76
  Q 444.45 556.21 444.29 557.02"
/>
<path stroke="#231d19" vector-effect="non-scaling-stroke" d="
  M 444.29 557.02
  Q 433.81 555.02 423.34 553.06
  C 418.19 552.09 413.56 550.74 408.68 549.31
  Q 403.42 547.76 397.94 545.69
  Q 385.63 541.06 373.93 536.72
  Q 373.74 536.65 373.55 536.61
  Q 373.12 536.52 372.75 536.05"
/>
<path stroke="#4a3f38" vector-effect="non-scaling-stroke" d="
  M 422.26 597.04
  Q 424.00 597.47 426.07 595.17
  Q 429.71 591.15 430.34 589.12
  Q 430.50 588.63 431.01 588.67
  Q 431.27 588.69 431.49 588.58
  Q 431.88 588.38 432.21 588.04
  Q 433.94 586.20 436.90 586.20"
/>
<path stroke="#3c332c" vector-effect="non-scaling-stroke" d="
  M 449.17 591.16
  Q 465.53 597.06 482.54 600.18
  Q 486.17 600.84 489.33 600.94
  Q 490.67 600.98 490.96 599.67
  C 491.23 598.51 491.69 597.64 491.47 596.42
  Q 490.77 592.55 491.26 588.34
  Q 491.59 585.48 491.68 582.68
  Q 491.69 582.22 491.37 581.90
  Q 491.24 581.77 491.17 581.60
  Q 491.05 581.25 491.06 580.87
  Q 491.20 577.41 490.86 573.96"
/>
<path stroke="#302923" vector-effect="non-scaling-stroke" d="
  M 413.74 572.58
  Q 411.20 572.66 409.09 571.69
  Q 408.66 571.49 408.19 571.47
  L 406.25 571.37
  A 0.79 0.78 -7.9 0 1 405.53 570.83
  Q 405.24 569.97 404.35 570.13
  Q 403.95 570.20 403.74 570.54
  Q 402.99 571.75 401.97 572.57
  Q 401.49 572.95 401.39 573.56
  Q 401.28 574.24 400.96 574.84
  Q 400.75 575.26 400.30 575.39
  Q 399.23 575.69 398.87 574.81
  Q 398.75 574.52 398.45 574.44
  Q 398.28 574.39 398.13 574.47
  Q 397.56 574.78 397.20 574.23
  Q 395.23 571.22 392.22 569.48"
/>
<path stroke="#aa9b93" vector-effect="non-scaling-stroke" d="
  M 591.72 539.61
  Q 560.82 547.30 529.34 548.06
  A 1.06 1.05 -0.3 0 0 528.31 549.09
  L 527.91 568.34"
/>
<path stroke="#9e918a" vector-effect="non-scaling-stroke" d="
  M 527.91 568.34
  Q 527.59 569.23 528.07 568.83"
/>
<path stroke="#aa9b93" vector-effect="non-scaling-stroke" d="
  M 528.07 568.83
  L 528.08 583.73"
/>
<path stroke="#9e918a" vector-effect="non-scaling-stroke" d="
  M 528.08 583.73
  L 528.22 602.14"
/>
<path stroke="#d7c5bb" vector-effect="non-scaling-stroke" d="
  M 528.22 602.14
  L 528.23 622.27
  A 0.32 0.32 0.0 0 0 528.59 622.59
  Q 542.17 621.23 553.95 617.63
  C 565.85 614.00 576.88 609.89 587.64 603.29
  C 603.03 593.84 616.84 582.42 628.33 568.54
  C 635.59 559.77 642.59 550.81 646.85 541.34
  Q 651.65 530.69 655.66 520.48
  Q 656.21 519.07 654.85 519.74
  Q 645.79 524.24 636.54 527.33
  Q 614.50 534.71 591.72 539.61"
/>
<path stroke="#776a60" vector-effect="non-scaling-stroke" d="
  M 528.22 602.14
  Q 541.82 599.68 545.50 598.79
  Q 556.01 596.24 571.31 589.57
  Q 574.31 588.27 577.43 586.95
  Q 580.54 585.63 583.40 584.02
  Q 587.17 581.90 590.84 579.84
  Q 619.23 563.85 641.10 539.48
  Q 641.25 539.31 641.04 539.39
  Q 629.10 543.91 616.74 547.46
  Q 599.23 552.49 579.47 556.90"
/>
<path stroke="#827469" vector-effect="non-scaling-stroke" d="
  M 579.47 556.90
  Q 582.85 551.43 587.31 547.31
  Q 589.24 545.51 590.49 543.88
  Q 591.88 542.08 593.38 540.40
  Q 593.78 539.95 593.22 539.74
  Q 592.67 539.54 591.72 539.61"
/>
<path stroke="#2e2722" vector-effect="non-scaling-stroke" d="
  M 577.49 557.11
  C 567.26 558.41 557.12 559.95 546.80 560.83
  Q 537.81 561.61 528.96 562.49"
/>
<path stroke="#4a3f38" vector-effect="non-scaling-stroke" d="
  M 528.08 583.73
  L 528.07 568.83"
/>
<path stroke="#4a3f38" vector-effect="non-scaling-stroke" d="
  M 527.91 568.34
  L 528.96 562.49"
/>
<path stroke="#231d19" vector-effect="non-scaling-stroke" d="
  M 528.96 562.49
  L 528.89 581.00
  A 1.60 1.60 0.0 0 0 530.41 582.61
  Q 531.40 582.67 532.45 582.38
  Q 538.43 580.70 542.91 578.72
  Q 547.88 576.52 554.73 572.88
  Q 560.03 570.06 565.50 566.34
  Q 571.82 562.04 577.97 557.93
  Q 578.82 557.37 577.81 557.22
  Q 577.80 557.22 577.49 557.11"
/>
<path stroke="#4a3f38" vector-effect="non-scaling-stroke" d="
  M 577.49 557.11
  L 579.47 556.90"
/>
<path stroke="#90847e" vector-effect="non-scaling-stroke" d="
  M 464.11 848.49
  C 455.44 849.26 445.99 850.11 437.74 853.23
  C 434.51 854.45 430.58 858.40 435.23 861.23
  Q 438.14 863.01 442.57 864.06
  Q 451.96 866.28 461.82 867.03
  Q 508.59 870.57 555.73 867.09
  Q 565.01 866.41 574.42 864.62
  C 578.29 863.89 582.82 862.56 585.76 860.13
  C 587.81 858.42 586.46 855.72 584.56 854.63
  Q 580.75 852.45 575.86 851.46
  Q 563.97 849.06 551.70 848.19
  Q 505.01 844.87 464.11 848.49"
/>
</g>
<path fill="#070502" d="
  M 0.00 0.00
  L 1024.00 0.00
  L 1024.00 1024.00
  L 0.00 1024.00
  L 0.00 0.00
  Z
  M 438.70 213.11
  Q 410.38 221.02 383.97 233.96
  Q 369.93 240.84 359.73 249.18
  Q 349.93 257.19 351.52 269.66
  C 353.80 278.24 361.06 284.94 370.19 284.04
  Q 374.64 283.61 378.22 281.22
  Q 427.38 248.37 484.95 241.28
  C 516.93 237.84 548.13 241.51 578.78 251.08
  Q 614.28 262.61 644.67 283.88
  Q 653.65 290.17 660.68 295.86
  C 677.93 309.83 694.66 328.05 706.65 346.29
  Q 705.93 347.65 703.88 345.91
  Q 703.39 345.49 703.00 346.02
  Q 702.78 346.33 702.40 346.38
  Q 701.72 346.47 701.63 347.16
  Q 701.55 347.79 700.92 347.66
  Q 700.35 347.54 700.39 348.12
  Q 700.45 348.83 699.96 349.29
  Q 699.68 349.55 699.52 349.90
  L 698.77 351.48
  Q 698.52 352.01 697.95 351.87
  Q 696.97 351.63 696.59 352.55
  Q 696.13 353.70 696.27 354.92
  Q 696.32 355.32 695.97 355.58
  Q 695.83 355.68 695.89 355.84
  Q 695.95 355.97 696.06 356.05
  Q 696.43 356.30 696.31 356.73
  Q 695.88 358.25 694.74 359.07
  Q 694.24 359.42 694.48 359.99
  Q 695.20 361.68 695.66 363.52
  Q 696.03 364.99 696.89 366.58
  Q 699.05 370.52 701.06 374.12
  C 701.55 375.00 701.63 376.03 702.07 376.95
  Q 704.10 381.26 705.84 385.28
  C 706.74 387.36 707.31 390.38 708.76 392.76
  Q 711.31 399.37 713.28 406.23
  Q 713.86 408.25 714.78 410.66
  Q 715.87 413.51 716.16 415.12
  Q 717.61 423.12 719.45 430.98
  Q 720.62 436.42 721.14 443.50
  Q 722.77 465.53 721.87 485.54
  Q 721.54 493.06 720.36 500.14
  Q 717.83 515.27 713.60 530.41
  C 703.79 565.55 684.83 595.96 658.92 622.05
  C 650.92 630.10 641.53 637.87 632.44 644.24
  Q 596.96 669.10 555.66 679.37
  Q 547.83 681.32 539.36 682.61
  A 0.16 0.16 0.0 0 0 539.36 682.92
  C 545.43 684.12 551.19 683.83 557.22 684.04
  C 571.03 684.53 584.97 681.13 596.90 674.67
  Q 597.98 674.08 597.15 674.98
  L 563.78 711.26
  Q 545.25 731.37 526.41 751.24
  C 522.56 755.30 519.11 759.89 515.02 763.50
  C 509.60 768.30 504.65 764.30 500.90 760.10
  Q 488.22 745.88 463.29 718.47
  Q 457.06 711.61 452.00 706.93
  Q 447.75 701.69 440.21 693.79
  Q 435.23 688.55 423.58 675.24
  Q 422.98 674.56 422.50 673.90
  Q 421.40 672.39 422.98 673.38
  C 427.76 676.40 432.12 678.46 437.95 680.04
  Q 443.66 681.58 448.73 682.67
  Q 462.72 685.68 477.09 683.22
  Q 480.54 682.63 477.13 681.83
  Q 464.31 678.82 451.24 675.30
  Q 439.97 672.26 432.57 668.96
  C 429.55 667.61 426.42 667.04 423.41 665.50
  Q 415.43 661.41 407.85 657.65
  Q 395.20 651.37 377.36 637.70
  C 361.03 624.68 348.51 610.64 336.77 594.50
  Q 333.78 590.38 331.48 585.96
  Q 321.87 570.96 314.39 554.84
  Q 312.38 550.50 311.03 545.20
  A 1.74 1.71 -89.5 0 0 309.85 543.98
  C 308.19 543.48 307.54 545.13 305.88 544.54
  Q 305.42 544.37 304.97 544.57
  Q 303.66 545.17 302.34 545.80
  Q 301.37 546.26 300.02 546.33
  Q 297.25 546.48 294.54 546.64
  Q 293.27 546.71 292.01 547.30
  Q 290.57 547.98 289.30 548.65
  Q 288.87 548.88 288.41 548.76
  Q 287.17 548.45 286.35 549.51
  Q 286.04 549.91 286.03 550.41
  Q 285.99 552.22 285.00 553.83
  Q 276.32 529.43 273.41 500.10
  Q 269.61 461.75 277.73 426.99
  Q 279.85 417.91 282.59 409.04
  Q 286.21 397.92 289.44 389.93
  C 296.83 371.64 306.84 354.12 318.54 337.93
  Q 321.55 333.76 325.57 329.06
  Q 328.14 326.05 330.64 321.10
  Q 334.09 313.59 331.55 306.69
  C 326.78 293.75 310.01 291.27 300.57 300.33
  Q 296.10 304.62 291.04 311.79
  Q 283.10 321.77 276.36 332.63
  Q 257.88 362.37 246.74 395.43
  C 232.80 438.00 230.02 483.51 238.06 526.99
  Q 243.51 556.45 256.66 585.75
  C 276.50 630.24 308.65 670.92 349.18 699.07
  Q 362.66 708.43 374.06 714.99
  C 391.07 724.78 409.63 732.19 428.02 739.44
  Q 432.49 741.20 435.79 744.81
  Q 462.52 774.07 495.39 810.32
  C 501.82 817.41 512.68 819.32 520.34 813.28
  Q 523.81 810.54 527.32 806.81
  Q 549.83 782.86 573.59 756.17
  Q 579.16 749.91 585.18 743.61
  C 587.22 741.47 589.66 740.51 592.29 739.38
  Q 603.03 734.81 613.82 730.31
  Q 652.98 714.00 686.37 687.22
  C 701.59 675.01 715.72 660.35 727.88 645.11
  Q 740.23 629.65 752.61 608.22
  Q 757.63 599.52 761.58 590.42
  Q 770.34 570.23 775.34 553.24
  Q 782.72 528.17 785.42 500.00
  Q 790.09 451.29 775.10 402.43
  Q 767.27 376.90 757.58 357.43
  C 753.68 349.61 748.91 341.62 744.31 334.05
  Q 730.21 310.84 711.27 291.18
  Q 679.93 258.67 641.66 236.82
  Q 622.95 226.14 596.98 217.66
  Q 559.84 205.10 520.72 203.63
  Q 478.96 201.91 438.70 213.11
  Z
  M 340.75 380.48
  Q 332.86 396.25 329.05 413.52
  Q 327.59 420.15 331.57 425.23
  Q 339.49 435.33 349.61 442.17
  Q 353.68 444.92 357.45 442.36
  C 362.25 439.12 361.89 432.96 363.02 428.00
  C 365.49 417.15 369.51 407.81 374.09 398.03
  Q 374.31 397.58 374.71 397.87
  Q 388.39 407.47 403.82 414.43
  Q 445.44 433.76 491.43 436.49
  Q 491.93 436.52 491.92 437.02
  Q 491.65 454.08 491.78 471.72
  Q 491.81 477.22 492.81 479.69
  C 497.47 491.20 513.97 492.05 522.77 485.72
  C 528.24 481.79 528.24 476.53 528.08 470.47
  Q 527.65 453.81 528.02 437.17
  A 0.41 0.41 0.0 0 1 528.40 436.77
  Q 563.49 433.89 596.30 422.19
  C 613.27 416.14 629.09 407.59 643.78 397.27
  A 0.59 0.58 58.9 0 1 644.64 397.49
  L 648.88 406.00
  Q 648.95 406.50 648.84 406.79
  Q 648.62 407.36 648.16 406.97
  Q 647.55 406.44 646.79 406.63
  Q 646.32 406.75 646.33 407.24
  Q 646.47 412.65 646.29 418.00
  C 646.22 419.98 645.24 421.75 645.37 423.71
  Q 645.57 426.86 644.77 429.57
  C 644.16 431.66 644.09 433.77 643.56 435.89
  Q 640.54 447.89 634.76 459.84
  Q 633.49 462.47 632.93 465.09
  A 0.42 0.42 0.0 0 0 633.50 465.57
  Q 650.42 458.74 665.37 447.62
  Q 668.70 445.15 672.81 440.21
  Q 679.70 434.36 686.10 427.60
  C 689.12 424.40 692.01 419.78 691.21 415.33
  Q 690.27 410.09 688.44 404.45
  C 674.99 363.08 645.92 327.07 610.52 302.23
  Q 605.13 298.44 599.32 295.23
  Q 582.63 285.33 562.50 279.23
  Q 545.72 274.14 530.48 272.38
  Q 513.34 271.13 499.75 271.79
  Q 468.87 273.28 438.74 286.46
  Q 422.50 293.57 413.07 299.66
  Q 379.78 321.13 356.08 354.07
  Q 348.58 364.48 340.75 380.48
  Z
  M 632.95 614.48
  Q 634.41 613.31 635.82 612.05
  C 653.56 596.18 668.38 577.65 678.95 556.21
  Q 690.42 532.95 695.21 510.23
  Q 699.85 488.23 699.23 459.00
  C 699.17 456.23 696.91 453.62 694.01 454.61
  Q 693.57 454.76 693.28 455.12
  Q 688.77 460.83 680.43 466.37
  Q 651.99 485.26 618.90 495.15
  C 608.95 498.13 598.75 501.32 589.00 503.62
  C 577.00 506.45 562.12 508.92 548.72 510.44
  Q 484.97 517.70 420.75 501.50
  Q 398.71 495.94 379.13 487.13
  Q 365.52 481.00 360.90 478.51
  Q 344.27 469.52 326.55 454.79
  A 1.68 1.68 0.0 0 0 325.56 454.40
  C 322.28 454.20 321.20 457.08 321.23 459.94
  C 321.41 477.47 321.29 492.55 324.54 508.48
  Q 333.99 554.81 363.77 591.02
  Q 370.51 599.23 377.12 606.02
  C 393.51 622.88 414.14 635.88 436.80 645.36
  C 467.95 658.39 501.37 663.52 534.20 658.69
  Q 575.83 652.56 612.39 629.81
  C 619.57 625.34 626.35 619.75 632.95 614.48
  Z
  M 487.96 839.99
  Q 485.24 839.77 482.52 839.84
  Q 476.90 839.99 471.34 840.04
  C 463.06 840.11 454.66 841.05 446.47 841.46
  Q 439.09 841.82 431.61 842.56
  C 423.46 843.35 415.18 843.50 406.77 844.96
  C 404.09 845.42 401.46 845.26 398.71 845.91
  Q 395.86 846.58 392.80 846.88
  Q 379.94 848.15 366.78 851.34
  C 361.55 852.61 356.43 853.62 352.54 857.50
  Q 349.91 860.12 352.82 862.27
  Q 358.77 866.68 367.30 868.54
  Q 398.17 875.28 435.22 877.36
  Q 437.48 877.48 442.13 877.82
  Q 478.04 880.42 508.03 880.16
  Q 533.77 879.95 561.02 878.91
  Q 571.40 878.51 580.00 877.77
  Q 597.45 876.26 613.99 874.64
  Q 631.61 872.90 649.70 869.02
  Q 657.59 867.33 664.36 863.94
  Q 666.47 862.89 667.96 860.44
  Q 668.23 860.01 668.11 859.52
  C 666.88 854.62 656.91 852.37 652.62 850.94
  C 649.25 849.81 645.74 849.67 642.31 848.84
  Q 639.81 848.25 637.06 847.91
  Q 628.59 846.86 621.05 845.78
  Q 604.12 843.38 582.40 841.77
  Q 559.41 840.06 538.19 839.51
  Q 522.05 839.09 502.61 839.45
  Q 499.20 839.52 495.60 839.93
  Q 492.04 840.33 487.96 839.99
  Z"
/>
<path fill="#c5ae9f" d="
  M 520.72 203.63
  Q 519.72 203.82 518.61 203.80
  Q 518.95 204.00 519.32 203.87
  Q 519.82 203.69 520.22 204.04
  A 0.17 0.17 0.0 0 1 520.03 204.31
  Q 519.77 204.17 519.65 204.42
  Q 519.49 204.75 519.84 204.84
  L 522.42 205.50
  Q 522.88 205.62 523.07 206.06
  Q 523.71 207.48 522.49 208.47
  Q 521.13 209.57 520.00 210.93
  A 1.99 1.92 10.8 0 1 519.07 211.54
  Q 516.46 212.31 514.32 213.42
  C 512.80 214.20 512.03 215.70 510.59 216.59
  Q 506.21 219.31 502.50 222.39
  A 0.95 0.89 -61.0 0 1 501.88 222.59
  Q 501.60 222.57 501.33 222.68
  Q 500.97 222.82 500.68 223.07
  Q 499.46 224.08 498.11 225.11
  Q 493.44 228.70 486.29 235.91
  Q 486.08 236.13 485.78 236.08
  Q 485.51 236.03 485.41 236.26
  Q 485.01 237.20 485.33 238.08
  Q 485.51 238.57 485.10 238.90
  L 483.57 240.11
  Q 483.05 240.51 483.69 240.67
  Q 484.29 240.83 484.95 241.28
  Q 427.38 248.37 378.22 281.22
  Q 374.64 283.61 370.19 284.04
  C 361.06 284.94 353.80 278.24 351.52 269.66
  Q 351.87 267.28 352.00 265.50
  Q 352.19 263.05 353.00 265.37
  Q 353.50 266.81 355.26 267.54
  Q 355.61 267.69 355.86 267.97
  Q 356.70 268.96 358.01 269.01
  Q 358.55 269.04 358.95 268.68
  Q 359.24 268.42 359.61 268.41
  Q 360.08 268.38 360.53 268.23
  Q 366.94 266.03 373.74 263.28
  Q 376.30 262.24 378.85 261.56
  Q 381.63 260.81 383.89 259.12
  Q 386.20 257.38 388.73 256.38
  Q 390.31 255.75 391.45 254.84
  Q 392.65 253.88 393.89 252.98
  Q 395.22 252.00 396.66 251.57
  Q 397.94 251.18 398.95 250.29
  Q 400.27 249.13 401.93 248.15
  Q 407.58 244.81 412.93 241.39
  Q 415.51 239.74 417.75 237.85
  Q 419.96 235.99 422.35 234.33
  Q 426.97 231.11 431.48 227.33
  Q 432.02 226.88 432.64 226.60
  Q 433.31 226.31 433.69 225.70
  Q 435.08 223.48 436.22 221.40
  C 436.89 220.18 438.19 219.46 438.69 218.01
  Q 439.07 216.92 439.92 216.13
  Q 440.33 215.75 440.03 215.27
  L 438.70 213.11
  Q 478.96 201.91 520.72 203.63
  Z"
/>
<path fill="#dfcabf" d="
  M 520.72 203.63
  Q 559.84 205.10 596.98 217.66
  L 592.20 217.89
  Q 591.77 217.91 592.09 218.19
  Q 592.45 218.51 592.77 218.27
  Q 593.22 217.94 593.61 218.33
  Q 593.82 218.54 593.87 218.85
  A 0.41 0.41 0.0 0 1 593.72 219.24
  Q 593.44 219.48 593.20 219.39
  Q 592.43 219.08 592.83 219.81
  Q 593.17 220.43 593.30 221.14
  Q 593.38 221.55 593.20 221.93
  Q 592.12 224.18 590.24 225.79
  Q 589.87 226.11 589.69 226.57
  Q 588.92 228.55 587.16 230.12
  Q 586.07 231.09 585.52 232.50
  Q 585.02 233.77 584.29 234.86
  Q 583.65 235.83 582.93 236.86
  Q 582.40 237.63 582.04 238.52
  C 581.40 240.10 581.47 241.42 580.31 242.85
  Q 579.11 244.35 577.65 245.30
  Q 577.05 245.69 577.74 245.84
  Q 577.90 245.87 578.00 246.02
  Q 578.28 246.44 577.97 246.83
  Q 577.05 247.98 575.73 247.77
  Q 575.20 247.69 574.84 248.09
  Q 574.67 248.28 574.39 248.35
  Q 573.20 248.62 574.42 248.66
  Q 575.76 248.70 576.07 249.48
  Q 576.22 249.85 576.62 249.87
  Q 578.79 249.98 578.78 251.08
  C 548.13 241.51 516.93 237.84 484.95 241.28
  Q 484.29 240.83 483.69 240.67
  Q 483.05 240.51 483.57 240.11
  L 485.10 238.90
  Q 485.51 238.57 485.33 238.08
  Q 485.01 237.20 485.41 236.26
  Q 485.51 236.03 485.78 236.08
  Q 486.08 236.13 486.29 235.91
  Q 493.44 228.70 498.11 225.11
  Q 499.46 224.08 500.68 223.07
  Q 500.97 222.82 501.33 222.68
  Q 501.60 222.57 501.88 222.59
  A 0.95 0.89 -61.0 0 0 502.50 222.39
  Q 506.21 219.31 510.59 216.59
  C 512.03 215.70 512.80 214.20 514.32 213.42
  Q 516.46 212.31 519.07 211.54
  A 1.99 1.92 10.8 0 0 520.00 210.93
  Q 521.13 209.57 522.49 208.47
  Q 523.71 207.48 523.07 206.06
  Q 522.88 205.62 522.42 205.50
  L 519.84 204.84
  Q 519.49 204.75 519.65 204.42
  Q 519.77 204.17 520.03 204.31
  A 0.17 0.17 0.0 0 0 520.22 204.04
  Q 519.82 203.69 519.32 203.87
  Q 518.95 204.00 518.61 203.80
  Q 519.72 203.82 520.72 203.63
  Z"
/>
<path fill="#af9e91" d="
  M 438.70 213.11
  L 440.03 215.27
  Q 440.33 215.75 439.92 216.13
  Q 439.07 216.92 438.69 218.01
  C 438.19 219.46 436.89 220.18 436.22 221.40
  Q 435.08 223.48 433.69 225.70
  Q 433.31 226.31 432.64 226.60
  Q 432.02 226.88 431.48 227.33
  Q 426.97 231.11 422.35 234.33
  Q 419.96 235.99 417.75 237.85
  Q 415.51 239.74 412.93 241.39
  Q 407.58 244.81 401.93 248.15
  Q 400.27 249.13 398.95 250.29
  Q 397.94 251.18 396.66 251.57
  Q 395.22 252.00 393.89 252.98
  Q 392.65 253.88 391.45 254.84
  Q 390.31 255.75 388.73 256.38
  Q 386.20 257.38 383.89 259.12
  Q 381.63 260.81 378.85 261.56
  Q 376.30 262.24 373.74 263.28
  Q 366.94 266.03 360.53 268.23
  Q 360.08 268.38 359.61 268.41
  Q 359.24 268.42 358.95 268.68
  Q 358.55 269.04 358.01 269.01
  Q 356.70 268.96 355.86 267.97
  Q 355.61 267.69 355.26 267.54
  Q 353.50 266.81 353.00 265.37
  Q 352.19 263.05 352.00 265.50
  Q 351.87 267.28 351.52 269.66
  Q 349.93 257.19 359.73 249.18
  Q 369.93 240.84 383.97 233.96
  Q 410.38 221.02 438.70 213.11
  Z"
/>
<path fill="#feece4" d="
  M 596.98 217.66
  Q 622.95 226.14 641.66 236.82
  Q 679.93 258.67 711.27 291.18
  Q 730.21 310.84 744.31 334.05
  C 748.91 341.62 753.68 349.61 757.58 357.43
  Q 767.27 376.90 775.10 402.43
  Q 790.09 451.29 785.42 500.00
  Q 782.72 528.17 775.34 553.24
  Q 770.34 570.23 761.58 590.42
  Q 757.63 599.52 752.61 608.22
  Q 740.23 629.65 727.88 645.11
  C 715.72 660.35 701.59 675.01 686.37 687.22
  Q 652.98 714.00 613.82 730.31
  Q 603.03 734.81 592.29 739.38
  C 589.66 740.51 587.22 741.47 585.18 743.61
  Q 579.16 749.91 573.59 756.17
  Q 549.83 782.86 527.32 806.81
  Q 523.81 810.54 520.34 813.28
  C 512.68 819.32 501.82 817.41 495.39 810.32
  Q 462.52 774.07 435.79 744.81
  Q 432.49 741.20 428.02 739.44
  C 409.63 732.19 391.07 724.78 374.06 714.99
  Q 362.66 708.43 349.18 699.07
  C 308.65 670.92 276.50 630.24 256.66 585.75
  Q 256.63 584.55 257.04 584.08
  Q 257.44 583.63 257.77 584.14
  Q 258.30 584.95 258.11 585.85
  Q 258.01 586.31 258.44 586.51
  Q 258.69 586.63 258.93 586.52
  Q 259.59 586.24 259.29 586.89
  Q 259.16 587.17 259.29 587.49
  Q 259.52 588.05 259.71 587.47
  Q 259.98 586.66 259.48 585.97
  Q 259.19 585.57 259.11 585.09
  Q 258.88 583.76 259.73 582.67
  Q 260.00 582.33 260.11 581.92
  Q 260.42 580.76 261.60 580.39
  Q 261.77 580.34 261.85 580.18
  Q 261.93 580.00 261.86 579.84
  Q 261.70 579.47 262.08 579.34
  Q 262.50 579.20 262.97 579.21
  Q 263.48 579.21 263.68 579.68
  Q 264.01 580.47 265.04 580.36
  Q 265.78 580.28 266.21 579.78
  Q 266.96 578.91 267.47 577.88
  Q 267.70 577.42 268.19 577.25
  Q 269.48 576.83 270.78 576.93
  Q 271.26 576.97 271.64 576.67
  Q 272.40 576.06 273.34 575.98
  Q 273.89 575.94 274.01 575.40
  Q 274.13 574.89 274.66 574.88
  Q 275.46 574.86 275.84 574.14
  Q 276.98 571.97 279.78 572.56
  Q 280.42 572.70 281.04 572.45
  Q 281.78 572.15 282.73 572.24
  Q 283.36 572.29 283.58 571.71
  Q 284.51 569.22 287.93 570.74
  Q 288.24 570.88 288.25 570.53
  Q 288.25 570.27 288.50 570.25
  A 0.23 0.23 0.0 0 1 288.74 570.55
  Q 288.68 570.73 288.80 570.86
  A 0.22 0.21 -39.7 0 0 289.09 570.88
  Q 290.63 569.77 291.34 569.95
  L 300.37 588.84
  Q 309.00 603.60 319.19 617.32
  Q 334.75 638.27 354.76 655.02
  Q 376.59 673.60 398.36 684.64
  Q 418.79 695.00 440.23 703.07
  Q 445.76 705.15 452.00 706.93
  Q 457.06 711.61 463.29 718.47
  Q 488.22 745.88 500.90 760.10
  C 504.65 764.30 509.60 768.30 515.02 763.50
  C 519.11 759.89 522.56 755.30 526.41 751.24
  Q 545.25 731.37 563.78 711.26
  Q 565.46 710.32 566.97 708.99
  Q 568.72 707.45 570.17 706.86
  Q 573.78 705.38 576.99 704.24
  Q 600.48 695.90 624.24 683.08
  Q 642.84 673.04 659.31 659.98
  Q 671.24 650.51 683.81 636.80
  Q 698.00 621.33 703.27 614.18
  Q 728.80 579.50 740.27 537.26
  Q 742.64 528.51 744.87 511.77
  Q 749.73 479.38 745.67 446.99
  Q 739.82 404.96 719.56 367.46
  L 706.65 346.29
  C 694.66 328.05 677.93 309.83 660.68 295.86
  Q 653.65 290.17 644.67 283.88
  Q 614.28 262.61 578.78 251.08
  Q 578.79 249.98 576.62 249.87
  Q 576.22 249.85 576.07 249.48
  Q 575.76 248.70 574.42 248.66
  Q 573.20 248.62 574.39 248.35
  Q 574.67 248.28 574.84 248.09
  Q 575.20 247.69 575.73 247.77
  Q 577.05 247.98 577.97 246.83
  Q 578.28 246.44 578.00 246.02
  Q 577.90 245.87 577.74 245.84
  Q 577.05 245.69 577.65 245.30
  Q 579.11 244.35 580.31 242.85
  C 581.47 241.42 581.40 240.10 582.04 238.52
  Q 582.40 237.63 582.93 236.86
  Q 583.65 235.83 584.29 234.86
  Q 585.02 233.77 585.52 232.50
  Q 586.07 231.09 587.16 230.12
  Q 588.92 228.55 589.69 226.57
  Q 589.87 226.11 590.24 225.79
  Q 592.12 224.18 593.20 221.93
  Q 593.38 221.55 593.30 221.14
  Q 593.17 220.43 592.83 219.81
  Q 592.43 219.08 593.20 219.39
  Q 593.44 219.48 593.72 219.24
  A 0.41 0.41 0.0 0 0 593.87 218.85
  Q 593.82 218.54 593.61 218.33
  Q 593.22 217.94 592.77 218.27
  Q 592.45 218.51 592.09 218.19
  Q 591.77 217.91 592.20 217.89
  L 596.98 217.66
  Z"
/>
<path fill="#c5ae9f" d="
  M 530.48 272.38
  L 528.17 272.53
  Q 527.71 272.56 527.29 272.74
  Q 526.48 273.07 525.62 272.78
  Q 525.18 272.63 524.86 272.96
  Q 524.16 273.68 523.13 273.96
  A 1.34 1.32 -89.9 0 0 522.20 274.90
  Q 521.94 275.85 521.17 276.45
  Q 518.78 278.32 516.66 280.91
  Q 516.07 281.63 516.85 281.13
  L 519.60 279.36
  Q 520.15 279.00 520.00 279.64
  Q 519.75 280.63 518.87 281.30
  Q 512.49 286.18 505.64 290.91
  Q 504.92 291.41 504.39 291.95
  Q 503.85 292.51 503.08 292.60
  A 1.11 1.09 13.1 0 0 502.29 293.08
  C 500.54 295.62 498.03 296.69 495.91 298.77
  Q 494.43 300.22 492.57 301.48
  Q 490.83 302.66 489.37 304.05
  Q 487.84 305.50 486.17 306.54
  Q 486.01 306.64 486.09 306.82
  Q 486.17 306.97 486.09 307.09
  Q 485.90 307.41 485.50 307.51
  Q 480.93 308.63 478.48 311.33
  Q 448.78 318.49 425.50 335.29
  Q 417.36 341.17 407.01 352.05
  Q 405.78 352.17 405.75 352.17
  A 3.10 2.43 -71.8 0 0 403.20 353.87
  Q 402.74 354.78 401.88 355.37
  Q 401.49 355.64 401.02 355.64
  L 398.60 355.69
  Q 398.19 355.70 398.13 356.10
  Q 398.00 357.07 397.05 357.14
  Q 393.79 357.41 391.75 359.57
  Q 391.51 359.83 391.16 359.84
  Q 389.32 359.94 388.01 361.48
  Q 387.64 361.91 387.13 362.14
  L 384.72 363.24
  Q 384.21 363.48 384.15 364.04
  Q 384.10 364.44 383.72 364.57
  Q 377.48 366.66 372.21 370.00
  Q 370.82 370.88 369.58 371.39
  C 368.19 371.96 366.59 372.75 365.10 373.02
  Q 364.17 373.19 363.50 373.82
  Q 363.11 374.19 362.57 374.28
  L 356.41 375.35
  Q 355.87 375.44 355.43 375.77
  Q 354.29 376.62 352.94 376.35
  A 1.17 1.16 -63.0 0 0 351.87 376.70
  Q 351.26 377.33 350.43 377.02
  A 1.48 1.47 37.4 0 0 349.05 377.20
  Q 347.10 378.58 344.67 378.07
  Q 343.99 377.92 343.83 378.60
  Q 343.78 378.81 343.56 378.82
  Q 342.87 378.82 343.12 379.48
  Q 343.27 379.86 342.79 380.03
  Q 342.75 380.05 342.74 380.01
  L 342.62 379.51
  Q 342.51 379.08 342.26 379.44
  Q 341.79 380.14 340.75 380.48
  Q 348.58 364.48 356.08 354.07
  Q 379.78 321.13 413.07 299.66
  Q 422.50 293.57 438.74 286.46
  Q 468.87 273.28 499.75 271.79
  Q 513.34 271.13 530.48 272.38
  Z"
/>
<path fill="#dfcabf" d="
  M 530.48 272.38
  Q 545.72 274.14 562.50 279.23
  Q 582.63 285.33 599.32 295.23
  Q 599.03 296.77 597.85 296.99
  A 0.16 0.16 0.0 0 1 597.66 296.84
  Q 597.66 296.71 597.61 296.57
  Q 597.40 295.93 597.46 296.83
  Q 597.47 296.98 597.40 297.11
  Q 597.24 297.46 596.92 297.25
  Q 596.41 296.92 596.27 297.53
  Q 594.05 298.56 593.26 300.80
  A 1.93 1.86 -12.2 0 1 592.73 301.59
  Q 590.83 303.28 589.11 305.35
  C 588.53 306.06 587.46 306.42 586.89 307.15
  Q 585.29 309.19 582.25 311.11
  Q 580.81 312.02 579.79 313.83
  Q 579.72 313.95 579.63 314.04
  Q 579.49 314.17 579.30 314.13
  Q 578.75 314.00 578.34 314.41
  Q 576.69 316.07 574.63 317.06
  C 573.66 317.52 573.07 318.13 572.30 318.85
  Q 571.95 319.18 571.46 319.19
  L 569.59 319.22
  Q 568.96 319.23 569.52 319.53
  L 569.78 319.67
  Q 570.30 319.95 569.72 320.04
  L 568.27 320.29
  Q 550.11 312.24 529.12 309.31
  Q 527.97 309.14 527.97 310.31
  Q 528.09 331.25 528.11 352.21
  Q 528.12 361.77 527.52 364.00
  C 525.00 373.37 514.97 378.05 505.72 376.13
  C 498.52 374.64 491.73 368.03 491.73 360.17
  Q 491.74 335.69 491.74 310.31
  Q 491.74 309.77 491.20 309.83
  L 478.48 311.33
  Q 480.93 308.63 485.50 307.51
  Q 485.90 307.41 486.09 307.09
  Q 486.17 306.97 486.09 306.82
  Q 486.01 306.64 486.17 306.54
  Q 487.84 305.50 489.37 304.05
  Q 490.83 302.66 492.57 301.48
  Q 494.43 300.22 495.91 298.77
  C 498.03 296.69 500.54 295.62 502.29 293.08
  A 1.11 1.09 13.1 0 1 503.08 292.60
  Q 503.85 292.51 504.39 291.95
  Q 504.92 291.41 505.64 290.91
  Q 512.49 286.18 518.87 281.30
  Q 519.75 280.63 520.00 279.64
  Q 520.15 279.00 519.60 279.36
  L 516.85 281.13
  Q 516.07 281.63 516.66 280.91
  Q 518.78 278.32 521.17 276.45
  Q 521.94 275.85 522.20 274.90
  A 1.34 1.32 -89.9 0 1 523.13 273.96
  Q 524.16 273.68 524.86 272.96
  Q 525.18 272.63 525.62 272.78
  Q 526.48 273.07 527.29 272.74
  Q 527.71 272.56 528.17 272.53
  L 530.48 272.38
  Z"
/>
<path fill="#c5ae9f" d="
  M 330.64 321.10
  Q 329.94 319.61 330.79 318.82
  Q 331.20 318.44 330.95 317.93
  Q 330.61 317.24 330.78 316.44
  Q 330.83 316.22 330.63 316.12
  Q 328.62 315.11 327.22 315.98
  Q 326.92 316.17 326.57 316.10
  L 320.56 315.01
  Q 320.51 315.00 320.47 315.02
  L 319.50 315.37
  A 0.71 0.55 33.7 0 1 319.22 315.39
  L 311.57 314.26
  Q 311.24 314.22 310.94 314.33
  Q 310.71 314.42 310.46 314.37
  Q 308.97 314.10 307.45 313.99
  Q 305.95 313.89 304.33 313.46
  Q 302.83 313.06 301.01 313.23
  Q 300.50 313.28 300.05 313.03
  Q 299.74 312.86 299.40 312.72
  Q 299.01 312.56 298.66 312.81
  Q 298.08 313.21 297.31 313.19
  C 296.20 313.17 295.93 312.43 294.74 312.60
  Q 294.54 312.63 294.34 312.56
  Q 294.13 312.49 294.17 312.26
  Q 294.27 311.63 293.70 311.92
  Q 293.34 312.09 293.12 312.50
  Q 292.84 313.03 292.35 313.08
  Q 291.90 313.12 291.80 312.68
  Q 291.70 312.24 291.04 311.79
  Q 296.10 304.62 300.57 300.33
  C 310.01 291.27 326.78 293.75 331.55 306.69
  Q 334.09 313.59 330.64 321.10
  Z"
/>
<path fill="#feece4" d="
  M 599.32 295.23
  Q 605.13 298.44 610.52 302.23
  C 645.92 327.07 674.99 363.08 688.44 404.45
  Q 690.27 410.09 691.21 415.33
  C 692.01 419.78 689.12 424.40 686.10 427.60
  Q 679.70 434.36 672.81 440.21
  C 670.49 441.68 667.54 443.97 664.96 443.89
  C 660.58 443.76 657.84 438.07 657.25 434.24
  Q 654.97 419.64 648.88 406.00
  L 644.64 397.49
  A 0.59 0.58 58.9 0 0 643.78 397.27
  C 629.09 407.59 613.27 416.14 596.30 422.19
  Q 563.49 433.89 528.40 436.77
  A 0.41 0.41 0.0 0 0 528.02 437.17
  Q 527.65 453.81 528.08 470.47
  C 528.24 476.53 528.24 481.79 522.77 485.72
  C 513.97 492.05 497.47 491.20 492.81 479.69
  Q 491.81 477.22 491.78 471.72
  Q 491.65 454.08 491.92 437.02
  Q 491.93 436.52 491.43 436.49
  Q 445.44 433.76 403.82 414.43
  Q 403.52 413.30 402.25 413.11
  Q 401.34 412.97 401.27 411.96
  Q 401.26 411.80 401.14 411.69
  Q 400.93 411.52 400.78 411.75
  A 0.33 0.32 45.5 0 1 400.24 411.74
  Q 400.07 411.48 400.07 411.14
  Q 400.07 410.94 400.25 410.89
  Q 401.44 410.50 401.69 411.50
  Q 401.77 411.83 402.11 411.85
  Q 403.25 411.92 404.33 411.84
  Q 404.85 411.80 404.44 412.13
  Q 404.32 412.23 404.35 412.41
  Q 404.49 413.09 405.17 412.95
  L 408.55 412.25
  Q 409.03 412.15 409.45 412.40
  L 411.12 413.40
  Q 411.59 413.68 411.96 413.27
  Q 412.44 412.75 413.17 412.83
  A 1.22 1.22 0.0 0 0 414.12 412.50
  Q 415.33 411.35 416.99 411.93
  Q 417.45 412.09 417.93 412.00
  Q 419.28 411.74 420.75 411.85
  Q 426.27 412.26 430.46 411.66
  Q 432.78 411.32 435.20 410.20
  Q 437.27 409.24 439.58 408.51
  Q 445.33 406.68 450.86 404.20
  Q 450.98 404.15 452.03 403.38
  Q 452.63 402.95 453.35 403.10
  A 1.80 1.80 0.0 0 0 454.67 402.85
  Q 455.65 402.23 456.41 401.27
  Q 456.78 400.82 457.36 400.72
  L 462.29 399.92
  Q 462.77 399.84 463.09 399.48
  Q 463.66 398.82 464.03 398.13
  Q 464.26 397.68 464.69 397.93
  Q 464.94 398.08 465.21 398.19
  Q 466.32 398.67 465.39 397.89
  Q 464.76 397.35 464.35 396.75
  Q 463.40 395.33 465.06 395.75
  Q 465.85 395.95 467.23 395.63
  Q 530.85 408.04 589.89 384.14
  C 601.66 379.37 612.07 373.05 622.13 365.70
  A 0.68 0.68 0.0 0 0 622.28 364.75
  Q 600.96 335.52 568.27 320.29
  L 569.72 320.04
  Q 570.30 319.95 569.78 319.67
  L 569.52 319.53
  Q 568.96 319.23 569.59 319.22
  L 571.46 319.19
  Q 571.95 319.18 572.30 318.85
  C 573.07 318.13 573.66 317.52 574.63 317.06
  Q 576.69 316.07 578.34 314.41
  Q 578.75 314.00 579.30 314.13
  Q 579.49 314.17 579.63 314.04
  Q 579.72 313.95 579.79 313.83
  Q 580.81 312.02 582.25 311.11
  Q 585.29 309.19 586.89 307.15
  C 587.46 306.42 588.53 306.06 589.11 305.35
  Q 590.83 303.28 592.73 301.59
  A 1.93 1.86 -12.2 0 0 593.26 300.80
  Q 594.05 298.56 596.27 297.53
  Q 596.41 296.92 596.92 297.25
  Q 597.24 297.46 597.40 297.11
  Q 597.47 296.98 597.46 296.83
  Q 597.40 295.93 597.61 296.57
  Q 597.66 296.71 597.66 296.84
  A 0.16 0.16 0.0 0 0 597.85 296.99
  Q 599.03 296.77 599.32 295.23
  Z"
/>
<path fill="#070502" d="
  M 568.27 320.29
  Q 600.96 335.52 622.28 364.75
  A 0.68 0.68 0.0 0 1 622.13 365.70
  C 612.07 373.05 601.66 379.37 589.89 384.14
  Q 530.85 408.04 467.23 395.63
  C 450.78 392.17 433.82 387.24 419.38 379.57
  Q 407.37 373.19 396.37 365.62
  A 0.64 0.63 34.4 0 1 396.20 364.74
  Q 400.87 357.91 407.01 352.05
  Q 417.36 341.17 425.50 335.29
  Q 448.78 318.49 478.48 311.33
  L 491.20 309.83
  Q 491.74 309.77 491.74 310.31
  Q 491.74 335.69 491.73 360.17
  C 491.73 368.03 498.52 374.64 505.72 376.13
  C 514.97 378.05 525.00 373.37 527.52 364.00
  Q 528.12 361.77 528.11 352.21
  Q 528.09 331.25 527.97 310.31
  Q 527.97 309.14 529.12 309.31
  Q 550.11 312.24 568.27 320.29
  Z"
/>
<path fill="#dfcabf" d="
  M 291.04 311.79
  Q 291.70 312.24 291.80 312.68
  Q 291.90 313.12 292.35 313.08
  Q 292.84 313.03 293.12 312.50
  Q 293.34 312.09 293.70 311.92
  Q 294.27 311.63 294.17 312.26
  Q 294.13 312.49 294.34 312.56
  Q 294.54 312.63 294.74 312.60
  C 295.93 312.43 296.20 313.17 297.31 313.19
  Q 298.08 313.21 298.66 312.81
  Q 299.01 312.56 299.40 312.72
  Q 299.74 312.86 300.05 313.03
  Q 300.50 313.28 301.01 313.23
  Q 302.83 313.06 304.33 313.46
  Q 305.95 313.89 307.45 313.99
  Q 308.97 314.10 310.46 314.37
  Q 310.71 314.42 310.94 314.33
  Q 311.24 314.22 311.57 314.26
  L 319.22 315.39
  A 0.71 0.55 33.7 0 0 319.50 315.37
  L 320.47 315.02
  Q 320.51 315.00 320.56 315.01
  L 326.57 316.10
  Q 326.92 316.17 327.22 315.98
  Q 328.62 315.11 330.63 316.12
  Q 330.83 316.22 330.78 316.44
  Q 330.61 317.24 330.95 317.93
  Q 331.20 318.44 330.79 318.82
  Q 329.94 319.61 330.64 321.10
  Q 328.14 326.05 325.57 329.06
  Q 321.55 333.76 318.54 337.93
  C 306.84 354.12 296.83 371.64 289.44 389.93
  Q 286.21 397.92 282.59 409.04
  Q 282.19 408.71 281.74 408.99
  Q 281.16 409.34 281.10 408.67
  Q 280.93 406.87 279.09 407.32
  Q 278.55 407.45 278.15 407.06
  Q 276.77 405.75 275.07 405.44
  Q 273.62 405.18 272.33 404.62
  Q 271.27 404.15 270.09 404.09
  Q 263.66 403.76 257.65 402.52
  C 256.22 402.23 254.81 402.74 253.35 402.73
  Q 252.66 402.72 252.15 402.29
  Q 251.79 401.98 251.32 401.88
  Q 249.65 401.51 248.17 400.55
  Q 247.87 400.36 247.87 400.72
  L 247.87 401.89
  Q 247.87 402.62 247.38 402.09
  Q 246.89 401.57 247.27 400.95
  Q 247.50 400.57 247.28 400.19
  Q 246.88 399.50 247.36 398.83
  Q 247.66 398.40 247.72 397.88
  Q 248.11 394.72 246.74 395.43
  Q 257.88 362.37 276.36 332.63
  Q 283.10 321.77 291.04 311.79
  Z"
/>
<path fill="#221c17" d="
  M 706.65 346.29
  L 719.56 367.46
  Q 719.38 368.37 718.29 368.26
  Q 718.25 368.26 718.23 368.22
  L 718.09 367.82
  A 0.68 0.68 0.0 0 0 717.45 367.37
  L 717.04 367.37
  Q 716.67 367.37 716.68 367.74
  Q 716.70 368.65 715.74 368.90
  Q 715.22 369.04 714.99 369.53
  Q 714.72 370.10 714.15 370.37
  Q 713.50 370.68 713.28 371.36
  Q 712.74 372.96 712.14 374.40
  Q 711.22 376.60 708.75 378.44
  A 0.95 0.93 72.2 0 0 708.37 379.20
  L 708.37 381.72
  A 0.40 0.40 0.0 0 1 707.86 382.11
  Q 707.58 382.04 707.47 382.30
  Q 707.31 382.71 707.18 383.13
  Q 706.93 384.02 707.11 384.98
  Q 707.50 386.96 707.63 388.68
  Q 707.66 389.14 707.92 389.53
  Q 708.91 390.96 708.76 392.76
  C 707.31 390.38 706.74 387.36 705.84 385.28
  Q 704.10 381.26 702.07 376.95
  C 701.63 376.03 701.55 375.00 701.06 374.12
  Q 699.05 370.52 696.89 366.58
  Q 696.03 364.99 695.66 363.52
  Q 695.20 361.68 694.48 359.99
  Q 694.24 359.42 694.74 359.07
  Q 695.88 358.25 696.31 356.73
  Q 696.43 356.30 696.06 356.05
  Q 695.95 355.97 695.89 355.84
  Q 695.83 355.68 695.97 355.58
  Q 696.32 355.32 696.27 354.92
  Q 696.13 353.70 696.59 352.55
  Q 696.97 351.63 697.95 351.87
  Q 698.52 352.01 698.77 351.48
  L 699.52 349.90
  Q 699.68 349.55 699.96 349.29
  Q 700.45 348.83 700.39 348.12
  Q 700.35 347.54 700.92 347.66
  Q 701.55 347.79 701.63 347.16
  Q 701.72 346.47 702.40 346.38
  Q 702.78 346.33 703.00 346.02
  Q 703.39 345.49 703.88 345.91
  Q 705.93 347.65 706.65 346.29
  Z"
/>
<path fill="#dfcabf" d="
  M 407.01 352.05
  Q 400.87 357.91 396.20 364.74
  A 0.64 0.63 34.4 0 0 396.37 365.62
  Q 407.37 373.19 419.38 379.57
  C 433.82 387.24 450.78 392.17 467.23 395.63
  Q 465.85 395.95 465.06 395.75
  Q 463.40 395.33 464.35 396.75
  Q 464.76 397.35 465.39 397.89
  Q 466.32 398.67 465.21 398.19
  Q 464.94 398.08 464.69 397.93
  Q 464.26 397.68 464.03 398.13
  Q 463.66 398.82 463.09 399.48
  Q 462.77 399.84 462.29 399.92
  L 457.36 400.72
  Q 456.78 400.82 456.41 401.27
  Q 455.65 402.23 454.67 402.85
  A 1.80 1.80 0.0 0 1 453.35 403.10
  Q 452.63 402.95 452.03 403.38
  Q 450.98 404.15 450.86 404.20
  Q 445.33 406.68 439.58 408.51
  Q 437.27 409.24 435.20 410.20
  Q 432.78 411.32 430.46 411.66
  Q 426.27 412.26 420.75 411.85
  Q 419.28 411.74 417.93 412.00
  Q 417.45 412.09 416.99 411.93
  Q 415.33 411.35 414.12 412.50
  A 1.22 1.22 0.0 0 1 413.17 412.83
  Q 412.44 412.75 411.96 413.27
  Q 411.59 413.68 411.12 413.40
  L 409.45 412.40
  Q 409.03 412.15 408.55 412.25
  L 405.17 412.95
  Q 404.49 413.09 404.35 412.41
  Q 404.32 412.23 404.44 412.13
  Q 404.85 411.80 404.33 411.84
  Q 403.25 411.92 402.11 411.85
  Q 401.77 411.83 401.69 411.50
  Q 401.44 410.50 400.25 410.89
  Q 400.07 410.94 400.07 411.14
  Q 400.07 411.48 400.24 411.74
  A 0.33 0.32 45.5 0 0 400.78 411.75
  Q 400.93 411.52 401.14 411.69
  Q 401.26 411.80 401.27 411.96
  Q 401.34 412.97 402.25 413.11
  Q 403.52 413.30 403.82 414.43
  Q 388.39 407.47 374.71 397.87
  Q 374.31 397.58 374.09 398.03
  C 369.51 407.81 365.49 417.15 363.02 428.00
  C 361.89 432.96 362.25 439.12 357.45 442.36
  Q 353.68 444.92 349.61 442.17
  Q 339.49 435.33 331.57 425.23
  Q 327.59 420.15 329.05 413.52
  Q 332.86 396.25 340.75 380.48
  Q 341.79 380.14 342.26 379.44
  Q 342.51 379.08 342.62 379.51
  L 342.74 380.01
  Q 342.75 380.05 342.79 380.03
  Q 343.27 379.86 343.12 379.48
  Q 342.87 378.82 343.56 378.82
  Q 343.78 378.81 343.83 378.60
  Q 343.99 377.92 344.67 378.07
  Q 347.10 378.58 349.05 377.20
  A 1.48 1.47 37.4 0 1 350.43 377.02
  Q 351.26 377.33 351.87 376.70
  A 1.17 1.16 -63.0 0 1 352.94 376.35
  Q 354.29 376.62 355.43 375.77
  Q 355.87 375.44 356.41 375.35
  L 362.57 374.28
  Q 363.11 374.19 363.50 373.82
  Q 364.17 373.19 365.10 373.02
  C 366.59 372.75 368.19 371.96 369.58 371.39
  Q 370.82 370.88 372.21 370.00
  Q 377.48 366.66 383.72 364.57
  Q 384.10 364.44 384.15 364.04
  Q 384.21 363.48 384.72 363.24
  L 387.13 362.14
  Q 387.64 361.91 388.01 361.48
  Q 389.32 359.94 391.16 359.84
  Q 391.51 359.83 391.75 359.57
  Q 393.79 357.41 397.05 357.14
  Q 398.00 357.07 398.13 356.10
  Q 398.19 355.70 398.60 355.69
  L 401.02 355.64
  Q 401.49 355.64 401.88 355.37
  Q 402.74 354.78 403.20 353.87
  A 3.10 2.43 -71.8 0 1 405.75 352.17
  Q 405.78 352.17 407.01 352.05
  Z"
/>
<path fill="#3e352f" d="
  M 719.56 367.46
  Q 739.82 404.96 745.67 446.99
  L 745.59 460.26
  Q 745.58 461.22 745.04 460.43
  Q 744.74 459.99 744.71 459.38
  Q 744.70 459.17 744.50 459.18
  L 744.49 459.18
  Q 744.28 459.19 744.32 459.40
  Q 744.76 461.61 743.29 463.39
  Q 742.99 463.76 743.33 464.10
  Q 743.71 464.47 743.58 464.99
  Q 742.74 468.45 740.64 470.79
  Q 740.31 471.16 739.83 471.03
  Q 738.95 470.80 738.17 471.40
  Q 737.75 471.72 737.86 472.24
  Q 737.95 472.59 737.83 472.95
  Q 737.62 473.58 737.37 472.96
  L 733.01 461.91
  Q 730.44 454.79 727.58 447.59
  Q 726.82 445.68 725.85 443.93
  Q 724.67 441.80 724.13 440.23
  Q 722.85 436.45 721.06 433.10
  Q 720.75 432.50 720.61 431.85
  Q 719.98 428.91 719.45 430.98
  Q 717.61 423.12 716.16 415.12
  Q 715.87 413.51 714.78 410.66
  Q 713.86 408.25 713.28 406.23
  Q 711.31 399.37 708.76 392.76
  Q 708.91 390.96 707.92 389.53
  Q 707.66 389.14 707.63 388.68
  Q 707.50 386.96 707.11 384.98
  Q 706.93 384.02 707.18 383.13
  Q 707.31 382.71 707.47 382.30
  Q 707.58 382.04 707.86 382.11
  A 0.40 0.40 0.0 0 0 708.37 381.72
  L 708.37 379.20
  A 0.95 0.93 72.2 0 1 708.75 378.44
  Q 711.22 376.60 712.14 374.40
  Q 712.74 372.96 713.28 371.36
  Q 713.50 370.68 714.15 370.37
  Q 714.72 370.10 714.99 369.53
  Q 715.22 369.04 715.74 368.90
  Q 716.70 368.65 716.68 367.74
  Q 716.67 367.37 717.04 367.37
  L 717.45 367.37
  A 0.68 0.68 0.0 0 1 718.09 367.82
  L 718.23 368.22
  Q 718.25 368.26 718.29 368.26
  Q 719.38 368.37 719.56 367.46
  Z"
/>
<path fill="#feece4" d="
  M 282.59 409.04
  Q 279.85 417.91 277.73 426.99
  Q 269.61 461.75 273.41 500.10
  Q 276.32 529.43 285.00 553.83
  L 291.34 569.95
  Q 290.63 569.77 289.09 570.88
  A 0.22 0.21 -39.7 0 1 288.80 570.86
  Q 288.68 570.73 288.74 570.55
  A 0.23 0.23 0.0 0 0 288.50 570.25
  Q 288.25 570.27 288.25 570.53
  Q 288.24 570.88 287.93 570.74
  Q 284.51 569.22 283.58 571.71
  Q 283.36 572.29 282.73 572.24
  Q 281.78 572.15 281.04 572.45
  Q 280.42 572.70 279.78 572.56
  Q 276.98 571.97 275.84 574.14
  Q 275.46 574.86 274.66 574.88
  Q 274.13 574.89 274.01 575.40
  Q 273.89 575.94 273.34 575.98
  Q 272.40 576.06 271.64 576.67
  Q 271.26 576.97 270.78 576.93
  Q 269.48 576.83 268.19 577.25
  Q 267.70 577.42 267.47 577.88
  Q 266.96 578.91 266.21 579.78
  Q 265.78 580.28 265.04 580.36
  Q 264.01 580.47 263.68 579.68
  Q 263.48 579.21 262.97 579.21
  Q 262.50 579.20 262.08 579.34
  Q 261.70 579.47 261.86 579.84
  Q 261.93 580.00 261.85 580.18
  Q 261.77 580.34 261.60 580.39
  Q 260.42 580.76 260.11 581.92
  Q 260.00 582.33 259.73 582.67
  Q 258.88 583.76 259.11 585.09
  Q 259.19 585.57 259.48 585.97
  Q 259.98 586.66 259.71 587.47
  Q 259.52 588.05 259.29 587.49
  Q 259.16 587.17 259.29 586.89
  Q 259.59 586.24 258.93 586.52
  Q 258.69 586.63 258.44 586.51
  Q 258.01 586.31 258.11 585.85
  Q 258.30 584.95 257.77 584.14
  Q 257.44 583.63 257.04 584.08
  Q 256.63 584.55 256.66 585.75
  Q 243.51 556.45 238.06 526.99
  C 230.02 483.51 232.80 438.00 246.74 395.43
  Q 248.11 394.72 247.72 397.88
  Q 247.66 398.40 247.36 398.83
  Q 246.88 399.50 247.28 400.19
  Q 247.50 400.57 247.27 400.95
  Q 246.89 401.57 247.38 402.09
  Q 247.87 402.62 247.87 401.89
  L 247.87 400.72
  Q 247.87 400.36 248.17 400.55
  Q 249.65 401.51 251.32 401.88
  Q 251.79 401.98 252.15 402.29
  Q 252.66 402.72 253.35 402.73
  C 254.81 402.74 256.22 402.23 257.65 402.52
  Q 263.66 403.76 270.09 404.09
  Q 271.27 404.15 272.33 404.62
  Q 273.62 405.18 275.07 405.44
  Q 276.77 405.75 278.15 407.06
  Q 278.55 407.45 279.09 407.32
  Q 280.93 406.87 281.10 408.67
  Q 281.16 409.34 281.74 408.99
  Q 282.19 408.71 282.59 409.04
  Z"
/>
<path fill="#221c17" d="
  M 648.88 406.00
  Q 654.97 419.64 657.25 434.24
  C 657.84 438.07 660.58 443.76 664.96 443.89
  C 667.54 443.97 670.49 441.68 672.81 440.21
  Q 668.70 445.15 665.37 447.62
  Q 650.42 458.74 633.50 465.57
  A 0.42 0.42 0.0 0 1 632.93 465.09
  Q 633.49 462.47 634.76 459.84
  Q 640.54 447.89 643.56 435.89
  C 644.09 433.77 644.16 431.66 644.77 429.57
  Q 645.57 426.86 645.37 423.71
  C 645.24 421.75 646.22 419.98 646.29 418.00
  Q 646.47 412.65 646.33 407.24
  Q 646.32 406.75 646.79 406.63
  Q 647.55 406.44 648.16 406.97
  Q 648.62 407.36 648.84 406.79
  Q 648.95 406.50 648.88 406.00
  Z"
/>
<path fill="#af9e91" d="
  M 733.01 461.91
  Q 733.37 464.01 734.03 466.02
  Q 734.70 468.05 735.28 470.05
  Q 739.23 483.62 741.08 490.75
  Q 743.95 501.87 743.57 511.43
  A 0.58 0.57 79.8 0 0 744.37 511.99
  Q 744.70 511.85 744.59 511.51
  Q 744.46 511.10 744.87 511.77
  Q 742.64 528.51 740.27 537.26
  Q 728.80 579.50 703.27 614.18
  Q 698.00 621.33 683.81 636.80
  Q 671.24 650.51 659.31 659.98
  Q 642.84 673.04 624.24 683.08
  Q 600.48 695.90 576.99 704.24
  Q 573.78 705.38 570.17 706.86
  Q 568.72 707.45 566.97 708.99
  Q 565.46 710.32 563.78 711.26
  L 597.15 674.98
  Q 597.98 674.08 596.90 674.67
  C 584.97 681.13 571.03 684.53 557.22 684.04
  C 551.19 683.83 545.43 684.12 539.36 682.92
  A 0.16 0.16 0.0 0 1 539.36 682.61
  Q 547.83 681.32 555.66 679.37
  Q 596.96 669.10 632.44 644.24
  C 641.53 637.87 650.92 630.10 658.92 622.05
  C 684.83 595.96 703.79 565.55 713.60 530.41
  Q 717.83 515.27 720.36 500.14
  Q 721.54 493.06 721.87 485.54
  Q 722.77 465.53 721.14 443.50
  Q 720.62 436.42 719.45 430.98
  Q 719.98 428.91 720.61 431.85
  Q 720.75 432.50 721.06 433.10
  Q 722.85 436.45 724.13 440.23
  Q 724.67 441.80 725.85 443.93
  Q 726.82 445.68 727.58 447.59
  Q 730.44 454.79 733.01 461.91
  Z"
/>
<path fill="#554941" d="
  M 745.67 446.99
  Q 749.73 479.38 744.87 511.77
  Q 744.46 511.10 744.59 511.51
  Q 744.70 511.85 744.37 511.99
  A 0.58 0.57 79.8 0 1 743.57 511.43
  Q 743.95 501.87 741.08 490.75
  Q 739.23 483.62 735.28 470.05
  Q 734.70 468.05 734.03 466.02
  Q 733.37 464.01 733.01 461.91
  L 737.37 472.96
  Q 737.62 473.58 737.83 472.95
  Q 737.95 472.59 737.86 472.24
  Q 737.75 471.72 738.17 471.40
  Q 738.95 470.80 739.83 471.03
  Q 740.31 471.16 740.64 470.79
  Q 742.74 468.45 743.58 464.99
  Q 743.71 464.47 743.33 464.10
  Q 742.99 463.76 743.29 463.39
  Q 744.76 461.61 744.32 459.40
  Q 744.28 459.19 744.49 459.18
  L 744.50 459.18
  Q 744.70 459.17 744.71 459.38
  Q 744.74 459.99 745.04 460.43
  Q 745.58 461.22 745.59 460.26
  L 745.67 446.99
  Z"
/>
<path fill="#feece4" d="
  M 632.95 614.48
  C 626.35 619.75 619.57 625.34 612.39 629.81
  Q 575.83 652.56 534.20 658.69
  C 501.37 663.52 467.95 658.39 436.80 645.36
  C 414.14 635.88 393.51 622.88 377.12 606.02
  Q 370.51 599.23 363.77 591.02
  Q 333.99 554.81 324.54 508.48
  C 321.29 492.55 321.41 477.47 321.23 459.94
  C 321.20 457.08 322.28 454.20 325.56 454.40
  A 1.68 1.68 0.0 0 1 326.55 454.79
  Q 344.27 469.52 360.90 478.51
  Q 365.52 481.00 379.13 487.13
  Q 398.71 495.94 420.75 501.50
  Q 484.97 517.70 548.72 510.44
  C 562.12 508.92 577.00 506.45 589.00 503.62
  C 598.75 501.32 608.95 498.13 618.90 495.15
  Q 651.99 485.26 680.43 466.37
  Q 688.77 460.83 693.28 455.12
  Q 693.57 454.76 694.01 454.61
  C 696.91 453.62 699.17 456.23 699.23 459.00
  Q 699.85 488.23 695.21 510.23
  Q 690.42 532.95 678.95 556.21
  C 668.38 577.65 653.56 596.18 635.82 612.05
  Q 634.41 613.31 632.95 614.48
  Z
  M 371.17 537.05
  L 372.33 539.37
  Q 380.21 555.81 392.22 569.48
  Q 405.16 585.43 422.26 597.04
  Q 453.50 618.52 491.41 622.90
  Q 491.94 622.96 491.94 622.43
  L 492.31 549.23
  A 1.07 1.07 0.0 0 0 491.32 548.16
  L 473.51 546.87
  Q 451.35 545.01 435.12 541.63
  Q 425.75 539.67 405.71 534.19
  Q 384.21 527.76 364.35 518.93
  Q 363.10 518.38 363.64 519.63
  L 371.17 537.05
  Z
  M 591.72 539.61
  Q 560.82 547.30 529.34 548.06
  A 1.06 1.05 -0.3 0 0 528.31 549.09
  L 527.91 568.34
  Q 527.59 569.23 528.07 568.83
  L 528.08 583.73
  L 528.22 602.14
  L 528.23 622.27
  A 0.32 0.32 0.0 0 0 528.59 622.59
  Q 542.17 621.23 553.95 617.63
  C 565.85 614.00 576.88 609.89 587.64 603.29
  C 603.03 593.84 616.84 582.42 628.33 568.54
  C 635.59 559.77 642.59 550.81 646.85 541.34
  Q 651.65 530.69 655.66 520.48
  Q 656.21 519.07 654.85 519.74
  Q 645.79 524.24 636.54 527.33
  Q 614.50 534.71 591.72 539.61
  Z"
/>
<path fill="#221c17" d="
  M 405.71 534.19
  Q 406.08 535.01 407.16 535.21
  Q 407.77 535.32 407.28 535.70
  Q 406.85 536.03 406.29 535.94
  Q 404.03 535.55 401.65 535.04
  Q 401.51 535.01 401.40 534.92
  Q 401.27 534.83 401.32 534.64
  Q 401.37 534.37 401.10 534.37
  Q 399.41 534.36 397.59 534.38
  Q 397.26 534.38 396.98 534.22
  Q 396.67 534.04 396.68 533.68
  Q 396.71 533.24 396.32 533.03
  Q 394.28 531.90 392.42 532.12
  A 0.97 0.88 -25.6 0 1 391.69 531.90
  Q 391.58 531.80 391.57 531.65
  Q 391.53 531.12 391.01 531.03
  L 387.00 530.36
  Q 386.65 530.31 386.67 530.66
  Q 386.68 530.81 386.61 530.95
  Q 386.37 531.44 385.84 531.29
  Q 384.15 530.79 382.26 530.97
  Q 382.08 530.99 382.04 531.17
  Q 382.00 531.33 381.76 531.34
  Q 381.63 531.35 381.53 531.29
  Q 380.47 530.66 379.79 531.68
  A 0.84 0.81 8.8 0 1 379.32 532.01
  L 374.47 533.18
  Q 373.90 533.31 373.41 533.00
  L 371.95 532.08
  Q 371.36 531.70 371.48 532.39
  Q 371.81 534.33 372.75 536.05
  Q 372.22 535.88 371.79 535.89
  Q 371.30 535.91 371.34 536.40
  Q 371.37 536.79 371.17 537.05
  L 363.64 519.63
  Q 363.10 518.38 364.35 518.93
  Q 384.21 527.76 405.71 534.19
  Z"
/>
<path fill="#af9e91" d="
  M 528.22 602.14
  Q 541.82 599.68 545.50 598.79
  Q 556.01 596.24 571.31 589.57
  Q 574.31 588.27 577.43 586.95
  Q 580.54 585.63 583.40 584.02
  Q 587.17 581.90 590.84 579.84
  Q 619.23 563.85 641.10 539.48
  Q 641.25 539.31 641.04 539.39
  Q 629.10 543.91 616.74 547.46
  Q 599.23 552.49 579.47 556.90
  Q 582.85 551.43 587.31 547.31
  Q 589.24 545.51 590.49 543.88
  Q 591.88 542.08 593.38 540.40
  Q 593.78 539.95 593.22 539.74
  Q 592.67 539.54 591.72 539.61
  Q 614.50 534.71 636.54 527.33
  Q 645.79 524.24 654.85 519.74
  Q 656.21 519.07 655.66 520.48
  Q 651.65 530.69 646.85 541.34
  C 642.59 550.81 635.59 559.77 628.33 568.54
  C 616.84 582.42 603.03 593.84 587.64 603.29
  C 576.88 609.89 565.85 614.00 553.95 617.63
  Q 542.17 621.23 528.59 622.59
  A 0.32 0.32 0.0 0 1 528.23 622.27
  L 528.22 602.14
  Z"
/>
<path fill="#3e352f" d="
  M 405.71 534.19
  Q 425.75 539.67 435.12 541.63
  Q 451.35 545.01 473.51 546.87
  Q 473.42 547.29 473.98 547.33
  A 0.48 0.48 0.0 0 1 474.41 547.91
  Q 474.37 548.09 474.22 548.23
  Q 474.05 548.38 473.82 548.38
  Q 469.50 548.38 465.20 548.36
  C 463.57 548.35 462.05 548.78 460.47 549.24
  Q 459.99 549.38 459.50 549.27
  C 457.51 548.84 455.13 550.40 453.50 551.44
  Q 452.42 552.12 451.25 552.03
  Q 450.78 551.99 450.33 552.05
  L 444.86 552.78
  A 0.88 0.88 0.0 0 0 444.12 553.85
  Q 444.23 554.33 443.90 554.62
  Q 443.24 555.19 443.91 555.76
  Q 444.45 556.21 444.29 557.02
  Q 433.81 555.02 423.34 553.06
  C 418.19 552.09 413.56 550.74 408.68 549.31
  Q 403.42 547.76 397.94 545.69
  Q 385.63 541.06 373.93 536.72
  Q 373.74 536.65 373.55 536.61
  Q 373.12 536.52 372.75 536.05
  Q 371.81 534.33 371.48 532.39
  Q 371.36 531.70 371.95 532.08
  L 373.41 533.00
  Q 373.90 533.31 374.47 533.18
  L 379.32 532.01
  A 0.84 0.81 8.8 0 0 379.79 531.68
  Q 380.47 530.66 381.53 531.29
  Q 381.63 531.35 381.76 531.34
  Q 382.00 531.33 382.04 531.17
  Q 382.08 530.99 382.26 530.97
  Q 384.15 530.79 385.84 531.29
  Q 386.37 531.44 386.61 530.95
  Q 386.68 530.81 386.67 530.66
  Q 386.65 530.31 387.00 530.36
  L 391.01 531.03
  Q 391.53 531.12 391.57 531.65
  Q 391.58 531.80 391.69 531.90
  A 0.97 0.88 -25.6 0 0 392.42 532.12
  Q 394.28 531.90 396.32 533.03
  Q 396.71 533.24 396.68 533.68
  Q 396.67 534.04 396.98 534.22
  Q 397.26 534.38 397.59 534.38
  Q 399.41 534.36 401.10 534.37
  Q 401.37 534.37 401.32 534.64
  Q 401.27 534.83 401.40 534.92
  Q 401.51 535.01 401.65 535.04
  Q 404.03 535.55 406.29 535.94
  Q 406.85 536.03 407.28 535.70
  Q 407.77 535.32 407.16 535.21
  Q 406.08 535.01 405.71 534.19
  Z"
/>
<path fill="#070502" d="
  M 372.75 536.05
  Q 373.12 536.52 373.55 536.61
  Q 373.74 536.65 373.93 536.72
  Q 385.63 541.06 397.94 545.69
  Q 403.42 547.76 408.68 549.31
  C 413.56 550.74 418.19 552.09 423.34 553.06
  Q 433.81 555.02 444.29 557.02
  Q 457.94 559.46 469.50 560.45
  Q 477.61 561.14 484.68 561.80
  C 486.33 561.96 487.75 562.61 489.44 562.31
  Q 489.97 562.22 490.14 562.73
  Q 490.86 564.84 490.66 566.76
  Q 490.24 570.81 490.86 573.96
  L 490.74 579.44
  A 1.70 1.70 0.0 0 1 488.65 581.06
  Q 486.94 580.66 486.12 582.22
  A 1.08 1.06 13.0 0 1 485.21 582.78
  L 483.19 582.83
  Q 482.65 582.85 482.25 583.21
  Q 480.86 584.47 478.97 584.30
  Q 478.44 584.25 478.18 584.72
  Q 477.74 585.54 476.78 585.72
  Q 474.68 586.11 472.89 586.95
  Q 471.72 587.50 469.69 587.95
  Q 468.32 588.26 466.81 589.36
  Q 466.37 589.67 465.84 589.65
  Q 465.31 589.63 464.94 590.01
  Q 464.69 590.27 464.33 590.31
  L 461.06 590.65
  Q 460.57 590.70 460.19 591.02
  Q 458.63 592.33 456.89 591.41
  A 1.26 1.16 -29.9 0 0 456.28 591.27
  L 452.32 591.39
  Q 451.87 591.41 451.51 591.14
  Q 450.62 590.48 449.17 591.16
  L 436.90 586.20
  Q 424.85 580.01 413.74 572.58
  Q 412.00 571.15 407.60 568.39
  Q 403.92 566.09 396.53 560.02
  Q 390.07 554.71 377.09 542.57
  Q 376.22 541.76 374.75 540.95
  Q 373.57 540.29 372.33 539.37
  L 371.17 537.05
  Q 371.37 536.79 371.34 536.40
  Q 371.30 535.91 371.79 535.89
  Q 372.22 535.88 372.75 536.05
  Z"
/>
<path fill="#221c17" d="
  M 413.74 572.58
  Q 411.20 572.66 409.09 571.69
  Q 408.66 571.49 408.19 571.47
  L 406.25 571.37
  A 0.79 0.78 -7.9 0 1 405.53 570.83
  Q 405.24 569.97 404.35 570.13
  Q 403.95 570.20 403.74 570.54
  Q 402.99 571.75 401.97 572.57
  Q 401.49 572.95 401.39 573.56
  Q 401.28 574.24 400.96 574.84
  Q 400.75 575.26 400.30 575.39
  Q 399.23 575.69 398.87 574.81
  Q 398.75 574.52 398.45 574.44
  Q 398.28 574.39 398.13 574.47
  Q 397.56 574.78 397.20 574.23
  Q 395.23 571.22 392.22 569.48
  Q 380.21 555.81 372.33 539.37
  Q 373.57 540.29 374.75 540.95
  Q 376.22 541.76 377.09 542.57
  Q 390.07 554.71 396.53 560.02
  Q 403.92 566.09 407.60 568.39
  Q 412.00 571.15 413.74 572.58
  Z"
/>
<path fill="#3e352f" d="
  M 528.22 602.14
  L 528.08 583.73
  L 528.07 568.83
  Q 527.59 569.23 527.91 568.34
  L 528.96 562.49
  L 528.89 581.00
  A 1.60 1.60 0.0 0 0 530.41 582.61
  Q 531.40 582.67 532.45 582.38
  Q 538.43 580.70 542.91 578.72
  Q 547.88 576.52 554.73 572.88
  Q 560.03 570.06 565.50 566.34
  Q 571.82 562.04 577.97 557.93
  Q 578.82 557.37 577.81 557.22
  Q 577.80 557.22 577.49 557.11
  L 579.47 556.90
  Q 599.23 552.49 616.74 547.46
  Q 629.10 543.91 641.04 539.39
  Q 641.25 539.31 641.10 539.48
  Q 619.23 563.85 590.84 579.84
  Q 587.17 581.90 583.40 584.02
  Q 580.54 585.63 577.43 586.95
  Q 574.31 588.27 571.31 589.57
  Q 556.01 596.24 545.50 598.79
  Q 541.82 599.68 528.22 602.14
  Z"
/>
<path fill="#554941" d="
  M 591.72 539.61
  Q 592.67 539.54 593.22 539.74
  Q 593.78 539.95 593.38 540.40
  Q 591.88 542.08 590.49 543.88
  Q 589.24 545.51 587.31 547.31
  Q 582.85 551.43 579.47 556.90
  L 577.49 557.11
  C 567.26 558.41 557.12 559.95 546.80 560.83
  Q 537.81 561.61 528.96 562.49
  L 527.91 568.34
  L 528.31 549.09
  A 1.06 1.05 -0.3 0 1 529.34 548.06
  Q 560.82 547.30 591.72 539.61
  Z"
/>
<path fill="#221c17" d="
  M 331.48 585.96
  Q 330.16 585.93 329.40 584.61
  A 0.15 0.15 0.0 0 0 329.13 584.63
  Q 329.00 584.90 328.80 584.68
  Q 328.62 584.47 328.51 584.17
  Q 328.43 583.96 328.36 583.72
  Q 328.07 582.85 328.19 583.76
  Q 328.37 585.22 326.64 585.50
  Q 326.25 585.56 326.04 585.24
  Q 325.79 584.87 325.39 585.07
  Q 322.29 586.67 319.25 587.01
  Q 318.80 587.06 318.49 587.39
  Q 317.67 588.25 316.84 587.37
  Q 316.27 586.76 316.07 587.59
  Q 316.03 587.76 315.90 587.89
  Q 315.52 588.25 315.10 587.94
  Q 314.78 587.70 314.49 588.02
  A 0.70 0.69 -70.0 0 1 313.99 588.26
  Q 311.81 588.36 309.83 588.24
  Q 308.53 588.17 307.36 588.39
  Q 305.75 588.70 304.20 587.77
  Q 303.84 587.56 303.50 587.80
  Q 302.92 588.21 302.53 588.75
  Q 302.23 589.14 301.75 589.06
  L 300.37 588.84
  L 291.34 569.95
  L 285.00 553.83
  Q 285.99 552.22 286.03 550.41
  Q 286.04 549.91 286.35 549.51
  Q 287.17 548.45 288.41 548.76
  Q 288.87 548.88 289.30 548.65
  Q 290.57 547.98 292.01 547.30
  Q 293.27 546.71 294.54 546.64
  Q 297.25 546.48 300.02 546.33
  Q 301.37 546.26 302.34 545.80
  Q 303.66 545.17 304.97 544.57
  Q 305.42 544.37 305.88 544.54
  C 307.54 545.13 308.19 543.48 309.85 543.98
  A 1.74 1.71 -89.5 0 1 311.03 545.20
  Q 312.38 550.50 314.39 554.84
  Q 321.87 570.96 331.48 585.96
  Z"
/>
<path fill="#554941" d="
  M 473.51 546.87
  L 491.32 548.16
  A 1.07 1.07 0.0 0 1 492.31 549.23
  L 491.94 622.43
  Q 491.94 622.96 491.41 622.90
  Q 453.50 618.52 422.26 597.04
  Q 424.00 597.47 426.07 595.17
  Q 429.71 591.15 430.34 589.12
  Q 430.50 588.63 431.01 588.67
  Q 431.27 588.69 431.49 588.58
  Q 431.88 588.38 432.21 588.04
  Q 433.94 586.20 436.90 586.20
  L 449.17 591.16
  Q 465.53 597.06 482.54 600.18
  Q 486.17 600.84 489.33 600.94
  Q 490.67 600.98 490.96 599.67
  C 491.23 598.51 491.69 597.64 491.47 596.42
  Q 490.77 592.55 491.26 588.34
  Q 491.59 585.48 491.68 582.68
  Q 491.69 582.22 491.37 581.90
  Q 491.24 581.77 491.17 581.60
  Q 491.05 581.25 491.06 580.87
  Q 491.20 577.41 490.86 573.96
  Q 490.24 570.81 490.66 566.76
  Q 490.86 564.84 490.14 562.73
  Q 489.97 562.22 489.44 562.31
  C 487.75 562.61 486.33 561.96 484.68 561.80
  Q 477.61 561.14 469.50 560.45
  Q 457.94 559.46 444.29 557.02
  Q 444.45 556.21 443.91 555.76
  Q 443.24 555.19 443.90 554.62
  Q 444.23 554.33 444.12 553.85
  A 0.88 0.88 0.0 0 1 444.86 552.78
  L 450.33 552.05
  Q 450.78 551.99 451.25 552.03
  Q 452.42 552.12 453.50 551.44
  C 455.13 550.40 457.51 548.84 459.50 549.27
  Q 459.99 549.38 460.47 549.24
  C 462.05 548.78 463.57 548.35 465.20 548.36
  Q 469.50 548.38 473.82 548.38
  Q 474.05 548.38 474.22 548.23
  Q 474.37 548.09 474.41 547.91
  A 0.48 0.48 0.0 0 0 473.98 547.33
  Q 473.42 547.29 473.51 546.87
  Z"
/>
<path fill="#070502" d="
  M 577.49 557.11
  Q 577.80 557.22 577.81 557.22
  Q 578.82 557.37 577.97 557.93
  Q 571.82 562.04 565.50 566.34
  Q 560.03 570.06 554.73 572.88
  Q 547.88 576.52 542.91 578.72
  Q 538.43 580.70 532.45 582.38
  Q 531.40 582.67 530.41 582.61
  A 1.60 1.60 0.0 0 1 528.89 581.00
  L 528.96 562.49
  Q 537.81 561.61 546.80 560.83
  C 557.12 559.95 567.26 558.41 577.49 557.11
  Z"
/>
<path fill="#554941" d="
  M 528.07 568.83
  L 528.08 583.73
  L 528.07 568.83
  Z"
/>
<path fill="#3e352f" d="
  M 392.22 569.48
  Q 395.23 571.22 397.20 574.23
  Q 397.56 574.78 398.13 574.47
  Q 398.28 574.39 398.45 574.44
  Q 398.75 574.52 398.87 574.81
  Q 399.23 575.69 400.30 575.39
  Q 400.75 575.26 400.96 574.84
  Q 401.28 574.24 401.39 573.56
  Q 401.49 572.95 401.97 572.57
  Q 402.99 571.75 403.74 570.54
  Q 403.95 570.20 404.35 570.13
  Q 405.24 569.97 405.53 570.83
  A 0.79 0.78 -7.9 0 0 406.25 571.37
  L 408.19 571.47
  Q 408.66 571.49 409.09 571.69
  Q 411.20 572.66 413.74 572.58
  Q 424.85 580.01 436.90 586.20
  Q 433.94 586.20 432.21 588.04
  Q 431.88 588.38 431.49 588.58
  Q 431.27 588.69 431.01 588.67
  Q 430.50 588.63 430.34 589.12
  Q 429.71 591.15 426.07 595.17
  Q 424.00 597.47 422.26 597.04
  Q 405.16 585.43 392.22 569.48
  Z"
/>
<path fill="#221c17" d="
  M 490.86 573.96
  Q 491.20 577.41 491.06 580.87
  Q 491.05 581.25 491.17 581.60
  Q 491.24 581.77 491.37 581.90
  Q 491.69 582.22 491.68 582.68
  Q 491.59 585.48 491.26 588.34
  Q 490.77 592.55 491.47 596.42
  C 491.69 597.64 491.23 598.51 490.96 599.67
  Q 490.67 600.98 489.33 600.94
  Q 486.17 600.84 482.54 600.18
  Q 465.53 597.06 449.17 591.16
  Q 450.62 590.48 451.51 591.14
  Q 451.87 591.41 452.32 591.39
  L 456.28 591.27
  A 1.26 1.16 -29.9 0 1 456.89 591.41
  Q 458.63 592.33 460.19 591.02
  Q 460.57 590.70 461.06 590.65
  L 464.33 590.31
  Q 464.69 590.27 464.94 590.01
  Q 465.31 589.63 465.84 589.65
  Q 466.37 589.67 466.81 589.36
  Q 468.32 588.26 469.69 587.95
  Q 471.72 587.50 472.89 586.95
  Q 474.68 586.11 476.78 585.72
  Q 477.74 585.54 478.18 584.72
  Q 478.44 584.25 478.97 584.30
  Q 480.86 584.47 482.25 583.21
  Q 482.65 582.85 483.19 582.83
  L 485.21 582.78
  A 1.08 1.06 13.0 0 0 486.12 582.22
  Q 486.94 580.66 488.65 581.06
  A 1.70 1.70 0.0 0 0 490.74 579.44
  L 490.86 573.96
  Z"
/>
<path fill="#3e352f" d="
  M 331.48 585.96
  Q 333.78 590.38 336.77 594.50
  C 348.51 610.64 361.03 624.68 377.36 637.70
  L 373.86 636.94
  Q 373.39 636.84 373.04 637.16
  Q 370.97 638.96 368.92 641.02
  Q 367.90 642.04 366.46 642.43
  Q 366.02 642.54 365.75 642.92
  Q 364.37 644.87 362.91 646.71
  C 361.83 648.06 360.09 648.69 359.54 650.43
  Q 359.39 650.90 358.96 651.13
  Q 358.05 651.62 357.13 652.10
  Q 356.59 652.38 356.33 652.85
  Q 355.99 653.49 356.24 654.13
  Q 356.42 654.59 356.00 654.87
  Q 355.54 655.16 354.76 655.02
  Q 334.75 638.27 319.19 617.32
  Q 309.00 603.60 300.37 588.84
  L 301.75 589.06
  Q 302.23 589.14 302.53 588.75
  Q 302.92 588.21 303.50 587.80
  Q 303.84 587.56 304.20 587.77
  Q 305.75 588.70 307.36 588.39
  Q 308.53 588.17 309.83 588.24
  Q 311.81 588.36 313.99 588.26
  A 0.70 0.69 -70.0 0 0 314.49 588.02
  Q 314.78 587.70 315.10 587.94
  Q 315.52 588.25 315.90 587.89
  Q 316.03 587.76 316.07 587.59
  Q 316.27 586.76 316.84 587.37
  Q 317.67 588.25 318.49 587.39
  Q 318.80 587.06 319.25 587.01
  Q 322.29 586.67 325.39 585.07
  Q 325.79 584.87 326.04 585.24
  Q 326.25 585.56 326.64 585.50
  Q 328.37 585.22 328.19 583.76
  Q 328.07 582.85 328.36 583.72
  Q 328.43 583.96 328.51 584.17
  Q 328.62 584.47 328.80 584.68
  Q 329.00 584.90 329.13 584.63
  A 0.15 0.15 0.0 0 1 329.40 584.61
  Q 330.16 585.93 331.48 585.96
  Z"
/>
<path fill="#554941" d="
  M 377.36 637.70
  Q 395.20 651.37 407.85 657.65
  Q 415.43 661.41 423.41 665.50
  C 426.42 667.04 429.55 667.61 432.57 668.96
  Q 439.97 672.26 451.24 675.30
  Q 464.31 678.82 477.13 681.83
  Q 480.54 682.63 477.09 683.22
  Q 462.72 685.68 448.73 682.67
  Q 443.66 681.58 437.95 680.04
  C 432.12 678.46 427.76 676.40 422.98 673.38
  Q 421.40 672.39 422.50 673.90
  Q 422.98 674.56 423.58 675.24
  Q 435.23 688.55 440.21 693.79
  Q 447.75 701.69 452.00 706.93
  Q 445.76 705.15 440.23 703.07
  Q 418.79 695.00 398.36 684.64
  Q 376.59 673.60 354.76 655.02
  Q 355.54 655.16 356.00 654.87
  Q 356.42 654.59 356.24 654.13
  Q 355.99 653.49 356.33 652.85
  Q 356.59 652.38 357.13 652.10
  Q 358.05 651.62 358.96 651.13
  Q 359.39 650.90 359.54 650.43
  C 360.09 648.69 361.83 648.06 362.91 646.71
  Q 364.37 644.87 365.75 642.92
  Q 366.02 642.54 366.46 642.43
  Q 367.90 642.04 368.92 641.02
  Q 370.97 638.96 373.04 637.16
  Q 373.39 636.84 373.86 636.94
  L 377.36 637.70
  Z"
/>
<path fill="#221c17" d="
  M 487.96 839.99
  Q 492.04 840.33 495.60 839.93
  Q 499.20 839.52 502.61 839.45
  Q 522.05 839.09 538.19 839.51
  Q 559.41 840.06 582.40 841.77
  Q 604.12 843.38 621.05 845.78
  Q 628.59 846.86 637.06 847.91
  Q 639.81 848.25 642.31 848.84
  C 645.74 849.67 649.25 849.81 652.62 850.94
  C 656.91 852.37 666.88 854.62 668.11 859.52
  Q 668.23 860.01 667.96 860.44
  Q 666.47 862.89 664.36 863.94
  Q 657.59 867.33 649.70 869.02
  Q 631.61 872.90 613.99 874.64
  Q 597.45 876.26 580.00 877.77
  Q 571.40 878.51 561.02 878.91
  Q 533.77 879.95 508.03 880.16
  Q 478.04 880.42 442.13 877.82
  Q 437.48 877.48 435.22 877.36
  Q 398.17 875.28 367.30 868.54
  Q 358.77 866.68 352.82 862.27
  Q 349.91 860.12 352.54 857.50
  C 356.43 853.62 361.55 852.61 366.78 851.34
  Q 379.94 848.15 392.80 846.88
  Q 395.86 846.58 398.71 845.91
  C 401.46 845.26 404.09 845.42 406.77 844.96
  C 415.18 843.50 423.46 843.35 431.61 842.56
  Q 439.09 841.82 446.47 841.46
  C 454.66 841.05 463.06 840.11 471.34 840.04
  Q 476.90 839.99 482.52 839.84
  Q 485.24 839.77 487.96 839.99
  Z
  M 464.11 848.49
  C 455.44 849.26 445.99 850.11 437.74 853.23
  C 434.51 854.45 430.58 858.40 435.23 861.23
  Q 438.14 863.01 442.57 864.06
  Q 451.96 866.28 461.82 867.03
  Q 508.59 870.57 555.73 867.09
  Q 565.01 866.41 574.42 864.62
  C 578.29 863.89 582.82 862.56 585.76 860.13
  C 587.81 858.42 586.46 855.72 584.56 854.63
  Q 580.75 852.45 575.86 851.46
  Q 563.97 849.06 551.70 848.19
  Q 505.01 844.87 464.11 848.49
  Z"
/>
<path fill="#feece4" d="
  M 464.11 848.49
  Q 505.01 844.87 551.70 848.19
  Q 563.97 849.06 575.86 851.46
  Q 580.75 852.45 584.56 854.63
  C 586.46 855.72 587.81 858.42 585.76 860.13
  C 582.82 862.56 578.29 863.89 574.42 864.62
  Q 565.01 866.41 555.73 867.09
  Q 508.59 870.57 461.82 867.03
  Q 451.96 866.28 442.57 864.06
  Q 438.14 863.01 435.23 861.23
  C 430.58 858.40 434.51 854.45 437.74 853.23
  C 445.99 850.11 455.44 849.26 464.11 848.49
  Z"
/>
</svg>
