<svg id="Layer_1" xmlns="http://www.w3.org/2000/svg" viewBox="0 0 451.88 155.28" xmlns:xlink="http://www.w3.org/1999/xlink">
 <defs>
  <style>
   .cls-1{fill:#002677;}
  </style>
 </defs>
 <g>
  <path class="cls-1" d="M7.83,11.84V48.13c0,13.4,7.92,23.87,23.09,23.87,13.01,0,22.79-9.59,22.79-24.16V12.81c0-3.82,2.54-6.95,6.85-7.24l1.37-.1V2.05h-22.79v3.42l1.47,.1c4.21,.29,6.85,3.33,6.85,7.24V46.76c0,11.05-5.77,17.8-14.77,17.8s-14.48-7.14-14.48-17.9V11.84c0-3.82,2.05-5.97,6.36-6.26l1.37-.1V2.05H0v3.42l1.47,.1c4.21,.29,6.36,2.35,6.36,6.26Z">
  </path>
  <path class="cls-1" d="M38.6,89.25l1.47,.1c3.62,.2,6.36,1.66,6.36,5.77v21.33H20.79v-21.33c0-4.11,2.74-5.48,6.36-5.77l1.37-.1v-3.42H2.6v3.42l1.47,.1c3.62,.2,6.36,1.66,6.36,5.77v49.89c0,4.11-2.74,5.58-6.36,5.77l-1.47,.1v3.42H28.52v-3.42l-1.37-.1c-3.62-.29-6.36-1.66-6.36-5.77v-23.28h25.63v23.28c0,4.11-2.74,5.58-6.36,5.77l-1.47,.1v3.42h25.92v-3.42l-1.37-.1c-3.62-.29-6.36-1.66-6.36-5.77v-49.89c0-4.11,2.74-5.48,6.36-5.77l1.37-.1v-3.42h-25.92v3.42Z">
  </path>
  <path class="cls-1" d="M61.82,22.11v3.23l1.96,.1c3.03,.2,4.89,1.66,4.89,5.77v30.13c0,4.11-2.05,5.58-5.38,5.77l-1.47,.1v3.33h23.18v-3.33l-1.37-.1c-3.33-.2-5.38-1.66-5.38-5.77v-16.04c.2-11.74,5.28-18.78,11.25-18.78,4.6,0,7.63,3.13,7.63,9.2v25.63c0,4.11-2.05,5.58-5.38,5.77l-1.47,.1v3.33h23.18v-3.33l-1.37-.1c-3.33-.2-5.38-1.66-5.38-5.77v-26.71c0-7.63-4.7-13.99-13.99-13.99-6.55,0-12.23,3.91-14.48,10.86v-10.66l-16.44,1.27Z">
  </path>
  <path class="cls-1" d="M195.65,71.51c9.88,0,15.46-6.75,17.71-14.38l-4.21-1.17c-1.96,5.28-5.38,9.39-12.23,9.39-7.92,0-13.3-7.53-13.3-19.47h30.42v-2.84c0-12.62-7.43-22.79-19.37-22.79-12.81,0-21.33,12.23-21.33,25.63s8.22,25.63,22.3,25.63Zm-1.08-45.68c5.38,0,8.8,4.99,9.2,15.26h-19.96c.98-9.49,4.89-15.26,10.76-15.26Z">
  </path>
  <path class="cls-1" d="M147.52,59.58c0,7.63,4.6,11.93,11.94,11.93,6.85,0,11.35-4.99,13.4-12.13l-3.52-.98c-1.37,4.11-3.62,6.65-6.75,6.65-4.11,0-5.48-3.03-5.48-6.56V26.8h13.4v-5.09h-13.4V6.65h-4.89c-1.86,11.35-7.63,15.46-13.7,16.73v3.42h9V59.58Z">
  </path>
  <path class="cls-1" d="M126.98,12.91c3.33,0,6.26-2.84,6.26-6.55,0-3.52-2.93-6.36-6.26-6.36s-6.26,2.84-6.26,6.36c0,3.72,2.84,6.55,6.26,6.55Z">
  </path>
  <path class="cls-1" d="M122.48,31.21v30.13c0,4.11-2.05,5.58-5.38,5.77l-1.47,.1v3.33h23.18v-3.33l-1.37-.1c-3.33-.2-5.38-1.66-5.38-5.77V20.84l-16.92,1.27v3.23l2.45,.1c3.03,.1,4.89,1.66,4.89,5.77Z">
  </path>
  <path class="cls-1" d="M238.98,71.51c6.46,0,11.45-3.33,13.6-9v8.02h16.34v-3.33l-1.37-.1c-3.33-.2-5.38-1.66-5.38-5.77V.78l-16.63,1.47v3.23l2.15,.1c3.03,.1,4.89,1.66,4.89,5.77V28.96c-2.15-5.48-7.14-8.71-13.6-8.71-12.82,0-20.06,12.23-20.06,25.63s7.24,25.63,20.06,25.63Zm1.66-45.68c7.24,0,11.94,7.83,11.94,20.05s-4.7,20.06-11.94,20.06c-6.85,0-11.35-7.73-11.35-20.06s4.5-20.05,11.35-20.05Z">
  </path>
  <path class="cls-1" d="M384.6,104.22c-5.67,0-10.56,3.72-12.72,10.37v-9.98l-16.43,1.27v3.23l1.96,.1c3.03,.2,4.89,1.66,4.89,5.77v30.13c0,4.11-2.05,5.58-5.38,5.77l-1.47,.1v3.33h23.18v-3.33l-1.37-.1c-3.33-.2-5.38-1.66-5.38-5.77v-16.44c.2-12.23,5.48-19.86,11.94-19.86,1.47,0,2.45,.39,3.23,1.27-1.66,.88-2.74,2.54-2.74,4.6,0,2.84,2.35,5.18,5.18,5.18s5.19-2.35,5.19-5.67c0-6.16-4.6-9.98-10.08-9.98Z">
  </path>
  <path class="cls-1" d="M416.1,104.02c-12.81,0-21.33,12.23-21.33,25.63s8.22,25.63,22.3,25.63c9.88,0,15.46-6.75,17.71-14.38l-4.21-1.17c-1.96,5.28-5.38,9.39-12.23,9.39-7.92,0-13.3-7.53-13.3-19.47h30.42v-2.84c0-12.62-7.43-22.79-19.37-22.79Zm-10.86,20.84c.98-9.49,4.89-15.26,10.76-15.26,5.38,0,8.8,4.99,9.19,15.26h-19.96Z">
  </path>
  <path class="cls-1" d="M347.14,146.19v-25.53c0-10.47-6.55-16.63-17.61-16.63-9.49,0-17.9,6.26-17.9,13.4,0,3.03,2.25,5.38,5.18,5.38s5.18-2.35,5.18-5.19c0-1.96-1.08-3.72-2.64-4.6,1.76-2.45,4.89-3.91,8.71-3.91,5.97,0,9.59,4.5,9.59,12.03v2.25l-14.48,5.97c-9.68,4.01-13.01,7.53-13.01,13.89,0,7.34,5.28,12.03,13.6,12.03,6.26,0,11.45-3.82,13.79-9.59v1.47c0,4.99,3.52,8.02,9.39,8.02,2.35,0,4.21-.29,6.16-.88v-3.33c-4.11,.49-5.97-1.08-5.97-4.79Zm-9.59-11.05c-.49,8.61-4.79,14.38-10.76,14.38-4.3,0-7.04-2.93-7.04-7.43,0-4.01,2.15-7.14,6.26-8.9l11.64-5.18-.1,7.14Z">
  </path>
  <path class="cls-1" d="M209.79,142.17c-1.37,4.11-3.62,6.65-6.75,6.65-4.11,0-5.48-3.03-5.48-6.55v-31.7h13.4v-5.09h-13.4v-15.06h-4.89c-1.86,11.35-7.63,15.46-13.7,16.73v3.42h9v32.77c0,7.63,4.6,11.94,11.93,11.94,6.85,0,11.35-4.99,13.4-12.13l-3.52-.98Z">
  </path>
  <path class="cls-1" d="M147.77,146.19v-25.53c0-10.47-6.55-16.63-17.61-16.63-9.49,0-17.9,6.26-17.9,13.4,0,3.03,2.25,5.38,5.18,5.38s5.18-2.35,5.18-5.19c0-1.96-1.08-3.72-2.64-4.6,1.76-2.45,4.89-3.91,8.71-3.91,5.97,0,9.59,4.5,9.59,12.03v2.25l-14.48,5.97c-9.68,4.01-13.01,7.53-13.01,13.89,0,7.34,5.28,12.03,13.6,12.03,6.26,0,11.45-3.82,13.79-9.59v1.47c0,4.99,3.52,8.02,9.39,8.02,2.35,0,4.21-.29,6.16-.88v-3.33c-4.11,.49-5.97-1.08-5.97-4.79Zm-9.59-11.05c-.49,8.61-4.79,14.38-10.76,14.38-4.3,0-7.04-2.93-7.04-7.43,0-4.01,2.15-7.14,6.26-8.9l11.64-5.18-.1,7.14Z">
  </path>
  <path class="cls-1" d="M290.69,149.12c-7.92,0-13.3-7.53-13.3-19.47s5.28-19.86,13.21-19.86c3.52,0,6.26,1.17,7.92,3.33-1.47,.98-2.45,2.64-2.45,4.5,0,2.84,2.35,5.19,5.19,5.19s5.18-2.35,5.18-5.67c0-5.87-5.87-13.11-16.34-13.11-14.58,0-22.99,12.23-22.99,25.63s8.22,25.63,22.3,25.63c9.68,0,15.16-6.46,17.32-13.79l-4.21-1.27c-1.86,4.99-5.19,8.9-11.84,8.9Z">
  </path>
  <path class="cls-1" d="M172.52,145.11v-60.55l-16.63,1.47v3.23l2.15,.1c3.03,.1,4.89,1.66,4.89,5.77v49.99c0,4.11-2.05,5.58-5.38,5.77l-1.47,.1v3.33h23.18v-3.33l-1.37-.1c-3.33-.2-5.38-1.66-5.38-5.77Z">
  </path>
  <path class="cls-1" d="M258.22,145.11v-26.71c0-7.63-4.7-13.99-13.99-13.99-6.55,0-12.23,3.91-14.48,10.86v-30.72l-16.63,1.47v3.23l2.15,.1c3.03,.1,4.89,1.66,4.89,5.77v49.99c0,4.11-2.05,5.58-5.38,5.77l-1.47,.1v3.33h23.18v-3.33l-1.37-.1c-3.33-.2-5.38-1.66-5.38-5.77v-16.04c.2-11.74,5.28-18.78,11.25-18.78,4.6,0,7.63,3.13,7.63,9.2v25.63c0,4.11-2.05,5.58-5.38,5.77l-1.47,.1v3.33h23.18v-3.33l-1.37-.1c-3.33-.2-5.38-1.66-5.38-5.77Z">
  </path>
  <path class="cls-1" d="M87.71,104.02c-12.82,0-21.33,12.23-21.33,25.63s8.22,25.63,22.3,25.63c9.88,0,15.46-6.75,17.71-14.38l-4.21-1.17c-1.96,5.28-5.38,9.39-12.23,9.39-7.92,0-13.3-7.53-13.3-19.47h30.42v-2.84c0-12.62-7.43-22.79-19.37-22.79Zm-10.86,20.84c.98-9.49,4.89-15.26,10.76-15.26,5.38,0,8.8,4.99,9.19,15.26h-19.96Z">
  </path>
 </g>
 <path class="cls-1" d="M441.12,103.87c-3.33,0-5.88,2.55-5.88,5.91s2.52,6.02,5.88,6.02,5.88-2.61,5.88-5.96-2.55-5.96-5.88-5.96Zm0,10.95c-2.78,0-4.82-2.09-4.82-4.99s2.04-5.02,4.84-5.02,4.79,2.12,4.79,4.99-2.01,5.02-4.82,5.02Z">
 </path>
 <path class="cls-1" d="M442.89,110c.77-.34,1.03-.72,1.03-1.61,0-1.2-.72-1.83-2.06-1.83h-3.15v6.56h1.03v-2.64h1.78c.95,0,1.23,.37,1.29,1.43,.03,.69,.03,.75,.2,1.2h1.18c-.14-.11-.32-.63-.32-.97-.06-1.58-.2-1.86-.97-2.15Zm-1.15-.37h-2.01v-2.15h1.92c.83,0,1.2,.32,1.2,1.03s-.4,1.12-1.12,1.12Z">
 </path>
</svg>