<?xml version="1.0" encoding="UTF-8"?>
<svg xmlns="http://www.w3.org/2000/svg" id="a" width="865.76" height="682.89" viewBox="0 0 865.76 682.89">
  <g>
    <g>
      <g>
        <rect x="466.53" y="98.44" width="279.27" height="526" fill="#eaeaea" stroke="#002346" stroke-miterlimit="10"></rect>
        <polygon points="732.46 111.77 732.46 609.3 481.66 609.3 481.66 111.77 546.4 111.77 549.45 128.04 661.97 128.04 667.05 111.77 732.46 111.77" fill="#fff" stroke="#002346" stroke-miterlimit="10"></polygon>
        <rect x="588.54" y="114.03" width="35.25" height="5.42" fill="#fff" stroke="#002346" stroke-miterlimit="10"></rect>
        <polygon points="732.46 111.77 732.46 214.48 481.66 214.48 481.66 111.77 546.4 111.77 549.45 128.04 661.97 128.04 667.05 111.77 732.46 111.77" fill="#fbe493" stroke="#002346" stroke-miterlimit="10"></polygon>
        <rect x="481.66" y="572.16" width="250.8" height="38.04" fill="#fbe493" stroke="#002346" stroke-miterlimit="10"></rect>
        <g>
          <rect x="584.25" y="587.45" width="7.47" height="7.47" rx=".79" ry=".79" fill="none" stroke="#002346" stroke-miterlimit="10"></rect>
          <g>
            <line x1="603.33" y1="591.18" x2="610.79" y2="591.18" fill="none" stroke="#002346" stroke-linecap="round" stroke-linejoin="round"></line>
            <line x1="607.06" y1="587.45" x2="607.06" y2="594.92" fill="none" stroke="#002346" stroke-linecap="round" stroke-linejoin="round"></line>
          </g>
          <g>
            <line x1="621.76" y1="587.45" x2="629.87" y2="587.45" fill="none" stroke="#002346" stroke-linecap="round" stroke-linejoin="round"></line>
            <line x1="621.76" y1="591.18" x2="629.87" y2="591.18" fill="none" stroke="#002346" stroke-linecap="round" stroke-linejoin="round"></line>
            <line x1="621.76" y1="594.92" x2="629.87" y2="594.92" fill="none" stroke="#002346" stroke-linecap="round" stroke-linejoin="round"></line>
          </g>
        </g>
      </g>
      <g>
        <path d="M510.95,147.7c.71,.39,1.26,.94,1.66,1.64,.39,.71,.59,1.52,.59,2.44s-.2,1.73-.6,2.42c-.4,.69-.96,1.23-1.69,1.61-.73,.38-1.57,.58-2.52,.58h-4.05c-.06,0-.09,.03-.09,.09v6.53c0,.15-.08,.23-.23,.23h-1.75c-.15,0-.23-.08-.23-.23v-15.66c0-.15,.08-.23,.23-.23h6.21c.94,0,1.76,.2,2.47,.59Zm-.74,6.13c.51-.51,.77-1.17,.77-2s-.26-1.52-.77-2.04-1.19-.77-2.04-.77h-3.84c-.06,0-.09,.03-.09,.09v5.38c0,.06,.03,.09,.09,.09h3.84c.84,0,1.52-.25,2.04-.76Z" fill="#002346"></path>
        <path d="M515.54,163.01v-15.64c0-.15,.08-.23,.23-.23h1.75c.15,0,.23,.08,.23,.23v15.64c0,.15-.08,.23-.23,.23h-1.75c-.15,0-.23-.08-.23-.23Z" fill="#002346"></path>
        <path d="M530.49,158.04c0,.15-.08,.23-.23,.23h-7.34c-.06,0-.09,.03-.09,.09,0,.52,.05,.92,.14,1.2,.17,.61,.51,1.09,1.02,1.44,.51,.35,1.16,.52,1.94,.52,1.13,0,2.01-.47,2.62-1.4,.08-.15,.18-.18,.3-.07l1.31,.87c.11,.09,.13,.19,.07,.3-.43,.69-1.04,1.23-1.83,1.63s-1.68,.6-2.68,.6c-1.12,0-2.06-.25-2.83-.74-.77-.49-1.34-1.19-1.73-2.09-.37-.9-.55-2-.55-3.29,0-1.12,.08-1.97,.25-2.55,.28-1.06,.83-1.89,1.66-2.51,.83-.61,1.83-.92,3.01-.92,1.55,0,2.71,.39,3.47,1.16,.77,.77,1.23,1.91,1.4,3.42,.06,.63,.08,1.33,.07,2.12Zm-6.58-4.29c-.43,.33-.72,.77-.87,1.32-.11,.34-.18,.77-.21,1.29,0,.06,.03,.09,.09,.09h5.27c.06,0,.09-.03,.09-.09-.03-.51-.08-.88-.14-1.13-.15-.6-.46-1.08-.91-1.44s-1.02-.54-1.69-.54-1.2,.17-1.63,.49Z" fill="#002346"></path>
        <path d="M539.89,151.85c.7,.33,1.23,.79,1.61,1.38,.38,.59,.56,1.26,.56,2.01v7.77c0,.15-.08,.23-.23,.23h-1.75c-.15,0-.23-.08-.23-.23v-.83c0-.08-.04-.09-.11-.05-.4,.41-.89,.73-1.46,.95s-1.22,.33-1.92,.33c-1.13,0-2.07-.29-2.82-.86-.74-.57-1.12-1.44-1.12-2.61s.42-2.13,1.25-2.82c.83-.68,2-1.02,3.51-1.02h2.58c.06,0,.09-.03,.09-.09v-.62c0-.67-.2-1.2-.59-1.58-.39-.38-.99-.56-1.78-.56-.64,0-1.17,.13-1.58,.38s-.66,.59-.75,1.02c-.05,.15-.14,.22-.28,.21l-1.86-.25c-.15-.03-.22-.09-.21-.18,.12-.9,.61-1.64,1.45-2.22,.84-.58,1.9-.86,3.17-.86,.94,0,1.75,.17,2.45,.49Zm-.93,9.07c.6-.43,.9-.97,.9-1.63v-1.36c0-.06-.03-.09-.09-.09h-2.16c-.9,0-1.62,.18-2.16,.53-.54,.35-.8,.84-.8,1.47,0,.57,.2,1,.61,1.29,.41,.29,.94,.44,1.6,.44,.81,0,1.52-.21,2.12-.64Z" fill="#002346"></path>
        <path d="M546.74,162.97c-.7-.28-1.24-.66-1.62-1.14-.38-.48-.58-1.02-.58-1.6v-.25c0-.15,.08-.23,.23-.23h1.66c.15,0,.23,.08,.23,.23v.12c0,.43,.23,.8,.7,1.13,.47,.32,1.06,.48,1.78,.48s1.25-.15,1.68-.45c.43-.3,.64-.68,.64-1.14s-.2-.78-.6-1-1.04-.46-1.93-.7c-.87-.25-1.61-.49-2.2-.75-.59-.25-1.09-.61-1.5-1.08-.41-.47-.61-1.07-.61-1.81,0-1.03,.4-1.84,1.21-2.45,.81-.61,1.88-.91,3.21-.91,.89,0,1.67,.14,2.36,.43,.68,.28,1.21,.68,1.58,1.18s.55,1.07,.55,1.7v.07c0,.15-.08,.23-.23,.23h-1.61c-.15,0-.23-.08-.23-.23v-.07c0-.44-.22-.82-.66-1.12-.44-.3-1.03-.45-1.78-.45-.67,0-1.22,.13-1.64,.39-.42,.26-.63,.61-.63,1.06s.2,.78,.61,1.01c.41,.23,1.06,.48,1.97,.74,.89,.25,1.63,.49,2.22,.72,.59,.24,1.09,.59,1.51,1.06,.41,.47,.62,1.08,.62,1.83,0,1.04-.41,1.87-1.23,2.48-.82,.61-1.91,.92-3.28,.92-.92,0-1.73-.14-2.43-.41Z" fill="#002346"></path>
        <path d="M565.79,158.04c0,.15-.08,.23-.23,.23h-7.34c-.06,0-.09,.03-.09,.09,0,.52,.05,.92,.14,1.2,.17,.61,.51,1.09,1.02,1.44,.51,.35,1.16,.52,1.94,.52,1.13,0,2.01-.47,2.62-1.4,.08-.15,.18-.18,.3-.07l1.31,.87c.11,.09,.13,.19,.07,.3-.43,.69-1.04,1.23-1.83,1.63s-1.68,.6-2.68,.6c-1.12,0-2.06-.25-2.83-.74-.77-.49-1.34-1.19-1.73-2.09-.37-.9-.55-2-.55-3.29,0-1.12,.08-1.97,.25-2.55,.28-1.06,.83-1.89,1.66-2.51,.83-.61,1.83-.92,3.01-.92,1.55,0,2.71,.39,3.47,1.16,.77,.77,1.23,1.91,1.4,3.42,.06,.63,.08,1.33,.07,2.12Zm-6.58-4.29c-.43,.33-.72,.77-.87,1.32-.11,.34-.18,.77-.21,1.29,0,.06,.03,.09,.09,.09h5.27c.06,0,.09-.03,.09-.09-.03-.51-.08-.88-.14-1.13-.15-.6-.46-1.08-.91-1.44s-1.02-.54-1.69-.54-1.2,.17-1.63,.49Z" fill="#002346"></path>
        <path d="M567.88,165.15s-.05-.11-.03-.18l.92-5.11c.03-.14,.12-.21,.25-.21h1.52c.08,0,.13,.02,.17,.07s.05,.11,.04,.18l-1.36,5.11c-.03,.14-.12,.21-.25,.21h-1.08c-.08,0-.13-.02-.17-.07Z" fill="#002346"></path>
        <path d="M505.49,173.11c-.28,.29-.41,.84-.41,1.66v.28c0,.06,.03,.09,.09,.09h2.42c.15,0,.23,.08,.23,.23v1.56c0,.15-.08,.23-.23,.23h-2.42c-.06,0-.09,.03-.09,.09v9.36c0,.15-.08,.23-.23,.23h-1.75c-.15,0-.23-.08-.23-.23v-9.36c0-.06-.03-.09-.09-.09h-1.54c-.15,0-.23-.08-.23-.23v-1.56c0-.15,.08-.23,.23-.23h1.54c.06,0,.09-.03,.09-.09v-.41c0-1.01,.12-1.79,.36-2.35,.24-.55,.64-.95,1.21-1.18,.57-.24,1.36-.36,2.39-.36h.78c.15,0,.23,.08,.23,.23v1.47c0,.15-.08,.23-.23,.23h-.55c-.77,0-1.29,.15-1.56,.44Zm5.13-.23c-.28-.28-.41-.63-.41-1.06s.14-.78,.41-1.06,.63-.41,1.06-.41,.78,.14,1.06,.41,.41,.63,.41,1.06-.14,.78-.41,1.06c-.28,.28-.63,.41-1.06,.41s-.78-.14-1.06-.41Zm-.09,13.71v-11.22c0-.15,.08-.23,.23-.23h1.75c.15,0,.23,.08,.23,.23v11.22c0,.15-.08,.23-.23,.23h-1.75c-.15,0-.23-.08-.23-.23Z" fill="#002346"></path>
        <path d="M516.21,186.61v-15.64c0-.15,.08-.23,.23-.23h1.75c.15,0,.23,.08,.23,.23v15.64c0,.15-.08,.23-.23,.23h-1.75c-.15,0-.23-.08-.23-.23Z" fill="#002346"></path>
        <path d="M521.61,186.61v-15.64c0-.15,.08-.23,.23-.23h1.75c.15,0,.23,.08,.23,.23v15.64c0,.15-.08,.23-.23,.23h-1.75c-.15,0-.23-.08-.23-.23Z" fill="#002346"></path>
        <path d="M537.16,176.95h-2.48c-.06,0-.09,.03-.09,.09v6.09c0,.64,.15,1.11,.44,1.39s.74,.43,1.36,.43h.67c.15,0,.23,.08,.23,.23v1.43c0,.15-.08,.23-.23,.23-.49,.03-.84,.05-1.06,.05-1.17,0-2.04-.21-2.63-.63-.59-.42-.89-1.2-.89-2.33v-6.88c0-.06-.03-.09-.09-.09h-1.4c-.15,0-.23-.08-.23-.23v-1.36c0-.15,.08-.23,.23-.23h1.4c.06,0,.09-.03,.09-.09v-2.71c0-.15,.08-.23,.23-.23h1.66c.15,0,.23,.08,.23,.23v2.71c0,.06,.03,.09,.09,.09h2.48c.15,0,.23,.08,.23,.23v1.36c0,.15-.08,.23-.23,.23Z" fill="#002346"></path>
        <path d="M548.31,176.07c.74,.73,1.1,1.71,1.1,2.96v7.59c0,.15-.08,.23-.23,.23h-1.75c-.15,0-.23-.08-.23-.23v-7.15c0-.77-.22-1.39-.67-1.86-.44-.48-1.04-.71-1.77-.71s-1.31,.24-1.77,.71c-.46,.48-.69,1.09-.69,1.84v7.18c0,.15-.08,.23-.23,.23h-1.75c-.15,0-.23-.08-.23-.23v-15.64c0-.15,.08-.23,.23-.23h1.75c.15,0,.23,.08,.23,.23v5.22s.01,.05,.03,.07c.02,.02,.04,0,.06-.02,.66-.84,1.63-1.27,2.92-1.27s2.25,.36,2.99,1.09Z" fill="#002346"></path>
        <path d="M561.98,181.64c0,.15-.08,.23-.23,.23h-7.34c-.06,0-.09,.03-.09,.09,0,.52,.05,.92,.14,1.2,.17,.61,.51,1.09,1.02,1.44,.51,.35,1.16,.52,1.94,.52,1.13,0,2.01-.47,2.62-1.4,.08-.15,.18-.18,.3-.07l1.31,.87c.11,.09,.13,.19,.07,.3-.43,.69-1.04,1.23-1.83,1.63s-1.68,.6-2.68,.6c-1.12,0-2.06-.25-2.83-.74-.77-.49-1.34-1.19-1.73-2.09-.37-.9-.55-2-.55-3.29,0-1.12,.08-1.97,.25-2.55,.28-1.06,.83-1.89,1.66-2.51,.83-.61,1.83-.92,3.01-.92,1.55,0,2.71,.39,3.47,1.16,.77,.77,1.23,1.91,1.4,3.42,.06,.63,.08,1.33,.07,2.12Zm-6.58-4.29c-.43,.33-.72,.77-.87,1.32-.11,.34-.18,.77-.21,1.29,0,.06,.03,.09,.09,.09h5.27c.06,0,.09-.03,.09-.09-.03-.51-.08-.88-.14-1.13-.15-.6-.46-1.08-.91-1.44s-1.02-.54-1.69-.54-1.2,.17-1.63,.49Z" fill="#002346"></path>
        <path d="M572.95,173.11c-.28,.29-.41,.84-.41,1.66v.28c0,.06,.03,.09,.09,.09h2.42c.15,0,.23,.08,.23,.23v1.56c0,.15-.08,.23-.23,.23h-2.42c-.06,0-.09,.03-.09,.09v9.36c0,.15-.08,.23-.23,.23h-1.75c-.15,0-.23-.08-.23-.23v-9.36c0-.06-.03-.09-.09-.09h-1.54c-.15,0-.23-.08-.23-.23v-1.56c0-.15,.08-.23,.23-.23h1.54c.06,0,.09-.03,.09-.09v-.41c0-1.01,.12-1.79,.36-2.35,.24-.55,.64-.95,1.21-1.18,.57-.24,1.37-.36,2.39-.36h.78c.15,0,.23,.08,.23,.23v1.47c0,.15-.08,.23-.23,.23h-.55c-.77,0-1.29,.15-1.56,.44Z" fill="#002346"></path>
        <path d="M578.67,186.16c-.84-.57-1.43-1.38-1.77-2.4-.28-.83-.41-1.76-.41-2.81s.13-2.01,.39-2.76c.34-1.01,.93-1.81,1.77-2.38,.84-.58,1.85-.86,3.01-.86,1.1,0,2.07,.29,2.89,.86,.82,.57,1.41,1.36,1.76,2.36,.28,.78,.41,1.7,.41,2.76s-.14,2.02-.41,2.83c-.34,1.03-.92,1.83-1.75,2.4-.83,.58-1.8,.86-2.92,.86s-2.12-.29-2.97-.86Zm4.58-1.56c.46-.34,.79-.83,.99-1.46,.17-.58,.25-1.3,.25-2.16s-.08-1.57-.23-2.14c-.2-.63-.53-1.12-.99-1.46-.46-.35-1.02-.52-1.68-.52s-1.17,.17-1.63,.52c-.46,.34-.79,.83-.99,1.46-.17,.54-.25,1.25-.25,2.14s.08,1.61,.25,2.16c.18,.63,.51,1.12,.98,1.46,.47,.35,1.03,.52,1.69,.52,.61,0,1.15-.17,1.61-.52Z" fill="#002346"></path>
        <path d="M596.08,175.32c.11,.05,.15,.14,.12,.28l-.37,1.73c-.02,.14-.11,.18-.28,.14-.26-.11-.57-.16-.92-.16l-.32,.02c-.72,.03-1.31,.28-1.78,.75s-.7,1.08-.7,1.83v6.72c0,.15-.08,.23-.23,.23h-1.75c-.15,0-.23-.08-.23-.23v-11.25c0-.15,.08-.23,.23-.23h1.75c.15,0,.23,.08,.23,.23v1.22s.01,.07,.03,.08c.02,0,.04,0,.06-.03,.69-1.07,1.63-1.61,2.83-1.61,.49,0,.93,.1,1.33,.3Z" fill="#002346"></path>
        <path d="M613.08,176.02c.67,.7,1.01,1.67,1.01,2.91v7.68c0,.15-.08,.23-.23,.23h-1.73c-.15,0-.23-.08-.23-.23v-7.22c0-.77-.21-1.38-.63-1.83s-.99-.68-1.69-.68-1.28,.22-1.72,.67c-.45,.44-.67,1.04-.67,1.79v7.27c0,.15-.08,.23-.23,.23h-1.72c-.15,0-.23-.08-.23-.23v-7.22c0-.77-.21-1.38-.63-1.83s-.99-.68-1.69-.68-1.27,.22-1.69,.67c-.42,.44-.63,1.04-.63,1.79v7.27c0,.15-.08,.23-.23,.23h-1.75c-.15,0-.23-.08-.23-.23v-11.25c0-.15,.08-.23,.23-.23h1.75c.15,0,.23,.08,.23,.23v.78s.01,.05,.03,.07c.02,.02,.05,0,.08-.02,.67-.81,1.66-1.22,2.94-1.22,.78,0,1.45,.15,2,.45s.98,.74,1.29,1.32c.05,.06,.09,.06,.14,0,.37-.6,.85-1.04,1.46-1.33,.61-.29,1.28-.44,2.01-.44,1.17,0,2.08,.35,2.76,1.05Z" fill="#002346"></path>
      </g>
      <g>
        <path d="M507.39,242.19s-.08,.05-.13,.05h-5.1c-.05,0-.08,.02-.08,.08v2.8c0,.05,.02,.08,.08,.08h3.44s.09,.02,.13,.05c.03,.04,.05,.08,.05,.13v1.14c0,.05-.02,.09-.05,.13s-.08,.05-.13,.05h-3.44c-.05,0-.08,.02-.08,.07v4.29c0,.05-.02,.09-.05,.13s-.08,.05-.13,.05h-1.38c-.05,0-.09-.02-.13-.05-.04-.03-.05-.08-.05-.13v-10.14c0-.05,.02-.09,.05-.13s.08-.05,.13-.05h6.73c.05,0,.09,.02,.13,.05,.03,.04,.05,.08,.05,.13v1.14c0,.05-.02,.09-.05,.13Z" fill="#002346"></path>
        <path d="M512.79,243.63s.08-.05,.13-.05h1.36s.09,.02,.13,.05,.05,.08,.05,.13v7.3c0,.05-.02,.09-.05,.13-.04,.04-.08,.05-.13,.05h-1.36c-.05,0-.09-.02-.13-.05-.04-.03-.05-.08-.05-.13v-.48s-.01-.05-.03-.06c-.02,0-.04,0-.06,.03-.41,.53-1.03,.79-1.85,.79-.76,0-1.4-.22-1.91-.66-.52-.44-.77-1.06-.77-1.88v-5.05c0-.05,.02-.09,.05-.13,.03-.04,.08-.05,.13-.05h1.38s.09,.02,.13,.05,.05,.08,.05,.13v4.56c0,.47,.12,.84,.37,1.12,.25,.28,.59,.42,1.03,.42s.81-.14,1.08-.42c.27-.28,.4-.66,.4-1.12v-4.56c0-.05,.02-.09,.05-.13Z" fill="#002346"></path>
        <path d="M516.37,251.19s-.05-.08-.05-.13v-10.14c0-.05,.02-.09,.05-.13s.08-.05,.13-.05h1.38s.09,.02,.13,.05c.03,.04,.05,.08,.05,.13v10.14c0,.05-.02,.09-.05,.13s-.08,.05-.13,.05h-1.38s-.09-.02-.13-.05Z" fill="#002346"></path>
        <path d="M519.96,251.19s-.05-.08-.05-.13v-10.14c0-.05,.02-.09,.05-.13s.08-.05,.13-.05h1.38c.05,0,.09,.02,.13,.05,.03,.04,.05,.08,.05,.13v10.14c0,.05-.02,.09-.05,.13-.04,.04-.08,.05-.13,.05h-1.38s-.09-.02-.13-.05Z" fill="#002346"></path>
        <path d="M532.81,240.79s.08-.05,.13-.05h1.38s.09,.02,.13,.05,.05,.08,.05,.13v10.14c0,.05-.02,.09-.05,.13-.04,.04-.08,.05-.13,.05h-1.33c-.1,0-.17-.04-.21-.12l-4.32-7.08s-.04-.04-.06-.04c-.02,0-.03,.03-.03,.07l.03,6.99c0,.05-.02,.09-.05,.13-.04,.04-.08,.05-.13,.05h-1.38c-.05,0-.09-.02-.13-.05-.04-.03-.05-.08-.05-.13v-10.14c0-.05,.02-.09,.05-.13s.08-.05,.13-.05h1.33c.1,0,.17,.04,.21,.12l4.3,7.08s.04,.04,.06,.04c.02,0,.03-.03,.03-.07v-6.99c-.01-.05,0-.09,.04-.13Z" fill="#002346"></path>
        <path d="M541.11,243.79c.48,.22,.85,.52,1.11,.91s.39,.82,.39,1.31v5.05c0,.05-.02,.09-.05,.13-.04,.04-.08,.05-.13,.05h-1.38s-.09-.02-.13-.05c-.04-.03-.05-.08-.05-.13v-.48s-.01-.05-.03-.05c-.02,0-.04,0-.06,.02-.49,.54-1.2,.81-2.13,.81-.75,0-1.37-.19-1.85-.57-.48-.38-.73-.94-.73-1.69s.27-1.39,.82-1.82c.54-.44,1.31-.65,2.3-.65h1.61s.08-.02,.08-.07v-.36c0-.39-.12-.69-.35-.91-.23-.21-.58-.32-1.03-.32-.38,0-.69,.07-.92,.2-.24,.14-.38,.32-.44,.56-.03,.12-.1,.17-.21,.15l-1.46-.18s-.09-.03-.13-.05-.05-.06-.04-.1c.08-.61,.41-1.11,.98-1.5,.58-.39,1.3-.58,2.17-.58,.63,0,1.18,.11,1.66,.33Zm-.76,5.81c.35-.26,.53-.59,.53-.99v-.71s-.03-.07-.08-.07h-1.26c-.53,0-.95,.1-1.25,.3-.3,.2-.46,.49-.46,.85,0,.32,.12,.57,.35,.74,.23,.17,.54,.26,.91,.26,.49,0,.91-.13,1.26-.39Z" fill="#002346"></path>
        <path d="M554.37,244.15c.44,.46,.65,1.11,.65,1.94v4.96c0,.05-.02,.09-.05,.13-.04,.04-.08,.05-.13,.05h-1.37s-.09-.02-.13-.05c-.04-.03-.05-.08-.05-.13v-4.6c0-.46-.12-.82-.37-1.09-.25-.27-.57-.41-.98-.41s-.74,.14-1,.41c-.26,.27-.39,.63-.39,1.08v4.62c0,.05-.02,.09-.05,.13-.04,.04-.08,.05-.13,.05h-1.37s-.09-.02-.13-.05c-.04-.03-.05-.08-.05-.13v-4.6c0-.46-.13-.82-.38-1.09-.25-.27-.58-.41-.99-.41-.38,0-.69,.11-.94,.33-.25,.22-.39,.52-.43,.9v4.88c0,.05-.02,.09-.05,.13-.04,.04-.08,.05-.13,.05h-1.38c-.05,0-.09-.02-.13-.05-.04-.03-.05-.08-.05-.13v-7.3c0-.05,.02-.09,.05-.13s.08-.05,.13-.05h1.38s.09,.02,.13,.05,.05,.08,.05,.13v.49s0,.05,.03,.06c.02,.01,.04,0,.06-.03,.22-.28,.49-.49,.82-.62,.33-.13,.69-.2,1.09-.2,.49,0,.92,.1,1.29,.3s.65,.49,.85,.87c.03,.04,.07,.04,.11,0,.22-.4,.53-.69,.92-.88s.83-.29,1.3-.29c.77,0,1.37,.23,1.81,.7Z" fill="#002346"></path>
        <path d="M563.25,247.39v.46c-.01,.12-.08,.18-.2,.18h-4.69c-.05,0-.08,.02-.08,.08,.03,.33,.08,.55,.13,.67,.24,.72,.83,1.08,1.75,1.09,.68,0,1.22-.28,1.62-.84,.04-.06,.09-.09,.15-.09,.04,0,.07,.02,.1,.04l.93,.77c.09,.07,.11,.15,.05,.24-.31,.44-.72,.78-1.24,1.02-.51,.24-1.09,.36-1.72,.36-.78,0-1.44-.17-1.99-.52-.54-.35-.94-.84-1.19-1.47-.23-.54-.34-1.29-.34-2.25,0-.58,.06-1.05,.18-1.41,.2-.7,.58-1.25,1.13-1.66,.55-.4,1.22-.61,2-.61,1.97,0,3.08,1.03,3.33,3.09,.04,.25,.06,.53,.06,.84Zm-4.31-2.15c-.25,.19-.42,.44-.52,.77-.06,.17-.1,.39-.12,.66-.02,.05,0,.08,.06,.08h3.04s.07-.02,.07-.08c-.02-.25-.05-.44-.09-.57-.09-.36-.27-.64-.53-.84s-.6-.3-1-.3c-.37,0-.68,.09-.92,.28Z" fill="#002346"></path>
      </g>
      <rect x="500.34" y="264.87" width="211" height="36" fill="none" stroke="#002346" stroke-linecap="round" stroke-linejoin="round" stroke-width="1.23"></rect>
      <g>
        <path d="M507.4,319.69s-.08,.05-.13,.05h-5.11c-.05,0-.08,.02-.08,.08v2.8c0,.05,.02,.08,.08,.08h3.44s.09,.02,.13,.05c.03,.04,.05,.08,.05,.13v1.14c0,.05-.02,.09-.05,.13s-.08,.05-.13,.05h-3.44c-.05,0-.08,.02-.08,.07v2.9c0,.05,.02,.08,.08,.08h5.11s.09,.02,.13,.05,.05,.08,.05,.13v1.14c0,.05-.02,.09-.05,.13-.04,.04-.08,.05-.13,.05h-6.75c-.05,0-.09-.02-.13-.05-.04-.03-.05-.08-.05-.13v-10.14c0-.05,.02-.09,.05-.13s.08-.05,.13-.05h6.75s.09,.02,.13,.05,.05,.08,.05,.13v1.14c0,.05-.02,.09-.05,.13Z" fill="#002346"></path>
        <path d="M519.07,321.65c.44,.46,.65,1.11,.65,1.94v4.96c0,.05-.02,.09-.05,.13-.04,.04-.08,.05-.13,.05h-1.37s-.09-.02-.13-.05c-.04-.03-.05-.08-.05-.13v-4.6c0-.46-.12-.82-.37-1.09s-.57-.41-.98-.41-.75,.14-1,.41c-.26,.27-.39,.63-.39,1.08v4.62c0,.05-.02,.09-.05,.13-.04,.04-.08,.05-.13,.05h-1.36c-.05,0-.09-.02-.13-.05-.04-.03-.05-.08-.05-.13v-4.6c0-.46-.12-.82-.38-1.09s-.58-.41-.99-.41c-.38,0-.69,.11-.94,.33-.25,.22-.39,.52-.43,.9v4.88c0,.05-.02,.09-.05,.13s-.08,.05-.13,.05h-1.38s-.09-.02-.13-.05c-.04-.03-.05-.08-.05-.13v-7.3c0-.05,.02-.09,.05-.13s.08-.05,.13-.05h1.38s.09,.02,.13,.05c.03,.04,.05,.08,.05,.13v.49s0,.05,.03,.06c.02,.01,.04,0,.06-.03,.22-.28,.49-.49,.82-.62,.32-.13,.69-.2,1.09-.2,.49,0,.92,.1,1.29,.3,.37,.2,.65,.49,.85,.87,.03,.04,.06,.04,.1,0,.22-.4,.52-.69,.92-.88s.82-.29,1.3-.29c.77,0,1.37,.23,1.81,.7Z" fill="#002346"></path>
        <path d="M526.08,321.29c.48,.22,.85,.52,1.11,.91s.39,.82,.39,1.31v5.05c0,.05-.02,.09-.05,.13-.04,.04-.08,.05-.13,.05h-1.38s-.09-.02-.13-.05c-.04-.03-.05-.08-.05-.13v-.48s-.01-.05-.03-.05c-.02,0-.04,0-.06,.02-.49,.54-1.2,.81-2.13,.81-.75,0-1.37-.19-1.85-.57-.48-.38-.73-.94-.73-1.69s.27-1.39,.82-1.82c.54-.44,1.31-.65,2.3-.65h1.61s.08-.02,.08-.07v-.36c0-.39-.12-.69-.35-.91-.23-.21-.58-.32-1.03-.32-.38,0-.69,.07-.92,.2-.24,.14-.38,.32-.44,.56-.03,.12-.1,.17-.21,.15l-1.46-.18c-.05-.01-.09-.03-.13-.05-.04-.02-.05-.06-.04-.1,.08-.61,.41-1.11,.98-1.5,.58-.39,1.3-.58,2.17-.58,.63,0,1.18,.11,1.66,.33Zm-.76,5.81c.35-.26,.53-.59,.53-.99v-.71s-.03-.07-.08-.07h-1.26c-.53,0-.95,.1-1.25,.3-.3,.2-.46,.49-.46,.85,0,.32,.12,.57,.35,.74,.23,.17,.54,.26,.91,.26,.49,0,.91-.13,1.26-.39Z" fill="#002346"></path>
        <path d="M529.55,319.73c-.2-.2-.3-.45-.3-.76s.1-.56,.3-.77c.2-.2,.46-.3,.76-.3s.56,.1,.76,.3,.3,.46,.3,.77-.1,.56-.3,.76c-.2,.2-.46,.3-.76,.3s-.57-.1-.76-.3Zm-.08,8.96s-.05-.08-.05-.13v-7.32s.02-.09,.05-.13,.08-.05,.13-.05h1.38s.09,.02,.13,.05,.05,.08,.05,.13v7.32c0,.05-.02,.09-.05,.13-.04,.04-.08,.05-.13,.05h-1.38c-.05,0-.09-.02-.13-.05Z" fill="#002346"></path>
        <path d="M533.2,328.69s-.05-.08-.05-.13v-10.14c0-.05,.02-.09,.05-.13s.08-.05,.13-.05h1.38s.09,.02,.13,.05,.05,.08,.05,.13v10.14c0,.05-.02,.09-.05,.13-.04,.04-.08,.05-.13,.05h-1.38c-.05,0-.09-.02-.13-.05Z" fill="#002346"></path>
        <path d="M539.95,328.69s-.05-.08-.05-.13v-10.14c0-.05,.02-.09,.05-.13s.08-.05,.13-.05h1.38s.09,.02,.13,.05,.05,.08,.05,.13v10.14c0,.05-.02,.09-.05,.13-.04,.04-.08,.05-.13,.05h-1.38c-.05,0-.09-.02-.13-.05Z" fill="#002346"></path>
        <path d="M548.47,318.29s.08-.05,.13-.05h1.38s.09,.02,.13,.05,.05,.08,.05,.13v10.14c0,.05-.02,.09-.05,.13-.04,.04-.08,.05-.13,.05h-1.38c-.05,0-.09-.02-.13-.05-.04-.03-.05-.08-.05-.13v-.45s0-.05-.03-.06c-.02,0-.04,0-.06,.03-.44,.52-1.01,.78-1.72,.78s-1.31-.19-1.8-.56c-.49-.37-.85-.88-1.07-1.54-.18-.56-.27-1.19-.27-1.88s.08-1.32,.25-1.83c.22-.66,.57-1.17,1.06-1.54,.49-.37,1.11-.56,1.85-.56,.69,0,1.25,.25,1.69,.75,.02,.02,.04,.03,.06,.02,.02,0,.03-.02,.03-.05v-3.25c0-.05,.02-.09,.05-.13Zm-.07,6.61c0-.78-.12-1.38-.38-1.79-.27-.44-.65-.66-1.14-.66s-.91,.21-1.2,.63c-.3,.44-.45,1.05-.45,1.83,0,.7,.12,1.28,.36,1.73,.28,.48,.71,.72,1.27,.72,.51,0,.91-.24,1.19-.72,.23-.41,.34-.99,.34-1.74Z" fill="#002346"></path>
      </g>
      <rect x="500.34" y="342.37" width="211" height="36" fill="none" stroke="#002346" stroke-linecap="round" stroke-linejoin="round" stroke-width="1.23"></rect>
      <g>
        <path d="M506.32,397.62c.48,.26,.85,.63,1.12,1.1,.27,.48,.4,1.02,.4,1.64s-.14,1.15-.41,1.62c-.27,.47-.65,.83-1.15,1.09-.5,.25-1.07,.38-1.72,.38h-2.4s-.07,.02-.07,.08v4.04s-.02,.09-.05,.13-.08,.05-.13,.05h-1.38c-.05,0-.09-.02-.13-.05-.04-.04-.05-.08-.05-.13v-10.16s.02-.09,.05-.13c.03-.04,.08-.05,.13-.05h4.12c.63,0,1.19,.13,1.67,.39Zm-.69,3.97c.31-.3,.46-.69,.46-1.18s-.16-.91-.46-1.21c-.31-.31-.72-.47-1.23-.47h-2.24s-.07,.03-.07,.08v3.16c0,.05,.02,.08,.07,.08h2.24c.51,0,.92-.15,1.23-.45Z" fill="#002346"></path>
        <path d="M514.81,400.68c.48,.48,.73,1.13,.73,1.96v4.92s-.02,.09-.05,.13c-.04,.04-.08,.05-.13,.05h-1.38s-.09-.02-.13-.05-.05-.08-.05-.13v-4.56c0-.46-.13-.83-.39-1.12-.26-.29-.6-.43-1.04-.43s-.78,.14-1.04,.42c-.27,.28-.4,.65-.4,1.11v4.58s-.02,.09-.05,.13c-.04,.04-.08,.05-.13,.05h-1.38s-.09-.02-.13-.05-.05-.08-.05-.13v-10.14s.02-.09,.05-.13,.08-.05,.13-.05h1.38s.09,.02,.13,.05c.03,.04,.05,.08,.05,.13v3.32s0,.05,.03,.06c.02,0,.03,0,.04-.03,.41-.54,1.03-.81,1.86-.81s1.46,.24,1.94,.72Z" fill="#002346"></path>
        <path d="M518.52,407.26c-.56-.4-.96-.96-1.19-1.66-.17-.54-.25-1.11-.25-1.71,0-.64,.08-1.21,.24-1.71,.23-.7,.63-1.25,1.2-1.64s1.25-.58,2.06-.58,1.42,.2,1.97,.58c.55,.39,.95,.93,1.18,1.62,.18,.48,.27,1.05,.27,1.71s-.08,1.2-.25,1.71c-.23,.71-.62,1.27-1.19,1.67s-1.22,.61-1.99,.61-1.47-.2-2.03-.6Zm2.99-1.21c.26-.21,.46-.5,.58-.88,.1-.33,.15-.75,.15-1.26,0-.54-.05-.96-.15-1.26-.11-.38-.3-.67-.57-.88-.27-.2-.6-.31-.99-.31-.37,0-.69,.1-.96,.31-.27,.21-.46,.5-.58,.88-.1,.35-.15,.77-.15,1.26s.05,.91,.15,1.26c.11,.38,.3,.68,.58,.88,.27,.21,.61,.32,1,.32,.37,0,.69-.1,.95-.32Z" fill="#002346"></path>
        <path d="M531.25,400.68c.48,.48,.73,1.13,.73,1.96v4.92s-.02,.09-.05,.13-.08,.05-.13,.05h-1.38s-.09-.02-.13-.05c-.04-.04-.05-.08-.05-.13v-4.56c0-.46-.13-.83-.39-1.12-.26-.29-.6-.43-1.03-.43s-.78,.14-1.04,.42c-.26,.28-.4,.65-.4,1.11v4.58s-.02,.09-.05,.13-.08,.05-.13,.05h-1.38c-.05,0-.09-.02-.13-.05s-.05-.08-.05-.13v-7.3c0-.05,.02-.09,.05-.13s.08-.05,.13-.05h1.38s.09,.02,.13,.05,.05,.08,.05,.13v.48s0,.05,.03,.06c.02,0,.04,0,.04-.03,.41-.54,1.03-.81,1.86-.81s1.46,.24,1.94,.72Z" fill="#002346"></path>
        <path d="M540.26,403.89v.46c-.01,.12-.08,.18-.2,.18h-4.69c-.05,0-.08,.02-.08,.08,.03,.33,.08,.55,.13,.67,.24,.72,.83,1.08,1.75,1.09,.68,0,1.22-.28,1.62-.84,.04-.06,.09-.09,.15-.09,.04,0,.07,.02,.1,.04l.93,.77c.09,.07,.11,.15,.05,.24-.31,.44-.72,.78-1.24,1.02-.51,.24-1.09,.36-1.72,.36-.78,0-1.44-.17-1.99-.53-.54-.35-.94-.84-1.19-1.47-.23-.54-.34-1.29-.34-2.25,0-.58,.06-1.05,.18-1.41,.2-.7,.58-1.25,1.13-1.66,.55-.4,1.22-.61,2-.61,1.97,0,3.08,1.03,3.33,3.09,.04,.25,.06,.53,.06,.84Zm-4.31-2.15c-.25,.19-.42,.44-.52,.77-.06,.17-.1,.39-.12,.66-.02,.05,0,.08,.06,.08h3.04s.07-.03,.07-.08c-.02-.25-.05-.44-.09-.57-.09-.36-.27-.64-.53-.84-.26-.2-.6-.3-1-.3-.37,0-.68,.09-.92,.28Z" fill="#002346"></path>
        <path d="M551.17,397.29s.08-.05,.13-.05h1.38s.09,.02,.13,.05,.05,.08,.05,.13v10.14s-.02,.09-.05,.13-.08,.05-.13,.05h-1.33c-.1,0-.17-.04-.21-.12l-4.32-7.08s-.04-.04-.06-.04c-.02,0-.03,.03-.03,.07l.03,6.99s-.02,.09-.05,.13-.08,.05-.13,.05h-1.38c-.05,0-.09-.02-.13-.05s-.05-.08-.05-.13v-10.14s.02-.09,.05-.13,.08-.05,.13-.05h1.33c.1,0,.17,.04,.21,.12l4.3,7.08s.04,.04,.06,.04c.02,0,.03-.03,.03-.07v-6.99s0-.09,.04-.13Z" fill="#002346"></path>
        <path d="M559.47,400.13s.08-.05,.13-.05h1.37s.09,.02,.13,.05c.03,.04,.05,.08,.05,.13v7.3s-.02,.09-.05,.13c-.04,.04-.08,.05-.13,.05h-1.37s-.09-.02-.13-.05-.05-.08-.05-.13v-.48s0-.05-.03-.06c-.02,0-.04,0-.06,.03-.41,.53-1.03,.79-1.84,.79-.76,0-1.4-.22-1.91-.66-.51-.44-.77-1.07-.77-1.88v-5.05c0-.05,.02-.09,.05-.13s.08-.05,.13-.05h1.38s.09,.02,.13,.05,.05,.08,.05,.13v4.56c0,.47,.12,.84,.37,1.12s.59,.42,1.03,.42,.81-.14,1.08-.42c.27-.28,.41-.66,.41-1.12v-4.56c0-.05,.02-.09,.05-.13Z" fill="#002346"></path>
        <path d="M573.01,400.65c.44,.46,.65,1.11,.65,1.94v4.96s-.02,.09-.05,.13c-.04,.04-.08,.05-.13,.05h-1.37s-.09-.02-.13-.05c-.04-.04-.05-.08-.05-.13v-4.61c0-.46-.12-.82-.37-1.09-.25-.27-.57-.41-.98-.41s-.74,.13-1,.41c-.26,.27-.39,.63-.39,1.08v4.62s-.02,.09-.05,.13-.08,.05-.13,.05h-1.37s-.09-.02-.13-.05-.05-.08-.05-.13v-4.61c0-.46-.13-.82-.38-1.09-.25-.27-.58-.41-.99-.41-.38,0-.69,.11-.94,.33-.25,.22-.39,.52-.43,.9v4.88s-.02,.09-.05,.13-.08,.05-.13,.05h-1.38c-.05,0-.09-.02-.13-.05s-.05-.08-.05-.13v-7.3c0-.05,.02-.09,.05-.13s.08-.05,.13-.05h1.38s.09,.02,.13,.05,.05,.08,.05,.13v.49s0,.05,.03,.06c.02,0,.04,0,.06-.03,.22-.28,.49-.49,.82-.62s.69-.2,1.09-.2c.49,0,.92,.1,1.29,.3,.37,.2,.65,.49,.85,.87,.03,.04,.07,.04,.11,0,.22-.4,.53-.7,.92-.88s.83-.29,1.3-.29c.77,0,1.37,.23,1.81,.7Z" fill="#002346"></path>
        <path d="M582.14,403.89c0,.71-.1,1.34-.29,1.88-.22,.66-.58,1.18-1.07,1.54-.49,.37-1.09,.56-1.8,.56s-1.28-.26-1.72-.79c-.02-.03-.04-.04-.06-.03-.02,0-.03,.03-.03,.06v.46s-.02,.09-.05,.13c-.04,.04-.08,.05-.13,.05h-1.38s-.09-.02-.13-.05-.05-.08-.05-.13v-10.14s.02-.09,.05-.13,.08-.05,.13-.05h1.38s.09,.02,.13,.05c.03,.04,.05,.08,.05,.13v3.26s.01,.05,.03,.06c.02,0,.04,0,.06-.01,.43-.51,1-.77,1.71-.77s1.35,.19,1.84,.55c.49,.37,.84,.88,1.07,1.54,.17,.56,.26,1.17,.26,1.83Zm-1.79,.03c0-.78-.15-1.39-.45-1.83-.27-.42-.67-.63-1.2-.63-.49,0-.87,.22-1.12,.66-.25,.41-.38,1-.38,1.79s.12,1.35,.34,1.74c.26,.48,.65,.72,1.17,.72,.28,0,.53-.06,.75-.19,.22-.12,.39-.3,.52-.53,.24-.42,.36-1,.36-1.73Z" fill="#002346"></path>
        <path d="M590.27,403.89v.46c-.01,.12-.08,.18-.2,.18h-4.69c-.05,0-.08,.02-.08,.08,.03,.33,.08,.55,.13,.67,.24,.72,.83,1.08,1.75,1.09,.68,0,1.22-.28,1.62-.84,.04-.06,.09-.09,.15-.09,.04,0,.07,.02,.1,.04l.93,.77c.09,.07,.11,.15,.05,.24-.31,.44-.72,.78-1.24,1.02-.51,.24-1.09,.36-1.72,.36-.78,0-1.44-.17-1.99-.53-.54-.35-.94-.84-1.19-1.47-.23-.54-.34-1.29-.34-2.25,0-.58,.06-1.05,.18-1.41,.2-.7,.58-1.25,1.13-1.66,.55-.4,1.22-.61,2-.61,1.97,0,3.08,1.03,3.33,3.09,.04,.25,.06,.53,.06,.84Zm-4.31-2.15c-.25,.19-.42,.44-.52,.77-.06,.17-.1,.39-.12,.66-.02,.05,0,.08,.06,.08h3.04s.07-.03,.07-.08c-.02-.25-.05-.44-.09-.57-.09-.36-.27-.64-.53-.84-.26-.2-.6-.3-1-.3-.37,0-.68,.09-.92,.28Z" fill="#002346"></path>
        <path d="M596.27,400.18c.08,.04,.11,.12,.09,.23l-.25,1.35c0,.12-.08,.15-.21,.1-.15-.05-.33-.08-.52-.08-.13,0-.23,0-.3,.02-.42,.02-.77,.17-1.05,.44-.28,.28-.42,.63-.42,1.07v4.25s-.02,.09-.05,.13-.08,.05-.13,.05h-1.38c-.05,0-.09-.02-.13-.05s-.05-.08-.05-.13v-7.3c0-.05,.02-.09,.05-.13s.08-.05,.13-.05h1.38s.09,.02,.13,.05,.05,.08,.05,.13v.67s0,.06,.02,.07c.01,0,.03,0,.05-.04,.42-.65,1-.98,1.75-.98,.32,0,.6,.07,.84,.19Z" fill="#002346"></path>
      </g>
      <g>
        <path d="M525.83,479.46c-.14-.14-.22-.33-.22-.55s.07-.41,.22-.55c.14-.14,.33-.21,.55-.21s.41,.07,.55,.21c.14,.14,.22,.33,.22,.55s-.07,.41-.22,.55-.33,.22-.55,.22-.41-.07-.55-.22Zm-.05,7.15v-5.86c0-.08,.04-.12,.12-.12h.91c.08,0,.12,.04,.12,.12v5.86c0,.08-.04,.12-.12,.12h-.91c-.08,0-.12-.04-.12-.12Z" fill="#002346"></path>
        <path d="M534.66,480.8c.36,.17,.64,.41,.84,.72,.2,.31,.29,.66,.29,1.05v4.06c0,.08-.04,.12-.12,.12h-.91c-.08,0-.12-.04-.12-.12v-.43s-.02-.05-.06-.02c-.21,.22-.46,.38-.76,.5-.3,.12-.63,.17-1,.17-.59,0-1.08-.15-1.47-.45-.39-.3-.58-.75-.58-1.36s.22-1.11,.65-1.47c.44-.36,1.05-.54,1.83-.54h1.34s.05-.02,.05-.05v-.32c0-.35-.1-.63-.31-.82-.2-.2-.51-.29-.93-.29-.34,0-.61,.07-.82,.2-.21,.13-.34,.31-.39,.53-.02,.08-.07,.12-.14,.11l-.97-.13c-.08-.02-.12-.05-.11-.1,.06-.47,.32-.86,.76-1.16,.44-.3,.99-.45,1.66-.45,.49,0,.91,.09,1.28,.26Zm-.49,4.73c.31-.22,.47-.51,.47-.85v-.71s-.02-.05-.05-.05h-1.13c-.47,0-.85,.09-1.13,.28-.28,.18-.42,.44-.42,.77,0,.29,.11,.52,.32,.67,.21,.15,.49,.23,.83,.23,.42,0,.79-.11,1.1-.34Z" fill="#002346"></path>
        <path d="M541.23,480.63h.91c.08,0,.12,.04,.12,.12v5.68c0,.97-.27,1.66-.82,2.08s-1.28,.62-2.2,.62c-.13,0-.33,0-.6-.03-.08,0-.12-.05-.12-.13l.04-.83s.01-.06,.04-.08c.02-.02,.06-.03,.1-.02,.11,0,.28,.01,.49,.01,.68,0,1.17-.13,1.48-.38,.3-.25,.46-.68,.46-1.28v-.22s0-.03-.02-.04c-.01,0-.03,0-.04,.01-.34,.39-.83,.59-1.48,.59-.52,0-.99-.14-1.41-.41-.42-.27-.71-.67-.87-1.2-.1-.35-.16-.84-.16-1.46,0-.66,.06-1.18,.18-1.54,.15-.48,.42-.87,.81-1.16,.39-.29,.85-.44,1.37-.44,.66,0,1.17,.2,1.55,.6,.02,.02,.03,.02,.04,.02,.01,0,.02-.01,.02-.03v-.37c0-.08,.04-.12,.12-.12Zm-.14,3.74c.01-.14,.02-.38,.02-.72s0-.57-.02-.71c-.01-.14-.03-.27-.07-.4-.06-.3-.21-.54-.43-.73-.22-.19-.5-.28-.84-.28s-.62,.09-.84,.28-.38,.43-.48,.73c-.09,.24-.13,.61-.13,1.12,0,.55,.04,.93,.12,1.13,.08,.3,.24,.54,.47,.73,.24,.19,.52,.28,.86,.28s.64-.09,.86-.28c.22-.19,.36-.43,.43-.73,.02-.13,.04-.26,.05-.41Z" fill="#002346"></path>
        <path d="M547.24,480.73c.05,.02,.08,.07,.06,.14l-.19,.9c0,.07-.05,.1-.14,.07-.14-.05-.3-.08-.48-.08h-.17c-.38,.03-.69,.16-.93,.4s-.37,.56-.37,.95v3.5c0,.08-.04,.12-.12,.12h-.91c-.08,0-.12-.04-.12-.12v-5.87c0-.08,.04-.12,.12-.12h.91c.08,0,.12,.04,.12,.12v.64s0,.04,.02,.04c.01,0,.02,0,.03-.02,.36-.56,.85-.84,1.48-.84,.26,0,.49,.05,.7,.16Z" fill="#002346"></path>
        <path d="M553.21,484.03c0,.08-.04,.12-.12,.12h-3.83s-.05,.02-.05,.05c0,.27,.02,.48,.07,.62,.09,.32,.27,.57,.53,.75,.27,.18,.61,.27,1.01,.27,.59,0,1.05-.24,1.37-.73,.04-.08,.09-.09,.16-.04l.68,.46c.06,.05,.07,.1,.04,.16-.22,.36-.54,.64-.95,.85-.41,.21-.88,.31-1.4,.31-.58,0-1.08-.13-1.48-.38-.4-.26-.7-.62-.9-1.09-.19-.47-.29-1.04-.29-1.72,0-.58,.04-1.03,.13-1.33,.14-.55,.43-.99,.86-1.31,.43-.32,.96-.48,1.57-.48,.81,0,1.41,.2,1.81,.61,.4,.4,.64,1,.73,1.78,.03,.33,.04,.7,.04,1.1Zm-3.43-2.24c-.22,.17-.38,.4-.46,.69-.06,.18-.09,.4-.11,.67,0,.03,.02,.05,.05,.05h2.75s.05-.02,.05-.05c-.02-.26-.04-.46-.07-.59-.08-.31-.24-.56-.47-.75-.24-.19-.53-.28-.88-.28s-.63,.09-.85,.26Z" fill="#002346"></path>
        <path d="M559.64,484.03c0,.08-.04,.12-.12,.12h-3.83s-.05,.02-.05,.05c0,.27,.02,.48,.07,.62,.09,.32,.27,.57,.53,.75,.27,.18,.61,.27,1.01,.27,.59,0,1.05-.24,1.37-.73,.04-.08,.09-.09,.16-.04l.68,.46c.06,.05,.07,.1,.04,.16-.22,.36-.54,.64-.95,.85-.41,.21-.88,.31-1.4,.31-.58,0-1.08-.13-1.48-.38-.4-.26-.7-.62-.9-1.09-.19-.47-.29-1.04-.29-1.72,0-.58,.04-1.03,.13-1.33,.14-.55,.43-.99,.86-1.31,.43-.32,.96-.48,1.57-.48,.81,0,1.41,.2,1.81,.61,.4,.4,.64,1,.73,1.78,.03,.33,.04,.7,.04,1.1Zm-3.43-2.24c-.22,.17-.38,.4-.46,.69-.06,.18-.09,.4-.11,.67,0,.03,.02,.05,.05,.05h2.75s.05-.02,.05-.05c-.02-.26-.04-.46-.07-.59-.08-.31-.24-.56-.47-.75-.24-.19-.53-.28-.88-.28s-.63,.09-.85,.26Z" fill="#002346"></path>
        <path d="M566.38,481.58h-1.3s-.05,.02-.05,.05v3.18c0,.34,.08,.58,.23,.73,.15,.15,.39,.22,.71,.22h.35c.08,0,.12,.04,.12,.12v.74c0,.08-.04,.12-.12,.12-.26,.02-.44,.02-.55,.02-.61,0-1.07-.11-1.37-.33-.31-.22-.46-.62-.46-1.22v-3.59s-.02-.05-.05-.05h-.73c-.08,0-.12-.04-.12-.12v-.71c0-.08,.04-.12,.12-.12h.73s.05-.02,.05-.05v-1.42c0-.08,.04-.12,.12-.12h.86c.08,0,.12,.04,.12,.12v1.42s.02,.05,.05,.05h1.3c.08,0,.12,.04,.12,.12v.71c0,.08-.04,.12-.12,.12Z" fill="#002346"></path>
        <path d="M568.72,486.39c-.44-.3-.75-.72-.92-1.25-.14-.43-.22-.92-.22-1.46s.07-1.05,.2-1.44c.18-.53,.48-.94,.92-1.24,.44-.3,.96-.45,1.57-.45,.58,0,1.08,.15,1.51,.45,.43,.3,.73,.71,.92,1.23,.14,.41,.22,.89,.22,1.44s-.07,1.05-.22,1.48c-.18,.54-.48,.95-.91,1.25-.43,.3-.94,.45-1.52,.45s-1.11-.15-1.55-.45Zm2.39-.82c.24-.18,.41-.43,.52-.76,.09-.3,.13-.68,.13-1.13s-.04-.82-.12-1.12c-.1-.33-.28-.58-.52-.76-.24-.18-.53-.27-.88-.27s-.61,.09-.85,.27c-.24,.18-.41,.43-.52,.76-.09,.28-.13,.65-.13,1.12s.04,.84,.13,1.13c.1,.33,.27,.58,.51,.76s.54,.27,.88,.27c.32,0,.6-.09,.84-.27Z" fill="#002346"></path>
        <path d="M579.73,481.58h-1.3s-.05,.02-.05,.05v3.18c0,.34,.08,.58,.23,.73,.15,.15,.39,.22,.71,.22h.35c.08,0,.12,.04,.12,.12v.74c0,.08-.04,.12-.12,.12-.26,.02-.44,.02-.55,.02-.61,0-1.07-.11-1.37-.33-.31-.22-.46-.62-.46-1.22v-3.59s-.02-.05-.05-.05h-.73c-.08,0-.12-.04-.12-.12v-.71c0-.08,.04-.12,.12-.12h.73s.05-.02,.05-.05v-1.42c0-.08,.04-.12,.12-.12h.86c.08,0,.12,.04,.12,.12v1.42s.02,.05,.05,.05h1.3c.08,0,.12,.04,.12,.12v.71c0,.08-.04,.12-.12,.12Z" fill="#002346"></path>
        <path d="M585.54,481.12c.38,.38,.58,.89,.58,1.54v3.96c0,.08-.04,.12-.12,.12h-.91c-.08,0-.12-.04-.12-.12v-3.73c0-.4-.12-.72-.35-.97-.23-.25-.54-.37-.92-.37s-.68,.12-.92,.37c-.24,.25-.36,.57-.36,.96v3.74c0,.08-.04,.12-.12,.12h-.91c-.08,0-.12-.04-.12-.12v-8.16c0-.08,.04-.12,.12-.12h.91c.08,0,.12,.04,.12,.12v2.72s0,.03,.02,.04c.01,0,.02,0,.03-.01,.34-.44,.85-.66,1.52-.66s1.18,.19,1.56,.57Z" fill="#002346"></path>
        <path d="M592.67,484.03c0,.08-.04,.12-.12,.12h-3.83s-.05,.02-.05,.05c0,.27,.02,.48,.07,.62,.09,.32,.27,.57,.53,.75,.27,.18,.61,.27,1.01,.27,.59,0,1.05-.24,1.37-.73,.04-.08,.09-.09,.16-.04l.68,.46c.06,.05,.07,.1,.04,.16-.22,.36-.54,.64-.95,.85-.41,.21-.88,.31-1.4,.31-.58,0-1.08-.13-1.48-.38-.4-.26-.7-.62-.9-1.09-.19-.47-.29-1.04-.29-1.72,0-.58,.04-1.03,.13-1.33,.14-.55,.43-.99,.86-1.31,.43-.32,.96-.48,1.57-.48,.81,0,1.41,.2,1.81,.61,.4,.4,.64,1,.73,1.78,.03,.33,.04,.7,.04,1.1Zm-3.43-2.24c-.22,.17-.38,.4-.46,.69-.06,.18-.09,.4-.11,.67,0,.03,.02,.05,.05,.05h2.75s.05-.02,.05-.05c-.02-.26-.04-.46-.07-.59-.08-.31-.24-.56-.47-.75-.24-.19-.53-.28-.88-.28s-.63,.09-.85,.26Z" fill="#002346"></path>
        <path d="M602.13,478.46v.77c0,.08-.04,.12-.12,.12h-2.3s-.05,.02-.05,.05v7.22c0,.08-.04,.12-.12,.12h-.91c-.08,0-.12-.04-.12-.12v-7.22s-.02-.05-.05-.05h-2.2c-.08,0-.12-.04-.12-.12v-.77c0-.08,.04-.12,.12-.12h5.75c.08,0,.12,.04,.12,.12Z" fill="#002346"></path>
        <path d="M607.49,484.03c0,.08-.04,.12-.12,.12h-3.83s-.05,.02-.05,.05c0,.27,.02,.48,.07,.62,.09,.32,.27,.57,.53,.75,.27,.18,.61,.27,1.01,.27,.59,0,1.05-.24,1.37-.73,.04-.08,.09-.09,.16-.04l.68,.46c.06,.05,.07,.1,.04,.16-.22,.36-.54,.64-.95,.85-.41,.21-.88,.31-1.4,.31-.58,0-1.08-.13-1.48-.38-.4-.26-.7-.62-.9-1.09-.19-.47-.29-1.04-.29-1.72,0-.58,.04-1.03,.13-1.33,.14-.55,.43-.99,.86-1.31,.43-.32,.96-.48,1.57-.48,.81,0,1.41,.2,1.81,.61,.4,.4,.64,1,.73,1.78,.03,.33,.04,.7,.04,1.1Zm-3.43-2.24c-.22,.17-.38,.4-.46,.69-.06,.18-.09,.4-.11,.67,0,.03,.02,.05,.05,.05h2.75s.05-.02,.05-.05c-.02-.26-.04-.46-.07-.59-.08-.31-.24-.56-.47-.75-.24-.19-.53-.28-.88-.28s-.63,.09-.85,.26Z" fill="#002346"></path>
        <path d="M612.32,480.73c.06,.02,.08,.07,.06,.14l-.19,.9c0,.07-.06,.1-.14,.07-.14-.05-.3-.08-.48-.08h-.17c-.38,.03-.69,.16-.93,.4-.24,.24-.37,.56-.37,.95v3.5c0,.08-.04,.12-.12,.12h-.91c-.08,0-.12-.04-.12-.12v-5.87c0-.08,.04-.12,.12-.12h.91c.08,0,.12,.04,.12,.12v.64s0,.04,.02,.04c.01,0,.02,0,.03-.02,.36-.56,.85-.84,1.48-.84,.26,0,.49,.05,.7,.16Z" fill="#002346"></path>
        <path d="M621.18,481.1c.35,.37,.53,.87,.53,1.52v4.01c0,.08-.04,.12-.12,.12h-.9c-.08,0-.12-.04-.12-.12v-3.77c0-.4-.11-.72-.33-.95-.22-.24-.51-.35-.88-.35s-.67,.12-.9,.35c-.23,.23-.35,.54-.35,.94v3.79c0,.08-.04,.12-.12,.12h-.9c-.08,0-.12-.04-.12-.12v-3.77c0-.4-.11-.72-.33-.95s-.51-.35-.88-.35-.66,.12-.88,.35c-.22,.23-.33,.54-.33,.94v3.79c0,.08-.04,.12-.12,.12h-.91c-.08,0-.12-.04-.12-.12v-5.87c0-.08,.04-.12,.12-.12h.91c.08,0,.12,.04,.12,.12v.41s0,.03,.02,.04c.01,0,.03,0,.04-.01,.35-.42,.86-.63,1.54-.63,.41,0,.76,.08,1.04,.23,.29,.16,.51,.39,.67,.69,.02,.03,.05,.03,.07,0,.19-.31,.45-.54,.76-.7,.32-.15,.67-.23,1.05-.23,.61,0,1.09,.18,1.44,.54Z" fill="#002346"></path>
        <path d="M624.19,486.6c-.36-.14-.65-.34-.85-.59s-.3-.53-.3-.83v-.13c0-.08,.04-.12,.12-.12h.86c.08,0,.12,.04,.12,.12v.06c0,.22,.12,.42,.37,.59s.55,.25,.93,.25,.65-.08,.88-.23c.22-.16,.34-.35,.34-.59s-.1-.41-.31-.52c-.21-.12-.54-.24-1.01-.37-.46-.13-.84-.26-1.15-.39-.31-.13-.57-.32-.78-.56-.21-.24-.32-.56-.32-.94,0-.54,.21-.96,.63-1.28,.42-.32,.98-.47,1.67-.47,.46,0,.87,.07,1.23,.22,.36,.15,.63,.35,.82,.62,.19,.26,.29,.56,.29,.89v.04c0,.08-.04,.12-.12,.12h-.84c-.08,0-.12-.04-.12-.12v-.04c0-.23-.11-.43-.34-.58-.23-.16-.54-.23-.93-.23-.35,0-.64,.07-.86,.2-.22,.14-.33,.32-.33,.55s.11,.41,.32,.53c.21,.12,.55,.25,1.03,.38,.46,.13,.85,.25,1.16,.38,.31,.12,.57,.31,.79,.55,.22,.24,.32,.56,.32,.95,0,.54-.21,.98-.64,1.3-.43,.32-1,.48-1.71,.48-.48,0-.9-.07-1.27-.22Z" fill="#002346"></path>
        <path d="M638.13,486.67s-.03,.07-.1,.07h-1.03c-.06,0-.1-.02-.14-.07l-.61-.7s-.04-.03-.07-.01c-.38,.3-.76,.53-1.16,.67-.4,.14-.82,.21-1.27,.21-.72,0-1.31-.17-1.77-.51s-.69-.84-.69-1.49c0-.55,.15-1.02,.46-1.4,.31-.38,.73-.75,1.27-1.1,.03-.02,.04-.04,.01-.06-.45-.54-.74-.96-.89-1.24s-.22-.58-.22-.88c0-.36,.09-.69,.27-.98,.18-.29,.44-.52,.77-.68s.71-.25,1.13-.25c.66,0,1.2,.18,1.62,.54s.64,.83,.64,1.42c0,.49-.15,.91-.44,1.28-.29,.36-.69,.72-1.21,1.06-.03,0-.04,.03-.01,.06,.3,.37,.8,.95,1.5,1.74l.05,.06s.02,.02,.04,.02c.02,0,.03,0,.04-.01,.35-.44,.61-.78,.78-1.02,.04-.06,.09-.08,.16-.04l.68,.38c.07,.04,.08,.1,.04,.17-.35,.54-.68,.97-1,1.3v.02s.01,.04,.04,.08c.28,.34,.64,.76,1.09,1.28,.02,.02,.04,.05,.04,.07Zm-2.64-1.48s.02-.05,0-.07l-.41-.49c-.24-.27-.38-.43-.43-.48l-.88-.98s-.03-.03-.06-.01c-.42,.27-.73,.54-.95,.79s-.32,.55-.32,.88,.12,.57,.35,.76,.55,.28,.95,.28c.57,0,1.15-.22,1.74-.66Zm-2.14-5.63c-.19,.17-.29,.4-.29,.69,0,.16,.05,.33,.16,.52,.11,.19,.34,.5,.69,.94,.02,.02,.05,.03,.07,.01,.39-.26,.69-.5,.89-.73s.31-.49,.31-.77-.1-.5-.3-.67-.46-.25-.77-.25-.58,.09-.77,.26Z" fill="#002346"></path>
        <path d="M646.77,478.64c.37,.2,.66,.49,.86,.86,.2,.37,.31,.79,.31,1.27s-.1,.9-.31,1.26-.5,.64-.88,.84-.82,.3-1.31,.3h-2.11s-.05,.02-.05,.05v3.41c0,.08-.04,.12-.12,.12h-.91c-.08,0-.12-.04-.12-.12v-8.17c0-.08,.04-.12,.12-.12h3.24c.49,0,.92,.1,1.29,.31Zm-.38,3.2c.27-.26,.4-.61,.4-1.04s-.13-.79-.4-1.06c-.27-.27-.62-.4-1.06-.4h-2s-.05,.02-.05,.05v2.81s.02,.05,.05,.05h2c.44,0,.79-.13,1.06-.4Z" fill="#002346"></path>
        <path d="M652.54,480.73c.06,.02,.08,.07,.06,.14l-.19,.9c0,.07-.06,.1-.14,.07-.14-.05-.3-.08-.48-.08h-.17c-.38,.03-.69,.16-.93,.4-.24,.24-.37,.56-.37,.95v3.5c0,.08-.04,.12-.12,.12h-.91c-.08,0-.12-.04-.12-.12v-5.87c0-.08,.04-.12,.12-.12h.91c.08,0,.12,.04,.12,.12v.64s0,.04,.02,.04c.01,0,.02,0,.03-.02,.36-.56,.85-.84,1.48-.84,.26,0,.49,.05,.7,.16Z" fill="#002346"></path>
        <path d="M653.76,479.46c-.14-.14-.22-.33-.22-.55s.07-.41,.22-.55,.33-.21,.55-.21,.41,.07,.55,.21,.22,.33,.22,.55-.07,.41-.22,.55c-.14,.14-.33,.22-.55,.22s-.41-.07-.55-.22Zm-.05,7.15v-5.86c0-.08,.04-.12,.12-.12h.91c.08,0,.12,.04,.12,.12v5.86c0,.08-.04,.12-.12,.12h-.91c-.08,0-.12-.04-.12-.12Z" fill="#002346"></path>
        <path d="M658.14,486.65l-1.96-5.88v-.05c-.01-.06,.02-.08,.1-.08h1.01c.07,0,.12,.03,.14,.1l1.32,4.34s.02,.02,.04,.02c.02,0,.03,0,.04-.02l1.31-4.34c.02-.06,.07-.1,.14-.1h1.01c.09,.01,.12,.06,.1,.14l-1.94,5.87c-.02,.06-.07,.1-.14,.1h-1.01c-.07,0-.12-.03-.14-.1Z" fill="#002346"></path>
        <path d="M665.88,480.8c.36,.17,.64,.41,.84,.72,.2,.31,.29,.66,.29,1.05v4.06c0,.08-.04,.12-.12,.12h-.91c-.08,0-.12-.04-.12-.12v-.43s-.02-.05-.06-.02c-.21,.22-.46,.38-.76,.5-.3,.12-.63,.17-1,.17-.59,0-1.08-.15-1.47-.45-.39-.3-.58-.75-.58-1.36s.22-1.11,.65-1.47c.44-.36,1.05-.54,1.83-.54h1.34s.05-.02,.05-.05v-.32c0-.35-.1-.63-.31-.82-.2-.2-.51-.29-.93-.29-.34,0-.61,.07-.82,.2-.21,.13-.34,.31-.39,.53-.02,.08-.07,.12-.14,.11l-.97-.13c-.08-.02-.12-.05-.11-.1,.06-.47,.32-.86,.76-1.16,.44-.3,.99-.45,1.66-.45,.49,0,.91,.09,1.28,.26Zm-.49,4.73c.31-.22,.47-.51,.47-.85v-.71s-.02-.05-.05-.05h-1.13c-.47,0-.85,.09-1.13,.28-.28,.18-.42,.44-.42,.77,0,.29,.11,.52,.32,.67,.21,.15,.49,.23,.83,.23,.42,0,.79-.11,1.1-.34Z" fill="#002346"></path>
        <path d="M669.46,486.38c-.43-.31-.73-.73-.89-1.25-.12-.37-.18-.85-.18-1.45,0-.55,.06-1.04,.18-1.45,.16-.51,.46-.92,.89-1.22,.44-.3,.95-.46,1.55-.46s1.12,.15,1.57,.46c.45,.3,.74,.69,.88,1.15,.05,.13,.08,.26,.1,.4,0,.06-.04,.1-.11,.12l-.9,.13h-.02c-.06,0-.1-.04-.12-.11l-.04-.19c-.06-.27-.22-.5-.47-.68s-.55-.28-.9-.28-.64,.09-.88,.28c-.24,.18-.4,.43-.47,.73-.07,.29-.11,.67-.11,1.14s.04,.84,.11,1.13c.08,.32,.24,.57,.47,.76,.24,.18,.53,.28,.87,.28s.65-.09,.91-.28,.41-.42,.47-.72c0,0,0-.02,0-.03s0-.02,0-.03v-.05c.02-.06,.07-.09,.13-.07l.9,.14c.06,.02,.1,.05,.1,.1v.05c0,.07-.02,.16-.06,.26-.14,.49-.43,.88-.88,1.18-.45,.3-.97,.44-1.57,.44s-1.13-.15-1.56-.46Z" fill="#002346"></path>
        <path d="M674.52,489.01v-.71c0-.08,.04-.12,.12-.12h.02c.32,0,.57-.05,.76-.12,.18-.07,.34-.21,.46-.4,.12-.2,.24-.49,.35-.88,0,0,0-.03,0-.07l-2-5.94v-.05c-.01-.06,.02-.08,.1-.08h.97c.07,0,.12,.03,.14,.1l1.36,4.52s.02,.02,.04,.02,.03,0,.04-.02l1.34-4.52c.02-.06,.07-.1,.14-.1h.95c.09,0,.12,.04,.1,.13l-2.18,6.4c-.18,.55-.37,.96-.55,1.23-.18,.27-.42,.46-.72,.57-.3,.11-.71,.17-1.25,.17h-.08c-.06,0-.08-.04-.08-.12Z" fill="#002346"></path>
        <path d="M687.62,478.64c.37,.2,.66,.49,.86,.86,.2,.37,.31,.79,.31,1.27s-.1,.9-.31,1.26-.5,.64-.88,.84-.82,.3-1.31,.3h-2.11s-.05,.02-.05,.05v3.41c0,.08-.04,.12-.12,.12h-.91c-.08,0-.12-.04-.12-.12v-8.17c0-.08,.04-.12,.12-.12h3.24c.49,0,.92,.1,1.29,.31Zm-.38,3.2c.27-.26,.4-.61,.4-1.04s-.13-.79-.4-1.06c-.27-.27-.62-.4-1.06-.4h-2s-.05,.02-.05,.05v2.81s.02,.05,.05,.05h2c.44,0,.79-.13,1.06-.4Z" fill="#002346"></path>
        <path d="M690.7,486.39c-.44-.3-.75-.72-.92-1.25-.14-.43-.22-.92-.22-1.46s.07-1.05,.2-1.44c.18-.53,.48-.94,.92-1.24,.44-.3,.96-.45,1.57-.45,.58,0,1.08,.15,1.51,.45,.43,.3,.73,.71,.92,1.23,.14,.41,.22,.89,.22,1.44s-.07,1.05-.22,1.48c-.18,.54-.48,.95-.91,1.25-.43,.3-.94,.45-1.52,.45s-1.11-.15-1.55-.45Zm2.39-.82c.24-.18,.41-.43,.52-.76,.09-.3,.13-.68,.13-1.13s-.04-.82-.12-1.12c-.1-.33-.28-.58-.52-.76-.24-.18-.53-.27-.88-.27s-.61,.09-.85,.27c-.24,.18-.41,.43-.52,.76-.09,.28-.13,.65-.13,1.12s.04,.84,.13,1.13c.1,.33,.27,.58,.51,.76s.54,.27,.88,.27c.32,0,.6-.09,.84-.27Z" fill="#002346"></path>
        <path d="M696.41,486.62v-8.16c0-.08,.04-.12,.12-.12h.91c.08,0,.12,.04,.12,.12v8.16c0,.08-.04,.12-.12,.12h-.91c-.08,0-.12-.04-.12-.12Z" fill="#002346"></path>
        <path d="M699.38,479.46c-.14-.14-.22-.33-.22-.55s.07-.41,.22-.55,.33-.21,.55-.21,.41,.07,.55,.21,.22,.33,.22,.55-.07,.41-.22,.55c-.14,.14-.33,.22-.55,.22s-.41-.07-.55-.22Zm-.05,7.15v-5.86c0-.08,.04-.12,.12-.12h.91c.08,0,.12,.04,.12,.12v5.86c0,.08-.04,.12-.12,.12h-.91c-.08,0-.12-.04-.12-.12Z" fill="#002346"></path>
        <path d="M703.18,486.38c-.43-.31-.73-.73-.89-1.25-.12-.37-.18-.85-.18-1.45,0-.55,.06-1.04,.18-1.45,.16-.51,.46-.92,.89-1.22,.44-.3,.95-.46,1.55-.46s1.12,.15,1.57,.46c.45,.3,.74,.69,.88,1.15,.05,.13,.08,.26,.1,.4,0,.06-.04,.1-.11,.12l-.9,.13h-.02c-.06,0-.1-.04-.12-.11l-.04-.19c-.06-.27-.22-.5-.47-.68s-.55-.28-.9-.28-.64,.09-.88,.28c-.24,.18-.4,.43-.47,.73-.07,.29-.11,.67-.11,1.14s.04,.84,.11,1.13c.08,.32,.24,.57,.47,.76,.24,.18,.53,.28,.87,.28s.65-.09,.91-.28,.41-.42,.47-.72c0,0,0-.02,0-.03s0-.02,0-.03v-.05c.02-.06,.07-.09,.13-.07l.9,.14c.06,.02,.1,.05,.1,.1v.05c0,.07-.02,.16-.06,.26-.14,.49-.43,.88-.88,1.18-.45,.3-.97,.44-1.57,.44s-1.13-.15-1.56-.46Z" fill="#002346"></path>
        <path d="M708.24,489.01v-.71c0-.08,.04-.12,.12-.12h.02c.32,0,.57-.05,.76-.12,.18-.07,.34-.21,.46-.4,.12-.2,.24-.49,.35-.88,0,0,0-.03,0-.07l-2-5.94v-.05c-.01-.06,.02-.08,.1-.08h.97c.07,0,.12,.03,.14,.1l1.36,4.52s.02,.02,.04,.02,.03,0,.04-.02l1.34-4.52c.02-.06,.07-.1,.14-.1h.95c.09,0,.12,.04,.1,.13l-2.18,6.4c-.18,.55-.37,.96-.55,1.23-.18,.27-.42,.46-.72,.57-.3,.11-.71,.17-1.25,.17h-.08c-.06,0-.08-.04-.08-.12Z" fill="#002346"></path>
      </g>
      <rect x="500.34" y="421.37" width="211" height="36" fill="none" stroke="#002346" stroke-linecap="round" stroke-linejoin="round" stroke-width="1.23"></rect>
      <rect x="500.95" y="515.37" width="211" height="36" fill="#f69074" stroke="#002346" stroke-miterlimit="10" stroke-width=".91"></rect>
      <rect x="500.34" y="474.87" width="16" height="16" fill="none" stroke="#002346" stroke-linecap="round" stroke-linejoin="round" stroke-width="1.23"></rect>
      <polyline points="504.34 483.87 508.34 486.87 513.34 478.87" fill="none" stroke="#002346" stroke-linecap="round" stroke-linejoin="round" stroke-width="1.23"></polyline>
      <g>
        <path d="M580.98,527.81s.08-.05,.13-.05h1.38s.09,.02,.13,.05c.03,.04,.05,.08,.05,.13v10.14s-.02,.09-.05,.13c-.04,.04-.08,.05-.13,.05h-1.33c-.1,0-.17-.04-.21-.12l-4.32-7.08s-.04-.04-.06-.04c-.02,0-.03,.03-.03,.07l.03,6.99s-.02,.09-.05,.13-.08,.05-.13,.05h-1.38s-.09-.02-.13-.05-.05-.08-.05-.13v-10.14s.02-.09,.05-.13,.08-.05,.13-.05h1.33c.1,0,.17,.04,.21,.12l4.31,7.08s.04,.04,.06,.04c.02,0,.03-.03,.03-.07v-6.99s0-.09,.04-.13Z" fill="#002346"></path>
        <path d="M591.22,534.41v.46c-.01,.12-.08,.18-.2,.18h-4.69c-.05,0-.08,.02-.08,.08,.03,.33,.08,.55,.13,.67,.24,.72,.83,1.08,1.75,1.09,.68,0,1.22-.28,1.62-.84,.04-.06,.09-.09,.15-.09,.04,0,.08,.02,.1,.04l.93,.77c.09,.07,.1,.15,.04,.24-.31,.44-.72,.78-1.24,1.02-.52,.24-1.09,.36-1.72,.36-.78,0-1.44-.17-1.99-.53-.55-.35-.94-.84-1.19-1.47-.23-.54-.35-1.29-.35-2.25,0-.58,.06-1.05,.18-1.41,.2-.7,.58-1.25,1.13-1.66,.56-.4,1.22-.61,2-.61,1.97,0,3.08,1.03,3.33,3.09,.04,.25,.06,.53,.06,.84Zm-4.31-2.15c-.25,.19-.42,.44-.52,.77-.06,.17-.1,.39-.12,.66-.02,.05,0,.08,.06,.08h3.04s.08-.03,.08-.08c-.02-.25-.05-.44-.09-.57-.09-.36-.27-.64-.53-.84-.26-.2-.6-.3-1-.3-.37,0-.68,.09-.92,.28Z" fill="#002346"></path>
        <path d="M591.96,538.19s-.02-.1,.02-.16l2.43-3.57s.02-.06,0-.09l-2.43-3.55s-.03-.08-.03-.11c0-.08,.05-.12,.15-.12h1.47c.09,0,.16,.04,.21,.12l1.56,2.31s.04,.03,.06,.03,.03,0,.04-.03l1.56-2.31c.05-.08,.12-.12,.21-.12h1.57c.07,0,.12,.02,.14,.07s.02,.1-.02,.16l-2.43,3.55s0,.06,0,.09l2.43,3.57s.03,.07,.03,.1c0,.08-.05,.12-.15,.12h-1.47c-.09,0-.16-.04-.21-.12l-1.56-2.31s-.03-.03-.04-.03c-.02,0-.04,.01-.06,.03l-1.56,2.31c-.05,.08-.12,.12-.21,.12h-1.58c-.07,0-.12-.02-.14-.07Z" fill="#002346"></path>
        <path d="M604.26,531.95s-.08,.05-.13,.05h-1.53c-.05,0-.08,.02-.08,.08v3.62c0,.38,.08,.65,.25,.82,.17,.17,.43,.26,.79,.26h.45s.09,.02,.13,.05c.04,.04,.05,.08,.05,.13v1.12c0,.11-.06,.17-.18,.2h-.78c-.79,.01-1.38-.12-1.77-.39-.39-.27-.59-.78-.6-1.53v-4.28c0-.05-.03-.08-.08-.08h-.85c-.05,0-.09-.02-.13-.05-.04-.03-.05-.08-.05-.13v-1.05c0-.05,.02-.09,.05-.13s.08-.05,.13-.05h.85s.08-.02,.08-.08v-1.75s.02-.09,.05-.13c.04-.03,.08-.05,.13-.05h1.31s.09,.02,.13,.05c.04,.04,.05,.08,.05,.13v1.75c0,.05,.02,.08,.08,.08h1.53s.09,.02,.13,.05,.05,.08,.05,.13v1.05c0,.05-.02,.09-.05,.13Z" fill="#002346"></path>
        <path d="M610.38,538.01c-.58-.25-1.03-.6-1.34-1.05-.32-.45-.47-.98-.47-1.59v-.38c0-.05,.02-.09,.05-.13s.08-.05,.13-.05h1.33c.05,0,.09,.02,.13,.05s.05,.08,.05,.13v.29c0,.46,.21,.84,.62,1.15,.41,.31,.97,.46,1.68,.46,.61,0,1.07-.13,1.38-.39,.31-.26,.46-.6,.46-1.01,0-.28-.08-.52-.25-.71-.17-.2-.41-.37-.73-.53-.31-.16-.79-.36-1.42-.6-.71-.26-1.29-.5-1.73-.74-.44-.23-.81-.54-1.1-.94-.29-.39-.44-.89-.44-1.48,0-.88,.32-1.58,.96-2.09s1.5-.76,2.57-.76c.75,0,1.41,.13,1.99,.39,.58,.26,1.02,.62,1.34,1.09,.32,.46,.48,1,.48,1.61v.25c0,.05-.02,.09-.05,.13s-.08,.05-.13,.05h-1.35s-.09-.02-.13-.05-.05-.08-.05-.13v-.16c0-.47-.19-.87-.58-1.19-.39-.32-.92-.49-1.6-.49-.55,0-.98,.12-1.28,.34-.31,.23-.46,.55-.46,.98,0,.3,.08,.54,.24,.74,.16,.19,.4,.36,.72,.52,.32,.15,.82,.35,1.49,.59,.71,.27,1.28,.52,1.7,.73,.42,.22,.79,.53,1.09,.92,.31,.39,.46,.89,.46,1.48,0,.9-.33,1.62-1,2.15s-1.57,.79-2.72,.79c-.78,0-1.46-.12-2.04-.38Z" fill="#002346"></path>
        <path d="M621.74,531.95s-.08,.05-.13,.05h-1.53c-.05,0-.08,.02-.08,.08v3.62c0,.38,.08,.65,.25,.82,.17,.17,.43,.26,.79,.26h.45s.09,.02,.13,.05c.04,.04,.05,.08,.05,.13v1.12c0,.11-.06,.17-.18,.2h-.78c-.79,.01-1.38-.12-1.77-.39-.39-.27-.59-.78-.6-1.53v-4.28c0-.05-.03-.08-.08-.08h-.85c-.05,0-.09-.02-.13-.05-.04-.03-.05-.08-.05-.13v-1.05c0-.05,.02-.09,.05-.13s.08-.05,.13-.05h.85s.08-.02,.08-.08v-1.75s.02-.09,.05-.13c.04-.03,.08-.05,.13-.05h1.31s.09,.02,.13,.05c.04,.04,.05,.08,.05,.13v1.75c0,.05,.02,.08,.08,.08h1.53s.09,.02,.13,.05,.05,.08,.05,.13v1.05c0,.05-.02,.09-.05,.13Z" fill="#002346"></path>
        <path d="M629.71,534.41v.46c-.01,.12-.08,.18-.2,.18h-4.69c-.05,0-.08,.02-.08,.08,.03,.33,.08,.55,.13,.67,.24,.72,.83,1.08,1.75,1.09,.68,0,1.22-.28,1.62-.84,.04-.06,.09-.09,.15-.09,.04,0,.07,.02,.1,.04l.93,.77c.09,.07,.11,.15,.05,.24-.31,.44-.72,.78-1.24,1.02-.51,.24-1.09,.36-1.72,.36-.78,0-1.44-.17-1.99-.53-.54-.35-.94-.84-1.19-1.47-.23-.54-.34-1.29-.34-2.25,0-.58,.06-1.05,.18-1.41,.2-.7,.58-1.25,1.13-1.66,.55-.4,1.22-.61,2-.61,1.97,0,3.08,1.03,3.33,3.09,.04,.25,.06,.53,.06,.84Zm-4.31-2.15c-.25,.19-.42,.44-.52,.77-.06,.17-.1,.39-.12,.66-.02,.05,0,.08,.06,.08h3.04s.07-.03,.07-.08c-.02-.25-.05-.44-.09-.57-.09-.36-.27-.64-.53-.84-.26-.2-.6-.3-1-.3-.37,0-.68,.09-.92,.28Z" fill="#002346"></path>
        <path d="M638.07,534.45c0,.71-.08,1.32-.25,1.83-.22,.66-.57,1.18-1.06,1.54-.49,.37-1.1,.56-1.84,.56s-1.28-.25-1.71-.76c-.02-.02-.04-.03-.06-.02-.02,0-.03,.03-.03,.06v3.25c0,.05-.02,.09-.05,.13-.04,.03-.08,.05-.13,.05h-1.38s-.09-.02-.13-.05c-.04-.04-.05-.08-.05-.13v-10.14c0-.05,.02-.09,.05-.13s.08-.05,.13-.05h1.38s.09,.02,.13,.05,.05,.08,.05,.13v.45s0,.05,.03,.06c.02,0,.04,0,.06-.03,.44-.52,1.01-.78,1.72-.78s1.31,.19,1.8,.55c.49,.37,.84,.88,1.06,1.54,.18,.51,.27,1.14,.27,1.88Zm-1.77-.03c0-.73-.12-1.3-.36-1.72-.28-.49-.71-.74-1.28-.74-.52,0-.91,.24-1.17,.72-.23,.39-.34,.97-.34,1.74s.12,1.39,.38,1.8c.26,.44,.63,.66,1.12,.66,.53,0,.93-.21,1.2-.63,.3-.46,.45-1.07,.45-1.83Z" fill="#002346"></path>
      </g>
    </g>
    <g>
      <path d="M344.45,618.87s-4,12,6.93,13.6c0,0,1.6,.4,6.33,.07,4.67-.33,9.33,.65,13.46,2.85,6.35,3.39,16.91,7.38,27.36,4,0,0,10.66-3.46,5.8-11.94l-39.64-3.77-20.24-4.81Z" fill="#fff" stroke="#002346" stroke-miterlimit="10"></path>
      <path d="M343.95,622.37c3.47,2.2,9.53,4.14,13.64,4.33,3.39,.23,6.7,1.18,9.7,2.77,8.58,4.44,21.04,9.64,32.06,6.7,.7-.19,1.39-.45,1.99-.85,2.56-1.66,3.84-4.82,3.03-7.87-.56-1.91-2.08-3.39-4-3.9-1.07-.33-2.18-.49-3.29-.48-1.25,.01-2.49-.21-3.66-.66-2.22-.86-5.47-1.05-6.8-5.4,0,0-.54-4.26-5.87-4h-16.85l-18.32-2.13-1.63,11.48Z" fill="#f69074" stroke="#002346" stroke-miterlimit="10"></path>
      <path d="M346.45,599.87l-1.5,14.5s12.29,4.25,31.74,6.38c0,0-1.87-6.93,4-7.73-1.2-1.2-2.11-2.66-2.66-4.26l-14.12-9.06-17.46,.17Z" fill="#f2b3c1" stroke="#002346" stroke-miterlimit="10"></path>
      <path d="M386.8,602.9s-2.13,6.4,3.47,8.26c4.63,1.14,9.5,.91,14-.67,3.3-1.2,6.95-.99,10.08,.6l.14,.07s45.82,14.12,39.9-7.1l-67.59-1.16Z" fill="#fff" stroke="#002346" stroke-miterlimit="10"></path>
      <path d="M386.8,602.9l1.33-9.59s14.12,8,36.5,5.59c0,0-2.93-5.06-.8-9.32,0,0,2.67-3.73,8.53,4.26,3.35,3.56,8.19,5.34,13.05,4.8,0,0,7.21-.56,9,5.42,.73,2.45-.64,5.03-3.07,5.82-4.41,1.44-13,3.14-24.84,.48-17.85-4-28.51-4-28.51-4,0,0-7.46-.53-11.19-3.46Z" fill="#f69074" stroke="#002346" stroke-miterlimit="10"></path>
      <path d="M388.13,587.72v5.6c11.39,5.29,24.05,7.23,36.5,5.59,0,0-2.66-5.32-.8-9.32l-4.26-4.27-22.11-4.8-9.33,7.2Z" fill="#f2b3c1" stroke="#002346" stroke-miterlimit="10"></path>
      <path d="M433.29,465.7l4.66-95.11-20-9.59-12.5,1.32-10.66,55.41,.54,39.17-9.53,130.28s30.64-3.97,42.14-3.81l5.35-117.67Z" fill="#fbe493" stroke="#002346" stroke-miterlimit="10"></path>
      <path d="M396.82,459.27s6.12-51.9,12.39-87.38l-19.18,.53s-38.13-3.96-43.72,5.09l-1.88,190.49-.53,35.7s20.04,3.67,36,4.8l16.92-149.23Z" fill="#fbe493" stroke="#002346" stroke-miterlimit="10"></path>
      <path d="M442.87,214.79s12.81,4,15.43,38.36l.48,37-5.48,31.17s-7.4-1-9.78-15.26l-.65-91.27Z" fill="#f69074" stroke="#002346" stroke-miterlimit="10"></path>
      <polygon points="391.33 372.19 421.44 372.45 428.9 213.14 415.14 206.04 378.19 212.59 377.21 252.03 391.33 372.19" fill="#e6e7e8" stroke="#002346" stroke-miterlimit="10"></polygon>
      <path d="M394.5,379.32s-28.06,.55-56.06,.55c0,0,6-58,7-89l-9.61-66.25c-.21-1.47,.49-2.93,1.79-3.66,6.62-3.77,26.58-15.29,31.47-19.86l47.59,4.84s2.95-.74,26.2,8.85l1.11,160.16s-7.55,.92-25.1,4.06c0,0-2.95-111.64-3.8-138.5l3.8-13.91-1.85-16.28-2.22-3.69-17.71,2.59-17,5.16s4.4,11.23,15.3,27.94l-.91,137Z" fill="#f69074" stroke="#002346" stroke-miterlimit="10"></path>
      <path d="M379.54,177.17s1.73,11.16-.36,16.86c-.82,2.1-1.13,4.36-.92,6.6,.64,4.37,1.87,8.64,3.65,12.69,2.71,6.78,7.69,12.4,14.09,15.91,1.43,.81,2.97,1.41,4.57,1.78,.89,.17,1.8,.02,2.59-.42,3.08-1.74,11.2-7.71,8.57-21.43-.53-2.85-1.92-5.47-4-7.49,0,0-1.79-.89-1.43-5l-2-10-24.76-9.5Z" fill="#f2b3c1" stroke="#002346" stroke-miterlimit="10"></path>
      <path d="M380.2,187.17s-12.6,6.47-11.11,13.93c0,0,3.23,16.9,2,25.35,0,0-1,5.47,7.46,2,0,0,7-5,7.7,.75,0,0,1.63,9.29,8.93,12.83,.22,.11,.45-.15,.32-.36-1.56-2.49-6.8-11.25-9.29-19.92-.24-.87-.6-1.71-1.05-2.49-2.28-3.84-9.41-16.91-6-25.21,.96-2.15,1.32-4.53,1.04-6.87Z" fill="#fbe493" stroke="#002346" stroke-miterlimit="10"></path>
      <path d="M406.31,196.84c-.08,.67-.05,1.34,.07,2,.09,.48,.23,.95,.42,1.4,.02,.11,.05,.21,.1,.31,.23,.42,.5,.81,.82,1.16,0,0,9.28,7.34,7.36,38.83,0,0,12.88-7,5.19-17.88l4.83,.89s-3.42-19.23-18.79-26.71Z" fill="#fbe493" stroke="#002346" stroke-miterlimit="10"></path>
      <path d="M446.86,298.46s-2.26,11.2,1.52,19.43c2.99,6.49,11.77,7.94,16.66,2.72,2-2.13,4.12-5.24,6.14-9.76,0,0,3-6.87,1.09-13.55-.31-1.09-.01-2.27,.78-3.08,1.61-1.68,4.09-4.59,4.57-7,0,0,5.48-.24,3.81-6,0,0,3.82-1.91,1.43-8.11,0,0,9.54-6,1.43-10l-4.53,6.68-32.19,24.8-.71,3.87Z" fill="#f2b3c1" stroke="#002346" stroke-miterlimit="10"></path>
      <path d="M482.86,273.11s-1.92,1.26-4.92,1.26" fill="none" stroke="#002346" stroke-linecap="round" stroke-linejoin="round"></path>
      <path d="M481.43,281.22s-1.49,1.15-4.49,.65" fill="none" stroke="#002346" stroke-linecap="round" stroke-linejoin="round"></path>
      <path d="M493.95,249.37l-20.83,31.68-20.75-2.39,6.66-9.77,14.92-20.52,15.55,.67,4.45,.33Z" fill="#fbe493" stroke="#002346" stroke-miterlimit="10"></path>
      <path d="M385.11,303.32s41.39-9.52,54.9-21.13c.81-.72,1.22-1.79,1.07-2.87-.36-2.64-.4-7.87,4.11-10.82,0,0,4.91-4.43,7.89-3.62,.79,.24,1.24,1.08,1,1.87-.06,.24-.19,.45-.36,.63-1.21,1.25-3.3,3.4-5,5-.12,.12-.12,.32,0,.44,0,0,0,0,0,0,.09,.1,.23,.13,.35,.08,6.3-2.44,29.77-11.16,27.09-3.92l2.26-.38c1.28-.22,2.51,.63,2.74,1.91,.08,.43,.03,.87-.13,1.28-.74,1.4-1.89,2.53-3.3,3.25-.27,.14-.37,.47-.23,.74,.06,.12,.17,.21,.29,.26,1.7,.7,4.06,2.55-1.87,6.56,0,0,3.81,4.29-5.49,7.63,0,0-10.17,9.51-23.48,8.3-1-.1-1.99,.24-2.72,.92-5.08,4.71-28.09,20.86-59.79,25.42,.03-.12-1.15-15.74,.67-21.55Z" fill="#f2b3c1" stroke="#002346" stroke-miterlimit="10"></path>
      <path d="M351.35,228.45c-3.24-3.51-7.62-5.75-12.36-6.32-3.06-.31-6.06,1.01-7.91,3.47-2.77,3.74-5.5,11.44-3.6,27.15,1.57,12.58,5.39,24.78,11.29,36,2.91,5.57,6.91,12.91,12.21,22.38,0,0,5.91,9.22,11.07,17.34,0,0,3.33,6.64,10.71,4.43l13.65-4.06s-.47-13.47-1.11-27.31l-7-.37s-5.91-50.2-26.95-72.71Z" fill="#f69074" stroke="#002346" stroke-miterlimit="10"></path>
      <line x1="456.23" y1="278.87" x2="475.95" y2="269.37" fill="none" stroke="#002346" stroke-linecap="round" stroke-linejoin="round"></line>
      <line x1="458.95" y1="284.37" x2="476.95" y2="275.37" fill="none" stroke="#002346" stroke-linecap="round" stroke-linejoin="round"></line>
      <line x1="466.89" y1="286.53" x2="475.95" y2="282.48" fill="none" stroke="#002346" stroke-linecap="round" stroke-linejoin="round"></line>
      <rect x="378.45" y="135.87" width="41" height="63" rx="20.5" ry="20.5" fill="#f2b3c1" stroke="#002346" stroke-miterlimit="10"></rect>
      <path d="M422.73,153.5c-1.04,1.55-2.59,2.66-4.39,3.15-1.08,.33-2.19,.54-3.31,.64-9.77,.92-24.11-4.69-24.11-4.69-7-2-3.61,6.09-3.61,6.09,4.05,15.14-2.57,13.76-3.31,13.56h-.07c1.35-8.35-4.39-8.65-4.39-8.65l-.6,13.77v6c-8.58-6.54-11.25-15.86-11.25-15.86-9.48-24.59,9.47-27.75,9.47-27.75h0c14.2-20.72,35.63-4,35.63-4,17.16,9.62,9.94,17.74,9.94,17.74Z" fill="#002346" stroke="#002346" stroke-miterlimit="10"></path>
      <ellipse cx="379.54" cy="170.37" rx="4.69" ry="6.79" fill="#f2b3c1" stroke="#002346" stroke-miterlimit="10"></ellipse>
    </g>
  </g>
  <g>
    <rect x="207.16" y="571.59" width="15.44" height="27.83" fill="#e5e6e7" stroke="#002346" stroke-miterlimit="10"></rect>
    <rect x="138.94" y="571.59" width="15.44" height="27.83" fill="#e5e6e7" stroke="#002346" stroke-miterlimit="10"></rect>
    <path d="M256.52,404.74h-123.21c-2.57,0-4.66,2.08-4.66,4.66v157.55c0,2.57,2.08,4.66,4.66,4.66h123.21s0-166.86,0-166.86Z" fill="#e5e6e7" stroke="#002346" stroke-miterlimit="10"></path>
    <rect x="155.4" y="404.74" width="124.55" height="166.86" rx="4.66" ry="4.66" fill="#fff" stroke="#002346" stroke-miterlimit="10"></rect>
    <rect x="253.51" y="571.59" width="15.44" height="27.83" fill="#fff" stroke="#002346" stroke-miterlimit="10"></rect>
    <rect x="164.74" y="571.59" width="15.44" height="27.83" fill="#fff" stroke="#002346" stroke-miterlimit="10"></rect>
    <g>
      <path d="M266.57,454.89h-97.8c-2.76,0-5-2.24-5-5v-32.17c0-2.76,2.24-5,5-5h97.8c2.76,0,5,2.24,5,5v32.17c0,2.76-2.24,5-5,5Z" fill="#e5e6e7" stroke="#002346" stroke-miterlimit="10"></path>
      <path d="M222.67,433.8c0,2.76-2.24,5-5,5-2.76,0-5-2.24-5-5,0-2.76,2.24-5,5-5,2.76,0,5,2.24,5,5Z" fill="#fff" stroke="#002346" stroke-miterlimit="10"></path>
    </g>
    <g>
      <path d="M266.57,508.39h-97.8c-2.76,0-5-2.24-5-5v-32.17c0-2.76,2.24-5,5-5h97.8c2.76,0,5,2.24,5,5v32.17c0,2.76-2.24,5-5,5Z" fill="#e5e6e7" stroke="#002346" stroke-miterlimit="10"></path>
      <path d="M222.67,487.3c0,2.76-2.24,5-5,5-2.76,0-5-2.24-5-5s2.24-5,5-5c2.76,0,5,2.24,5,5Z" fill="#fff" stroke="#002346" stroke-miterlimit="10"></path>
    </g>
    <g>
      <path d="M266.57,561.89h-97.8c-2.76,0-5-2.24-5-5v-32.17c0-2.76,2.24-5,5-5h97.8c2.76,0,5,2.24,5,5v32.17c0,2.76-2.24,5-5,5Z" fill="#e5e6e7" stroke="#002346" stroke-miterlimit="10"></path>
      <path d="M222.67,540.8c0,2.76-2.24,5-5,5-2.76,0-5-2.24-5-5,0-2.76,2.24-5,5-5,2.76,0,5,2.24,5,5Z" fill="#fff" stroke="#002346" stroke-miterlimit="10"></path>
    </g>
    <g>
      <path d="M204.4,357.62s-1.13-25.81,1.71-38.57c.48-2.15,1.49-4.15,2.96-5.79,5.78-6.5,23.71-26.31,38.95-39.09,0,0-14.27-2.97-27.75,5.15v8.72s-2.98-6.94-2.98-6.94c0,0-16.65,9.91-15.06,37.07l.79,26.16,1.39,13.29Z" fill="#7cd194" stroke="#002346" stroke-miterlimit="10"></path>
      <path d="M232.64,379.13c0,12.52-8.97,23.24-21.29,25.46h0c-14.08,2.51-27.52-6.87-30.03-20.94-.27-1.49-.4-3-.4-4.52,0-6.33,2.31-12.43,6.51-17.16l28.02-.19,10.45-.08c4.35,4.76,6.76,10.98,6.75,17.43Z" fill="#f69074" stroke="#002346" stroke-miterlimit="10"></path>
      <path d="M201.32,361.88v-2.34c.04-3.09-1.19-6.06-3.39-8.22l-39.18-38.51s18.85-2.38,27.82,5.13l.19,10.25,3.11-8.05s16.84,7.14,15.37,41.73l-3.91,.03Z" fill="#7cd194" stroke="#002346" stroke-miterlimit="10"></path>
      <path d="M210.54,361.81l2.14-17.53c.15-1.25,.7-2.42,1.55-3.34,5.61-6.01,27.81-29.53,40.7-40.2,0,0-14.87-1.39-28.14,5.35l-.4,9.32-2.98-7.14s-14.47,8.13-14.87,36.45v17.08h1.98Z" fill="#7cd194" stroke="#002346" stroke-miterlimit="10"></path>
    </g>
  </g>
  <g>
    <rect x="147.66" y="14.52" width="145.71" height="201.1" transform="translate(105.45 335.59) rotate(-90)" fill="none" stroke="#002346" stroke-linecap="round" stroke-linejoin="round"></rect>
    <rect x="154.48" y="23.04" width="132.08" height="183.21" transform="translate(105.87 335.16) rotate(-90)" fill="none" stroke="#002346" stroke-linecap="round" stroke-linejoin="round"></rect>
    <path d="M132.51,49.01c-.13,1.69-.19,2.55-.19,4.28,0,34.59,25.56,62.63,57.09,62.63,31.53,0,57.09-28.04,57.09-62.63,0-1.58-.05-3.15-.16-4.7" fill="none" stroke="#002346" stroke-linecap="round" stroke-linejoin="round"></path>
    <path d="M311.61,153.26s-48.49-25.84-78.31,27.85" fill="none" stroke="#002346" stroke-linecap="round" stroke-linejoin="round"></path>
    <path d="M311.59,70.14s-13.49,51.7-87.16,64.07c-4,.67-8.04,1.04-12.1,1.22-16.81,.72-72.79,4.94-83.73,29.5" fill="none" stroke="#002346" stroke-linecap="round" stroke-linejoin="round"></path>
    <ellipse cx="187.28" cy="83.97" rx="9.8" ry="19.17" fill="none" stroke="#002346" stroke-linecap="round" stroke-linejoin="round"></ellipse>
    <ellipse cx="190.27" cy="83.97" rx="4.26" ry="7.24" fill="none" stroke="#002346" stroke-linecap="round" stroke-linejoin="round"></ellipse>
    <ellipse cx="275.91" cy="78" rx="9.8" ry="19.17" fill="none" stroke="#002346" stroke-linecap="round" stroke-linejoin="round"></ellipse>
    <ellipse cx="278.89" cy="78" rx="4.26" ry="7.24" fill="none" stroke="#002346" stroke-linecap="round" stroke-linejoin="round"></ellipse>
    <ellipse cx="200.07" cy="159.81" rx="19.17" ry="9.8" fill="none" stroke="#002346" stroke-linecap="round" stroke-linejoin="round"></ellipse>
    <ellipse cx="200.07" cy="162.79" rx="7.24" ry="4.26" fill="none" stroke="#002346" stroke-linecap="round" stroke-linejoin="round"></ellipse>
  </g>
</svg>
