<?xml version="1.0" encoding="UTF-8" standalone="no"?>
<svg
   viewBox="0 0 160000 47961"
   version="1.1"
   id="svg3"
   width="160000"
   height="47961"
   xmlns="http://www.w3.org/2000/svg"
   xmlns:svg="http://www.w3.org/2000/svg">
  <defs
     id="defs3" />
  <g
     fill-rule="evenodd"
     id="g3">
    <path
       fill="#0c3b88"
       d="m 203,42 v 1 l -1,2 -1,2 v 3 l -1,2 -1,2 -1,2 v 2 l -1,3 -1,2 -1,2 v 3 l -1,2 -1,2 1,1 2,1 2,1 c 1,1 1,1 2,-2 l 1,-4 1,-2 v -3 l 1,-3 1,-2 2,5 v 2 l 1,3 1,3 1,3 1,2 v 3 l 2,3 v 1 h 26 v 2 l -3,2 -1,1 -1,1 h -1 l -1,1 -3,2 -2,1 -3,2 v 1 l -1,1 -2,1 -3,2 h -1 l -1,1 1,3 v 1 l 1,2 1,1 1,2 v 2 l 1,1 1,2 v 1 l 1,2 1,1 1,2 v 1 l 1,2 1,1 v 1 l -2,-1 h -1 l -1,-1 h -1 l -3,-3 -2,-1 -2,-2 h -1 l -2,-1 -1,-1 -1,-1 -1,-1 h -1 l -3,-1 v 3 l 1,4 1,1 2,1 1,1 1,1 h 1 l 1,1 1,1 h 1 l 1,1 1,1 2,1 3,2 1,1 1,1 h 1 l 1,1 2,1 1,1 2,1 1,1 h 1 l 3,3 h 2 l 1,1 1,1 v -5 l -1,-1 -1,-2 -1,-2 v -2 l -1,-2 -1,-1 -1,-2 v -2 l -1,-2 -1,-1 -1,-2 v -2 l -1,-2 -1,-1 v -2 l -1,-3 -1,-1 -1,-4 3,-2 1,-1 2,-1 4,-3 1,-1 a 66,66 0 0 1 9,-8 l 1,-1 5,-4 h 19 v 2 l -2,1 a 66,66 0 0 1 -6,4 l -5,4 -1,1 h -1 l -1,1 -1,1 -1,1 h -1 l -4,3 v 3 l 1,2 1,1 1,2 v 1 l 1,2 1,2 1,1 v 1 l 1,2 1,1 v 2 l 1,2 1,1 c 1,2 1,3 -1,2 l -1,-1 -1,-1 -2,-1 -1,-1 -3,-2 -4,-2 -1,-1 -1,-1 -1,-1 h -1 l -1,-1 -1,-1 -1,-1 -1,4 c -1,3 0,4 1,4 l 1,1 3,2 2,1 1,1 h 1 l 1,1 1,1 1,1 1,1 2,1 h 1 l 1,1 2,1 1,1 1,1 1,1 h 1 l 2,1 1,1 a 869,869 0 0 0 9,3 l -1,-1 v -2 l -1,-2 -1,-1 v -2 l -1,-2 -1,-2 -1,-2 v -1 l -1,-2 -1,-2 -1,-2 -1,-2 v -2 l -1,-1 -1,-2 -1,-2 v -2 l -1,-1 v -3 l 1,-1 a 63,63 0 0 1 6,-4 93,93 0 0 1 9,-8 49,49 0 0 1 6,-5 l 2,-2 12,-1 h 9 v 2 l -1,1 -2,1 a 47,47 0 0 0 -5,4 l -2,1 -2,1 -1,1 -1,1 a 27,27 0 0 0 -5,3 v 1 l -2,1 -1,1 c -2,1 -2,1 -1,2 l 1,2 1,1 v 2 l 1,2 1,1 1,2 v 1 l 1,2 1,1 1,2 v 1 l 1,2 1,2 1,1 c 1,1 0,2 -2,1 l -1,-1 -1,-1 -1,-1 -3,-2 -1,-1 h -1 l -1,-1 -2,-1 -3,-2 -1,-1 h -1 l -1,-1 -2,-1 -1,4 1,4 h 1 l 1,1 1,1 4,2 1,1 1,1 3,2 2,1 3,2 4,2 v 1 h 1 l 3,2 2,1 1,1 1,1 h 1 l 2,1 1,1 c 2,2 2,0 1,-2 l -1,-2 v -2 l -1,-2 -1,-2 -1,-1 -1,-2 v -2 l -1,-2 -1,-1 v -2 l -1,-2 -1,-2 -1,-1 v -2 l -1,-2 -1,-2 v -1 l -1,-2 v -4 l 1,-1 a 43,43 0 0 1 7,-5 l 3,-3 a 305,305 0 0 0 22,-19 h -22 a 696,696 0 0 1 -21,-2 l -1,-2 v -2 l -1,-2 -1,-2 -1,-2 v -2 l -1,-2 -1,-2 -1,-3 v -1 l -1,-2 -1,-3 v -2 l -1,-2 -1,-2 -1,-1 c -1,-2 -1,-2 -1,1 l -1,2 -1,2 -1,3 v 2 l -1,2 -1,2 -1,2 v 3 l -1,2 -1,2 v 2 l -1,3 -1,2 -1,2 c 0,2 0,2 -4,2 -4,0 -4,0 -5,-3 v -2 l -1,-2 -1,-2 v -2 l -1,-2 -1,-2 -1,-3 v -1 l -1,-2 -1,-3 -1,-2 v -2 l -1,-2 -1,-2 -1,-2 c -1,-1 -1,0 -2,2 l -1,2 v 2 l -1,3 -1,2 -1,2 v 2 l -1,2 -1,3 -1,2 v 2 l -1,2 -1,2 -1,3 v 2 l -4,1 c -3,0 -3,0 -4,-2 v -1 l -1,-2 -1,-2 -1,-3 v -2 l -1,-1 -1,-2 -1,-3 v -2 l -1,-2 -1,-2 -1,-2 v -2 l -1,-2 -1,-2 v -2 c -1,-2 -1,-2 -2,-1 m 34,20 1,2 v 2 l 1,3 1,3 1,3 c 1,2 1,2 -5,2 -5,0 -5,0 -5,-2 l 1,-3 1,-3 v -3 l 1,-2 1,-3 c 1,-2 2,-2 2,1 m 31,-2 2,3 v 3 l 1,2 1,3 1,3 v 3 c -2,0 -11,0 -10,-1 l 1,-3 v -3 l 1,-2 1,-3 1,-3 c 0,-3 0,-3 1,-2 m 36,84 v 1 l 1,-1 h -1"
       id="path2" />
    <path
       fill="#c31228"
       d="m 162,68 -6,1 -4,1 h -3 l -2,1 -2,1 h -1 l -3,1 -1,1 -2,1 -1,1 h -2 l -1,1 -1,1 h -2 l -2,1 -1,1 h -1 l -2,1 -2,1 -2,1 -2,1 -4,1 h -3 A 43,43 0 0 1 94,85 32,32 0 0 1 78,73 c 0,-1 -1,-1 -1,1 l -1,1 v 5 a 37,37 0 0 0 16,11 h 2 l 6,1 h 5 a 156,156 0 0 1 10,-1 l 3,-1 h 2 l 3,-1 2,-1 h 1 l 2,-1 2,-1 2,-1 h 1 l 2,-1 1,-1 2,-1 h 1 l 2,-1 1,-1 1,-1 h 2 l 2,-1 2,-1 3,-1 h 2 l 4,-1 a 59,59 0 0 1 37,6 c 2,2 3,0 4,-3 v -2 l -3,-2 -2,-1 -2,-1 h -2 l -2,-1 -3,-1 -3,-1 h -3 l -6,-1 h -11 m -7,23 h -1 l -3,1 -5,1 h -2 l -3,1 -2,1 h -2 l -2,1 -1,1 -2,1 h -1 l -2,1 -1,1 -1,1 h -2 l -1,1 -2,1 -2,1 -1,1 h -2 l -2,1 -3,1 h -2 l -7,2 a 43,43 0 0 1 -18,-3 l -2,-1 -1,-1 h -1 a 29,29 0 0 1 -9,-9 l -1,2 -1,3 c -1,2 -1,2 1,4 a 42,42 0 0 0 8,6 l 2,1 2,1 1,1 3,1 h 3 l 2,1 a 49,49 0 0 0 27,-4 h 1 l 2,-1 2,-1 1,-1 h 2 l 2,-1 1,-1 2,-1 h 1 l 1,-1 2,-1 1,-1 h 2 l 2,-1 2,-1 3,-1 h 2 l 3,-1 5,-1 a 46,46 0 0 1 15,1 h 4 l 3,1 2,1 3,1 2,1 h 1 l 2,1 4,2 1,-5 c 0,-2 0,-2 -2,-2 l -1,-1 -2,-1 -2,-1 h -1 l -2,-1 -3,-1 h -3 l -5,-1 -3,-1 h -14 m -1,22 -5,1 h -3 l -4,1 h -3 l -3,1 -1,1 -2,1 h -2 l -2,1 -2,1 -1,1 -2,1 h -1 l -2,1 -1,1 -5,2 -1,1 h -2 l -2,1 -2,1 -3,1 h -3 l -4,1 a 34,34 0 0 1 -13,-1 h -3 l -2,-1 -2,-1 -1,-1 h -1 l -1,-1 -7,-7 c -1,-2 -2,-1 -3,2 l -1,2 v 1 a 37,37 0 0 0 10,9 l 1,1 h 2 l 1,1 2,1 3,1 h 3 a 36,36 0 0 0 18,-1 h 3 l 2,-1 3,-1 2,-1 h 2 l 1,-1 3,-1 1,-1 h 1 l 2,-1 2,-1 h 1 l 1,-1 2,-1 1,-1 h 1 l 3,-1 1,-1 2,-1 h 2 l 4,-1 c 3,-1 10,-2 15,-1 a 38,38 0 0 1 13,2 h 2 l 2,1 3,1 2,1 h 1 l 1,1 2,1 c 1,1 2,1 2,-2 v -1 c 1,-2 0,-4 -1,-4 l -2,-1 -2,-1 h -2 l -2,-1 -2,-1 -3,-1 h -2 l -4,-1 -4,-1 h -9 m 36,46 c -2,0 -4,2 -6,4 -2,2 -1,8 1,10 v 1 l 1,1 2,1 h 7 l 1,-2 c 0,-2 -1,-3 -2,-2 h -4 c -5,-2 -3,-10 4,-9 l 2,-1 c 0,-3 -1,-4 -6,-3 m -80,0 -1,9 v 8 c 3,1 4,1 4,-3 v -2 l 2,2 1,1 1,1 v 1 h 5 l -1,-1 -1,-2 -1,-1 v -3 c 2,-1 3,-5 2,-7 l -1,-1 c -1,-2 -8,-3 -10,-2 m 41,0 -1,9 c 0,9 0,8 2,8 3,1 2,1 2,-8 0,-10 0,-10 -3,-9 m 120,0 v 17 l 2,1 c 2,0 2,-1 2,-3 0,-3 1,-4 2,-2 l 1,1 v 1 c 1,2 2,3 4,3 3,0 3,-1 2,-2 -4,-5 -4,-5 -3,-6 2,-1 3,-4 2,-6 -1,-3 -3,-4 -8,-4 h -4 m 43,0 v 17 l 5,1 c 4,0 4,-1 4,-2 0,-2 0,-2 -2,-2 l -3,-1 c 0,-2 1,-3 3,-2 2,0 2,-1 2,-2 0,-2 0,-2 -2,-2 -2,0 -3,-1 -3,-2 l 3,-1 c 3,0 4,-1 3,-3 l -5,-1 h -5 m -243,0 c -5,1 -5,1 -5,3 l 2,1 c 2,0 2,0 2,7 0,7 -1,7 2,7 2,-1 2,0 2,-7 0,-7 0,-7 2,-7 l 2,-2 -2,-2 h -5 m 162,0 c -1,1 -2,1 -2,3 l -1,1 v 1 l -1,3 -1,1 -1,2 v 3 l -1,1 c -1,2 -1,3 1,3 2,0 3,-1 3,-2 l 4,-1 4,1 c 1,2 1,2 4,2 v -4 l -1,-2 -1,-2 -1,-2 v -2 l -1,-2 -1,-2 -4,-2 m 44,3 c 3,1 2,5 0,5 -1,0 -2,0 -2,-2 0,-2 1,-3 2,-3 m -161,1 h 1 v 2 c 0,2 -4,3 -4,1 -1,-3 1,-4 3,-3 m 119,4 v 3 l -3,-1 1,-1 c 0,-2 1,-3 2,-1"
       id="path3" />
  </g>
</svg>
