<?xml version="1.0" encoding="UTF-8"?>
<!DOCTYPE svg PUBLIC "-//W3C//DTD SVG 1.1//EN" "http://www.w3.org/Graphics/SVG/1.1/DTD/svg11.dtd">
<svg xmlns="http://www.w3.org/2000/svg" version="1.1" width="1024px" height="1024px" style="shape-rendering:geometricPrecision; text-rendering:geometricPrecision; image-rendering:optimizeQuality; fill-rule:evenodd; clip-rule:evenodd" xmlns:xlink="http://www.w3.org/1999/xlink">
<g><path style="opacity:0.993" fill="#eddbce" d="M 511.5,134.5 C 613.067,135.722 699.233,172.388 770,244.5C 854.571,336.248 886.238,443.915 865,567.5C 836.984,680.506 770.484,762.006 665.5,812C 553.726,861.261 444.726,855.594 338.5,795C 291.354,766.526 251.854,729.693 220,684.5C 155.602,582.714 144.935,475.381 188,362.5C 242.731,235.858 338.231,161.025 474.5,138C 486.963,136.553 499.296,135.386 511.5,134.5 Z"/></g>
<g><path style="opacity:0.749" fill="#7f787a" d="M 513.5,155.5 C 508.833,155.5 504.167,155.5 499.5,155.5C 499.831,182.672 499.498,209.672 498.5,236.5C 498.5,209.167 498.5,181.833 498.5,154.5C 503.695,154.179 508.695,154.513 513.5,155.5 Z"/></g>
<g><path style="opacity:0.749" fill="#5b575c" d="M 534.5,254.5 C 534.5,221.5 534.5,188.5 534.5,155.5C 529.5,155.5 524.5,155.5 519.5,155.5C 519.5,160.167 519.5,164.833 519.5,169.5C 518.513,164.695 518.179,159.695 518.5,154.5C 524.167,154.5 529.833,154.5 535.5,154.5C 535.832,188.004 535.498,221.338 534.5,254.5 Z"/></g>
<g><path style="opacity:0.999" fill="#05081b" d="M 513.5,155.5 C 515.016,162.748 514.682,169.915 512.5,177C 514.335,180.918 516.835,181.418 520,178.5C 519.848,175.553 519.681,172.553 519.5,169.5C 519.5,164.833 519.5,160.167 519.5,155.5C 524.5,155.5 529.5,155.5 534.5,155.5C 534.5,188.5 534.5,221.5 534.5,254.5C 534.667,271.503 534.5,288.503 534,305.5C 532.448,315.27 528.282,323.603 521.5,330.5C 520.579,305.182 520.245,279.849 520.5,254.5C 521.295,249.291 519.295,247.291 514.5,248.5C 513.667,276.494 513.167,304.494 513,332.5C 511.094,338.655 507.928,343.988 503.5,348.5C 501.071,348.585 499.071,349.585 497.5,351.5C 496.5,351.167 495.833,350.5 495.5,349.5C 496.248,347.668 497.248,346.001 498.5,344.5C 497.372,343.738 496.205,343.071 495,342.5C 494.501,337.845 494.334,333.179 494.5,328.5C 495.663,322.513 496.829,316.513 498,310.5C 498.5,285.836 498.667,261.169 498.5,236.5C 499.498,209.672 499.831,182.672 499.5,155.5C 504.167,155.5 508.833,155.5 513.5,155.5 Z"/></g>
<g><path style="opacity:0.993" fill="#0d0d1c" d="M 474.5,157.5 C 477.167,157.5 479.833,157.5 482.5,157.5C 481.771,162.293 479.937,166.626 477,170.5C 461.971,190.441 442.471,204.107 418.5,211.5C 416.185,211.201 416.185,210.368 418.5,209C 427.372,203.395 435.706,197.061 443.5,190C 454.493,179.514 464.826,168.681 474.5,157.5 Z"/></g>
<g><path style="opacity:1" fill="#71574d" d="M 550.5,158.5 C 574.928,166.09 592.761,181.423 604,204.5C 604.978,207.669 604.478,210.503 602.5,213C 601.668,213.688 601.002,213.521 600.5,212.5C 590.305,190.805 574.305,174.971 552.5,165C 550.984,163.103 550.317,160.936 550.5,158.5 Z"/></g>
<g><path style="opacity:0.999" fill="#0d0e1e" d="M 303.5,277.5 C 299.22,279.61 295.053,281.943 291,284.5C 290.692,283.692 290.192,283.025 289.5,282.5C 288.482,283.193 287.482,283.859 286.5,284.5C 286.984,280.53 288.317,276.864 290.5,273.5C 305.514,252.318 324.18,235.151 346.5,222C 362.323,214.255 377.99,206.255 393.5,198C 407.309,189.202 419.642,178.535 430.5,166C 437.051,163.969 443.718,162.969 450.5,163C 433.886,183.62 414.219,200.62 391.5,214C 372.366,222.73 354.033,232.73 336.5,244C 323.932,253.734 312.932,264.9 303.5,277.5 Z"/></g>
<g><path style="opacity:1" fill="#0f101f" d="M 636.5,227.5 C 636.5,244.833 636.5,262.167 636.5,279.5C 635.167,279.5 633.833,279.5 632.5,279.5C 632.5,278.167 632.5,276.833 632.5,275.5C 631.5,275.5 630.5,275.5 629.5,275.5C 629.806,272.615 629.473,269.948 628.5,267.5C 634.471,226.231 621.805,192.064 590.5,165C 595.896,164.212 600.896,165.212 605.5,168C 623.352,183.87 633.686,203.703 636.5,227.5 Z"/></g>
<g><path style="opacity:0.998" fill="#0c0d1c" d="M 307.5,243.5 C 304.833,243.5 302.167,243.5 299.5,243.5C 299.007,241.194 298.674,238.861 298.5,236.5C 319.712,215.816 344.045,199.649 371.5,188C 383.61,182.612 395.943,177.779 408.5,173.5C 409.408,174.79 409.241,176.123 408,177.5C 400.698,185.141 392.531,191.641 383.5,197C 369.435,202.866 355.768,209.533 342.5,217C 330.389,225.282 318.723,234.115 307.5,243.5 Z"/></g>
<g><path style="opacity:1" fill="#1c171c" d="M 637.5,178.5 C 639.144,178.286 640.644,178.62 642,179.5C 642.495,181.473 642.662,183.473 642.5,185.5C 635.552,186.574 633.885,184.241 637.5,178.5 Z"/></g>
<g><path style="opacity:1" fill="#14141d" d="M 588.5,227.5 C 588.5,229.833 588.5,232.167 588.5,234.5C 585.167,234.5 581.833,234.5 578.5,234.5C 576.24,217.238 567.573,204.238 552.5,195.5C 551.34,191.541 551.173,187.541 552,183.5C 571.944,191.724 584.11,206.39 588.5,227.5 Z"/></g>
<g><path style="opacity:1" fill="#251c1b" d="M 478.5,187.5 C 479.708,188.234 481.041,188.567 482.5,188.5C 482.5,190.167 482.5,191.833 482.5,193.5C 481.167,193.5 479.833,193.5 478.5,193.5C 478.5,191.5 478.5,189.5 478.5,187.5 Z"/></g>
<g><path style="opacity:1" fill="#131121" d="M 648.5,189.5 C 655.88,189.043 658.713,192.376 657,199.5C 653.333,203.5 649.667,203.5 646,199.5C 644.861,195.579 645.695,192.246 648.5,189.5 Z"/></g>
<g><path style="opacity:1" fill="#ddd9ca" d="M 514.5,198.5 C 519.214,198.201 520.88,200.201 519.5,204.5C 513.74,206.213 512.074,204.213 514.5,198.5 Z"/></g>
<g><path style="opacity:1" fill="#0e0e1c" d="M 669.5,204.5 C 679.897,203.733 684.73,208.399 684,218.5C 681.27,225.053 676.437,227.22 669.5,225C 664.725,221.345 663.225,216.512 665,210.5C 666.332,208.34 667.832,206.34 669.5,204.5 Z"/></g>
<g><path style="opacity:1" fill="#090a19" d="M 458.5,206.5 C 476.545,205.703 482.378,213.703 476,230.5C 465.774,238.331 457.107,236.998 450,226.5C 447.959,217.723 450.793,211.056 458.5,206.5 Z"/></g>
<g><path style="opacity:1" fill="#292421" d="M 552.5,212.5 C 553.708,213.234 555.041,213.567 556.5,213.5C 556.5,215.167 556.5,216.833 556.5,218.5C 555.167,218.5 553.833,218.5 552.5,218.5C 552.5,216.5 552.5,214.5 552.5,212.5 Z"/></g>
<g><path style="opacity:0.999" fill="#0f0f20" d="M 700.5,212.5 C 733.136,228.785 744.969,254.785 736,290.5C 732.803,296.703 728.47,302.036 723,306.5C 726.106,298.498 728.44,290.165 730,281.5C 732.937,255.045 723.27,234.712 701,220.5C 700.503,217.854 700.336,215.187 700.5,212.5 Z"/></g>
<g><path style="opacity:1" fill="#332d35" d="M 651.5,223.5 C 655.677,222.842 657.177,224.508 656,228.5C 654.333,231.167 652.667,231.167 651,228.5C 650.36,226.735 650.527,225.068 651.5,223.5 Z"/></g>
<g><path style="opacity:0.999" fill="#0f1021" d="M 387.5,274.5 C 387.741,272.102 387.074,270.102 385.5,268.5C 384.025,266.59 382.025,265.424 379.5,265C 392.952,253.716 405.618,241.55 417.5,228.5C 434.359,220.755 437.192,223.755 426,237.5C 413.601,250.401 400.768,262.734 387.5,274.5 Z"/></g>
<g><path style="opacity:1" fill="#ddd7c9" d="M 513.5,224.5 C 519.113,223.079 521.28,225.079 520,230.5C 514.322,232.662 512.156,230.662 513.5,224.5 Z"/></g>
<g><path style="opacity:1" fill="#0e101e" d="M 397.5,230.5 C 400.187,230.336 402.854,230.503 405.5,231C 400.095,237.076 394.095,242.409 387.5,247C 370.927,255.534 354.761,264.701 339,274.5C 336.067,272.236 333.9,269.402 332.5,266C 351.305,248.931 372.972,237.097 397.5,230.5 Z"/></g>
<g><path style="opacity:1" fill="#654c41" d="M 605.5,232.5 C 615.053,232.04 617.72,236.04 613.5,244.5C 602.061,246.663 599.395,242.663 605.5,232.5 Z"/></g>
<g><path style="opacity:1" fill="#0d0e1d" d="M 554.5,234.5 C 565.67,232.992 568.337,236.992 562.5,246.5C 552.465,247.77 549.798,243.77 554.5,234.5 Z"/></g>
<g><path style="opacity:1" fill="#8a807e" d="M 588.5,227.5 C 589.473,229.948 589.806,232.615 589.5,235.5C 585.629,235.815 581.962,235.482 578.5,234.5C 581.833,234.5 585.167,234.5 588.5,234.5C 588.5,232.167 588.5,229.833 588.5,227.5 Z"/></g>
<g><path style="opacity:0.995" fill="#181623" d="M 298.5,236.5 C 298.674,238.861 299.007,241.194 299.5,243.5C 302.167,243.5 304.833,243.5 307.5,243.5C 296.672,254.317 287.005,265.983 278.5,278.5C 276.738,278.357 275.071,278.691 273.5,279.5C 273.9,281.826 273.4,284.159 272,286.5C 270.416,287.861 268.582,288.528 266.5,288.5C 267.174,282.442 268.174,276.442 269.5,270.5C 276.827,257.186 286.493,245.853 298.5,236.5 Z"/></g>
<g><path style="opacity:1" fill="#050816" d="M 714.5,264.5 C 714.702,266.989 714.202,269.323 713,271.5C 697.61,285.224 680.777,287.057 662.5,277C 660,274.5 657.5,272 655,269.5C 654.503,267.19 654.337,264.857 654.5,262.5C 665.888,240.433 682.554,235.6 704.5,248C 709.718,252.379 713.052,257.879 714.5,264.5 Z"/></g>
<g><path style="opacity:0.999" fill="#0e0b1e" d="M 369.5,326.5 C 367.5,326.5 365.5,326.5 363.5,326.5C 361.726,329.118 360.726,332.118 360.5,335.5C 358.833,335.5 357.167,335.5 355.5,335.5C 355.785,337.288 355.452,338.955 354.5,340.5C 353.522,340.023 352.689,339.357 352,338.5C 351.952,335.122 352.452,331.789 353.5,328.5C 382.047,300.119 410.714,271.952 439.5,244C 443.48,242.952 446.48,244.285 448.5,248C 422.272,274.395 395.938,300.562 369.5,326.5 Z"/></g>
<g><path style="opacity:1" fill="#100e1c" d="M 366.5,363.5 C 365.022,363.238 363.689,363.571 362.5,364.5C 361.396,366.389 360.063,368.055 358.5,369.5C 357.265,368.66 356.265,367.66 355.5,366.5C 355.185,364.774 355.019,363.107 355,361.5C 391.555,324.612 428.388,288.112 465.5,252C 469.936,249.891 474.603,248.724 479.5,248.5C 479.66,250.199 479.494,251.866 479,253.5C 441.632,290.369 404.132,327.036 366.5,363.5 Z"/></g>
<g><path style="opacity:1" fill="#060918" d="M 579.5,260.5 C 604.139,259.287 612.639,270.287 605,293.5C 601.313,299.635 595.813,302.801 588.5,303C 573.779,302.616 565.779,294.95 564.5,280C 565.301,270.217 570.301,263.717 579.5,260.5 Z"/></g>
<g><path style="opacity:0.994" fill="#29252d" d="M 636.5,227.5 C 638.033,245.643 638.866,263.976 639,282.5C 640.329,287.482 641.496,292.482 642.5,297.5C 642.833,302.281 640.833,303.614 636.5,301.5C 631.342,290.863 628.676,279.53 628.5,267.5C 629.473,269.948 629.806,272.615 629.5,275.5C 630.5,275.5 631.5,275.5 632.5,275.5C 632.5,276.833 632.5,278.167 632.5,279.5C 633.833,279.5 635.167,279.5 636.5,279.5C 636.5,262.167 636.5,244.833 636.5,227.5 Z"/></g>
<g><path style="opacity:0.998" fill="#6d544a" d="M 758.5,265.5 C 761.685,292.951 752.019,314.451 729.5,330C 712.731,338.504 695.064,340.837 676.5,337C 668.93,334.566 662.264,330.733 656.5,325.5C 658.311,326.822 660.311,327.322 662.5,327C 664.83,325.512 665.164,323.679 663.5,321.5C 686.667,335.373 709.334,334.54 731.5,319C 743.704,307.425 750.704,293.258 752.5,276.5C 753.482,273.038 753.815,269.371 753.5,265.5C 755.167,265.5 756.833,265.5 758.5,265.5 Z"/></g>
<g><path style="opacity:0.996" fill="#1c1826" d="M 350.5,297.5 C 346.456,297.267 343.623,298.934 342,302.5C 341.242,298.643 341.742,294.977 343.5,291.5C 353.099,280.706 364.432,272.539 377.5,267C 376.283,268.648 375.45,270.481 375,272.5C 366.604,280.728 358.437,289.062 350.5,297.5 Z"/></g>
<g><path style="opacity:1" fill="#7b6153" d="M 654.5,262.5 C 654.337,264.857 654.503,267.19 655,269.5C 657.5,272 660,274.5 662.5,277C 680.777,287.057 697.61,285.224 713,271.5C 714.202,269.323 714.702,266.989 714.5,264.5C 720.035,283.937 714.035,298.771 696.5,309C 680.609,313.813 667.776,309.647 658,296.5C 653.709,285.352 652.543,274.019 654.5,262.5 Z"/></g>
<g><path style="opacity:0.776" fill="#a99387" d="M 758.5,265.5 C 756.833,265.5 755.167,265.5 753.5,265.5C 753.815,269.371 753.482,273.038 752.5,276.5C 752.5,272.5 752.5,268.5 752.5,264.5C 754.735,264.205 756.735,264.539 758.5,265.5 Z"/></g>
<g><path style="opacity:0.998" fill="#2d232b" d="M 385.5,268.5 C 387.074,270.102 387.741,272.102 387.5,274.5C 372.79,291.715 357.123,308.215 340.5,324C 332.894,329.429 324.894,334.263 316.5,338.5C 319.829,319.777 328.829,304.11 343.5,291.5C 341.742,294.977 341.242,298.643 342,302.5C 343.623,298.934 346.456,297.267 350.5,297.5C 343.036,306.472 334.536,314.138 325,320.5C 324.135,325.67 326.301,327.503 331.5,326C 333.038,324.068 334.205,321.901 335,319.5C 341.199,313.636 347.032,307.469 352.5,301C 355.543,300.202 358.376,299.035 361,297.5C 361.333,295.5 361.667,293.5 362,291.5C 367.167,286.333 372.333,281.167 377.5,276C 383.14,276.386 385.806,273.886 385.5,268.5 Z"/></g>
<g><path style="opacity:0.993" fill="#2c242b" d="M 269.5,270.5 C 268.174,276.442 267.174,282.442 266.5,288.5C 268.582,288.528 270.416,287.861 272,286.5C 273.4,284.159 273.9,281.826 273.5,279.5C 275.071,278.691 276.738,278.357 278.5,278.5C 270.936,292.195 264.936,306.528 260.5,321.5C 259.504,321.586 258.671,321.252 258,320.5C 257.667,318.833 257.333,317.167 257,315.5C 256.424,318.124 255.09,318.791 253,317.5C 252.501,313.848 252.335,310.182 252.5,306.5C 256.052,293.401 261.718,281.401 269.5,270.5 Z"/></g>
<g><path style="opacity:0.992" fill="#766355" d="M 290.5,273.5 C 288.317,276.864 286.984,280.53 286.5,284.5C 286.167,284.5 285.833,284.5 285.5,284.5C 282.422,279.888 283.089,275.888 287.5,272.5C 288.417,273.127 289.417,273.461 290.5,273.5 Z"/></g>
<g><path style="opacity:1" fill="#1d1a23" d="M 399.5,368.5 C 394.773,367.727 392.273,369.727 392,374.5C 387.632,376.072 386.632,374.405 389,369.5C 389.654,370.696 390.154,370.696 390.5,369.5C 390.277,368.033 389.944,366.533 389.5,365C 391.037,363.89 391.703,362.39 391.5,360.5C 420.19,330.643 449.69,301.643 480,273.5C 481.63,281.155 480.296,288.155 476,294.5C 451.239,320.097 425.739,344.764 399.5,368.5 Z"/></g>
<g><path style="opacity:0.999" fill="#272129" d="M 302.5,327.5 C 300.009,329.168 297.842,328.834 296,326.5C 295.064,322.886 294.564,319.22 294.5,315.5C 299.797,300.701 308.131,287.868 319.5,277C 323.851,275.071 327.351,276.238 330,280.5C 330.667,281.5 330.667,282.5 330,283.5C 318.543,296.75 309.376,311.417 302.5,327.5 Z"/></g>
<g><path style="opacity:0.996" fill="#251f29" d="M 303.5,277.5 C 296.279,288.277 290.946,299.943 287.5,312.5C 285.029,314.385 282.362,316.052 279.5,317.5C 281.161,320.77 281.494,324.103 280.5,327.5C 278.616,326.885 277.616,325.552 277.5,323.5C 276.691,318.107 276.357,312.774 276.5,307.5C 278.126,299.288 281.126,291.621 285.5,284.5C 285.833,284.5 286.167,284.5 286.5,284.5C 287.482,283.859 288.482,283.193 289.5,282.5C 290.192,283.025 290.692,283.692 291,284.5C 295.053,281.943 299.22,279.61 303.5,277.5 Z"/></g>
<g><path style="opacity:1" fill="#0e1020" d="M 552.5,291.5 C 555.526,299.702 560.36,306.702 567,312.5C 567.475,327.075 563.142,340.075 554,351.5C 548.289,357.713 542.123,363.38 535.5,368.5C 534.417,368.461 533.417,368.127 532.5,367.5C 531.719,368.729 531.219,370.062 531,371.5C 530.439,372.022 529.772,372.355 529,372.5C 526.102,371.437 523.602,369.77 521.5,367.5C 520.28,368.711 519.113,368.711 518,367.5C 517.349,365.765 517.515,364.098 518.5,362.5C 520.39,361.576 521.89,360.243 523,358.5C 525.091,355.26 526.924,351.926 528.5,348.5C 540.851,336.462 547.851,321.795 549.5,304.5C 550.139,300.093 551.139,295.759 552.5,291.5 Z"/></g>
<g><path style="opacity:0.83" fill="#8a7d7b" d="M 552.5,291.5 C 551.139,295.759 550.139,300.093 549.5,304.5C 549.309,299.101 549.809,293.767 551,288.5C 551.513,289.527 552.013,290.527 552.5,291.5 Z"/></g>
<g><path style="opacity:1" fill="#2b2322" d="M 617.5,298.5 C 619.167,298.5 620.833,298.5 622.5,298.5C 622.817,302.172 621.151,303.838 617.5,303.5C 617.5,301.833 617.5,300.167 617.5,298.5 Z"/></g>
<g><path style="opacity:0.995" fill="#433535" d="M 642.5,297.5 C 648.009,306.684 655.009,314.684 663.5,321.5C 665.164,323.679 664.83,325.512 662.5,327C 660.311,327.322 658.311,326.822 656.5,325.5C 647.501,319.539 640.835,311.539 636.5,301.5C 640.833,303.614 642.833,302.281 642.5,297.5 Z"/></g>
<g><path style="opacity:1" fill="#211f27" d="M 773.5,298.5 C 775.484,298.383 777.15,299.05 778.5,300.5C 779.5,299.833 780.5,299.167 781.5,298.5C 781.534,301.487 781.868,304.487 782.5,307.5C 779.487,306.868 776.487,306.534 773.5,306.5C 776.284,304.048 775.951,302.048 772.5,300.5C 772.863,299.817 773.196,299.15 773.5,298.5 Z"/></g>
<g><path style="opacity:1" fill="#6e534a" d="M 242.5,299.5 C 243.147,300.274 243.48,301.274 243.5,302.5C 243.064,305.179 242.564,307.845 242,310.5C 241.216,341.497 240.549,372.497 240,403.5C 237.349,406.076 234.182,407.409 230.5,407.5C 229.367,379.523 229.2,351.523 230,323.5C 233.412,315.006 237.579,307.006 242.5,299.5 Z"/></g>
<g><path style="opacity:0.998" fill="#3b3031" d="M 252.5,306.5 C 252.335,310.182 252.501,313.848 253,317.5C 255.09,318.791 256.424,318.124 257,315.5C 257.333,317.167 257.667,318.833 258,320.5C 258.671,321.252 259.504,321.586 260.5,321.5C 259.363,331.464 258.696,341.464 258.5,351.5C 257.833,357.679 257.167,364.012 256.5,370.5C 254.711,371.877 252.711,372.877 250.5,373.5C 249.686,375.766 249.186,378.1 249,380.5C 248.5,361.503 248.333,342.503 248.5,323.5C 248.758,317.472 250.092,311.806 252.5,306.5 Z"/></g>
<g><path style="opacity:0.995" fill="#413537" d="M 276.5,307.5 C 276.357,312.774 276.691,318.107 277.5,323.5C 277.616,325.552 278.616,326.885 280.5,327.5C 281.494,324.103 281.161,320.77 279.5,317.5C 282.362,316.052 285.029,314.385 287.5,312.5C 285.37,319.691 283.87,327.024 283,334.5C 282.62,347.864 281.787,361.198 280.5,374.5C 278.085,375.305 275.751,376.305 273.5,377.5C 271.753,358.532 271.253,339.532 272,320.5C 273.057,315.899 274.557,311.566 276.5,307.5 Z"/></g>
<g><path style="opacity:0.999" fill="#13121f" d="M 405.5,399.5 C 400.325,400.493 398.491,398.493 400,393.5C 405.399,387.608 410.566,381.608 415.5,375.5C 437.745,353.087 459.911,330.42 482,307.5C 482.497,314.673 480.83,321.34 477,327.5C 453.66,352.007 429.827,376.007 405.5,399.5 Z"/></g>
<g><path style="opacity:0.986" fill="#434146" d="M 520.5,254.5 C 520.245,279.849 520.579,305.182 521.5,330.5C 521.315,332.196 520.481,333.529 519,334.5C 518.216,307.651 518.716,280.984 520.5,254.5 Z"/></g>
<g><path style="opacity:0.999" fill="#413334" d="M 294.5,315.5 C 294.564,319.22 295.064,322.886 296,326.5C 297.842,328.834 300.009,329.168 302.5,327.5C 301.07,339.132 299.904,350.798 299,362.5C 295.667,365.002 292.501,367.668 289.5,370.5C 288.505,359.679 288.172,348.679 288.5,337.5C 288.962,329.643 290.962,322.309 294.5,315.5 Z"/></g>
<g><path style="opacity:0.999" fill="#252028" d="M 618.5,318.5 C 626.472,318.636 629.972,322.636 629,330.5C 624.874,337.112 619.708,338.112 613.5,333.5C 609.819,326.558 611.486,321.558 618.5,318.5 Z"/></g>
<g><path style="opacity:1" fill="#1c1615" d="M 762.5,324.5 C 764.527,324.338 766.527,324.505 768.5,325C 768.034,327.123 766.867,328.623 765,329.5C 762.843,328.615 762.01,326.948 762.5,324.5 Z"/></g>
<g><path style="opacity:0.998" fill="#181623" d="M 579.5,370.5 C 577.833,370.5 576.167,370.5 574.5,370.5C 574.442,375.579 572.108,377.579 567.5,376.5C 568.853,375.476 569.52,374.143 569.5,372.5C 568.325,372.719 567.325,372.386 566.5,371.5C 567.651,369.191 568.984,367.024 570.5,365C 568.997,363.079 568.331,360.912 568.5,358.5C 574.599,349.632 579.099,339.966 582,329.5C 584.025,327.307 586.525,326.307 589.5,326.5C 592.131,342.634 588.798,357.301 579.5,370.5 Z"/></g>
<g><path style="opacity:1" fill="#080a17" d="M 811.5,335.5 C 811.409,339.182 810.076,342.349 807.5,345C 799.147,350.895 790.814,350.895 782.5,345C 780.771,343.211 780.104,341.044 780.5,338.5C 786.518,328.917 794.851,326.417 805.5,331C 807.66,332.332 809.66,333.832 811.5,335.5 Z"/></g>
<g><path style="opacity:0.998" fill="#1b1924" d="M 369.5,326.5 C 357.215,341.954 342.881,355.121 326.5,366C 321.818,368.587 316.818,370.087 311.5,370.5C 311.245,365.043 311.912,359.71 313.5,354.5C 329.183,349.333 342.517,340.666 353.5,328.5C 352.452,331.789 351.952,335.122 352,338.5C 352.689,339.357 353.522,340.023 354.5,340.5C 355.452,338.955 355.785,337.288 355.5,335.5C 357.167,335.5 358.833,335.5 360.5,335.5C 360.726,332.118 361.726,329.118 363.5,326.5C 365.5,326.5 367.5,326.5 369.5,326.5 Z"/></g>
<g><path style="opacity:0.999" fill="#1d1a25" d="M 494.5,328.5 C 494.334,333.179 494.501,337.845 495,342.5C 496.205,343.071 497.372,343.738 498.5,344.5C 497.248,346.001 496.248,347.668 495.5,349.5C 495.833,350.5 496.5,351.167 497.5,351.5C 499.071,349.585 501.071,348.585 503.5,348.5C 490.802,362.198 477.469,375.198 463.5,387.5C 460.57,386.701 457.57,386.368 454.5,386.5C 455.035,383.762 454.035,381.928 451.5,381C 454.145,379.713 455.145,377.547 454.5,374.5C 463.798,364.702 473.298,355.035 483,345.5C 486.361,339.422 490.195,333.755 494.5,328.5 Z"/></g>
<g><path style="opacity:0.999" fill="#10101f" d="M 745.5,336.5 C 755.082,337.214 758.248,342.214 755,351.5C 745.876,359.609 739.709,357.775 736.5,346C 738.342,341.66 741.342,338.493 745.5,336.5 Z"/></g>
<g><path style="opacity:0.999" fill="#765b4f" d="M 811.5,335.5 C 822.785,350.504 820.452,363.004 804.5,373C 781.668,374.491 772.834,363.991 778,341.5C 778.852,340.429 779.685,339.429 780.5,338.5C 780.104,341.044 780.771,343.211 782.5,345C 790.814,350.895 799.147,350.895 807.5,345C 810.076,342.349 811.409,339.182 811.5,335.5 Z"/></g>
<g><path style="opacity:1" fill="#887e79" d="M 658.5,340.5 C 657.5,340.5 656.5,340.5 655.5,340.5C 655.5,341.833 655.5,343.167 655.5,344.5C 656.5,344.5 657.5,344.5 658.5,344.5C 657.432,345.434 656.099,345.768 654.5,345.5C 654.5,343.5 654.5,341.5 654.5,339.5C 656.099,339.232 657.432,339.566 658.5,340.5 Z"/></g>
<g><path style="opacity:1" fill="#151318" d="M 658.5,340.5 C 659.586,340.62 660.253,341.287 660.5,342.5C 660.253,343.713 659.586,344.38 658.5,344.5C 657.5,344.5 656.5,344.5 655.5,344.5C 655.5,343.167 655.5,341.833 655.5,340.5C 656.5,340.5 657.5,340.5 658.5,340.5 Z"/></g>
<g><path style="opacity:1" fill="#d6cac3" d="M 413.5,341.5 C 418.159,341.015 419.492,342.848 417.5,347C 412.728,347.81 411.395,345.977 413.5,341.5 Z"/></g>
<g><path style="opacity:1" fill="#1a171b" d="M 605.5,348.5 C 604.5,351.167 603.5,351.167 602.5,348.5C 602.5,347.5 602.5,346.5 602.5,345.5C 603.5,345.5 604.5,345.5 605.5,345.5C 605.5,346.5 605.5,347.5 605.5,348.5 Z"/></g>
<g><path style="opacity:1" fill="#6d6462" d="M 605.5,348.5 C 605.5,347.5 605.5,346.5 605.5,345.5C 604.5,345.5 603.5,345.5 602.5,345.5C 602.5,346.5 602.5,347.5 602.5,348.5C 601.566,347.432 601.232,346.099 601.5,344.5C 603.167,344.5 604.833,344.5 606.5,344.5C 606.768,346.099 606.434,347.432 605.5,348.5 Z"/></g>
<g><path style="opacity:0.996" fill="#231e21" d="M 704.5,359.5 C 704.5,362.833 704.5,366.167 704.5,369.5C 705.552,369.649 706.552,369.483 707.5,369C 710.055,365.741 713.055,363.407 716.5,362C 713.269,364.727 710.603,367.894 708.5,371.5C 708.977,372.478 709.643,373.311 710.5,374C 717.167,374.667 723.833,375.333 730.5,376C 723.489,376.757 716.489,377.591 709.5,378.5C 708.674,379.451 708.508,380.451 709,381.5C 711.382,384.427 713.882,387.261 716.5,390C 715.833,390.667 715.167,390.667 714.5,390C 711.984,387.317 709.317,384.817 706.5,382.5C 704.974,385.654 704.307,388.987 704.5,392.5C 703.834,396.684 703.167,401.018 702.5,405.5C 701.833,397.5 701.167,389.5 700.5,381.5C 699.893,381.624 699.56,381.957 699.5,382.5C 695.955,384.691 692.622,387.358 689.5,390.5C 690.442,387.736 692.275,385.07 695,382.5C 695.667,381.167 695.667,379.833 695,378.5C 691.606,377.544 688.106,377.211 684.5,377.5C 681.311,376.834 677.977,376.167 674.5,375.5C 677.977,374.833 681.311,374.166 684.5,373.5C 687.85,373.665 691.183,373.498 694.5,373C 695.022,372.439 695.355,371.772 695.5,371C 692.847,367.678 690.18,364.344 687.5,361C 687.833,360.833 688.167,360.667 688.5,360.5C 691.199,364.033 694.366,367.033 698,369.5C 698.772,369.355 699.439,369.022 700,368.5C 700.498,365.518 700.665,362.518 700.5,359.5C 701.166,355.979 701.833,352.313 702.5,348.5C 703.167,352.313 703.834,355.979 704.5,359.5 Z"/></g>
<g><path style="opacity:0.722" fill="#6d6361" d="M 704.5,359.5 C 703.834,355.979 703.167,352.313 702.5,348.5C 701.833,352.313 701.166,355.979 700.5,359.5C 700.5,355.5 700.5,351.5 700.5,347.5C 701.833,347.5 703.167,347.5 704.5,347.5C 704.5,351.5 704.5,355.5 704.5,359.5 Z"/></g>
<g><path style="opacity:0.997" fill="#191723" d="M 528.5,348.5 C 526.924,351.926 525.091,355.26 523,358.5C 521.89,360.243 520.39,361.576 518.5,362.5C 517.515,364.098 517.349,365.765 518,367.5C 519.113,368.711 520.28,368.711 521.5,367.5C 523.602,369.77 526.102,371.437 529,372.5C 529.772,372.355 530.439,372.022 531,371.5C 531.219,370.062 531.719,368.729 532.5,367.5C 533.417,368.127 534.417,368.461 535.5,368.5C 525.488,378.512 515.822,388.845 506.5,399.5C 500.221,401.642 494.221,404.308 488.5,407.5C 485.315,407.02 482.481,407.686 480,409.5C 479.505,407.01 478.005,405.51 475.5,405C 477.919,403.491 478.919,401.325 478.5,398.5C 494.736,381.318 511.403,364.651 528.5,348.5 Z"/></g>
<g><path style="opacity:1" fill="#080817" d="M 656.5,367.5 C 650.444,377.808 641.444,381.642 629.5,379C 622.249,376.605 618.249,371.772 617.5,364.5C 619.913,358.102 624.58,354.269 631.5,353C 641.282,351.306 649.115,354.473 655,362.5C 656.009,364.025 656.509,365.692 656.5,367.5 Z"/></g>
<g><path style="opacity:0.747" fill="#92837f" d="M 288.5,337.5 C 288.172,348.679 288.505,359.679 289.5,370.5C 289.44,371.043 289.107,371.376 288.5,371.5C 287.176,360.007 287.176,348.674 288.5,337.5 Z"/></g>
<g><path style="opacity:1" fill="#796456" d="M 212.5,354.5 C 213.818,361.011 213.818,367.678 212.5,374.5C 209.594,373.741 207.594,372.074 206.5,369.5C 208.787,364.596 210.787,359.596 212.5,354.5 Z"/></g>
<g><path style="opacity:0.988" fill="#251e29" d="M 568.5,358.5 C 568.331,360.912 568.997,363.079 570.5,365C 568.984,367.024 567.651,369.191 566.5,371.5C 567.325,372.386 568.325,372.719 569.5,372.5C 569.52,374.143 568.853,375.476 567.5,376.5C 572.108,377.579 574.442,375.579 574.5,370.5C 576.167,370.5 577.833,370.5 579.5,370.5C 573.59,380.412 565.923,388.745 556.5,395.5C 554.61,395.297 553.11,395.963 552,397.5C 552.112,391.794 549.279,389.127 543.5,389.5C 543.5,387.833 543.5,386.167 543.5,384.5C 551.861,375.807 560.194,367.14 568.5,358.5 Z"/></g>
<g><path style="opacity:0.992" fill="#2d2329" d="M 391.5,360.5 C 391.703,362.39 391.037,363.89 389.5,365C 389.944,366.533 390.277,368.033 390.5,369.5C 390.154,370.696 389.654,370.696 389,369.5C 386.632,374.405 387.632,376.072 392,374.5C 392.273,369.727 394.773,367.727 399.5,368.5C 388.22,381.448 376.22,393.781 363.5,405.5C 357.928,403.788 357.595,401.788 362.5,399.5C 360.376,398.851 358.376,398.017 356.5,397C 359.662,393.736 363.329,392.236 367.5,392.5C 366.833,391.5 366.167,390.5 365.5,389.5C 366.788,387.261 367.788,384.928 368.5,382.5C 376.14,375.194 383.807,367.861 391.5,360.5 Z"/></g>
<g><path style="opacity:0.992" fill="#3f3033" d="M 366.5,363.5 C 348.929,381.737 330.929,399.737 312.5,417.5C 311.335,408.853 311.168,400.186 312,391.5C 312.219,390.062 312.719,388.729 313.5,387.5C 324.271,383.284 334.271,377.784 343.5,371C 346.497,371.66 349.497,372.326 352.5,373C 355.145,371.713 356.145,369.547 355.5,366.5C 356.265,367.66 357.265,368.66 358.5,369.5C 360.063,368.055 361.396,366.389 362.5,364.5C 363.689,363.571 365.022,363.238 366.5,363.5 Z"/></g>
<g><path style="opacity:0.999" fill="#755c4c" d="M 617.5,364.5 C 618.249,371.772 622.249,376.605 629.5,379C 641.444,381.642 650.444,377.808 656.5,367.5C 660.465,378.154 658.465,387.654 650.5,396C 636.183,403.997 624.683,401.164 616,387.5C 612.161,379.371 612.661,371.705 617.5,364.5 Z"/></g>
<g><path style="opacity:1" fill="#100f1f" d="M 640.5,501.5 C 636.89,502.624 633.224,503.624 629.5,504.5C 628.548,502.955 628.215,501.288 628.5,499.5C 658.966,469.201 689.633,439.034 720.5,409C 735.08,394.416 750.246,380.582 766,367.5C 766.772,367.645 767.439,367.978 768,368.5C 769.15,370.754 769.484,373.087 769,375.5C 726.298,417.702 683.465,459.702 640.5,501.5 Z"/></g>
<g><path style="opacity:0.999" fill="#564542" d="M 248.5,323.5 C 248.333,342.503 248.5,361.503 249,380.5C 249.186,378.1 249.686,375.766 250.5,373.5C 252.711,372.877 254.711,371.877 256.5,370.5C 257.167,364.012 257.833,357.679 258.5,351.5C 258.5,367.5 258.5,383.5 258.5,399.5C 257.657,401.487 256.99,403.654 256.5,406C 256.164,407.03 255.497,407.53 254.5,407.5C 252.454,405.721 250.287,404.054 248,402.5C 247.17,375.997 247.337,349.663 248.5,323.5 Z"/></g>
<g><path style="opacity:1" fill="#2d2b2d" d="M 591.5,373.5 C 593.167,373.5 594.833,373.5 596.5,373.5C 597.167,377.5 595.5,379.167 591.5,378.5C 591.5,376.833 591.5,375.167 591.5,373.5 Z"/></g>
<g><path style="opacity:0.994" fill="#9c8274" d="M 826.5,374.5 C 827.833,374.5 829.167,374.5 830.5,374.5C 830.833,377.5 829.5,378.833 826.5,378.5C 826.5,377.167 826.5,375.833 826.5,374.5 Z"/></g>
<g><path style="opacity:0.998" fill="#30262c" d="M 454.5,374.5 C 455.145,377.547 454.145,379.713 451.5,381C 454.035,381.928 455.035,383.762 454.5,386.5C 457.57,386.368 460.57,386.701 463.5,387.5C 455.128,398.206 445.461,407.539 434.5,415.5C 431.927,415.852 429.594,415.352 427.5,414C 429.229,412.211 429.896,410.044 429.5,407.5C 427.897,407.688 426.563,407.188 425.5,406C 427.607,404.736 428.607,402.903 428.5,400.5C 436.833,391.5 445.5,382.833 454.5,374.5 Z"/></g>
<g><path style="opacity:0.753" fill="#615857" d="M 684.5,373.5 C 681.311,374.166 677.977,374.833 674.5,375.5C 677.977,376.167 681.311,376.834 684.5,377.5C 680.833,377.5 677.167,377.5 673.5,377.5C 673.5,376.167 673.5,374.833 673.5,373.5C 677.167,373.5 680.833,373.5 684.5,373.5 Z"/></g>
<g><path style="opacity:0.753" fill="#6e6462" d="M 699.5,382.5 C 699.56,381.957 699.893,381.624 700.5,381.5C 701.167,389.5 701.833,397.5 702.5,405.5C 703.167,401.018 703.834,396.684 704.5,392.5C 704.5,397.167 704.5,401.833 704.5,406.5C 703.167,406.5 701.833,406.5 700.5,406.5C 700.826,398.316 700.492,390.316 699.5,382.5 Z"/></g>
<g><path style="opacity:1" fill="#1a151c" d="M 202.5,383.5 C 210.865,382.686 213.865,386.186 211.5,394C 201.205,396.868 198.205,393.368 202.5,383.5 Z"/></g>
<g><path style="opacity:1" fill="#6a5148" d="M 298.5,404.5 C 298.667,424.169 298.5,443.836 298,463.5C 297.667,458.167 297.333,452.833 297,447.5C 295.812,455.498 294.312,455.498 292.5,447.5C 291.675,446.614 290.675,446.281 289.5,446.5C 289.281,440.852 289.947,435.352 291.5,430C 290.222,423.531 290.222,417.031 291.5,410.5C 291.635,403.463 288.302,400.63 281.5,402C 277.63,405.534 277.63,409.034 281.5,412.5C 281.667,430.17 281.5,447.836 281,465.5C 280.667,460.5 280.333,455.5 280,450.5C 277.681,458.422 276.681,466.422 277,474.5C 275.873,471.623 275.206,468.623 275,465.5C 274.667,465.833 274.333,466.167 274,466.5C 273.828,472.681 273.328,478.681 272.5,484.5C 272.333,454.831 272.5,425.165 273,395.5C 279.019,385.022 287.352,382.689 298,388.5C 298.499,393.823 298.666,399.156 298.5,404.5 Z"/></g>
<g><path style="opacity:0.998" fill="#443436" d="M 368.5,382.5 C 367.788,384.928 366.788,387.261 365.5,389.5C 366.167,390.5 366.833,391.5 367.5,392.5C 363.329,392.236 359.662,393.736 356.5,397C 358.376,398.017 360.376,398.851 362.5,399.5C 357.595,401.788 357.928,403.788 363.5,405.5C 350.869,418.632 338.035,431.632 325,444.5C 321.245,449.003 318.245,454.003 316,459.5C 313.942,448.404 316.275,438.404 323,429.5C 337.307,413.026 352.473,397.359 368.5,382.5 Z"/></g>
<g><path style="opacity:0.997" fill="#362a30" d="M 543.5,384.5 C 543.5,386.167 543.5,387.833 543.5,389.5C 549.279,389.127 552.112,391.794 552,397.5C 553.11,395.963 554.61,395.297 556.5,395.5C 544.833,409.167 532.167,421.833 518.5,433.5C 517.06,434.363 515.726,434.363 514.5,433.5C 513.757,434.908 512.923,436.241 512,437.5C 511.577,436.044 510.744,435.544 509.5,436C 508.167,437 508.167,438 509.5,439C 505.369,443.074 500.535,444.241 495,442.5C 494.05,443.022 493.216,443.689 492.5,444.5C 491.223,442.37 491.723,440.704 494,439.5C 494.681,437.471 495.014,435.471 495,433.5C 492.093,434.244 489.927,435.91 488.5,438.5C 484.721,436.135 482.388,432.802 481.5,428.5C 487.123,413.412 498.123,405.912 514.5,406C 517.376,405.562 520.043,404.562 522.5,403C 529.371,396.625 536.371,390.458 543.5,384.5 Z"/></g>
<g><path style="opacity:1" fill="#dac9be" d="M 323.5,387.5 C 328.759,387.413 330.426,389.746 328.5,394.5C 326.647,395.76 324.814,395.76 323,394.5C 322.444,392.115 322.61,389.782 323.5,387.5 Z"/></g>
<g><path style="opacity:0.999" fill="#0f0f1e" d="M 726.5,453.5 C 721.082,453.118 717.582,455.452 716,460.5C 713.603,463.4 710.77,465.733 707.5,467.5C 706.28,467.113 705.613,466.28 705.5,465C 706.609,462.953 707.276,460.787 707.5,458.5C 731.63,435.871 755.296,412.704 778.5,389C 783.799,387.967 786.299,390.134 786,395.5C 766.603,415.399 746.769,434.732 726.5,453.5 Z"/></g>
<g><path style="opacity:1" fill="#65534b" d="M 829.5,389.5 C 835.245,388.825 836.911,391.159 834.5,396.5C 832.647,397.76 830.814,397.76 829,396.5C 828.297,394.071 828.463,391.738 829.5,389.5 Z"/></g>
<g><path style="opacity:0.996" fill="#282128" d="M 570.5,422.5 C 568.167,422.5 565.833,422.5 563.5,422.5C 564.401,426.241 563.068,428.241 559.5,428.5C 559.5,425.833 559.5,423.167 559.5,420.5C 560.833,420.5 562.167,420.5 563.5,420.5C 563.354,418.058 564.187,417.391 566,418.5C 566.973,416.36 568.473,414.693 570.5,413.5C 571.51,410.817 572.51,408.151 573.5,405.5C 577.963,400.535 582.63,395.702 587.5,391C 591.482,389.579 594.148,390.746 595.5,394.5C 588.63,405.043 580.297,414.376 570.5,422.5 Z"/></g>
<g><path style="opacity:0.997" fill="#241c24" d="M 415.5,375.5 C 410.566,381.608 405.399,387.608 400,393.5C 398.491,398.493 400.325,400.493 405.5,399.5C 386.524,419.476 366.857,438.809 346.5,457.5C 342.813,456.126 341.147,453.459 341.5,449.5C 365.833,424.5 390.5,399.833 415.5,375.5 Z"/></g>
<g><path style="opacity:1" fill="#6d574c" d="M 667.5,398.5 C 669.527,398.338 671.527,398.505 673.5,399C 679.333,404.833 685.167,410.667 691,416.5C 691.497,418.81 691.663,421.143 691.5,423.5C 689.473,423.662 687.473,423.495 685.5,423C 679.636,416.801 673.469,410.968 667,405.5C 664.912,402.956 665.079,400.623 667.5,398.5 Z"/></g>
<g><path style="opacity:0.998" fill="#31272d" d="M 478.5,398.5 C 478.919,401.325 477.919,403.491 475.5,405C 478.005,405.51 479.505,407.01 480,409.5C 482.481,407.686 485.315,407.02 488.5,407.5C 482.409,412.922 478.409,419.588 476.5,427.5C 475.566,428.568 475.232,429.901 475.5,431.5C 474.532,433.607 474.198,435.941 474.5,438.5C 473.07,438.579 471.736,438.246 470.5,437.5C 469.262,439.734 467.596,440.068 465.5,438.5C 462.189,441.198 459.856,440.364 458.5,436C 457.207,435.51 455.873,435.343 454.5,435.5C 454.615,440.328 452.448,441.661 448,439.5C 447.176,436.118 447.343,432.784 448.5,429.5C 450.288,428.717 451.288,427.384 451.5,425.5C 459.5,415.5 468.5,406.5 478.5,398.5 Z"/></g>
<g><path style="opacity:1" fill="#64544f" d="M 813.5,408.5 C 810.129,405.075 806.462,404.742 802.5,407.5C 796.578,405.272 794.245,407.105 795.5,413C 799.071,415.421 802.738,417.587 806.5,419.5C 794.776,421.257 790.609,416.257 794,404.5C 797.298,399.78 801.798,398.28 807.5,400C 811.276,401.605 813.276,404.438 813.5,408.5 Z"/></g>
<g><path style="opacity:0.997" fill="#3c2c2f" d="M 428.5,400.5 C 428.607,402.903 427.607,404.736 425.5,406C 426.563,407.188 427.897,407.688 429.5,407.5C 429.896,410.044 429.229,412.211 427.5,414C 429.594,415.352 431.927,415.852 434.5,415.5C 426.84,424.827 418.506,433.493 409.5,441.5C 406.911,440.873 404.411,440.873 402,441.5C 396.996,439.31 396.163,435.976 399.5,431.5C 400.689,430.571 402.022,430.238 403.5,430.5C 403.517,428.435 403.85,426.435 404.5,424.5C 412.167,416.167 420.167,408.167 428.5,400.5 Z"/></g>
<g><path style="opacity:1" fill="#0e0e1c" d="M 211.5,403.5 C 221.485,403.662 225.318,408.662 223,418.5C 222.215,420.286 221.049,421.786 219.5,423C 208.5,424.998 203.667,420.498 205,409.5C 206.436,406.558 208.603,404.558 211.5,403.5 Z"/></g>
<g><path style="opacity:0.999" fill="#2f262b" d="M 571.5,459.5 C 569.143,459.337 566.81,459.503 564.5,460C 564.957,460.414 565.291,460.914 565.5,461.5C 561.751,461.749 559.917,463.749 560,467.5C 556.649,470.041 554.815,469.041 554.5,464.5C 558.29,464.992 558.956,464.159 556.5,462C 558.984,459.256 561.984,457.256 565.5,456C 564.62,454.644 564.286,453.144 564.5,451.5C 579.661,435.506 595.327,420.006 611.5,405C 612.5,404.333 613.5,404.333 614.5,405C 616.188,406.688 617.855,408.355 619.5,410C 619.138,411.225 618.638,412.391 618,413.5C 602.578,429.09 587.078,444.423 571.5,459.5 Z"/></g>
<g><path style="opacity:1" fill="#3f3336" d="M 813.5,408.5 C 813.924,413.996 811.591,417.663 806.5,419.5C 802.738,417.587 799.071,415.421 795.5,413C 794.245,407.105 796.578,405.272 802.5,407.5C 806.462,404.742 810.129,405.075 813.5,408.5 Z"/></g>
<g><path style="opacity:0.769" fill="#98877f" d="M 258.5,399.5 C 258.82,402.898 258.487,406.232 257.5,409.5C 256.261,409.058 255.261,408.391 254.5,407.5C 255.497,407.53 256.164,407.03 256.5,406C 256.99,403.654 257.657,401.487 258.5,399.5 Z"/></g>
<g><path style="opacity:0.998" fill="#775d52" d="M 250.5,411.5 C 253.13,413.628 255.63,415.961 258,418.5C 258.667,453.167 258.667,487.833 258,522.5C 254.059,518.214 251.392,513.214 250,507.5C 247.19,496.951 246.356,486.284 247.5,475.5C 244.813,475.336 242.146,475.503 239.5,476C 238.376,476.839 237.709,478.006 237.5,479.5C 239.817,485.863 240.15,492.363 238.5,499C 238.864,517.557 245.864,533.057 259.5,545.5C 258.155,549.022 255.822,551.189 252.5,552C 240.11,539.721 232.61,524.887 230,507.5C 228.137,480.496 228.137,453.496 230,426.5C 233.632,423.87 236.965,420.87 240,417.5C 240.8,431.005 240.467,444.338 239,457.5C 241.795,458.783 244.628,458.783 247.5,457.5C 248.022,456.393 248.355,455.226 248.5,454C 246.032,441.317 245.199,428.484 246,415.5C 247.397,413.93 248.897,412.596 250.5,411.5 Z"/></g>
<g><path style="opacity:1" fill="#1a1925" d="M 834.5,411.5 C 843.088,410.747 846.088,414.413 843.5,422.5C 840.223,422.784 837.057,422.451 834,421.5C 833.457,418.132 833.624,414.799 834.5,411.5 Z"/></g>
<g><path style="opacity:0.999" fill="#5d4a44" d="M 195.5,503.5 C 195.66,505.199 195.494,506.866 195,508.5C 194.751,507.376 194.251,506.376 193.5,505.5C 191.946,507.933 191.28,510.6 191.5,513.5C 189.297,513.604 187.297,514.27 185.5,515.5C 184.91,514.234 184.41,512.901 184,511.5C 183.264,486.819 183.598,462.153 185,437.5C 185.803,428.927 188.303,420.927 192.5,413.5C 193.624,415.369 194.457,417.369 195,419.5C 195.5,447.498 195.667,475.498 195.5,503.5 Z"/></g>
<g><path style="opacity:0.999" fill="#433336" d="M 573.5,405.5 C 572.51,408.151 571.51,410.817 570.5,413.5C 568.473,414.693 566.973,416.36 566,418.5C 564.187,417.391 563.354,418.058 563.5,420.5C 562.167,420.5 560.833,420.5 559.5,420.5C 559.5,423.167 559.5,425.833 559.5,428.5C 563.068,428.241 564.401,426.241 563.5,422.5C 565.833,422.5 568.167,422.5 570.5,422.5C 549.196,444.97 527.029,466.636 504,487.5C 503.333,483.5 503.333,479.5 504,475.5C 526.005,450.995 549.172,427.661 573.5,405.5 Z"/></g>
<g><path style="opacity:0.996" fill="#1d1a1b" d="M 657.5,416.5 C 662.159,416.015 663.492,417.848 661.5,422C 660.216,422.684 659.049,422.517 658,421.5C 657.506,419.866 657.34,418.199 657.5,416.5 Z"/></g>
<g><path style="opacity:0.998" fill="#4f3d3b" d="M 404.5,424.5 C 403.85,426.435 403.517,428.435 403.5,430.5C 402.022,430.238 400.689,430.571 399.5,431.5C 396.163,435.976 396.996,439.31 402,441.5C 404.411,440.873 406.911,440.873 409.5,441.5C 396.895,453.604 384.395,465.937 372,478.5C 360.847,492.149 354.681,507.815 353.5,525.5C 352.873,531.731 352.039,538.065 351,544.5C 347.943,543.549 344.777,543.216 341.5,543.5C 341.5,533.5 341.5,523.5 341.5,513.5C 342.713,499.361 347.213,486.361 355,474.5C 365.631,462.2 376.631,450.2 388,438.5C 393.253,433.469 398.753,428.803 404.5,424.5 Z"/></g>
<g><path style="opacity:0.999" fill="#1e1423" d="M 645.5,426.5 C 650.376,425.404 652.043,427.071 650.5,431.5C 645.134,433.468 643.468,431.801 645.5,426.5 Z"/></g>
<g><path style="opacity:1" fill="#18151e" d="M 667.5,428.5 C 669.5,428.5 671.5,428.5 673.5,428.5C 673.5,430.167 673.5,431.833 673.5,433.5C 671.5,433.5 669.5,433.5 667.5,433.5C 667.5,431.833 667.5,430.167 667.5,428.5 Z"/></g>
<g><path style="opacity:0.987" fill="#3f3132" d="M 451.5,425.5 C 451.288,427.384 450.288,428.717 448.5,429.5C 447.343,432.784 447.176,436.118 448,439.5C 452.448,441.661 454.615,440.328 454.5,435.5C 455.873,435.343 457.207,435.51 458.5,436C 459.856,440.364 462.189,441.198 465.5,438.5C 467.596,440.068 469.262,439.734 470.5,437.5C 471.736,438.246 473.07,438.579 474.5,438.5C 474.198,435.941 474.532,433.607 475.5,431.5C 475.5,433.167 475.5,434.833 475.5,436.5C 477.167,436.5 478.833,436.5 480.5,436.5C 480.5,434.833 480.5,433.167 480.5,431.5C 480.263,430.209 480.596,429.209 481.5,428.5C 482.388,432.802 484.721,436.135 488.5,438.5C 489.927,435.91 492.093,434.244 495,433.5C 495.014,435.471 494.681,437.471 494,439.5C 491.723,440.704 491.223,442.37 492.5,444.5C 493.216,443.689 494.05,443.022 495,442.5C 500.535,444.241 505.369,443.074 509.5,439C 508.167,438 508.167,437 509.5,436C 510.744,435.544 511.577,436.044 512,437.5C 512.923,436.241 513.757,434.908 514.5,433.5C 515.726,434.363 517.06,434.363 518.5,433.5C 508.792,447.191 495.458,454.357 478.5,455C 472.93,461.075 466.93,466.575 460.5,471.5C 456.048,469.623 451.714,467.457 447.5,465C 449.344,462.196 450.011,459.03 449.5,455.5C 446.813,455.664 444.146,455.497 441.5,455C 440.663,453.989 440.33,452.822 440.5,451.5C 438.473,451.662 436.473,451.495 434.5,451C 433.594,448.779 432.594,446.612 431.5,444.5C 437.535,437.464 444.202,431.131 451.5,425.5 Z"/></g>
<g><path style="opacity:0.749" fill="#796b67" d="M 476.5,427.5 C 476.5,430.167 476.5,432.833 476.5,435.5C 477.5,435.5 478.5,435.5 479.5,435.5C 479.232,433.901 479.566,432.568 480.5,431.5C 480.5,433.167 480.5,434.833 480.5,436.5C 478.833,436.5 477.167,436.5 475.5,436.5C 475.5,434.833 475.5,433.167 475.5,431.5C 475.232,429.901 475.566,428.568 476.5,427.5 Z"/></g>
<g><path style="opacity:1" fill="#6f564a" d="M 779.5,429.5 C 784.123,428.408 785.956,430.075 785,434.5C 775.167,443 766,452.167 757.5,462C 754.986,463.252 752.32,463.752 749.5,463.5C 749.298,461.011 749.798,458.677 751,456.5C 760.698,447.633 770.198,438.633 779.5,429.5 Z"/></g>
<g><path style="opacity:0.999" fill="#5e4a42" d="M 202.5,503.5 C 201.515,486.911 201.182,470.244 201.5,453.5C 201.334,444.827 201.5,436.16 202,427.5C 204.685,431.183 208.018,434.183 212,436.5C 213.181,459.814 213.848,483.147 214,506.5C 215.927,519.621 220.593,531.621 228,542.5C 235.838,552.049 244.005,561.216 252.5,570C 250.919,573.596 248.253,575.596 244.5,576C 235.363,567.864 226.53,559.364 218,550.5C 208.731,536.194 203.565,520.527 202.5,503.5 Z"/></g>
<g><path style="opacity:0.999" fill="#0a0a18" d="M 636.5,444.5 C 635.83,451.837 631.83,455.171 624.5,454.5C 617.075,455.807 613.075,452.807 612.5,445.5C 614.469,440.323 618.302,437.989 624,438.5C 629.313,438.316 633.48,440.316 636.5,444.5 Z"/></g>
<g><path style="opacity:1" fill="#070917" d="M 839.5,448.5 C 837.741,457.476 832.241,461.476 823,460.5C 815.822,461.109 809.822,458.775 805,453.5C 804.505,451.527 804.338,449.527 804.5,447.5C 811.204,437.439 820.204,434.939 831.5,440C 835.048,442.047 837.715,444.88 839.5,448.5 Z"/></g>
<g><path style="opacity:1" fill="#e7d7c8" d="M 455.5,440.5 C 461.643,441.026 462.976,443.86 459.5,449C 457.888,449.72 456.388,449.554 455,448.5C 454.398,445.779 454.565,443.113 455.5,440.5 Z"/></g>
<g><path style="opacity:0.997" fill="#4b3938" d="M 431.5,444.5 C 432.594,446.612 433.594,448.779 434.5,451C 436.473,451.495 438.473,451.662 440.5,451.5C 440.33,452.822 440.663,453.989 441.5,455C 444.146,455.497 446.813,455.664 449.5,455.5C 450.011,459.03 449.344,462.196 447.5,465C 451.714,467.457 456.048,469.623 460.5,471.5C 449.806,482.86 438.806,493.86 427.5,504.5C 424.353,504.737 421.353,505.57 418.5,507C 418.901,510.92 418.068,514.753 416,518.5C 415.311,513.638 414.144,513.638 412.5,518.5C 410.5,518.5 408.5,518.5 406.5,518.5C 406.482,514.393 405.815,510.393 404.5,506.5C 400.036,504.698 395.37,504.032 390.5,504.5C 390.005,498.109 390.005,491.775 390.5,485.5C 403.167,470.833 416.833,457.167 431.5,444.5 Z"/></g>
<g><path style="opacity:0.999" fill="#705b4f" d="M 636.5,444.5 C 642.275,452.725 641.608,460.558 634.5,468C 616.124,473.635 607.958,466.801 610,447.5C 610.708,446.619 611.542,445.953 612.5,445.5C 613.075,452.807 617.075,455.807 624.5,454.5C 631.83,455.171 635.83,451.837 636.5,444.5 Z"/></g>
<g><path style="opacity:0.991" fill="#796054" d="M 298.5,404.5 C 299.664,435.331 299.831,466.331 299,497.5C 298.667,501.167 298.333,504.833 298,508.5C 294.63,511.535 291.63,514.868 289,518.5C 288.167,482.829 288.333,447.162 289.5,411.5C 290.183,411.137 290.85,410.804 291.5,410.5C 290.222,417.031 290.222,423.531 291.5,430C 289.947,435.352 289.281,440.852 289.5,446.5C 290.675,446.281 291.675,446.614 292.5,447.5C 294.312,455.498 295.812,455.498 297,447.5C 297.333,452.833 297.667,458.167 298,463.5C 298.5,443.836 298.667,424.169 298.5,404.5 Z"/></g>
<g><path style="opacity:0.999" fill="#785b4d" d="M 804.5,447.5 C 804.338,449.527 804.505,451.527 805,453.5C 809.822,458.775 815.822,461.109 823,460.5C 832.241,461.476 837.741,457.476 839.5,448.5C 846.486,460.453 844.819,471.287 834.5,481C 818.802,488.934 807.302,485.1 800,469.5C 799.333,464.5 799.333,459.5 800,454.5C 801.026,451.761 802.526,449.428 804.5,447.5 Z"/></g>
<g><path style="opacity:0.998" fill="#423335" d="M 341.5,449.5 C 341.147,453.459 342.813,456.126 346.5,457.5C 339.197,467.771 333.197,478.771 328.5,490.5C 326.956,490.703 325.622,491.37 324.5,492.5C 323.526,490.257 323.192,487.924 323.5,485.5C 321.821,485.715 320.821,485.048 320.5,483.5C 324.984,470.516 331.984,459.183 341.5,449.5 Z"/></g>
<g><path style="opacity:0.985" fill="#7a6053" d="M 281.5,412.5 C 282.664,450.664 282.831,488.998 282,527.5C 281.794,530.623 281.127,533.623 280,536.5C 277.294,534.129 274.961,531.463 273,528.5C 272.5,513.837 272.333,499.17 272.5,484.5C 273.328,478.681 273.828,472.681 274,466.5C 274.333,466.167 274.667,465.833 275,465.5C 275.206,468.623 275.873,471.623 277,474.5C 276.681,466.422 277.681,458.422 280,450.5C 280.333,455.5 280.667,460.5 281,465.5C 281.5,447.836 281.667,430.17 281.5,412.5 Z"/></g>
<g><path style="opacity:0.995" fill="#423133" d="M 564.5,451.5 C 564.286,453.144 564.62,454.644 565.5,456C 561.984,457.256 558.984,459.256 556.5,462C 558.956,464.159 558.29,464.992 554.5,464.5C 554.815,469.041 556.649,470.041 560,467.5C 559.917,463.749 561.751,461.749 565.5,461.5C 565.291,460.914 564.957,460.414 564.5,460C 566.81,459.503 569.143,459.337 571.5,459.5C 557.469,474.531 542.803,488.864 527.5,502.5C 522.444,502.455 520.111,499.788 520.5,494.5C 535.193,480.139 549.86,465.806 564.5,451.5 Z"/></g>
<g><path style="opacity:0.996" fill="#1f1826" d="M 726.5,453.5 C 691.498,488.502 656.165,523.168 620.5,557.5C 618.403,557.63 616.236,557.63 614,557.5C 614.153,554.826 614.653,552.16 615.5,549.5C 646.14,519.194 676.806,488.861 707.5,458.5C 707.276,460.787 706.609,462.953 705.5,465C 705.613,466.28 706.28,467.113 707.5,467.5C 710.77,465.733 713.603,463.4 716,460.5C 717.582,455.452 721.082,453.118 726.5,453.5 Z"/></g>
<g><path style="opacity:1" fill="#e7d9cd" d="M 439.5,456.5 C 445.195,456.625 446.862,459.292 444.5,464.5C 442.647,465.76 440.814,465.76 439,464.5C 438.398,461.779 438.565,459.113 439.5,456.5 Z"/></g>
<g><path style="opacity:1" fill="#433833" d="M 776.5,456.5 C 779.91,456.384 781.244,458.05 780.5,461.5C 779.167,461.5 777.833,461.5 776.5,461.5C 776.5,459.833 776.5,458.167 776.5,456.5 Z"/></g>
<g><path style="opacity:1" fill="#0d0b15" d="M 238.5,461.5 C 242.803,460.796 246.303,462.13 249,465.5C 249.259,472.883 245.759,475.383 238.5,473C 236.522,470.503 236.022,467.669 237,464.5C 238.039,463.756 238.539,462.756 238.5,461.5 Z"/></g>
<g><path style="opacity:0.999" fill="#493837" d="M 590.5,516.5 C 588.61,516.703 587.11,516.037 586,514.5C 582.363,516.201 578.53,517.201 574.5,517.5C 574.5,520.5 574.5,523.5 574.5,526.5C 570.155,528.717 566.821,527.717 564.5,523.5C 564.709,522.914 565.043,522.414 565.5,522C 563.91,520.954 562.41,519.787 561,518.5C 560.601,518.728 560.435,519.062 560.5,519.5C 555.748,519.341 554.414,521.341 556.5,525.5C 557.974,526.584 558.807,527.918 559,529.5C 558.667,529.167 558.333,528.833 558,528.5C 556.667,530.5 555.333,532.5 554,534.5C 553.292,533.619 552.458,532.953 551.5,532.5C 551.5,530.5 550.5,529.5 548.5,529.5C 546.974,527.87 544.974,527.037 542.5,527C 543.555,522.954 546.221,521.454 550.5,522.5C 550.5,521.5 550.5,520.5 550.5,519.5C 547.552,519.223 544.719,519.556 542,520.5C 542.152,517.553 542.319,514.553 542.5,511.5C 559.465,494.035 576.632,476.701 594,459.5C 597.833,474 607,483.167 621.5,487C 610.995,496.672 600.661,506.506 590.5,516.5 Z"/></g>
<g><path style="opacity:0.687" fill="#a39086" d="M 201.5,453.5 C 201.182,470.244 201.515,486.911 202.5,503.5C 201.169,495.528 200.502,487.194 200.5,478.5C 200.5,469.993 200.834,461.66 201.5,453.5 Z"/></g>
<g><path style="opacity:1" fill="#ddcdc1" d="M 423.5,472.5 C 430.486,472.331 432.153,475.164 428.5,481C 426.741,481.798 425.074,481.631 423.5,480.5C 422.297,477.84 422.297,475.173 423.5,472.5 Z"/></g>
<g><path style="opacity:1" fill="#3b2e31" d="M 749.5,503.5 C 748.178,503.33 747.011,503.663 746,504.5C 744.815,502.623 743.815,500.623 743,498.5C 742.333,497.167 741.667,497.167 741,498.5C 739.945,495.944 738.112,494.277 735.5,493.5C 734.609,492.89 733.609,492.557 732.5,492.5C 728.967,490.525 725.3,489.858 721.5,490.5C 722.485,492.098 722.651,493.765 722,495.5C 721.196,494.196 720.029,493.529 718.5,493.5C 716.865,494.046 715.199,494.38 713.5,494.5C 713.5,493.5 713.5,492.5 713.5,491.5C 714.5,491.5 715.5,491.5 716.5,491.5C 716.351,490.448 716.517,489.448 717,488.5C 720.581,486.433 722.748,483.433 723.5,479.5C 734.961,473.599 743.794,476.265 750,487.5C 750.817,493.016 750.651,498.35 749.5,503.5 Z"/></g>
<g><path style="opacity:1" fill="#8b796b" d="M 777.5,476.5 C 779.028,476.517 779.528,477.184 779,478.5C 775.318,482.349 771.485,486.016 767.5,489.5C 766.592,488.21 766.759,486.877 768,485.5C 771.062,482.268 774.229,479.268 777.5,476.5 Z"/></g>
<g><path style="opacity:1" fill="#c2afa3" d="M 596.5,479.5 C 598.167,479.5 599.833,479.5 601.5,479.5C 602.152,483.56 600.485,485.56 596.5,485.5C 596.5,483.5 596.5,481.5 596.5,479.5 Z"/></g>
<g><path style="opacity:0.999" fill="#0d0e1d" d="M 470.5,484.5 C 484.699,482.858 490.199,488.858 487,502.5C 480.149,511.395 472.815,511.729 465,503.5C 461.645,495.509 463.478,489.175 470.5,484.5 Z"/></g>
<g><path style="opacity:0.996" fill="#55423f" d="M 320.5,483.5 C 320.821,485.048 321.821,485.715 323.5,485.5C 323.192,487.924 323.526,490.257 324.5,492.5C 325.622,491.37 326.956,490.703 328.5,490.5C 324.206,505.517 322.206,520.851 322.5,536.5C 321.838,538.47 321.172,540.47 320.5,542.5C 318.599,543.231 316.599,543.231 314.5,542.5C 314.666,538.154 314.499,533.821 314,529.5C 313.667,532.167 313.333,534.833 313,537.5C 312.5,531.175 312.334,524.842 312.5,518.5C 311.905,505.982 314.571,494.316 320.5,483.5 Z"/></g>
<g><path style="opacity:0.998" fill="#56443f" d="M 390.5,485.5 C 390.005,491.775 390.005,498.109 390.5,504.5C 395.37,504.032 400.036,504.698 404.5,506.5C 405.815,510.393 406.482,514.393 406.5,518.5C 408.5,518.5 410.5,518.5 412.5,518.5C 414.144,513.638 415.311,513.638 416,518.5C 418.068,514.753 418.901,510.92 418.5,507C 421.353,505.57 424.353,504.737 427.5,504.5C 413.911,522.283 408.911,542.283 412.5,564.5C 412.072,570.626 410.905,576.626 409,582.5C 408.167,581.5 407.333,580.5 406.5,579.5C 405.158,581.005 403.492,581.672 401.5,581.5C 394.094,562.073 392.594,542.073 397,521.5C 400.14,517.583 401.806,513.25 402,508.5C 398.81,504.995 395.31,504.662 391.5,507.5C 389.754,524.712 389.254,542.045 390,559.5C 392.698,577.281 398.698,593.615 408,608.5C 385.89,592.962 373.556,571.628 371,544.5C 368.14,525.45 372.14,508.117 383,492.5C 385.37,489.961 387.87,487.628 390.5,485.5 Z"/></g>
<g><path style="opacity:0.999" fill="#7a5d51" d="M 792.5,486.5 C 795.72,489.883 799.386,492.716 803.5,495C 804.451,495.718 804.617,496.551 804,497.5C 767.472,534.361 730.639,570.861 693.5,607C 688.249,610.084 682.915,610.251 677.5,607.5C 676.242,604.278 676.742,601.278 679,598.5C 717.034,561.299 754.867,523.966 792.5,486.5 Z"/></g>
<g><path style="opacity:1" fill="#ecdecb" d="M 407.5,489.5 C 413.235,488.821 414.902,491.155 412.5,496.5C 410.629,497.767 408.796,497.767 407,496.5C 406.297,494.071 406.463,491.738 407.5,489.5 Z"/></g>
<g><path style="opacity:1" fill="#554240" d="M 846.5,489.5 C 847.88,489.962 848.547,490.962 848.5,492.5C 842.574,520.022 830.074,544.022 811,564.5C 804.403,570.818 797.903,577.318 791.5,584C 788.511,584.001 786.178,582.668 784.5,580C 793.902,569.595 803.736,559.428 814,549.5C 826.885,534.059 835.219,516.393 839,496.5C 841.344,493.989 843.844,491.656 846.5,489.5 Z"/></g>
<g><path style="opacity:1" fill="#e3d2c9" d="M 587.5,489.5 C 588.708,490.234 590.041,490.567 591.5,490.5C 591.5,491.833 591.5,493.167 591.5,494.5C 590.167,494.5 588.833,494.5 587.5,494.5C 587.5,492.833 587.5,491.167 587.5,489.5 Z"/></g>
<g><path style="opacity:1" fill="#493737" d="M 723.5,479.5 C 722.748,483.433 720.581,486.433 717,488.5C 716.517,489.448 716.351,490.448 716.5,491.5C 715.5,491.5 714.5,491.5 713.5,491.5C 713.5,492.5 713.5,493.5 713.5,494.5C 715.199,494.38 716.865,494.046 718.5,493.5C 720.029,493.529 721.196,494.196 722,495.5C 722.651,493.765 722.485,492.098 721.5,490.5C 725.3,489.858 728.967,490.525 732.5,492.5C 727.666,493.179 726.333,495.845 728.5,500.5C 734.301,502.035 736.634,499.702 735.5,493.5C 738.112,494.277 739.945,495.944 741,498.5C 741.667,497.167 742.333,497.167 743,498.5C 743.815,500.623 744.815,502.623 746,504.5C 747.011,503.663 748.178,503.33 749.5,503.5C 746.691,509.452 742.691,514.452 737.5,518.5C 735.345,518.372 733.345,518.872 731.5,520C 729.701,523.983 726.701,526.149 722.5,526.5C 722.657,527.873 722.49,529.207 722,530.5C 721,529.167 720,529.167 719,530.5C 715.599,528.395 715.766,526.728 719.5,525.5C 718.305,523.249 717.305,520.915 716.5,518.5C 717.325,517.614 718.325,517.281 719.5,517.5C 719.259,515.114 719.925,513.114 721.5,511.5C 723.597,510.121 723.93,508.455 722.5,506.5C 721.594,505.035 720.261,504.035 718.5,503.5C 717.044,506.286 716.044,509.286 715.5,512.5C 712.436,513.121 709.436,513.955 706.5,515C 705.128,517.533 704.128,520.2 703.5,523C 703.833,523.333 704.167,523.667 704.5,524C 702.842,525.663 700.842,526.496 698.5,526.5C 697.542,526.047 696.708,525.381 696,524.5C 694.806,526.525 693.306,526.859 691.5,525.5C 690.667,526.5 689.833,527.5 689,528.5C 687.416,527.139 685.582,526.472 683.5,526.5C 682.54,521.573 684.54,519.073 689.5,519C 692.029,516.358 693.029,513.192 692.5,509.5C 702.833,499.5 713.167,489.5 723.5,479.5 Z"/></g>
<g><path style="opacity:1" fill="#ecdbd0" d="M 732.5,492.5 C 733.609,492.557 734.609,492.89 735.5,493.5C 736.634,499.702 734.301,502.035 728.5,500.5C 726.333,495.845 727.666,493.179 732.5,492.5 Z"/></g>
<g><path style="opacity:0.999" fill="#594641" d="M 520.5,494.5 C 520.111,499.788 522.444,502.455 527.5,502.5C 504.196,526.969 480.03,550.636 455,573.5C 449.477,580.193 444.977,587.527 441.5,595.5C 440.008,591.666 439.341,587.666 439.5,583.5C 439.135,579.479 439.968,575.812 442,572.5C 447.5,566.333 453,560.167 458.5,554C 479.642,534.692 500.309,514.858 520.5,494.5 Z"/></g>
<g><path style="opacity:1" fill="#dac9c2" d="M 576.5,499.5 C 580.676,498.831 582.009,500.331 580.5,504C 579.207,504.49 577.873,504.657 576.5,504.5C 576.5,502.833 576.5,501.167 576.5,499.5 Z"/></g>
<g><path style="opacity:0.999" fill="#231c28" d="M 628.5,499.5 C 628.215,501.288 628.548,502.955 629.5,504.5C 633.224,503.624 636.89,502.624 640.5,501.5C 617.137,525.863 593.137,549.53 568.5,572.5C 565.537,572.151 563.204,573.151 561.5,575.5C 559.559,575.196 557.893,574.363 556.5,573C 558.734,571.362 560.067,569.195 560.5,566.5C 582.529,543.47 605.196,521.137 628.5,499.5 Z"/></g>
<g><path style="opacity:0.996" fill="#53403c" d="M 751.5,592.5 C 748.518,592.827 745.685,592.827 743,592.5C 742.833,592.167 742.667,591.833 742.5,591.5C 748.54,591.228 749.04,589.562 744,586.5C 743.685,584.414 743.185,582.414 742.5,580.5C 767.889,553.61 794.389,527.943 822,503.5C 820.436,514.634 816.103,524.634 809,533.5C 790.582,554.082 771.415,573.749 751.5,592.5 Z"/></g>
<g><path style="opacity:1" fill="#dbc4b6" d="M 722.5,506.5 C 723.93,508.455 723.597,510.121 721.5,511.5C 718.611,511.001 717.944,509.501 719.5,507C 720.448,506.517 721.448,506.351 722.5,506.5 Z"/></g>
<g><path style="opacity:0.998" fill="#73584c" d="M 195.5,503.5 C 197.988,525.951 205.655,546.617 218.5,565.5C 216.565,566.15 214.565,566.483 212.5,566.5C 212.84,562.869 212.006,559.536 210,556.5C 209.107,555.289 208.274,555.289 207.5,556.5C 206.811,558.444 206.311,560.444 206,562.5C 204.168,558.729 202.335,555.063 200.5,551.5C 199.5,551.5 198.5,551.5 197.5,551.5C 190.928,540.45 186.928,528.45 185.5,515.5C 187.297,514.27 189.297,513.604 191.5,513.5C 191.28,510.6 191.946,507.933 193.5,505.5C 194.251,506.376 194.751,507.376 195,508.5C 195.494,506.866 195.66,505.199 195.5,503.5 Z"/></g>
<g><path style="opacity:1" fill="#d9c8be" d="M 566.5,510.5 C 570.161,510.35 571.161,511.85 569.5,515C 568.552,515.483 567.552,515.649 566.5,515.5C 566.5,513.833 566.5,512.167 566.5,510.5 Z"/></g>
<g><path style="opacity:0.996" fill="#56433d" d="M 542.5,511.5 C 542.319,514.553 542.152,517.553 542,520.5C 544.719,519.556 547.552,519.223 550.5,519.5C 550.5,520.5 550.5,521.5 550.5,522.5C 546.221,521.454 543.555,522.954 542.5,527C 544.974,527.037 546.974,527.87 548.5,529.5C 546.025,530.687 545.025,532.687 545.5,535.5C 548.313,535.975 550.313,534.975 551.5,532.5C 552.458,532.953 553.292,533.619 554,534.5C 555.333,532.5 556.667,530.5 558,528.5C 558.333,528.833 558.667,529.167 559,529.5C 558.807,527.918 557.974,526.584 556.5,525.5C 559.779,524.969 561.113,522.969 560.5,519.5C 560.435,519.062 560.601,518.728 561,518.5C 562.41,519.787 563.91,520.954 565.5,522C 565.043,522.414 564.709,522.914 564.5,523.5C 566.821,527.717 570.155,528.717 574.5,526.5C 574.5,523.5 574.5,520.5 574.5,517.5C 578.53,517.201 582.363,516.201 586,514.5C 587.11,516.037 588.61,516.703 590.5,516.5C 573.527,533.139 556.527,549.806 539.5,566.5C 536.68,568.381 533.68,569.048 530.5,568.5C 530.024,571.119 528.691,573.119 526.5,574.5C 526.167,574.333 525.833,574.167 525.5,574C 527.037,571.687 527.537,569.187 527,566.5C 524.445,564.945 522.612,562.778 521.5,560C 520.552,559.517 519.552,559.351 518.5,559.5C 515.833,559.5 513.167,559.5 510.5,559.5C 507.392,559.431 506.058,557.431 506.5,553.5C 506.27,549.561 507.937,546.728 511.5,545C 510.584,544.722 509.918,544.222 509.5,543.5C 519.644,531.803 530.644,521.136 542.5,511.5 Z"/></g>
<g><path style="opacity:0.995" fill="#201817" d="M 458.5,522.5 C 454.851,520.829 451.184,519.496 447.5,518.5C 452.663,516.213 456.329,517.547 458.5,522.5 Z"/></g>
<g><path style="opacity:0.996" fill="#584540" d="M 447.5,518.5 C 451.184,519.496 454.851,520.829 458.5,522.5C 458.895,529.606 455.561,532.772 448.5,532C 445.317,530.982 443.984,528.815 444.5,525.5C 444.172,522.499 445.172,520.166 447.5,518.5 Z"/></g>
<g><path style="opacity:1" fill="#513f3b" d="M 692.5,509.5 C 693.029,513.192 692.029,516.358 689.5,519C 684.54,519.073 682.54,521.573 683.5,526.5C 685.582,526.472 687.416,527.139 689,528.5C 689.833,527.5 690.667,526.5 691.5,525.5C 693.306,526.859 694.806,526.525 696,524.5C 696.708,525.381 697.542,526.047 698.5,526.5C 698.5,526.833 698.5,527.167 698.5,527.5C 697.5,527.5 696.5,527.5 695.5,527.5C 695.5,529.167 695.5,530.833 695.5,532.5C 695.123,534.258 694.456,535.925 693.5,537.5C 695.475,538.275 696.309,539.609 696,541.5C 694.587,543.414 692.753,544.747 690.5,545.5C 690.407,544.528 690.074,543.528 689.5,542.5C 689.5,541.5 689.5,540.5 689.5,539.5C 690.043,539.44 690.376,539.107 690.5,538.5C 683.991,536.704 680.158,539.038 679,545.5C 680.356,546.38 681.856,546.714 683.5,546.5C 683.649,547.552 683.483,548.552 683,549.5C 681.15,549.317 679.317,549.317 677.5,549.5C 675.62,549.229 674.287,549.896 673.5,551.5C 672.035,552.406 671.035,553.739 670.5,555.5C 668.257,556.474 665.924,556.808 663.5,556.5C 663.5,555.5 663.5,554.5 663.5,553.5C 659.157,553.347 656.99,555.347 657,559.5C 657.708,560.381 658.542,561.047 659.5,561.5C 659.5,562.167 659.5,562.833 659.5,563.5C 658.778,563.918 658.278,564.584 658,565.5C 655.333,562.833 652.667,560.167 650,557.5C 648.388,560.079 646.888,560.079 645.5,557.5C 646.63,556.378 647.297,555.044 647.5,553.5C 662.527,538.806 677.527,524.139 692.5,509.5 Z"/></g>
<g><path style="opacity:1" fill="#dac6bd" d="M 560.5,519.5 C 561.113,522.969 559.779,524.969 556.5,525.5C 554.414,521.341 555.748,519.341 560.5,519.5 Z"/></g>
<g><path style="opacity:1" fill="#87685a" d="M 297.5,522.5 C 298.117,522.611 298.617,522.944 299,523.5C 299.651,535.191 299.318,546.857 298,558.5C 288.116,551.442 285.116,542.109 289,530.5C 292.333,528.333 295.166,525.666 297.5,522.5 Z"/></g>
<g><path style="opacity:1" fill="#e1cdbc" d="M 698.5,527.5 C 700.377,528.659 700.877,530.326 700,532.5C 698.51,533.728 697.01,533.728 695.5,532.5C 695.5,530.833 695.5,529.167 695.5,527.5C 696.5,527.5 697.5,527.5 698.5,527.5 Z"/></g>
<g><path style="opacity:1" fill="#d6c2b6" d="M 548.5,529.5 C 550.5,529.5 551.5,530.5 551.5,532.5C 550.313,534.975 548.313,535.975 545.5,535.5C 545.025,532.687 546.025,530.687 548.5,529.5 Z"/></g>
<g><path style="opacity:1" fill="#5a4741" d="M 722.5,506.5 C 721.448,506.351 720.448,506.517 719.5,507C 717.944,509.501 718.611,511.001 721.5,511.5C 719.925,513.114 719.259,515.114 719.5,517.5C 718.325,517.281 717.325,517.614 716.5,518.5C 717.305,520.915 718.305,523.249 719.5,525.5C 715.766,526.728 715.599,528.395 719,530.5C 720,529.167 721,529.167 722,530.5C 722.49,529.207 722.657,527.873 722.5,526.5C 726.701,526.149 729.701,523.983 731.5,520C 733.345,518.872 735.345,518.372 737.5,518.5C 708.089,548.411 678.422,578.245 648.5,608C 629.767,616.11 619.767,609.943 618.5,589.5C 618.294,584.578 619.794,580.245 623,576.5C 630.735,568.262 638.901,560.595 647.5,553.5C 647.297,555.044 646.63,556.378 645.5,557.5C 646.888,560.079 648.388,560.079 650,557.5C 652.667,560.167 655.333,562.833 658,565.5C 658.278,564.584 658.778,563.918 659.5,563.5C 660.067,570.063 663.4,572.063 669.5,569.5C 671.817,559.818 668.483,557.151 659.5,561.5C 658.542,561.047 657.708,560.381 657,559.5C 656.99,555.347 659.157,553.347 663.5,553.5C 663.5,554.5 663.5,555.5 663.5,556.5C 665.924,556.808 668.257,556.474 670.5,555.5C 671.035,553.739 672.035,552.406 673.5,551.5C 673.5,552.833 673.5,554.167 673.5,555.5C 674.833,555.5 676.167,555.5 677.5,555.5C 677.5,553.5 677.5,551.5 677.5,549.5C 679.317,549.317 681.15,549.317 683,549.5C 683.483,548.552 683.649,547.552 683.5,546.5C 681.856,546.714 680.356,546.38 679,545.5C 680.158,539.038 683.991,536.704 690.5,538.5C 690.376,539.107 690.043,539.44 689.5,539.5C 686.722,539.022 684.722,540.022 683.5,542.5C 685.538,545.152 687.538,545.152 689.5,542.5C 690.074,543.528 690.407,544.528 690.5,545.5C 692.753,544.747 694.587,543.414 696,541.5C 696.309,539.609 695.475,538.275 693.5,537.5C 694.456,535.925 695.123,534.258 695.5,532.5C 697.01,533.728 698.51,533.728 700,532.5C 700.877,530.326 700.377,528.659 698.5,527.5C 698.5,527.167 698.5,526.833 698.5,526.5C 700.842,526.496 702.842,525.663 704.5,524C 704.167,523.667 703.833,523.333 703.5,523C 704.128,520.2 705.128,517.533 706.5,515C 709.436,513.955 712.436,513.121 715.5,512.5C 716.044,509.286 717.044,506.286 718.5,503.5C 720.261,504.035 721.594,505.035 722.5,506.5 Z"/></g>
<g><path style="opacity:1" fill="#decdc1" d="M 708.5,515.5 C 709.708,516.234 711.041,516.567 712.5,516.5C 712.5,518.167 712.5,519.833 712.5,521.5C 711.167,521.5 709.833,521.5 708.5,521.5C 708.5,519.5 708.5,517.5 708.5,515.5 Z"/></g>
<g><path style="opacity:0.999" fill="#5d4a46" d="M 341.5,513.5 C 341.5,523.5 341.5,533.5 341.5,543.5C 344.777,543.216 347.943,543.549 351,544.5C 352.039,538.065 352.873,531.731 353.5,525.5C 351.298,558.411 361.964,586.244 385.5,609C 382.351,609.274 379.351,608.608 376.5,607C 359.428,596.381 348.595,581.214 344,561.5C 340.418,545.517 339.584,529.517 341.5,513.5 Z"/></g>
<g><path style="opacity:0.998" fill="#624c45" d="M 685.5,703.5 C 683.5,703.5 681.5,703.5 679.5,703.5C 679.448,701.097 679.781,698.764 680.5,696.5C 705.225,667.937 734.225,644.77 767.5,627C 775.119,621.716 782.452,616.049 789.5,610C 809.538,590.306 827.705,569.139 844,546.5C 846.588,542.326 848.921,537.993 851,533.5C 850.523,542.608 848.19,551.275 844,559.5C 831.37,577.808 816.87,594.641 800.5,610C 778.027,627.07 755.027,643.404 731.5,659C 715.967,673.7 700.634,688.534 685.5,703.5 Z"/></g>
<g><path style="opacity:0.995" fill="#624e47" d="M 312.5,518.5 C 312.334,524.842 312.5,531.175 313,537.5C 313.333,534.833 313.667,532.167 314,529.5C 314.499,533.821 314.666,538.154 314.5,542.5C 316.599,543.231 318.599,543.231 320.5,542.5C 321.172,540.47 321.838,538.47 322.5,536.5C 323.803,555.355 329.303,573.021 339,589.5C 344.007,596.666 349.174,603.666 354.5,610.5C 353.378,614.597 351.044,615.43 347.5,613C 328.668,597.188 317.168,577.021 313,552.5C 311.632,544.386 310.798,536.22 310.5,528C 310.515,524.424 311.182,521.258 312.5,518.5 Z"/></g>
<g><path style="opacity:1" fill="#e6d6cf" d="M 535.5,539.5 C 536.708,540.234 538.041,540.567 539.5,540.5C 539.5,541.833 539.5,543.167 539.5,544.5C 538.167,544.5 536.833,544.5 535.5,544.5C 535.5,542.833 535.5,541.167 535.5,539.5 Z"/></g>
<g><path style="opacity:1" fill="#dcc6b6" d="M 689.5,539.5 C 689.5,540.5 689.5,541.5 689.5,542.5C 687.538,545.152 685.538,545.152 683.5,542.5C 684.722,540.022 686.722,539.022 689.5,539.5 Z"/></g>
<g><path style="opacity:0.998" fill="#453435" d="M 430.5,541.5 C 438.505,540.342 441.339,543.675 439,551.5C 434.867,555.801 431.2,555.467 428,550.5C 427.626,549.584 427.126,548.75 426.5,548C 427.234,545.439 428.567,543.273 430.5,541.5 Z"/></g>
<g><path style="opacity:0.998" fill="#604b42" d="M 509.5,543.5 C 509.918,544.222 510.584,544.722 511.5,545C 507.937,546.728 506.27,549.561 506.5,553.5C 506.058,557.431 507.392,559.431 510.5,559.5C 509.072,562.012 508.572,564.678 509,567.5C 512.048,571.01 515.381,571.343 519,568.5C 519.634,565.445 519.468,562.445 518.5,559.5C 519.552,559.351 520.552,559.517 521.5,560C 522.612,562.778 524.445,564.945 527,566.5C 527.537,569.187 527.037,571.687 525.5,574C 525.833,574.167 526.167,574.333 526.5,574.5C 528.691,573.119 530.024,571.119 530.5,568.5C 533.68,569.048 536.68,568.381 539.5,566.5C 525.923,580.578 512.09,594.578 498,608.5C 492.825,614.864 487.658,621.197 482.5,627.5C 480.248,626.667 478.081,626.667 476,627.5C 476.904,623.651 475.404,620.985 471.5,619.5C 470.808,620.025 470.308,620.692 470,621.5C 468.989,620.663 467.822,620.33 466.5,620.5C 466.357,618.738 466.691,617.071 467.5,615.5C 465.146,614.406 463.479,612.739 462.5,610.5C 460.202,601.27 461.702,592.603 467,584.5C 480.732,570.266 494.898,556.6 509.5,543.5 Z"/></g>
<g><path style="opacity:1" fill="#d3c1ba" d="M 525.5,550.5 C 528.764,550.726 529.764,552.226 528.5,555C 527.552,555.483 526.552,555.649 525.5,555.5C 525.5,553.833 525.5,552.167 525.5,550.5 Z"/></g>
<g><path style="opacity:1" fill="#d3c0b5" d="M 677.5,549.5 C 677.5,551.5 677.5,553.5 677.5,555.5C 676.167,555.5 674.833,555.5 673.5,555.5C 673.5,554.167 673.5,552.833 673.5,551.5C 674.287,549.896 675.62,549.229 677.5,549.5 Z"/></g>
<g><path style="opacity:0.993" fill="#816152" d="M 197.5,551.5 C 198.5,551.5 199.5,551.5 200.5,551.5C 202.335,555.063 204.168,558.729 206,562.5C 206.311,560.444 206.811,558.444 207.5,556.5C 208.274,555.289 209.107,555.289 210,556.5C 212.006,559.536 212.84,562.869 212.5,566.5C 214.565,566.483 216.565,566.15 218.5,565.5C 229.543,576.209 239.876,587.542 249.5,599.5C 249.477,601.6 250.144,603.433 251.5,605C 248.403,608.584 246.07,608.084 244.5,603.5C 242.604,602.534 240.604,602.201 238.5,602.5C 223.296,589.803 210.462,575.136 200,558.5C 198.589,556.35 197.755,554.016 197.5,551.5 Z"/></g>
<g><path style="opacity:0.996" fill="#453235" d="M 615.5,549.5 C 614.653,552.16 614.153,554.826 614,557.5C 616.236,557.63 618.403,557.63 620.5,557.5C 605.716,573.621 590.05,588.621 573.5,602.5C 570.886,602.277 569.219,603.444 568.5,606C 567.365,606.749 566.365,606.583 565.5,605.5C 566.338,601.755 568.338,598.922 571.5,597C 570.619,596.292 569.953,595.458 569.5,594.5C 584.807,579.527 600.14,564.527 615.5,549.5 Z"/></g>
<g><path style="opacity:0.999" fill="#523f3a" d="M 294.5,580.5 C 295.459,584.298 297.459,587.465 300.5,590C 298.045,591.54 295.379,591.874 292.5,591C 290.559,589.097 288.226,588.264 285.5,588.5C 277.869,580.368 270.036,572.368 262,564.5C 261.333,563.5 261.333,562.5 262,561.5C 263.833,559.667 265.667,557.833 267.5,556C 268.5,555.333 269.5,555.333 270.5,556C 278.702,564.035 286.702,572.202 294.5,580.5 Z"/></g>
<g><path style="opacity:0.997" fill="#e7d6ce" d="M 510.5,559.5 C 513.167,559.5 515.833,559.5 518.5,559.5C 519.468,562.445 519.634,565.445 519,568.5C 515.381,571.343 512.048,571.01 509,567.5C 508.572,564.678 509.072,562.012 510.5,559.5 Z"/></g>
<g><path style="opacity:1" fill="#e7d5c9" d="M 659.5,563.5 C 659.5,562.833 659.5,562.167 659.5,561.5C 668.483,557.151 671.817,559.818 669.5,569.5C 663.4,572.063 660.067,570.063 659.5,563.5 Z"/></g>
<g><path style="opacity:0.998" fill="#624e46" d="M 412.5,564.5 C 415.383,581.277 421.883,596.61 432,610.5C 442.03,620.196 451.697,630.196 461,640.5C 464.204,648.559 465.204,656.893 464,665.5C 461.252,660.334 458.252,655.334 455,650.5C 442.333,637.167 429.667,623.833 417,610.5C 410.246,601.658 405.08,591.992 401.5,581.5C 403.492,581.672 405.158,581.005 406.5,579.5C 407.333,580.5 408.167,581.5 409,582.5C 410.905,576.626 412.072,570.626 412.5,564.5 Z"/></g>
<g><path style="opacity:1" fill="#92715e" d="M 189.5,568.5 C 235.076,615.577 281.243,662.244 328,708.5C 330.583,711.997 332.916,715.664 335,719.5C 335.498,722.817 335.665,726.15 335.5,729.5C 334.127,729.657 332.793,729.49 331.5,729C 308.113,702.946 283.446,678.279 257.5,655C 240.667,637.5 223.833,620 207,602.5C 198.272,592.712 192.439,581.379 189.5,568.5 Z"/></g>
<g><path style="opacity:0.997" fill="#392a2e" d="M 560.5,566.5 C 560.067,569.195 558.734,571.362 556.5,573C 557.893,574.363 559.559,575.196 561.5,575.5C 563.204,573.151 565.537,572.151 568.5,572.5C 560.167,581.5 551.5,590.167 542.5,598.5C 539.833,598.5 537.167,598.5 534.5,598.5C 534.448,596.097 534.781,593.764 535.5,591.5C 543.5,582.833 551.833,574.5 560.5,566.5 Z"/></g>
<g><path style="opacity:1" fill="#b5a398" d="M 649.5,573.5 C 651.5,573.5 653.5,573.5 655.5,573.5C 655.5,575.167 655.5,576.833 655.5,578.5C 653.5,578.5 651.5,578.5 649.5,578.5C 649.5,576.833 649.5,575.167 649.5,573.5 Z"/></g>
<g><path style="opacity:1" fill="#644d43" d="M 260.5,574.5 C 282.442,593.274 302.942,613.608 322,635.5C 322.667,636.833 322.667,638.167 322,639.5C 319.957,641.208 318.29,643.208 317,645.5C 296.362,625.862 276.028,605.862 256,585.5C 255.748,581.209 257.248,577.543 260.5,574.5 Z"/></g>
<g><path style="opacity:1" fill="#ead9cf" d="M 494.5,575.5 C 503.231,574.55 505.564,577.883 501.5,585.5C 498.709,587.04 496.209,586.706 494,584.5C 493.264,581.408 493.431,578.408 494.5,575.5 Z"/></g>
<g><path style="opacity:0.999" fill="#5b473f" d="M 742.5,580.5 C 743.185,582.414 743.685,584.414 744,586.5C 749.04,589.562 748.54,591.228 742.5,591.5C 742.667,591.833 742.833,592.167 743,592.5C 745.685,592.827 748.518,592.827 751.5,592.5C 735.097,610.885 715.097,624.052 691.5,632C 684.564,635.94 677.897,640.273 671.5,645C 655.271,660.732 638.938,676.232 622.5,691.5C 618.973,692.26 615.64,693.594 612.5,695.5C 611.893,695.376 611.56,695.043 611.5,694.5C 625.988,678.512 640.988,663.012 656.5,648C 671.653,636.921 687.319,626.588 703.5,617C 716.37,604.628 729.37,592.462 742.5,580.5 Z"/></g>
<g><path style="opacity:1" fill="#e8d7cb" d="M 636.5,583.5 C 644.523,583.161 646.856,586.495 643.5,593.5C 635.622,596.798 632.789,594.132 635,585.5C 635.717,584.956 636.217,584.289 636.5,583.5 Z"/></g>
<g><path style="opacity:0.997" fill="#604c44" d="M 294.5,580.5 C 324.799,610.966 354.966,641.633 385,672.5C 386.511,674.862 388.011,677.195 389.5,679.5C 389.586,680.496 389.252,681.329 388.5,682C 389.357,682.689 390.023,683.522 390.5,684.5C 389.518,686.834 389.351,689.168 390,691.5C 388.423,688.325 386.59,687.991 384.5,690.5C 383.583,689.873 382.583,689.539 381.5,689.5C 379.43,687.036 377.596,684.369 376,681.5C 345.631,650.631 315.464,619.631 285.5,588.5C 288.226,588.264 290.559,589.097 292.5,591C 295.379,591.874 298.045,591.54 300.5,590C 297.459,587.465 295.459,584.298 294.5,580.5 Z"/></g>
<g><path style="opacity:0.999" fill="#8a6c5f" d="M 840.5,585.5 C 840.427,590.93 838.927,596.264 836,601.5C 831.484,609.675 825.651,616.842 818.5,623C 801.833,635.667 785.167,648.333 768.5,661C 765.298,662.483 761.964,662.817 758.5,662C 777.5,647 796.5,632 815.5,617C 825.888,608.017 834.221,597.517 840.5,585.5 Z"/></g>
<g><path style="opacity:0.998" fill="#5d4b44" d="M 669.5,681.5 C 667.703,680.27 665.703,679.604 663.5,679.5C 677.094,663.74 692.427,649.906 709.5,638C 734.789,625.551 757.122,609.051 776.5,588.5C 778.89,589.891 780.557,591.891 781.5,594.5C 777.015,599.485 772.349,604.319 767.5,609C 745.338,623.915 723.004,638.582 700.5,653C 690.5,661.667 681.167,671 672.5,681C 671.552,681.483 670.552,681.649 669.5,681.5 Z"/></g>
<g><path style="opacity:1" fill="#e9d5cb" d="M 477.5,592.5 C 487.818,592.322 490.151,596.489 484.5,605C 476.492,606.655 473.659,603.488 476,595.5C 476.513,594.473 477.013,593.473 477.5,592.5 Z"/></g>
<g><path style="opacity:0.993" fill="#5a4741" d="M 535.5,591.5 C 534.781,593.764 534.448,596.097 534.5,598.5C 537.167,598.5 539.833,598.5 542.5,598.5C 532.176,610.596 521.009,621.929 509,632.5C 504.242,639.023 499.742,645.689 495.5,652.5C 492.512,652.845 491.179,651.512 491.5,648.5C 491.893,645.397 492.393,642.397 493,639.5C 494.419,638.54 495.919,637.707 497.5,637C 495.881,636.764 494.881,635.931 494.5,634.5C 495.44,632.388 496.606,630.388 498,628.5C 510.422,615.91 522.922,603.577 535.5,591.5 Z"/></g>
<g><path style="opacity:0.997" fill="#54403c" d="M 569.5,594.5 C 569.953,595.458 570.619,596.292 571.5,597C 568.338,598.922 566.338,601.755 565.5,605.5C 566.365,606.583 567.365,606.749 568.5,606C 569.219,603.444 570.886,602.277 573.5,602.5C 564.172,613.494 554.172,623.828 543.5,633.5C 542.5,633.5 541.5,633.5 540.5,633.5C 540.737,632.209 540.404,631.209 539.5,630.5C 538.782,628.863 538.616,627.197 539,625.5C 548.672,614.661 558.839,604.328 569.5,594.5 Z"/></g>
<g><path style="opacity:0.998" fill="#665444" d="M 598.5,596.5 C 602.676,595.831 604.009,597.331 602.5,601C 601.207,601.49 599.873,601.657 598.5,601.5C 598.5,599.833 598.5,598.167 598.5,596.5 Z"/></g>
<g><path style="opacity:0.998" fill="#8c6d5b" d="M 249.5,599.5 C 283.16,632.327 316.326,665.66 349,699.5C 354.483,706.798 358.649,714.798 361.5,723.5C 360.709,728.604 357.709,730.604 352.5,729.5C 349.377,721.253 345.21,713.586 340,706.5C 305.964,671.965 272.131,637.298 238.5,602.5C 240.604,602.201 242.604,602.534 244.5,603.5C 246.07,608.084 248.403,608.584 251.5,605C 250.144,603.433 249.477,601.6 249.5,599.5 Z"/></g>
<g><path style="opacity:0.987" fill="#816558" d="M 462.5,610.5 C 463.479,612.739 465.146,614.406 467.5,615.5C 466.691,617.071 466.357,618.738 466.5,620.5C 467.822,620.33 468.989,620.663 470,621.5C 470.308,620.692 470.808,620.025 471.5,619.5C 475.404,620.985 476.904,623.651 476,627.5C 478.081,626.667 480.248,626.667 482.5,627.5C 481.171,630.48 479.838,633.48 478.5,636.5C 469.485,630.141 464.152,621.474 462.5,610.5 Z"/></g>
<g><path style="opacity:1" fill="#070617" d="M 620.5,624.5 C 620.654,628.025 619.321,630.859 616.5,633C 604.641,639.394 593.141,638.894 582,631.5C 580.589,629.35 579.755,627.016 579.5,624.5C 586.924,614.558 596.591,611.724 608.5,616C 613.236,617.92 617.236,620.753 620.5,624.5 Z"/></g>
<g><path style="opacity:0.998" fill="#705449" d="M 655.5,615.5 C 667.031,614.361 670.364,619.027 665.5,629.5C 657.91,633.691 653.577,631.524 652.5,623C 652.548,620.078 653.548,617.578 655.5,615.5 Z"/></g>
<g><path style="opacity:0.996" fill="#977865" d="M 204.5,613.5 C 220.325,629.825 236.325,645.992 252.5,662C 247.561,662.469 242.894,661.469 238.5,659C 227.568,649.403 218.068,638.569 210,626.5C 207.673,622.347 205.84,618.013 204.5,613.5 Z"/></g>
<g><path style="opacity:0.999" fill="#0a0918" d="M 427.5,672.5 C 426.686,670.369 426.186,668.036 426,665.5C 425.751,666.624 425.251,667.624 424.5,668.5C 422.872,667.465 421.205,667.465 419.5,668.5C 414.288,649.122 401.955,636.955 382.5,632C 376.995,631.339 371.662,630.506 366.5,629.5C 369.688,623.941 374.355,620.941 380.5,620.5C 397.041,620.522 410.541,626.856 421,639.5C 427.813,649.724 429.979,660.724 427.5,672.5 Z"/></g>
<g><path style="opacity:1" fill="#836555" d="M 579.5,624.5 C 579.755,627.016 580.589,629.35 582,631.5C 593.141,638.894 604.641,639.394 616.5,633C 619.321,630.859 620.654,628.025 620.5,624.5C 623.294,626.819 625.128,629.819 626,633.5C 631.071,659.762 620.238,672.596 593.5,672C 576.39,665.567 569.557,653.4 573,635.5C 574.689,631.44 576.856,627.773 579.5,624.5 Z"/></g>
<g><path style="opacity:0.999" fill="#7f6254" d="M 366.5,629.5 C 371.662,630.506 376.995,631.339 382.5,632C 401.955,636.955 414.288,649.122 419.5,668.5C 419.403,676.572 420.07,684.572 421.5,692.5C 419.28,697.272 416.78,701.938 414,706.5C 411.57,689.883 405.236,674.883 395,661.5C 384.833,651.333 374.667,641.167 364.5,631C 365.044,630.283 365.711,629.783 366.5,629.5 Z"/></g>
<g><path style="opacity:0.997" fill="#66524b" d="M 539.5,630.5 C 540.404,631.209 540.737,632.209 540.5,633.5C 541.5,633.5 542.5,633.5 543.5,633.5C 537.171,639.996 531.005,646.663 525,653.5C 519.418,662.004 516.084,671.338 515,681.5C 511.034,684.464 507.367,687.797 504,691.5C 503.205,669.266 511.038,650.766 527.5,636C 530.833,635.667 534.167,635.333 537.5,635C 539.037,633.89 539.703,632.39 539.5,630.5 Z"/></g>
<g><path style="opacity:0.998" fill="#6b544b" d="M 494.5,634.5 C 494.881,635.931 495.881,636.764 497.5,637C 495.919,637.707 494.419,638.54 493,639.5C 492.393,642.397 491.893,645.397 491.5,648.5C 491.179,651.512 492.512,652.845 495.5,652.5C 488.086,664.075 484.086,676.742 483.5,690.5C 482.517,694.298 482.183,698.298 482.5,702.5C 481.509,709.313 481.175,716.313 481.5,723.5C 479.208,723.756 477.041,723.423 475,722.5C 474.667,723.5 474.333,724.5 474,725.5C 473.5,711.837 473.333,698.171 473.5,684.5C 475.589,665.669 482.589,649.003 494.5,634.5 Z"/></g>
<g><path style="opacity:1" fill="#8f7265" d="M 818.5,637.5 C 819.675,637.281 820.675,637.614 821.5,638.5C 813.403,652.098 802.736,663.264 789.5,672C 786.519,673.164 783.519,673.831 780.5,674C 793.365,661.966 806.032,649.8 818.5,637.5 Z"/></g>
<g><path style="opacity:0.999" fill="#685147" d="M 377.5,694.5 C 377.808,696.924 377.474,699.257 376.5,701.5C 375.672,700.585 374.672,699.919 373.5,699.5C 371.104,700.075 368.771,700.408 366.5,700.5C 353.142,683.635 338.475,667.801 322.5,653C 324.693,649.124 327.693,646.457 331.5,645C 344.667,658.167 357.833,671.333 371,684.5C 373.426,687.691 375.593,691.025 377.5,694.5 Z"/></g>
<g><path style="opacity:1" fill="#665344" d="M 551.5,644.5 C 552.708,645.234 554.041,645.567 555.5,645.5C 555.5,646.833 555.5,648.167 555.5,649.5C 554.167,649.5 552.833,649.5 551.5,649.5C 551.5,647.833 551.5,646.167 551.5,644.5 Z"/></g>
<g><path style="opacity:0.999" fill="#8e6b5a" d="M 448.5,694.5 C 448.5,705.5 448.5,716.5 448.5,727.5C 445.412,727.623 442.745,726.623 440.5,724.5C 439.832,726.969 439.165,729.302 438.5,731.5C 438.83,715.991 438.496,700.658 437.5,685.5C 437.334,676.494 437.5,667.494 438,658.5C 444.848,669.541 448.348,681.541 448.5,694.5 Z"/></g>
<g><path style="opacity:1" fill="#161621" d="M 544.5,663.5 C 552.57,663.178 554.57,666.512 550.5,673.5C 543.525,675.356 541.025,672.689 543,665.5C 543.717,664.956 544.217,664.289 544.5,663.5 Z"/></g>
<g><path style="opacity:0.994" fill="#342b32" d="M 427.5,672.5 C 427.783,679.914 425.783,686.58 421.5,692.5C 420.07,684.572 419.403,676.572 419.5,668.5C 421.205,667.465 422.872,667.465 424.5,668.5C 425.251,667.624 425.751,666.624 426,665.5C 426.186,668.036 426.686,670.369 427.5,672.5 Z"/></g>
<g><path style="opacity:1" fill="#755c4e" d="M 233.5,668.5 C 238.894,667.554 240.561,669.554 238.5,674.5C 232.74,676.213 231.074,674.213 233.5,668.5 Z"/></g>
<g><path style="opacity:1" fill="#080a17" d="M 760.5,683.5 C 759.011,692.148 753.844,696.148 745,695.5C 736.635,695.947 731.135,692.28 728.5,684.5C 734.865,676.773 742.865,674.606 752.5,678C 755.597,679.273 758.264,681.107 760.5,683.5 Z"/></g>
<g><path style="opacity:1" fill="#11121e" d="M 256.5,677.5 C 268.544,676.375 273.378,681.709 271,693.5C 263.132,702.181 256.466,701.514 251,691.5C 250.333,689.167 250.333,686.833 251,684.5C 252.666,682.004 254.5,679.671 256.5,677.5 Z"/></g>
<g><path style="opacity:1" fill="#69544b" d="M 663.5,679.5 C 665.703,679.604 667.703,680.27 669.5,681.5C 643.84,707.993 617.673,733.993 591,759.5C 586.636,765.354 582.136,771.021 577.5,776.5C 575.62,776.771 574.287,776.104 573.5,774.5C 576.905,767.357 581.072,760.69 586,754.5C 611.094,728.57 636.927,703.57 663.5,679.5 Z"/></g>
<g><path style="opacity:0.996" fill="#775c51" d="M 389.5,679.5 C 397.149,689.143 401.816,700.143 403.5,712.5C 403.386,715.85 403.053,719.183 402.5,722.5C 402.598,724.619 403.431,726.286 405,727.5C 405.773,732.182 405.107,732.515 403,728.5C 402.383,729.449 402.549,730.282 403.5,731C 403,731.167 402.5,731.333 402,731.5C 399.953,730.391 397.787,729.724 395.5,729.5C 393.101,715.37 388.435,702.037 381.5,689.5C 382.583,689.539 383.583,689.873 384.5,690.5C 386.59,687.991 388.423,688.325 390,691.5C 389.351,689.168 389.518,686.834 390.5,684.5C 390.023,683.522 389.357,682.689 388.5,682C 389.252,681.329 389.586,680.496 389.5,679.5 Z"/></g>
<g><path style="opacity:1" fill="#100f1c" d="M 568.5,682.5 C 579.745,682.213 583.078,687.046 578.5,697C 565.083,699.575 561.749,694.742 568.5,682.5 Z"/></g>
<g><path style="opacity:1" fill="#9e897b" d="M 784.5,684.5 C 785.5,684.5 786.5,684.5 787.5,684.5C 787.5,686.167 787.5,687.833 787.5,689.5C 786.167,689.5 784.833,689.5 783.5,689.5C 783.366,687.708 783.699,686.042 784.5,684.5 Z"/></g>
<g><path style="opacity:1" fill="#836452" d="M 760.5,683.5 C 769.709,691.413 771.876,701.08 767,712.5C 758.605,727.087 746.772,730.587 731.5,723C 719.448,710.942 718.448,698.109 728.5,684.5C 731.135,692.28 736.635,695.947 745,695.5C 753.844,696.148 759.011,692.148 760.5,683.5 Z"/></g>
<g><path style="opacity:0.997" fill="#0c0b17" d="M 541.5,695.5 C 540.715,700.597 537.715,702.597 532.5,701.5C 526.85,702.513 523.85,700.179 523.5,694.5C 523.953,693.542 524.619,692.708 525.5,692C 529.5,691.333 533.5,691.333 537.5,692C 539.324,692.66 540.657,693.827 541.5,695.5 Z"/></g>
<g><path style="opacity:0.996" fill="#6c5147" d="M 622.5,691.5 C 606.157,707.843 590.157,724.509 574.5,741.5C 571.58,739.778 569.747,737.445 569,734.5C 582.4,720.264 596.567,706.93 611.5,694.5C 611.56,695.043 611.893,695.376 612.5,695.5C 615.64,693.594 618.973,692.26 622.5,691.5 Z"/></g>
<g><path style="opacity:1" fill="#a07a67" d="M 431.5,703.5 C 431.667,730.169 431.5,756.835 431,783.5C 428.619,782.565 426.119,782.232 423.5,782.5C 422.377,779.625 421.544,776.625 421,773.5C 420.5,758.504 420.333,743.504 420.5,728.5C 420.334,723.489 420.501,718.489 421,713.5C 425.136,706.895 428.469,699.895 431,692.5C 431.499,696.152 431.665,699.818 431.5,703.5 Z"/></g>
<g><path style="opacity:0.996" fill="#a88771" d="M 282.5,695.5 C 283.873,695.343 285.207,695.51 286.5,696C 298,706.167 308.833,717 319,728.5C 327.797,739.736 331.63,752.403 330.5,766.5C 327.833,764.833 325.167,763.167 322.5,761.5C 321.422,748.759 316.922,737.425 309,727.5C 302.833,721.333 296.667,715.167 290.5,709C 287.029,706.928 283.362,705.428 279.5,704.5C 279.977,701.345 280.977,698.345 282.5,695.5 Z"/></g>
<g><path style="opacity:0.998" fill="#7f6356" d="M 377.5,694.5 C 387.131,709.025 391.131,725.025 389.5,742.5C 387.022,744.781 385.022,747.448 383.5,750.5C 382.833,747.358 382.166,744.358 381.5,741.5C 379.451,726.681 374.451,713.015 366.5,700.5C 368.771,700.408 371.104,700.075 373.5,699.5C 374.672,699.919 375.672,700.585 376.5,701.5C 377.474,699.257 377.808,696.924 377.5,694.5 Z"/></g>
<g><path style="opacity:0.998" fill="#786050" d="M 523.5,694.5 C 523.85,700.179 526.85,702.513 532.5,701.5C 537.715,702.597 540.715,700.597 541.5,695.5C 545.473,702.519 544.473,709.019 538.5,715C 529.056,719.217 522.89,716.383 520,706.5C 518.593,701.599 519.76,697.599 523.5,694.5 Z"/></g>
<g><path style="opacity:0.998" fill="#7b6054" d="M 680.5,696.5 C 679.781,698.764 679.448,701.097 679.5,703.5C 681.5,703.5 683.5,703.5 685.5,703.5C 668.517,721.815 650.517,739.148 631.5,755.5C 630.07,755.421 628.736,755.754 627.5,756.5C 626.526,754.257 626.192,751.924 626.5,749.5C 643.836,731.164 661.836,713.497 680.5,696.5 Z"/></g>
<g><path style="opacity:0.749" fill="#c5a795" d="M 483.5,690.5 C 483.5,734.833 483.5,779.167 483.5,823.5C 480.615,823.806 477.948,823.473 475.5,822.5C 477.833,822.5 480.167,822.5 482.5,822.5C 482.5,799.833 482.5,777.167 482.5,754.5C 482.5,737.167 482.5,719.833 482.5,702.5C 482.183,698.298 482.517,694.298 483.5,690.5 Z"/></g>
<g><path style="opacity:0.989" fill="#957c6e" d="M 699.5,707.5 C 703.138,706.737 704.638,708.07 704,711.5C 699.549,714.283 695.383,717.45 691.5,721C 689.333,721.5 688.5,720.667 689,718.5C 692.704,714.964 696.204,711.298 699.5,707.5 Z"/></g>
<g><path style="opacity:0.999" fill="#9f816e" d="M 560.5,712.5 C 564.029,711.889 565.862,713.223 566,716.5C 562.638,720.609 558.471,721.942 553.5,720.5C 555.851,717.761 558.184,715.095 560.5,712.5 Z"/></g>
<g><path style="opacity:1" fill="#9f7b64" d="M 270.5,714.5 C 284.106,714.428 292.439,721.094 295.5,734.5C 292.729,734.579 290.063,734.079 287.5,733C 281.237,727.243 275.57,721.076 270.5,714.5 Z"/></g>
<g><path style="opacity:0.999" fill="#947564" d="M 513.5,739.5 C 513.5,746.833 513.5,754.167 513.5,761.5C 512.539,759.735 512.205,757.735 512.5,755.5C 508.429,754.588 504.429,754.588 500.5,755.5C 500.5,746.833 500.5,738.167 500.5,729.5C 501.629,726.082 503.629,723.249 506.5,721C 509.887,720.502 512.053,722.002 513,725.5C 513.499,730.155 513.666,734.821 513.5,739.5 Z"/></g>
<g><path style="opacity:1" fill="#776155" d="M 651.5,758.5 C 649.473,758.338 647.473,758.505 645.5,759C 644.211,760.802 642.544,761.969 640.5,762.5C 641.228,760.265 642.561,758.432 644.5,757C 647.5,754.667 650.5,752.333 653.5,750C 665.683,744.076 678.016,738.409 690.5,733C 696.337,729.582 702.004,725.916 707.5,722C 711.48,721.641 712.813,723.308 711.5,727C 704.9,730.605 698.566,734.605 692.5,739C 678.291,744.439 664.624,750.939 651.5,758.5 Z"/></g>
<g><path style="opacity:0.991" fill="#917160" d="M 473.5,684.5 C 473.333,698.171 473.5,711.837 474,725.5C 474.333,724.5 474.667,723.5 475,722.5C 477.041,723.423 479.208,723.756 481.5,723.5C 481.175,716.313 481.509,709.313 482.5,702.5C 482.5,719.833 482.5,737.167 482.5,754.5C 481.71,755.609 481.21,756.942 481,758.5C 480.667,755.5 480.333,752.5 480,749.5C 478.426,750.984 477.093,752.651 476,754.5C 475.667,753.167 475.333,751.833 475,750.5C 474.667,754.5 474.333,758.5 474,762.5C 472.555,753.274 472.055,743.94 472.5,734.5C 472.17,717.658 472.503,700.992 473.5,684.5 Z"/></g>
<g><path style="opacity:0.999" fill="#af8a73" d="M 361.5,723.5 C 365.532,727.586 367.365,732.586 367,738.5C 367.5,754.83 367.667,771.163 367.5,787.5C 363.306,787.27 359.806,785.603 357,782.5C 356.667,768.833 356.333,755.167 356,741.5C 355.137,737.375 353.97,733.375 352.5,729.5C 357.709,730.604 360.709,728.604 361.5,723.5 Z"/></g>
<g><path style="opacity:0.999" fill="#a17c67" d="M 448.5,727.5 C 448.5,744.5 448.5,761.5 448.5,778.5C 447.596,777.791 447.263,776.791 447.5,775.5C 444.552,775.223 441.719,775.556 439,776.5C 438.5,761.504 438.333,746.504 438.5,731.5C 439.165,729.302 439.832,726.969 440.5,724.5C 442.745,726.623 445.412,727.623 448.5,727.5 Z"/></g>
<g><path style="opacity:0.749" fill="#c5a693" d="M 448.5,694.5 C 449.499,735.33 449.832,776.33 449.5,817.5C 446.941,817.802 444.607,817.468 442.5,816.5C 444.5,816.5 446.5,816.5 448.5,816.5C 448.5,803.833 448.5,791.167 448.5,778.5C 448.5,761.5 448.5,744.5 448.5,727.5C 448.5,716.5 448.5,705.5 448.5,694.5 Z"/></g>
<g><path style="opacity:0.995" fill="#957564" d="M 403.5,712.5 C 404.117,712.611 404.617,712.944 405,713.5C 406.116,720.792 406.616,728.126 406.5,735.5C 406.5,744.5 406.5,753.5 406.5,762.5C 404.167,762.5 401.833,762.5 399.5,762.5C 398.344,760.958 398.011,756.625 398.5,749.5C 399.043,748.258 399.377,746.925 399.5,745.5C 397.229,740.435 395.896,735.102 395.5,729.5C 397.787,729.724 399.953,730.391 402,731.5C 402.5,731.333 403,731.167 403.5,731C 402.549,730.282 402.383,729.449 403,728.5C 405.107,732.515 405.773,732.182 405,727.5C 403.431,726.286 402.598,724.619 402.5,722.5C 403.053,719.183 403.386,715.85 403.5,712.5 Z"/></g>
<g><path style="opacity:1" fill="#9c7a66" d="M 533.5,769.5 C 533.664,772.187 533.497,774.854 533,777.5C 532.667,777.167 532.333,776.833 532,776.5C 532.143,780.466 530.309,782.466 526.5,782.5C 526.587,785.598 526.087,785.932 525,783.5C 523.729,784.883 522.229,785.883 520.5,786.5C 520.5,776.167 520.5,765.833 520.5,755.5C 520.172,747.407 520.839,739.407 522.5,731.5C 524.487,733.327 526.821,734.327 529.5,734.5C 524.531,746.913 525.864,758.58 533.5,769.5 Z"/></g>
<g><path style="opacity:0.998" fill="#13111c" d="M 338.5,733.5 C 350.201,733.271 352.534,737.771 345.5,747C 336.561,748.96 333.061,745.46 335,736.5C 336.145,735.364 337.312,734.364 338.5,733.5 Z"/></g>
<g><path style="opacity:1" fill="#7c5e4e" d="M 456.5,734.5 C 463.887,732.883 466.22,735.549 463.5,742.5C 461.257,743.474 458.924,743.808 456.5,743.5C 456.5,740.5 456.5,737.5 456.5,734.5 Z"/></g>
<g><path style="opacity:1" fill="#9e8175" d="M 721.5,737.5 C 724.187,737.336 726.854,737.503 729.5,738C 719.804,744.851 710.47,752.184 701.5,760C 697.993,762.254 694.327,764.254 690.5,766C 688.272,766.82 686.272,766.487 684.5,765C 695.888,754.429 708.222,745.262 721.5,737.5 Z"/></g>
<g><path style="opacity:1" fill="#8c6552" d="M 299.5,738.5 C 304.894,737.554 306.561,739.554 304.5,744.5C 302.994,745.747 301.494,745.747 300,744.5C 299.505,742.527 299.338,740.527 299.5,738.5 Z"/></g>
<g><path style="opacity:1" fill="#0e101d" d="M 546.5,740.5 C 560.082,740.232 565.248,746.565 562,759.5C 556.963,765.99 550.796,767.156 543.5,763C 537.327,754.363 538.327,746.863 546.5,740.5 Z"/></g>
<g><path style="opacity:0.998" fill="#a37e6a" d="M 381.5,741.5 C 382.166,744.358 382.833,747.358 383.5,750.5C 385.022,747.448 387.022,744.781 389.5,742.5C 389.148,745.073 389.648,747.406 391,749.5C 391.5,766.163 391.667,782.83 391.5,799.5C 388.646,799.076 385.979,798.076 383.5,796.5C 381.751,778.215 381.084,759.881 381.5,741.5 Z"/></g>
<g><path style="opacity:0.999" fill="#b28f7b" d="M 472.5,734.5 C 472.055,743.94 472.555,753.274 474,762.5C 474.333,758.5 474.667,754.5 475,750.5C 475.333,751.833 475.667,753.167 476,754.5C 477.093,752.651 478.426,750.984 480,749.5C 480.333,752.5 480.667,755.5 481,758.5C 481.21,756.942 481.71,755.609 482.5,754.5C 482.5,777.167 482.5,799.833 482.5,822.5C 480.167,822.5 477.833,822.5 475.5,822.5C 474.167,822.5 472.833,822.5 471.5,822.5C 471.169,792.995 471.502,763.662 472.5,734.5 Z"/></g>
<g><path style="opacity:0.994" fill="#947460" d="M 626.5,749.5 C 626.192,751.924 626.526,754.257 627.5,756.5C 628.736,755.754 630.07,755.421 631.5,755.5C 626.733,761.442 621.733,767.275 616.5,773C 611.833,773.667 607.167,773.667 602.5,773C 609.705,764.294 617.705,756.461 626.5,749.5 Z"/></g>
<g><path style="opacity:1" fill="#b99a84" d="M 341.5,755.5 C 342.5,755.5 343.5,755.5 344.5,755.5C 344.5,759.5 344.5,763.5 344.5,767.5C 343.5,767.5 342.5,767.5 341.5,767.5C 341.5,763.5 341.5,759.5 341.5,755.5 Z"/></g>
<g><path style="opacity:0.998" fill="#967a6c" d="M 651.5,758.5 C 647.87,762.631 644.037,766.631 640,770.5C 637.306,774.554 635.139,778.888 633.5,783.5C 629.049,785.524 626.883,784.191 627,779.5C 629.897,772.45 634.397,766.783 640.5,762.5C 642.544,761.969 644.211,760.802 645.5,759C 647.473,758.505 649.473,758.338 651.5,758.5 Z"/></g>
<g><path style="opacity:0.992" fill="#ae8a73" d="M 406.5,735.5 C 407.654,758.338 407.654,781.338 406.5,804.5C 403.426,804.127 400.426,803.461 397.5,802.5C 397.17,784.659 397.503,766.992 398.5,749.5C 398.011,756.625 398.344,760.958 399.5,762.5C 401.833,762.5 404.167,762.5 406.5,762.5C 406.5,753.5 406.5,744.5 406.5,735.5 Z"/></g>
<g><path style="opacity:0.992" fill="#ad8e7a" d="M 666.5,766.5 C 669.518,766.335 672.518,766.502 675.5,767C 670.945,770.334 669.278,774.834 670.5,780.5C 653.768,779.735 652.434,775.068 666.5,766.5 Z"/></g>
<g><path style="opacity:0.999" fill="#b49077" d="M 437.5,685.5 C 438.496,700.658 438.83,715.991 438.5,731.5C 438.333,746.504 438.5,761.504 439,776.5C 441.719,775.556 444.552,775.223 447.5,775.5C 447.263,776.791 447.596,777.791 448.5,778.5C 448.5,791.167 448.5,803.833 448.5,816.5C 446.5,816.5 444.5,816.5 442.5,816.5C 441.417,816.461 440.417,816.127 439.5,815.5C 438.686,813.234 438.186,810.9 438,808.5C 437.5,767.501 437.333,726.501 437.5,685.5 Z"/></g>
<g><path style="opacity:0.995" fill="#8f7063" d="M 573.5,774.5 C 574.287,776.104 575.62,776.771 577.5,776.5C 573.933,784.491 571.433,792.825 570,801.5C 569,802.833 568,802.833 567,801.5C 565.888,791.618 568.055,782.618 573.5,774.5 Z"/></g>
<g><path style="opacity:0.75" fill="#cdb19c" d="M 499.5,758.5 C 499.5,780.833 499.5,803.167 499.5,825.5C 502.167,825.5 504.833,825.5 507.5,825.5C 504.713,826.477 501.713,826.81 498.5,826.5C 498.169,803.661 498.503,780.994 499.5,758.5 Z"/></g>
<g><path style="opacity:1" fill="#b38c74" d="M 533.5,769.5 C 534.491,776.313 534.825,783.313 534.5,790.5C 534.5,802.167 534.5,813.833 534.5,825.5C 529.833,825.5 525.167,825.5 520.5,825.5C 520.5,812.5 520.5,799.5 520.5,786.5C 522.229,785.883 523.729,784.883 525,783.5C 526.087,785.932 526.587,785.598 526.5,782.5C 530.309,782.466 532.143,780.466 532,776.5C 532.333,776.833 532.667,777.167 533,777.5C 533.497,774.854 533.664,772.187 533.5,769.5 Z"/></g>
<g><path style="opacity:1" fill="#bc9b84" d="M 431.5,703.5 C 432.777,740.009 432.777,776.676 431.5,813.5C 427.901,812.301 424.235,811.301 420.5,810.5C 419.225,783.012 419.225,755.678 420.5,728.5C 420.333,743.504 420.5,758.504 421,773.5C 421.544,776.625 422.377,779.625 423.5,782.5C 426.119,782.232 428.619,782.565 431,783.5C 431.5,756.835 431.667,730.169 431.5,703.5 Z"/></g>
<g><path style="opacity:0.999" fill="#a2816d" d="M 598.5,786.5 C 604.509,786.334 610.509,786.501 616.5,787C 620.889,788.029 624.889,789.862 628.5,792.5C 609.521,792.807 595.187,801.141 585.5,817.5C 581.571,818.815 577.571,819.815 573.5,820.5C 572.575,807.515 577.575,797.682 588.5,791C 591.815,789.17 595.149,787.67 598.5,786.5 Z"/></g>
<g><path style="opacity:1" fill="#c9ab98" d="M 520.5,755.5 C 520.5,765.833 520.5,776.167 520.5,786.5C 520.5,799.5 520.5,812.5 520.5,825.5C 525.167,825.5 529.833,825.5 534.5,825.5C 534.5,813.833 534.5,802.167 534.5,790.5C 535.495,802.322 535.828,814.322 535.5,826.5C 530.167,826.5 524.833,826.5 519.5,826.5C 519.169,802.661 519.502,778.994 520.5,755.5 Z"/></g>
<g><path style="opacity:1" fill="#ae917b" d="M 651.5,787.5 C 662.024,789.953 662.024,792.619 651.5,795.5C 651.5,792.833 651.5,790.167 651.5,787.5 Z"/></g>
<g><path style="opacity:0.998" fill="#9a8061" d="M 459.5,787.5 C 461.479,788.812 463.145,790.479 464.5,792.5C 463.05,793.85 462.383,795.516 462.5,797.5C 459.273,797.22 456.607,795.887 454.5,793.5C 456.19,791.481 457.856,789.481 459.5,787.5 Z"/></g>
<g><path style="opacity:0.987" fill="#b7957d" d="M 500.5,729.5 C 500.5,738.167 500.5,746.833 500.5,755.5C 500.333,772.17 500.5,788.837 501,805.5C 501.17,803.285 501.837,801.285 503,799.5C 503.483,800.448 503.649,801.448 503.5,802.5C 505.677,802.586 507.677,803.253 509.5,804.5C 510.091,801.36 510.924,798.36 512,795.5C 512.333,805.167 512.667,814.833 513,824.5C 513.5,803.503 513.667,782.503 513.5,761.5C 513.5,754.167 513.5,746.833 513.5,739.5C 514.498,767.995 514.831,796.662 514.5,825.5C 512.167,825.5 509.833,825.5 507.5,825.5C 504.833,825.5 502.167,825.5 499.5,825.5C 499.5,803.167 499.5,780.833 499.5,758.5C 499.173,748.652 499.506,738.986 500.5,729.5 Z"/></g>
<g><path style="opacity:0.998" fill="#ab8772" d="M 513.5,761.5 C 513.667,782.503 513.5,803.503 513,824.5C 512.667,814.833 512.333,805.167 512,795.5C 510.924,798.36 510.091,801.36 509.5,804.5C 507.677,803.253 505.677,802.586 503.5,802.5C 503.649,801.448 503.483,800.448 503,799.5C 501.837,801.285 501.17,803.285 501,805.5C 500.5,788.837 500.333,772.17 500.5,755.5C 504.429,754.588 508.429,754.588 512.5,755.5C 512.205,757.735 512.539,759.735 513.5,761.5 Z"/></g>
<g><path style="opacity:1" fill="#af8974" d="M 551.5,800.5 C 560.572,804.391 560.739,808.724 552,813.5C 551.501,809.179 551.334,804.846 551.5,800.5 Z"/></g>
<g><path style="opacity:0.989" fill="#9f816e" d="M 614.5,803.5 C 620.29,803.096 625.956,803.596 631.5,805C 621.884,809.189 611.884,811.855 601.5,813C 605.192,808.834 609.525,805.667 614.5,803.5 Z"/></g>
</svg>
