<svg xmlns="http://www.w3.org/2000/svg" fill-rule="evenodd" clip-rule="evenodd" image-rendering="optimizeQuality" shape-rendering="geometricPrecision" text-rendering="geometricPrecision" viewBox="0 0 1024 1024">
  <path fill="#10202e" d="m460 142-2 1c1 0 2 1 1 2l-5-1-3 3 23 3c1-2 3-2 6-2v5c2-1 5-2 8-1l-1 8c-1-5-3-5-5-2-4-1-7 0-9 2a230 230 0 0 1-60 54c2 1 2 2-1 2-1 5 0 11 2 16-3 1-4 3-3 6l-32 29c-14 6-25 15-35 26-3 1-5 3-7 6-5 6-10 12-13 19 0-2-1-3-2-3l-2 5c-3-1-5-2-8-1l-1 4c-2-4-3-4-3 1l-2 1c5-16 14-30 26-42-3-4-5-6-9-7l-4 4c-1-2-2-3-3-2l-6-2-7 5 2-3c11-17 26-30 43-41 14-8 29-16 45-23 22-13 42-30 59-51-8 0-15 2-21 4-11 11-22 21-34 30l-50 26c-23 13-41 30-56 52-2-2-3-2-4-1-2 2-3 5-3 8l3 2v1c-5 7-8 15-10 24-2 4-4 9-4 14l-1-14c-2-4-4-4-4 0l1 4c-3 2-5 4-6 7 4-18 11-34 22-48a225 225 0 0 1 98-74c9-5 18-12 26-20l2-4 1-1c-2 0-3-1-3-2l2-3h-7c1-2 0-4-2-5h6c-1-2 0-4 1-5l-3-1 7-3c15-6 30-10 47-12z"/>
  <path fill="#fcf9e4" d="m514 156 1 2c1 6 1 13-1 20l2 4 1 2 7-2c2 2 3 6 3 10l2-9c-2-5-3-10-2-15h3a1080 1080 0 0 1 5 96l-2-7-1 1-1 14-1-11-1-1-1 4c-1-3 0-5 1-7-1-3-2-6-4-7l1-2-6-1c-2-2-3-3-4-2l4-3-1-2 3-2c0-3 1-6 4-7l1 1c1-3 0-5-1-7l-7-1c-2 0-3 0-4 2l-4-2a915 915 0 0 1 2 107l-8-1v-6l-2 4-1-2 2-6-3-10v-44l2-2-3-104v-4h14z"/>
  <path fill="#12222f" d="M488 152c3-1 7 0 10 2 2-3 4-3 6-1l-4 1 14 2h-14v4l-1 150-5-34 3-12-1-1-8 1v8c4-1 5 0 1 3l-4-3-2 2-2 14v-14c-9 7-17 15-25 24v-7h5c-7-5-13-4-18 1 3 3 3 4-2 3-2 0-3 1-3 3l-1-1 43-43 1-5c-5 0-10 2-14 3a1277 1277 0 0 1-47 44l-2-1 7-4c-5-1-7-3-4-7l5 5 6-9c1-1 2 0 3 1 0-2 1-3 2-1l1-3h3c-2-6-3-11-2-15a1661 1661 0 0 1-14 12c7-9 15-17 24-25-2-4-5-6-8-5l-16 16c-2-3-1-5 3-5l-4-2 1-5-2 2c-3-5-4-4-4 2l-1-2h-2l14-16 5-9-16 4-8 9c-1-3 0-5 3-6-2-5-3-11-2-16 3 0 3-1 1-2l4-2 1 1c24-8 44-22 59-41l7-13-2-1c2-3 4-3 5 2l1-8z"/>
  <path fill="#f6f6e5" d="m482 158 2 1-7 13c-15 19-35 33-59 41l-1-1c21-15 40-32 56-52 2-2 5-3 9-2z"/>
  <path fill="#e4edee" d="M480 189c3 0 4 2 3 5-4 0-5-2-3-5z"/>
  <path fill="#f6f5e3" d="m305 278-8 4 1 1c-3 0-5 1-7 3v-3c-2 0-3 2-4 4v-3c1-4 2-7 4-9 15-22 33-39 56-52l50-26c12-9 23-19 34-30 6-2 13-4 21-4-17 21-37 38-59 51-16 7-31 15-45 23-17 11-32 24-43 41z"/>
  <path fill="#10212e" d="M718 201c-3 0-5 1-7 3-3-2-3-3-1-5-4-3-6-3-6 0l-8 1v9h3l2 4v8c25 15 34 38 29 67l-8 21c6-5 11-11 15-17l5 1c0 2 2 3 5 3l-1 1 2 2c-8 17-22 28-41 32-16 3-30 0-42-8-10-8-17-16-22-26l-4-15-1-52c-4-26-15-48-35-64l-12-1c14 12 25 26 32 44l5 19 2 49a75 75 0 0 0 19 43l-1 1 3 3-3 3v9l-16-1c-2-1-2-2-2-3 1-6-1-10-6-12l-4-2c2-1 2-2-1-3 3 0 3-1 1-2l4-2v-7h4v-5l-9-2c-3-2-4-3-4-5h-3c-2-8-2-16-2-23h-4c-11-10-22-11-34-3-6 6-8 13-6 21l-2-8-2 10-1-1-3 12-2-1-3-7-2-3v16c-2 17-9 31-21 44l-26 25-1-1-4 3c-3-3-4-5-3-8-4-1-5-3-3-6l11-12c4-6 8-12 10-18v-82c4-3 6-2 8 3l-1 3a3034 3034 0 0 0 1 77c7-9 11-19 13-29l1-148h-16v19c2 4 1 6-4 7l-2-4c2-7 2-14 1-20l-1-2-14-2 4-1c-2-2-4-2-6 1-3-2-7-3-10-2-3-1-6 0-8 1v-5c-3 0-5 0-6 2l-23-3 3-3 5 1c1-1 0-2-1-2l2-1a326 326 0 0 1 258 59z"/>
  <path fill="#f3f2e2" d="m638 230-1 50h-3v-4c-2-1-3 0-4 1l-2-49-5-19c-7-18-18-32-32-44l12 1c20 16 31 38 35 64z"/>
  <path fill="#f0f2e0" d="M650 190c6 0 9 3 8 10-4 5-8 5-12 0v-6l4-4z"/>
  <path fill="#eaf0e9" d="M639 179c4 0 6 3 4 7-8 0-9-2-4-7z"/>
  <path fill="#91abb5" d="M552 159c23 8 41 23 52 46 3 4 2 7-2 10a93 93 0 0 0-49-49c-1-3-2-5-1-7z"/>
  <path fill="#f8f6e5" d="m411 174-2 4c-8 8-17 15-26 20-28 11-53 26-74 46l-8 1c-2-3-2-6-1-8 13-14 28-26 45-35 21-11 43-21 66-28z"/>
  <path fill="#eeefe4" d="M552 184a59 59 0 0 1 38 52h-10c-3-18-12-32-28-40v-12z"/>
  <path fill="#f9f8e7" d="M461 207c16 0 22 8 16 24-10 9-19 7-27-4-1-10 2-17 11-20z"/>
  <path fill="#e0e5e7" d="M554 214c3 0 4 2 3 5-4 0-5-2-3-5z"/>
  <path fill="#f8f8e6" d="M671 206c9-1 14 3 14 13-3 6-7 9-14 7-6-3-8-8-6-14 1-3 3-5 6-6z"/>
  <path fill="#d1d6ce" d="M653 224c2-1 4 1 5 4-3 5-5 5-7 0 0-2 0-3 2-4z"/>
  <path fill="#112330" d="m413 154-7 3 3 1c-1 1-2 3-1 5h-6c2 1 3 3 2 5h7l-2 3c0 1 1 2 3 2l-1 1c-23 7-45 17-66 28-17 9-32 21-45 35-5 3-10 7-14 12-6 7-12 14-16 23a134 134 0 0 0-21 60c-2 23-2 47-1 71l8 6v4h-4c-3 0-4 2-5 4-3-2-5-2-8 0-2-4-4-4-5 0-2-3-2-4 2-5l-4-3c3-1 6-2 9-5l1-89c0-5 1-9 3-13l-1-1c-6 7-11 16-14 25a1482 1482 0 0 0 0 84l-1-2-4 16h-4c5-7 5-13-1-19-11-2-16 2-15 13l4 5-3 2-2-2-3 1c-1-2 0-4 1-5-2-1-3-2-2-3-4-1-4 0-1 2l-2 5-4-10c-4 9-7 19-8 30a1984 1984 0 0 0-1-19c-5 0-8-1-11-3 0 1 0 3 2 4l-3 6-1-2a352 352 0 0 1 242-275z"/>
  <path fill="#f4f3e0" d="M416 250c-10 8-19 17-28 27l-1-7c-2-3-5-4-8-3a328 328 0 0 0 40-38l16-4-5 9-14 16z"/>
  <path fill="#f5f5e2" d="M701 213c33 16 45 42 36 79-4 6-9 12-15 17l8-21c5-29-4-52-29-67v-8z"/>
  <path fill="#10222f" d="M718 201a401 401 0 0 1 134 177c-4-2-8-3-12-2v8h-8v-8l-4-1 3-2-1-3c2-1 2-2 0-2-2 2-2 2-3 0l-1-11-1 2v9l-2-2 1-14c-2-2-4-1-4 2 0 1 0 3 2 4-1 2-2 2-3 1 1-9-1-16-6-22-7-7-15-9-24-6-4 2-7 5-8 9l-2 3c0-5 2-9 6-12l-2-3-7-1-2-4h-3l2-1c-2-3-3-3-4 0l-1-2-4 3c2 0 3 1 5 3-6-2-8-1-4 5-2 0-3 1-1 3-1 1-2 2-3 1-4 0-4 2-1 4-3 4-3 9 0 13l-1 3c-5 2-10 3-15 2 10 0 14-5 12-15-3-3-6-5-9-4l6-2c-1-2-2-4-1-5h-8l-2-4-7 1c19-17 27-37 24-62h-5c0 11-2 22-6 33l-2-2 1-1c-3 0-5-1-5-3l-5-1c9-37-3-63-36-79l-2-4h-3v-9l8-1c0-3 2-3 6 0-2 2-2 3 1 5 2-2 4-3 7-3z"/>
  <path fill="#9db6c1" d="M607 233c10 0 12 5 7 13-10 2-13-2-10-10l3-3z"/>
  <path fill="#f6f5e4" d="M556 235c10-1 13 3 8 12-5 2-8 2-11-2-1-4 0-8 3-10z"/>
  <path fill="#fbf8e9" d="m716 266-2 6a36 36 0 0 1-37 11c-9-2-17-6-22-13v-6c10-22 26-27 48-17 6 5 11 11 13 19z"/>
  <path fill="#f7f4e4" d="M404 231h3l-16 15c-18 9-35 19-51 29-4-2-6-5-7-8 20-19 44-31 71-36z"/>
  <path fill="#f8f5e5" d="M522 333a1483 1483 0 0 1 0-80c-2-5-4-6-8-3v82c-2 6-6 12-10 18-3-1-5 0-5 3l-3-3 4-5c-2-1-3-2-4-1l-1-15 4-19 1-150a7519 7519 0 0 0 1 106v44l3 10-2 6 1 2 2-4v6l8 1a915 915 0 0 0-2-107l4 2c1-2 2-2 4-2l7 1c1 2 2 4 1 7l-1-1c-3 1-4 4-4 7l-3 2 1 2-4 3c1-1 2 0 4 2l6 1-1 2c2 1 3 4 4 7-1 2-2 4-1 7l1-4 1 1 1 11 1-14 1-1 1 7a1080 1080 0 0 0-4-96h-3c-1 5 0 10 2 15l-2 9c0-4-1-8-3-10l-7 2-1-2c5-1 6-3 4-7v-19h16l-1 148c-2 10-6 20-13 29z"/>
  <path fill="#181e2e" d="M515 226c4-2 7-1 6 5-3 3-6 2-7-2l1-3z"/>
  <path fill="#14182a" d="M516 199c5 0 6 3 4 7-7 0-8-2-4-7z"/>
  <path fill="#e9ebdd" d="M300 237c-1 2-1 5 1 8l8-1c-9 8-17 17-24 28-2-1-3 0-3 1-2 2-3 4-3 7-3-1-5 0-6 1l2 2c-1 4-4 6-7 7l-1-4 2-1-1-4 2-9a113 113 0 0 1 30-35z"/>
  <path fill="#fbf8e8" d="M606 269c6 12 4 23-6 32-17 7-28 2-34-14-2-8 0-15 6-21 12-8 23-7 34 3z"/>
  <path fill="#11212e" d="m499 310-4 19-12 18a1166 1166 0 0 0-54 55c-9 7-17 15-24 24-4 2-7 4-10 8-2-2-3-3-1-5-2-5-5-7-10-5a108557 108557 0 0 0 93-95c4-7 6-14 6-21a903 903 0 0 1-50 48c-1-2-2-2-3-1l-6 10c-3-2-7-2-9 1l-3-2 9-5c-2-1-1-2 1-2l-5-2a4947 4947 0 0 0 64-67l2-14 2-2 4 3c4-3 3-4-1-3v-8l8-1 1 1-3 12 5 34z"/>
  <path fill="#dee1d9" d="m638 230 1 52 4 15c1 6-1 8-6 5-4-8-7-17-7-25 1-1 2-2 4-1v4h3l1-50z"/>
  <path fill="#899eae" d="M291 275c-2 2-3 5-4 9l-3-2c0-3 1-6 3-8 1-1 2-1 4 1z"/>
  <path fill="#101f2c" d="M379 267c3-1 6 0 8 3-1 5-3 7-8 6l-17 17c1 3 0 5-2 7l-6 1-19 20c-1 6-4 8-10 5-1-5 1-8 7-8a577 577 0 0 0 47-51z"/>
  <path fill="#e6eadc" d="M379 267a836 836 0 0 0-32 33l-2-1-2 5-1-1 2-10c10-11 21-20 35-26z"/>
  <path fill="#849fad" d="M655 264v6c5 7 13 11 22 13 14 3 27 0 37-11l2-6c4 17-1 31-15 42-19 7-33 3-44-13-4-11-4-21-2-31z"/>
  <path fill="#f1f3e4" d="M437 297c-24 22-47 44-69 68-2-1-3-2-4-1l-5 7-2-3-2-5 59-59 53-52c4-1 9-3 14-3l-1 5-43 43z"/>
  <path fill="#10212e" d="M624 320c-10-1-13 3-11 13 2 3 4 4 8 4s7-2 9-5c0 1 0 2 2 3l16 1v-9l3-3-3-3 1-1 7 6c7 6 16 10 26 13l-4 2-2-2h-3v-1c-1 0-2 1-1 3 5 0 5 0 0 1l-1 24c-3 2-6 2-9 1 1-2 2-4 1-5a605 605 0 0 0-6 3c-10-13-21-15-34-7-3 2-4 5-5 8-3 2-4 6-3 10-1 13 5 21 18 25l8 2-1 1-12-2c2 1 2 2-1 2 2 1 2 1 0 2l2 1-3 4-6-1-6-5c-17 15-34 31-49 48l-5 4c-1-2 0-4 2-5-2-5-5-8-10-8l19-20 26-28c-1-5-4-6-8-5-6 5-11 10-15 16l-5 4c-2-3-3-3-4 0l-5-3h8v-6l5-2 1-6 4-1c-1-2-1-2-2 0l-7-6 14-19c7-13 10-26 7-41h-3l-5 4c-2 10-7 20-13 29a148972 148972 0 0 1-46 44c-7 3-13 4-20 4-11 4-18 11-21 22-1 2-2 4-1 7h-4v-8c1-9 6-16 14-21 4-4 10-6 16-7 10-13 21-24 33-34 13-11 22-24 27-39l1-14-12-15 2 1 3-12 1 1 2-10 2 8c6 16 17 21 34 14 10-9 12-20 6-32h4c0 7 0 15 2 23h3c0 2 1 3 4 5l9 2v5h-4v7l-4 2c2 1 2 2-1 2 3 1 3 2 1 3l4 2z"/>
  <path fill="#8f9d9d" d="m553 292-2 13v-16l2 3z"/>
  <path fill="#dce1d7" d="m305 278-2 3c-7 10-12 21-15 34-3-1-4 0-4 3-2-2-3-1-4 1 1 0 2 1 1 2l2 3c-2 1-2 2 0 4l-1 1-3-2a342 342 0 0 1-2-12c2-2 2-4 0-6 2-9 5-17 10-24v2c1-2 2-4 4-4v3c2-2 4-3 7-3l-1-1 8-4z"/>
  <path fill="#dbe3e3" d="M619 299c5-1 6 1 3 5-4 0-5-2-3-5z"/>
  <path fill="#ebede3" d="m775 299 4 3 3-3c2 1 2 3 0 5 1 1 2 2 1 4-2 1-3 0-4-1-2 2-4 2-5 0 4-3 3-5-1-5 0-2 1-3 2-3z"/>
  <path fill="#f5f8e3" d="m425 274-54 53-7 1-1 4-2-1v5c-5-1-6 1-4 5-3 0-5-1-5-4l3-8 70-69 16-16c3-1 6 1 8 5-9 8-17 16-24 25z"/>
  <path fill="#d6ddd6" d="m270 272-2 9 1 4-2 1 1 4c3-1 6-3 7-7l-2-2c1-1 3-2 6-1 0-3 1-5 3-7 0-1 1-2 3-1a130 130 0 0 0-23 51l-4-2v-5c-1 3-3 3-5 2v-9c3-14 9-26 17-37z"/>
  <path fill="#bfcdcc" d="M643 297c5 10 12 18 22 26 1 3 0 5-4 6-1-2-3-3-5-3l-7-6-12-18c5 3 7 1 6-5z"/>
  <path fill="#91acb5" d="M232 409v-1l-2-5v-77c3-9 8-18 14-25l1 1c-2 4-3 8-3 13l-1 89c-3 3-6 4-9 5z"/>
  <path fill="#bdbfba" d="M521 256c-1 25 0 51 1 77l-3 3 2-80z"/>
  <path fill="#94adb7" d="M735 328c-8 5-16 8-24 11h-29c-10-3-19-7-26-13 2 0 4 1 5 3 4-1 5-3 4-6 12 8 26 11 42 8 19-4 33-15 41-32 4-11 6-22 6-33h5c3 25-5 45-24 62z"/>
  <path fill="#10212e" d="M779 343c-6 21 3 31 25 32 2 0 2 0 0 2l3 1-7 6v-3c-5-1-7 0-8 2v-3h-8v-6c-4-2-5-2-2 1-2-1-4-1-5 1l-2-1c0-2-1-3-3-3 2 2 2 4 0 6l3 3 1 5c3-1 5-2 8-1l6 2-13 2 1 2-70 69a1610271 1610271 0 0 1-169 168l2 6c-4 3-7 3-11 2l-5 4-2-1c2-2 4-5 7-6l6 2v-3h-5v-4c5-1 6-1 1-1l-2-5 2-6h-4a34815 34815 0 0 0 41-42l74-73 127-125-2-7-2-1c-17 15-34 30-49 47-4-2-4-4-1-7h-5c0-5-2-6-5-3-1-8-1-15 1-22 13 12 13 11 2-2l1-2 22-2-21-2-2-3c2-4 5-7 9-10h-1l-7 6-4-1c0-6 0-11 2-16-1-1-2-2-1-3h-6l-2-5h10c1 2 2 1 3-1l-1-3c8-3 16-6 24-11l7-1 2 4h8c-1 1 0 3 1 5l-6 2c-11 4-12 11-3 19 5 1 10 0 15-2l1-3c-3-4-3-9 0-13-3-2-3-4 1-4 1 1 2 0 3-1-2-2-1-3 1-3 2-1 4-3 4-5-2-2-3-3-5-3l4-3 1 2c1-3 2-3 4 0l-2 1h3l2 4 7 1 2 3c-4 3-6 7-6 12z"/>
  <path fill="#10202e" d="m425 260-70 69a91 91 0 0 1-42 27v16c10-3 19-8 28-15l30-30 54-53a1661 1661 0 0 0 14-12c-1 4 0 9 2 15h-3l-1 3c-1-2-2-1-2 1-1-1-2-2-3-1l-6 9-5-5c-3 4-1 6 4 7l-7 4 2 1a4867 4867 0 0 1-64 67c-1 1 0 3 1 5-1 5-3 7-8 5-1-2-3-3-4-2-10 8-21 13-32 18v29a835 835 0 0 0-4-29c-1 2-2 3-4 3l-1-5c-2 0-2 0 0-2l-9 2c-11-3-19 1-22 12a8282 8282 0 0 0-2 1h-3l-1 21c-2-3-4-3-6 1a1701 1701 0 0 0-1 102l-1-104-7-7h4v-4h1l2 2a1261 1261 0 0 0 3-88c-1-2 0-3 1-3 1-3 3-5 6-7l-1-4c0-4 2-4 4 0l1 14v56l9-4 1-36a130 130 0 0 1 20-58l7-5 6 2c1-1 2 0 3 2a99 99 0 0 0-30 66c-2 8-2 17 0 27l1-1c3-4 6-7 10-9 0-12 1-23 4-34l2-4 2-1c0-5 1-5 3-1l1-4c3-1 5 0 8 1l2-5c1 0 2 1 2 3l-8 20 1 2 26-17 45-46a89986 89986 0 0 1 30-27l1 2c0-6 1-7 4-2l2-2-1 5 4 2c-4 0-5 2-3 5z"/>
  <path fill="#dae0d8" d="m306 325-2 4c-2-1-4 0-5 1l-2-2c-2-4-2-8-2-11a99 99 0 0 1 28-41c4 1 6 3 9 7-12 12-21 26-26 42z"/>
  <path fill="#e7edee" d="M769 326c0 2-2 4-4 5-4-6-2-7 4-5z"/>
  <path fill="#e0e5dc" d="M624 320c5 2 7 6 6 12-2 3-5 5-9 5s-6-1-8-4c-2-10 1-14 11-13z"/>
  <path fill="#fbf9e9" d="M813 337c-2 6-6 11-12 12-8 2-15 0-20-5v-4c1-4 4-7 8-9 9-3 17-1 24 6z"/>
  <path fill="#d4ded6" d="m387 270 1 7-45 46-26 17-1-2 8-20c3-7 8-13 13-19 2-3 4-5 7-6l-2 10 1 1 2-5 2 1c1-2 3-3 5-2a577 577 0 0 1-27 28c6 3 9 1 10-5l19-20 6-1c2-2 3-4 2-7l17-17c5 1 7-1 8-6z"/>
  <path fill="#c3cfcc" d="M277 309c2 2 2 4 0 6v3l2 9 3 2 1-1c-2-2-2-3 0-4l-2-3c1-1 0-2-1-2 1-2 2-3 4-1 0-3 1-4 4-3-3 7-4 15-5 24l-1 36-9 4v-56c0-5 2-10 4-14z"/>
  <path fill="#c4cfce" d="M253 309v9c2 1 4 1 5-2v5l4 2-2 17a625 625 0 0 0-2 32c-2-1-3 0-4 2-1-2-2-1-2 1l-1-1-2 10v-52c-1-9 1-16 4-23z"/>
  <path fill="#c0cecc" d="M295 317c0 3 0 7 2 11l2 2c1-1 3-2 5-1-3 11-4 22-4 34-4 2-7 5-10 9-1-9-2-18-1-26-1-11 1-20 6-29z"/>
  <path fill="#f8f9e5" d="M747 338c3-1 6 1 9 4 2 10-2 15-12 15-9-8-8-15 3-19z"/>
  <path fill="#e9ece6" d="M656 341h5v4l-5 1v-5z"/>
  <path fill="#e4e8e3" d="M603 346h4l-2 6c-2-2-3-4-2-6z"/>
  <path fill="#f3f1e0" d="m553 292 3 7 12 15-1 14c-5 15-14 28-27 39l-1-1-4 4c-1-2-2-3-3-2l1 4-4 2-7-6c-2 2-4 2-4-2l2-5 1 2 9-14c12-13 19-27 21-44l2-13z"/>
  <path fill="#e9ebde" d="M583 368h-3l-1 4h-4l-3 6c-2-2-2-2-1 0l-3 1v-3h3c0-3-1-4-3-2l-1-2a2165 2165 0 0 0 3-6l-1-6c6-9 11-19 13-29l5-4h3c3 15 0 28-7 41z"/>
  <path fill="#f9f8e8" d="m657 365 1 4c-6 9-15 13-26 11-6-2-11-5-14-9v-5c1-3 2-6 5-8 13-8 24-6 34 7z"/>
  <path fill="#e3e6db" d="m495 329 1 15c1-1 2 0 4 1l-4 5 3 3c0-3 2-4 5-3l-11 12-28 27-5-2-4 1c0-4-2-6-4-7a1166 1166 0 0 1 32-34l11-18z"/>
  <path fill="#89a4b0" d="M813 337c5 6 7 13 6 22-3 7-8 12-15 16-22-1-31-11-25-32l2-3v4c5 5 12 7 20 5 6-1 10-6 12-12z"/>
  <path fill="#e4e7de" d="m481 288-5 8a4947 4947 0 0 1-75 74h-6c-2 2-3 4-3 7-1-2-2-2-3 0l-1-4 2-1c-2-3-1-3 1 0 1-2 0-3-1-4 2-1 2-1 0-2l3-5a2809 2809 0 0 1 88-87v14z"/>
  <path fill="#1c2931" d="M415 342c4 0 5 2 3 6-6 0-7-2-3-6z"/>
  <path fill="#4b5c62" d="M289 346c-1 8 0 17 1 26l-1 1c-2-10-2-19 0-27z"/>
  <path fill="#e8eade" d="m371 327-30 30c-9 7-18 12-28 15v-16c16-6 30-15 42-27l-3 8c0 3 2 4 5 4-2-4-1-6 4-5v-5l2 1 1-4 7-1z"/>
  <path fill="#eff0e2" d="M406 401c-5 0-7-2-6-6 4-6 9-11 15-15l1-3 24-25 43-44c0 7-2 14-6 21l-71 72z"/>
  <path fill="#6f8188" d="M260 340z"/>
  <path fill="#8a9fad" d="M214 356v20l-7-5c1-5 4-11 7-15z"/>
  <path fill="#e6e8dc" d="m530 349-9 14-1-2-2 5c0 4 2 4 4 2l7 6 4-2-1-4c1-1 2 0 3 2l4-4 1 1c-12 10-23 21-33 34-6 1-12 3-16 7h-7c-2 0-3 1-3 3-2-1-2-2 0-3l-5-2 4-4-1-3 25-25 26-25z"/>
  <path fill="#0f212f" d="M828 375c-2 2-2 3 1 5l3-4v8h8v-8c4-1 8 0 12 2a351 351 0 0 1 6 214c0-4-1-4-2-1v-3c-4-1-7 0-9 2-1-4-2-4-4-1v-1c0-2-1-3-2-1-6 11-14 21-24 30l-58 46h9l7 1c0 2 1 5 3 7l-1 3 5 5h-6c-1 3 0 6 2 8l-5 1 1 3c1-1 2-2 3-1l-3 6-2-3-2 5-1-4 3-6h-4v-3l-3-1 1-1-7-4-2-3-8-4c-2 0-4 2-5 4l-9 2-3-7c0-2 1-3 3-4-3-2-3-4-2-6l8-2v-5l62-45c15-15 29-31 41-48 5-9 7-18 8-27-9 18-22 35-36 50 0-3 2-5 4-6-2-2-4-3-6-2-4-2-3-3 2-2l-1-6c-3 1-3 3 0 4l-3 1-2-6c19-20 32-43 38-69v-8l-2 2c-2-3-3-4-6-3l-2-2-4 4c-4-1-7-2-10-1v-3c-3-1-5 0-7 1v-2c16 1 25-7 28-23l-4-13c-6-10-14-13-25-11-6 2-9 5-11 10-4 3-6 8-5 13-1 6 1 11 5 16-2-1-3 0-3 1v4l3 7-1 6c-4-2-7-5-9-8h-2L679 600c-1 2-2 5-1 8l-3 7-2-2-4 9c-3-6-8-8-13-5-2 1-3 3-3 5l-2-4 2-1c-2-2-4-2-5-1v7l-8 1v-5h-8c-2 3-2 6 0 9-3 1-4 3-3 7 4 0 4 0 0 1l-1 13-2-16-4-7c-8-10-18-13-30-10 1-2 4-2 7-2 5 1 11 1 17-1l-6-1 1-1c-3-1-4-3-4-5l-4-3 2-3h3l-1-7c-2-1-5-2-7-1-1-5-4-5-7-3 2 0 2 1 0 3-1-1-2-2-3-1l31-32a7936 7936 0 0 0 166-163c-1-7-4-9-9-5l-1-2 13-2-6-2c-3-1-5 0-8 1l-1-5-3-3c2-2 2-4 0-6 2 0 3 1 3 3l2 1c1-2 3-2 5-1-3-3-2-3 2-1v6h8v3c1-2 3-3 8-2v3l7-6-3-1c2-2 2-2 0-2 7-4 12-9 15-16 1 1 2 1 3-1-2-1-2-3-2-4 0-3 2-4 4-2l-1 14 2 2v-9l1-2 1 11c1 2 1 2 3 0 2 0 2 1 0 2l1 3-3 2z"/>
  <path fill="#647e8c" d="m828 375 4 1-3 4c-3-2-3-3-1-5z"/>
  <path fill="#dadcd9" d="M592 374h5c1 4-1 5-4 5-1-2-2-4-1-5z"/>
  <path fill="#0f212d" d="M682 339h29l1 3c-1 2-2 3-3 1h-10l2 5h6c-1 1 0 2 1 3-2 5-2 10-2 16l4 1c-1 2-3 3-5 2v-21h-3l-1 21h-3l-10-9c2 3 4 7 8 10v3l-21 1v3c7-1 14 0 21 1v4l-7 8 1 1 8-9h4v24h3c-1-9 0-17 2-24-2 7-2 14-1 22 3-3 5-2 5 3h5c-3 3-3 5 1 7l-32 31c-3-1-5 0-7 2l-2-1c2-2 4-3 5-6l-8-6c1-2 2-3 1-5-2-2-4-2-6 0-3 2-3 5 1 7l-1 1c-5-1-9 0-13 1l-3-2c3-1 4-3 2-4l2-2c-2-2-3-4-2-5l9-1-6-1 2-1c2 1 4 0 5-3-2-4-4-4-6-1-2 1-3 2-2 5h-7c-1 0-2 1-1 3-4 2-4 4-1 7l4 1c-3 1-5 2-6 4l3 2c-4 1-7 3-9 5h-1c-6-8-13-9-21-5-2 1-4 3-4 6-2 0-3 2-3 4-3-3-3-7-1-10-1-4-2-5-4-2l-3-3h-3l-1 1c5 0 5 1 0 3l2 1-2 5c-2-2-3-4-5-4l-2 1 28-29 1-4 6 1 3-4-2-1c2-1 2-1 0-2 3 0 3-1 1-2l12 2 1-1-8-2c19 0 28-9 26-28l-1-4-1-4h2c1-2 2-3 4-3 1 1 0 3-1 5 3 1 6 1 9-1l1-24c5-1 5-1 0-1-1-2 0-3 1-3v1h3l2 2 4-2z"/>
  <path fill="#dbe2d7" d="m569 360 1 6c1-3 1-3 2-1l-5 7 1 2c2-2 3-1 3 2h-3v3l3-1c-1-2-1-2 1 0l3-6h4l1-4h3l-14 19-11 10c-3-1-5 0-6 3 1-3 0-6-1-8l-7-2v-4l25-26z"/>
  <path fill="#acbdc0" d="M249 332a1352 1352 0 0 0 2 42l1 1c0-2 1-3 2-1 1-2 2-3 4-2-1 6 0 12 1 18l-2 19h-1l-8-6c-1-24-1-48 1-71z"/>
  <path fill="#112230" d="M456 298a2809 2809 0 0 0-87 86c-18 15-33 32-48 50-5 8-6 17-5 27 3-6 6-12 10-16a2012 2012 0 0 0 75-75c5-6 10-11 16-15l5 2c-2 0-3 1-1 2l-9 5 3 2c2-3 6-3 9-1l6-10c1-1 2-1 3 1 0-2 1-3 3-3 1-1 2-2 4-1l-24 25c-25 24-50 48-74 74-10 9-17 21-21 34-6 11-8 22-8 35h-1c-1 2-2 7-2 16l-1-16-1 3-1-1-1 10c-1-16-1-16-2 0-2 2-3 1-3-2l1-5h-2c-1-2-2-2-2 0-4-1-7-3-8-5v-1c2-4 6-7 9-10l1-27-1-92-4-3 9-2c-2 2-2 2 0 2l1 5c2 0 3-1 4-3-1-2-2-4-1-5a835 835 0 0 1 5 35 4147 4147 0 0 1 128-124c5 1 5 0 2-3 5-5 11-6 18-1h-5v7z"/>
  <path fill="#95aeb7" d="m295 387 4 3a4230 4230 0 0 1-1 58l-2 8-3-8h-3c-1-6 0-11 2-16v-20c0-7-3-11-9-10-4 4-4 8 0 12l-1 74-1-38-2 12c-2 1-2 2 1 3-2 4-3 9-3 15l-1-14-2 3-1 30V399c3-11 11-15 22-12z"/>
  <path fill="#d4ddd7" d="m393 361-3 5c2 1 2 1 0 2 1 1 2 2 1 4-2-3-3-3-1 0l-2 1 1 4c1-2 2-2 3 0 0-3 1-5 3-7h6l-37 37c-3-2-5-3-5-5l5-2h-6l-1-3 7-4c1 2 3 2 5 0l-3-2 3-7c7-8 15-16 24-23z"/>
  <path fill="#d0dad4" d="M455 376c1 3 0 5-3 5 2 1 4 3 4 7l4-1 5 2-29 28-8-2c2-2 3-5 3-7l-5-1a478 478 0 0 1 29-31z"/>
  <path fill="#e0e5e1" d="m710 368 7-6h1c-4 3-7 6-9 10l2 3 21 2a7264 7264 0 0 1-23 4c11 13 11 14-2 2-2 7-3 15-2 24h-3v-24h-4l-8 9-1-1 7-8v-4c-7-1-14-2-21-1v-3l21-1v-3c-4-3-6-7-8-10l10 9h3l1-21h3v21c2 1 4 0 5-2z"/>
  <path fill="#9eb0b8" d="M831 390c6 0 7 3 4 8-5 1-7-2-6-6l2-2z"/>
  <path fill="#ebf1e8" d="M204 385c7-2 10 1 9 9-3 3-7 3-11 1-2-4-2-8 2-10z"/>
  <path fill="#8aa4b4" d="M618 366v5c3 4 8 7 14 9 11 2 20-2 26-11l1 4c2 19-7 28-26 28-13-4-19-12-18-25-1-4 0-8 3-10z"/>
  <path fill="#c4d2cf" d="M368 365a4147 4147 0 0 0-55 53v-29c11-5 22-10 32-18 1-1 3 0 4 2 5 2 7 0 8-5l2 3 5-7c1-1 2 0 4 1z"/>
  <path fill="#1e2f3b" d="M325 389c5 0 7 2 4 7-7 0-8-2-4-7z"/>
  <path fill="#d9dfd8" d="M571 424h-6l-2 6-4-1v3c-5 0-6-1-2-4h3v-6c1-1 2-2 4-1v-3c1-1 2 0 3 2 1-3 2-5 5-6l2-7c4-6 9-11 15-16 4-1 7 0 8 5l-26 28z"/>
  <path fill="#f2f3e2" d="m728 454-8 2c-3 5-6 9-12 13l-2-3 2-6 70-69c5-4 8-2 9 5l-59 58z"/>
  <path fill="#a1b1b6" d="M815 410c-4-5-8-5-12-2-2-1-4-2-6-1l-3 3 2 6 1-1 10 6c-9 1-13-2-14-10 1-9 6-12 15-11 4 2 6 5 7 10z"/>
  <path fill="#f5f4e5" d="M221 424c-5 1-9 1-12-1l-4-5c-1-11 4-15 15-13 6 6 6 12 1 19z"/>
  <path fill="#cad6d0" d="M544 386v4l7 2c1 2 2 5 1 8 1-3 3-4 6-3a1021 1021 0 0 1-42 39l-1-2c0 2-1 3-3 5 0-4-1-4-2-1l1 2-5 2c-2 1-2 1 0 2l-5 1-6-2-2 4c-1-3-2-5-1-7 1 2 2 2 3 0l1-5h-3l-4 5c-3-2-5-5-6-8l-1 5v-7c3-11 10-18 21-22 7 0 13-1 20-4l21-18z"/>
  <path fill="#94aab5" d="M669 399c2-1 4 0 6 1l17 18 1 7-6-1-20-18-1-3 3-4z"/>
  <path fill="#c0ccc9" d="M815 410c-1 5-3 9-8 11l-10-6-1 1-2-6 3-3c2-1 4 0 6 1 4-3 8-3 12 2z"/>
  <path fill="#bdcdcb" d="m369 384-3 7 3 2c-2 2-4 2-5 0l-7 4 1 3h6l-5 2c0 2 2 3 5 5l-38 38c-4 4-7 10-10 16-1-10 0-19 5-27 15-18 30-35 48-50z"/>
  <path fill="#edefe1" d="M836 413c8-1 11 2 8 10-10 2-13-1-8-10z"/>
  <path fill="#e6e9e8" d="M659 423c-1-2-2-3-1-4 2-3 4-3 6 1-1 3-3 4-5 3z"/>
  <path fill="#c4d4d1" d="M429 402c0 2-1 4-3 5l5 1c0 2-1 5-3 7l8 2-26 26-5-2-2 2-5-5 2-6c1-1 2-2 4-1l1-5c7-9 15-17 24-24z"/>
  <path fill="#cfd9d3" d="m479 399 1 3-4 4 5 2c-2 1-2 2 0 3 0-2 1-3 3-3h7c-8 5-13 12-14 21l-2 8c1 1 1 2-1 3l-3-2-2 4-1-3h-4l-1 3c-1-2-2-3-3-2v-3h-4c-1 5-3 6-7 4-2-4-2-7-1-10l5-4-1-1c8-10 17-19 27-27z"/>
  <path fill="#e6f2e1" d="M648 427c4 0 5 2 3 6l-4 1c-3-3-3-5 1-7z"/>
  <path fill="#dee5dd" d="m416 377-1 3c-6 4-11 9-15 15-1 4 1 6 6 6a108557 108557 0 0 1-58 58l-6-4v-4c24-26 49-50 74-74z"/>
  <path fill="#eaeee4" d="M673 435c-4 0-6-1-5-5 2-2 4-2 6 0 1 2 0 3-1 5z"/>
  <path fill="#11222f" d="M658 419c-1 1 0 2 1 4l-2 1 6 1-9 1c-1 1 0 3 2 5l-2 2c2 1 1 3-2 4l3 2c4-1 8-2 13-1l1-1c-4-2-4-5-1-7-1 4 1 5 5 5l8 6c-1 3-3 4-5 6l2 1c2-2 4-3 7-2a976948 976948 0 0 0-149 147l-5 4c0-4-2-6-4-8v-4l-1 2c-1-1-2-2-3-1l17-18c16-17 33-34 51-50 10-11 20-21 31-30-14-4-23-13-27-27a1561 1561 0 0 0-67 65v-6l-1 2-3-3-2 2c-2-2-4-4-6-4l12-13 44-43 19-18 2-1c2 0 3 2 5 4l2-5-2-1c5-2 5-3 0-3l1-1h3l3 3c2-3 3-2 4 2-2 3-2 7 1 10 0 17 8 23 25 18 5-5 7-12 5-19l-1-4c2-2 5-4 9-5l-3-2c1-2 3-3 6-4l-4-1 4-1c2-4 1-6-3-6-1-2 0-3 1-3h7c-1-3 0-4 2-5z"/>
  <path fill="#a5b8be" d="M197 423v81l-1 7-2-5-2 9c-3-1-5 0-6 2-1-4-2-8-1-11v-63c1-11 4-21 8-30l4 10z"/>
  <path fill="#0f222f" d="M273 399v130l8 9 2-15V414c-4-4-4-8 0-12 6-1 9 3 9 10l-2 1a704 704 0 0 0 0 107c1 2 4 4 8 5l-9 7v18l10 10a612 612 0 0 0 2-30c0 3 1 4 3 2 1-16 1-16 2 0l1-10 1 1 1-3 1 16c0-9 1-14 2-16-3 29 5 56 22 81l17 15c3-2 4-4 5-6l2 10-2 2-2-1c0 2 0 2-2 1l-1 6c1 1 0 2-1 2l3 3c1-2 2-2 3 0l12-6v-9l3 4c1-2 2-2 4 0l-9 10 28 29c11 12 17 26 19 43l-2 7-3 1c0 2-1 3-2 2h-1c-3-13-7-24-14-33l-7-9a11281 11281 0 0 0-114-116c-4 2-6 5-8 8l2 3h-3l-4 6c-3-2-3-1 0 1-2 2-3 2-5 1-1 2-1 2-1 0l2-5c-13-11-24-24-32-39-3-9-6-17-7-25l-1-68-9-7-1-2a1407 1407 0 0 0-3 75l-2 6-1-6v-81l2-5c-3-2-3-3 1-2-1 1 0 2 2 3-1 1-2 3-1 5l3-1 2 2 3-2c3 2 7 2 12 1h4l4-16 1 2 2-2v1l4 3c-4 1-4 2-2 5 1-4 3-4 5 0 3-2 5-2 8 0a544 544 0 0 0 1 42c-8 2-11-1-9-8l2-2v-30l-11 9v78c3 18 11 34 24 48l6-8a58 58 0 0 1-19-59c-6-9-4-13 7-11l1 4-2 7 3 20c1 5 4 10 8 15l2 2 2-2c-2-33-2-67-1-100 2-4 4-4 6-1l1-21h3a8188 8188 0 0 0 2-1z"/>
  <path fill="#c1cfce" d="m452 426 1 1-5 4c-1 3-1 6 1 10 4 2 6 1 7-4h4v3c1-1 2 0 3 2l1-3h4l1 3 2-4 3 2c2-1 2-2 1-3l2-8v8h4c-1-3 0-5 1-7v7l1-5c1 3 3 6 6 8l4-5h3l-1 5c-1 2-2 2-3 0-1 2 0 4 1 7l2-4 6 2 5-1c-2-1-2-1 0-2l5-2-1-2c1-3 2-3 2 1 2-2 3-3 3-5l1 2c1-1 2-2 4-1-8 9-17 15-27 19l-13 1c-2 1-3 2-3 4l-14 13-7-1v-2c-4 0-6-1-8-3l2-1v-9h-9v-3l-6-1-3-7 20-19z"/>
  <path fill="#f8f7e8" d="M638 446c-1 7-6 10-13 10s-11-3-12-9c0-3 2-5 4-6 8-4 15-3 21 5z"/>
  <path fill="#d1dad5" d="m620 410-1 4-28 29-19 18c-3-1-5-2-6-1h-1l2 3-5 1c0 3-1 5-4 7-2-2-3-3-3-5l5-1-3-2c2-4 5-5 10-6-2-1-3-3-2-4 15-17 32-33 49-48l6 5z"/>
  <path fill="#fbf8e9" d="M841 450c-3 8-9 12-19 12-7 0-13-3-17-8v-5c2-5 5-8 11-10 11-2 19 1 25 11z"/>
  <path fill="#0e1e2e" d="M457 442c3-1 5 0 6 4-2 4-4 5-8 3-1-3 0-6 2-7z"/>
  <path fill="#93adb8" d="M782 430c3-1 5 1 4 5-10 8-20 18-28 28-7 3-10 1-7-5l31-28z"/>
  <path fill="#f3f4e2" d="M643 501c-3 0-6 2-9 4-2-2-3-2-4 1-1-2-2-4-1-5a976948 976948 0 0 1 137-133l2 1 2 7-127 125z"/>
  <path fill="#10212f" d="m569 387 7 6c1-2 1-2 2 0l-4 1-1 6-5 2v6h-8l5 3c1-3 2-3 4 0-22 20-43 41-63 63-2 4-3 9-2 15l48-45c5 0 8 3 10 8a1077 1077 0 0 1-41 44l-63 61c-1-1-2-2-3-1-1 2-2 3-4 3l-4 5c-2-3-3-3-4 0-4-2-4-4 0-5-3 1-6 0-8-1l-4-1 1-2c6 0 9-3 8-9 0-2-1-3-2-3-1-4 0-8 3-10l2 3 4-4c8 3 12 0 13-8l-2-4c1-3 0-5-3-5h6c0-2 2-4 4-5-2-1-2-3-1-4l8 6c3-2 6-2 10 0l1-3c5-5 7-10 5-17-1-3-2-4-4-5v-6c-4-1-8-2-12-1l-2-10 9-9c-2 0-2-1-2-2 0-2 1-3 3-4l13-1c10-4 19-10 27-19l38-38 11-10z"/>
  <path fill="#8ca5b1" d="M292 412v20c-2 5-3 10-2 16h3l3 8 2-8a20641 20641 0 0 0 1 61c-3 3-7 6-9 10-2-36-2-71 0-106l2-1z"/>
  <path fill="#8fa5b1" d="M638 446h1l1 4c2 7 0 14-5 19-17 5-25-1-25-18 0-2 1-4 3-4 1 6 5 9 12 9s12-3 13-10z"/>
  <path fill="#c4cfd3" d="M778 457c3 0 4 2 3 5-4 0-5-2-3-5z"/>
  <path fill="#80939b" d="M204 431c-1 24-2 48-1 73h-1a1407 1407 0 0 1 2-73z"/>
  <path fill="#28404c" d="M290 413c-2 35-2 70 0 106v1a704 704 0 0 1 0-107z"/>
  <path fill="#becdcb" d="M342 451v4l6 4c-8 9-14 20-18 33l-2-1c-2 3-4 3-4-2l1-3c-2 1-4 1-4-1 4-13 11-25 21-34z"/>
  <path fill="#87a4b2" d="M805 449v5c4 5 10 8 17 8 10 0 16-4 19-12l4 13c-3 16-12 24-28 23-5-2-9-5-12-8-4-5-6-10-5-16-1-5 1-10 5-13z"/>
  <path fill="#bececb" d="m574 407-2 7c-3 1-4 3-5 6-1-2-2-3-3-2v3c-2-1-3 0-4 1v6h-3c-4 3-3 4 2 4v-3l4 1 2-6h6l-19 20-48 45c-1-6 0-11 2-15 20-22 41-43 63-63l5-4z"/>
  <path fill="#a3b7bf" d="m204 431 9 7 1 68c1 8 4 16 7 25 8 15 19 28 32 39l-2 5-5 2-28-26c-9-15-14-30-15-47-1-25 0-49 1-73z"/>
  <path fill="#becfcd" d="M565 453c-1 1 0 3 2 4-5 1-8 2-10 6l3 2-5 1c0 2 1 3 3 5 3-2 4-4 4-7l5-1-2-3h1c1-1 3 0 6 1l-44 43h-5l-2-8 39-39 5-4z"/>
  <path fill="#677f8b" d="M259 420z"/>
  <path fill="#10212e" d="M805 478c3 3 7 6 12 8v2c2-1 4-2 7-1v3c3-1 6 0 10 1l4-4 2 2c3-1 4 0 6 3l-6 4c-4 21-13 39-27 56l-27 27c-3-2-4-5-4-7-2 2-4 3-6 2 1 1 0 2-1 3l-1-4 38-42c6-9 9-18 11-27-28 24-54 50-79 77l-40 37-38 24c-9 6-16 13-23 21l-3-3-4 7-1-1-2 2c-2-3-5-5-8-5l3-9v-5l1-13c4-1 4-1 0-1-1-4 0-6 3-7-2-3-2-6 0-9h8v5l8-1v-7c1-1 3-1 5 1l-2 1 2 4c0 10 5 12 14 8l2-8 4-9 2 2 3-7c5 3 11 3 17-1a11743 11743 0 0 0 109-111l1-6-3-7v-4c0-1 1-2 3-1z"/>
  <path fill="#b5c7c8" d="m432 445 3 7 6 1v3h9v9l-2 1c2 2 4 3 8 3v2l7 1a314856 314856 0 0 0-37 33l-8 3 2 4-3 8c-1-2-2-3-1-4h-3v3h-5l-2-11-6-3h-8l-2-13 2-7c13-14 26-28 40-40z"/>
  <path fill="#11212e" d="M425 474c5-1 7 1 5 7-3 2-5 2-7-1 0-3 0-5 2-6z"/>
  <path fill="#0e1b28" d="M441 458c6 0 7 3 4 8-7 0-8-3-4-8z"/>
  <path fill="#7b8e9b" d="M780 477v2l-12 12-1-2c3-5 7-9 13-12z"/>
  <path fill="#b7c8c9" d="m591 518-4-2-11 2v10c-3-1-5 0-7 1l-4-5 2-2-6-3v2c-5-1-6 1-5 5l2 1 3 1c0 3-1 3-3 1l-3 7-3-4-1-1-3-2 1-1h-5c-1-3 0-4 2-5h6v-3h-7l-2 2-1-1 2-9a1561 1561 0 0 1 51-51c4 14 13 23 27 27-11 9-21 19-31 30z"/>
  <path fill="#253947" d="M598 481h4l-1 5c-4 1-6-1-3-5z"/>
  <path fill="#0f212e" d="M477 459c0 1 0 2 2 2l-9 9 2 10c4-1 8 0 12 1v6c-7-4-13-3-18 3-4 7-3 13 4 18 4 2 8 2 13 1l-1 3c-4-2-7-2-10 0l-8-6c-1 1-1 3 1 4-2 1-4 3-4 5h-6c3 0 4 2 3 5-5-3-8-3-11 1-3 3-3 7 0 11l-4 4-2-3c-3 2-4 6-3 10-6-2-9 0-10 6 0 2 2 4 4 6l-1 2 4 1c2 1 5 2 8 1-4 1-4 3 0 5 1-3 2-3 4 0l4-5c2 0 3-1 4-3 1-1 2 0 3 1-7 5-12 12-17 19-2 7-2 14 1 21 3-9 8-17 15-24l59-56c2 0 4 2 6 4l2-2 3 3 1-2v6l-18 19c-15 12-29 26-42 40-6 7-8 16-5 26 1 11 7 20 16 27l4-9c11-16 25-30 40-43 1-1 2 0 3 1l1-2v4c2 2 4 4 4 8a1423 1423 0 0 1-36 39 96 96 0 0 0-21 52 4556 4556 0 0 0-3 109c-2 2-3 4-3 7l-1-10-3 3v8h-3c-1-3 0-5 2-6-1-3 0-5 3-6l-4-4h-2l-5 6c-1 7 0 15 1 22l-1 2c-2-1-3-2-4-1l-1-118c0-15-4-29-12-41v4l-1 153a8073 8073 0 0 1-6-128l-3-6 1-8c2-15-2-27-10-37 1-1 3 0 4 1 2-2 5-3 9-2l-1-7-4-4h-3l-1-4c-2-2-4-4-4-6l-1 1v-5l37 40 10 16c1-10 0-18-4-26l-28-29a94 94 0 0 1-19-45c-5-23 0-43 14-61l35-34 14-13z"/>
  <path fill="#f8f7e5" d="M484 487c2 1 3 2 4 5 2 7 0 12-5 17-5 1-9 1-13-1-7-5-8-11-4-18 5-6 11-7 18-3z"/>
  <path fill="#8aa5b0" d="m252 413 7 7-1 102c-4-5-7-10-8-15l-3-20 2-7-1-4c-11-2-13 2-7 11-5 23 1 43 19 59l-6 8a82 82 0 0 1-24-48v-78l11-9v30l-2 2c-2 7 1 10 9 8a544 544 0 0 1-1-42c1-2 2-4 5-4z"/>
  <path fill="#f7f7eb" d="M240 463c4-1 7 0 10 4 0 6-4 9-10 7-4-4-4-8 0-11z"/>
  <path fill="#0f1d30" d="M409 490c5-1 6 1 5 7-6 3-8 1-7-5l2-2z"/>
  <path fill="#172731" d="M589 491c3-1 4 1 3 4l-4 1c-1-2 0-4 1-5z"/>
  <path fill="#859fac" d="M283 414a1984 1984 0 0 1-2 124l-8-9a451 451 0 0 1 3-63l1 14c0-6 1-11 3-15-3-1-3-2-1-3l2-12 1 38 1-74z"/>
  <path fill="#c5d2cf" d="M750 505c-2-2-3-1-4 2l-3-8-2 2c-1-4-3-6-5-6l-1-1-7-3c-7-1-8 0-4 1l-1 6c-2-4-4-5-7-2-3 0-4-1-2-3 0-1 1-2 3-1v-3c4-2 6-5 8-9 11-6 20-3 26 9v15l-1 1z"/>
  <path fill="#e2e9db" d="M728 454 621 559l-2-3c-1 4-3 4-5 1l3-7 91-90-2 6 2 3c6-4 9-8 12-13l8-2z"/>
  <path fill="#0c1d29" d="m735 494 1 1c1 5-1 8-6 7-4-6-2-9 5-8z"/>
  <path fill="#192a31" d="M578 501c4-1 5 1 3 4l-4 1c-1-2 0-4 1-5z"/>
  <path fill="#b8caca" d="M725 480c-2 4-4 7-8 9v3c-2-1-3 0-3 1-2 2-1 3 2 3 3-3 5-2 7 2l1-6c-4-1-3-2 4-1l7 3c-7-1-9 2-5 8 5 1 7-2 6-7 2 0 4 2 5 6l2-2 3 8c1-3 2-4 4-2l-12 15c-3-1-5 0-6 1-2 5-5 7-9 7 2 1 2 2-1 4-1-3-1-3-2 0-3-1-4-3-3-5h3l-3-9h3c-1-2 0-4 1-5 4-2 4-4 2-6l-4-3c-2 3-2 7-1 11l-1-1-8 1c-4 2-4 5-3 9-2-1-2-1 0 1-4 3-7 3-10 1l-2 2-1-2-5 7c-1-2 0-3 1-4-2-1-4-2-5-1l1-8 6-1-1-1c3-2 4-4 3-7l32-31z"/>
  <path fill="#1e3544" d="M723 507c2 2 2 4-2 6-4-4-3-6 2-6z"/>
  <path fill="#abbec1" d="M321 485c0 2 2 2 4 1l-1 3c0 5 2 5 4 2l2 1c-5 14-7 28-6 44a351 351 0 0 1-4 9c-2-1-4-2-5-1-1-4 0-8 1-11l-1-2-2 12v-23c0-13 2-24 8-35z"/>
  <path fill="#1e2f3a" d="M568 511c3 0 4 2 2 5l-3 1c-1-3 0-5 1-6z"/>
  <path fill="#e7eff0" d="m458 520 2 4-9-4-4 1c3-4 6-4 11-1z"/>
  <path fill="#aabdc3" d="M548 508c1 3-1 4-4 4l-2 9 1 1 2-2h7v3h-6c-2 1-3 2-2 5h5l-1 1 3 2c-4-1-5 1-4 5 3 0 5-1 5-4l3 4 3-7c2 2 3 2 3-1l-3-1 2-1 1-5v-2l6 3-2 2 4 5c2-1 4-2 7-1v-10l11-2 4 2a1156571 1156571 0 0 1-56 52c0-3-1-3-3-1l-2 2v3l-4 2 3-8c-4-2-6-5-7-8-2-1-3-1-3 1h-7c-2-2-3-2-4 0l-1-10c1-2 2-4 5-5l-2-1 18-19c6-7 13-13 20-18z"/>
  <path fill="#182c35" d="m561 521-1 5-2 1-2-1c-1-4 0-6 5-5z"/>
  <path fill="#aabcc1" d="m392 485-2 7 2 13h8l6 3 2 11h5v-3h3c-1 1 0 2 1 4l3-8-2-4 8-3 2 1a74 74 0 0 0-14 61l-4 17-3-4-1 2h-3l-1-7-4-8v2c-4-16-4-31-1-46l7-11-3-5c-4-1-7-1-10 2-1 3 0 7 2 10-7 29-3 57 12 84l7 8a85 85 0 0 1-38-49c-5-18-5-35 0-52 4-10 10-19 18-25z"/>
  <path fill="#a9bcc1" d="M460 524c-1 8-5 11-13 8-3-4-3-8 0-11l4-1 9 4z"/>
  <path fill="#b0c2c6" d="M723 507c-5 0-6 2-2 6-1 1-2 3-1 5h-3l3 9h-3c-1 2 0 4 3 5 1-3 1-3 2 0 3-2 3-3 1-4 4 0 7-2 9-7 1-1 3-2 6-1l-19 19-3-1-12 11-3-3c0-2 0-2 2-3l-1-1 2-6 4-1-6-5c-2-1-4-2-5-1v5l-2 4 3 3c-2 4-4 5-8 5v-5c1-2 0-3-2-2-5 0-8 2-8 6 1 3 2 3 3 1 2 1 2 3 1 5-1-2-2-1-3 1-1-3-2-3-3-1-2-1-4 0-4 2-2 1-3 2-2 5h-8v-3c-5-1-7 1-6 5l3 3v1l-2 4c-2-4-5-7-9-9-2 2-3 2-4-1l2-3c14-15 29-30 45-44 1 3 0 5-3 7l1 1-6 1-1 8c1-1 3 0 5 1-1 1-2 2-1 4l5-7 1 2 2-2c3 2 6 2 10-1-2-2-2-2 0-1-1-4-1-7 3-9l8-1 1 1c-1-4-1-8 1-11l4 3z"/>
  <path fill="#182935" d="M710 517c3 0 4 2 3 5-4 0-5-2-3-5z"/>
  <path fill="#0a1e32" d="M702 530c-1 3-2 5-5 4v-5c1-1 3 0 5 1z"/>
  <path fill="#455862" d="m872 525-2 15c-1-6 0-11 2-15z" opacity=".4"/>
  <path fill="#102431" d="m551 531 1 1c0 3-2 4-5 4-1-4 0-6 4-5z"/>
  <path fill="#7d9caa" d="m300 525-1 35-10-10v-18l9-7c0-2 1-2 2 0z"/>
  <path fill="#a8bbc0" d="m521 496 2 8h5l-12 13-59 56c-7 7-12 15-15 24-3-7-3-14-1-21 5-7 10-14 17-19l63-61z"/>
  <path fill="#14242b" d="M537 541c3-1 4 1 3 4l-4 1c-1-2 0-4 1-5z"/>
  <path fill="#dfe6da" d="M629 501c-1 1 0 3 1 5 1-3 2-3 4-1 3-2 6-4 9-4a1910 1910 0 0 1-79 76l-7-3 4-6 68-67z"/>
  <path fill="#becfcd" d="M438 543c1 0 2 1 2 3 1 6-2 9-8 9-2-2-4-4-4-6 1-6 4-8 10-6z"/>
  <path fill="#86a3af" d="m804 496 2 1-111 110c-6 4-12 4-17 1-1-3 0-6 1-8l114-112h2c2 3 5 6 9 8z"/>
  <path fill="#aec1c2" d="m810 567-18 18c-3 0-5-2-7-3l1-3 27-27c14-17 23-35 27-56l6-4 2-2v8c-6 26-19 49-38 69z"/>
  <path fill="#24363d" d="M527 551c5 2 5 4-1 6-1-3 0-5 1-6z"/>
  <path fill="#20333f" d="M678 551c1 3 0 5-3 5-1-1-2-2-1-3 0-2 2-3 4-2z"/>
  <path fill="#9fb3ba" d="M312 520h1v23l2-12 1 2c-1 3-2 7-1 11 1-1 3 0 5 1-2 1-2 2 0 3l4-12c0 29 11 53 32 74-1 2-2 4-5 6l-17-15c-17-25-25-52-22-81z"/>
  <path fill="#8ea9b5" d="m197 504 1 6c2 20 9 39 22 56l-6 2c0-5-2-9-5-12l-2 4v5l-4-8-1 1-1-5c-1-2-2-2-3 0-7-12-11-24-12-36 1-2 3-3 6-2l2-9 2 5 1-7z"/>
  <path fill="#0f2230" d="M185 506c-1 3 0 7 1 11 1 12 5 24 12 36 3 8 8 15 14 23l28 28 101 104a96 96 0 0 1 16 36 722 722 0 0 1 0 5l-6-14v4c-5-7-10-7-16-1-1 3 0 7 3 10l-2 2-1-3-1 1-1-7-2 4-3-4v2c-4-8-9-15-15-21a444 444 0 0 0-29-26c-6-1-7-2-1-3-1-2-1-2-2 0-2-3-2-6 0-9l-2-3-2 3c-2-2-4-4-6-4-2-2-3-3-3-5 3 0 3-1 1-2 2-1 3-3 3-5 21 19 41 40 61 62h3c1-6 0-10-3-14l-6-8-137-139c2 10 7 20 13 29a1531 1531 0 0 0 52 56l-1 1c-1-4-3-5-6-2l-8-3-35-36 5 12c-5-4-8-8-10-13v3c-6-2-10 0-12 5a321 321 0 0 1-17-192l1 2 3-6c-2-1-2-3-2-4 3 2 6 3 11 3-1 27 0 54 1 82z"/>
  <path fill="#a7bac0" d="m702 530 6 5-4 1-2 6 1 1c-2 1-2 1-2 3l3 3 12-11 3 1-70 70c-18 7-28 2-30-17-1-6 1-11 5-15 7-8 15-16 24-22l-2 3c1 3 2 3 4 1 4 2 7 5 9 9l2-4c-1 6 2 8 9 6 3-8 1-11-7-9l-2 2-3-3c-1-4 1-6 6-5v3h8c-1-3 0-4 2-5-1 1 0 2 1 3 3 0 4-2 3-5 1-2 2-2 3 1 1-2 2-3 3-1 1-2 1-4-1-5-1 2-2 2-3-1 0-4 3-6 8-6 2-1 3 0 2 2-3-1-5 0-5 2 0 3 2 3 4 2l1-3v4c4 0 6-1 8-5l-3-3 2-4c3 1 4-1 5-4z"/>
  <path fill="#0c2234" d="M690 541v1l-1 3c-2 1-4 1-4-2 0-2 2-3 5-2z"/>
  <path fill="#0e202c" d="M661 564v-1l2-2c8-2 10 1 7 9-7 2-10 0-9-6z"/>
  <path fill="#aec1c6" d="M296 582c-1 2 0 4 1 6l2-1 3 4c-5 3-9 2-13-2l-2 1a644 644 0 0 0-25-26c2-3 4-6 8-8l26 26z"/>
  <path fill="#adc0c4" d="m774 573-16 15c-5-2-7 0-6 5-3-1-6 0-8 2v-3c5 0 5-2 0-5v-6c25-27 51-53 79-77-2 9-5 18-11 27l-38 42z"/>
  <path fill="#c8d7d3" d="m561 568-4 6 7 3c0-4 2-5 5-3l-26 26h-8l1-7c8-9 16-18 25-25z"/>
  <path fill="#152534" d="M651 575h5v4h-5v-4z"/>
  <path fill="#7f9fae" d="M220 566a99596 99596 0 0 0 33 39c-1 2-2 3-5 4l-4-7-1 2h-3l-28-28c-6-8-11-15-14-23 1-2 2-2 3 0l1 5 1-1 4 8v-5l2-4c3 3 5 7 5 12l6-2z"/>
  <path fill="#10222e" d="m810 567 2 6 3-1c-3-1-3-3 0-4l1 6c-5-1-6 0-2 2 2-1 4 0 6 2-2 1-4 3-4 6-15 18-32 33-51 46-27 13-50 31-70 53l-2-3-8-1-2-1c-2 1-4 3-4 6l-1-1v4c-2-2-3-3-5-1l-1-3c9-10 18-20 29-29 19-13 38-26 59-38l22-20c-1-3-2-6-5-7-19 21-42 38-68 51-1-2 0-3 2-4l-2-1c-2 1-3 2-3 4l-1-1-3-9c21-10 40-23 56-41l16-15 1 4c1-1 2-2 1-3 2 1 4 0 6-2 0 2 1 5 4 7l-1 3c2 1 4 3 7 3l18-18z"/>
  <path fill="#a0b5be" d="m510 545 2 1c-3 1-4 3-5 5l1 10c1-2 2-2 4 0-5 7-3 10 6 10 3-3 3-7 1-10 0-2 1-2 3-1 1 3 3 6 7 8l-3 8 4-2v-3l2-2c2-2 3-2 3 1 1-2 3-3 5-2l-17 18c-15 13-29 27-40 43l-5-2-2 1 2-3-2-1 1-2-5-2c-2 0-2 1 0 2l-1 1-2-3-1 2c-2-3-2-5 1-6h-4c0-3-1-4-2-5-3-10-1-19 5-26 13-14 27-28 42-40z"/>
  <path fill="#0f1f29" d="M496 576c8-1 10 3 7 10-8 2-11-1-9-8l2-2z"/>
  <path fill="#0f2028" d="M512 561h7c2 3 2 7-1 10-9 0-11-3-6-10z"/>
  <path fill="#a6bac2" d="M744 581v6c5 3 5 5 0 5v3c2-2 5-3 8-2-1-5 1-7 6-5-16 18-35 31-56 41-12 4-22 10-31 18l-47 45c-4 1-8 2-11 5l-1-2 31-32c7-8 14-15 23-21l38-24 40-37z"/>
  <path fill="#0e1f2b" d="M639 584c6 0 8 3 6 10-8 4-11 2-10-7 1-2 2-3 4-3z"/>
  <path fill="#9dafbf" d="m605 600-2 3c-4 0-5-2-4-5 3-2 5-2 6 2z"/>
  <path fill="#bccfcc" d="m617 550-3 7c2 3 4 3 5-1l2 3-31 32c-5 3-10 7-14 12-5-1-7 1-6 5l-4-2 2-5c1-2 3-3 5-3l-3-2 47-46z"/>
  <path fill="#11252f" d="M480 593c6 0 9 3 8 10-4 4-8 5-12 1-1-5 0-9 4-11z"/>
  <path fill="#10212f" d="M493 362c-2 3-1 5 3 6-1 3 0 5 3 8l4-3 1 1-25 25a516 516 0 0 0-47 46c-14 12-27 26-40 40-8 6-14 15-18 25-5 17-5 34 0 52 6 21 19 37 38 49l-7-8c-15-27-19-55-12-84-2-3-3-7-2-10 3-3 6-3 10-2l3 5-7 11c-3 15-3 30 1 46 3 15 10 29 20 42v5l1-1c0 2 2 4 4 6l1 4h3l4 4 1 7c-4-1-7 0-9 2-1-1-3-2-4-1a52 52 0 0 0-44-15c-2-2-3-2-4 0l-3-4v9l-12 6c-1-2-2-2-3 0l-3-3c1 0 2-1 1-2l1-6c2 1 2 1 2-1l2 1 2-2-2-10c-21-21-32-45-32-74a118 118 0 0 1 24-77c11-12 23-24 36-35 5-2 8 0 10 5-2 2-1 3 1 5l-31 31a87 87 0 0 0-22 53c-4 23 0 45 11 66 6 9 14 17 24 23 3 2 6 3 10 3a99 99 0 0 1-33-82c1-20 7-36 20-50a6933 6933 0 0 1 91-89l28-27z"/>
  <path fill="#a5b8bc" d="M342 518c-1 8 0 17 1 26 3-1 6 0 9 1l2-17c-2 32 9 60 33 82-4 0-7-1-10-3-10-6-18-14-24-23-11-21-15-43-11-66z"/>
  <path fill="#b1c3c5" d="m405 426-1 5c-2-1-3 0-4 1l-2 6 5 5 2-2 5 2-36 35a80 80 0 0 0-20 50l-2 17c-3-1-6-2-9-1-1-9-2-18-1-26 1-21 8-38 22-53a1334 1334 0 0 0 41-39z"/>
  <path fill="#aec2c6" d="m570 596 3 2c-2 0-4 1-5 3l-2 5 4 2c-1-4 1-6 6-5l-31 31h-4l-2-6c9-12 19-22 31-32z"/>
  <path fill="#fafae8" d="M622 626c-1 3-2 6-5 8-12 6-23 6-33-1-3-2-4-5-4-7 3-5 7-8 12-10 12-3 22 0 30 10z"/>
  <path fill="#f8f8e8" d="M419 637c8 10 12 22 10 37-2-1-3-2-2-3 1-7 0-7-2 0l-1-3-3 2c-9-27-27-40-55-38l9-10c17-2 31 3 44 15z"/>
  <path fill="#9fb3bb" d="M414 567c2 16 9 31 19 45l28 29c4 8 5 16 4 26l-10-16-37-40c-10-13-17-27-20-42v-2l4 8 1 7h3l1-2 3 4 4-17z"/>
  <path fill="#0f202e" d="M605 600c-1-4-3-4-6-2-1 3 0 5 4 5l4 3c0 2 1 4 4 5l-1 1 6 1c-6 2-12 2-17 1-3 0-6 0-7 2-5 2-9 5-12 10-9 10-10 21-4 33 8 12 20 17 35 12 8-3 14-9 17-17l-3 9c3 0 6 2 8 5l2-2 1 1 4-7 3 3-31 32a815 815 0 0 0-33 29l-3-1-5 5 1 3-3 2-4-8c1-1 2-1 1-2l-3 2c-2-1-2-1 0-2-1-1-2 0-3 1v-2l8-6c-2-2-3-3-5-3s-3 1-4 3c-3 0-4 1-5 3l-6 1-1 4h-2l-2 4-6-8-10-1-1-1 2-1c10 2 15-2 17-13l-2-7-5-5h-10c-2 0-3 1-3 3-3 1-4 2-4 5-2 4-2 9 0 15h2l2 3-7 4c-2-3-3-3-4 1l-1-2-2 1-3-1c-3 3-6 6-7 10-1 31-2 63-1 96l-4-23v12c-3-1-6 0-9 1v11l-3-4V693c0-15 4-28 12-39 8-15 18-28 32-38h4l-2 6 2 5c5 0 4 0-1 1v4h5v3l-6-2c-3 1-5 4-7 6l2 1a72 72 0 0 0-21 53l12-11c1-11 4-20 10-28a527 527 0 0 1 67-65c3-2 6-2 7 3 2-1 5 0 7 1l1 7h-3z"/>
  <path fill="#a6b8be" d="M672 683h-1c-2-2-5-3-7-3 13-15 28-29 45-40 26-13 49-30 68-51 3 1 4 4 5 7l-22 20c-21 12-40 25-59 38-11 9-20 19-29 29z"/>
  <path fill="#90adb8" d="m669 622-2 8c-9 4-14 2-14-8 0-2 1-4 3-5 5-3 10-1 13 5z"/>
  <path fill="#809ca9" d="M463 611c1 1 2 2 2 5h4c-3 1-3 3-1 6l1-2 2 3 1-1c-2-1-2-2 0-2l5 2-1 2 2 1-2 3 2-1 5 2-4 9c-9-7-15-16-16-27z"/>
  <path fill="#a6b9bf" d="m536 593-1 7h8l-15 16c-14 10-24 23-32 38-4-1-5-4-4-7 2-2 2-3 0-3 1-4 4-6 8-7l-4 1-1-2 4-7 32-32 5-4z"/>
  <path fill="#7896a3" d="M843 588c-4 14-12 25-23 35l-52 40h-9l58-46c10-9 18-19 24-30 1-2 2-1 2 1z"/>
  <path fill="#a0b6bd" d="M741 654c-8 5-15 11-21 17l-33 33h-7c0-3 0-6 2-8l13-13c20-22 43-40 70-53 19-13 36-28 51-46 14-15 27-32 36-50-1 9-3 18-8 27-12 17-26 33-41 48l-62 45z"/>
  <path fill="#7493a5" d="m251 600 99 101 13 23c-1 5-4 7-9 7l-13-23-101-104h3l1-2 4 7c3-1 4-2 5-4-3-1-3-3-2-5z"/>
  <path fill="#0e222f" d="M202 504h1c1 17 6 32 15 47l28 26 5-2c0 2 0 2 1 0 2 1 3 1 5-1-3-2-3-3 0-1l4-6h3l23 23a11533 11533 0 0 0 96 101c6 12 11 25 14 40v1l-3-4v6c-2-5-3-9-1-14l-6-10v1a163 163 0 0 0-16-26l-40-40c-3 2-6 5-8 9 16 15 31 31 45 48 6 9 10 19 12 30-2 1-3 0-3-1-1 1-2 3-1 5-4 0-7-1-9-4l-4-8-13-23a14289 14289 0 0 0-130-135c-13-17-20-36-22-56l2-6c1 5 1 5 2 0z"/>
  <path fill="#9db4be" d="M262 575c21 19 42 40 61 62l-1 4-4 5-62-60v-4l6-7z"/>
  <path fill="#6a8a9d" d="m240 650 15 14c-7 0-14-2-19-7-10-9-19-20-26-31l-5-12 35 36z"/>
  <path fill="#9eb1c0" d="M553 646c3-1 4 1 3 4-4 0-5-1-3-4z"/>
  <path fill="#7f9cab" d="M366 632c28-2 46 11 55 38-1 8 0 16 2 24l-9 15-1-5c-2-17-8-31-19-43l-28-29z"/>
  <path fill="#a0b4bc" d="M296 582a11281 11281 0 0 1 95 99l-2 2c3 1 3 2 1 4 2 6 2 7-3 2l-1 3c-1-1-2-2-3-1l-7-9a11533 11533 0 0 1-87-93c4 4 8 5 13 2l-3-4-2 1c-1-2-2-4-1-6z"/>
  <path fill="#7c9aab" d="M580 626c0 2 1 5 4 7 10 7 21 7 33 1 3-2 4-5 5-8l4 7 2 16v5c-3 8-9 14-17 17-15 5-27 0-35-12-6-12-5-23 4-33z"/>
  <path fill="#0f222e" d="M210 626c7 11 16 22 26 31 5 5 12 7 19 7l-15-14 8 3c3-3 5-2 6 2l1-1 4 2 13 12c0 2-1 4-3 5 2 1 2 2-1 2 0 2 1 3 3 5 2 0 4 2 6 4l2-3 2 3c-2 3-2 6 0 9 1-2 1-2 2 0-6 1-5 2 1 3l-4 6c-1 1-1 2 1 3 7 2 14 7 19 14l-3 3-1-1-3 5-12-11c-4-1-7-1-10 1l17 17 8 2v-3l1 4h3l1 3c-2 2-2 5 1 8-2 0-2 1 0 2l5 2-3 1-2 11c2 2 2 4 1 7-53-39-91-89-115-149 2-5 6-7 12-5v-3c2 5 5 9 10 13z"/>
  <path fill="#6e8fa2" d="m272 668-13-12-56-58c-6-9-11-19-13-29l137 139 6 8c3 4 4 8 3 14h-3c-20-22-40-43-61-62z"/>
  <path fill="#10222f" d="M860 590a351 351 0 0 1-204 227v-9c5-1 10 0 16 1v-27c-3-7-1-11 5-14-5-2-9-1-13 2l-9-3-5 1c-1-2-2-4-1-5l4-4c11-7 23-13 36-17l24-15c0-3-1-4-3-5l2-4-1-5-1 1c-1-2-3-2-4-2-1-3-3-5-5-4-5 4-9 8-12 13l4 1c-2 0-3 1-2 3l-4-2v-3l-3 4c0-4-2-7-5-8l-1 2h-4l13-14 33-33c6-6 13-12 21-17v5l-8 2c-1 2-1 4 2 6-2 1-3 2-3 4l3 7 9-2c1-2 3-4 5-4l8 4 2 3 7 4-1 1 3 1v3h4l-3 6c-2-4-4-7-7-9-7-7-14-9-23-7-5 1-8 4-10 8-10 13-9 25 3 37 14 8 26 5 35-8l3-17 2-5 2 3 3-6c-1-1-2 0-3 1l-1-3 5-1c-2-2-3-5-2-8h6l-5-5 1-3c-2-2-3-5-3-7l-7-1 52-40c11-10 19-21 23-35v1c2-3 3-3 4 1 2-2 5-3 9-2v3c1-3 2-3 2 1l2-2z"/>
  <path fill="#74929f" d="M821 638h2c-8 14-19 25-31 34l-11 3 40-37z"/>
  <path fill="#97aeb8" d="m379 696-1 8c0-2-1-3-2-1l-1-4c0 2-1 2-2 1-2 2-3 2-4 0l-1 2c-14-17-29-33-45-48 2-4 5-7 8-9l40 40 8 11z"/>
  <path fill="#8ea7b5" d="M235 669c6-1 7 2 4 7-7 0-8-2-4-7z"/>
  <path fill="#9bafb6" d="M541 634h4l-19 20c-6 8-9 17-10 28l-12 11c0-21 6-39 21-53l5-4c4 1 7 1 11-2z"/>
  <path fill="#95acb5" d="m495 636 1 2 4-1c-4 1-7 3-8 7 2 0 2 1 0 3-1 3 0 6 4 7-8 11-12 24-12 39-1 10-2 20-1 31l-6 1-2-2-1 10v-45c2-20 9-37 21-52z"/>
  <path fill="#faf8e9" d="M762 685c-3 8-8 12-17 12-8-1-13-4-16-11 2-4 5-7 10-8 9-2 16 0 23 7z"/>
  <path fill="#98adb6" d="M664 680c2 0 5 1 7 3l-78 76-14 19c-3 0-4-1-5-2 3-8 7-15 13-21 25-26 51-51 77-75z"/>
  <path fill="#cfd8d0" d="m429 674-1 8-5 12c-2-8-3-16-2-24l3-2 1 3c2-7 3-7 2 0-1 1 0 2 2 3z"/>
  <path fill="#637887" d="M786 685h3l-1 5c-2 1-4 1-4-2l2-3z"/>
  <path fill="#f8f6e6" d="M258 679c11-2 16 3 14 15-4 5-9 7-15 5-5-4-7-9-5-14 1-3 3-5 6-6z"/>
  <path fill="#89a4af" d="M391 681c7 9 11 20 14 33l-2 14 1-2c2 3 3 6 2 11l-2-8c-2 1-2 2 1 3l-7-2-1 1c-3-15-8-28-14-40 1-1 2 0 3 1l1-3c5 5 5 4 3-2 2-2 2-3-1-4l2-2z"/>
  <path fill="#7194a5" d="M450 700v28c-4 1-7 0-9-3l-2 22a1765 1765 0 0 0-1-88c8 12 12 26 12 41z"/>
  <path fill="#102230" d="m702 629 3 9 1 1c0-2 1-3 3-4l2 1c-2 1-3 2-2 4a2694 2694 0 0 0-121 115c-7 6-11 13-14 21-6 8-8 17-6 27h3c0-4 0-7 2-9 0 4 2 6 7 6-5 6-6 13-5 21l11-2c3-7 7-12 14-16l-1 5-2-1-4 3v3l2 1-1 1 2-1 3 2c1-4 3-7 5-9v1l4 1c-3 1-5 3-6 5a247 247 0 0 0 35-10l-1-1 4-1-1 15-5 2c1 3 3 3 6 1l-3-1 5-2c3 2 6 2 10-1l4 1c-88 37-177 38-265 3l1-3c4 2 8 2 13 1-2-2-3-3-5-1-1-4 0-8 3-10l-3-1 1-1-2-2 8 3a442 442 0 0 0-1-92c1 1 2 0 2-2l3-1 2-7 1 5a17255 17255 0 0 1 14-27l3 6h2a8073 8073 0 0 0 4 128 11699 11699 0 0 0 2-69v69l7 2h5c1-1 2 0 4 1l1-2c-1-7-2-15-1-22l8 4c-2 1-3 3-2 6h3v-8l3-3 1 10c0-3 1-5 3-7l2 26 11 1 3 4v-11c3-1 6-2 9-1v-12l4 23 15-1v-46l-1-53-3-5 2-1 1 2c1-4 2-4 4-1l7-4-2-3h-2c-2-6-2-11 0-15-1 7 1 12 7 17l-2 1 1 1 10 1 6 8 2-4h2l1-4 6-1c1-2 2-3 5-3l-5 6h6v2c1-1 2-2 3-1-2 1-2 1 0 2l3-2c1 1 0 1-1 2l4 8 3-2-1-3 5-5 3 1-3 3 1 1-8 8 6 7 2-4 47-47 47-45c9-8 19-14 31-18z"/>
  <path fill="#87a0b0" d="M525 695c-1 3 0 5 3 7h11l4-5 2 7c-2 11-7 15-17 13-6-5-8-10-7-17 0-3 1-4 4-5z"/>
  <path fill="#f7f7e9" d="m543 697-4 5h-11c-3-2-4-4-3-7 0-2 1-3 3-3h10l5 5z"/>
  <path fill="#f8f8e7" d="M570 684c9-1 13 3 11 12-5 5-10 5-15 0-1-5 0-9 4-12z"/>
  <path fill="#edede1" d="M546 664c8 0 10 4 5 11-7 1-9-2-8-8l3-3z"/>
  <path fill="#587a90" d="m284 696 4 1 25 25c6 6 11 13 15 21 3 8 4 16 4 25l-9-6c-2-18-10-32-23-43-5-7-12-12-19-14-2-1-2-2-1-3l4-6z"/>
  <path fill="#819daa" d="m379 696 8 15 4 18c1 5 1 10-1 15l-2 4c0-2-1-2-2-2 1 4 0 5-3 5 0-7-1-13-3-19-2-11-6-21-12-30l1-2c1 2 2 2 4 0 1 1 2 1 2-1l1 4c1-2 2-1 2 1l1-8z"/>
  <path fill="#7c9bad" d="M762 685c3 2 5 5 7 9l1 4-3 17c-9 13-21 16-35 8-12-12-13-24-3-37 3 7 8 10 16 11 9 0 14-4 17-12z"/>
  <path fill="#6d8694" d="M706 712c-5 2-10 5-13 10l-4-1c3-5 7-9 12-13 2-1 4 1 5 4z"/>
  <path fill="#638295" d="M560 722h-6l5-6c1-2 2-3 4-3s3 1 5 3l-8 6z"/>
  <path fill="#94b0ba" d="m624 692-47 47-2 4-6-7 8-8a815 815 0 0 1 36-31c3-3 7-4 11-5z"/>
  <path fill="#62869d" d="m293 726 3 6v3l-8-2-17-17c3-2 6-2 10-1l12 11z"/>
  <path fill="#6b8a9b" d="m511 722 3 5a1404 1404 0 0 1-1 29l-2 1c-3-2-6-3-9-2l-1 5v-29c1-4 4-7 7-10l3 1z"/>
  <path fill="#86a1ad" d="M682 696c-2 2-2 5-2 8h7l-13 14a567 567 0 0 1-44 38c-1 2-2 2-3 0 1-1 0-2-1-2l2-1v-3c17-19 35-37 54-54z"/>
  <path fill="#85a3b3" d="M458 735c7-1 9 2 6 9h-6c-2-4-2-7 0-9z"/>
  <path fill="#769eb1" d="M301 739c5 0 7 2 4 7l-3 1c-3-3-3-6-1-8z"/>
  <path fill="#5d8297" d="M450 728v56l-2-8-8 1-1 4v-34l2-22c2 3 5 4 9 3z"/>
  <path fill="#1e3a4a" d="m450 700 1 118h-5 4V700z"/>
  <path fill="#63818d" d="M724 738h7l-32 25-10 5-4-2c11-11 24-21 39-28z"/>
  <path fill="#5f8598" d="M433 784c-1 0-2 1-2 3v-3h-7l-1-4-1 9-1-21v-53c5-8 9-15 11-23l1 92z"/>
  <path fill="#8ca2ae" d="M710 722c2 1 3 2 3 5l-24 15c-13 4-25 10-36 17h-7c-1 3-3 5-6 5 6-8 14-15 24-19 16-5 31-13 46-23z"/>
  <path fill="#1e394c" d="M523 732c-2 18-3 36-2 56v39c-1-32-2-64-1-96 1-1 2 0 3 1z"/>
  <path fill="#f5f3e4" d="M548 742c8-2 13 1 16 9 1 7-2 12-8 15-12 1-17-5-16-16 1-4 4-7 8-8z"/>
  <path fill="#6a8b9c" d="M405 714h1l2 50-8-1-1 18a451 451 0 0 1-1-40c-1-3-2-6-1-9v-1l1-1 7 2c-3-1-3-2-1-3l2 8c1-5 0-8-2-11l-1 2 2-14z"/>
  <path fill="#0f202e" d="m695 683-13 13a2064 2064 0 0 0-79 78h14l16-17 41-39h4l1-2c3 1 5 4 5 8l3-4v3l4 2c-1-2 0-3 2-3 3-5 8-8 13-10 1 0 3 0 4 2l1-1 1 5-2 4c-15 10-30 18-46 23-10 4-18 11-24 19-6 5-10 11-13 18 1 2 4 3 7 4 2-10 7-17 15-23-1 1 0 3 1 5l5-1 9 3-6 5c-1 1-1 2 1 4l13 3v27c-6-1-11-2-16-1v9l-4-1c-4 3-7 3-10 1l-5 2 3 1c-3 2-5 2-6-1l5-2 1-15-4 1 1 1c-2 2-3 3-5 3l1-2c-9-3-18-2-25 4l-4-1v-1c-2 2-4 5-5 9l-3-2-2 1 1-1-2-1v-3l4-3 2 1 1-5c4-5 9-7 16-8 17 0 17-2 0-8-15-2-27 2-36 13-5 0-7-2-7-6 1-6 3-12 6-16l14-19 78-76h1l1 3c2-2 3-1 5 1v-4l1 1c0-3 2-5 4-6l2 1 8 1 2 3z"/>
  <path fill="#6c8ca0" d="M628 750v3l-2 1c1 0 2 1 1 2 1 2 2 2 3 0l3 1-16 17h-14c7-9 15-17 25-24z"/>
  <path fill="#64869a" d="m523 732 8 4-4 10c-1 9 2 17 8 25l-1 18-1-13-1 8-1-2-3 2c-1 5-1 5-2 0-1 0-2 1-2 3l-1-1-2 2c-1-20 0-38 2-56z"/>
  <path fill="#0f202e" d="M397 732c-1 3 0 6 1 9 3 2 3 6 1 10-2 17-2 34 0 52l2 2-1 1 3 1c-3 2-4 6-3 10 2-2 3-1 5 1-5 1-9 1-13-1l-1 3c-33-13-62-29-88-50 1-3 1-5-1-7l2-11 3-1-5-2c-2-1-2-2 0-2l3-1c3-5 1-7-4-7l-1-3h-3l-1-4-3-6 3-5 1 1 3-3c13 11 21 25 23 43l9 6c0-9-1-17-4-25v-2l3 4 2-4 1 7 1-1 1 3 2-2c7 2 12-1 13-9v-4l6 14-1 7a868 868 0 0 0 4 29l8 4c1-20 1-39-1-57 2 3 5 4 9 4-1-2 0-4 1-5 0 1 1 2 3 1 2 6 3 12 3 19v46l9 4v-50c-2-2-3-5-2-7 2-5 2-10 1-15a236563 236563 0 0 1-4-19l6 10c-2 5-1 9 1 14v-6l3 4z"/>
  <path fill="#5e8498" d="M390 744a417 417 0 0 1 2 57l-9-4v-46c3 0 4-1 3-5 1 0 2 0 2 2l2-4z"/>
  <path fill="#46657b" d="M342 756h4v13l-4-1v-12z"/>
  <path fill="#eff1e5" d="M351 739c-1 8-6 11-13 9-3-3-4-7-3-10 6-6 11-6 16 1z"/>
  <path fill="#51768d" d="m363 724 4 8c2 18 2 37 1 57l-8-4c-2-1-2-2-2-3l-1-38-3-13c5 0 8-2 9-7z"/>
  <path fill="#547388" d="m672 782-13-3c-2-2-2-3-1-4l6-5c4-3 8-4 13-2-6 3-8 7-5 14z"/>
  <path fill="#6c8896" d="m653 759-4 4c-8 6-13 13-15 23-3-1-6-2-7-4 3-7 7-13 13-18 3 0 5-2 6-5h7z"/>
  <path fill="#7493a0" d="M574 776c1 1 2 2 5 2-3 4-5 10-6 16-2 2-2 5-2 9h-3c-2-10 0-19 6-27z"/>
  <path fill="#4b6f88" d="m421 768 1 21 1-9 1 4h7v3a481 481 0 0 1 1 28l-11-4v-43z"/>
  <path fill="#4f7287" d="M474 688v77l1-16 2 7c0-3 2-5 4-6l1 18a968 968 0 0 0 2-75v131l-11-1c-1-46 0-91 1-135z"/>
  <path fill="#7292a3" d="m483 724-1 44-1-18c-2 1-4 3-4 6l-2-7-1 16a512 512 0 0 1 1-42l2 2 6-1z"/>
  <path fill="#52788f" d="M399 751v30l1-18 8 1-1 42-8-3c-2-18-2-35 0-52z"/>
  <path fill="#516f85" d="M653 788c10 2 10 5 0 9-2-3-2-6 0-9z"/>
  <path fill="#5e7f93" d="M600 803c-7 4-11 9-14 16l-11 2c-1-8 0-15 5-21 9-11 21-15 36-13 17 6 17 8 0 8-7 1-12 3-16 8z"/>
  <path fill="#54788d" d="M515 780v46l-2-1c1-10 1-20-1-30v11l-8-3-1-3-2 8a1152 1152 0 0 1 1-53c3-1 6 0 9 2l2-1 2 24z"/>
  <path fill="#6983a3" d="m463 799-8-4 5-6h2l4 4c-3 1-4 3-3 6z"/>
  <path fill="#4e748e" d="M450 784v34h-4l-7-2a612 612 0 0 1 1-39l8-1 2 8z"/>
  <path fill="#4c748c" d="m535 771 1 56h-15v-39l2-2 1 1c0-2 1-3 2-3 1 5 1 5 2 0l3-2 1 2 1-8 1 13 1-18z"/>
  <path fill="#628093" d="m632 807-30 7c1-2 3-4 6-5 7-6 16-7 25-4l-1 2z"/>
  <path fill="#486b84" d="M501 731v29a1152 1152 0 0 0 2 40l1 3 8 3v-11c2 10 2 20 1 30l2 1-15 1c-1-33 0-65 1-96z"/>
  <path fill="#53798f" d="m552 801 8 6-8 8v-14z"/>
</svg>
