<svg xmlns="http://www.w3.org/2000/svg" fill-rule="evenodd" clip-rule="evenodd" image-rendering="optimizeQuality" shape-rendering="geometricPrecision" text-rendering="geometricPrecision" viewBox="0 0 1024 1024">
  <path fill="#eddbce" d="M512 135a363 363 0 0 1 354 433 352 352 0 0 1-200 244 346 346 0 0 1-327-17 343 343 0 0 1-150-432 360 360 0 0 1 323-228Z"/>
  <path fill="#7f787a" d="M514 156h-14l-1 81v-82c5-1 10 0 15 1Z" opacity=".7"/>
  <path fill="#5b575c" d="M535 255v-99h-15v14c-1-5-2-10-1-15h17l-1 100Z" opacity=".7"/>
  <path fill="#05081b" d="M514 156c1 7 1 14-1 21 1 4 4 4 7 2v-23h15v99l-1 51c-2 9-6 18-12 25-1-26-2-51-1-76 0-6-2-8-6-6l-2 84c-2 6-5 11-9 16-3 0-5 1-6 3l-2-2c0-2 1-4 3-5l-4-2v-14l3-18 1-74 1-81h14Z"/>
  <path fill="#0d0d1c" d="M475 158h8c-1 4-3 9-6 13-15 19-35 33-58 41-3-1-3-2 0-3l25-19 31-32Z"/>
  <path fill="#71574d" d="M551 159c24 7 42 22 53 46 1 3 0 6-1 8h-2a95 95 0 0 0-48-48c-2-2-3-4-2-6Z"/>
  <path fill="#0d0e1e" d="m304 278-13 7-1-2c-2 0-3 1-3 2 0-4 1-8 4-11 15-22 33-39 56-52l47-24c13-9 26-19 37-32 6-2 13-3 20-3-17 21-37 38-59 51-20 9-38 19-55 30-13 10-24 21-33 34Z"/>
  <path fill="#0f101f" d="M637 228v52h-4v-4h-3l-1-8c5-42-7-76-38-103 5-1 10 0 15 3 17 16 28 36 31 60Z"/>
  <path fill="#0c0d1c" d="M308 244h-8l-1-7c21-21 45-37 73-49l37-14-1 4c-7 7-15 14-24 19-15 6-28 13-41 20-13 8-24 17-35 27Z"/>
  <path fill="#1c171c" d="M638 179c1-1 3 0 4 1l1 6c-7 1-9-2-5-7Z"/>
  <path fill="#14141d" d="M589 228v7h-10c-3-18-11-31-26-39-2-4-2-8-1-12 20 8 32 22 37 44Z"/>
  <path fill="#251c1b" d="m479 188 4 1v5h-4v-6Z"/>
  <path fill="#131121" d="M649 190c7-1 10 2 8 10-4 4-7 4-11 0-1-4 0-8 3-10Z"/>
  <path fill="#ddd9ca" d="M515 199c4-1 6 1 5 6-6 1-8-1-5-6Z"/>
  <path fill="#0e0e1c" d="M670 205c10-1 15 3 14 14-3 6-8 8-14 6-5-4-7-8-5-14 1-3 3-5 5-6Z"/>
  <path fill="#090a19" d="M459 207c18-1 23 7 17 24-10 7-19 6-26-4-2-9 1-16 9-20Z"/>
  <path fill="#292421" d="m553 213 4 1v5h-4v-6Z"/>
  <path fill="#0f0f20" d="M701 213c32 16 44 42 35 78-3 6-8 11-13 16l7-25c3-27-7-47-29-61v-8Z"/>
  <path fill="#332d35" d="M652 224c4-1 5 1 4 5-2 2-3 2-5 0-1-2 0-4 1-5Z"/>
  <path fill="#0f1021" d="m388 275-2-6c-2-2-4-4-6-4 13-11 26-23 38-36 16-8 19-5 8 9l-38 37Z"/>
  <path fill="#ddd7c9" d="M514 225c5-2 7 0 6 6-6 2-8 0-6-6Z"/>
  <path fill="#0e101e" d="M398 231h8l-18 16-49 28-6-9c18-17 40-29 65-35Z"/>
  <path fill="#654c41" d="M606 233c9-1 12 3 8 12-12 2-15-2-8-12Z"/>
  <path fill="#0d0e1d" d="M555 235c11-2 13 2 8 12-11 1-13-3-8-12Z"/>
  <path fill="#8a807e" d="m589 228 1 8-11-1h10v-7Z"/>
  <path fill="#181623" d="m299 237 1 7h8c-11 10-21 22-29 35-2-1-4 0-5 1l-2 7-5 2c0-7 1-13 3-18 7-14 16-25 29-34Z"/>
  <path fill="#050816" d="m715 265-2 7a41 41 0 0 1-50 5l-8-7v-7c11-23 28-27 50-15 5 4 8 10 10 17Z"/>
  <path fill="#0e0b1e" d="M370 327h-6c-2 2-3 5-3 9h-5l-1 5-3-2c0-4 0-7 2-10l86-85c3-1 6 0 9 4l-79 79Z"/>
  <path fill="#100e1c" d="M367 364c-2-1-3 0-4 1l-4 5-3-3-1-5c37-37 73-74 111-110 4-2 9-3 14-3l-1 5-112 110Z"/>
  <path fill="#060918" d="M580 261c24-2 33 9 25 33-4 6-9 9-16 9-15 0-23-8-24-23 0-10 5-16 15-19Z"/>
  <path fill="#29252d" d="m637 228 2 55 4 15c0 4-2 6-6 4-6-11-8-22-8-34l1 8h3v4h4v-52Z"/>
  <path fill="#6d544a" d="M759 266c3 27-7 48-29 64-17 9-35 11-53 7-8-2-15-6-20-11l6 1c2-1 2-3 1-5 23 13 45 13 68-3 12-12 19-26 21-42l1-11h5Z"/>
  <path fill="#1c1826" d="M351 298c-5-1-7 1-9 5-1-4 0-8 2-11 9-11 20-19 34-25-2 2-3 3-3 6-8 8-17 16-24 25Z"/>
  <path fill="#7b6153" d="M655 263v7l8 7c18 10 35 8 50-5l2-7c5 19-1 34-18 44-16 5-29 1-39-12-4-12-5-23-3-34Z"/>
  <path fill="#a99387" d="M759 266h-5l-1 11v-12c2-1 4 0 6 1Z" opacity=".8"/>
  <path fill="#2d232b" d="m386 269 2 6-47 49-24 15c3-19 12-35 27-47-2 3-3 7-2 11 2-4 4-6 9-5-8 8-16 16-26 23-1 5 1 7 7 5l3-6 18-19 8-3 1-6 16-16c5 0 8-2 8-7Z"/>
  <path fill="#2c242b" d="M270 271c-2 5-3 11-3 18l5-2 2-7c1-1 3-2 5-1-8 13-14 28-18 43l-3-1-1-5c-1 2-2 3-4 2v-11c3-14 9-26 17-36Z"/>
  <path fill="#766355" d="M291 274c-3 3-4 7-4 11h-1c-4-5-3-9 2-12l3 1Z"/>
  <path fill="#1d1a23" d="M400 369c-5-1-8 1-8 6-4 1-5-1-3-5h2l-1-5 2-4c28-30 58-59 88-87 2 7 0 14-4 21l-76 74Z"/>
  <path fill="#272129" d="M303 328c-3 1-5 1-7-1l-1-11c5-15 13-28 25-39 4-2 7-1 10 4v3c-11 13-21 27-27 44Z"/>
  <path fill="#251f29" d="M304 278c-8 10-13 22-16 35l-8 5 1 10c-2-1-3-2-3-4-1-6-2-11-1-16 1-9 4-16 9-23h1c0-1 1-2 3-2l1 2 13-7Z"/>
  <path fill="#0e1020" d="M553 292c3 8 7 15 14 21 0 14-4 27-13 39l-18 17-3-1-2 4-2 1-7-5h-4c-1-2 0-4 1-5l4-4 6-10c12-13 19-27 21-44 0-5 1-9 3-13Z"/>
  <path fill="#8a7d7b" d="M553 292c-2 4-3 8-3 13-1-6 0-11 1-16l2 3Z" opacity=".8"/>
  <path fill="#2b2322" d="M618 299h5c0 3-2 5-5 5v-5Z"/>
  <path fill="#433535" d="M643 298c5 9 12 17 21 24 1 2 1 4-1 5l-6-1c-9-6-16-14-20-24 4 2 6 0 6-4Z"/>
  <path fill="#211f27" d="M774 299c1-1 3 0 5 2l3-2 1 9-9-1c2-3 2-5-1-6l1-2Z"/>
  <path fill="#6e534a" d="m243 300 1 3-2 8-2 93-9 4c-2-28-2-56-1-84 3-9 8-17 13-24Z"/>
  <path fill="#3b3031" d="M253 307v11c2 1 3 0 4-2l1 5 3 1c-2 9-2 19-2 30l-2 19-6 3-2 7v-57c0-7 1-12 4-17Z"/>
  <path fill="#413537" d="M277 308c-1 5 0 10 1 16 0 2 1 3 3 4l-1-10 8-5c-3 7-4 14-5 22l-2 40c-3 0-5 1-7 3-2-19-3-38-2-57l5-13Z"/>
  <path fill="#13121f" d="M406 400c-6 0-8-2-6-6l16-18 66-68c0 7-1 13-5 20l-71 72Z"/>
  <path fill="#434146" d="M521 255c-1 25 0 50 1 76l-3 4c-1-27 0-54 2-80Z"/>
  <path fill="#413334" d="m295 316 1 11c2 2 4 2 7 1l-4 35-9 8c-1-11-2-22-1-33 0-8 2-16 6-22Z"/>
  <path fill="#252028" d="M619 319c7 0 11 4 10 12-4 6-9 7-15 3-4-7-3-12 5-15Z"/>
  <path fill="#1c1615" d="M763 325h6l-4 5c-2-1-3-3-2-5Z"/>
  <path fill="#181623" d="M580 371h-5c-1 5-3 7-7 6l2-4-3-1 4-7c-2-2-3-4-2-6 6-9 10-19 13-29 2-3 5-4 8-3 2 16-1 30-10 44Z"/>
  <path fill="#080a17" d="m812 336-4 9c-9 6-17 6-25 0-2-2-3-4-2-6 6-10 14-13 25-8l6 5Z"/>
  <path fill="#1b1924" d="M370 327c-13 15-27 28-43 39-5 3-10 4-15 5-1-6 0-11 2-16 15-6 29-14 40-26-2 3-2 6-2 10l3 2 1-5h5c0-4 1-7 3-9h6Z"/>
  <path fill="#1d1a25" d="M495 329v14l4 2c-2 1-3 3-3 5l2 2c1-2 3-3 6-3l-40 39c-3-1-6-2-9-1 0-3-1-5-3-6a1166 1166 0 0 1 32-35c2-7 6-12 11-17Z"/>
  <path fill="#10101f" d="M746 337c9 0 12 5 9 15-9 8-15 6-18-6 1-4 4-8 9-9Z"/>
  <path fill="#765b4f" d="M812 336c11 15 8 27-7 37-23 1-32-9-27-31l3-3c-1 2 0 4 2 6 8 6 16 6 25 0l4-9Z"/>
  <path fill="#887e79" d="M659 341h-3v4h3l-4 1v-6c1-1 2 0 4 1Z"/>
  <path fill="#151318" d="m659 341 2 2-2 2h-3v-4h3Z"/>
  <path fill="#d6cac3" d="M414 342c4-1 5 1 4 5-5 1-7-1-4-5Z"/>
  <path fill="#1a171b" d="M606 349c-1 2-2 2-3 0v-3h3v3Z"/>
  <path fill="#6d6462" d="M606 349v-3h-3v3c-1-2-2-3-1-4h5l-1 4Z"/>
  <path fill="#231e21" d="M705 360v10l3-1c2-3 5-6 9-7-4 3-6 6-8 10l2 2 20 2-21 3-1 3 8 8h-2l-8-7a1301 1301 0 0 0-4 23l-2-24-1 1c-4 2-7 4-10 8 0-3 2-6 5-8v-4a624 624 0 0 0-20-3 624 624 0 0 0 21-5l-8-10h1l9 9 2-1 1-9 2-11 2 11Z"/>
  <path fill="#6d6361" d="m705 360-2-11-2 11v-12h4v12Z" opacity=".7"/>
  <path fill="#191723" d="m529 349-6 10-4 4c-1 1-2 3-1 5h4l7 5 2-1 2-4 3 1c-11 10-20 20-29 31-7 2-13 4-18 8-4-1-7 0-9 2 0-3-2-4-4-5l3-6c16-18 32-34 50-50Z"/>
  <path fill="#080817" d="M657 368c-7 10-16 14-27 11-8-2-12-7-12-14 2-7 7-11 14-12 9-2 17 1 23 10l2 5Z"/>
  <path fill="#92837f" d="M289 338Z" opacity=".7"/>
  <path fill="#796456" d="M213 355v20c-3-1-5-3-6-5l6-15Z"/>
  <path fill="#251e29" d="M569 359c-1 2 0 4 2 6l-4 7 3 1-2 4c4 1 6-1 7-6h5c-6 9-14 18-23 25-2-1-4 0-5 2 0-6-3-9-8-8v-5l25-26Z"/>
  <path fill="#2d2329" d="m392 361-2 4 1 5h-2c-2 4-1 6 3 5 0-5 3-7 8-6l-36 37c-6-2-6-4-1-6l-6-3c3-3 6-5 11-4l-2-3 3-7 23-22Z"/>
  <path fill="#3f3033" d="m367 364-54 54c-2-9-2-18-1-26l2-4c10-5 20-10 30-17l9 2c2-1 3-3 3-6l3 3 4-5c1-1 2-2 4-1Z"/>
  <path fill="#755c4c" d="M618 365c0 7 4 12 12 14 11 3 20-1 27-11 3 10 1 20-6 28-15 8-26 5-35-8-4-9-3-16 2-23Z"/>
  <path fill="#100f1f" d="m641 502-11 3c-1-2-2-4-1-5a11808 11808 0 0 1 137-132l2 1 1 7-128 126Z"/>
  <path fill="#564542" d="M249 324a1624 1624 0 0 0 2 50l6-3 2-19v48l-2 6-2 2-7-5c-1-27-1-53 1-79Z"/>
  <path fill="#2d2b2d" d="M592 374h5c0 4-1 5-5 5v-5Z"/>
  <path fill="#9c8274" d="M827 375h4c0 3-1 4-4 4v-4Z"/>
  <path fill="#30262c" d="M455 375c0 3-1 5-3 6 2 1 3 3 3 6 3-1 6 0 9 1-9 10-19 20-29 28l-7-2 2-6-4-2a478 478 0 0 1 29-31Z"/>
  <path fill="#615857" d="m685 374-10 2 10 2h-11v-4h11Z" opacity=".8"/>
  <path fill="#6e6462" d="m700 383 1-1 2 24 2-13v14h-4l-1-24Z" opacity=".8"/>
  <path fill="#1a151c" d="M203 384c8-1 11 2 9 10-11 3-14-1-9-10Z"/>
  <path fill="#6a5148" d="m299 405-1 59-1-16c-1 7-3 7-4 0-1-1-2-2-3-1-1-6 0-12 2-17-2-6-2-13 0-19 0-8-4-10-10-9-4 4-4 7 0 11l-1 53-1-15c-2 7-3 15-3 24l-2-9-1 1-1 18v-89c6-11 14-13 25-7l1 16Z"/>
  <path fill="#443436" d="m369 383-3 7 2 3c-5-1-8 1-11 4l6 3c-5 2-5 4 1 6l-39 39c-4 4-7 9-9 15-2-12 0-22 7-30 14-17 29-33 46-47Z"/>
  <path fill="#362a30" d="M544 385v5c5-1 8 2 8 8 1-2 3-3 5-2l-38 38h-4l-3 4c0-2-1-2-2-2-2 1-2 2 0 3-5 4-9 5-15 4l-2 2c-2-3-1-4 1-5l1-6c-3 0-5 2-6 5-4-3-7-6-7-10 5-16 16-23 33-23l8-3c6-6 13-13 21-18Z"/>
  <path fill="#dac9be" d="M324 388c5-1 6 2 5 7h-6c-1-3 0-5 1-7Z"/>
  <path fill="#0f0f1e" d="M727 454c-6-1-9 1-11 7l-8 7c-2-1-2-2-2-3l2-6 71-70c5-1 7 1 7 7l-59 58Z"/>
  <path fill="#65534b" d="M830 390c5-1 7 1 5 7h-6c-1-3-1-5 1-7Z"/>
  <path fill="#282128" d="M571 423h-7c0 3-1 5-4 6v-8h4c-1-3 0-4 2-2 1-3 2-4 5-5l3-8 14-15c3-1 6 0 8 4-7 10-16 19-25 28Z"/>
  <path fill="#241c24" d="m416 376-16 18c-2 4 0 6 6 6l-59 58c-4-2-6-5-5-8l74-74Z"/>
  <path fill="#6d574c" d="M668 399h6l17 18 1 7-6-1-19-17c-2-3-2-5 1-7Z"/>
  <path fill="#31272d" d="m479 399-3 6c2 1 4 2 4 5 2-2 5-3 9-2-7 5-11 12-12 20-1 1-2 2-1 4-1 2-2 4-1 7l-4-1c-2 2-3 2-5 1-4 2-6 1-7-3h-4c0 4-3 6-7 4-1-4-1-7 1-10l3-4c8-10 17-19 27-27Z"/>
  <path fill="#64544f" d="M814 409c-4-4-8-4-11-1-6-3-9-1-7 5l11 7c-12 1-16-4-13-15 3-5 8-7 14-5 3 2 5 4 6 9Z"/>
  <path fill="#3c2c2f" d="M429 401c0 2-1 4-3 5l4 2-2 6 7 2-25 26h-8c-5-3-6-6-2-10 1-1 2-2 4-1l1-6c7-9 15-17 24-24Z"/>
  <path fill="#0e0e1c" d="M212 404c9 0 13 5 11 15l-3 4c-11 2-16-3-15-13 1-3 4-5 7-6Z"/>
  <path fill="#2f262b" d="M572 460h-7l1 2c-4 0-6 2-6 6-3 2-5 1-5-3 3 0 4-1 2-3 2-3 5-5 9-6-1-1-2-3-1-4a1031 1031 0 0 1 50-47l5 5-2 4-46 46Z"/>
  <path fill="#3f3336" d="M814 409c0 5-2 9-7 11l-11-7c-2-6 1-8 7-5 3-3 7-3 11 1Z"/>
  <path fill="#98877f" d="m259 400-1 10-3-2 2-2 2-6Z" opacity=".8"/>
  <path fill="#775d52" d="m251 412 7 7v104c-4-5-7-10-8-15-3-11-4-22-2-32h-8c-2 1-2 2-2 4 2 6 2 12 1 19 0 19 7 34 21 47-2 3-4 5-7 6a77 77 0 0 1-23-44c-2-28-2-55 0-81l10-9c1 13 0 26-1 40h9l1-4c-3-13-4-26-3-38l5-4Z"/>
  <path fill="#1a1925" d="M835 412c8-1 11 2 9 11l-10-1c-1-4 0-7 1-10Z"/>
  <path fill="#5d4a44" d="m196 504-1 5-1-3c-2 2-3 5-2 8-3 0-5 0-6 2l-2-4c-1-25 0-50 1-74 1-9 3-17 8-24l2 6 1 84Z"/>
  <path fill="#433336" d="M574 406a3248 3248 0 0 1-8 13c-2-2-3-1-2 2h-4v8c3-1 4-3 4-6h7l-67 65v-12c22-25 45-48 70-70Z"/>
  <path fill="#1d1a1b" d="M658 417c4-1 5 1 4 5h-4v-5Z"/>
  <path fill="#4f3d3b" d="m405 425-1 6c-2-1-3 0-4 1-4 4-3 7 2 10h8l-38 37a81 81 0 0 0-18 47l-3 19c-3-1-6-2-9-1v-30c1-15 5-28 13-39a838 838 0 0 1 50-50Z"/>
  <path fill="#1e1423" d="M646 427c4-2 6 0 5 5-6 1-8 0-5-5Z"/>
  <path fill="#18151e" d="M668 429h6v5h-6v-5Z"/>
  <path fill="#3f3132" d="m452 426-3 4c-2 3-2 6-1 10 4 2 7 0 7-4h4c1 4 3 5 7 3 2 1 3 1 5-1l4 1c-1-3 0-5 1-7v5h5v-5c-1-2 0-3 1-3 0 4 3 7 7 10 1-3 3-5 6-5l-1 6c-2 1-3 2-1 5l2-2c6 1 10 0 15-4-2-1-2-2 0-3 1 0 2 0 2 2l3-4h4a49 49 0 0 1-40 21l-18 17-13-7 2-9-8-1c-1-1-2-2-1-3l-6-1-3-6c6-8 12-14 20-19Z"/>
  <path fill="#796b67" d="M477 428v8h3c-1-2 0-3 1-4v5h-5v-5c-1-2 0-3 1-4Z" opacity=".7"/>
  <path fill="#6f564a" d="M780 430c4-2 6 0 5 5-10 8-19 17-27 27l-8 2c-1-3 0-5 1-7l29-27Z"/>
  <path fill="#5e4a42" d="M203 504a639 639 0 0 1-1-76l10 9 2 70c2 13 7 25 14 36l25 27c-2 4-5 6-8 6l-27-25c-9-15-14-30-15-47Z"/>
  <path fill="#0a0a18" d="M637 445c-1 7-5 10-12 10-8 1-12-2-12-9 1-6 5-8 11-7 5-1 9 1 13 6Z"/>
  <path fill="#070917" d="M840 449c-2 8-8 12-17 12-7 0-13-2-18-7v-6c6-11 15-13 27-8 3 2 6 5 8 9Z"/>
  <path fill="#e7d7c8" d="M456 441c6 0 7 3 4 8h-5c-1-3 0-6 1-8Z"/>
  <path fill="#4b3938" d="m432 445 3 6 6 1c-1 1 0 2 1 3l8 1-2 9 13 7-33 33-9 2-3 12c-1-5-2-5-3 0h-6l-2-12c-5-2-10-3-14-2v-19c12-15 26-29 41-41Z"/>
  <path fill="#705b4f" d="M637 445c5 8 5 16-2 23-19 6-27-1-25-20l3-2c0 7 4 10 12 9 7 0 11-3 12-10Z"/>
  <path fill="#796054" d="M299 405v93l-1 11-9 10a1909 1909 0 0 1 3-108c-2 6-2 13 0 19-2 5-3 11-2 17 1-1 2 0 3 1 1 7 3 7 4 0l1 16 1-59Z"/>
  <path fill="#785b4d" d="M805 448v6c5 5 11 7 18 7 9 0 15-4 17-12 6 11 5 22-5 32-16 8-28 4-35-11v-15c1-3 3-6 5-7Z"/>
  <path fill="#423335" d="M342 450c-1 3 1 6 5 8-8 10-14 21-18 33-2 0-3 0-4 2-1-3-2-5-1-7-2 0-3-1-3-2 4-13 11-25 21-34Z"/>
  <path fill="#7a6053" d="M282 413a2208 2208 0 0 1-2 124l-7-8a968 968 0 0 1 1-62l1-1 2 9c0-9 1-17 3-24l1 15 1-53Z"/>
  <path fill="#423133" d="M565 452c-1 1 0 3 1 4-4 1-7 3-9 6 2 2 1 3-2 3 0 4 2 5 5 3 0-4 2-6 6-6l-1-2h7l-44 43c-6-1-8-3-7-8l44-43Z"/>
  <path fill="#1f1826" d="M727 454 621 558h-7l2-8 92-91-2 6c0 1 0 2 2 3l8-7c2-6 5-8 11-7Z"/>
  <path fill="#e7d9cd" d="M440 457c5 0 7 2 5 8h-6c-1-3 0-6 1-8Z"/>
  <path fill="#433833" d="M777 457c3-1 4 1 4 5h-4v-5Z"/>
  <path fill="#0d0b15" d="M239 462c4-1 7 0 10 4 0 7-3 9-10 7-2-2-3-5-2-8l2-3Z"/>
  <path fill="#493837" d="m591 517-5-2-11 3v9c-5 2-8 1-10-3l1-2-5-3v1c-5-1-7 1-4 6l2 4-1-1-4 6-2-2c0-2-1-3-3-3l-6-3c1-4 3-6 8-4v-3c-3-1-6 0-9 1l1-9c16-18 34-35 51-52 4 14 13 23 28 27l-31 30Z"/>
  <path fill="#a39086" d="M202 454Z" opacity=".7"/>
  <path fill="#ddcdc1" d="M424 473c6-1 8 2 5 8h-5c-2-3-2-6 0-8Z"/>
  <path fill="#3b2e31" d="M750 504c-2-1-3 0-4 1l-3-6c-1-2-1-2-2 0-1-3-3-5-5-5l-3-1c-4-2-8-3-11-2v5c-1-2-2-2-3-2l-5 1v-3h3v-3c4-3 6-6 7-9 11-6 20-4 26 8v16Z"/>
  <path fill="#8b796b" d="M778 477c1 0 2 0 1 2l-11 11v-4c3-4 6-7 10-9Z"/>
  <path fill="#c2afa3" d="M597 480h5c0 4-2 6-5 6v-6Z"/>
  <path fill="#0d0e1d" d="M471 485c14-2 19 4 16 18-7 8-14 9-22 1-3-8-2-15 6-19Z"/>
  <path fill="#55423f" d="M321 484c0 1 1 2 3 2-1 2 0 4 1 7 1-2 2-2 4-2-5 15-7 30-6 46l-2 6h-6l-1-13-1 8v-19c-1-13 2-25 8-35Z"/>
  <path fill="#56443f" d="M391 486v19c4-1 9 0 14 2l2 12h6c1-5 2-5 3 0l3-12 9-2a75 75 0 0 0-15 60l-4 18-2-3-5 2c-8-20-9-40-5-60 3-4 5-9 5-13-3-4-7-4-10-1-2 17-3 34-2 52 3 17 9 34 18 49a84 84 0 0 1-37-64c-3-20 1-37 12-52l8-7Z"/>
  <path fill="#7a5d51" d="M793 487c3 3 6 6 11 8v3L694 607c-6 3-11 3-16 1-2-4-1-7 1-9l114-112Z"/>
  <path fill="#ecdecb" d="M408 490c5-1 7 1 5 7h-6c-1-3-1-5 1-7Z"/>
  <path fill="#554240" d="M847 490c1 0 2 1 2 3-6 27-19 51-38 72l-19 19c-3 0-6-1-7-4l29-30c13-16 21-34 25-53l8-7Z"/>
  <path fill="#e3d2c9" d="m588 490 4 1v4h-4v-5Z"/>
  <path fill="#493737" d="M724 480c-1 3-3 6-7 9v3h-3v3l5-1c1 0 2 0 3 2v-5c3-1 7 0 11 2-5 0-7 3-4 8 5 1 8-1 7-7 2 0 4 2 5 5 1-2 1-2 2 0l3 6c1-1 2-2 4-1l-12 15c-3-1-5 0-6 1-2 4-5 6-9 7l-1 4c-1-2-2-2-3 0-3-3-3-4 1-5l-3-7c0-1 1-2 3-1-1-3 0-5 2-6 2-2 2-4 1-5l-4-3c-2 2-3 5-3 9l-9 2c-2 3-3 5-3 8l1 1-6 3-3-2c-1 2-3 2-4 1l-3 3c-2-2-3-3-5-2-1-5 1-8 6-8l3-9 31-30Z"/>
  <path fill="#ecdbd0" d="m733 493 3 1c1 6-2 8-7 7-3-5-1-8 4-8Z"/>
  <path fill="#594641" d="M521 495c-1 5 1 7 7 8l-73 71c-6 6-10 14-13 22-2-4-3-8-2-12-1-5 0-8 2-11l17-19 62-59Z"/>
  <path fill="#dac9c2" d="M577 500c4-1 5 0 4 4l-4 1v-5Z"/>
  <path fill="#231c28" d="M629 500c-1 1 0 3 1 5l11-3-72 71c-3-1-6 0-7 3l-5-3 4-6c22-24 44-46 68-67Z"/>
  <path fill="#53403c" d="M752 593h-9v-1c6-1 6-2 1-5l-1-6c25-27 51-53 79-77-2 11-6 21-13 30l-57 59Z"/>
  <path fill="#dbc4b6" d="M723 507c1 1 1 3-1 5-3-1-4-2-2-5h3Z"/>
  <path fill="#73584c" d="M196 504c2 22 10 43 23 62l-6 1c0-4-1-7-3-10-1-2-2-2-2 0l-2 6-5-11h-3c-7-12-11-24-12-36 1-2 3-2 6-2-1-3 0-6 2-8l1 3 1-5Z"/>
  <path fill="#d9c8be" d="M567 511c3-1 4 1 3 4l-3 1v-5Z"/>
  <path fill="#56433d" d="m543 512-1 9c3-1 6-2 9-1v3c-5-2-7 0-8 4l6 3c-3 1-4 3-3 6l6-3 2 2 4-6 1 1-2-4c3-1 4-3 4-6v-1l5 3-1 2c2 4 5 5 10 3v-9l11-3 5 2-51 50-9 2-4 6-1-1c1-2 2-5 1-7-3-2-4-4-5-7h-11c-4-1-5-3-4-6-1-4 1-7 5-9l-2-1c10-12 21-23 33-32Z"/>
  <path fill="#201817" d="M459 523c-4-2-8-4-11-4 5-3 8-1 11 4Z"/>
  <path fill="#584540" d="M448 519c3 0 7 2 11 4 0 7-3 10-10 9-4-1-5-3-4-6-1-4 0-6 3-7Z"/>
  <path fill="#513f3b" d="m693 510-3 9c-5 0-7 3-6 8 2-1 3 0 5 2l3-3c1 1 3 1 4-1l3 2v1h-3v5l-2 5 2 4-5 4-1-3v-3l1-1c-7-2-11 0-12 7l5 1-1 3h-5c-2-1-4 0-4 2-2 0-3 2-3 4l-7 1v-3c-5-1-7 1-7 6l3 2v2l-2 2-8-8c-2 2-3 2-4 0l2-4 45-44Z"/>
  <path fill="#dac6bd" d="M561 520c0 3-1 5-4 6-3-5-1-7 4-6Z"/>
  <path fill="#87685a" d="m298 523 1 1c1 11 0 23-1 35-10-8-13-17-9-28l9-8Z"/>
  <path fill="#e1cdbc" d="M699 528c1 1 2 2 1 5h-4v-5h3Z"/>
  <path fill="#d6c2b6" d="M549 530c2 0 3 1 3 3l-6 3c-1-3 0-5 3-6Z"/>
  <path fill="#5a4741" d="M723 507h-3c-2 3-1 4 2 5-2 1-3 3-2 6-2-1-3 0-3 1l3 7c-4 1-4 2-1 5 1-2 2-2 3 0l1-4c4-1 7-3 9-7 1-1 3-2 6-1l-89 89c-19 8-29 2-30-18-1-5 1-10 4-13 8-9 16-16 25-23l-2 4c1 2 2 2 4 0l8 8 2-2c0 6 3 8 10 6 2-10-2-13-10-8l-3-2c0-5 2-7 7-6v3l7-1c0-2 1-4 3-4v4h4v-6h5l1-3-5-1c1-7 5-9 12-7l-1 1c-3-1-5 0-6 3 2 2 4 2 6 0l1 3 5-4-2-4 2-5h4c1-3 0-4-1-5v-1l6-3-1-1c0-3 1-5 3-8l9-2c0-4 1-7 3-9l4 3Z"/>
  <path fill="#decdc1" d="m709 516 4 1v5h-4v-6Z"/>
  <path fill="#5d4a46" d="M342 514v30c3-1 6 0 9 1l3-19c-3 32 8 60 32 83-4 0-7 0-9-2a70 70 0 0 1-33-45c-4-16-4-32-2-48Z"/>
  <path fill="#624c45" d="M686 704h-6c-1-3 0-5 1-7 24-29 53-52 87-70a270 270 0 0 0 83-93c0 9-3 17-7 26-13 18-27 35-43 50l-69 49-46 45Z"/>
  <path fill="#624e47" d="M313 519v19l1-8 1 13h6l2-6a119 119 0 0 0 32 74c-2 4-4 4-7 2a98 98 0 0 1-35-60l-2-25c0-4 0-7 2-9Z"/>
  <path fill="#e6d6cf" d="m536 540 4 1v4h-4v-5Z"/>
  <path fill="#dcc6b6" d="M690 540v3c-2 2-4 2-6 0 1-3 3-4 6-3Z"/>
  <path fill="#453435" d="M431 542c8-2 10 2 8 10-4 4-8 3-11-1l-1-3c0-3 2-5 4-6Z"/>
  <path fill="#604b42" d="m510 544 2 1c-4 2-6 5-5 9-1 3 0 5 4 6-2 2-2 5-2 8 3 3 6 3 10 1v-9h3c1 3 2 5 5 7 1 2 0 5-1 7l1 1 4-6 9-2-42 42-15 19h-7c1-4-1-7-4-8l-2 2c-1-1-2-2-3-1-1-2 0-4 1-5-3-2-5-3-5-5-3-10-1-18 4-26 14-15 28-28 43-41Z"/>
  <path fill="#d3c1ba" d="M526 551c3 0 4 1 3 4l-3 1v-5Z"/>
  <path fill="#d3c0b5" d="M678 550v6h-4v-4c0-2 2-3 4-2Z"/>
  <path fill="#816152" d="M198 552h3l5 11 2-6c0-2 1-2 2 0 2 3 3 6 3 10l6-1a374 374 0 0 1 33 39c-4 4-6 3-7-1-2-1-4-2-6-1-16-13-29-28-39-44l-2-7Z"/>
  <path fill="#453235" d="m616 550-2 8h7a497 497 0 0 1-52 48h-3c0-4 2-7 6-9l-2-2 46-45Z"/>
  <path fill="#523f3a" d="M295 581c0 3 2 6 6 9-3 2-6 2-8 1-2-2-5-3-7-2a793 793 0 0 0-24-27l6-6h3l24 25Z"/>
  <path fill="#e7d6ce" d="M511 560h8v9c-4 2-7 2-10-1 0-3 0-6 2-8Z"/>
  <path fill="#e7d5c9" d="M660 564v-2c8-5 12-2 10 8-7 2-10 0-10-6Z"/>
  <path fill="#624e46" d="M413 565c2 16 9 32 19 46 10 9 20 19 29 30 3 8 4 16 3 25l-9-15-38-40c-7-9-12-19-15-29l5-2 2 3 4-18Z"/>
  <path fill="#92715e" d="m190 569 138 140 7 11 1 10-4-1c-24-26-49-51-74-74l-51-52c-9-10-15-22-17-34Z"/>
  <path fill="#392a2e" d="m561 567-4 6 5 3c1-3 4-4 7-3l-26 26h-8c-1-3 0-5 1-7l25-25Z"/>
  <path fill="#b5a398" d="M650 574h6v5h-6v-5Z"/>
  <path fill="#644d43" d="M261 575c21 18 42 39 61 61v4c-2 1-4 3-5 6l-61-60c0-5 1-8 5-11Z"/>
  <path fill="#ead9cf" d="M495 576c8-1 11 2 7 10-3 1-6 1-8-1-1-4-1-7 1-9Z"/>
  <path fill="#5b473f" d="m743 581 1 6c5 3 5 4-1 5v1h9c-17 18-37 31-60 39l-20 13-49 47c-4 0-7 2-10 4l-1-1c14-16 29-32 45-47 15-11 30-21 47-31 12-12 25-25 39-36Z"/>
  <path fill="#e8d7cb" d="M637 584c8-1 10 2 7 10-8 3-11 0-9-8l2-2Z"/>
  <path fill="#604c44" d="M295 581a11808 11808 0 0 1 95 99l-1 2 2 3c-1 2-2 4-1 7-2-4-3-4-5-1l-3-1-6-8-90-93c2-1 5 0 7 2 2 1 5 1 8-1-4-3-6-6-6-9Z"/>
  <path fill="#8a6c5f" d="M841 586c-1 5-2 10-5 16-5 8-10 15-17 21l-50 38c-4 1-7 2-10 1l57-45c10-9 18-19 25-31Z"/>
  <path fill="#5d4b44" d="M670 682c-2-2-4-2-6-2 13-16 28-30 46-42 25-12 47-29 67-49 2 1 4 3 5 6l-14 14-67 44c-10 9-20 18-28 28l-3 1Z"/>
  <path fill="#e9d5cb" d="M478 593c10-1 12 3 7 12-9 2-11-2-9-9l2-3Z"/>
  <path fill="#5a4741" d="M536 592c-1 2-2 4-1 7h8l-34 34-13 20c-3 0-5-1-4-4l1-9 5-3c-2 0-3-1-3-2 0-3 2-5 3-6l38-37Z"/>
  <path fill="#54403c" d="m570 595 2 2c-4 2-6 5-6 9h3c0-3 2-4 5-3l-30 31h-3l-1-3-1-5c10-11 20-22 31-31Z"/>
  <path fill="#665444" d="M599 597c4-1 5 0 4 4l-4 1v-5Z"/>
  <path fill="#8c6d5b" d="m250 600 99 100c5 7 10 15 13 24-1 5-4 7-9 6l-13-23-101-104c2-1 4 0 6 1 1 4 3 5 7 1-2-2-3-3-2-5Z"/>
  <path fill="#816558" d="M463 611c0 2 2 3 5 5-1 1-2 3-1 5 1-1 2 0 3 1l2-2c3 1 5 4 4 8h7c-2 2-3 5-4 9-10-7-15-16-16-26Z"/>
  <path fill="#070617" d="M621 625c0 3-2 6-4 8-12 6-24 6-35-1l-2-7c7-10 17-13 29-9l12 9Z"/>
  <path fill="#705449" d="M656 616c11-2 14 3 10 14-8 4-12 2-13-7 0-3 1-5 3-7Z"/>
  <path fill="#977865" d="m205 614 48 48c-5 0-10-1-14-3-11-10-21-20-29-32l-5-13Z"/>
  <path fill="#0a0918" d="m428 673-2-7-1 3c-2-2-4-2-5 0-6-20-18-32-37-37l-16-2c3-6 7-9 14-9 16 0 30 6 40 19 7 10 9 21 7 33Z"/>
  <path fill="#836555" d="m580 625 2 7c11 7 23 7 35 1 2-2 4-5 4-8 2 2 4 5 5 9 5 26-6 39-32 38-18-6-24-19-21-36l7-11Z"/>
  <path fill="#7f6254" d="m367 630 16 2c19 5 31 17 37 37-1 8 0 16 2 24l-8 14c-2-17-9-32-19-45l-30-31 2-1Z"/>
  <path fill="#66524b" d="m540 631 1 3h3l-19 20c-6 8-9 17-10 28-4 2-8 6-11 10-1-23 7-41 24-56l10-1 2-4Z"/>
  <path fill="#6b544b" d="M495 635c0 1 1 2 3 2l-5 3-1 9c-1 3 1 4 4 4-8 11-12 24-12 38-1 3-2 7-1 12-1 6-2 13-1 21l-7-1-1 3v-41c2-19 9-36 21-50Z"/>
  <path fill="#8f7265" d="M819 638c1-1 2 0 3 1-9 13-19 24-32 33l-9 2 38-36Z"/>
  <path fill="#685147" d="m378 695-1 7-3-2-7 1c-14-17-29-33-44-48 2-4 5-7 9-8l39 40 7 10Z"/>
  <path fill="#665344" d="m552 645 4 1v4h-4v-5Z"/>
  <path fill="#8e6b5a" d="M449 695v33c-4 0-6-1-8-3l-2 7-1-46v-27c7 11 10 23 11 36Z"/>
  <path fill="#161621" d="M545 664c8-1 10 3 6 10-7 1-10-1-8-8l2-2Z"/>
  <path fill="#342b32" d="M428 673c0 7-2 14-6 20-2-8-3-16-2-24 1-2 3-2 5 0l1-3 2 7Z"/>
  <path fill="#755c4e" d="M234 669c5-1 7 1 5 6-6 1-8-1-5-6Z"/>
  <path fill="#080a17" d="M761 684c-2 8-7 12-16 12-8 0-14-4-16-11 6-8 14-10 24-7l8 6Z"/>
  <path fill="#11121e" d="M257 678c12-2 16 4 14 16-8 8-15 8-20-2v-7l6-7Z"/>
  <path fill="#69544b" d="M664 680c2 0 4 0 6 2l-79 78-13 17-4-2c3-8 7-14 12-20 25-26 51-51 78-75Z"/>
  <path fill="#775c51" d="M390 680c7 9 12 20 14 33l-1 10c0 2 0 3 2 5 1 4 0 5-2 1l1 2-2 1c-2-2-4-2-6-2-3-15-8-28-14-40l3 1c2-3 3-3 5 1-1-3 0-5 1-7l-2-3 1-2Z"/>
  <path fill="#100f1c" d="M569 683c11-1 14 4 10 14-14 3-17-2-10-14Z"/>
  <path fill="#9e897b" d="M785 685h3v5h-4c-1-2 0-4 1-5Z"/>
  <path fill="#836452" d="M761 684c9 7 11 17 6 29-8 14-20 18-35 10-13-12-14-25-3-38 2 7 8 11 16 11 9 0 14-4 16-12Z"/>
  <path fill="#0c0b17" d="M542 696c-1 5-4 7-9 6-6 1-9-2-9-7l2-3h12l4 4Z"/>
  <path fill="#6c5147" d="M623 692c-17 16-33 33-48 50l-6-7a480 480 0 0 1 44-39c3-2 6-4 10-4Z"/>
  <path fill="#a07a67" d="m432 704-1 80c-2-1-5-2-7-1l-3-9a1012 1012 0 0 1 0-60l10-21 1 11Z"/>
  <path fill="#a88771" d="M283 696h4c11 10 22 21 32 33 9 11 13 23 12 38l-8-5c-2-13-6-25-14-34l-18-19c-4-2-8-4-11-4 0-4 1-7 3-9Z"/>
  <path fill="#7f6356" d="M378 695c9 14 13 30 12 48-3 2-5 4-6 8l-2-9c-3-15-8-29-15-41l7-1 3 2 1-7Z"/>
  <path fill="#786050" d="M524 695c0 5 3 8 9 7 5 1 8-1 9-6 3 7 2 13-3 19-10 4-16 1-19-8-1-5 0-9 4-12Z"/>
  <path fill="#7b6054" d="M681 697c-1 2-2 4-1 7h6a664 664 0 0 1-58 53c-1-3-2-5-1-7 17-19 35-37 54-53Z"/>
  <path fill="#c5a795" d="M484 691v133l-8-1h7V703c-1-5 0-9 1-12Z" opacity=".7"/>
  <path fill="#957c6e" d="M700 708c3-1 5 0 4 4-4 2-9 5-12 9-3 1-3 0-3-2l11-11Z"/>
  <path fill="#9f816e" d="M561 713c3-1 5 0 5 4-3 4-8 5-12 4l7-8Z"/>
  <path fill="#9f7b64" d="M271 715c13-1 21 6 25 20l-8-2-17-18Z"/>
  <path fill="#947564" d="M514 740v22c-1-2-2-4-1-6h-12v-26c1-4 3-7 6-9 3 0 5 1 6 5l1 14Z"/>
  <path fill="#776155" d="M652 759h-6l-5 4c0-3 2-5 4-6l9-7 37-17 17-11c3 0 5 1 4 5l-19 12c-15 5-28 12-41 20Z"/>
  <path fill="#917160" d="M474 685v41l1-3 7 1c-1-8 0-15 1-21v52l-2 4-1-9-4 5-1-4-1 12c-1-10-2-19-1-28-1-17 0-34 1-50Z"/>
  <path fill="#af8a73" d="M362 724c4 4 5 9 5 15l1 49c-5-1-8-2-11-5l-1-41-3-12c5 1 8-1 9-6Z"/>
  <path fill="#a17c67" d="M449 728v51c-1-1-2-2-1-3-3-1-6 0-9 1a1012 1012 0 0 1 2-52c2 2 4 3 8 3Z"/>
  <path fill="#c5a693" d="m449 695 1 123-7-1h6V695Z" opacity=".7"/>
  <path fill="#957564" d="m404 713 1 1 2 22v27h-7c-2-2-2-6-1-13l1-4c-3-6-4-11-4-16 2 0 4 0 6 2l2-1-1-2c2 4 3 3 2-1-2-2-2-3-2-5l1-10Z"/>
  <path fill="#9c7a66" d="m534 770-1 8-1-1c0 3-2 5-5 6 0 3-1 3-2 1l-4 3v-31c-1-9 0-17 2-24l7 3c-5 12-4 24 4 35Z"/>
  <path fill="#13111c" d="M339 734c11-1 14 4 7 13-9 2-13-2-11-10 1-2 2-3 4-3Z"/>
  <path fill="#7c5e4e" d="M457 735c7-2 9 1 7 8l-7 1v-9Z"/>
  <path fill="#9e8175" d="M722 738h8c-10 7-20 14-28 22l-11 6c-3 1-5 0-6-1 11-11 23-20 37-27Z"/>
  <path fill="#8c6552" d="M300 739c5-1 7 1 5 6h-5v-6Z"/>
  <path fill="#0e101d" d="M547 741c13-1 18 6 15 19-5 6-11 7-18 3-7-9-6-16 3-22Z"/>
  <path fill="#a37e6a" d="m382 742 2 9c1-4 3-6 6-8-1 2 0 4 1 7l1 50-8-3c-2-19-3-37-2-55Z"/>
  <path fill="#b28f7b" d="M473 735c-1 9 0 18 1 28l1-12 1 4 4-5 1 9 2-4v68h-11c-1-30 0-59 1-88Z"/>
  <path fill="#947460" d="M627 750c-1 2 0 4 1 7 1-1 2-2 4-1l-15 17h-14c7-9 15-17 24-23Z"/>
  <path fill="#b99a84" d="M342 756h3v12h-3v-12Z"/>
  <path fill="#967a6c" d="m652 759-12 12c-3 4-5 8-6 13-5 2-7 0-7-4 3-8 7-13 14-17l5-4h6Z"/>
  <path fill="#ae8a73" d="M407 736v69l-9-2a703 703 0 0 1 2-40h7v-27Z"/>
  <path fill="#ad8e7a" d="M667 767h9c-5 3-7 8-5 14-17-1-19-6-4-14Z"/>
  <path fill="#b49077" d="m438 686 1 46v45c3-1 6-2 9-1-1 1 0 2 1 3v38h-6l-3-1-2-7V686Z"/>
  <path fill="#8f7063" d="m574 775 4 2c-4 7-7 16-8 25h-3c-1-10 1-19 7-27Z"/>
  <path fill="#cdb19c" d="M500 759v67h8l-9 1c-1-23 0-46 1-68Z" opacity=".8"/>
  <path fill="#b38c74" d="m534 770 1 21v35h-14v-39l4-3c1 2 2 2 2-1 3-1 5-3 5-6l1 1 1-8Z"/>
  <path fill="#bc9b84" d="M432 704v110l-11-3a879 879 0 0 1 0-37l3 9c2-1 5 0 7 1l1-80Z"/>
  <path fill="#a2816d" d="M599 787h18l12 6c-19 0-34 8-43 25l-12 3c-1-13 4-23 15-30l10-4Z"/>
  <path fill="#c9ab98" d="M521 756v70h14v-35l1 36h-16c-1-24 0-48 1-71Z"/>
  <path fill="#ae917b" d="M652 788c10 2 10 5 0 8v-8Z"/>
  <path fill="#9a8061" d="m460 788 5 5c-2 1-3 3-2 5l-8-4c1-3 3-5 5-6Z"/>
  <path fill="#b7957d" d="M501 730v26a1250 1250 0 0 0 2 44l1 3c2 0 4 0 6 2l2-9 1 29 1-63v-22l1 86h-15v-67c-1-10 0-20 1-29Z"/>
  <path fill="#ab8772" d="m514 762-1 63-1-29-2 9c-2-2-4-2-6-2l-1-3-2 6v-50h12c-1 2 0 4 1 6Z"/>
  <path fill="#af8974" d="M552 801c9 3 9 8 0 13v-13Z"/>
  <path fill="#9f816e" d="M615 804c5-1 11 0 17 1-10 4-20 7-30 8 3-4 8-7 13-9Z"/>
</svg>
