<svg xmlns="http://www.w3.org/2000/svg" xmlns:xlink="http://www.w3.org/1999/xlink" viewBox="0 0 1024 1024">
  <defs>
    <linearGradient id="b">
      <stop offset="0" stop-color="#fff"/>
    </linearGradient>
    <linearGradient id="a">
      <stop offset="0"/>
    </linearGradient>
    <linearGradient xlink:href="#a" id="c" x1="0" x2="1024" y1="512" y2="512" gradientTransform="translate(.49951274 .49897973) scale(.99902)" gradientUnits="userSpaceOnUse"/>
    <linearGradient xlink:href="#b" id="d" x1="0" x2="1024" y1="512" y2="512" gradientTransform="translate(.49951274 .49897973) scale(.99902)" gradientUnits="userSpaceOnUse"/>
  </defs>
  <path fill="url(#c)" stroke="url(#d)" stroke-linecap="round" stroke-linejoin="round" d="M495.47564 1.1604241C217.04122 12.967437-5.1583668 251.12351.60930642 531.46806 4.0699107 699.64599 92.171115 848.24158 246.02378 945.72143c91.12925 57.88317 220.03673 87.83257 321.54777 74.72967 294.72809-37.72475 496.45255-299.78284 449.01325-583.29513-26.53122-159.25068-129.48417-302.37473-271.08054-376.960483C679.4644 25.350401 614.1455 6.4879793 543.6357 1.5923884 523.73724.29649678 517.82537.15250873 495.47564 1.1604241M537.43546 136.5091c-.57677 63.49869-1.58611 110.1508-2.45126 114.03849-1.8745 8.92724-10.38181 25.48586-16.43787 32.54126-5.76768 6.62345-6.05606-.14399-3.74899-79.19338 1.15354-39.74067.86516-42.33245-5.3351-40.46061-2.73963.86393-2.73963 2.30381-2.73963 60.33095 0 75.88167 2.88382 68.1063-41.67144 111.87866-14.1308 13.82283-32.44316 31.96532-40.80629 40.31662-8.36314 8.3513-39.22018 38.44478-68.49112 66.9544-64.30956 62.77876-71.23076 71.84999-77.86358 103.38336-9.94925 47.80399 3.74898 94.60008 38.64341 131.74897 13.12146 13.96684-11.82374 1.58387-27.10808-13.39088-22.92648-22.46212-33.59667-55.57934-32.15477-99.35169 1.73031-52.26763 9.94924-68.53828 58.97446-116.63024 121.12113-119.07805 144.19183-142.54808 153.13171-156.22693 14.85177-22.75011 14.275-17.56654 14.85177-130.30911.57677-139.236363-.14419-131.74899 12.83307-131.74899 10.6702 0 10.6702 0 10.6702 11.231061 0 6.047495-.57677 13.102904-1.29773 15.550699-1.44191 5.183567.28839 9.21523 4.03737 9.21523 4.90252 0 5.91186-3.023748 4.46994-12.958916-3.4606-23.326049-2.88383-24.477954 11.10278-24.477954 12.40049 0 12.40049 0 11.39115 107.559M461.15799 32.981764c7.78635 4.89559-27.97322 45.644183-53.78355 61.050894-15.57273 9.359212-40.95049 20.014322-40.95049 17.134572 0-.71994 4.75834-4.7516 10.52601-8.92726 23.35908-16.990578 46.42977-38.588771 63.01183-59.323037 6.20024-7.631362 8.6515-9.071242 18.74492-10.943086.43258 0 1.44193.431965 2.45128 1.007917m116.50698 8.927253c33.16413 16.414628 69.35627 60.762923 57.67673 70.554093-2.59544 2.15983-2.45125 2.4478-6.48862-5.75951-12.4005-24.621943-34.89443-46.796088-60.12799-59.611017-6.63284-3.311723-7.64218-4.319638-7.64218-8.063324 0-5.471544-.43256-5.615532 16.58206 2.879758m-165.09963 2.87976c-19.89847 27.933663-60.70477 58.747083-113.47897 85.672843C204.06396 179.12954 172.48596 229.9573 171.765 335.2125c0 9.07122 0 9.07122-5.91188 11.95098-7.78635 4.03166-7.06539 7.4874-7.49796-39.74068-.28839-45.06823 1.87449-56.73124 15.14013-83.22503 3.74899-7.34339 4.03738-8.92726 2.45127-11.80701-2.45127-4.7516.72095-12.095 5.1909-12.095 2.45127 0 6.05606-3.3117 13.40984-12.67092 24.6568-30.52546 52.91839-52.55562 93.72469-73.0019 47.29492-23.470041 59.8396-31.677355 84.78479-55.723345 8.21894-7.775348 15.71691-14.110818 16.72625-14.254807 1.00935 0 5.76766-.863928 10.52601-2.015831 14.56336-3.311724 16.00528-3.023748 12.2563 2.15982m226.23696 4.031662c32.44318 26.061821 45.42043 60.474951 47.00654 125.557501 1.29773 52.84359 4.03737 61.91481 25.08938 83.94498 50.89971 53.27553 135.10774 19.15039 140.87542-57.16323 1.00934-11.951 1.15353-12.38296 4.61412-12.38296 3.60481 0 3.60481 0 2.88385 18.28648-4.03738 102.80738-145.20116 120.51791-180.23979 22.75008-5.33508-14.54278-6.63281-26.06182-7.78634-64.07464-1.44193-53.85148-9.80505-75.737656-41.81563-109.430838-12.83308-13.390879-12.83308-13.390879-4.32577-12.526952 6.34446.575952 9.80505 1.871843 13.69822 5.039579m-282.47177 9.359218c0 6.623444-29.9919 28.797591-52.05325 38.444784C218.05056 134.49327 147.82915 211.09487 141.91729 273.72962c-.28838 3.5997-.86515 7.77536-1.29773 9.35922-.43256 1.58387-1.29772 26.20581-1.87449 54.71542-1.00934 59.03507-1.00934 59.03507-9.94923 52.41161-6.63283-4.89558-6.63283-3.74367-6.05607-80.0573.57677-84.37694 38.35503-147.44367 121.12113-202.15907 30.56867-20.302312 112.46963-56.44329 112.46963-49.819843m215.42258 17.134566c21.05201 11.231062 39.94115 37.436867 42.53659 59.179047 1.29772 11.08707.86515 11.51903-7.78637 10.7991-5.33509-.43197-5.33509-.43197-8.50731-11.37505-5.47929-19.15039-22.63811-41.036566-36.48054-46.508109 0-.143988-.57676-3.887674-1.15352-8.495289-1.29772-9.791182-.86516-9.935169 11.39115-3.599699m139.28929 6.911422c5.76769 5.759519 2.16289 15.838675-5.76766 15.838675-2.16288 0-5.04672-1.295891-6.48864-2.879758-7.93053-8.639277 3.89319-21.310219 12.2563-12.958917m32.44318 20.734275c12.97726 5.47153 11.96792 24.33396-1.44193 28.07765-15.14013 4.17564-24.65679-13.2469-14.13079-25.77385 4.03736-4.8956 8.07475-5.471543 15.57272-2.3038m-299.63061 2.59178c15.28432 4.60761 16.58206 29.66151 2.01867 37.0049-25.66613 13.1029-44.98784-21.02224-21.052-36.86091 4.46995-3.02375 9.51667-3.16774 19.03333-.14399m342.74396 12.95891c46.86234 27.50169 60.12798 91.57633 26.09871 124.98154-6.48862 6.33548-6.48862 6.33548-1.29772-6.19147 17.01463-41.9005 7.35379-80.2013-27.54064-107.99096-5.91186-4.60763-7.35378-6.76744-8.07473-11.23107-1.00935-6.91142-1.44193-6.91142 10.81438.43196m-395.66236 13.2469c0 4.03166-13.26565 19.43836-37.48988 43.34037-13.69822 13.39088-29.84771 29.66151-35.75957 35.99699-51.33229 53.7075-64.59793 65.65851-87.09185 78.32944-11.39117 6.47946-11.96794 5.18357-5.04674-11.80701 9.80507-24.62194 27.54066-47.22805 52.63002-67.38637 9.08409-7.34338 28.83837-20.01433 31.14545-20.01433 5.3351 0-59.69543 69.69018-69.64465 74.44178-6.77702 3.31172-8.21894 9.93517-2.45127 11.37505 5.04671 1.1519 7.78637-.14399 9.51666-4.6076 2.45125-6.47947 27.54064-32.10933 32.44316-33.11724 5.91186-1.29589 7.93055-3.16774 7.93055-7.63136 0-4.46364 22.06135-27.5017 26.38711-27.5017 8.93989 0 11.82372-10.22315 3.74899-13.53487-4.32577-1.87185-4.32577-1.87185 7.64216-12.095 6.63282-5.47153 19.32171-17.56652 28.26159-26.63777 17.59141-17.85449 37.77827-28.07763 37.77827-19.15038m-50.75552 17.42254c-8.07476 7.63135-16.0053 13.10291-29.55934 20.59027-10.09342 5.61554-26.81967 15.11874-37.05728 21.02224-20.61944 11.951-21.05201 12.09499-26.24293 2.01583-5.1909-10.07916 47.43912-41.46853 87.38026-52.12363 17.59139-4.7516 18.31235-3.5997 5.47929 8.49529m311.16596-4.89559c5.62346 4.60761.86514 15.69468-6.77703 15.69468-9.37247 0-13.12144-9.21522-6.77701-16.84659 2.01868-2.44779 10.09341-1.72786 13.55404 1.15191m-71.95173 1.58386c5.33508 4.31964-.1442 16.99057-7.35379 16.99057-8.50732 0-12.54469-8.35129-7.93055-16.84659 2.0187-3.74367 10.81439-3.88766 15.28434-.14398m184.27714 10.36712c36.48054 9.6472 47.7275 54.71544 20.90782 83.51303-22.20554 23.61402-65.60728 14.39879-73.53784-15.69469-11.53533-44.78026 14.27501-78.04148 52.63002-67.81834m-354.42349 4.03167c3.89317 3.59971 5.47928 2.01584-68.77949 75.16172-22.49393 22.17414-46.28559 46.22014-52.63003 53.27553-31.86639 35.42105-72.81686 62.05881-72.81686 47.51604 0-14.54279 1.5861-19.1504 7.06539-20.87826 25.52194-8.20732 39.22018-20.3023 162.07161-142.69206 16.58206-16.55863 19.32171-17.85451 25.08938-12.38297m48.44844 7.34339c-.57677 2.87976-13.69821 16.55861-47.87168 49.67585-25.81033 25.0539-79.59388 78.04146-119.39084 117.63816-39.94111 39.59668-73.10524 72.13796-73.9704 72.42594-1.73029.57596-1.87448-8.63927-.57676-28.50961 1.00934-13.82285 1.00934-13.82285 12.97725-19.2944 6.63285-3.02373 16.87046-8.78327 22.78233-12.52695 10.3818-6.91142 14.56337-8.3513 15.57271-5.75952 3.3164 8.78327 13.84242-1.43988 10.81438-10.6551-.86513-2.44781 8.79571-12.52696 54.93709-58.45911 109.00902-108.27894 103.67391-103.38335 115.06507-106.26312 11.67954-3.02375 10.526-3.31172 9.66085 1.72786m172.88601 19.00642c20.04266 12.67093 14.99594 47.94798-7.93056 54.71541-18.45655 5.47154-32.29896-1.1519-40.37371-19.29439-11.96791-27.06972 21.91716-52.12363 48.30427-35.42102m-175.33726 38.44477c-2.01869 3.45572-23.35908 25.62987-47.29492 49.38787C238.5258 441.76358 231.31622 449.25094 223.96243 463.0738c-3.02802 5.7595-3.02802 5.7595-3.31641.71993-1.00934-27.35772 8.21892-40.31663 73.53783-103.52734 19.03333-18.57445 55.94643-54.85942 82.04515-80.63326 83.77546-83.08104 81.75676-81.3532 82.18933-70.12213.28838 8.06333-.14419 10.36712-3.17221 15.55069m-217.29709-18.14248c5.76768 4.7516 5.62349 5.18357-1.87448 13.96683-11.82373 14.11082-19.4659 27.21372-31.8664 55.0034-2.30707 5.32756-4.61413 20.15832-5.91187 38.4448-.86514 13.10289-8.5073 25.62984-15.42851 25.62984-1.58611 0-2.30708-33.98116-1.00934-46.22013 2.88382-28.94158 17.4472-59.03506 39.94112-83.08105 8.07475-8.4953 9.94925-8.92726 16.14948-3.74369m327.31545 25.77385c2.59546 5.03957 7.78636 12.81492 11.67954 17.13457 14.56338 15.69467 4.18156 47.66001-24.22423 74.58576-15.71691 14.97474-41.67144 40.74859-50.17875 50.1078-5.76768 6.33547-9.51667 8.92725-17.5914 12.095-19.17751 7.48736-32.01059 23.32604-32.01059 39.30871 0 8.78325 3.46059 10.79909 5.04671 2.87976 4.18157-18.71844 19.89847-33.83719 37.48988-35.70902 20.33105-2.15982 24.3684-4.89558 60.99314-40.7486 30.28028-29.80549 38.06664-40.31661 44.98785-61.77083 5.1909-15.83867 13.55403-19.0064 15.28433-5.75952 4.18156 33.69319-6.20024 50.68378-69.35626 113.60651-56.09063 55.86731-60.84895 59.46702-81.32419 61.48286-9.94925 1.1519-14.275 4.75159-71.66335 60.9069-52.48582 51.54768-47.15072 121.09387 14.13081 184.73655 24.08004 24.90992 27.10805 30.66944 27.10805 50.39578 0 9.5032 0 9.5032-4.32575 1.72786-5.62347-10.22315-9.66084-14.97475-38.49921-45.50019-26.96387-28.65361-33.88508-37.29288-41.38306-51.97967-18.45655-36.42894-22.49392-86.82472-8.65151-109.8628 6.48864-10.65512 1.7303-18.57445-9.08409-14.97474-3.89316 1.43987-4.03735 1.72785-4.32574 12.81493-.14419 6.19147-.72096 22.31813-1.29772 35.85298-1.44193 36.57297 9.22827 77.89749 24.22421 93.88017 6.05607 6.47946 1.44191 4.60762-7.93054-3.16774-34.46185-28.36564-50.32295-74.72976-41.95982-122.38977 4.18155-23.902 23.93584-49.24388 75.70071-97.33586 52.48582-48.66793 163.94609-162.13043 168.99281-171.92162 6.9212-13.67886 10.95858-28.79759 12.11212-45.78815 1.00934-16.55862.43257-16.12667 6.05605-4.60763m321.40357 5.32756c1.29773 1.29588 2.16288 1.29588 3.4606 0 3.02804-3.02376 3.74899-2.01583 3.74899 4.46363-.14419 6.33547-.14419 6.33547-6.48863 6.47947-6.48863 0-7.35377-.71995-4.32575-3.8877 1.44192-1.43988 1.15354-2.15983-1.00934-3.74369-2.73965-2.01583-2.01868-5.03958 1.15353-5.03958.86516 0 2.45127.71995 3.4606 1.72787m-770.99367 12.95892c-1.00934 5.75952-2.16288 39.02074-2.73964 73.86581-1.00935 63.35471-1.00935 63.35471-6.34444 66.23445-9.228277 4.89561-9.084088 6.04752-9.516664-58.60309-.432578-64.21863-1.009345-61.05088 13.554024-84.9529 6.34444-10.51111 7.06541-10.07915 5.04672 3.45571m345.48361 5.61554c-2.0187 16.55861-3.02804 17.71051-74.83557 89.99247-36.7689 37.0049-78.72873 78.9054-93.43629 93.16021-33.5967 32.54128-43.40175 46.22013-52.63002 73.57784-19.03332 56.73127-8.21893 117.63817 28.54997 160.97856 8.65153 10.07915 9.66086 12.67092 6.05607 15.55068-8.07475 6.76745-35.327-24.76592-47.72751-55.43536-9.94922-24.18996-15.86108-62.20281-12.40048-78.76142.86515-4.17565 2.30706-12.67093 3.02803-18.86242 2.73964-19.43837 13.84242-47.804 26.09871-65.94648 3.89318-5.75952 34.02928-37.00491 80.17066-83.36903 40.66209-40.74857 88.1012-88.55259 105.40422-106.11912 36.04796-36.71694 32.73155-34.12515 31.72221-24.76593m209.22233 13.67886c8.93989 9.93517-3.6048 24.76592-16.14948 19.15039-4.18157-2.01584-7.2096-9.35921-5.91188-14.68677 2.45128-9.6472 14.99596-12.095 22.06136-4.46362m256.22887 12.81492c30.28028 12.95892 21.34039 63.06673-10.81439 60.76292-21.48458-1.43987-32.01057-13.67886-29.55933-34.84509 2.45127-23.03807 20.33106-34.55711 40.37372-25.91783m-74.54718 11.951c4.90253 3.16774 4.61414 16.27064-.43256 20.15831-8.93989 7.05542-16.72627 5.18357-21.62878-4.89559-5.76768-12.23897 9.94924-23.03807 22.06134-15.26272m-70.65398 28.07765c.43256 17.71052 1.15353 18.43046 9.66085 9.6472 7.93055-8.20732 9.22828-7.1994 2.01867 1.43989-7.78635 9.35921-6.9212 10.22313 12.11212 12.23896 14.70757 1.58386 14.70757 1.58386 0 2.73576-18.60074 1.58387-19.89847 2.73578-12.68889 11.66303 6.34446 7.63137 4.90254 8.63928-2.16286 1.43988-7.49798-7.63135-8.21894-6.04748-9.22828 17.27856-.86515 19.43838-4.32575 15.55069-4.90252-5.47155-.43257-19.72634-1.29773-20.44627-10.52601-10.36712-7.64216 8.20731-9.22827 7.19939-2.16288-1.2959 8.79571-10.7991 7.49797-12.09499-13.55403-12.67094-9.80504-.28798-12.25629-.86392-12.25629-2.59178 0-1.72785 2.45125-2.3038 12.25629-2.59178 20.33106-.57595 22.49392-2.01584 14.41919-9.64719-2.30708-2.30381-4.32576-4.75161-4.32576-5.61553 0-.71995 2.59546 1.00791 5.62348 4.03166 8.65151 8.49529 10.23763 6.91142 10.23763-10.36714 0-7.77535.43257-14.68677 1.00934-15.26272 2.88384-2.87977 4.03737 1.29589 4.46995 15.40671m-86.5151-6.91142c24.94519 10.51111 27.97321 49.67585 4.61414 61.62686-16.58206 8.49528-36.76892 3.16772-44.2669-11.95101-14.27499-27.93367 12.25631-61.05091 39.65276-49.67585M73.714566 333.48463c0 13.39088-.288388 13.67885-6.200253 8.92726-4.037371-3.16775-4.037371-3.16775-.144193-12.23899 5.190903-11.951 6.344446-11.23106 6.344446 3.31173m800.841374 7.77534c1.29772 4.75161 1.29772 4.75161-25.95453 31.67735C480.62387 735.21103 499.513 716.20462 486.24737 736.65091c-21.77297 33.4052-25.81034 52.98756-26.24291 128.14929-.14421 18.14247-.72098 30.23746-1.15355 26.63775-.86515-6.47945-.86515-6.47945-4.03737-2.30379-3.31641 4.17564-3.31641 4.17564-3.4606.71993-.1442-3.02374-.28839-2.87975-1.29773.86394-.57677 2.30379-1.15353-19.72636-1.29772-49.0999-.28839-104.53525-16.14948-83.36902 270.93643-362.70567 161.92743-157.66681 151.6898-148.59557 154.86202-137.65249M69.100424 360.98632c3.604798 2.44782 4.469943 10.22316 1.441921 13.24691-4.758335 4.75159-15.572721.86394-15.572721-5.47155 0-9.21522 6.777015-12.9589 14.1308-7.77534m122.995626 3.02375c4.18156 2.4478 4.18156 2.4478 4.18156 88.26461 0 85.81683 0 85.81683-6.34444 92.00831-6.34444 6.19147-6.34444 6.19147-7.35379-11.951-1.7303-30.66943-.14419-130.59708 2.16287-134.19676 2.59545-4.17567-.43258-11.80702-5.0467-12.95894-9.37247-2.3038-14.275 4.17566-9.94924 13.10291 3.02804 6.33548 4.32575 157.95479 1.44192 174.22541-1.15353 7.19941-1.15353 7.19941-6.77703.86394-7.35378-8.20731-9.22827-192.07994-2.01868-201.72714 7.06541-9.50321 20.61944-12.95891 29.70353-7.63136m706.39573 6.47945c2.59546 4.75162 3.31642 3.88768-62.72345 67.81834-22.20553 21.45421-81.61255 79.62533-131.93551 129.30119-50.32294 49.53185-95.45498 93.59217-100.06913 97.76781-12.25629 10.9431-64.59793 63.78667-74.54716 75.30571-10.52601 12.095-15.28434 21.16623-18.31237 35.56503-3.17221 14.25482-19.03332 31.67734-19.03332 20.73428.28839-32.97327 24.22422-75.44971 42.39239-75.44971 7.78636 0 10.23763-2.44778 8.93989-9.35921-1.15353-6.04751-9.22826 2.15981 170.86733-174.22543 60.56056-59.46703 124.58173-122.38977 142.31731-140.10026 34.89444-34.98909 37.05731-36.28499 42.10402-27.35773m-275.69476.14398c5.04672 3.88768.43257 9.79118-38.35503 49.09991-33.30831 33.40521-91.41762 88.84056-92.42696 87.97664-1.29773-1.43988 0-14.11082 1.8745-17.8545 2.73964-5.18356 53.06259-56.58728 91.5618-93.44818 30.85705-29.66153 31.57802-30.23748 37.34569-25.77387m126.60042 22.89409c14.99595 14.68678 18.45655 22.7501 9.66086 22.7501-7.64218 0-35.75958-29.51753-32.15478-33.83717 4.03735-4.89558 8.65151-2.59178 22.49392 11.08707m185.2865-7.63135c11.10276 11.08707-.28839 28.79758-16.1495 25.34188-8.7957-2.01583-12.83306-15.40671-6.92121-22.89409 6.20025-7.91934 16.58206-8.92725 23.07071-2.44779m-850.731756 5.32755c9.660852 8.78327 4.325754 25.0539-8.21894 25.0539-12.400494 0-19.610085-12.95891-12.688878-22.7501 4.469947-6.33546 15.140143-7.48736 20.907818-2.3038m570.999626 1.43988c2.45124 2.3038 3.60478 4.75161 3.1722 6.19149-1.58611 4.46362-134.24258 136.06861-208.50138 206.91069-28.69416 27.21373-35.90376 35.70901-42.39239 48.66793-4.61413 9.35921-5.76766 9.93517-7.06539 3.02373-4.03738-22.03014-5.4793-20.30229 88.96634-112.45457 42.10402-41.03657 77.28683-75.59369 78.15198-76.74559 3.89318-5.18356 80.74741-79.33736 82.18934-79.33736.86515 0 3.31641 1.72784 5.4793 3.74368m326.88289 9.79118c3.46053 3.45572 1.15347 11.951-3.60487 12.81492-8.93987 1.72787-12.25627-3.02374-9.5166-13.2469 1.0093-3.74368 9.08402-3.59969 13.12147.43197m-848.28054 2.3038c4.90253 5.03958 6.34445 47.66002 4.03738 118.07013-1.15353 35.27705-1.15353 35.27705-6.48862 24.47795-2.88385-5.90351-5.62349-14.1108-6.05607-17.9985-.57678-4.03163-1.73031-10.5111-2.59547-14.68677-1.00933-4.89559-1.15353-9.21522-.14418-12.95891 2.16287-8.78326 1.15353-10.51112-6.05605-10.51112-7.93055 0-12.40049 8.63927-6.34444 12.38297.72095.43196 1.00934 7.63135.43257 16.12665-1.44191 25.77386 5.04671 45.21223 21.19619 62.77875 8.50733 9.21524 8.50733 9.21524 5.19092 13.96683-4.75834 6.91142-5.76767 6.62344-13.98662-3.31172-22.63811-27.64568-25.954523-42.62044-25.954523-114.7584 0-57.01922 0-57.01922 7.065413-63.06673 3.89318-3.31172 7.35377-5.61552 7.93054-5.18356 2.16288 2.15982.86515 40.31664-1.44192 44.92424-4.18156 8.35132 1.58611 14.97476 10.09344 11.80702 3.89316-1.58387 5.62347-10.36714 2.30705-12.38297-2.59544-1.58386-1.8745-49.09989.86516-51.69167 3.17223-3.31171 5.19091-2.87976 9.94923 2.01582m-87.52443 2.87977c1.297726 4.17564 1.730303 21.31022 1.730303 62.49078 0 121.52583-2.595454 116.63024 140.442837 262.20206 84.4964 85.81683 84.06382 85.38486 92.71534 102.23145 6.63282 13.10291 6.77701 13.82284 4.75832 17.56653-3.89318 7.05541-10.52599 6.33548-13.55402-1.29589-7.64217-19.1504-56.09063-71.56201-173.895343-188.33625-56.234807-55.72333-66.328234-81.49718-66.328234-169.90578 0-53.99548.720958-62.63477 7.20959-81.78516 3.748987-10.51113 4.469947-10.7991 6.921207-3.16774m27.108058 81.06522c2.162878 74.58577 7.065409 88.4086 44.987852 125.98946 11.82373 11.80702 11.96793 12.09499 9.80505 15.40672-5.76768 8.92724-15.28434 3.02374-43.690127-26.92577-20.331047-21.4542-27.829022-54.28344-27.829022-122.38974 0-58.17114-.144191-57.16323 8.507319-50.68377 6.632819 5.18356 6.632819 5.18356 8.218928 58.6031m824.633032-61.05091c1.29772 4.17565-41.81563 46.50811-46.86234 45.93216-6.05606-.71994-4.46994-7.77535 3.4606-14.83076 3.4606-3.16775 13.26565-12.09499 21.77296-19.87032 15.28435-13.96685 19.89848-16.41463 21.62878-11.23107m61.85829 10.36714c18.3124 5.03957 27.97326 32.2533 17.87982 50.53977-9.22828 16.55862-32.87576 21.02224-47.29495 8.78326-26.96386-23.03807-4.32574-68.68225 29.41513-59.32303m-279.29956 5.18356c13.98662 11.23106 9.94923 35.27704-6.63281 39.30872-12.68889 3.02375-21.62878-.57595-26.24292-10.51113-10.67019-23.61402 13.40984-44.63626 32.87573-28.79759m-48.73683 44.2043c5.47928 7.91934 13.9866 14.39881 23.0707 17.71053 6.63281 2.3038 6.63281 2.3038-15.71692 24.04599-118.09311 114.75839-173.89533 172.78554-180.38398 187.32833-2.88382 6.62344-2.88382 6.62344-7.49797 2.73577-12.11211-10.07915-19.03331-26.49378-19.03331-45.21222 0-19.72635-2.59546-16.55862 82.7661-100.07163 41.67144-40.6046 82.9103-81.06522 91.70599-89.84848 15.71692-15.83868 15.71692-15.83868 18.02398-9.6472 1.44192 3.31172 4.46996 9.21523 7.06541 12.95891m202.73369 7.19941c9.0841 3.88766 13.69824 12.38296 13.69824 25.62984 0 6.1915-.57677 11.23107-1.29774 11.23107-.72095 0-2.01868 2.01583-3.02801 4.31964-1.00934 2.4478-34.02928 36.71691-73.39364 76.16964-71.51916 71.84998-71.51916 71.84998-80.02648 73.57782-14.27497 2.87975-21.19619.28799-27.68482-10.94306-11.67953-20.01434-4.32575-35.56504 31.8664-66.66643 4.03736-3.45572 30.42447-28.94158 58.68606-56.58727 28.26161-27.64568 53.0626-51.5477 54.93709-52.98758 7.64217-6.04748 17.44721-7.34337 26.2429-3.74367m-377.06161 9.50321c8.36313 0 14.85176 12.52694 11.67954 22.89408-6.05605 20.44629-36.19214 14.83075-34.46184-6.47947.86514-10.7991 10.23762-19.43836 18.16817-16.99057 1.15353.28798 3.17222.57596 4.61413.57596m458.53 9.21522c2.88384 2.59179 6.63283 5.61552 8.07475 6.47945 2.73964 1.58388-142.8941 148.73957-158.61102 160.11461-9.94922 7.34339-22.49392 4.89559-22.49392-4.17564 0-4.89561 3.31642-8.49532 57.38835-61.33888 31.43382-30.81343 68.63531-67.38635 82.47772-81.06521 28.40579-28.07765 25.95453-26.49378 33.16412-20.01433m70.94242 12.38297c-7.93056 35.709-25.95458 65.80249-61.13736 102.08746-19.75428 20.59028-19.75428 20.59028-24.22424 17.99848-6.34443-3.74367-6.20024-4.03165 16.00528-25.91782 35.03863-34.55711 50.46717-59.755 57.53256-93.1602 1.29774-6.62346 2.45121-8.49531 6.92124-11.51905 6.92115-4.60761 7.93056-2.44779 4.90252 10.51113m-35.9038 8.92725c-5.62348 25.19789-19.75428 44.78025-64.02118 88.26461-11.96791 11.80702-28.11739 28.07766-35.75957 35.853-19.3217 20.01433-39.79694 34.84509-63.58859 46.36413-42.53659 20.44629-45.99719 22.89408-74.97974 50.39578-45.42044 43.34038-52.34164 50.10782-85.36157 83.51302-34.31765 34.5571-34.31765 34.5571-38.21083 30.52545-4.03738-4.17565-4.03738-4.17565 19.03333-26.63777 12.68887-12.23899 41.52724-40.6046 64.16536-63.06673 47.58329-46.94008 45.99718-45.64419 80.02645-66.9544 31.00125-19.43837 34.60604-22.60611 108.14388-95.03206 45.42042-44.92424 89.11053-86.39277 90.84084-86.39277.28838 0 .14418 1.43988-.28838 3.16774m-526.30015 19.58236c6.777 6.0475-.43258 20.3023-9.37249 18.43046-6.48862-1.29589-8.36312-3.45571-8.36312-9.35921.1442-10.9431 9.80505-15.98267 17.73561-9.07125m-228.25566 31.53337c0 25.48586 0 25.48586-7.20959 18.43045-10.81439-10.51112-10.95858-30.09349-.57677-38.58877 3.74899-2.87977 6.9212-5.32755 7.20959-5.32755.28838 0 .57677 11.51902.57677 25.48587m795.21785 1.1519c-2.88377 13.67885-9.08403 26.06182-20.90777 41.75651-29.12675 38.73274-52.19744 59.03506-116.79537 103.52734-36.04796 24.76592-40.95049 29.08557-101.51105 89.27253-108.57643 107.70299-98.91558 98.91974-109.00901 98.48777-8.79571-.43197-8.79571-.43197 5.3351-14.25481 7.78635-7.63137 43.40174-42.76443 79.01711-78.04149 75.98909-75.1617 88.67798-85.9608 126.60042-107.415 44.69946-25.1979 108.43225-89.7045 132.94491-134.48475 6.48855-11.80702 6.92113-11.66304 4.32566 1.1519m-593.63768 1.00792c2.30707 2.3038 2.16288 11.95099-.14419 13.96682-9.08409 7.48739-20.76363-4.46362-12.97728-13.24689 2.59546-2.87975 10.526-3.31172 13.12147-.71993m-182.83523 79.19336c90.69665 91.86433 106.84613 108.9989 114.34411 120.22995 12.54468 19.15039 18.88912 37.1489 18.45655 52.84359-.14419 5.47154.43257 10.6551 1.15354 11.51903 2.16288 2.59178 3.60478 12.38297 1.7303 12.38297-.86515 0-1.58611-1.29589-1.58611-2.87976 0-1.87185-.72097-2.59178-2.16288-2.01584-5.47929 2.15983-10.526-2.59177-12.2563-11.66302-2.30708-11.951-11.53536-36.42896-17.44721-46.22014-6.05607-10.07916-16.87045-21.74217-104.25069-111.1587-38.21084-39.02073-69.64466-71.706-69.93304-72.42595-.57677-1.87183 8.36313-11.37504 10.526-11.37504.86516 0 28.54998 27.35772 61.42573 60.76291m-59.83962 76.02565c77.57521 78.18546 88.38959 89.5605 91.706 96.9039 2.88383 6.33547 3.60481 14.68677 1.44192 15.98266-1.44192 1.00792-143.18247-139.66832-171.155685-169.90579-21.628774-23.18206-35.182805-44.63627-35.182805-55.29138 0-1.1519 11.823729 9.79118 26.387098 24.47796 14.419183 14.68677 53.495162 54.13946 86.803472 87.83265m9.22827-89.27253c19.75428 18.28647 66.47244 67.53034 66.47244 69.97814 0 .86393-1.8745 4.03166-4.18157 6.76744-4.03736 5.32755-4.03736 5.32755-48.30426-38.01282-47.15071-46.36413-46.71814-45.78818-40.3737-54.13948 4.46994-5.75951 2.01869-7.19939 26.38709 15.40672m810.50226 9.07124c-9.94924 23.902-16.0053 30.09348-66.76083 68.39428-34.46184 26.20581-39.07598 29.22955-43.40173 28.79759-4.61414-.43196-2.88383-2.01583 36.33634-32.82925 50.61132-39.74068 62.57926-51.4037 73.82622-71.70601 5.19092-9.21524 5.19092-4.89559 0 7.34339m-84.49642-4.31965c4.90252 6.47947-15.8611 25.48588-52.48582 47.948-61.28152 37.72484-66.76083 42.33245-180.52817 154.35509-53.49517 52.84358-62.43505 65.08255-69.50045 95.608-2.45127 10.7991-5.76768 1.58387-3.89319-10.65511 4.32576-26.78176 18.60076-45.78816 79.5939-104.82323 25.66614-24.90991 54.5045-53.13155 64.02116-62.63476 31.00125-31.24539 50.03458-46.50811 72.09592-58.31512 26.3871-13.96684 52.48582-33.40521 73.53783-54.57144 12.4005-12.52695 12.83307-12.67094 17.15882-6.91143m-247.57736 34.55712c26.67549 9.93516 36.62472 49.53185 17.15883 68.97023-16.14948 16.12665-43.54593 15.5507-58.39769-1.1519-26.96387-30.66944 4.03737-81.49719 41.23886-67.81833m82.62191 2.4478c5.62348 5.61552 3.74898 15.98266-3.31641 18.57445-5.91185 2.3038-7.93054 2.01582-11.82373-2.01584-7.49797-7.48738-3.02802-19.43837 7.2096-19.43837 3.17221 0 6.20024 1.1519 7.93054 2.87976m-392.49014 6.47945c49.89037 11.80702 65.31891 60.76293 35.1828 112.16661-6.34443 10.9431-7.35377 10.36715-9.66084-7.0554-2.88384-20.59028-12.54469-37.00491-36.62473-61.91482-33.01994-33.98116-30.42448-29.66151-23.07068-38.01282 7.35378-8.3513 15.57271-9.5032 34.17345-5.18357m616.56423 24.04599c-13.84241 23.61403-42.82497 50.10781-54.79288 50.10781-1.7303 0 18.31236-19.43837 47.00653-45.78817 6.34445-5.90351 9.80504-7.77536 7.78635-4.31964m-677.26899 37.43686c36.91311 37.14891 45.85301 50.3958 52.9184 78.61743 5.04672 19.43838 4.46996 32.25331-1.29772 37.00492-1.00935.86392-2.01869 2.73576-2.30708 4.17564-1.15353 5.47155-4.18155 4.17566-4.18155-1.58387 0-10.94309-9.80505-43.77234-16.87045-56.58726-6.20024-11.23106-23.07068-31.10139-49.74618-58.45912-19.89847-20.3023-19.89847-20.3023-14.70756-26.2058 6.63282-7.77535 3.02803-10.07916 36.19214 23.03806m136.83805 20.59029c3.60479 12.81493 4.75833 67.96231 1.44191 69.25821-1.29772.43195-3.89318-.14399-5.91187-1.43989-4.75831-3.16774-4.75831-3.16774-5.47928 3.74369-.28838 3.45571-.57676-6.76744-.72095-22.7501-.14419-15.83867-.57677-39.88466-1.00935-53.27553-.72096-24.33398-.72096-24.33398 4.32576-14.25482 2.73963 5.47155 6.05604 13.96684 7.35378 18.71844m150.68045-20.87826c5.19091 2.87976 2.30706 14.3988-3.6048 14.3988-5.04671 0-8.07473-2.87975-8.07473-7.63137 0-7.48736 4.90251-10.36712 11.67953-6.76743m293.57456 20.59029c11.82372 6.19147 20.47523 18.86241 20.61942 30.23747.1442 35.99698-39.65276 53.13155-59.69542 25.62985-21.48458-29.51753 8.07476-71.84999 39.076-55.86732m-703.94449.14399c14.56336 6.19147 8.9399 28.94156-7.2096 28.94156-14.13078 0-19.61008-16.55861-9.08407-27.64568 3.6048-3.88767 9.08407-4.31963 16.29367-1.29588m451.03203 9.79118c7.49798 8.92724-1.8745 22.17414-12.54469 17.85449-7.93055-3.16773-9.66086-10.79908-4.18157-19.15039 3.02803-4.46364 12.54469-3.74369 16.72626 1.2959m-55.08128 12.09498c10.526 11.08707 1.8745 32.2533-13.12146 32.2533-14.99594 0-22.34973-23.03806-10.6702-33.4052 5.33511-4.75161 18.88913-4.03166 23.79166 1.1519m246.42382 42.18848c1.7303 3.31171 2.01869 3.02373-18.74494 16.27063-7.49797 4.75161-20.76362 11.66302-29.55931 15.11875-34.89443 13.96681-52.48582 27.50169-61.42572 47.22804-4.61414 10.22314-5.19092 10.6551-9.80504 6.76744-9.51667-7.91935 30.85704-47.66002 58.97444-57.88317 12.68889-4.60762 34.60604-15.5507 46.86235-23.61403 11.53535-7.48737 11.67954-7.48737 13.69822-3.88766m-526.15596 16.41462c8.65151 5.9035 3.89317 17.27855-7.64217 17.99849-11.67953.71994-14.70756-14.39879-3.74898-19.1504 6.20024-2.59178 5.76767-2.73577 11.39115 1.15191m167.69509.43196c5.47928 2.15982 1.00935 12.67095-5.04671 11.80701-3.02803-.43196-3.46061-1.29589-3.89318-6.62345-.43258-6.33546 2.01868-7.77534 8.93989-5.18356m134.0984 9.79118c17.4472 7.1994 12.97726 33.98117-5.62349 33.98117-11.24696 0-18.02397-7.34339-18.02397-19.58237 0-12.67095 11.24696-19.58236 23.64746-14.3988"/>
</svg>
