<svg xmlns="http://www.w3.org/2000/svg" version="1.0" viewBox="0 0 2048 2048"><path d="M1018.5 647.7c-193.1 8.2-347.2 173.6-343.2 368.3 2.4 116.8 63.5 220 170.2 287.7 63.2 40.2 152.6 61 223 51.9 204.4-26.2 344.3-208.2 311.4-405.1-18.4-110.6-89.8-210-188-261.8-45.8-24.2-91.1-37.3-140-40.7-13.8-.9-17.9-1-33.4-.3m29.1 94c-.4 44.1-1.1 76.5-1.7 79.2-1.3 6.2-7.2 17.7-11.4 22.6-4 4.6-4.2-.1-2.6-55 .8-27.6.6-29.4-3.7-28.1-1.9.6-1.9 1.6-1.9 41.9 0 52.7 2 47.3-28.9 77.7-9.8 9.6-22.5 22.2-28.3 28s-27.2 26.7-47.5 46.5c-44.6 43.6-49.4 49.9-54 71.8-6.9 33.2 2.6 65.7 26.8 91.5 9.1 9.7-8.2 1.1-18.8-9.3-15.9-15.6-23.3-38.6-22.3-69 1.2-36.3 6.9-47.6 40.9-81 84-82.7 100-99 106.2-108.5 10.3-15.8 9.9-12.2 10.3-90.5.4-96.7-.1-91.5 8.9-91.5 7.4 0 7.4 0 7.4 7.8 0 4.2-.4 9.1-.9 10.8-1 3.6.2 6.4 2.8 6.4 3.4 0 4.1-2.1 3.1-9-2.4-16.2-2-17 7.7-17 8.6 0 8.6 0 7.9 74.7m-52.9-71.9c5.4 3.4-19.4 31.7-37.3 42.4-10.8 6.5-28.4 13.9-28.4 11.9 0-.5 3.3-3.3 7.3-6.2 16.2-11.8 32.2-26.8 43.7-41.2 4.3-5.3 6-6.3 13-7.6.3 0 1 .3 1.7.7m80.8 6.2c23 11.4 48.1 42.2 40 49-1.8 1.5-1.7 1.7-4.5-4-8.6-17.1-24.2-32.5-41.7-41.4-4.6-2.3-5.3-3-5.3-5.6 0-3.8-.3-3.9 11.5 2M961 678c-13.8 19.4-42.1 40.8-78.7 59.5-65.9 33.8-87.8 69.1-88.3 142.2 0 6.3 0 6.3-4.1 8.3-5.4 2.8-4.9 5.2-5.2-27.6-.2-31.3 1.3-39.4 10.5-57.8 2.6-5.1 2.8-6.2 1.7-8.2-1.7-3.3.5-8.4 3.6-8.4 1.7 0 4.2-2.3 9.3-8.8 17.1-21.2 36.7-36.5 65-50.7 32.8-16.3 41.5-22 58.8-38.7 5.7-5.4 10.9-9.8 11.6-9.9.7 0 4-.6 7.3-1.4 10.1-2.3 11.1-2.1 8.5 1.5m156.9 2.8c22.5 18.1 31.5 42 32.6 87.2.9 36.7 2.8 43 17.4 58.3 35.3 37 93.7 13.3 97.7-39.7.7-8.3.8-8.6 3.2-8.6 2.5 0 2.5 0 2 12.7-2.8 71.4-100.7 83.7-125 15.8-3.7-10.1-4.6-18.1-5.4-44.5-1-37.4-6.8-52.6-29-76-8.9-9.3-8.9-9.3-3-8.7 4.4.4 6.8 1.3 9.5 3.5M922 687.3c0 4.6-20.8 20-36.1 26.7-59.8 26.3-108.5 79.5-112.6 123-.2 2.5-.6 5.4-.9 6.5s-.9 18.2-1.3 38c-.7 41-.7 41-6.9 36.4-4.6-3.4-4.6-2.6-4.2-55.6.4-58.6 26.6-102.4 84-140.4 21.2-14.1 78-39.2 78-34.6m149.4 11.9c14.6 7.8 27.7 26 29.5 41.1.9 7.7.6 8-5.4 7.5-3.7-.3-3.7-.3-5.9-7.9-3.8-13.3-15.7-28.5-25.3-32.3 0-.1-.4-2.7-.8-5.9-.9-6.8-.6-6.9 7.9-2.5m96.6 4.8c4 4 1.5 11-4 11-1.5 0-3.5-.9-4.5-2-5.5-6 2.7-14.8 8.5-9m22.5 14.4c9 3.8 8.3 16.9-1 19.5-10.5 2.9-17.1-9.2-9.8-17.9 2.8-3.4 5.6-3.8 10.8-1.6m-207.8 1.8c10.6 3.2 11.5 20.6 1.4 25.7-17.8 9.1-31.2-14.6-14.6-25.6 3.1-2.1 6.6-2.2 13.2-.1m237.7 9c32.5 19.1 41.7 63.6 18.1 86.8-4.5 4.4-4.5 4.4-.9-4.3 11.8-29.1 5.1-55.7-19.1-75-4.1-3.2-5.1-4.7-5.6-7.8-.7-4.8-1-4.8 7.5.3M946 738.4c0 2.8-9.2 13.5-26 30.1-9.5 9.3-20.7 20.6-24.8 25-35.6 37.3-44.8 45.6-60.4 54.4-7.9 4.5-8.3 3.6-3.5-8.2 6.8-17.1 19.1-32.8 36.5-46.8 6.3-5.1 20-13.9 21.6-13.9 3.7 0-41.4 48.4-48.3 51.7-4.7 2.3-5.7 6.9-1.7 7.9 3.5.8 5.4-.1 6.6-3.2 1.7-4.5 19.1-22.3 22.5-23 4.1-.9 5.5-2.2 5.5-5.3s15.3-19.1 18.3-19.1c6.2 0 8.2-7.1 2.6-9.4-3-1.3-3-1.3 5.3-8.4 4.6-3.8 13.4-12.2 19.6-18.5 12.2-12.4 26.2-19.5 26.2-13.3m-35.2 12.1c-5.6 5.3-11.1 9.1-20.5 14.3-7 3.9-18.6 10.5-25.7 14.6-14.3 8.3-14.6 8.4-18.2 1.4s32.9-28.8 60.6-36.2c12.2-3.3 12.7-2.5 3.8 5.9m215.8-3.4c3.9 3.2.6 10.9-4.7 10.9-6.5 0-9.1-6.4-4.7-11.7 1.4-1.7 7-1.2 9.4.8m-49.9 1.1c3.7 3-.1 11.8-5.1 11.8-5.9 0-8.7-5.8-5.5-11.7 1.4-2.6 7.5-2.7 10.6-.1m127.8 7.2c25.3 6.7 33.1 38 14.5 58-15.4 16.4-45.5 10-51-10.9-8-31.1 9.9-54.2 36.5-47.1m-245.8 2.8c2.7 2.5 3.8 1.4-47.7 52.2-15.6 15.4-32.1 32.1-36.5 37-22.1 24.6-50.5 43.1-50.5 33s1.1-13.3 4.9-14.5c17.7-5.7 27.2-14.1 112.4-99.1 11.5-11.5 13.4-12.4 17.4-8.6m33.6 5.1c-.4 2-9.5 11.5-33.2 34.5-17.9 17.4-55.2 54.2-82.8 81.7-27.7 27.5-50.7 50.1-51.3 50.3-1.2.4-1.3-6-.4-19.8.7-9.6.7-9.6 9-13.4 4.6-2.1 11.7-6.1 15.8-8.7 7.2-4.8 10.1-5.8 10.8-4 2.3 6.1 9.6-1 7.5-7.4-.6-1.7 6.1-8.7 38.1-40.6 75.6-75.2 71.9-71.8 79.8-73.8 8.1-2.1 7.3-2.3 6.7 1.2m119.9 13.2c13.9 8.8 10.4 33.3-5.5 38-12.8 3.8-22.4-.8-28-13.4-8.3-18.8 15.2-36.2 33.5-24.6m-121.6 26.7c-1.4 2.4-16.2 17.8-32.8 34.3-117.5 116.2-122.5 121.4-127.6 131-2.1 4-2.1 4-2.3.5-.7-19 5.7-28 51-71.9 13.2-12.9 38.8-38.1 56.9-56 58.1-57.7 56.7-56.5 57-48.7.2 5.6-.1 7.2-2.2 10.8m-150.7-12.6c4 3.3 3.9 3.6-1.3 9.7-8.2 9.8-13.5 18.9-22.1 38.2-1.6 3.7-3.2 14-4.1 26.7-.6 9.1-5.9 17.8-10.7 17.8-1.1 0-1.6-23.6-.7-32.1 2-20.1 12.1-41 27.7-57.7 5.6-5.9 6.9-6.2 11.2-2.6m227 17.9c1.8 3.5 5.4 8.9 8.1 11.9 10.1 10.9 2.9 33.1-16.8 51.8-10.9 10.4-28.9 28.3-34.8 34.8-4 4.4-6.6 6.2-12.2 8.4-13.3 5.2-22.2 16.2-22.2 27.3 0 6.1 2.4 7.5 3.5 2 2.9-13 13.8-23.5 26-24.8 14.1-1.5 16.9-3.4 42.3-28.3 21-20.7 26.4-28 31.2-42.9 3.6-11 9.4-13.2 10.6-4 2.9 23.4-4.3 35.2-48.1 78.9-38.9 38.8-42.2 41.3-56.4 42.7-6.9.8-9.9 3.3-49.7 42.3-36.4 35.8-32.7 84.1 9.8 128.3 16.7 17.3 18.8 21.3 18.8 35 0 6.6 0 6.6-3 1.2-3.9-7.1-6.7-10.4-26.7-31.6-18.7-19.9-23.5-25.9-28.7-36.1-12.8-25.3-15.6-60.3-6-76.3 4.5-7.4 1.2-12.9-6.3-10.4-2.7 1-2.8 1.2-3 8.9-.1 4.3-.5 15.5-.9 24.9-1 25.4 6.4 54.1 16.8 65.2 4.2 4.5 1 3.2-5.5-2.2-23.9-19.7-34.9-51.9-29.1-85 2.9-16.6 16.6-34.2 52.5-67.6 36.4-33.8 113.7-112.6 117.2-119.4 4.8-9.5 7.6-20 8.4-31.8.7-11.5.3-11.2 4.2-3.2m222.9 3.7c.9.9 1.5.9 2.4 0 2.1-2.1 2.6-1.4 2.6 3.1-.1 4.4-.1 4.4-4.5 4.5-4.5 0-5.1-.5-3-2.7 1-1 .8-1.5-.7-2.6-1.9-1.4-1.4-3.5.8-3.5.6 0 1.7.5 2.4 1.2m-534.7 9c-.7 4-1.5 27.1-1.9 51.3-.7 44-.7 44-4.4 46-6.4 3.4-6.3 4.2-6.6-40.7-.3-44.6-.7-42.4 9.4-59 4.4-7.3 4.9-7 3.5 2.4m239.6 3.9c-1.4 11.5-2.1 12.3-51.9 62.5-25.5 25.7-54.6 54.8-64.8 64.7-23.3 22.6-30.1 32.1-36.5 51.1-13.2 39.4-5.7 81.7 19.8 111.8 6 7 6.7 8.8 4.2 10.8-5.6 4.7-24.5-17.2-33.1-38.5-6.9-16.8-11-43.2-8.6-54.7.6-2.9 1.6-8.8 2.1-13.1 1.9-13.5 9.6-33.2 18.1-45.8 2.7-4 23.6-25.7 55.6-57.9 28.2-28.3 61.1-61.5 73.1-73.7 25-25.5 22.7-23.7 22-17.2m145.1 9.5c6.2 6.9-2.5 17.2-11.2 13.3-2.9-1.4-5-6.5-4.1-10.2 1.7-6.7 10.4-8.4 15.3-3.1m177.7 8.9c21 9 14.8 43.8-7.5 42.2-14.9-1-22.2-9.5-20.5-24.2 1.7-16 14.1-24 28-18m-51.7 8.3c3.4 2.2 3.2 11.3-.3 14-6.2 4.9-11.6 3.6-15-3.4-4-8.5 6.9-16 15.3-10.6m-49 19.5c.3 12.3.8 12.8 6.7 6.7 5.5-5.7 6.4-5 1.4 1-5.4 6.5-4.8 7.1 8.4 8.5 10.2 1.1 10.2 1.1 0 1.9-12.9 1.1-13.8 1.9-8.8 8.1 4.4 5.3 3.4 6-1.5 1-5.2-5.3-5.7-4.2-6.4 12-.6 13.5-3 10.8-3.4-3.8-.3-13.7-.9-14.2-7.3-7.2-5.3 5.7-6.4 5-1.5-.9 6.1-7.5 5.2-8.4-9.4-8.8-6.8-.2-8.5-.6-8.5-1.8s1.7-1.6 8.5-1.8c14.1-.4 15.6-1.4 10-6.7-1.6-1.6-3-3.3-3-3.9 0-.5 1.8.7 3.9 2.8 6 5.9 7.1 4.8 7.1-7.2 0-5.4.3-10.2.7-10.6 2-2 2.8.9 3.1 10.7m-60-4.8c17.3 7.3 19.4 34.5 3.2 42.8-11.5 5.9-25.5 2.2-30.7-8.3-9.9-19.4 8.5-42.4 27.5-34.5m-430.8 12c0 9.3-.2 9.5-4.3 6.2-2.8-2.2-2.8-2.2-.1-8.5 3.6-8.3 4.4-7.8 4.4 2.3m555.4 5.4c.9 3.3.9 3.3-18 22-255.2 251.6-242.1 238.4-251.3 252.6-15.1 23.2-17.9 36.8-18.2 89-.1 12.6-.5 21-.8 18.5-.6-4.5-.6-4.5-2.8-1.6-2.3 2.9-2.3 2.9-2.4.5-.1-2.1-.2-2-.9.6-.4 1.6-.8-13.7-.9-34.1-.2-72.6-11.2-57.9 187.9-251.9 112.3-109.5 105.2-103.2 107.4-95.6m-558.6 13.7c2.5 1.7 3.1 7.1 1 9.2-3.3 3.3-10.8.6-10.8-3.8 0-6.4 4.7-9 9.8-5.4m85.3 2.1c2.9 1.7 2.9 1.7 2.9 61.3s0 59.6-4.4 63.9-4.4 4.3-5.1-8.3c-1.2-21.3-.1-90.7 1.5-93.2 1.8-2.9-.3-8.2-3.5-9-6.5-1.6-9.9 2.9-6.9 9.1 2.1 4.4 3 109.7 1 121-.8 5-.8 5-4.7.6-5.1-5.7-6.4-133.4-1.4-140.1 4.9-6.6 14.3-9 20.6-5.3m489.9 4.5c1.8 3.3 2.3 2.7-43.5 47.1-15.4 14.9-56.6 55.3-91.5 89.8-34.9 34.4-66.2 65-69.4 67.9-8.5 7.6-44.8 44.3-51.7 52.3-7.3 8.4-10.6 14.7-12.7 24.7-2.2 9.9-13.2 22-13.2 14.4.2-22.9 16.8-52.4 29.4-52.4 5.4 0 7.1-1.7 6.2-6.5-.8-4.2-6.4 1.5 118.5-121 42-41.3 86.4-85 98.7-97.3 24.2-24.3 25.7-25.2 29.2-19m-191.2.1c3.5 2.7.3 6.8-26.6 34.1-23.1 23.2-63.4 61.7-64.1 61.1-.9-1 0-9.8 1.3-12.4 1.9-3.6 36.8-39.3 63.5-64.9 21.4-20.6 21.9-21 25.9-17.9m87.8 15.9c10.4 10.2 12.8 15.8 6.7 15.8-5.3 0-24.8-20.5-22.3-23.5 2.8-3.4 6-1.8 15.6 7.7m128.5-5.3c7.7 7.7-.2 20-11.2 17.6-6.1-1.4-8.9-10.7-4.8-15.9 4.3-5.5 11.5-6.2 16-1.7m-590 3.7c6.7 6.1 3 17.4-5.7 17.4-8.6 0-13.6-9-8.8-15.8 3.1-4.4 10.5-5.2 14.5-1.6m396 1c1.7 1.6 2.5 3.3 2.2 4.3-1.1 3.1-93.1 94.5-144.6 143.7-19.9 18.9-24.9 24.8-29.4 33.8-3.2 6.5-4 6.9-4.9 2.1-2.8-15.3-3.8-14.1 61.7-78.1 29.2-28.5 53.6-52.5 54.2-53.3 2.7-3.6 56-55.1 57-55.1.6 0 2.3 1.2 3.8 2.6m226.7 6.8c2.4 2.4.8 8.3-2.5 8.9-6.2 1.2-8.5-2.1-6.6-9.2.7-2.6 6.3-2.5 9.1.3M767.5 928c3.4 3.5 4.4 33.1 2.8 82-.8 24.5-.8 24.5-4.5 17-2-4.1-3.9-9.8-4.2-12.5-.4-2.8-1.2-7.3-1.8-10.2-.7-3.4-.8-6.4-.1-9 1.5-6.1.8-7.3-4.2-7.3-5.5 0-8.6 6-4.4 8.6.5.3.7 5.3.3 11.2-1 17.9 3.5 31.4 14.7 43.6 5.9 6.4 5.9 6.4 3.6 9.7-3.3 4.8-4 4.6-9.7-2.3-15.7-19.2-18-29.6-18-79.7 0-39.6 0-39.6 4.9-43.8 2.7-2.3 5.1-3.9 5.5-3.6 1.5 1.5.6 28-1 31.2-2.9 5.8 1.1 10.4 7 8.2 2.7-1.1 3.9-7.2 1.6-8.6-1.8-1.1-1.3-34.1.6-35.9 2.2-2.3 3.6-2 6.9 1.4m-60.7 2c.9 2.9 1.2 14.8 1.2 43.4 0 84.4-1.8 81 97.4 182.1 58.6 59.6 58.3 59.3 64.3 71 4.6 9.1 4.7 9.6 3.3 12.2-2.7 4.9-7.3 4.4-9.4-.9-5.3-13.3-38.9-49.7-120.6-130.8-39-38.7-46-56.6-46-118 0-37.5.5-43.5 5-56.8 2.6-7.3 3.1-7.5 4.8-2.2m18.8 56.3c1.5 51.8 4.9 61.4 31.2 87.5 8.2 8.2 8.3 8.4 6.8 10.7-4 6.2-10.6 2.1-30.3-18.7-14.1-14.9-19.3-37.7-19.3-85 0-40.4-.1-39.7 5.9-35.2 4.6 3.6 4.6 3.6 5.7 40.7m571.9-42.4c.9 2.9-29 32.3-32.5 31.9-4.2-.5-3.1-5.4 2.4-10.3 2.4-2.2 9.2-8.4 15.1-13.8 10.6-9.7 13.8-11.4 15-7.8m42.9 7.2c12.7 3.5 19.4 22.4 12.4 35.1-6.4 11.5-22.8 14.6-32.8 6.1-18.7-16-3-47.7 20.4-41.2m-193.7 3.6c9.7 7.8 6.9 24.5-4.6 27.3-8.8 2.1-15-.4-18.2-7.3-7.4-16.4 9.3-31 22.8-20m-33.8 30.7c3.8 5.5 9.7 10 16 12.3 4.6 1.6 4.6 1.6-10.9 16.7-81.9 79.7-120.6 120-125.1 130.1-2 4.6-2 4.6-5.2 1.9-8.4-7-13.2-18.4-13.2-31.4 0-13.7-1.8-11.5 57.4-69.5 28.9-28.2 57.5-56.3 63.6-62.4 10.9-11 10.9-11 12.5-6.7 1 2.3 3.1 6.4 4.9 9m140.6 5c6.3 2.7 9.5 8.6 9.5 17.8 0 4.3-.4 7.8-.9 7.8s-1.4 1.4-2.1 3c-.7 1.7-23.6 25.5-50.9 52.9-49.6 49.9-49.6 49.9-55.5 51.1-9.9 2-14.7.2-19.2-7.6-8.1-13.9-3-24.7 22.1-46.3 2.8-2.4 21.1-20.1 40.7-39.3s36.8-35.8 38.1-36.8c5.3-4.2 12.1-5.1 18.2-2.6M992 997c5.8 0 10.3 8.7 8.1 15.9-4.2 14.2-25.1 10.3-23.9-4.5.6-7.5 7.1-13.5 12.6-11.8.8.2 2.2.4 3.2.4m318 6.4c2 1.8 4.6 3.9 5.6 4.5 1.9 1.1-99.1 103.3-110 111.2-6.9 5.1-15.6 3.4-15.6-2.9 0-3.4 2.3-5.9 39.8-42.6 21.8-21.4 47.6-46.8 57.2-56.3 19.7-19.5 18-18.4 23-13.9m49.2 8.6c-5.5 24.8-18 45.7-42.4 70.9-13.7 14.3-13.7 14.3-16.8 12.5-4.4-2.6-4.3-2.8 11.1-18 24.3-24 35-41.5 39.9-64.7.9-4.6 1.7-5.9 4.8-8 4.8-3.2 5.5-1.7 3.4 7.3m-24.9 6.2c-3.9 17.5-13.7 31.1-44.4 61.3-8.3 8.2-19.5 19.5-24.8 24.9-13.4 13.9-27.6 24.2-44.1 32.2-29.5 14.2-31.9 15.9-52 35-31.5 30.1-36.3 34.8-59.2 58-23.8 24-23.8 24-26.5 21.2-2.8-2.9-2.8-2.9 13.2-18.5 8.8-8.5 28.8-28.2 44.5-43.8 33-32.6 31.9-31.7 55.5-46.5 21.5-13.5 24-15.7 75-66 31.5-31.2 61.8-60 63-60 .2 0 .1 1-.2 2.2m-365 13.6c4.7 4.2-.3 14.1-6.5 12.8-4.5-.9-5.8-2.4-5.8-6.5.1-7.6 6.8-11.1 12.3-6.3M811 1053.7c0 17.7 0 17.7-5 12.8-7.5-7.3-7.6-20.9-.4-26.8 2.6-2 4.8-3.7 5-3.7s.4 8 .4 17.7m551.5.8c-2 9.5-6.3 18.1-14.5 29-20.2 26.9-36.2 41-81 71.9-25 17.2-28.4 20.2-70.4 62-75.3 74.8-68.6 68.7-75.6 68.4-6.1-.3-6.1-.3 3.7-9.9 5.4-5.3 30.1-29.7 54.8-54.2 52.7-52.2 61.5-59.7 87.8-74.6 31-17.5 75.2-62.3 92.2-93.4 4.5-8.2 4.8-8.1 3 .8m-411.7.7c1.6 1.6 1.5 8.3-.1 9.7-6.3 5.2-14.4-3.1-9-9.2 1.8-2 7.3-2.3 9.1-.5m-126.8 55c62.9 63.8 74.1 75.7 79.3 83.5 8.7 13.3 13.1 25.8 12.8 36.7-.1 3.8.3 7.4.8 8 1.5 1.8 2.5 8.6 1.2 8.6-.6 0-1.1-.9-1.1-2 0-1.3-.5-1.8-1.5-1.4-3.8 1.5-7.3-1.8-8.5-8.1-1.6-8.3-8-25.3-12.1-32.1-4.2-7-11.7-15.1-72.3-77.2-26.5-27.1-48.3-49.8-48.5-50.3-.4-1.3 5.8-7.9 7.3-7.9.6 0 19.8 19 42.6 42.2m-41.5 52.8c53.8 54.3 61.3 62.2 63.6 67.3 2 4.4 2.5 10.2 1 11.1-1 .7-99.3-97-118.7-118-15-16.1-24.4-31-24.4-38.4 0-.8 8.2 6.8 18.3 17 10 10.2 37.1 37.6 60.2 61m6.4-62c13.7 12.7 46.1 46.9 46.1 48.6 0 .6-1.3 2.8-2.9 4.7-2.8 3.7-2.8 3.7-33.5-26.4-32.7-32.2-32.4-31.8-28-37.6 3.1-4 1.4-5 18.3 10.7m562.1 6.3c-6.9 16.6-11.1 20.9-46.3 47.5-23.9 18.2-27.1 20.3-30.1 20-3.2-.3-2-1.4 25.2-22.8 35.1-27.6 43.4-35.7 51.2-49.8 3.6-6.4 3.6-3.4 0 5.1m-58.6-3c3.4 4.5-11 17.7-36.4 33.3-42.5 26.2-46.3 29.4-125.2 107.2-37.1 36.7-43.3 45.2-48.2 66.4-1.7 7.5-4 1.1-2.7-7.4 3-18.6 12.9-31.8 55.2-72.8 17.8-17.3 37.8-36.9 44.4-43.5 21.5-21.7 34.7-32.3 50-40.5 18.3-9.7 36.4-23.2 51-37.9 8.6-8.7 8.9-8.8 11.9-4.8m-171.7 24c18.5 6.9 25.4 34.4 11.9 47.9-11.2 11.2-30.2 10.8-40.5-.8-18.7-21.3 2.8-56.6 28.6-47.1m57.3 1.7c3.9 3.9 2.6 11.1-2.3 12.9-4.1 1.6-5.5 1.4-8.2-1.4-5.2-5.2-2.1-13.5 5-13.5 2.2 0 4.3.8 5.5 2m-272.2 4.5c34.6 8.2 45.3 42.2 24.4 77.9-4.4 7.6-5.1 7.2-6.7-4.9-2-14.3-8.7-25.7-25.4-43-22.9-23.6-21.1-20.6-16-26.4s10.8-6.6 23.7-3.6m427.6 16.7c-9.6 16.4-29.7 34.8-38 34.8-1.2 0 12.7-13.5 32.6-31.8 4.4-4.1 6.8-5.4 5.4-3m-469.7 26c25.6 25.8 31.8 35 36.7 54.6 3.5 13.5 3.1 22.4-.9 25.7-.7.6-1.4 1.9-1.6 2.9-.8 3.8-2.9 2.9-2.9-1.1 0-7.6-6.8-30.4-11.7-39.3-4.3-7.8-16-21.6-34.5-40.6-13.8-14.1-13.8-14.1-10.2-18.2 4.6-5.4 2.1-7 25.1 16m94.9 14.3c2.5 8.9 3.3 47.2 1 48.1-.9.3-2.7-.1-4.1-1-3.3-2.2-3.3-2.2-3.8 2.6-.2 2.4-.4-4.7-.5-15.8-.1-11-.4-27.7-.7-37-.5-16.9-.5-16.9 3-9.9 1.9 3.8 4.2 9.7 5.1 13m104.5-14.5c3.6 2 1.6 10-2.5 10-3.5 0-5.6-2-5.6-5.3 0-5.2 3.4-7.2 8.1-4.7m203.6 14.3c8.2 4.3 14.2 13.1 14.3 21 .1 25-27.5 36.9-41.4 17.8-14.9-20.5 5.6-49.9 27.1-38.8m-488.2.1c10.1 4.3 6.2 20.1-5 20.1-9.8 0-13.6-11.5-6.3-19.2 2.5-2.7 6.3-3 11.3-.9m312.8 6.8c5.2 6.2-1.3 15.4-8.7 12.4-5.5-2.2-6.7-7.5-2.9-13.3 2.1-3.1 8.7-2.6 11.6.9m-38.2 8.4c7.3 7.7 1.3 22.4-9.1 22.4s-15.5-16-7.4-23.2c3.7-3.3 13.1-2.8 16.5.8m170.9 29.3c1.2 2.3 1.4 2.1-13 11.3-5.2 3.3-14.4 8.1-20.5 10.5-24.2 9.7-36.4 19.1-42.6 32.8-3.2 7.1-3.6 7.4-6.8 4.7-6.6-5.5 21.4-33.1 40.9-40.2 8.8-3.2 24-10.8 32.5-16.4 8-5.2 8.1-5.2 9.5-2.7m-364.9 11.4c6 4.1 2.7 12-5.3 12.5-8.1.5-10.2-10-2.6-13.3 4.3-1.8 4-1.9 7.9.8m116.3.3c3.8 1.5.7 8.8-3.5 8.2-2.1-.3-2.4-.9-2.7-4.6-.3-4.4 1.4-5.4 6.2-3.6m93 6.8c12.1 5 9 23.6-3.9 23.6-7.8 0-12.5-5.1-12.5-13.6 0-8.8 7.8-13.6 16.4-10"/><path d="M967.4 955.4c-1 4-.1 6.1 2.5 6.1 3.6 0 5.5-3.5 3.5-6.3-2.1-3-5.2-2.9-6 .2M951.2 972c-1.3 3.5.7 6.3 4.1 5.8 4.5-.7 3.8-6.8-.9-8.2-1.8-.5-2.4-.1-3.2 2.4m-15.6 14.6c-2.2 5.6 1.6 10.2 5.4 6.4 2.5-2.5 2.6-5.6.1-7-2.8-1.4-4.8-1.2-5.5.6m-15.4 15.6c-1.5 1.5-1.6 6.4-.1 7.3 4 2.5 8.2-3.2 4.8-6.6-2.2-2.2-3.1-2.3-4.7-.7m101.8 73.4c-1.5 4.6.8 7.7 5.4 7.2 7.2-.7 6.7-10.8-.5-10.8-3.4 0-3.9.3-4.9 3.6m-16 14.9c-2.1 6.4 3.9 11.4 8.4 6.9 3.7-3.6 1.6-8.6-4.1-9.8-2.9-.7-3.2-.5-4.3 2.9m-16.2 15.2c-3.9 4.3-3 10.5 1.8 12.3 4.5 1.7 8.4-1.3 8.4-6.6 0-5.4-7-9.3-10.2-5.7m253.4-100c-5.1 1-4.1 8.6 1.1 8.1 3-.3 3.2-.5 3.2-4.2 0-4.1-.5-4.6-4.3-3.9m-69.4 67.4c-4.4 2.5-.5 10.5 4.5 9.5 3.6-.7 4.7-2.1 4.7-5.7 0-4.5-4.7-6.4-9.2-3.8m-25.1 23.7c-2.1 2.3-2.2 8.5-.2 10.2 3.1 2.5 9.5-1.1 9.5-5.4 0-4.5-6.5-7.9-9.3-4.8"/></svg>