<?xml version="1.0" encoding="UTF-8"?>
<svg xmlns="http://www.w3.org/2000/svg" id="a" width="865.76" height="682.89" viewBox="0 0 865.76 682.89">
  <g>
    <g>
      <g id="b">
        <path d="M104.02,383.13c-50.85-135.29,13.86-233.82,83.64-254.12,98.01-28.51,189.85,75.22,253.26,60.51,51.04-11.84,59.56-136.39,133.22-161.83,91.24-31.48,205.4,41.46,206.63,161.09,1.22,118.87-120.94,222.11-202.68,263.03-80.75,40.49-213.21,71.48-286.85,61.29-83.83-11.61-156.88-49.27-187.22-129.97Z" fill="#4dc98b"></path>
        <g opacity=".7">
          <path d="M104.02,383.13c-50.85-135.29,13.86-233.82,83.64-254.12,98.01-28.51,189.85,75.22,253.26,60.51,51.04-11.84,59.56-136.39,133.22-161.83,91.24-31.48,205.4,41.46,206.63,161.09,1.22,118.87-120.94,222.11-202.68,263.03-80.75,40.49-213.21,71.48-286.85,61.29-83.83-11.61-156.88-49.27-187.22-129.97Z" fill="#fff"></path>
        </g>
      </g>
      <g id="c">
        <path d="M811.5,594.75H25.34c-.28,0-.5-.22-.5-.5s.22-.5,.5-.5H811.5c.28,0,.5,.22,.5,.5s-.22,.5-.5,.5Z" fill="#263238"></path>
      </g>
      <g id="d">
        <g opacity=".3">
          <path d="M186.93,594.75H72.36c-.28,0-.5-.22-.5-.5v-176.9c0-.28,.22-.5,.5-.5h114.57c.28,0,.5,.22,.5,.5v176.9c0,.28-.22,.5-.5,.5Zm-114.07-1h113.57v-175.9H72.86v175.9Z" fill="#263238"></path>
        </g>
        <g opacity=".3">
          <path d="M68.58,594.75h-25.36c-.28,0-.5-.22-.5-.5v-176.9c0-.28,.22-.5,.5-.5h25.36c.28,0,.5,.22,.5,.5s-.22,.5-.5,.5h-24.86v175.9h24.86c.28,0,.5,.22,.5,.5s-.22,.5-.5,.5Z" fill="#263238"></path>
        </g>
        <g opacity=".3">
          <path d="M177.62,473.93H80.99c-.28,0-.5-.22-.5-.5v-42.96c0-.28,.22-.5,.5-.5h96.62c.28,0,.5,.22,.5,.5v42.96c0,.28-.22,.5-.5,.5Zm-96.12-1h95.62v-41.96H81.49v41.96Z" fill="#263238"></path>
        </g>
        <g opacity=".3">
          <path d="M177.62,521.58H80.99c-.28,0-.5-.22-.5-.5v-42.96c0-.28,.22-.5,.5-.5h96.62c.28,0,.5,.22,.5,.5v42.96c0,.28-.22,.5-.5,.5Zm-96.12-1h95.62v-41.96H81.49v41.96Z" fill="#263238"></path>
        </g>
        <g opacity=".3">
          <path d="M177.62,569.24H80.99c-.28,0-.5-.22-.5-.5v-42.96c0-.28,.22-.5,.5-.5h96.62c.28,0,.5,.22,.5,.5v42.96c0,.28-.22,.5-.5,.5Zm-96.12-1h95.62v-41.96H81.49v41.96Z" fill="#263238"></path>
        </g>
        <g opacity=".3">
          <path d="M133,459.61c-4.22,0-7.65-3.43-7.65-7.65s3.43-7.65,7.65-7.65,7.65,3.43,7.65,7.65-3.43,7.65-7.65,7.65Zm0-14.29c-3.67,0-6.65,2.98-6.65,6.65s2.98,6.65,6.65,6.65,6.65-2.98,6.65-6.65-2.98-6.65-6.65-6.65Z" fill="#263238"></path>
        </g>
        <g opacity=".3">
          <path d="M132.98,507.27c-4.21,0-7.64-3.42-7.65-7.63-.01-4.22,3.41-7.66,7.63-7.67,4.24,0,7.67,3.42,7.67,7.63h0c0,2.04-.79,3.96-2.23,5.41s-3.36,2.25-5.4,2.25h-.02Zm.02-14.29c-3.7,0-6.68,3-6.67,6.67,0,1.78,.7,3.44,1.96,4.69,1.25,1.25,2.92,1.93,4.69,1.93h.02c1.78,0,3.44-.7,4.69-1.96,1.25-1.26,1.94-2.93,1.93-4.71h0c0-3.66-2.97-6.63-6.63-6.63Zm7.63,6.63h0Z" fill="#263238"></path>
        </g>
        <g opacity=".3">
          <path d="M133,554.91c-4.22,0-7.65-3.43-7.65-7.65s3.43-7.65,7.65-7.65,7.65,3.43,7.65,7.65-3.43,7.65-7.65,7.65Zm0-14.29c-3.67,0-6.65,2.98-6.65,6.65s2.98,6.65,6.65,6.65,6.65-2.98,6.65-6.65-2.98-6.65-6.65-6.65Z" fill="#263238"></path>
        </g>
      </g>
    </g>
    <g>
      <g>
        <g>
          <path d="M160.86,401.27s-37.89,13.64-54.94,29.3c-3.52,3.23-6.15,6.55-7.37,9.85,0,0-37.79,95.49,17.34,173.93,4.71,6.71,11.33,11.83,19.01,14.71,18.78,7.03,60.84,17.47,135.69,10.97,0,0,84.37-4.41,82.71-55.14,0,0-.55-35.84-7.72-53.49l-46.87-81.06-97.05-57.35-40.81,8.27Z" fill="#fff"></path>
          <path d="M225.74,642.58c-47.74,0-76.6-7.65-91.01-13.04-7.79-2.92-14.45-8.07-19.24-14.89-28.56-40.65-31.77-85.9-29.44-116.71,2.53-33.37,11.94-57.46,12.04-57.7,1.17-3.16,3.7-6.54,7.5-10.03,16.92-15.55,54.73-29.27,55.11-29.4l.07-.02,40.99-8.31,.17,.1,97.16,57.41,.07,.11,46.87,81.06c7.15,17.59,7.78,53.37,7.79,53.73,.68,20.97-13.52,37.25-41.07,47.07-20.71,7.38-41.91,8.56-42.12,8.58-16.52,1.43-31.45,2.04-44.88,2.04Zm-64.74-240.82c-1.33,.48-38.18,13.98-54.74,29.19-3.68,3.38-6.12,6.63-7.24,9.66-.1,.25-9.46,24.22-11.97,57.45-2.32,30.64,.87,75.64,29.26,116.03,4.68,6.66,11.17,11.68,18.77,14.53,18.38,6.88,60.42,17.45,135.47,10.94,.23-.01,21.29-1.19,41.87-8.53,18.89-6.74,41.23-20.2,40.39-46.1,0-.37-.63-35.96-7.68-53.32l-46.78-80.88-96.77-57.18-40.58,8.23Z" fill="#263238"></path>
        </g>
        <g>
          <path d="M386.62,646.02c.21,3.12-1.86,5.84-3.24,6.79-16.02,11.09-32.03,6.56-37.47,4.47-1.09-.42-2.12-.96-3.12-1.56-11.16-6.66-26.31-9.19-32.77-10.01-3.28-.41-5.92-2.91-6.46-6.17-.28-1.71-.22-3.47-.05-4.95,.33-2.91,.3-5.85,.12-8.77-.48-8,2.32-11.49,2.32-11.49,0,0,25.74,18.72,36.36-.86,2.69,3.6,6.66,8.08,12.26,12.24,3.34,2.49,6.57,4.34,9.4,5.73,.27,.2,.59,.42,.96,.63,0,0,0,0,0,0,.59,.33,1.25,.53,1.92,.65,7.3,1.33,11.99,4.32,14.48,6.22,2.45,1.88,5.06,3.94,5.27,7.07Z" fill="#fff"></path>
          <path d="M360.74,660.52c-6.62,0-12.01-1.62-15.01-2.77-1-.38-2.02-.89-3.2-1.6-11.17-6.67-26.5-9.17-32.57-9.94-3.49-.44-6.33-3.15-6.89-6.59-.25-1.53-.27-3.24-.06-5.09,.29-2.51,.33-5.27,.12-8.68-.48-8.1,2.31-11.69,2.43-11.83l.3-.37,.39,.28c.14,.1,14.08,10.11,25.36,7.55,4.38-.99,7.83-3.77,10.26-8.25l.37-.69,.47,.62c3.47,4.63,7.56,8.72,12.16,12.14,2.91,2.17,6.05,4.08,9.32,5.69,.37,.27,.68,.47,.98,.64,.49,.28,1.06,.47,1.77,.6,5.62,1.03,10.57,3.15,14.69,6.32,2.33,1.79,5.23,4.01,5.47,7.43h0c.23,3.37-2,6.23-3.45,7.24-8.09,5.61-16.15,7.3-22.92,7.3Zm-54.66-45.48c-.66,1.1-2.33,4.54-1.95,10.76,.21,3.48,.17,6.29-.12,8.86-.2,1.76-.19,3.38,.05,4.81,.49,3,2.97,5.37,6.03,5.76,6.14,.78,21.63,3.31,32.96,10.07,1.13,.68,2.1,1.16,3.04,1.52,5.92,2.27,21.39,6.4,37-4.42,1.37-.95,3.21-3.55,3.02-6.35h0c-.2-2.96-2.79-4.95-5.08-6.7-4-3.07-8.8-5.13-14.26-6.13-.82-.15-1.5-.38-2.08-.71-.35-.2-.69-.42-1.02-.67-3.25-1.58-6.44-3.53-9.4-5.73-4.48-3.33-8.48-7.28-11.9-11.74-2.55,4.36-6.1,7.07-10.54,8.08-10.73,2.43-23.25-5.7-25.74-7.42Z" fill="#263238"></path>
        </g>
        <path d="M371.91,647.64c-29.38,0-67.42-10.3-67.87-10.43-.27-.07-.42-.35-.35-.61,.07-.27,.34-.42,.61-.35,.53,.15,53.24,14.42,82.22,9.28,.26-.04,.53,.13,.58,.41,.05,.27-.13,.53-.41,.58-4.46,.79-9.49,1.13-14.79,1.13Z" fill="#263238"></path>
        <g>
          <path d="M449.09,227.88c-1.25-5.02-15.18-20.65-22.72-4.76-6.01,11.62,6.9,38.44-23.82,47.06-9.32,2.62-19.38,1.66-27.75-3.19-9.61-5.57-19.5-17.31-20.57-41.98,0,0-.72-52.94,44.8-50.07,0,0,41.92,1.2,50.07,52.94Z" fill="#fff"></path>
          <path d="M392.35,272.09c-6.31,0-12.48-1.58-17.81-4.67-8.88-5.14-19.7-16.68-20.82-42.4,0-.28-.18-26.27,15.14-40.84,7.62-7.25,17.77-10.53,30.19-9.75,.41,.01,42.42,1.81,50.53,53.37l-.98,.2c-.74-2.96-6.67-10.68-12.88-11.3-3.65-.36-6.65,1.87-8.91,6.63-1.78,3.44-1.86,8.4-1.95,13.66-.2,12.28-.45,27.57-22.19,33.67-3.41,.96-6.89,1.43-10.33,1.43Zm3.19-96.77c-10.57,0-19.29,3.22-25.98,9.58-15,14.27-14.83,39.84-14.83,40.09,.87,19.98,7.9,34.36,20.32,41.56,7.99,4.63,17.97,5.78,27.37,3.14,21.03-5.9,21.26-20.15,21.46-32.73,.09-5.37,.17-10.45,2.05-14.08,3.06-6.44,7.07-7.47,9.9-7.18,5.03,.5,9.75,5.15,12.17,8.83-9.26-47.41-48.58-49.09-48.99-49.1-1.18-.07-2.33-.11-3.47-.11Z" fill="#263238"></path>
        </g>
        <g>
          <path d="M331.18,454.77s15.1-.31,18.24,10.69l2.83,32.08s0,49.69-13.21,82.72c0,0-3.46,.63-5.35,.31l-1.89-11.95-16.04-114.17,15.41,.31Z" fill="#263238"></path>
          <path d="M334.98,581.17c-.49,0-.96-.03-1.37-.09l-.36-.06-1.94-12.31-16.12-114.76,15.99,.33c.5,0,15.54-.07,18.72,11.06l2.85,32.18c0,.54-.15,50.21-13.24,82.95l-.1,.26-.27,.05c-.12,.02-2.28,.41-4.15,.41Zm-.85-1.04c1.5,.15,3.77-.19,4.55-.31,12.92-32.56,13.07-81.78,13.07-82.27l-2.83-32.04c-2.98-10.41-17.57-10.24-17.73-10.24h-.02l-14.83-.3,15.96,113.59,1.83,11.57Z" fill="#263238"></path>
        </g>
        <g>
          <path d="M292.34,491.88l-23.32-3.23s-2.48-2.04-6.8-4.25l3.57-8.31,16.86-9.33,10.05-.72,2.51,20.81-2.87,5.02Z" fill="#fff"></path>
          <path d="M292.6,492.42l-23.8-3.29-.11-.09s-2.49-2.03-6.71-4.19l-.42-.21,3.82-8.9,17.22-9.47,10.52-.75,2.59,21.45-3.12,5.46Zm-23.38-4.25l22.85,3.16,2.62-4.58-2.43-20.17-9.46,.68-16.62,9.19-3.32,7.72c3.62,1.89,5.85,3.59,6.36,4Z" fill="#263238"></path>
        </g>
        <g>
          <path d="M510.25,629.93s41.89,29.73,183.2,22.38c0,0,58.72,2.41,65.31-86.37,1.88-25.31-1.21-50.74-8.61-75.01-11.13-36.49-34.75-92.66-75.6-97.59,0,0-11.04-4.41-32.7,3.75-8,3.01-16.3,5.16-24.74,6.54-9.63,1.57-22.22,2.93-35.82,2.59-11.9-.3-23.77,1.21-35.16,4.67-30.03,9.12-79.2,31.52-80.66,80.68l25.21,101.91,19.57,36.46Z" fill="#fff"></path>
          <path d="M650.69,653.96c-48.8,0-81.67-4.91-101.95-9.6-27.91-6.46-38.68-13.95-38.79-14.02l-.1-.07-19.67-36.68-25.23-101.98v-.07c1.47-49.65,51.39-72.15,81.01-81.15,11.27-3.42,23.14-4.99,35.32-4.69,11.43,.29,23.45-.58,35.72-2.58,8.62-1.41,16.91-3.6,24.64-6.51,20.99-7.91,31.98-4.16,33-3.77,41.65,5.08,65.47,63.53,75.96,97.94,7.58,24.87,10.49,50.17,8.63,75.2-3.42,46.06-21.1,67.22-35.34,76.86-15.46,10.46-30.33,9.97-30.48,9.98-15.43,.8-29.66,1.16-42.74,1.16Zm-140.06-24.38c2.31,1.53,46.51,29.31,182.79,22.22,.2,0,14.79,.47,29.98-9.84,14.03-9.52,31.47-30.44,34.85-76.07,1.85-24.9-1.04-50.08-8.59-74.83-10.43-34.19-34.06-92.28-75.18-97.24l-.12-.03c-.11-.04-11.15-4.23-32.34,3.75-7.79,2.94-16.15,5.14-24.83,6.56-12.34,2.01-24.41,2.89-35.91,2.6-12.06-.3-23.84,1.26-35,4.65-29.35,8.91-78.8,31.18-80.3,80.15l25.18,101.78,19.48,36.29Z" fill="#263238"></path>
        </g>
        <path d="M605.72,453.18c-.09,0-.18-.02-.26-.07-.24-.14-.31-.45-.17-.69l17.33-28.37c11.51-20.93,47.72-32.15,48.08-32.26,.27-.08,.54,.07,.62,.33,.08,.26-.07,.54-.33,.62-.36,.11-36.19,11.21-47.51,31.81l-17.35,28.39c-.09,.15-.26,.24-.43,.24Z" fill="#263238"></path>
        <path d="M661.41,421.14c-.14,0-.28-.06-.38-.18-.18-.21-.15-.53,.06-.7,16.28-13.65,42.17-9.08,42.44-9.04,.27,.05,.45,.31,.4,.58-.05,.27-.32,.44-.58,.4-.26-.05-25.7-4.53-41.61,8.82-.09,.08-.21,.12-.32,.12Z" fill="#263238"></path>
        <g>
          <path d="M472.78,438.03s-32.43,2.34-43.26,19.34c-1.56,2.45-2.36,5.32-2.35,8.23,.01,4.23,.54,11.94,3.29,23.02,2.44,9.87,5.98,19.44,10.41,28.59l29.63,61.03c.65,1.33,1.99,2.18,3.46,2.19,4.94,.04,15.99-1.02,20.66-10.72,0,0-8.27-36.83-13.71-55.84-1.05-3.67-.86-7.58,.53-11.14,1.48-3.79,3.72-8.66,6.68-12.53l-15.34-52.16Z" fill="#fff"></path>
          <path d="M474.19,580.92c-.08,0-.16,0-.24,0-1.68-.01-3.18-.96-3.91-2.47l-29.63-61.03c-4.55-9.39-8.06-19.05-10.45-28.69-2.7-10.92-3.29-18.61-3.3-23.14,0-3.06,.83-6,2.43-8.5,10.85-17.02,42.31-19.47,43.65-19.57l.4-.03,.11,.39,15.41,52.4-.15,.2c-3,3.92-5.25,8.91-6.61,12.41-1.34,3.45-1.53,7.29-.51,10.83,5.39,18.8,13.64,55.5,13.72,55.86l.04,.17-.08,.16c-4.75,9.88-16,11.01-20.88,11.01Zm-1.77-142.36c-3.75,.35-32.54,3.49-42.47,19.07-1.5,2.34-2.28,5.1-2.27,7.96,.01,4.48,.59,12.08,3.27,22.9,2.37,9.58,5.86,19.17,10.38,28.5l29.63,61.02c.57,1.17,1.72,1.9,3.02,1.91,4.5,.03,15.5-.9,20.13-10.29-.62-2.75-8.48-37.52-13.67-55.64-1.07-3.74-.88-7.81,.54-11.46,1.36-3.5,3.61-8.47,6.6-12.45l-15.15-51.52Z" fill="#263238"></path>
        </g>
        <g>
          <polygon points="424.88 441.77 455.05 444.88 534.24 443.24 498.82 438.49 424.88 441.77" fill="#fff"></polygon>
          <path d="M455.06,445.38l-30.23-3.12,.03-1,73.94-3.28,35.5,4.76-.06,1-79.19,1.64Zm-23.38-3.42l23.43,2.42,72.65-1.51-29-3.89-67.08,2.98Z" fill="#263238"></path>
        </g>
        <path d="M662.98,653.33c-.2,0-.39-.12-.46-.32-.1-.26,.02-.55,.28-.65,34.23-13.48,45.04-45.86,48.08-70.64,3.3-26.92-1.58-50.95-1.63-51.19-.06-.27,.12-.54,.39-.59,.26-.06,.54,.12,.59,.39,.05,.24,4.97,24.43,1.65,51.51-3.07,25.06-14.02,57.79-48.71,71.45-.06,.02-.12,.04-.18,.04Z" fill="#263238"></path>
        <path d="M595.74,651.75c-.06,0-.12,0-.17-.03-26.8-9.85-36.03-28.2-39.06-41.86-3.27-14.78-.16-27.42-.13-27.55,.07-.27,.34-.43,.61-.36,.27,.07,.43,.34,.36,.61-.03,.12-3.09,12.56,.14,27.12,2.97,13.4,12.05,31.42,38.42,41.1,.26,.1,.39,.38,.3,.64-.08,.2-.27,.33-.47,.33Z" fill="#263238"></path>
        <g>
          <path d="M262.21,484.4s14.51-2.76,29.7-5.87c0,0-1.73,59.06,15.54,92.91,0,0,17.96,3.8,25.9-3.45,0,0,8.63-89.11-4.84-120.88,0,0-2.07-11.05-40.41-7.25l-15.78,1.56-36.01-1.74s-28.21,5.56-45.73,18.77c0,0,45.08,10.35,71.62,25.97Z" fill="#263238"></path>
          <path d="M317.83,572.95c-5.51,0-10.1-.95-10.48-1.03l-.23-.05-.11-.21c-16.17-31.7-15.73-86.06-15.61-92.52-14.81,3.02-28.95,5.72-29.1,5.75l-.19,.04-.16-.1c-26.17-15.4-71.03-25.81-71.48-25.91l-1.05-.24,.86-.65c17.4-13.13,45.65-18.81,45.93-18.86h.06s36.08,1.73,36.08,1.73l15.71-1.55c37.32-3.69,40.7,6.61,40.94,7.6,13.34,31.56,4.94,120.19,4.85,121.08l-.02,.19-.14,.13c-4.01,3.66-10.39,4.6-15.87,4.6Zm-10.04-1.96c2.1,.4,17.84,3.14,25.09-3.25,.44-4.67,8.15-89.86-4.82-120.45l-.03-.1c-.02-.1-2.66-10.53-39.87-6.85l-15.78,1.56-36.02-1.74c-1.43,.29-27.72,5.78-44.61,18.03,6.94,1.67,46.48,11.57,70.55,25.68,1.74-.33,15.41-2.95,29.51-5.84l.62-.13-.02,.63c-.02,.59-1.52,59.07,15.38,92.45Z" fill="#263238"></path>
        </g>
        <g>
          <path d="M339.04,580.27l4.09,33.65-18.09-2.85,2.4-26.89,6.24-3.6s1.86,.36,5.35-.31Z" fill="#fff"></path>
          <path d="M343.71,614.52l-19.2-3.03,2.47-27.61,6.63-3.82,.18,.04s1.83,.33,5.16-.31l.53-.1,4.24,34.84Zm-18.12-3.87l16.97,2.68-3.95-32.47c-2.64,.46-4.28,.32-4.82,.25l-5.87,3.38-2.34,26.16Z" fill="#263238"></path>
        </g>
        <path d="M179.31,450.4c-.15,0-.29-.06-.39-.19-17.62-21.84-36.82-25.26-37.01-25.29-.27-.04-.46-.3-.41-.58s.31-.46,.58-.41c.2,.03,19.77,3.52,37.62,25.65,.17,.21,.14,.53-.08,.7-.09,.07-.2,.11-.31,.11Z" fill="#263238"></path>
        <path d="M162.81,410.21c-.09,0-.18-.03-.27-.08-6.56-4.15-14.28-2.82-14.35-2.8-.27,.04-.53-.13-.58-.4-.05-.27,.13-.53,.4-.58,.33-.06,8.17-1.42,15.07,2.94,.23,.15,.3,.46,.16,.69-.1,.15-.26,.23-.42,.23Z" fill="#263238"></path>
        <path d="M167.47,463.68c-.12,0-.24-.04-.33-.13-9.79-8.74-24.29-9.2-24.44-9.2-.28,0-.49-.24-.49-.51,0-.27,.23-.49,.5-.49h.01c.15,0,15.01,.47,25.08,9.46,.21,.18,.22,.5,.04,.71-.1,.11-.24,.17-.37,.17Z" fill="#263238"></path>
        <path d="M166.04,637.59c-.08,0-.15-.02-.23-.05-44.96-22.72-45.84-90.08-45.84-90.75,0-.28,.22-.5,.5-.5h0c.28,0,.5,.22,.5,.5,0,.67,.88,67.42,45.29,89.87,.25,.12,.35,.43,.22,.67-.09,.17-.26,.27-.45,.27Z" fill="#263238"></path>
        <path d="M255.02,641.51c-.19,0-.37-.11-.46-.29-.11-.25,0-.55,.25-.66,43.72-19.64,48.82-70.12,48.86-70.63,.03-.27,.27-.47,.54-.45,.27,.03,.48,.27,.45,.54-.05,.51-5.2,51.57-49.45,71.45-.07,.03-.14,.04-.21,.04Z" fill="#263238"></path>
        <g>
          <path d="M450.08,595.11c-.33,2.13-1.03,4.15-1.89,5.99-2.9,6.19-8.25,10.87-14.6,13.41-13.21,5.29-16.52-2.13-16.52-2.13,6.56-17.48,9.94-34.42,9.94-34.42,10.49,7.98,22.19,4.48,22.19,4.48-2.85,6.78,.87,12.68,.87,12.68Z" fill="#fff"></path>
          <path d="M425.17,616.89c-6.53,0-8.53-4.26-8.55-4.31l-.08-.19,.07-.19c6.47-17.24,9.89-34.18,9.92-34.35l.16-.78,.64,.48c10.16,7.72,21.63,4.44,21.75,4.4l1.01-.3-.41,.97c-2.71,6.45,.8,12.16,.83,12.22l.1,.16-.03,.18c-.31,2-.96,4.06-1.93,6.13-2.87,6.12-8.15,10.98-14.86,13.66-3.49,1.4-6.33,1.92-8.61,1.92Zm-7.55-4.55c.59,1.07,4.21,6.34,15.79,1.7,6.48-2.59,11.57-7.27,14.33-13.16,.9-1.92,1.52-3.83,1.82-5.68-.57-.99-3.22-6.07-1.15-12.07-2.96,.62-12.38,1.88-21.06-4.32-.74,3.49-4.06,18.37-9.73,33.53Z" fill="#263238"></path>
        </g>
        <g>
          <path d="M459.47,610.19c-1.1,3.8-5.52,8.5-9.17,11.9-3.74,3.47-7.19,7.25-10.35,11.25-1.22,1.55-2.36,2.96-3.4,4.22-3.54,4.27-7.74,7.96-12.52,10.8-20.9,12.45-31.3,6.77-33.12,5.54-.16-.11-.18-.33-.05-.47l9.86-10.85c3.17-3.49,5.69-7.52,7.38-11.93,4.35-11.41,8.98-18.28,8.98-18.28,0,0,3.31,7.42,16.52,2.13,6.35-2.54,11.7-7.22,14.6-13.41,.86-1.84,1.56-3.86,1.89-5.99,5.46,4.38,9.4,15.09,9.4,15.09Z" fill="#4dc98b"></path>
          <path d="M400.4,656.75c-5.62,0-8.8-1.79-9.77-2.44-.2-.13-.33-.34-.35-.58-.03-.24,.05-.47,.21-.65l9.86-10.84c3.19-3.51,5.64-7.47,7.28-11.77,4.32-11.33,8.99-18.31,9.03-18.38l.5-.75,.37,.82c.13,.28,3.32,6.9,15.88,1.88,6.48-2.59,11.57-7.27,14.33-13.16,.93-1.98,1.56-3.95,1.85-5.85l.13-.85,.67,.54c5.51,4.41,9.39,14.86,9.55,15.31l.06,.15-.05,.16c-1.14,3.93-5.69,8.76-9.31,12.12-3.62,3.35-7.08,7.12-10.3,11.19-1.13,1.44-2.28,2.86-3.41,4.23-3.68,4.43-7.93,8.1-12.65,10.91-10.47,6.24-18.35,7.97-23.88,7.97Zm-9.03-3.15c2.25,1.41,12.41,6.24,32.4-5.68,4.62-2.75,8.78-6.35,12.39-10.69,1.12-1.36,2.27-2.77,3.4-4.21,3.25-4.11,6.75-7.92,10.4-11.3,4.97-4.61,8.07-8.59,8.99-11.51-.48-1.26-3.92-9.94-8.53-14.16-.35,1.72-.94,3.48-1.78,5.25-2.87,6.12-8.15,10.98-14.86,13.66-10.93,4.38-15.39,.14-16.71-1.67-1.23,1.97-4.98,8.28-8.51,17.52-1.69,4.42-4.2,8.48-7.47,12.08l-9.71,10.69Z" fill="#263238"></path>
        </g>
        <g>
          <path d="M457.29,625.71c-9.62,8.74-20.99,23.61-20.99,23.61-19.68,21.2-39.13,16.17-39.13,16.17-7.16-.79-6.73-9.9-6.59-11.55,0-.11,.13-.17,.22-.11,1.53,1.07,11.93,7.21,33.21-5.48,4.77-2.85,8.97-6.53,12.52-10.8,1.04-1.25,2.19-2.67,3.4-4.22,3.16-4,6.61-7.78,10.35-11.25,3.66-3.4,8.07-8.09,9.17-11.9,5.68,8.97-2.18,15.52-2.18,15.52Z" fill="#fff"></path>
          <path d="M402.43,666.48c-3.32,0-5.31-.49-5.38-.5-7.51-.83-7.12-10.21-6.96-12.08,.02-.23,.16-.43,.36-.53,.21-.1,.45-.08,.64,.05,1.11,.77,11.42,7.17,32.67-5.5,4.62-2.75,8.78-6.35,12.39-10.69,1.12-1.36,2.27-2.77,3.4-4.21,3.25-4.11,6.75-7.92,10.4-11.3,5.06-4.7,8.18-8.73,9.03-11.67l.31-1.07,.59,.94c5.74,9.07-1.93,15.86-2.27,16.16-9.47,8.61-20.81,23.39-20.92,23.54-13.5,14.54-27.03,16.86-34.27,16.86Zm-11.38-11.9c-.12,2.56,.11,9.74,6.18,10.42,.26,.06,19.48,4.7,38.7-16.02,.08-.11,11.48-14.96,21.02-23.64h.02c.29-.26,6.94-5.96,2.61-13.97-1.55,3.72-5.64,8.01-8.95,11.09-3.62,3.35-7.08,7.12-10.3,11.19-1.13,1.44-2.28,2.86-3.41,4.23-3.68,4.43-7.93,8.1-12.65,10.91-19.85,11.83-30.34,7.52-33.23,5.8Zm.04-.6h0s0,0,0,0Z" fill="#263238"></path>
        </g>
        <g>
          <path d="M481.69,606.32l-5.42-25.86c12.93-.9,17.59-9.43,17.59-9.43l.12,3.93c.22,1.32,.91,2.5,1.94,3.35l2.62,2.14c3.01,28.87-16.84,25.86-16.84,25.86Z" fill="#fff"></path>
          <path d="M483.29,606.92c-.97,0-1.59-.09-1.67-.1l-.34-.05-5.61-26.76,.57-.04c12.48-.86,17.14-9.08,17.18-9.17l.88-1.61,.17,5.77c.19,1.12,.82,2.21,1.75,2.98l2.77,2.27,.02,.21c1.1,10.53-.68,18.1-5.28,22.49-3.65,3.48-8.09,4.02-10.46,4.02Zm-1.18-1.05c1.39,.12,6.81,.27,10.96-3.69,4.33-4.14,6.01-11.36,4.99-21.45l-2.46-2.01c-1.12-.93-1.87-2.23-2.11-3.65l-.08-2.45c-1.87,2.44-6.83,7.47-16.53,8.32l5.23,24.95Z" fill="#263238"></path>
        </g>
        <g>
          <path d="M512.21,587.38c-.1,7.33-2.01,12.32-3.27,14.82-.74,1.48-1.19,3.11-1.32,4.77l-.6,7.15c-.28,3.3-.97,6.55-2.13,9.64-7.91,21.05-20.08,23.94-23.93,24.31-.6,.05-1.08-.5-.93-1.09l.11-.41s0-.02,0-.02l2.75-10.57c.67-2.61,.86-5.31,.53-7.99-1.15-9.49-1.72-21.67-1.72-21.67,0,0,19.85,3.01,16.84-25.86,4.51-2.4,13.68,6.92,13.68,6.92Z" fill="#4dc98b"></path>
          <path d="M480.87,648.58c-.41,0-.79-.18-1.06-.49-.29-.34-.39-.79-.28-1.23l2.86-11c.66-2.57,.84-5.19,.52-7.8-1.14-9.4-1.72-21.59-1.72-21.71l-.03-.61,.6,.09c.06,0,6.52,.91,11.3-3.66,4.36-4.17,6.03-11.46,4.97-21.66l-.04-.33,.3-.16c4.78-2.55,13.88,6.62,14.27,7.01l.15,.15v.21c-.11,7.55-2.13,12.66-3.33,15.04-.71,1.42-1.14,2.96-1.27,4.58l-.6,7.15c-.29,3.43-1.01,6.72-2.16,9.77-8.06,21.44-20.67,24.28-24.35,24.64-.04,0-.08,0-.12,0Zm-.27-1.84l-.1,.38c-.04,.16,.03,.28,.07,.33,.08,.09,.19,.14,.33,.13,3.52-.34,15.65-3.09,23.51-23.99,1.12-2.97,1.82-6.17,2.1-9.51l.6-7.15c.14-1.75,.61-3.41,1.38-4.95,1.15-2.28,3.08-7.16,3.22-14.39-2.53-2.53-9.18-8.14-12.64-6.81,1.02,10.34-.77,17.79-5.32,22.13-4.31,4.12-9.73,4.11-11.52,3.98,.13,2.54,.7,12.86,1.69,21.06,.34,2.73,.15,5.48-.54,8.17l-2.76,10.62Z" fill="#263238"></path>
        </g>
        <g>
          <path d="M515.67,603.77c-2.41,7.67-5.42,26.16-5.42,26.16-3.98,15.14-15.72,21.92-21.19,24.32-1.68,.74-3.63,.46-5.05-.71l-2.02-1.66c-2.76-2.62-2.07-4.79-1.86-5.29l-.11,.41c-.15,.59,.32,1.14,.93,1.09,3.86-.38,16.02-3.26,23.93-24.31,1.16-3.09,1.86-6.34,2.13-9.64l.6-7.15c.14-1.66,.58-3.28,1.32-4.77,1.26-2.5,3.18-7.49,3.27-14.82l3.37,2.28c1.16,.79,1.86,2.1,1.88,3.5,.06,5.6-1.8,10.6-1.8,10.6Z" fill="#fff"></path>
          <path d="M487.11,655.16c-1.22,0-2.43-.42-3.41-1.23l-2.02-1.66c-2.98-2.83-2.28-5.21-2-5.88l.94,.32-.11,.41c-.04,.16,.03,.28,.07,.33,.08,.09,.19,.14,.33,.13,3.52-.34,15.65-3.09,23.51-23.99,1.12-2.97,1.82-6.17,2.1-9.51l.6-7.15c.14-1.75,.61-3.41,1.38-4.95,1.16-2.3,3.12-7.26,3.22-14.6v-.93s4.15,2.8,4.15,2.8c1.3,.88,2.08,2.34,2.1,3.91,.06,5.55-1.7,10.43-1.82,10.77-2.37,7.55-5.37,25.89-5.4,26.08-4.09,15.58-16.38,22.46-21.48,24.7-.69,.3-1.43,.45-2.16,.45Zm-6.65-6.64c.17,.82,.66,1.85,1.87,3l2,1.64c1.28,1.06,3.02,1.3,4.53,.63,4.96-2.18,16.93-8.87,20.91-23.99,.02-.14,3.03-18.57,5.42-26.18v-.02s1.83-4.98,1.77-10.42c-.01-1.24-.63-2.4-1.66-3.09l-2.62-1.77c-.25,7.04-2.16,11.84-3.31,14.12-.71,1.42-1.14,2.96-1.27,4.58l-.6,7.15c-.29,3.43-1.01,6.72-2.16,9.77-8.06,21.44-20.67,24.28-24.35,24.64-.18,.01-.37,0-.54-.06Z" fill="#263238"></path>
        </g>
        <g>
          <path d="M272.33,441.4s18.67-1.94,22-2.07l-8.26-4.93-.68,1.19-8.48-4.37c-.53-.28-1.18,.04-1.29,.63-.33,1.77-1.19,5.33-3.3,9.55Z" fill="#fff"></path>
          <path d="M271.48,442l.41-.82c2.09-4.18,2.94-7.69,3.26-9.41,.08-.44,.36-.8,.75-1,.4-.2,.86-.19,1.26,.01l8.05,4.15,.69-1.21,10.14,6.05-1.68,.07c-3.28,.13-21.79,2.05-21.97,2.07l-.91,.09Zm5.04-10.37c-.06,0-.12,.01-.18,.04-.07,.03-.18,.11-.21,.28-.31,1.66-1.09,4.94-2.95,8.87,3.32-.34,14.74-1.51,19.52-1.88l-6.44-3.84-.66,1.16-8.9-4.59c-.06-.03-.12-.04-.19-.04Z" fill="#263238"></path>
        </g>
        <g>
          <path d="M296.15,425.72l12.92,8.67-5.6,4.62s-5.97-.17-9.13,.32l-8.26-4.93s3.89-8.87,10.07-8.69Z" fill="#fff"></path>
          <path d="M294.24,439.86l-8.79-5.25,.18-.4c.16-.38,4.14-9.17,10.54-8.99h.14s13.59,9.13,13.59,9.13l-6.26,5.17h-.19c-.06,0-5.96-.17-9.04,.31l-.18,.03Zm-7.51-5.64l7.71,4.6c2.92-.42,7.82-.33,8.85-.3l4.94-4.08-12.24-8.22h-.03c-4.95,0-8.41,6.33-9.23,7.99Z" fill="#263238"></path>
        </g>
        <g>
          <path d="M342.18,436.35s-6.54,1.77-13.32-1.09l-11.76-5.3s-3.6-2.01-9,.95c0,0-12.5,4.34-7.84,6.99,0,0-7.52,4.13-1.8,5.4,0,0-1.38,5.08,3.07,3.28l5.93-4.77s4.34-2.33,6.78,.11c0,0-2.14,2.64-.56,4.76,.64,.85,1.7,1.27,2.76,1.24l12.22-.34c1.13-.03,2.25,.24,3.23,.8,2.31,1.33,7.19,3.4,10.86-.12,0,0,2.54-2.33,4.98-1.8,0,0-4.82-5.87-5.53-10.14Z" fill="#fff"></path>
          <path d="M337.9,450.72c-2.59,0-5-1.15-6.27-1.88-.89-.51-1.91-.78-2.96-.74l-12.22,.34c-1.26,.03-2.47-.5-3.17-1.44-1.43-1.91-.29-4.1,.29-4.99-2.2-1.67-5.84,.24-5.88,.26l-5.98,4.79c-1.43,.58-2.51,.56-3.21-.06-.95-.84-.8-2.49-.65-3.33-1.26-.36-1.93-.92-2.04-1.71-.23-1.58,2.21-3.3,3.52-4.11-.56-.52-.66-1.06-.62-1.45,.25-2.72,7.72-5.45,9.21-5.96,5.5-3.03,9.25-1.01,9.41-.92l11.72,5.28c6.52,2.75,12.92,1.08,12.99,1.07l.53-.14,.09,.54c.69,4.09,5.38,9.85,5.43,9.9l.91,1.11-1.4-.31c-2.14-.46-4.51,1.66-4.53,1.68-1.6,1.54-3.43,2.06-5.18,2.06Zm-9.07-3.62c1.17,0,2.3,.3,3.3,.87,2.38,1.37,6.88,3.19,10.26-.04,.1-.09,2.04-1.84,4.25-2-1.31-1.73-4.08-5.67-4.84-8.97-1.7,.36-7.29,1.23-13.13-1.23l-11.77-5.3c-.18-.1-3.49-1.84-8.56,.94-3.3,1.15-8.47,3.53-8.62,5.14-.03,.33,.23,.66,.79,.97l.78,.44-.78,.43c-1.61,.88-3.82,2.55-3.68,3.48,.06,.4,.68,.75,1.75,.99l.51,.11-.14,.5c-.15,.55-.42,2.24,.24,2.82,.46,.41,1.38,.18,2.1-.1l5.87-4.72c.27-.15,4.78-2.53,7.45,.14l.32,.32-.28,.35s-1.88,2.37-.55,4.15c.51,.68,1.35,1.08,2.34,1.04l12.22-.34c.06,0,.12,0,.19,0Z" fill="#263238"></path>
        </g>
        <path d="M300.26,438.4c-.15,0-.29-.06-.39-.19-.17-.22-.14-.53,.08-.7,.44-.35,5.14-3.41,7.14-4.71,.92-.6,1.9-1.01,2.93-1.22,1.91-.4,4.75-.54,7.45,1.01,.24,.14,.32,.44,.18,.68-.14,.24-.45,.32-.68,.18-2.43-1.39-5.01-1.26-6.74-.9-.9,.19-1.77,.55-2.58,1.08-4.08,2.65-6.78,4.43-7.06,4.65-.09,.07-.2,.11-.31,.11Z" fill="#263238"></path>
        <path d="M298.46,443.81c-.15,0-.29-.07-.39-.19-.17-.22-.13-.53,.08-.7l8.38-6.6c1.22-.96,2.67-1.58,4.19-1.78,2.87-.39,6.95-.49,10.11,1.24,.24,.13,.33,.44,.2,.68-.13,.24-.44,.33-.68,.2-3.08-1.67-7.28-1.42-9.5-1.12-1.34,.18-2.62,.72-3.7,1.57l-8.38,6.6c-.09,.07-.2,.11-.31,.11Z" fill="#263238"></path>
        <path d="M330.34,442.43h-16.1c-.28,0-.5-.22-.5-.5s.22-.5,.5-.5h16.1c.28,0,.5,.22,.5,.5s-.22,.5-.5,.5Z" fill="#263238"></path>
        <path d="M365.73,446.48c-.09,0-.18-.03-.27-.08-12.85-8.12-14.33-17.16-14.38-17.54-.04-.27,.15-.53,.42-.57,.27-.04,.53,.15,.57,.42,.01,.09,1.5,9,13.93,16.85,.23,.15,.3,.46,.16,.69-.1,.15-.26,.23-.42,.23Z" fill="#263238"></path>
        <g>
          <path d="M457.51,441.49l-.92,2.16c-.02,.07,.05,.13,.11,.1l2.09-1.13c.17-.09,.34-.19,.19-.33l-1.02-.92c-.15-.14-.39-.07-.46,.12Z" fill="#fff"></path>
          <path d="M456.64,444.35l-.35-.23c-.18-.16-.25-.4-.17-.63l.92-2.18c.09-.24,.29-.42,.54-.49,.26-.07,.53,0,.72,.18l1.02,.92c.22,.2,.23,.43,.22,.54-.04,.34-.34,.51-.5,.59l-2.39,1.29Zm1.22-2.4l-.33,.79,.76-.41-.42-.38Z" fill="#263238"></path>
        </g>
        <g>
          <path d="M480.14,414.14h0c.55,.51,.62,1.36,.15,1.95l-21,26.17c-.07,.09-.2,.1-.29,.02l-1.35-1.21c-.08-.07-.09-.19-.02-.27l20.41-26.48c.51-.67,1.49-.75,2.1-.18Z" fill="#263238"></path>
          <path d="M459.13,442.83c-.17,0-.34-.06-.47-.18l-1.35-1.21c-.27-.24-.31-.66-.09-.94l20.41-26.49c.33-.43,.83-.7,1.37-.75,.54-.04,1.08,.14,1.47,.5h0c.74,.69,.83,1.84,.2,2.63l-21,26.17c-.12,.15-.3,.24-.49,.26-.02,0-.04,0-.06,0Zm-.94-1.95l.9,.81,20.8-25.92c.3-.38,.26-.94-.09-1.27-.19-.18-.45-.26-.71-.24-.26,.02-.5,.15-.66,.36l-20.24,26.26Z" fill="#263238"></path>
        </g>
        <g>
          <path d="M502.92,439.8s-17.31,3.23-26.35,.9c0,0-4.48-.24-3.82-4.34,0,0-3.61,0-2.95-3.93,0,0-2.3,.16-2.62-3.11,0,0-3.93-.16-2.62-3.61,0,0,1.15-4.92,5.25-5.57l7.1-.93c1.86-.24,3.74,.24,5.25,1.36l8.07,5.98c1.4,1.04,3.18,1.44,4.89,1.12l3.38-.64s.82,8.03,4.43,12.79Z" fill="#fff"></path>
          <path d="M485.09,442.05c-3.13,0-6.17-.23-8.64-.87-.02,0-2.23-.13-3.47-1.66-.59-.73-.85-1.64-.78-2.71-.59-.1-1.54-.38-2.21-1.17-.59-.7-.84-1.63-.74-2.77-.79-.17-2.14-.8-2.51-3.1-.66-.1-1.9-.42-2.55-1.39-.5-.75-.53-1.71-.1-2.85,.03-.15,1.25-5.19,5.63-5.89l7.12-.93c2-.26,3.99,.25,5.61,1.45l8.07,5.98c1.29,.95,2.92,1.33,4.5,1.03l3.91-.74,.06,.54c0,.08,.85,7.95,4.33,12.54l.49,.64-.8,.15c-.52,.1-9.56,1.76-17.92,1.76Zm-14.69-10.16l-.1,.61c-.18,1.07-.03,1.91,.45,2.47,.72,.86,2,.88,2.01,.88h.58s-.09,.58-.09,.58c-.16,1.01,0,1.83,.51,2.45,.96,1.19,2.83,1.31,2.85,1.31,7.83,2.01,21.99-.17,25.45-.75-2.78-4.14-3.75-10.03-3.99-11.84l-2.85,.54c-1.85,.35-3.77-.09-5.28-1.21l-8.07-5.98c-1.41-1.04-3.15-1.5-4.88-1.26l-7.1,.93c-3.71,.59-4.81,5.15-4.83,5.19-.33,.88-.33,1.53-.02,2,.6,.91,2.17,.99,2.18,.99l.43,.02,.04,.43c.27,2.68,1.92,2.68,2.1,2.67l.62-.03Z" fill="#263238"></path>
        </g>
        <path d="M467.18,429.81c-.25,0-.47-.19-.5-.45,0-.04-.32-3.69,3.78-5.11l6.95-1.49c.26-.05,.54,.11,.59,.38,.06,.27-.11,.54-.38,.59l-6.89,1.48c-3.27,1.14-3.06,3.94-3.05,4.05,.02,.27-.18,.52-.45,.54-.02,0-.03,0-.05,0Z" fill="#263238"></path>
        <path d="M469.8,432.92c-.07,0-.14-.01-.21-.04-.25-.11-.36-.41-.25-.66,.06-.14,1.64-3.52,7.56-4.87,.27-.06,.54,.11,.6,.38,.06,.27-.11,.54-.38,.6-5.39,1.23-6.86,4.28-6.87,4.31-.08,.18-.27,.29-.46,.29Z" fill="#263238"></path>
        <path d="M472.76,436.86c-.08,0-.17-.02-.25-.07-.24-.14-.32-.44-.19-.68,.06-.1,1.49-2.55,4.7-2.55,.28,0,.5,.22,.5,.5s-.22,.5-.5,.5c-2.63,0-3.82,2.02-3.83,2.04-.09,.16-.26,.25-.43,.25Z" fill="#263238"></path>
        <path d="M505.39,502.04c-.1,0-.19-.03-.28-.08-.23-.15-.29-.46-.14-.69,.15-.22,15.37-22.36,62.81-33.83,.32-.07,30.64-6.53,54.42-27.73,.2-.23,24.79-27.4,66.62-19.03,.27,.05,.45,.32,.39,.59-.05,.27-.33,.45-.59,.39-41.24-8.25-65.48,18.48-65.72,18.75-24.03,21.42-54.6,27.94-54.9,28-47.05,11.38-62.05,33.19-62.2,33.41-.1,.14-.25,.22-.42,.22Z" fill="#263238"></path>
        <g>
          <path d="M605.58,452.69c-.95-13.74-7.15-26.7-17.07-36.5-2.82-2.79-5.81-5.17-8.69-6.43l-90.12,24.19-17.06,4.58-22.19,12.46c-7.59,4.26-13.06,11.53-14.86,20.04-.68,3.23-1.19,7.04-1.39,11.54l-8.82,92.47c-.06,.65,.15,1.29,.59,1.77,2.12,2.29,9.34,8.5,23.24,5.59,.79-.17,1.44-.72,1.71-1.48,3.18-8.87,23.23-65.3,28.85-91.99,0,0,13.92,2.76,34.09,3.86,0,0,18.41-17.26,54.92-25.13,0,0,21.66-5.07,36.8-14.98Z" fill="#fff"></path>
          <path d="M442.28,583.66c-9.76,0-15.08-4.78-16.68-6.51-.53-.57-.79-1.36-.72-2.15l8.82-92.48c.19-4.18,.66-8.09,1.4-11.6,1.82-8.58,7.32-16.01,15.11-20.38l22.3-12.5,107.35-28.81,.16,.07c2.65,1.17,5.63,3.36,8.84,6.53,10.16,10.03,16.27,23.11,17.22,36.82l.02,.29-.25,.16c-15.04,9.84-36.75,14.99-36.96,15.04-35.94,7.75-54.51,24.83-54.69,25.01l-.16,.15h-.21c-17.9-.99-31.04-3.3-33.68-3.79-5.7,26.63-24.95,80.91-28.77,91.58-.33,.92-1.11,1.59-2.08,1.8-2.56,.53-4.89,.76-7.02,.76Zm30.55-144.66l-22.13,12.43c-7.53,4.23-12.86,11.41-14.62,19.71-.73,3.45-1.2,7.31-1.38,11.46l-8.82,92.5c-.05,.51,.12,1.01,.46,1.38,1.86,2.01,8.99,8.32,22.77,5.45,.63-.13,1.13-.56,1.35-1.16,3.84-10.72,23.28-65.54,28.83-91.93l.1-.48,.49,.1c.14,.03,14.02,2.75,33.81,3.84,1.91-1.7,20.55-17.68,54.99-25.11,.21-.05,21.51-5.11,36.39-14.75-1-13.37-6.99-26.1-16.91-35.89-3.06-3.02-5.88-5.12-8.38-6.26l-106.95,28.71Z" fill="#263238"></path>
        </g>
        <g>
          <path d="M457.36,320.53s-10.7,3.85-21.62,26.12c0,0-12.2,23.98-34.04,40.25l-59.52,49.45s1.93,10.28,14.56,17.34l8.99-7.71s52.67-30.83,72.15-49.88l18.84-17.98s4.07,33.83,46.46,42.39l-4.92,2.14s-.21,16.27,8.99,21.19l23.76-5.14s48.48-14.31,48.8-31.04c0,0,.33-12.13-9.84-25.9l-19.67-30.17-11.48-24.26-24.92-16.72-31.48,3.93-25.07,5.98Z" fill="#4dc98b"></path>
          <path d="M356.8,454.3l-.3-.17c-12.69-7.1-14.72-17.26-14.8-17.69l-.05-.29,59.74-49.64c21.51-16.03,33.79-39.85,33.91-40.09,10.88-22.19,21.45-26.2,21.9-26.36l.05-.02,25.07-5.98,31.72-3.97,25.19,16.9,.06,.12,11.48,24.26,19.64,30.11c10.13,13.73,9.92,26.07,9.92,26.19-.33,16.89-47.17,30.91-49.16,31.5l-23.98,5.19-.16-.09c-9.37-5.01-9.27-20.96-9.26-21.64v-.32s3.79-1.65,3.79-1.65c-36.91-8.17-44.09-36.03-45.16-41.54l-18.16,17.33c-19.3,18.87-71.71,49.64-72.24,49.95l-9.18,7.88Zm-14.06-17.76c.42,1.66,3.09,10.34,13.94,16.55l8.73-7.48c.6-.36,52.91-31.07,72.12-49.86l19.57-18.68,.12,.99c.04,.33,4.54,33.57,46.06,41.96l1.56,.32-6.08,2.64c.04,2.27,.59,15.9,8.57,20.34l23.58-5.1c.45-.13,48.09-14.39,48.41-30.56,0-.12,.19-12.14-9.74-25.6l-19.69-30.19-11.45-24.2-24.65-16.54-31.29,3.91-24.98,5.96c-.55,.22-10.88,4.57-21.32,25.86-.13,.25-12.51,24.28-34.19,40.43l-59.26,49.24Z" fill="#263238"></path>
        </g>
        <path d="M456.73,379.12s-.03,0-.04,0c-.28-.02-.48-.26-.46-.54,.72-9.38,2.03-18.45,2.04-18.54,.04-.27,.3-.46,.57-.42,.27,.04,.46,.29,.42,.57-.01,.09-1.32,9.13-2.04,18.47-.02,.26-.24,.46-.5,.46Z" fill="#263238"></path>
        <path d="M457.17,372.57c-.21,0-.4-.13-.47-.34-1.75-5.27-1.63-12.4-1.63-12.7,0-.28,.21-.52,.51-.49,.28,0,.5,.23,.49,.51,0,.07-.12,7.26,1.58,12.36,.09,.26-.05,.54-.32,.63-.05,.02-.11,.03-.16,.03Z" fill="#263238"></path>
        <path d="M511.28,417.84c-.19,0-.38-.11-.46-.3-.11-.25,0-.55,.26-.66l34.48-14.83c.13-.06,.14-.2,.14-.26,0-.05-.01-.19-.16-.26-21.9-11.08-31.62-31.82-31.72-32.03-.12-.25,0-.55,.25-.66,.25-.12,.55,0,.66,.25,.09,.21,9.68,20.64,31.26,31.55,.44,.22,.71,.67,.71,1.16,0,.5-.28,.94-.73,1.16l-34.5,14.84c-.06,.03-.13,.04-.2,.04Z" fill="#263238"></path>
        <path d="M520.55,441.35c-.13,0-.25-.05-.35-.14-8.83-8.7-8.95-20.23-8.8-23.36l-8.04,3.13c-.26,.1-.55-.03-.65-.28-.1-.26,.03-.55,.28-.65l8.78-3.41c.16-.07,.35-.04,.49,.07,.14,.11,.21,.28,.19,.45-.02,.13-1.45,13.58,8.45,23.34,.2,.19,.2,.51,0,.71-.1,.1-.23,.15-.36,.15Z" fill="#263238"></path>
        <g>
          <path d="M481.12,314.38s-10.36,15.88-12.31,26.73c-.29,1.62,.33,3.27,1.64,4.28l6.95,5.34c.15,.12,.37,.08,.47-.08,1.39-2.14,10.04-15.65,16.2-30.53,0,0-6.23-.66-12.95-5.74Z" fill="#263238"></path>
          <path d="M477.59,351.29c-.18,0-.36-.06-.5-.17l-6.95-5.34c-1.46-1.12-2.16-2.94-1.83-4.76,1.95-10.82,11.96-26.26,12.39-26.91l.29-.45,.43,.32c6.54,4.94,12.64,5.63,12.7,5.64l.67,.07-.26,.62c-6.12,14.79-14.61,28.09-16.24,30.61-.13,.19-.33,.33-.55,.36-.05,0-.09,.01-.14,.01Zm3.65-36.19c-1.68,2.65-10.22,16.48-11.95,26.1-.26,1.45,.29,2.9,1.45,3.79l6.8,5.22c1.83-2.82,9.86-15.51,15.81-29.7-1.75-.3-6.71-1.47-12.11-5.42Z" fill="#263238"></path>
        </g>
        <g>
          <path d="M461.96,325.75l-.84,17.89c-.06,1.21,.3,2.41,1.05,3.36,1.76,2.22,5.87,5.34,14.23,2.85l-5.96-4.46s-2.14-1.3-1.64-4.28c0,0,.83-3.96,1.82-6.24l-8.66-9.13Z" fill="#263238"></path>
          <path d="M470.7,351.27c-4.88,0-7.59-2.29-8.91-3.96-.81-1.02-1.23-2.34-1.16-3.7l.89-19.06,9.7,10.22-.13,.3c-.96,2.2-1.78,6.1-1.79,6.14-.43,2.57,1.34,3.7,1.41,3.75l6.8,5.08-.95,.28c-2.23,.66-4.17,.93-5.85,.93Zm-8.29-24.32l-.78,16.72c-.05,1.12,.28,2.19,.95,3.03,1.55,1.96,5.23,4.86,12.72,2.95l-5.15-3.85c-.06-.03-2.39-1.48-1.83-4.76,.04-.17,.78-3.73,1.73-6.05l-7.63-8.04Z" fill="#263238"></path>
        </g>
        <g>
          <path d="M449.09,312.13l21.53,22.75s5.9-14.92,10.49-20.49l1.64-9.51-10.49-12.13-14.59,10.16-8.58,9.22Z" fill="#fff"></path>
          <path d="M470.8,335.79l-22.39-23.66,8.98-9.63,14.96-10.42,10.94,12.65-1.7,9.87-.08,.1c-4.49,5.45-10.35,20.21-10.41,20.36l-.29,.73Zm-21.02-23.67l20.67,21.84c1.25-3.07,6.15-14.81,10.19-19.8l1.58-9.15-10.04-11.61-14.18,9.88-8.23,8.84Z" fill="#263238"></path>
        </g>
        <g>
          <rect x="426.49" y="248.84" width="37.59" height="63.49" rx="18.64" ry="18.64" transform="translate(-20.83 36.15) rotate(-4.54)" fill="#fff"></rect>
          <path d="M446.15,312.8c-9.87,0-18.27-7.62-19.06-17.62l-2.08-26.13c-.41-5.1,1.2-10.04,4.52-13.93,3.32-3.89,7.95-6.25,13.05-6.66l.31-.02c5.1-.41,10.05,1.2,13.94,4.52s6.25,7.95,6.66,13.05l2.08,26.13c.41,5.1-1.2,10.04-4.52,13.93-3.32,3.89-7.95,6.25-13.05,6.66l-.31,.02c-.51,.04-1.02,.06-1.53,.06Zm-1.74-63.43c-.48,0-.96,.02-1.45,.06l-.31,.02c-4.83,.38-9.22,2.63-12.37,6.31s-4.66,8.38-4.28,13.21l2.08,26.13c.38,4.83,2.63,9.22,6.31,12.37,3.69,3.14,8.38,4.67,13.21,4.28l.31-.02c4.83-.38,9.22-2.63,12.37-6.31s4.66-8.38,4.28-13.21l-2.08-26.13c-.75-9.48-8.71-16.7-18.07-16.7Z" fill="#263238"></path>
        </g>
        <g>
          <path d="M426.82,275.14c1.67-5.1,7.39-19.89,18.81-25.1,1.37-.62,2.97,.08,3.49,1.49,1.2,3.25,4.06,9.07,10.27,13.76,0,0,2.43,3.37-.94,8.42,0,0-5.24,14.77,5.42,13.28l9.35,11.97s.56,17.21,21.69,21.51l23,.37s9.23-1.68,15.49,9.87c1.52,2.81,2.36,5.94,2.63,9.12,.59,6.72,3.22,21.12,15.05,19.1,3.41-.58,6.54-2.34,8.9-4.87,3.47-3.71,7.5-10.6,2.52-19.81-2.51-4.63-6.56-8.23-11.32-10.49-3.56-1.69-8.85-3.92-15.81-6.1,0,0-17.71-5.74-24.26-24.59l-7.32-21.19c-1.74-5.03-3.09-10.18-4.28-15.37-1.68-7.34-7.94-20.32-31.36-17.71,0,0-19.74-5.55-33.74,7.37-7.62,7.03-11.05,17.66-8.9,27.81,.08,.37,.16,.75,.26,1.12,.13,.52,.86,.55,1.03,.04Z" fill="#fff"></path>
          <path d="M548.91,359.63c-2.37,0-4.47-.7-6.27-2.09-5.18-4-6.67-12.78-7.1-17.66-.29-3.31-1.16-6.31-2.58-8.93-6-11.07-14.59-9.68-14.96-9.61l-23.1-.37c-20.23-4.11-22.04-20-22.17-21.82l-9.08-11.62c-2.52,.3-4.4-.29-5.58-1.74-3.06-3.74-.22-11.89-.1-12.24l.06-.11c2.92-4.38,1.27-7.34,.98-7.79-6.34-4.81-9.22-10.79-10.38-13.94-.2-.56-.63-1-1.17-1.23-.53-.22-1.11-.21-1.64,.02-11.34,5.17-17.06,20.29-18.54,24.8h0c-.15,.44-.58,.71-1.02,.71-.47-.02-.86-.33-.97-.78-.09-.38-.18-.76-.26-1.14-2.18-10.28,1.29-21.12,9.05-28.28,13.54-12.49,32.58-7.9,34.11-7.51,23.48-2.58,30.01,10.23,31.81,18.1,1.37,6,2.73,10.87,4.26,15.32l7.32,21.19c6.4,18.39,23.77,24.22,23.95,24.28,7.23,2.27,12.62,4.59,15.87,6.13,5.07,2.41,9.06,6.11,11.54,10.7,5.25,9.71,.63,16.94-2.59,20.39-2.48,2.65-5.74,4.43-9.18,5.02-.78,.13-1.53,.2-2.26,.2Zm-29.78-39.36c2.77,0,9.73,1,14.71,10.21,1.49,2.74,2.39,5.88,2.69,9.32,.41,4.71,1.83,13.19,6.71,16.95,2.13,1.64,4.74,2.21,7.76,1.7,3.23-.55,6.29-2.23,8.62-4.72,3.71-3.97,7.15-10.53,2.44-19.23-2.38-4.41-6.22-7.96-11.09-10.27-3.22-1.53-8.56-3.82-15.74-6.08-.18-.06-18.02-6.03-24.59-24.9l-7.32-21.19c-1.55-4.48-2.91-9.38-4.29-15.42-1.73-7.56-8.03-19.86-30.81-17.32h-.1s-.09-.02-.09-.02c-.2-.05-19.64-5.32-33.26,7.25-7.5,6.92-10.85,17.4-8.75,27.34,.08,.36,.16,.73,.25,1.11h.07c1.94-5.9,7.68-20.2,19.07-25.39,.78-.35,1.64-.37,2.44-.04,.8,.33,1.43,.99,1.73,1.81,1.12,3.05,3.93,8.87,10.11,13.54l.1,.11c.11,.15,2.58,3.68-.89,8.93-.24,.72-2.63,8.06-.05,11.22,.99,1.21,2.65,1.67,4.95,1.34l.29-.04,9.63,12.32v.16c.03,.69,.82,16.87,21.3,21.03l22.91,.36s.44-.08,1.2-.08Z" fill="#263238"></path>
        </g>
        <g>
          <ellipse cx="470.38" cy="290.56" rx="9.81" ry="7.04" transform="translate(-6.71 569.98) rotate(-62.06)" fill="#fff"></ellipse>
          <path d="M468.28,300.33c-.96,0-1.88-.21-2.73-.66-3.67-1.95-4.5-7.62-1.83-12.64,2.66-5.02,7.82-7.52,11.49-5.57,1.81,.96,2.99,2.82,3.32,5.25,.32,2.36-.21,4.99-1.48,7.4-2.05,3.86-5.57,6.23-8.76,6.23Zm4.17-18.55c-2.82,0-5.98,2.18-7.86,5.71-2.4,4.53-1.77,9.6,1.42,11.29,3.19,1.69,7.74-.62,10.14-5.16h0c1.18-2.22,1.67-4.63,1.37-6.79-.29-2.1-1.28-3.69-2.79-4.5-.71-.38-1.48-.55-2.29-.55Z" fill="#263238"></path>
        </g>
        <g>
          <path d="M190.63,458.49c6.3-4.58,20.93-13.42,45.69-18.83l36.01,1.74s2.63-5.26,3.33-9.49c.1-.61,.75-.95,1.3-.66l8.44,4.35s4.07-9.58,10.75-9.87c0,0-8.21-10.26-18.6-16.56-1.29-.78-2.21-2.04-2.54-3.51-2.16-9.7-10.84-46.91-20.4-63,0,0-6.1-16.85-9.87-22.65l-2.9-.29-13.94,11.91-18.3-17.72-15.39,4.65s-29.33-5.52-35.43,42.69c0,0-7.12,47.11,25.18,95.85l6.67,1.39Z" fill="#4db4d7"></path>
          <path d="M190.63,458.99s-.07,0-.1-.01l-6.67-1.39c-.13-.03-.24-.1-.31-.21-32.04-48.34-25.33-95.73-25.26-96.2,2.33-18.44,8.29-31.27,17.7-38.13,8.62-6.28,17.04-5.19,18.2-5l15.28-4.61c.18-.05,.36,0,.49,.12l17.97,17.4,13.59-11.61c.1-.09,.23-.13,.38-.12l2.9,.29c.15,.02,.29,.1,.37,.23,3.76,5.79,9.68,22.07,9.92,22.76,9.46,15.91,18.02,52.29,20.42,63.06,.3,1.33,1.12,2.46,2.31,3.19,10.34,6.27,18.64,16.57,18.73,16.67,.12,.15,.14,.35,.06,.52-.08,.17-.25,.28-.43,.29-6.28,.27-10.27,9.48-10.31,9.57-.05,.13-.16,.23-.29,.27-.13,.05-.28,.04-.4-.03l-8.44-4.35c-.16-.08-.29-.04-.35,0-.12,.06-.2,.17-.22,.3-.71,4.25-3.27,9.42-3.38,9.63-.09,.18-.25,.3-.47,.28l-35.95-1.74c-24.47,5.36-38.97,14.03-45.44,18.73-.09,.06-.19,.1-.29,.1Zm-6.37-2.34l6.25,1.31c6.62-4.78,21.23-13.44,45.7-18.78,.04,0,.08-.02,.13-.01l35.68,1.73c.55-1.15,2.56-5.51,3.15-9.06,.07-.45,.36-.83,.76-1.03,.4-.2,.86-.2,1.26,0l7.97,4.11c.9-1.91,4.45-8.65,10-9.59-2.06-2.42-9.25-10.5-17.87-15.73-1.43-.87-2.41-2.22-2.77-3.83-2.39-10.73-10.92-46.98-20.34-62.85-.1-.25-6.02-16.56-9.73-22.43l-2.45-.25-13.78,11.77c-.2,.17-.49,.16-.67-.02l-18.09-17.51-15.11,4.56c-.08,.02-.16,.03-.24,.01-.09-.02-8.84-1.55-17.57,4.82-9.17,6.69-14.98,19.29-17.27,37.44-.07,.48-6.7,47.39,24.99,95.34Z" fill="#263238"></path>
        </g>
        <path d="M236.32,440.16s-.03,0-.05,0l-15.5-1.48c-2.95-.28-5.7-1.15-8.19-2.6-22.66-13.15-45.33-66.85-45.56-67.39-.11-.25,.01-.55,.27-.65,.26-.11,.55,.01,.65,.27,.23,.54,22.77,53.93,45.14,66.91,2.36,1.37,4.98,2.2,7.78,2.47l15.5,1.48c.27,.03,.48,.27,.45,.55-.03,.26-.24,.45-.5,.45Z" fill="#263238"></path>
        <path d="M276.93,431.73c-.08,0-.16-.02-.23-.06l-52.52-27.56c-2.17-1.12-3.83-3-4.65-5.31l-10.7-30.01c-.09-.26,.04-.55,.3-.64,.26-.1,.55,.04,.64,.3l10.7,30.01c.74,2.07,2.22,3.76,4.17,4.76l52.52,27.56c.24,.13,.34,.43,.21,.67-.09,.17-.26,.27-.44,.27Z" fill="#263238"></path>
        <path d="M255.49,441.03c-.16,0-.32-.08-.42-.23-.15-.23-.08-.54,.15-.69,8.66-5.58,8.77-14.59,8.77-14.68,0-.28,.22-.5,.5-.5h0c.28,0,.5,.22,.5,.5,0,.1-.11,9.63-9.23,15.52-.08,.05-.18,.08-.27,.08Z" fill="#263238"></path>
        <path d="M285.4,436.09c-.12,0-.24-.04-.34-.13l-19.25-17.66c-1.14-1.05-1.75-2.55-1.66-4.13,1.42-25.63-6.2-51.97-6.28-52.23-.08-.26,.07-.54,.34-.62,.27-.08,.54,.08,.62,.34,.08,.26,7.75,26.76,6.32,52.57-.07,1.28,.42,2.5,1.34,3.34l19.25,17.66c.2,.19,.22,.5,.03,.71-.1,.11-.23,.16-.37,.16Z" fill="#263238"></path>
        <path d="M277.27,428.25s-.08,0-.12-.02c-.27-.07-.43-.34-.36-.61,2.67-10.4,11.04-10.89,11.13-10.9,.32,0,.51,.2,.52,.48,.01,.28-.2,.51-.48,.52-.31,.02-7.72,.48-10.21,10.15-.06,.23-.26,.38-.48,.38Z" fill="#263238"></path>
        <g>
          <rect x="232.93" y="261.64" width="31.08" height="59.32" rx="15.54" ry="15.54" transform="translate(123.36 -70.55) rotate(21.39)" fill="#fff"></rect>
          <path d="M243.32,320.5c-1.98,0-3.96-.37-5.85-1.11-3.99-1.56-7.13-4.58-8.85-8.51s-1.8-8.28-.24-12.27l10.3-26.3c1.56-3.99,4.58-7.13,8.51-8.85,3.92-1.72,8.28-1.8,12.27-.24,3.99,1.56,7.13,4.58,8.85,8.51,1.71,3.93,1.8,8.28,.24,12.27l-10.3,26.3c-1.56,3.99-4.58,7.13-8.51,8.85-2.06,.9-4.24,1.35-6.42,1.35Zm10.29-57.39c-2.05,0-4.09,.42-6.02,1.27-3.68,1.61-6.51,4.55-7.98,8.29l-10.3,26.3c-1.46,3.74-1.39,7.83,.22,11.51,1.61,3.68,4.55,6.51,8.29,7.98,3.74,1.47,7.83,1.39,11.51-.22,3.68-1.61,6.51-4.55,7.98-8.29l10.3-26.3c1.47-3.74,1.39-7.83-.22-11.51-1.61-3.68-4.55-6.51-8.29-7.98-1.78-.7-3.63-1.04-5.49-1.04Z" fill="#263238"></path>
        </g>
        <g>
          <path d="M244.16,276.44s13.94-2.32,18.88-10.46c0,0,8.93,5.18,5.04,17.84l-10.3,26.3s-3.46,9.01-13.04,9.88c0,0,6.68,13.07,9.87,22.65,0,0,11.04-19.75,14.81-48.5,0,0,7.84-31.95-10.46-42.69,0,0-31.95-19.46-46.47,6.1,0,0-.98,.59-9.01,19.52-4.82,11.37-10.72,22.25-17.64,32.49-3.58,5.3-7.29,10.6-9.95,13.92,0,0,13.97-10.95,26.07-1.55,2.18,1.7,3.88,3.93,5.11,6.41,2.3,4.64,8.85,14.62,21.68,11.7,0,0,11.04,.58,13.94-24.69l1.45-38.92Z" fill="#fff"></path>
          <path d="M254.5,343.89l-.36-1.07c-3.15-9.44-9.78-22.45-9.84-22.58l-.34-.66,.74-.07c9.15-.83,12.59-9.48,12.62-9.57l10.3-26.3c3.24-10.56-2.78-15.77-4.43-16.96-4.77,7.21-16.2,9.73-18.54,10.18l-1.44,38.52c-2.8,24.4-13.07,25.17-14.35,25.17-.01,0-.03,0-.04,0-13.19,2.97-19.9-7.38-22.18-11.98-1.27-2.57-2.94-4.67-4.97-6.24-11.64-9.04-25.32,1.45-25.46,1.55l-3.38,2.64,2.68-3.35c2.31-2.88,5.65-7.56,9.93-13.89,6.86-10.15,12.78-21.05,17.59-32.4,4.82-11.36,8.07-18.4,9.04-19.59,3.76-6.61,9.02-10.83,15.64-12.55,14.7-3.81,31.35,6.19,31.51,6.29,18.4,10.81,10.76,42.92,10.68,43.24-3.73,28.46-14.75,48.43-14.86,48.63l-.55,.99Zm-8.99-23.47c1.32,2.63,6.35,12.83,9.2,20.98,2.25-4.39,10.97-22.61,14.22-47.31,.09-.37,7.55-31.76-10.21-42.2-.17-.1-16.47-9.88-30.75-6.18-6.35,1.65-11.4,5.71-15.03,12.09l-.12,.15c-.24,.3-1.8,2.67-8.87,19.32-4.84,11.41-10.79,22.37-17.68,32.57-3.29,4.87-6.03,8.77-8.17,11.63,4.65-2.68,14.99-7.08,24.19,.07,2.15,1.67,3.91,3.88,5.25,6.59,2.17,4.39,8.58,14.29,21.12,11.43l.07-.02h.07c.1,.03,10.61,.19,13.42-24.24l1.46-39.29,.4-.07c.14-.02,13.77-2.38,18.53-10.22l.25-.42,.42,.25c.09,.05,9.22,5.53,5.27,18.42l-10.31,26.33c-.03,.09-3.5,8.85-12.74,10.12Z" fill="#263238"></path>
        </g>
        <path d="M277.76,494.96c-.11,0-.21-.03-.3-.1-33.75-25.92-99.68-38.94-112.55-41.28-2.03-.37-3.99-1.21-5.67-2.44-29.08-21.23-50.45-16.89-50.66-16.84-.26,.06-.54-.11-.59-.38-.06-.27,.11-.54,.38-.59,.22-.04,21.99-4.5,51.46,17.01,1.56,1.14,3.37,1.92,5.25,2.26,12.91,2.35,79.05,15.41,112.98,41.47,.22,.17,.26,.48,.09,.7-.1,.13-.25,.2-.4,.2Z" fill="#263238"></path>
        <g>
          <path d="M343.13,613.92c-17.93,13.21-32.4-16.04-32.4-16.04l.98-5.2c.6-3.19,.4-6.48-.57-9.58l-3.67-11.66c18.74,3.76,25.9-3.45,25.9-3.45,.94,13.21,9.77,45.93,9.77,45.93Z" fill="#fff"></path>
          <path d="M333.64,617.85c-1.15,0-2.3-.14-3.46-.42-11.62-2.82-19.56-18.65-19.9-19.33l-.07-.15,1.01-5.36c.58-3.1,.39-6.33-.56-9.34l-3.92-12.47,.83,.17c18.21,3.65,25.38-3.24,25.45-3.31l.77-.77,.08,1.09c.93,13.01,9.66,45.51,9.75,45.84l.09,.33-.27,.2c-3.18,2.34-6.46,3.52-9.79,3.52Zm-22.38-20.04c.84,1.62,8.58,16.08,19.17,18.65,4.11,1,8.2,.08,12.14-2.74-.91-3.41-8.42-31.82-9.61-44.73-2.28,1.7-9.7,5.91-24.75,3.1l3.42,10.86c1,3.17,1.2,6.56,.59,9.82l-.95,5.03Z" fill="#263238"></path>
        </g>
        <g>
          <path d="M370.25,660.91c-.9,2.51-3.16,4.26-5.79,4.71-23.65,3.98-37.23-13.46-37.23-13.46-9.18-11.15-24.7-27.32-24.7-27.32-5.68-5.9-1.53-12.46-1.53-12.46,2.85-11.36,9.73-14.5,9.73-14.5,0,0,14.47,29.26,32.4,16.04l12.85,24.11c.36,.68,.8,1.3,1.32,1.87l11.21,12.31c1.19,1.3,2,2.93,2.19,4.68,.17,1.56-.05,2.9-.45,4.02Z" fill="#fff"></path>
          <path d="M357.58,666.7c-19.41,0-30.62-14.08-30.74-14.23-9.06-11-24.52-27.12-24.67-27.28-5.56-5.77-2.08-12.24-1.64-13,2.88-11.41,9.7-14.63,9.99-14.76l.44-.2,.21,.43c.08,.16,8.08,16.09,19.24,18.8,4.21,1.02,8.39,.03,12.42-2.94l.47-.34,13.12,24.62c.34,.64,.76,1.23,1.25,1.77l11.21,12.32c1.32,1.45,2.12,3.17,2.32,4.96,.16,1.48,0,2.9-.48,4.24h0c-.93,2.62-3.3,4.55-6.18,5.03-2.42,.41-4.75,.59-6.96,.59Zm-47.06-68.14c-1.51,.9-6.69,4.58-9.04,13.93l-.06,.15c-.16,.25-3.87,6.31,1.47,11.85,.16,.16,15.64,16.31,24.73,27.35,.14,.18,13.7,17.16,36.76,13.28,2.52-.42,4.59-2.1,5.4-4.38h0c.43-1.19,.57-2.47,.42-3.79-.17-1.59-.89-3.11-2.06-4.4l-11.21-12.32c-.54-.59-1.01-1.26-1.39-1.97l-12.58-23.6c-4.14,2.89-8.44,3.82-12.78,2.77-10.66-2.59-18.22-16.12-19.66-18.86Z" fill="#263238"></path>
        </g>
        <path d="M359.71,657.07c-15.2,0-27.43-9.32-32.61-14.01-1.67-1.51-3.09-3.22-4.21-5.07-1.01-1.67-2.03-3.25-3.02-4.68-2.49-3.58-5.83-6.87-9.95-9.77-6.23-4.4-9.26-10.69-9.38-10.95-.12-.25-.01-.55,.24-.67,.25-.12,.55-.01,.67,.24,.03,.06,3.05,6.32,9.05,10.57,4.21,2.97,7.64,6.34,10.19,10.02,1.01,1.45,2.04,3.04,3.06,4.73,1.07,1.77,2.42,3.4,4.02,4.84,6.23,5.63,22.84,18.1,42.38,12.2,.26-.08,.54,.07,.62,.33,.08,.26-.07,.54-.33,.62-3.69,1.11-7.28,1.59-10.72,1.59Z" fill="#263238"></path>
        <path d="M382.81,242.46h-8.05c-1.46,0-2.65-1.19-2.65-2.65v-45.33c0-1.46,1.19-2.65,2.65-2.65h34.56c1.72,0,3.13-1.4,3.13-3.13,0-.28,.22-.5,.5-.5s.5,.22,.5,.5c0,2.28-1.85,4.13-4.13,4.13h-34.56c-.91,0-1.65,.74-1.65,1.65v45.33c0,.91,.74,1.65,1.65,1.65h8.05c.28,0,.5,.22,.5,.5s-.22,.5-.5,.5Z" fill="#263238"></path>
        <path d="M402.7,212.92c-.28,0-.5-.22-.5-.5v-8.01c0-.89-.72-1.61-1.61-1.61-4.85-.23-8.38-.06-10.95,.07-3.32,.16-5.15,.25-6.2-.77-1.19-1.16-1.13-3.47-1.01-8.54l.03-1.29c0-.28,.26-.47,.51-.49,.28,0,.49,.24,.49,.51l-.03,1.3c-.11,4.62-.17,6.94,.71,7.8,.74,.72,2.42,.64,5.46,.49,2.59-.13,6.14-.3,11.02-.07h0c1.42,0,2.59,1.17,2.59,2.61v8.01c0,.28-.22,.5-.5,.5Z" fill="#263238"></path>
        <path d="M402.7,232.76c-.28,0-.5-.22-.5-.5v-7.89c0-.82-.67-1.48-1.48-1.48-.04,0-.07,0-.1-.01-.45-.1-1.33-.04-2.26,.01-2.11,.13-4.51,.28-5.68-.86-.46-.44-.67-1.03-.65-1.75-.07-.51-.04-1.29,0-2.2,.09-1.84,.2-4.14-.74-5.1-.33-.34-.81-.5-1.39-.48-.46,.04-1.07,.01-1.71,0-1.63-.06-3.66-.13-4.54,.74-.33,.33-.49,.78-.47,1.39,.23,4.66-.02,6.57-.99,7.54-.92,.92-2.32,.85-4.43,.74-1.31-.07-2.95-.15-4.94-.02-.33,.01-.51-.19-.53-.47-.02-.28,.19-.51,.47-.53,2.05-.13,3.72-.04,5.06,.02,1.85,.09,3.07,.16,3.68-.45,.72-.72,.91-2.56,.7-6.8-.02-.9,.24-1.62,.77-2.14,1.19-1.17,3.46-1.09,5.28-1.02,.61,.02,1.19,.04,1.62,0,.92-.01,1.63,.24,2.15,.78,1.25,1.27,1.12,3.81,1.03,5.85-.04,.82-.08,1.6-.01,2.1-.01,.51,.1,.84,.35,1.08,.85,.83,3.2,.68,4.92,.58,1.01-.06,1.89-.12,2.47,0,1.35,.03,2.43,1.13,2.43,2.48v7.89c0,.28-.22,.5-.5,.5Z" fill="#263238"></path>
        <path d="M382.61,248.64h-16.55c-.28,0-.5-.22-.5-.5s.22-.5,.5-.5h16.55c1.37,0,2.65-.54,3.61-1.54,.97-1,1.47-2.31,1.42-3.7,0-2.69-2.17-4.86-4.84-4.86-1.91,.04-3.52-.82-4.44-2.4-1.02-1.75-1.02-4.11,0-5.86,.92-1.58,2.54-2.42,4.44-2.4,0,0,11.67,0,11.79,0,3.35,.29,3.47,2.87,3.58,5.14,.13,2.71,.25,5.27,4.61,5.65,2.52,0,4.6-2.08,4.6-4.64v-30.58c.04-2.25,.72-4.03,2.03-5.28,2.76-2.64,7.8-2.5,11.84-2.39,.6,.02,1.19,.03,1.74,.04,.28,0,.5,.23,.49,.51,0,.28-.23,.48-.51,.49-.56,0-1.15-.02-1.75-.04-3.86-.11-8.66-.24-11.12,2.11-1.12,1.07-1.69,2.57-1.72,4.56v30.57c0,3.11-2.53,5.64-5.64,5.64-5.28-.45-5.44-3.86-5.57-6.6-.12-2.54-.3-3.99-2.62-4.19v-.09c-.68,.09-2.26,.09-5.86,.09h-5.9s-.05,0-.08,0c-1.54,0-2.77,.68-3.49,1.91-.83,1.43-.84,3.43,0,4.86,.73,1.25,2.04,1.91,3.57,1.9,3.23,0,5.85,2.62,5.85,5.84,.06,1.64-.55,3.21-1.71,4.41-1.15,1.19-2.69,1.84-4.33,1.84Z" fill="#4dc98b"></path>
        <path d="M421.38,198.08c-.15,0-.3-.07-.4-.2l-1.61-2.19c-.15-.2-.12-.48,.05-.66l1.93-1.87c.2-.19,.52-.19,.71,.01,.19,.2,.19,.52-.01,.71l-1.62,1.56,1.35,1.84c.16,.22,.12,.54-.11,.7-.09,.07-.19,.1-.3,.1Z" fill="#263238"></path>
        <path d="M424.66,198.08c-.15,0-.3-.07-.4-.2l-1.61-2.19c-.15-.2-.12-.48,.05-.66l1.93-1.87c.2-.19,.52-.19,.71,.01,.19,.2,.19,.52-.01,.71l-1.62,1.56,1.35,1.84c.16,.22,.12,.54-.11,.7-.09,.07-.19,.1-.3,.1Z" fill="#263238"></path>
        <path d="M422.98,197.97c-.15,0-.3-.07-.4-.2l-1.61-2.19c-.15-.2-.12-.48,.05-.66l1.93-1.87c.2-.19,.52-.19,.71,.01,.19,.2,.19,.52-.01,.71l-1.62,1.56,1.35,1.84c.16,.22,.12,.54-.11,.7-.09,.07-.19,.1-.3,.1Z" fill="#263238"></path>
        <path d="M367.69,250.98c-.16,0-.32-.08-.42-.23l-1.54-2.37c-.13-.21-.1-.48,.08-.64l1.86-1.69c.21-.19,.52-.17,.71,.03,.19,.2,.17,.52-.03,.71l-1.55,1.41,1.31,2.01c.15,.23,.08,.54-.15,.69-.08,.06-.18,.08-.27,.08Z" fill="#263238"></path>
        <path d="M369.29,250.87c-.15,0-.3-.07-.4-.2l-1.61-2.19c-.15-.2-.12-.48,.05-.66l1.93-1.87c.2-.19,.52-.19,.71,.01,.19,.2,.19,.52-.01,.71l-1.62,1.56,1.35,1.84c.16,.22,.12,.54-.11,.7-.09,.07-.19,.1-.3,.1Z" fill="#263238"></path>
        <path d="M370.89,250.9c-.15,0-.3-.07-.4-.2l-1.61-2.19c-.15-.2-.12-.48,.05-.66l1.93-1.87c.2-.19,.52-.19,.71,.01,.19,.2,.19,.52-.01,.71l-1.62,1.56,1.35,1.84c.16,.22,.12,.54-.11,.7-.09,.07-.19,.1-.3,.1Z" fill="#263238"></path>
        <path d="M412.72,242.66h-9.84c-.28,0-.5-.22-.5-.5s.22-.5,.5-.5h9.84c.28,0,.5,.22,.5,.5s-.22,.5-.5,.5Z" fill="#263238"></path>
        <path d="M392.79,252.59c-.28,0-.5-.22-.5-.5v-17.8c0-.85-.69-1.55-1.55-1.55h-7.88c-.28,0-.5-.22-.5-.5s.22-.5,.5-.5h7.88c1.4,0,2.55,1.14,2.55,2.55v17.8c0,.28-.22,.5-.5,.5Z" fill="#263238"></path>
        <g>
          <path d="M245.76,231.36c1.25-5.02,15.18-20.65,22.72-4.76,6.01,11.62-6.9,38.44,23.82,47.06,9.32,2.62,19.38,1.66,27.75-3.19,9.61-5.57,19.5-17.31,20.57-41.98,0,0,.72-52.94-44.8-50.07,0,0-41.92,1.2-50.07,52.94Z" fill="#fff"></path>
          <path d="M302.51,275.57c-3.44,0-6.92-.47-10.33-1.43-21.75-6.1-22-21.39-22.19-33.67-.08-5.25-.17-10.22-1.94-13.64-2.27-4.78-5.26-7.01-8.92-6.65-6.21,.62-12.14,8.34-12.88,11.3l-.98-.2c8.12-51.56,50.13-53.35,50.55-53.37,12.39-.78,22.56,2.5,30.18,9.75,15.31,14.57,15.14,40.57,15.14,40.83-1.12,25.73-11.94,37.27-20.82,42.41-5.32,3.08-11.5,4.67-17.81,4.67Zm-42.65-56.42c2.75,0,6.3,1.39,9.08,7.24,1.87,3.62,1.96,8.69,2.04,14.07,.2,12.57,.43,26.83,21.46,32.73,9.4,2.64,19.37,1.49,27.37-3.14,12.42-7.2,19.45-21.57,20.32-41.57,0-.24,.17-25.81-14.83-40.08-7.41-7.05-17.31-10.23-29.44-9.47-.12,0-10.54,.38-21.8,7.02-9.93,5.85-22.47,17.87-27.21,42.08,2.41-3.68,7.14-8.33,12.17-8.83,.27-.03,.54-.04,.83-.04Z" fill="#263238"></path>
        </g>
        <path d="M300.87,248.12c-2.71,0-5.45-.68-7.96-2.1l-10.95-6.19c-1.62-.91-2.75-2.41-3.18-4.22-.44-1.81-.11-3.66,.91-5.21l2.6-3.95c-.12-.42-.2-.85-.24-1.27-2.72,1.03-5.12,1.99-6.96,2.76-.26,.11-.55-.01-.65-.27-.11-.25,.01-.55,.27-.65,.93-.39,3.68-1.53,7.34-2.92,.12-1.59,.83-3.11,2.08-4.29,1.07-1.02,2.37-1.62,3.73-1.79l2.7-4.09c2.38-3.61,5.44-6.63,9.09-8.97l6.35-4.07c2.7-1.73,6.24-1.28,8.43,1.06,8.86,9.49,11.56,23.39,6.93,35.5l7.37,2.39c.26,.08,.41,.37,.32,.63s-.36,.41-.63,.32l-7.4-2.4s-.03-.01-.05-.02c-1.31,2.58-4.15,4.04-6.99,3.58-.1-.02-.2-.03-.3-.05-3.14,4-7.9,6.18-12.77,6.18Zm-18.15-20.5l-2.2,3.33c-.87,1.32-1.14,2.89-.77,4.42,.37,1.53,1.33,2.81,2.71,3.58l10.95,6.19c6.42,3.63,14.44,2.09,19.09-3.4-2.15-.35-4.12-.68-5.93-.99l-3.8,3.62c-.62,.59-1.34,1.05-2.14,1.36-2.36,.93-4.9,.49-6.81-1.18-1.91-1.67-2.68-4.14-2.06-6.6v-.02c-4.99-1.13-5.26-1.6-5.41-1.84-.13-.21-.5-.84-3.62-8.48Zm10.01,10.54v.05c-.53,2.09,.12,4.18,1.74,5.6,1.62,1.42,3.78,1.79,5.78,1,.68-.27,1.29-.66,1.82-1.16l3.27-3.11c-5.81-1.01-9.82-1.78-12.6-2.39Zm21.57,2.87c2.28,.29,4.51-.87,5.62-2.84-2.1-.25-4.22,.7-5.41,2.53-.07,.11-.14,.21-.21,.31Zm-6.83-1.13c1.78,.3,3.68,.62,5.73,.96,.16-.22,.32-.45,.47-.68,1.45-2.25,4.1-3.38,6.68-2.94,4.55-11.83,1.93-25.35-6.68-34.58-1.86-1.99-4.87-2.37-7.16-.9l-6.35,4.06c-2.91,1.86-5.43,4.18-7.52,6.89,.71-.33,1.48-.55,2.3-.61l14.22-1.17c2.58-.21,5.05,1.1,6.32,3.35l4.07,7.2c1.5,2.65,1,5.97-1.2,8.07l-10.88,10.35Zm-14.5-2.71c3.04,.65,7.37,1.48,13.27,2.5l11.42-10.87c1.87-1.78,2.29-4.6,1.02-6.85l-4.07-7.2c-1.08-1.91-3.19-3.02-5.37-2.84l-14.22,1.17c-2.73,.22-4.87,2.34-5.14,5.01,.55,.11,1.1,.29,1.63,.54l.72,.34c.58,.27,1.12,.61,1.61,.99,9.57-3.02,19.52-5.18,21.69-2.05,1.4,2.02-.42,5.68-5.59,11.19-6.56,6.99-11.73,9.79-15.38,8.31-.52-.21-1-.51-1.44-.87l-.16,.63Zm-9.59-10.58c.02,.06,.04,.11,.07,.17,2.7,6.62,3.53,8.45,3.75,8.81,.27,.25,1.75,.71,4.8,1.39l.31-1.24c-2.35-2.78-3.21-7.95-3.42-13.02-1.3,.45-2.59,.91-3.83,1.36l-1.67,2.54Zm10.02,8.85c.46,.46,.96,.81,1.54,1.04,3.23,1.31,8.02-1.4,14.27-8.06,5.88-6.27,6.24-8.86,5.49-9.93-1.75-2.51-10.68-.62-19.98,2.28,1.07,1.12,1.82,2.54,2.14,4.12,.53,2.62-.19,5.26-1.96,7.25-.61,.68-1.04,1.5-1.26,2.39l-.23,.91Zm-3.53-13.09c.16,4.29,.8,9.27,2.74,12.12l.05-.19c.26-1.04,.77-2.01,1.49-2.81,1.57-1.75,2.2-4.08,1.73-6.39-.32-1.56-1.1-2.94-2.24-3.98-1.26,.4-2.52,.82-3.76,1.24Zm-6.86,2.45c0,.15,.02,.31,.04,.46l.42-.63c-.15,.06-.3,.11-.46,.17Zm4.03-5.6c-.82,.25-1.59,.69-2.25,1.33-.93,.88-1.51,1.99-1.71,3.16,.43-.16,.88-.33,1.33-.5l2.63-3.99Zm1.35-.23l-2.4,3.65c.92-.33,1.88-.67,2.86-1.01-.02-.89-.02-1.78-.01-2.64-.15,0-.29,0-.44,0Zm1.44,.13c0,.68,0,1.41,0,2.17,.92-.31,1.86-.62,2.8-.93-.27-.17-.55-.33-.84-.47l-.72-.34c-.41-.19-.82-.33-1.24-.43Z" fill="#263238"></path>
        <path d="M372.91,256.14c-.28,0-.5-.22-.5-.5,0-1.96,1.6-3.56,3.56-3.56h34.1c1.41,0,2.56-1.15,2.56-2.56v-40.88c0-3.05,2.48-5.53,5.53-5.53,.28,0,.5,.22,.5,.5s-.22,.5-.5,.5c-2.5,0-4.53,2.03-4.53,4.53v40.88c0,1.96-1.6,3.56-3.56,3.56h-34.1c-1.41,0-2.56,1.15-2.56,2.56,0,.28-.22,.5-.5,.5Z" fill="#263238"></path>
        <path d="M201.98,322.43c-.16,0-.31-.07-.41-.21-.16-.23-.1-.54,.12-.7,7.95-5.52,17.35-42.29,17.44-42.66,2.84-9.91,7.83-16.24,14.83-18.84,13.21-4.9,28.69,5.11,29.34,5.54,.23,.15,.29,.46,.14,.69-.15,.23-.46,.3-.69,.14-.16-.1-15.72-10.16-28.45-5.44-6.68,2.48-11.46,8.59-14.21,18.16-.38,1.51-9.58,37.48-17.84,43.22-.09,.06-.19,.09-.29,.09Z" fill="#263238"></path>
        <path d="M336.09,547.28s-.02,0-.04,0c-.28-.02-.48-.26-.46-.53,2.37-33.37-4.84-91.32-4.91-91.91-.03-.27,.16-.52,.43-.56,.27-.04,.52,.16,.56,.43,.07,.58,7.29,58.63,4.92,92.1-.02,.26-.24,.46-.5,.46Z" fill="#fff"></path>
        <g>
          <path d="M468.17,238.8s-8.29,1.24-19.05,8.82" fill="#fff"></path>
          <path d="M449.4,248.04l-.58-.82c10.74-7.56,18.92-8.86,19.27-8.91l.15,.99c-.08,.01-8.31,1.32-18.84,8.74Z" fill="#263238"></path>
        </g>
        <path d="M554.44,358.45c-.21,0-.41-.14-.48-.35-12.22-39.1-33.94-43.4-42.71-43.43-4.33-.02-8.36-.56-11.97-1.62-21.94-6.4-21.79-22.34-21.79-22.5,0-.28,.22-.48,.51-.49,.28,0,.49,.24,.49,.51,0,.15-.1,15.33,21.07,21.51,3.52,1.03,7.46,1.56,11.7,1.58,8.99,.04,31.24,4.41,43.67,44.14,.08,.26-.06,.54-.33,.63-.05,.02-.1,.02-.15,.02Z" fill="#263238"></path>
        <path d="M494.07,311.11c-.22,0-.43-.15-.48-.38-14.67-57.48-37.91-63.88-38.15-63.94-.27-.07-.43-.34-.36-.61,.07-.27,.33-.43,.61-.36,.97,.24,24.06,6.61,38.87,64.66,.07,.27-.09,.54-.36,.61-.04,.01-.08,.02-.12,.02Z" fill="#263238"></path>
        <path d="M498.91,287.5c-.25,0-.46-.18-.5-.44-4.22-32.96-28.05-47.69-28.29-47.83-.24-.14-.31-.45-.17-.69,.14-.24,.45-.31,.69-.17,.24,.15,24.48,15.11,28.77,48.56,.04,.27-.16,.52-.43,.56-.02,0-.04,0-.06,0Z" fill="#263238"></path>
        <path d="M473.19,348.18c-.11,0-.23-.04-.32-.12l-2.75-2.29c-5.01-3.74,.04-11.11,.09-11.18,.16-.23,.47-.28,.7-.12,.23,.16,.28,.47,.12,.7-.05,.07-4.55,6.65-.29,9.83l2.77,2.31c.21,.18,.24,.49,.06,.7-.1,.12-.24,.18-.38,.18Z" fill="#fff"></path>
        <path d="M519.95,379.93c-1.49,0-5.14-.47-8.47-4.57-.17-.21-.14-.53,.07-.7,.21-.17,.53-.14,.7,.07,3.84,4.74,8.05,4.2,8.23,4.17,.27-.03,.53,.15,.57,.42,.04,.27-.15,.53-.42,.57-.04,0-.28,.04-.68,.04Z" fill="#263238"></path>
        <g>
          <ellipse cx="259.46" cy="293.51" rx="2.59" ry="1.64" transform="translate(-121.41 385.21) rotate(-62.06)" fill="#263238"></ellipse>
          <path d="M258.77,296.43c-.27,0-.52-.06-.76-.19-.54-.28-.88-.88-.93-1.62-.05-.67,.12-1.42,.49-2.12,.37-.69,.89-1.26,1.48-1.6,.65-.37,1.33-.42,1.87-.13,1.06,.56,1.26,2.21,.44,3.74h0c-.63,1.19-1.66,1.92-2.58,1.92Zm1.38-4.84c-.23,0-.47,.11-.61,.19-.42,.24-.81,.67-1.09,1.2-.28,.52-.42,1.1-.38,1.57,.02,.23,.09,.65,.41,.81,.48,.25,1.41-.22,1.99-1.31,.58-1.09,.45-2.13-.03-2.39-.09-.05-.19-.07-.29-.07Z" fill="#263238"></path>
        </g>
        <path d="M265.13,289.87c-.17,0-.33-.09-.43-.24-2.38-3.94-7.36-2.46-7.41-2.45-.26,.08-.54-.07-.62-.33-.08-.26,.07-.54,.33-.62,.06-.02,5.79-1.71,8.56,2.89,.14,.24,.07,.54-.17,.69-.08,.05-.17,.07-.26,.07Z" fill="#263238"></path>
        <path d="M260.85,309.12c-.7,0-1.52-.14-2.46-.42-.26-.08-.42-.36-.34-.62,.08-.27,.36-.42,.62-.34,1.54,.46,2.72,.5,3.34,.12,.26-.16,.42-.4,.49-.72,.12-.6,.09-1.27-.09-2.1-.46-2.17,.11-8.15,.13-8.4,.03-.27,.28-.47,.55-.45,.27,.03,.48,.27,.45,.55,0,.06-.58,6.07-.15,8.09,.21,.97,.24,1.76,.09,2.5-.12,.6-.45,1.08-.95,1.39-.44,.27-1,.4-1.68,.4Z" fill="#263238"></path>
        <path d="M257.16,311.88c-.18,0-.36-.1-.45-.28-.07-.13-1.68-3.27-5.2-2.48-.27,.06-.54-.11-.6-.38-.06-.27,.11-.54,.38-.6,4.28-.96,6.29,2.97,6.31,3.01,.12,.25,.02,.55-.23,.67-.07,.04-.15,.05-.22,.05Z" fill="#263238"></path>
        <g>
          <ellipse cx="444.43" cy="281.97" rx="2.13" ry="1.35" transform="translate(146.88 716.12) rotate(-87.97)" fill="#263238"></ellipse>
          <path d="M444.38,284.6s-.03,0-.05,0c-1.03-.04-1.8-1.22-1.75-2.69,.05-1.47,.89-2.65,1.94-2.56,.53,.02,1.02,.35,1.34,.9,.29,.49,.43,1.13,.41,1.79-.05,1.45-.88,2.56-1.89,2.56Zm.09-4.25c-.4,0-.86,.67-.89,1.6-.03,.93,.39,1.64,.79,1.65h.01c.4,0,.86-.67,.89-1.6,.02-.47-.08-.92-.27-1.25-.15-.25-.34-.4-.52-.41h-.01Z" fill="#263238"></path>
        </g>
        <g>
          <path d="M433.96,281.97c0,1.17-.6,2.13-1.35,2.13s-1.35-.95-1.35-2.13c0-1.17,.6-2.13,1.35-2.13s1.35,.95,1.35,2.13Z" fill="#263238"></path>
          <path d="M432.61,284.6c-1.04,0-1.85-1.15-1.85-2.63s.81-2.63,1.85-2.63,1.85,1.15,1.85,2.63-.81,2.63-1.85,2.63Zm0-4.25c-.4,0-.85,.7-.85,1.63s.45,1.63,.85,1.63,.85-.7,.85-1.63-.45-1.63-.85-1.63Z" fill="#263238"></path>
        </g>
        <path d="M430.08,278.8c-.09,0-.19-.03-.28-.08-.23-.15-.29-.46-.14-.69,.06-.09,1.49-2.22,3.59-2.36,1.2-.08,2.33,.49,3.37,1.69,.18,.21,.16,.52-.05,.71s-.52,.16-.71-.05c-.83-.95-1.69-1.41-2.54-1.35-1.6,.1-2.81,1.9-2.82,1.92-.1,.15-.26,.22-.42,.22Z" fill="#263238"></path>
        <path d="M440.48,278.8c-.09,0-.19-.03-.28-.08-.23-.15-.29-.46-.14-.69,.06-.09,1.49-2.22,3.58-2.36,1.18-.08,2.32,.49,3.37,1.69,.18,.21,.16,.52-.05,.71-.21,.18-.52,.16-.71-.05-.83-.95-1.69-1.41-2.54-1.35-1.6,.1-2.81,1.9-2.82,1.92-.1,.15-.26,.22-.42,.22Z" fill="#263238"></path>
        <path d="M437.95,293.98c-.06,0-.11,0-.17-.03-3.44-1.25-3.91-3.01-3.71-4.26,.13-.78,.62-1.36,1.12-1.89,2-2.16,1.93-4.65,1.9-5.71,0-.21,0-.36,0-.45,.03-.27,.27-.47,.55-.44,.27,.03,.47,.27,.44,.55,0,.06,0,.17,0,.32,.03,1.08,.12,3.96-2.16,6.42-.41,.44-.78,.87-.86,1.38-.26,1.59,1.52,2.59,3.06,3.15,.26,.09,.39,.38,.3,.64-.07,.2-.27,.33-.47,.33Z" fill="#263238"></path>
        <path d="M469.04,293.75c-.08,0-.15-.02-.22-.05-.25-.12-.35-.42-.22-.67l2.67-5.36c.12-.25,.42-.35,.67-.22,.25,.12,.35,.42,.22,.67l-2.67,5.36c-.09,.18-.26,.28-.45,.28Z" fill="#263238"></path>
        <g>
          <path d="M449.78,312.85l6.36,6.72s7.67-8.94,7.05-17.69c0,0-5.45,9.11-13.41,10.97Z" fill="#263238"></path>
          <path d="M456.16,320.32l-7.34-7.76,.85-.2c7.67-1.79,13.04-10.65,13.1-10.74l.81-1.36,.11,1.58c.63,8.85-6.85,17.68-7.17,18.05l-.36,.42Zm-5.44-7.2l5.39,5.7c1.37-1.74,6.32-8.46,6.6-15.31-1.8,2.54-6.14,7.86-11.99,9.61Z" fill="#263238"></path>
        </g>
      </g>
      <path d="M439.51,300.33c-3.08,0-5.24-1.53-5.27-1.55-.22-.16-.27-.47-.11-.7,.16-.22,.47-.27,.7-.11,.17,.13,4.36,3.06,9.33-.02,.23-.14,.54-.07,.69,.16,.15,.23,.07,.54-.16,.69-1.85,1.15-3.63,1.53-5.17,1.53Z" fill="#263238"></path>
    </g>
    <g id="e">
      <path d="M756.29,386.35c6.33-4.65,12.27-9.83,17.74-15.48,7.45-8.01,3.43-21.2,3.43-21.2,0,0-5.14,4.58-13.17,12.61-8.03,8.03-8.03,13.75-8.03,13.75l.03,10.32Z" fill="#4dc98b"></path>
      <path d="M767.89,422.1c6.34-4.64,12.27-9.8,17.75-15.43,7.45-8.03,3.44-21.21,3.44-21.21,0,0-5.17,4.58-13.18,12.61-8.01,8.03-8.01,13.76-8.01,13.76v10.27Z" fill="#4dc98b"></path>
      <path d="M757.86,396.03c-6.8-3.96-13.26-8.48-19.3-13.51-8.26-7.17-5.66-20.69-5.66-20.69,0,0,5.62,4.02,14.44,11.15,8.82,7.12,9.43,12.83,9.43,12.83l1.09,10.23Z" fill="#4dc98b"></path>
      <path d="M773.08,438.05c-7.2-3.22-14.13-7.04-20.69-11.41-8.96-6.28-7.8-20.01-7.8-20.01,0,0,6.02,3.34,15.54,9.56,9.52,6.22,10.73,11.82,10.73,11.82l2.23,10.04Z" fill="#4dc98b"></path>
      <path d="M768.16,484.46c-6.33-4.65-12.27-9.83-17.74-15.48-7.45-8.03-3.44-21.21-3.44-21.21,0,0,5.16,4.58,13.18,12.61,8.03,8.03,8.03,13.76,8.03,13.76l-.03,10.32Z" fill="#4dc98b"></path>
      <path d="M769.71,495.58c5.62-5.51,10.76-11.48,15.39-17.84,6.3-9,.38-21.48,.38-21.48,0,0-4.52,5.25-11.25,14.35s-5.91,14.78-5.91,14.78l1.39,10.18Z" fill="#4dc98b"></path>
      <path d="M776.2,529.04c-6.33-4.65-12.27-9.83-17.74-15.48-7.45-8.03-3.44-21.2-3.44-21.2,0,0,5.16,4.6,13.18,12.61,8.03,8.01,8.03,13.75,8.03,13.75l-.03,10.32Z" fill="#4dc98b"></path>
      <path d="M768.28,558.93c-4.97-6.1-9.42-12.62-13.3-19.47-5.17-9.65,2.04-21.39,2.04-21.39,0,0,3.81,5.74,9.56,15.54,5.75,9.8,4.27,15.34,4.27,15.34l-2.57,9.98Z" fill="#4dc98b"></path>
      <path d="M763.01,576.74c-.05,0-.1,0-.15-.02-.26-.08-.41-.37-.32-.63,.11-.34,11.11-34.43,13.2-46.96,1.2-7.2-.77-13.87-3.04-21.6-1.72-5.82-3.66-12.42-4.69-20.53-1.21-9.57,.44-19,2.04-28.13,1.57-8.94,3.04-17.39,1.47-24.7-1.5-6.99-4.03-12.94-6.7-19.24-2.9-6.83-5.9-13.89-7.58-22.53-1.05-5.86-1.79-11.85-2.2-17.8-.02-.28,.19-.51,.46-.53,.26-.03,.51,.19,.53,.46,.4,5.91,1.14,11.86,2.18,17.68,1.66,8.53,4.63,15.54,7.51,22.32,2.7,6.34,5.24,12.33,6.76,19.42,1.61,7.5,.12,16.04-1.47,25.08-1.58,9.05-3.22,18.41-2.03,27.83,1.02,8.03,2.95,14.59,4.66,20.38,2.31,7.84,4.31,14.62,3.07,22.04-2.1,12.6-13.12,46.76-13.23,47.11-.07,.21-.26,.35-.48,.35Z" fill="#263238"></path>
      <path d="M756.84,390.1c-.11,0-.21-.03-.3-.1l-8.65-6.62c-.22-.17-.26-.48-.09-.7,.17-.22,.48-.26,.7-.09l8.65,6.62c.22,.17,.26,.48,.09,.7-.1,.13-.25,.2-.4,.2Z" fill="#263238"></path>
      <path d="M756.44,382.46c-.08,0-.17-.02-.25-.06-.24-.14-.33-.44-.19-.68l3.62-6.43c.13-.24,.44-.33,.68-.19,.24,.14,.33,.44,.19,.68l-3.62,6.43c-.09,.16-.26,.25-.44,.25Z" fill="#263238"></path>
      <path d="M771.51,433.94c-.1,0-.21-.03-.3-.1-.07-.05-7.31-5.49-14.67-10.86-.22-.16-.27-.48-.11-.7,.17-.22,.48-.27,.7-.11,7.37,5.38,14.61,10.81,14.68,10.87,.22,.17,.27,.48,.1,.7-.1,.13-.25,.2-.4,.2Z" fill="#263238"></path>
      <path d="M767.89,422.6c-.08,0-.16-.02-.23-.06-.25-.13-.34-.43-.21-.67,3.62-7,7.96-13.64,12.92-19.76,.17-.21,.49-.25,.7-.07,.21,.17,.25,.49,.07,.7-4.91,6.06-9.22,12.65-12.8,19.59-.09,.17-.26,.27-.44,.27Z" fill="#263238"></path>
      <path d="M767.89,482.79c-.18,0-.35-.09-.44-.26-4.11-7.58-9.29-14.5-15.39-20.58-.2-.2-.2-.51,0-.71,.2-.2,.51-.2,.71,0,6.17,6.15,11.41,13.15,15.56,20.81,.13,.24,.04,.55-.2,.68-.08,.04-.16,.06-.24,.06Z" fill="#263238"></path>
      <path d="M769.37,490.85c-.07,0-.13-.01-.2-.04-.25-.11-.37-.4-.26-.66,2.2-5.18,4.85-10.21,7.87-14.96,4.2-6.19,4.83-7.04,4.86-7.07,.17-.22,.48-.26,.7-.1,.22,.17,.26,.48,.1,.7-.03,.03-.68,.9-4.82,7.01-2.98,4.69-5.61,9.67-7.79,14.8-.08,.19-.27,.3-.46,.3Z" fill="#263238"></path>
      <path d="M776.23,529.77c-.2,0-.39-.12-.46-.31-1.81-4.51-4-8.93-6.48-13.12-2.47-3.86-5.29-7.56-8.38-10.98-.18-.2-.17-.52,.04-.71,.2-.18,.52-.17,.71,.04,3.12,3.46,5.98,7.2,8.49,11.12,2.52,4.25,4.73,8.71,6.56,13.27,.1,.26-.02,.55-.28,.65-.06,.02-.12,.04-.19,.04Z" fill="#263238"></path>
      <path d="M768.26,559.43s-.03,0-.05,0c-.28-.03-.48-.27-.45-.54,.4-4.25-.33-8.54-2.13-12.41-2.45-4.82-5.26-10.92-6.95-14.57l-.89-1.91c-.12-.25,0-.55,.24-.66,.25-.12,.55,0,.66,.24l.89,1.92c1.68,3.64,4.49,9.73,6.94,14.55,1.88,4.05,2.64,8.52,2.22,12.94-.02,.26-.24,.45-.5,.45Z" fill="#263238"></path>
      <path d="M807.67,459.06c-3.47-3.6-6.64-7.49-9.46-11.62-3.8-5.85,.15-13.67,.15-13.67,0,0,2.75,3.41,6.9,9.33s3.53,9.5,3.53,9.5l-1.12,6.46Z" fill="#4dc98b"></path>
      <path d="M796.43,480.24c-3.47-3.61-6.64-7.5-9.46-11.63-3.81-5.84,.13-13.66,.13-13.66,0,0,2.81,3.49,6.96,9.39s3.53,9.5,3.53,9.5l-1.17,6.4Z" fill="#4dc98b"></path>
      <path d="M805.61,464.97c4.69-1.74,9.23-3.87,13.57-6.37,5.97-3.61,5.81-12.39,5.81-12.39,0,0-3.98,1.91-10.27,5.42-6.3,3.52-7.3,7.02-7.3,7.02l-1.8,6.31Z" fill="#4dc98b"></path>
      <path d="M791.54,489.73c4.85-1.24,9.6-2.89,14.18-4.92,6.31-2.96,7.07-11.69,7.07-11.69,0,0-4.14,1.49-10.78,4.32-6.64,2.82-8,6.21-8,6.21l-2.47,6.09Z" fill="#4dc98b"></path>
      <path d="M789.58,519.29c4.48-2.23,8.77-4.83,12.82-7.77,5.51-4.23,4.43-12.92,4.43-12.92,0,0-3.74,2.32-9.64,6.47s-6.52,7.75-6.52,7.75l-1.09,6.47Z" fill="#4dc98b"></path>
      <path d="M787.33,526.1c-2.92-4.06-5.51-8.37-7.72-12.86-2.93-6.31,2.1-13.51,2.1-13.51,0,0,2.22,3.8,5.5,10.23,3.28,6.43,2.14,9.9,2.14,9.9l-2.03,6.24Z" fill="#4dc98b"></path>
      <path d="M780.04,555.37c-4.35-2.48-8.48-5.32-12.36-8.5-5.29-4.52-3.71-13.16-3.71-13.16,0,0,3.58,2.53,9.24,7.02,5.66,4.49,6.08,8.11,6.08,8.11l.75,6.52Z" fill="#4dc98b"></path>
      <path d="M779.72,546.37c4.47-2.23,8.75-4.83,12.79-7.77,5.51-4.21,4.43-12.92,4.43-12.92,0,0-3.74,2.31-9.64,6.47-5.9,4.17-6.52,7.76-6.52,7.76l-1.06,6.46Z" fill="#4dc98b"></path>
      <path d="M781.42,565.98c3.77-3.29,7.26-6.9,10.44-10.78,4.29-5.48,1.03-13.63,1.03-13.63,0,0-3.03,3.19-7.69,8.71s-4.35,9.15-4.35,9.15l.56,6.55Z" fill="#4dc98b"></path>
      <path d="M782.82,577.94c-.25,0-.46-.18-.49-.43-.03-.23-3.23-22.86-3.18-31,.03-4.82,2.02-8.86,4.33-13.55,1.7-3.45,3.62-7.35,5.12-12.27,1.75-5.74,1.74-11.76,1.74-17.59,0-5.87-.01-11.42,1.83-15.99,1.73-4.29,3.98-7.78,6.36-11.48,2.54-3.93,5.16-7.99,7.11-13.14,1.29-3.54,2.4-7.2,3.29-10.86,.06-.27,.33-.43,.6-.37,.27,.07,.43,.34,.37,.6-.9,3.7-2.02,7.39-3.33,10.97-2,5.25-4.65,9.36-7.21,13.33-2.36,3.65-4.58,7.1-6.28,11.31-1.76,4.39-1.76,9.84-1.75,15.61,0,5.9,.01,12.01-1.78,17.88-1.52,5-3.47,8.94-5.18,12.42-2.25,4.57-4.2,8.52-4.23,13.11-.04,8.06,3.14,30.62,3.17,30.85,.04,.27-.15,.53-.42,.57-.02,0-.05,0-.07,0Z" fill="#263238"></path>
      <path d="M806.96,461.54c-.18,0-.35-.1-.44-.27-.13-.24-.03-.55,.21-.67l6.13-3.22c.24-.13,.55-.04,.67,.21,.13,.24,.03,.55-.21,.67l-6.13,3.22c-.07,.04-.15,.06-.23,.06Z" fill="#263238"></path>
      <path d="M808.04,456.79c-.21,0-.4-.13-.47-.33l-1.57-4.43c-.09-.26,.04-.55,.3-.64,.26-.09,.55,.04,.64,.3l1.57,4.43c.09,.26-.04,.55-.3,.64-.06,.02-.11,.03-.17,.03Z" fill="#263238"></path>
      <path d="M793.02,487.43c-.18,0-.36-.1-.45-.27-.13-.25-.03-.55,.22-.67,0,0,5.13-2.62,10.35-5.22,.25-.12,.55-.02,.67,.22,.12,.25,.02,.55-.22,.67-5.21,2.6-10.34,5.22-10.34,5.22-.07,.04-.15,.05-.23,.05Z" fill="#263238"></path>
      <path d="M796.49,480.74c-.21,0-.41-.14-.48-.35-1.48-4.72-3.46-9.31-5.87-13.64-.13-.24-.05-.54,.19-.68,.24-.13,.54-.05,.68,.19,2.45,4.38,4.45,9.04,5.95,13.83,.08,.26-.06,.54-.33,.63-.05,.02-.1,.02-.15,.02Z" fill="#263238"></path>
      <path d="M789.96,518.46c-.11,0-.22-.04-.31-.11-.22-.17-.25-.49-.08-.7,3.45-4.36,7.5-8.2,12.03-11.41,.22-.16,.54-.11,.7,.12,.16,.23,.11,.54-.12,.7-4.46,3.15-8.44,6.92-11.82,11.21-.1,.12-.25,.19-.39,.19Z" fill="#263238"></path>
      <path d="M788.2,523.35c-.23,0-.43-.16-.49-.39-.81-3.44-1.91-6.84-3.27-10.11-1.94-4.27-2.24-4.89-2.25-4.91-.12-.25-.02-.55,.23-.67,.25-.12,.55-.02,.67,.23,.01,.02,.31,.63,2.27,4.95,1.39,3.33,2.51,6.78,3.33,10.28,.06,.27-.1,.54-.37,.6-.04,0-.08,.01-.11,.01Z" fill="#263238"></path>
      <path d="M779.91,553.22c-.15,0-.29-.06-.39-.19-1.97-2.45-4.16-4.73-6.53-6.79-1.52-1.12-2.99-2.4-4.33-3.77-.19-.2-.19-.51,0-.71,.2-.19,.51-.19,.71,0,1.3,1.33,2.73,2.57,4.24,3.69,2.44,2.12,4.68,4.45,6.69,6.95,.17,.22,.14,.53-.08,.7-.09,.07-.2,.11-.31,.11Z" fill="#263238"></path>
      <path d="M779.64,547.02c-.09,0-.18-.02-.26-.07-.24-.15-.31-.45-.16-.69,1.65-2.67,3.52-5.24,5.56-7.63,2.02-2.2,4.23-4.24,6.56-6.06,.22-.17,.53-.13,.7,.09,.17,.22,.13,.53-.09,.7-2.29,1.79-4.46,3.78-6.43,5.93-1.99,2.34-3.83,4.86-5.46,7.49-.09,.15-.26,.24-.43,.24Z" fill="#263238"></path>
      <path d="M781.42,566.48s-.03,0-.04,0c-.28-.02-.48-.26-.46-.54,.21-2.86,1.19-5.62,2.82-7.98,2.02-2.66,4.28-5.95,5.77-8.12,.38-.55,.7-1.01,.94-1.37,.16-.23,.47-.28,.7-.12,.23,.16,.28,.47,.12,.7-.25,.35-.56,.82-.94,1.36-1.5,2.18-3.76,5.49-5.79,8.15-1.52,2.19-2.44,4.78-2.63,7.46-.02,.26-.24,.46-.5,.46Z" fill="#263238"></path>
      <g>
        <path d="M755.18,629.36l-8.31-55.46h55.37s-8.31,55.46-8.31,55.46c0,1.45-1.18,2.63-2.63,2.63h-33.49c-1.45,0-2.63-1.18-2.63-2.63Z" fill="#4db4d7"></path>
        <path d="M791.31,632.5h-33.5c-1.71,0-3.11-1.38-3.13-3.09l-8.3-55.42c-.02-.14,.02-.29,.12-.4s.23-.17,.38-.17h55.37c.15,0,.28,.06,.38,.17s.14,.26,.12,.4l-8.31,55.46c0,1.65-1.4,3.06-3.12,3.06Zm-43.85-58.09l8.22,54.88s0,.05,0,.07c0,1.17,.96,2.13,2.13,2.13h33.5c1.17,0,2.13-.96,2.13-2.13l8.23-54.96h-54.21Z" fill="#263238"></path>
      </g>
    </g>
  </g>
  <g id="f">
    <g opacity=".3">
      <path d="M689.3,282.47h-153.44c-.35,0-.64-.29-.64-.64V77.53c0-.35,.29-.64,.64-.64h153.44c.35,0,.64,.29,.64,.64v204.33c-.02,.34-.3,.6-.64,.6Zm-152.8-1.29h152.16V78.13h-152.16v203.05Z" fill="#263238"></path>
      <path d="M684.3,275.77h-143.44c-.35,0-.64-.29-.64-.64V84.19c0-.35,.29-.64,.64-.64h143.44c.35,0,.64,.29,.64,.64v190.94c0,.35-.29,.64-.64,.64Zm-142.8-1.29h142.16V84.83h-142.16v189.66Z" fill="#263238"></path>
      <path d="M540.86,225.05c-.35,0-.64-.3-.63-.65,0-.23,.13-.45,.34-.56,14.87-7.71,50.47-29.94,60.01-70.1,7.88-33.19,19.06-55.45,35.16-70.03,.24-.25,.64-.25,.89,0,0,0,0,0,0,0,.25,.25,.25,.66,0,.91,0,0,0,0,0,0-15.92,14.38-26.99,36.42-34.79,69.4-9.66,40.67-45.65,63.16-60.67,70.95-.1,.05-.21,.08-.32,.08Z" fill="#263238"></path>
      <path d="M610.64,275.78c-.28,0-.53-.19-.6-.46-10.28-33.22-22.22-95.1,12.49-136.54,18.58-22.17,39.27-39,61.49-50.03,.31-.16,.69-.04,.85,.26,0,0,0,.01,.01,.02,.16,.32,.03,.7-.29,.86,0,0,0,0,0,0-22.05,10.96-42.6,27.68-61.07,49.71-34.33,40.94-22.41,102.37-12.26,135.35,.1,.34-.09,.7-.42,.81l-.19,.03Z" fill="#263238"></path>
      <path d="M540.86,173.37c-.19,0-.36-.08-.49-.22-.23-.27-.19-.68,.08-.91,8.21-7.04,18.52-20.28,20.91-43.36,2.27-21.95-4.99-36.2-11.48-44.28-.26-.25-.27-.66-.02-.93,.25-.26,.66-.27,.93-.02,.04,.04,.08,.09,.11,.14,6.63,8.28,14.06,22.84,11.73,45.22-2.43,23.5-12.99,37.02-21.35,44.22-.12,.09-.27,.14-.42,.14Z" fill="#263238"></path>
      <path d="M666.95,275.78c-.22,0-.43-.11-.54-.3-5.72-8.7-12.97-12.14-20.64-15.79-7.02-3.33-14.28-6.77-20.15-14.56-5.88-7.69-7.67-17.75-4.79-26.99,4.36-15.55,19.07-29.66,39.36-37.73,9.18-3.53,17.31-9.34,23.61-16.9,.23-.27,.63-.31,.91-.09,.27,.22,.31,.63,.09,.9-6.44,7.73-14.75,13.68-24.13,17.28-19.93,7.92-34.35,21.72-38.55,36.88-2.75,8.84-1.04,18.47,4.57,25.83,5.68,7.53,12.85,10.91,19.67,14.14,7.49,3.56,15.25,7.25,21.15,16.24,.19,.3,.11,.7-.18,.9-.11,.1-.24,.16-.39,.18Z" fill="#263238"></path>
      <path d="M580.76,275.78h0c-.35-.02-.62-.31-.63-.66,.36-16.27-2.3-27.69-7.92-33.97-1.37-1.72-3.5-2.64-5.69-2.48-6.19,.46-14.88,9-25.11,24.58-.2,.3-.6,.38-.89,.19-.3-.2-.38-.6-.19-.89,10.61-16.19,19.39-24.66,26.1-25.16,2.59-.18,5.11,.91,6.75,2.92,5.83,6.52,8.6,18.24,8.24,34.84,0,.35-.28,.63-.63,.63,0,0-.02,0-.03,0Z" fill="#263238"></path>
      <path d="M586.33,126.85c-.38,0-.77-.06-1.13-.18-6.5-2.2-8.29-24.31-8.65-42.41,0-.35,.28-.64,.63-.66,.33-.03,.63,.22,.65,.55,0,.03,0,.05,0,.08,.49,24.73,3.32,39.84,7.77,41.28,1.45,.49,3.23-.57,5.28-3.15,8.22-10.28,14.69-26.54,18.66-38.32,.11-.34,.48-.52,.82-.4,0,0,0,0,0,0,.33,.12,.51,.48,.4,.81-4.01,11.87-10.53,28.27-18.88,38.72-1.98,2.43-3.84,3.68-5.56,3.68Z" fill="#263238"></path>
      <path d="M651.04,154.48c-2.15,0-3.48-.59-4.06-1.77-2.3-4.74,10.11-18.87,36.9-41.97,.27-.23,.68-.21,.91,.06,.23,.27,.21,.68-.06,.91h0c-24.82,21.4-38.55,36.51-36.59,40.43,.55,1.14,2.76,1.36,6.43,.67,10.01-1.95,19.87-7.71,29.34-17.22,.25-.25,.65-.25,.9,0s.25,.65,0,.9c-9.64,9.66-19.73,15.58-29.99,17.58-1.24,.25-2.5,.39-3.77,.41Z" fill="#263238"></path>
    </g>
  </g>
</svg>
