<?xml version="1.0" encoding="UTF-8" standalone="no"?>
<svg
   id="svg"
   width="1024"
   height="64"
   viewBox="0 0 1024 64"
   version="1.1"
   xmlns="http://www.w3.org/2000/svg"
   xmlns:svg="http://www.w3.org/2000/svg">
  <defs
     id="defs1" />
  <g
     id="svgg"
     transform="matrix(2.5689642,0,0,1.8487951,-1.6512662,-0.83226838)">
    <path
       id="path0"
       d="m 110.115,0.725 c -2.184,0.799 -3.324,3.647 -2.453,6.125 0.736,2.095 3.073,5.025 4.565,5.725 l 0.878,0.412 6.876,0.05 c 7.749,0.056 7.159,-0.058 7.312,1.406 0.154,1.468 0.818,1.373 -9.826,1.406 -8.991,0.028 -9.191,0.036 -9.865,0.362 -4.001,1.937 -3.9,6.422 0.19,8.487 0.855,0.432 0.912,0.288 -0.819,2.072 -1.61,1.659 -1.732,1.903 -1.629,3.263 0.265,3.523 5.475,6.187 8.86,4.53 2.941,-1.439 5.95,-6.948 4.557,-8.342 -0.303,-0.302 -0.54,-0.319 -0.54,-0.037 0,1.865 -2.542,5.608 -4.486,6.607 -2.8,1.438 -6.693,-0.337 -6.69,-3.049 0.002,-1.879 6.155,-6.911 6.56,-5.364 0.11,0.421 0.078,0.427 0.681,-0.136 l 0.505,-0.472 6.477,-0.001 c 3.701,-10e-4 6.907,-0.071 7.48,-0.164 4.776,-0.775 5.352,-6.575 0.797,-8.038 -1.577,-0.507 -1.57,-0.607 0.172,-2.436 3.275,-3.437 3.603,-6.602 0.955,-9.194 -2.54,-2.485 -5.481,-2.291 -9.167,0.605 -2.256,1.773 -2.009,1.792 -3.865,-0.305 -2.894,-3.272 -5.218,-4.357 -7.525,-3.512 m 3.263,1.813 c 0.671,0.342 1.403,1.039 3.103,2.955 1.47,1.656 2.033,1.937 3.746,1.873 1.194,-0.045 1.222,-0.055 1.27,-0.468 0.257,-2.222 5.847,-3.762 7.803,-2.15 2.328,1.919 1.708,5.181 -1.459,7.671 -0.764,0.6 -0.774,0.595 -1.221,-0.641 -0.343,-0.946 -0.357,-0.949 -3.687,-0.742 -4.47,0.278 -9.672,0.137 -10.458,-0.282 -1.424,-0.761 -3.061,-3.189 -3.405,-5.05 -0.491,-2.654 1.887,-4.402 4.308,-3.166 m 118.523,0.689 c -0.121,0.186 -0.058,26.166 0.065,26.554 0.089,0.282 1.618,0.574 1.946,0.372 0.118,-0.073 0.169,-4.123 0.169,-13.541 V 3.175 l -1.039,-0.053 c -0.581,-0.029 -1.083,0.017 -1.141,0.105 m 71.566,13.341 c -0.043,7.468 -0.053,13.606 -0.024,13.64 0.03,0.035 0.598,0.098 1.263,0.141 l 1.209,0.077 -0.104,-3.918 c -0.057,-2.155 -0.104,-8.328 -0.104,-13.718 l -10e-4,-9.799 h -1.08 -1.081 l -0.078,13.577 M 321.881,4.211 c -0.036,0.584 -0.084,5.136 -0.105,10.114 -0.022,4.978 -0.093,10.539 -0.157,12.357 -0.139,3.927 -0.277,3.542 1.261,3.542 h 1.255 l -0.114,-0.826 c -0.207,-1.503 -0.149,-11.145 0.072,-11.881 0.607,-2.028 3.697,-3.527 5.795,-2.812 2.341,0.799 2.572,1.751 2.577,10.607 l 0.003,4.926 1.194,-0.046 1.194,-0.046 -0.027,-4.88 c -0.045,-8.297 -0.139,-9.615 -0.748,-10.565 -1.741,-2.713 -5.537,-3.058 -9.091,-0.826 l -0.944,0.593 -0.124,-1.055 c -0.069,-0.581 -0.104,-3.128 -0.079,-5.66 l 0.045,-4.605 h -0.97 -0.971 l -0.066,1.063 M 142.404,8.414 c -0.149,2.255 -0.335,5.636 -0.413,7.513 -0.078,1.877 -0.218,4.604 -0.311,6.061 -0.238,3.71 -0.445,7.99 -0.389,8.054 0.026,0.029 0.53,0.065 1.121,0.079 l 1.075,0.025 0.109,-2.755 c 0.059,-1.515 0.183,-4.88 0.274,-7.478 0.187,-5.312 0.476,-11.154 0.578,-11.688 0.27,-1.412 1.18,0.805 2.891,7.045 0.517,1.884 2.525,8.27 2.946,9.366 0.133,0.346 0.544,1.621 0.914,2.834 l 0.672,2.203 0.99,0.081 c 1.492,0.121 1.564,0.05 2.161,-2.131 0.77,-2.815 6.189,-19.096 6.419,-19.287 0.365,-0.303 0.418,0.127 0.559,4.546 0.076,2.395 0.211,5.772 0.3,7.504 0.089,1.731 0.237,4.636 0.33,6.454 0.196,3.848 0.031,3.422 1.336,3.445 1.315,0.023 1.251,0.257 0.949,-3.485 -0.138,-1.71 -0.327,-4.879 -0.419,-7.044 -0.093,-2.165 -0.236,-4.715 -0.318,-5.667 -0.083,-0.952 -0.197,-3.526 -0.253,-5.718 -0.102,-3.943 -0.107,-3.986 -0.432,-3.898 -0.181,0.048 -0.938,0.089 -1.681,0.09 l -1.353,0.002 -0.198,0.669 c -0.212,0.714 -1.85,5.142 -2.723,7.359 -0.644,1.637 -2.195,6.396 -3.253,9.98 -1.129,3.824 -1.298,3.817 -2.358,-0.093 -0.822,-3.032 -2.465,-8.045 -4.04,-12.327 -0.669,-1.818 -1.373,-3.872 -1.565,-4.565 l -0.35,-1.259 -1.648,-0.008 -1.648,-0.008 -0.272,4.101 M 8.655,4.539 C 8.57,4.568 8.501,4.701 8.501,4.835 8.501,4.969 7.963,6.717 7.307,8.718 5.842,13.182 5.053,15.633 3.704,19.913 3.13,21.732 2.16,24.733 1.548,26.583 0.295,30.372 0.274,30.174 1.919,30.157 L 3.043,30.146 3.254,29.22 C 3.51,28.098 4.861,23.644 5.063,23.256 5.198,22.999 5.55,22.981 9.867,23.02 l 4.66,0.042 0.217,0.708 c 0.271,0.883 1.101,4.531 1.271,5.589 l 0.126,0.787 1.381,0.137 c 1.699,0.17 1.661,0.212 1.159,-1.276 -0.33,-0.98 -1.076,-3.619 -1.636,-5.788 -0.406,-1.571 -1.598,-5.374 -2.912,-9.287 -0.872,-2.598 -1.877,-5.75 -2.234,-7.006 L 11.25,4.644 10.03,4.565 C 9.359,4.522 8.74,4.51 8.655,4.539 m 239.4,-0.015 -1.059,0.055 -0.005,12.812 c -0.003,7.047 0.049,12.845 0.115,12.885 0.066,0.04 0.615,0.036 1.221,-0.008 l 1.102,-0.08 -0.056,-5.9 c -0.03,-3.245 0.005,-5.955 0.079,-6.023 0.239,-0.219 11.35,0.01 11.665,0.24 0.252,0.184 0.283,0.706 0.355,5.921 l 0.079,5.72 1.239,0.046 1.239,0.046 -0.093,-8.625 c -0.051,-4.744 -0.095,-10.515 -0.098,-12.824 l -0.005,-4.198 -1.102,-0.052 -1.102,-0.053 -0.021,0.788 c -0.012,0.432 -0.065,3.015 -0.118,5.738 l -0.097,4.952 -0.612,0.127 c -0.337,0.07 -2.993,0.109 -5.903,0.086 l -5.291,-0.042 -0.041,-5.863 c -0.033,-4.554 -0.085,-5.857 -0.237,-5.833 -0.107,0.017 -0.671,0.055 -1.254,0.085 M 10.23,8.05 c 10e-4,0.228 0.186,1.043 0.411,1.81 1.372,4.687 2.127,7.25 2.543,8.637 0.26,0.865 0.522,1.801 0.582,2.08 l 0.109,0.505 -3.435,0.045 c -4.262,0.057 -4.773,0.025 -4.773,-0.294 0,-0.367 0.847,-3.234 1.969,-6.665 0.553,-1.689 1.23,-3.814 1.506,-4.723 0.707,-2.33 1.08,-2.808 1.088,-1.395 M 312.948,7.957 c -0.13,0.028 -0.495,0.092 -0.811,0.144 l -0.575,0.093 -0.055,2.048 c -0.061,2.275 -0.052,2.256 -1.182,2.426 -0.771,0.115 -0.998,0.399 -0.998,1.246 v 0.553 l 0.984,0.047 0.984,0.047 -0.057,6.419 c -0.066,7.47 -0.056,7.582 0.722,8.384 1.938,1.994 6.497,1.678 6.497,-0.451 0,-0.609 -0.883,-0.792 -1.555,-0.321 -0.549,0.385 -2.647,-0.328 -2.935,-0.998 -0.066,-0.155 -0.154,-3.158 -0.195,-6.673 l -0.075,-6.392 0.511,-0.102 c 0.281,-0.056 1.281,-0.102 2.223,-0.102 h 1.711 v -0.768 c 0,-1.145 -0.128,-1.2 -2.327,-1.008 -2.32,0.202 -2.144,0.407 -2.016,-2.34 l 0.109,-2.338 -0.362,0.018 c -0.199,0.01 -0.468,0.041 -0.598,0.068 M 205.706,9.081 c -0.225,0.059 -0.278,0.263 -0.291,1.123 -0.008,0.578 -0.061,1.441 -0.118,1.917 l -0.102,0.866 -1.26,0.079 -1.259,0.078 -0.048,0.748 -0.048,0.748 h 1.15 1.15 l -0.044,6.551 c -0.051,7.462 -0.073,7.316 1.307,8.532 1.655,1.456 4.669,1.344 5.54,-0.207 0.66,-1.173 0.637,-1.188 -1.699,-1.142 -2.936,0.057 -2.664,0.785 -2.664,-7.137 v -6.434 l 0.411,-0.103 c 0.227,-0.057 0.919,-0.06 1.538,-0.008 1.517,0.128 1.776,0.043 1.901,-0.624 0.206,-1.095 0.125,-1.145 -1.931,-1.194 l -1.84,-0.044 -0.045,-1.929 -0.044,-1.928 -0.664,0.018 c -0.365,0.01 -0.788,0.051 -0.94,0.09 M 58.402,12.645 c -4.434,1.704 -6.168,5.425 -5.366,11.519 0.559,4.246 3.822,6.781 8.352,6.488 2.81,-0.182 5.17,-1.485 4.801,-2.65 -0.116,-0.365 -0.127,-0.365 -1.097,0 -1.929,0.725 -5.423,0.746 -6.801,0.041 -1.836,-0.939 -3.151,-3.639 -3.007,-6.172 L 55.333,21.015 61.078,21.008 66.824,21 66.813,19.04 c -0.017,-2.926 -1.089,-4.775 -3.47,-5.983 -1.23,-0.625 -3.825,-0.841 -4.941,-0.412 m 15.907,-0.047 c -3.803,0.802 -5.577,5.076 -3.102,7.473 0.817,0.792 0.993,0.894 3.724,2.168 3.11,1.451 4.047,2.975 3.053,4.969 -0.905,1.816 -4.006,2.126 -6.372,0.637 -0.977,-0.614 -1.171,-0.583 -1.484,0.237 -0.333,0.873 -0.197,1.154 0.831,1.714 3.525,1.918 8.589,0.691 9.535,-2.313 1.045,-3.315 0.087,-4.756 -4.979,-7.487 -2.506,-1.351 -3.303,-2.407 -2.862,-3.796 0.581,-1.832 4.093,-2.568 5.94,-1.245 1.335,0.956 2.139,0.624 2.042,-0.842 -0.067,-1.003 -4.137,-1.977 -6.326,-1.515 m 14.048,0.056 c -2.366,0.776 -3.657,2.42 -3.661,4.662 -0.004,2.176 0.966,3.303 3.887,4.518 3.57,1.485 4.908,3.257 4.004,5.301 -0.799,1.806 -4.064,2.042 -6.687,0.485 -1.207,-0.716 -1.213,-0.714 -1.595,0.651 -0.485,1.739 5.659,3.06 8.178,1.758 2.687,-1.388 3.445,-5.188 1.48,-7.42 -0.599,-0.68 -2.711,-2.005 -5.173,-3.245 -1.475,-0.742 -1.895,-1.248 -1.895,-2.277 0,-2.357 3.243,-3.529 6.003,-2.172 1.346,0.662 1.339,0.664 1.57,-0.367 0.233,-1.043 0.273,-1 -1.46,-1.555 -1.522,-0.487 -3.712,-0.647 -4.651,-0.339 m 86.299,-0.078 c -6.615,1.734 -8.002,14.083 -1.928,17.155 3.547,1.793 9.562,0.872 9.562,-1.464 0,-0.642 -0.139,-0.684 -1.027,-0.313 -5.396,2.254 -9.834,-0.247 -9.834,-5.542 0,-1.352 0.024,-1.462 0.34,-1.562 0.35,-0.111 7.336,0.021 9.774,0.185 l 1.377,0.092 -10e-4,-0.685 c -0.005,-3.527 -1.285,-6.247 -3.519,-7.475 -0.857,-0.472 -3.581,-0.696 -4.744,-0.391 m 12.019,8.51 c -0.013,4.766 -0.031,8.755 -0.04,8.863 -0.011,0.138 0.347,0.21 1.204,0.243 l 1.22,0.046 v -6.446 -6.447 l 1.083,-1.002 c 2.487,-2.302 4.501,-2.517 6.696,-0.714 0.65,0.533 0.716,1.314 0.708,8.336 -0.008,6.794 -0.111,6.259 1.204,6.259 h 1.014 v -7.287 -7.288 l -0.512,-0.853 c -1.796,-2.997 -5.683,-3.271 -9.149,-0.645 -1.262,0.957 -1.182,0.973 -1.218,-0.255 -0.038,-1.237 -0.038,-1.237 -1.203,-1.366 l -0.984,-0.11 -0.023,8.666 m 33.553,-8.506 c -3.149,0.357 -5.508,1.669 -5.3,2.948 0.131,0.806 0.121,0.805 1.64,0.088 2.979,-1.406 5.605,-1.392 6.966,0.037 l 0.551,0.579 v 1.815 c 0,2.201 -0.145,2.417 -1.631,2.418 -5.019,0.006 -8.444,2.304 -8.444,5.666 0,4.34 4.357,5.919 8.833,3.202 1.253,-0.761 1.394,-0.759 1.927,0.022 0.958,1.403 2.443,1.505 3.949,0.271 l 0.708,-0.581 -0.467,-0.1 c -0.257,-0.055 -0.719,-0.109 -1.028,-0.119 -1.344,-0.045 -1.409,-0.352 -1.547,-7.338 l -0.112,-5.667 -0.415,-0.802 c -1.012,-1.954 -2.856,-2.753 -5.63,-2.439 m 53.916,0.08 c -4.07,1.155 -5.647,3.527 -5.66,8.513 -0.018,7.293 3.91,10.757 10.509,9.268 2.211,-0.499 2.786,-0.953 2.786,-2.197 0,-0.791 -0.081,-0.822 -0.965,-0.371 -4.627,2.361 -9.785,-0.467 -10.024,-5.494 l -0.069,-1.47 5.765,0.053 5.765,0.053 v -1.513 c 0,-5.236 -3.463,-8.159 -8.107,-6.842 m 17.631,-0.072 c -1.203,0.186 -3.194,0.778 -4.306,1.28 l -0.999,0.452 0.11,0.986 c 0.139,1.242 0.234,1.337 0.833,0.833 2.605,-2.192 6.955,-2.267 7.845,-0.137 0.241,0.577 0.386,3.086 0.225,3.887 l -0.091,0.449 -1.808,0.051 c -5.107,0.143 -8.185,2.275 -8.185,5.667 0,4.357 4.658,6.052 9.252,3.368 1.337,-0.782 1.272,-0.791 2.36,0.328 1.35,1.388 2.115,1.325 3.129,-0.259 0.658,-1.03 0.709,-0.94 -0.656,-1.158 -1.513,-0.241 -1.402,0.226 -1.496,-6.265 -0.081,-5.521 -0.1,-5.817 -0.439,-6.668 -0.802,-2.013 -3.246,-3.205 -5.774,-2.814 m 88.043,0.061 c -1.035,0.386 -2.156,1.216 -3.193,2.363 -1.18,1.306 -1.281,1.281 -1.42,-0.352 -0.154,-1.799 -0.253,-1.966 -1.112,-1.869 -0.392,0.044 -0.726,0.106 -0.744,0.138 -0.017,0.032 0.004,3.88 0.047,8.552 l 0.079,8.494 0.708,0.207 c 0.39,0.115 0.921,0.189 1.181,0.165 l 0.472,-0.044 0.079,-5.746 c 0.091,-6.638 0.015,-6.294 1.777,-8.091 1.297,-1.322 2.313,-1.694 3.526,-1.292 0.881,0.293 1.271,0.216 1.463,-0.29 0.216,-0.57 0.36,-2.089 0.206,-2.184 -0.363,-0.224 -2.509,-0.26 -3.069,-0.051 m 11.189,-0.068 c -3.056,0.976 -5.08,3.267 -5.479,6.203 -0.853,6.262 1.27,10.633 5.667,11.669 3.068,0.723 7.535,-0.489 7.543,-2.047 0.004,-0.746 -0.254,-0.894 -0.946,-0.541 -2.321,1.184 -6.549,0.792 -8.059,-0.748 -1.484,-1.513 -2.552,-5.505 -1.599,-5.98 0.353,-0.176 6.793,-0.154 9.325,0.032 l 1.788,0.132 -0.064,-1.953 c -0.101,-3.075 -1.316,-5.135 -3.73,-6.324 -1.09,-0.537 -3.423,-0.77 -4.446,-0.443 M 27.125,12.905 c -5.626,1.662 -8.084,9.376 -4.615,14.484 2.261,3.33 8.955,4.402 11.029,1.766 0.97,-1.234 0.212,-1.792 -1.606,-1.181 -4.749,1.595 -8.277,-0.889 -8.453,-5.952 -0.192,-5.526 3.383,-8.514 8.204,-6.858 1.692,0.581 1.846,0.477 1.846,-1.25 0,-0.96 -4.286,-1.635 -6.405,-1.009 m 15.142,0.1 c -7.416,2.599 -7.606,14.894 -0.268,17.366 2.436,0.821 7.812,-0.111 7.927,-1.373 0.117,-1.282 -0.042,-1.355 -1.678,-0.78 -5.254,1.849 -9.051,-0.88 -9.051,-6.505 0,-5.624 3.809,-8.534 8.566,-6.544 1.538,0.643 1.566,0.636 1.732,-0.403 0.125,-0.785 0.064,-0.873 -0.912,-1.304 -2.088,-0.92 -4.498,-1.095 -6.316,-0.457 m 302.083,0.052 c -3.562,1.184 -5.282,3.796 -5.396,8.194 -0.141,5.438 1.883,8.467 6.264,9.379 2.346,0.487 6.374,-0.44 6.763,-1.557 0.512,-1.469 0.165,-1.684 -1.576,-0.979 -6.454,2.613 -11.586,-3.898 -8.33,-10.569 1.381,-2.828 4.767,-3.902 7.731,-2.452 1.345,0.658 1.341,0.659 1.79,-0.312 0.466,-1.005 0.507,-0.962 -1.509,-1.552 -2.446,-0.717 -3.92,-0.755 -5.737,-0.152 m 15.193,-0.07 c -2.064,0.571 -3.465,1.394 -3.461,2.031 0.008,1.129 0.349,1.265 1.593,0.635 1.818,-0.922 4.786,-1.303 5.851,-0.753 1.64,0.848 1.842,1.242 1.842,3.586 0,2.112 0.233,1.903 -2.283,2.052 -5.232,0.31 -7.792,2.095 -7.792,5.436 0,4.337 4.461,6.111 8.802,3.501 1.406,-0.845 1.491,-0.875 1.653,-0.583 0.981,1.774 2.582,2.161 4.174,1.008 0.846,-0.613 0.784,-0.75 -0.613,-1.355 -1.51,-0.653 -1.416,-0.314 -1.428,-5.168 -0.017,-7.038 -0.161,-8.008 -1.39,-9.373 -1.237,-1.374 -4.129,-1.797 -6.948,-1.017 M 61.544,14.324 c 1.569,0.297 2.79,1.792 2.955,3.616 0.133,1.463 0.133,1.463 -4.565,1.288 -4.769,-0.176 -4.77,-0.177 -3.727,-2.245 1.195,-2.367 2.762,-3.147 5.337,-2.659 m 117.164,0.424 c 0.962,0.662 1.757,2.77 1.472,3.904 l -0.099,0.396 -3.421,-0.014 c -4.589,-0.019 -5.01,-0.078 -4.946,-0.695 0.324,-3.133 4.525,-5.29 6.994,-3.591 m 99.14,-0.163 c 1.617,1.08 2.18,2.24 1.946,4.01 l -0.109,0.817 -4.127,-0.1 c -4.801,-0.117 -4.705,-0.098 -4.595,-0.915 0.186,-1.389 1.505,-3.227 2.709,-3.777 0.865,-0.395 3.602,-0.418 4.176,-0.035 m 116.576,-0.008 c 1.721,0.817 3.181,4.134 2.047,4.651 -0.401,0.182 -7.94,-0.051 -8.272,-0.256 -0.809,-0.5 0.804,-3.406 2.335,-4.206 1.02,-0.533 2.966,-0.627 3.89,-0.189 m -264.485,2.921 c 1.304,0.594 1.294,3.612 -0.015,4.208 -0.306,0.14 -2.52,0.182 -8.537,0.164 -9.026,-0.027 -8.396,-0.097 -10.29,1.143 l -1.222,0.799 -0.681,-0.26 c -2.901,-1.108 -3.812,-3.393 -2.004,-5.026 1.031,-0.931 1.167,-0.946 7.066,-0.746 5.41,0.182 12.686,0.033 13.883,-0.285 0.781,-0.208 1.34,-0.207 1.8,0.003 m 93.84,4.449 c 0.469,0.343 0.457,4.004 -0.015,4.814 -2.079,3.569 -8.381,1.785 -7.31,-2.07 0.515,-1.855 5.822,-3.843 7.325,-2.744 m 71.617,2.086 c 0,2.224 -0.002,2.232 -0.475,2.912 -1.274,1.832 -4.561,2.071 -6.238,0.454 -0.795,-0.766 -0.847,-0.929 -0.766,-2.367 0.108,-1.894 2.785,-3.312 6.14,-3.253 l 1.339,0.023 v 2.231 m 69.851,-1.935 c 0.54,0.823 0.005,4.675 -0.748,5.385 -3.226,3.042 -8.932,-0.403 -6.116,-3.693 1.298,-1.517 6.189,-2.722 6.864,-1.692"
       stroke="none"
       fill="#000000"
       fill-rule="evenodd" />
  </g>
</svg>
