<?xml version="1.0" encoding="UTF-8" standalone="no"?>
<svg
   id="svg"
   width="1024"
   height="1024"
   viewBox="0 0 1024 1024"
   version="1.1"
   xmlns="http://www.w3.org/2000/svg"
   xmlns:svg="http://www.w3.org/2000/svg">
  <defs
     id="defs1" />
  <g
     id="svgg"
     transform="matrix(2.5912157,0,0,2.3366446,-12.197289,-18.626045)">
    <path
       id="path0"
       d="m 157.457,9.288 c -16.297,2.73 -42.183,26.438 -42.183,38.634 0,1.469 -1.198,4.062 -2.661,5.764 l -2.662,3.094 -6.849,-1.73 c -17.849,-4.506 -32.85,18.799 -33.201,51.578 -0.279,26.06 9.495,40.926 43.623,66.351 24.037,17.908 33.242,21.342 54.818,20.453 28.181,-1.161 28.235,-1.286 29.123,-67.207 0.367,-27.262 1.286,-59.185 2.042,-70.94 2.551,-39.68 -8.381,-51.637 -42.05,-45.997 m 77.702,-0.586 c -0.952,0.202 -3.655,0.68 -6.007,1.063 -5.269,0.859 -16.595,10.783 -19.098,16.734 -2.961,7.041 -2.126,143.01 0.917,149.294 11.008,22.73 52.454,27.56 67.907,7.914 9.626,-12.237 -3.751,-17.037 -20.516,-7.362 -14.111,8.145 -27.253,6.671 -33.619,-3.769 -2.726,-4.47 -3.356,-24.208 -0.824,-25.789 7.855,-4.906 34.196,-7.558 42.412,-4.27 7.049,2.821 16.09,14.401 16.09,20.61 0,16.108 14.574,14.698 34.047,-3.293 16.176,-14.944 19.031,-21.379 21.559,-48.595 3.371,-36.282 -6.712,-54.634 -30.068,-54.73 -9.712,-0.039 -13.598,-3.056 -12.997,-10.09 0.408,-4.777 -6.706,-15.523 -15.97,-24.122 C 268.429,12.492 247.672,6.054 235.159,8.702 m -55.908,16.542 c 14.007,6.189 17.224,16.272 13.842,43.388 -0.946,7.584 -1.724,16.481 -1.729,19.773 -0.005,3.291 -0.528,6.304 -1.162,6.696 -0.701,0.433 -1.153,8.968 -1.153,21.75 0,27.958 -3.195,32.388 -10.919,15.137 -4.018,-8.973 -6.16,-10.307 -17.31,-10.775 -12.758,-0.536 -20.515,2.457 -19.525,7.534 0.687,3.519 -11.382,17.041 -21.416,23.994 -6.995,4.848 -13.605,0.808 -23.534,-14.386 -7.801,-11.938 -5.636,-18.133 9.417,-26.938 12.38,-7.243 14.123,-8.614 14.123,-11.115 0,-3.787 -2.011,-3.706 -12.525,0.501 -18.239,7.297 -26.996,2.819 -22.988,-11.754 8.684,-31.574 36.313,-26.57 45.209,8.189 1.629,6.368 3.107,7.645 5.474,4.731 6.263,-7.708 4.097,-7.191 29.412,-7.022 l 23.053,0.154 -3.194,-5.187 c -7.17,-11.641 -30.809,-12.642 -41.365,-1.752 -5.96,6.15 -7.533,4.642 -12.598,-12.081 -9.393,-31.008 21.369,-62.996 48.888,-50.837 m 82.574,1.503 c 14.453,6.617 25.207,25.611 25.207,44.524 0,7.095 3.255,7.455 12.236,1.354 15.841,-10.76 30.373,3.675 24.605,24.441 -2.079,7.485 -5.815,9.34 -16.957,8.415 -10.531,-0.874 -10.764,-0.693 -7.63,5.912 2.56,5.396 5.734,7.339 11.989,7.339 9.723,0 12.241,9.132 6.012,21.799 -9.371,19.057 -44.088,10.739 -44.088,-10.563 0,-7.639 -1.171,-8.58 -12.112,-9.737 -7.957,-0.842 -12.025,1.128 -25.205,12.21 -6.113,5.14 -11.371,9.346 -11.683,9.346 -1.394,0 -0.544,-69.909 0.873,-71.805 1.56,-2.088 16.622,-5.427 24.496,-5.43 9.395,-0.004 19.973,-9.704 14.769,-13.543 -6.89,-5.084 -22.657,0.216 -33.804,11.363 -8.036,8.036 -8.055,8.01 -8.053,-11.363 0.003,-25.703 2.185,-28.366 22.577,-27.558 8.107,0.322 11.898,1.067 16.768,3.296 M 158.555,52.12 c -6.359,3.695 -12.157,11.592 -12.157,16.558 0,4.549 1.053,4.934 4.144,1.516 4.213,-4.659 10.213,-6.792 19.153,-6.811 9.221,-0.019 10.6,-0.511 11.748,-4.192 2.434,-7.808 -13.27,-12.659 -22.888,-7.071 m 96.252,29.831 c -6.565,1.287 -8.898,3.787 -9.648,10.342 -0.737,6.431 0.359,8.529 3.997,7.651 1.494,-0.36 10.498,-0.783 20.008,-0.938 23.031,-0.376 21.494,0.293 18.846,-8.213 -1.198,-3.85 -3.075,-7.681 -4.172,-8.514 -2.296,-1.744 -20.745,-1.952 -29.031,-0.328 m -81.896,56.962 c 15.243,9.271 20.827,24.256 13.215,35.459 -3.469,5.105 -5.321,5.332 -10.167,1.247 -8.451,-7.122 -11.365,-6.99 -20.025,0.914 -6.92,6.314 -9.371,5.857 -21.968,-4.095 -8.5,-6.716 -8.63,-7.468 -2.266,-13.057 2.695,-2.366 9.309,-8.518 14.698,-13.67 14.421,-13.787 14.844,-13.895 26.513,-6.798 m 189.996,10.661 c -5.042,11.175 -5.845,18.732 -4.929,46.414 1.276,38.574 -6.018,54.748 -33.966,75.322 -12.494,9.198 -12.888,7.973 -4.296,-13.346 3.394,-8.422 6.778,-17.172 7.519,-19.445 1.694,-5.192 5.934,-9.261 13.687,-13.137 6.478,-3.238 7.067,-4.4 4.258,-8.411 -2.991,-4.27 -6.329,-3.177 -38.339,12.556 -16.918,8.315 -36.975,17.948 -44.571,21.405 -20.736,9.439 -28.94,17.379 -43.851,42.44 -4.338,7.291 -8.442,13.239 -9.119,13.217 -0.677,-0.021 -5.64,-6.612 -11.029,-14.645 -23.248,-34.655 -65.745,-61.538 -95.552,-60.445 -2.951,0.108 -5.211,-0.93 -9.222,-4.236 -25.7,-21.184 -33.583,-21.547 -41.718,-1.921 -3.985,9.614 -4.345,7.488 -4.446,-26.224 -0.121,-40.274 -0.202,-40.867 -6.462,-47.4 -9.44,-9.853 -18.909,-9.376 -28.397,1.431 -8.016,9.129 -8.031,9.242 -7.639,56.961 l 0.352,42.916 5.561,12.251 c 19.832,43.694 57.077,96.165 83.749,117.986 9.186,7.515 9.249,7.531 9.249,2.287 0,-5.232 -1.603,-7.662 -15.182,-23.014 C 68.099,339.401 52.936,317.662 34.667,285.267 17.625,255.047 18.032,256.935 17.942,207.841 c -0.084,-45.626 -0.601,-43.104 8.995,-43.899 8.584,-0.712 8.387,-1.513 9.153,37.211 0.728,36.83 1.162,39.562 8.096,50.976 13.532,22.276 41.089,40.671 67.053,44.759 22.324,3.515 45.731,19.658 55.908,38.559 10.776,20.012 11.566,24.611 12.331,71.758 l 0.631,38.905 h 6.072 6.073 l 0.85,-23.807 c 1.403,-39.302 0.321,-65.015 -3.146,-74.753 -7.296,-20.488 -31.792,-47.718 -50.477,-56.108 -12.596,-5.657 -12.501,-5.58 -14.546,-11.792 -2.221,-6.75 -10.18,-22.156 -16.897,-32.71 -2.534,-3.982 -4.406,-7.432 -4.161,-7.668 0.561,-0.54 34.201,14.31 41.944,18.517 21.697,11.786 52.108,45.896 58.703,65.842 2.481,7.502 1.273,8.125 11.175,-5.764 31.994,-44.873 37.941,-50.288 68.451,-62.317 5.706,-2.25 14.916,-6.461 20.467,-9.359 13.333,-6.96 13.96,-6.607 7.76,4.378 -1.91,3.385 -5.283,11.22 -7.496,17.411 -6.542,18.309 -4.216,16.138 -31.316,29.227 -42.608,20.581 -59.386,57.505 -55.964,123.161 1.302,24.957 2.683,27.688 12.654,25.016 l 2.588,-0.694 -0.243,-36.466 c -0.477,-71.452 7.857,-82.963 89.653,-123.838 21.329,-10.658 28.796,-16.581 36.925,-29.289 8.929,-13.958 9.526,-17.133 10.735,-57.059 1.01,-33.391 1.497,-35.769 7.566,-36.929 3.723,-0.711 8.236,4.184 9.355,10.149 1.988,10.597 -0.271,78.031 -2.875,85.803 -8.83,26.359 -43.774,82.31 -68.033,108.933 -8.135,8.928 -16.081,20.691 -14.825,21.947 0.765,0.765 13.862,-5.103 18.381,-8.234 16.938,-11.739 58.054,-74.356 76.286,-116.18 l 3.572,-8.196 0.407,-41.801 c 0.485,-49.75 0.237,-51.364 -9.372,-60.954 -5.953,-5.941 -9.938,-7.793 -19.77,-9.188 l -4.611,-0.654 -3.087,6.84 M 84.77,242.853 c 35.192,36.764 42.886,49.711 28.342,47.69 -0.873,-0.122 -2.889,-1.769 -4.482,-3.662 -1.593,-1.893 -7.104,-5.554 -12.247,-8.136 -34.272,-17.207 -54.766,-46.892 -37.245,-53.948 5.729,-2.307 6.992,-1.417 25.632,18.056"
       stroke="none"
       fill="#000000"
       fill-rule="evenodd" />
  </g>
</svg>
