<svg xmlns="http://www.w3.org/2000/svg" xml:space="preserve" viewBox="0 0 1024 384">
  <path fill-rule="evenodd" d="M483 1c-11 1-27 15-27 22l-2 4-2 2-4-1c-12-3-22 10-22 30 0 15 6 24 28 38 16 11 22 13 36 12 18 0 18 0 19-39l1-41c2-24-5-31-27-27m50-1-4 1c-3 1-10 6-12 10s-1 83 1 87c7 13 34 16 44 5 6-7-3-10-14-5-9 5-17 4-21-2-2-2-3-14-1-15 5-3 22-4 27-2 5 1 11 8 11 12 0 9 9 8 22-2 10-9 12-13 14-29 2-21-4-32-20-32-6 0-8-1-8-6 0-2-4-9-10-14-7-5-21-9-29-8m-36 10c9 4 11 10 9 25l-1 12-1 4-1 13c0 16-2 19-7 8-2-5-4-6-11-6-8 0-13 2-13 5 1 2-7 10-13 14-5 2-9 0-16-9-5-7-3-10 6-16l10-6c0-2-2-2-9 0-11 4-17 2-14-7 5-18 23-15 29 5 1 4 2 5 3 3 4-5 3-4 19-4h15l-2-3c-4-7-20-8-26-1-4 3-5 3-9-7-6-18 14-37 32-30m54 1c9 4 16 15 16 26 0 4 2 4 8 1 10-7 19 2 16 14-2 4-4 6-11 5s-7 0-5 3c1 4 4 5 8 5 6 0 8 5 3 12-6 12-28 7-28-6 0-4-1-5-8-5-5-1-8 0-16 7l-8 5 1-42 16-3c6 0 13-6 9-8-4-3-14 0-22 7-5 4-5 4-5-7 0-15 1-16 15-16l11 2m-67 15c-4 2-8 7-8 9 0 3 0 3 2 1 3-2 7-4 13-4s7 0 7-2c2-5-8-7-14-4m62 17c-4 1-6 2-6 6-1 4 0 5 2 5l13-1c15 0 14 0 13-5l-3-5h-19m-53 33c10 6 13 15 9 21-3 3-4 3-7 1-6-4-7-4-13 0-5 4-6 4-14-2-6-4-6-4-2-8l10-8c9-8 9-8 17-4m123 7c-3 6-4 11-3 27 1 22-4 32-22 44-8 5-9 4-3-8l5-11c1-3 4-6 9-8 4-2 4-3 3-5-2-2-5-2-25 7l-29 13c-14 5-19 10-29 25l-5 7-8-8c-15-20-42-36-62-35l-5-3c-17-12-22-12-28-1-2 6-2 4-2-15 0-24-1-24-5-28-6-6-12-6-18 1-5 5-5 5-5 33v25l4 7c13 26 37 56 54 69 6 5 6 5 6 2s-1-5-10-14c-13-13-23-26-35-45-11-18-10-17-10-45 0-27-1-25 5-26 6 0 6-1 6 22 1 21 1 23 6 30 8 13 26 23 43 26 14 2 30 11 36 22 7 12 8 15 8 42l1 23h7l1-14c1-23 0-38-2-44-5-12-21-28-33-32-8-4-8-4-9-7a112 112 0 0 0-14-24l27 11c14 7 34 27 38 38 2 5 1 5 8-3 20-26 24-29 44-36l13-6c9-4 9-4 5 3l-5 10c-4 11-2 9-20 17-27 12-38 34-36 72 1 14 2 16 8 15l2-1v-21c-1-42 5-49 58-73 14-6 18-9 24-17 5-8 6-10 7-33 0-19 1-21 4-22 3 0 6 3 7 6 1 7-1 46-2 51-6 15-29 48-44 63-6 5-11 12-10 13l12-5c11-7 38-43 49-68l3-5v-24c0-29 0-30-6-36-4-3-7-4-13-5h-3l-2 4m-180 54c23 22 28 29 18 28l-3-2-8-5c-22-10-35-27-24-31 4-2 5-1 17 10M281 257c-5 3-8 13-6 23 2 7 8 18 12 21l2 1 18 1c19 0 18-1 18 5 1 5 2 5-25 5l-25 1c-11 7-10 24 0 32 2 1 3 1-2 7-4 6-4 7-4 12 1 13 14 23 23 17 7-5 15-26 11-31h-1c0 7-6 21-11 25-8 5-18-2-18-12 0-7 16-25 17-20 0 2 0 2 2 0l1-2h36c12-3 14-25 2-30-4-2-4-2 1-9 8-13 9-25 2-34-6-9-14-9-24 2-5 7-5 7-9-1-8-12-14-16-20-13m9 7 8 11c3 6 5 7 9 7l3-2c1-8 15-14 21-8 5 7 4 19-4 28-2 2-2 2-3-2s-1-4-10-3c-11 1-25 1-27-1-3-3-8-12-8-19-2-9 4-16 11-11m304 2v98c0 1 4 3 5 2l1-50v-50h-6m184 50v50l3 1h3V265h-6v51m47-46a2684 2684 0 0 0 0 83c-1 15-1 13 3 13h3v-47c1-7 9-13 15-10s6 6 6 39v18h7v-18l-2-39c-5-10-15-12-24-3l-2 2-1-4v-38h-5v4m-461 15a1996 1996 0 0 0 0 81h3v-10a12781 12781 0 0 0 2-71c1-5 3 3 8 26a1095 1095 0 0 0 10 45l2 8h2c4 1 4 1 6-8l16-71c1-1 1 1 2 17v28l1 24c1 14 0 12 4 12 3 0 3 1 2-13a1206 1206 0 0 1-4-82h-7l-1 3a984 984 0 0 1-15 64c-3 14-4 14-6-1a842 842 0 0 0-15-62l-1-5h-8l-1 15M21 271l-1 1-3 15a4212 4212 0 0 0-15 66c-3 14-3 13 1 13h3l1-4 4-22 13-1 12 1v2l3 21 1 3h3c5 1 5 1 3-4a579 579 0 0 1-11-56l-6-26-2-8-3-1h-3m615 0h-3v95h6v-44c1-1 29 0 30 1l1 22v21h7l-1-32v-63h-6v42l-2 1h-28l-1-22v-21h-3M25 284l1 7a8261 8261 0 0 0 8 39v2h-9c-11 1-12 1-12-1a340 340 0 0 1 12-47m777 0h-2l-1 1v7c-1 9-1 9-3 9-2 1-3 2-3 5v2h5v24c0 28 0 28 2 31 5 7 16 6 16-2 0-2-2-3-4-1-1 1-6-1-7-4l-1-24v-24h2l5-1h5v-3c0-4-1-4-6-3-6 0-6 1-6-9l1-9-1 1h-2m-275 4-1 4v7l-1 3-3 1h-3v5h6v25c-1 27-1 27 3 31 4 6 12 5 14-1 2-4 2-4-4-4-8 0-7 3-7-26v-24h5c4 0 5 0 5-3 0-4 0-4-5-4h-5v-14h-4m-379 13c-11 6-15 20-13 43 1 15 9 25 21 24 7-1 13-6 12-10h-2c-5 3-14 3-18 0-5-3-8-13-8-23v-3h30v-7c0-11-3-18-9-22-3-3-10-3-13-2m41 0c-10 3-14 19-8 28l10 8c8 5 10 11 8 18-3 7-11 8-17 2-2-2-3-2-3 1-1 3-1 4 2 7 9 7 22 2 24-9 3-12 0-18-13-28-6-5-8-9-7-14 1-7 11-9 15-4 4 3 6 2 5-3 0-4-10-8-16-6m36 0c-6 3-9 9-9 17s2 13 10 17c9 6 13 12 10 20-2 6-10 7-17 1-3-2-3-2-4 3-1 6 14 11 21 6s9-19 4-27l-14-12c-3-3-4-5-4-8 0-9 8-14 15-9 3 3 3 3 4-1s1-4-4-6c-4-1-9-2-12-1m222 0c-17 6-21 52-5 63 9 7 25 3 25-5 0-3-1-3-3-1-14 8-25-1-25-21l1-6 25 1h3v-2c0-13-3-23-9-28-2-1-9-2-12-1m31 31v33l3 1h3v-48l3-3c6-9 11-10 17-3 2 2 2 5 2 31 0 25 0 23 3 23h3v-54l-2-3c-4-11-14-12-23-2-4 3-3 3-3-1-1-5-1-5-4-5l-2-1v32m86-31c-8 1-14 6-14 11 1 3 1 3 5 0 7-5 14-5 18 0l1 2v7c0 8 0 9-4 9-13 0-22 9-22 21 0 16 11 22 23 12 3-3 3-3 5 0 2 5 6 5 10 1l2-2-1-1h-3c-4 0-4-1-4-27v-21l-1-3c-3-7-8-10-15-9m139 0c-11 4-15 13-15 32 0 27 10 39 27 34 6-2 7-4 7-8 0-3 0-3-2-2-12 9-25-1-26-20v-5h29v-6c0-19-8-30-20-25m45 0-11 5-3 1 1 4c0 5 0 5 2 3 6-8 18-8 20 0v16h-4c-14 0-21 8-21 21 0 16 11 22 23 12 4-3 4-3 6 1 4 5 6 5 8-1 2-3 2-3-1-4-4-1-4 1-4-23l-1-25c-2-7-9-12-15-10m226 0-8 9c-3 5-3 5-4-1 0-7 0-8-3-7h-2l1 32v31l2 1 3 1 1-1v-21c0-24 0-23 5-30 3-5 6-6 9-5 2 2 3 1 3-1l1-8h-8m29 0c-8 3-13 12-14 23-2 23 3 39 14 43 8 3 20-2 20-8 0-2-1-3-3-2-6 5-17 3-20-2-4-6-7-21-5-23l24 1h5v-7c0-11-4-19-10-24-3-1-9-2-11-1m-935 1c-14 6-21 35-12 54 6 12 23 16 29 6 2-4 0-6-5-4-12 6-21-4-21-22-1-21 8-32 21-26 4 3 4 2 4-4 0-4-11-6-16-4m39 0c-19 10-20 55-1 65 6 3 20-1 21-5 0-5-1-5-5-3-13 7-23-4-23-24 0-21 10-32 22-25 4 3 4 3 4-1 1-3 1-3-2-5-5-3-11-4-16-2m776 1c-9 4-14 14-14 30 0 20 5 31 16 35 6 1 17-2 18-6 1-6 0-6-4-4-17 10-30-14-22-39 4-10 12-14 20-9 3 3 3 3 5-1 1-4 1-4-4-6-7-2-10-3-15 0m39-1c-5 2-9 6-9 8 0 4 1 5 4 2 5-3 12-5 15-3 4 4 5 5 5 14 0 7 1 7-6 7-13 1-20 8-20 20 0 16 12 23 23 13 3-3 4-3 4-2 2 7 7 8 11 4 2-2 2-3-2-5-4-3-4-1-4-19 0-26 0-30-3-35s-11-7-18-4m-766 5c4 1 8 7 8 14 0 5 0 5-12 4-12 0-12 0-9-8 3-9 7-12 13-10m301 2c3 2 5 10 4 14v2h-9c-12 0-13-1-13-3 1-11 12-19 18-13m255-1c4 4 6 9 5 15v3h-11c-12-1-12-1-12-4 1-5 4-12 7-14h11m300 0c4 3 8 16 5 17-1 1-21 0-21-1-2-1 2-12 6-15 2-2 7-2 10-1m-680 11c4 2 3 13 0 16h-22c-23 0-21 0-26 4l-3 3-2-1c-8-4-10-12-5-18 2-4 3-4 18-3a186 186 0 0 0 40-1m241 16v18c-5 13-21 7-19-7 2-7 15-15 19-11m184 8-1 11c-3 7-12 8-16 2-2-3-2-4-2-9 0-7 7-12 16-12h3v8m180-7c1 3 0 17-2 20-9 11-23-2-16-14 3-5 16-10 18-6"/>
</svg>
