<?xml version="1.0" encoding="UTF-8" standalone="no"?>
<!-- Created with Inkscape (http://www.inkscape.org/) -->

<svg
   width="1024"
   height="384"
   viewBox="0 0 1024 384"
   version="1.1"
   id="svg1"
   xml:space="preserve"
   xmlns="http://www.w3.org/2000/svg"
   xmlns:svg="http://www.w3.org/2000/svg"><defs
     id="defs1" /><g
     id="layer1"><path
       id="path0"
       d="M 482.95194,0.76917769 C 472.39468,2.3639277 455.62562,16.213228 455.62562,23.337648 c 0,0.85814 -0.77606,2.37288 -1.7238,3.36712 l -1.72446,1.80739 -4.4368,-1.0106 c -11.56265,-2.63223 -21.28036,10.98164 -21.50774,30.12987 -0.18074,15.22323 6.15089,23.90737 28.25914,38.75966 15.57127,10.461162 21.53431,12.467172 35.51132,11.947852 18.25576,-0.67821 18.29075,-0.75123 18.86599,-39.259712 0.23775,-15.9254 0.83308,-34.57358 1.32282,-41.44039 1.65255,-23.1795103 -5.42924,-30.1643303 -27.24015,-26.86966031 m 50.33565,-0.34233 c -0.6167,0.118 -2.36772,0.39724 -3.89135,0.62098001 -3.41328,0.50178 -10.75031,6.299 -12.37177,9.7753403 -1.91814,4.11308 -1.37722,83.54089 0.59404,87.21175 7.13103,13.278002 33.97991,16.099482 43.99042,4.623052 6.23577,-7.148372 -2.42991,-9.952342 -13.29034,-4.300592 -9.14116,4.758002 -17.6546,3.896942 -21.77852,-2.2017 -1.76591,-2.61119 -2.17403,-14.14137 -0.53379,-15.06493 5.0885,-2.86589 22.15231,-4.41509 27.47466,-2.49437 4.56637,1.64792 10.42317,8.41251 10.42317,12.03956 0,9.409672 9.44109,8.58599 22.05577,-1.92364 10.47888,-8.7297 12.32837,-12.48878 13.96601,-28.38731 2.18374,-21.19454 -4.34806,-31.91506 -19.47817,-31.97114 -6.29147,-0.0228 -8.80884,-1.7852 -8.41951,-5.89418 0.2643,-2.79054 -4.34417,-9.06794 -10.34543,-14.0911403 -6.84274,-5.72769 -20.28922,-9.48854 -28.39519,-7.94168001 M 497.07017,10.090048 c 9.07379,3.61538 11.15778,9.50548 8.96691,25.34559 -0.61283,4.43028 -1.11682,9.62756 -1.12006,11.55061 -0.003,1.92248 -0.34204,3.68256 -0.75275,3.91155 -0.45411,0.25294 -0.74691,5.23876 -0.74691,12.7055 0,16.33198 -2.06973,18.91982 -7.07337,8.84245 -2.60288,-5.24168 -3.99048,-6.02095 -11.21349,-6.29433 -8.26468,-0.31312 -13.28969,1.43528 -12.64837,4.40106 0.44505,2.05567 -7.3733,9.95469 -13.87337,14.01637 -4.53139,2.83201 -8.81337,0.472 -15.24542,-8.40374 -5.05352,-6.97372 -3.65102,-10.5926 6.10038,-15.73614 8.01981,-4.23108 9.14893,-5.03196 9.14893,-6.49295 0,-2.21222 -1.30274,-2.1649 -8.11375,0.29267 -11.81529,4.26262 -17.48811,1.64675 -14.89171,-6.86624 5.62553,-18.4443 23.5237,-15.52116 29.28656,4.7837 1.05528,3.71994 2.01273,4.46591 3.54609,2.76367 4.05719,-4.50272 2.65405,-4.20071 19.0532,-4.10198 l 14.93382,0.09 -2.06908,-3.03005 c -4.64476,-6.80022 -19.95819,-7.38496 -26.79641,-1.02345 -3.86091,3.59259 -4.87991,2.71168 -8.16104,-7.05725 -6.08482,-18.11366 13.84293,-36.7998303 31.66984,-29.69701 m 53.49176,0.87801 c 9.36271,3.86538 16.32919,14.96094 16.32919,26.00918 0,4.14463 2.10861,4.35492 7.92653,0.79096 10.26187,-6.28558 19.67575,2.14679 15.93923,14.27748 -1.34679,4.37245 -3.76699,5.45607 -10.98482,4.91572 -6.82202,-0.51056 -6.97296,-0.40483 -4.94275,3.45356 1.65838,3.15213 3.71451,4.28716 7.76653,4.28716 6.2986,0 7.92977,5.33456 3.89459,12.73413 -6.07056,11.13235 -28.56038,6.2733 -28.56038,-6.1705 0,-4.46241 -0.75858,-5.0121 -7.84619,-5.68798 -5.15458,-0.49186 -7.78984,0.65894 -16.3279,7.13261 -3.96003,3.00259 -7.36618,5.45957 -7.5683,5.45957 -0.90303,0 -0.3524,-40.83812 0.56553,-41.94569 1.01058,-1.21973 10.7678,-3.17024 15.86862,-3.172 6.08611,-0.002 12.93857,-5.6687 9.56741,-7.91128 -4.46337,-2.96988 -14.6773,0.1262 -21.89837,6.63781 -5.20575,4.69432 -5.21805,4.67913 -5.21676,-6.63781 0.002,-15.0147 1.41545,-16.5703303 14.62547,-16.0983303 5.25175,0.188 7.70757,0.6233 10.86237,1.9254103 m -66.8987,14.82192 c -4.11939,2.15847 -7.87536,6.77159 -7.87536,9.67253 0,2.65735 0.68214,2.88225 2.68451,0.88559 2.72919,-2.72161 6.61601,-3.96762 12.40738,-3.97872 5.9734,-0.0112 6.86672,-0.29851 7.6104,-2.4488 1.57676,-4.56114 -8.59635,-7.3949 -14.82693,-4.1306 m 62.35242,17.4261 c -4.25284,0.75182 -5.76417,2.21222 -6.25001,6.0414 -0.47743,3.75674 0.23256,4.98231 2.58926,4.46942 0.96783,-0.2103 6.80065,-0.4574 12.96127,-0.54795 14.91957,-0.21964 13.92389,0.17116 12.20851,-4.79771 -0.77607,-2.24902 -1.99199,-4.48695 -2.70264,-4.97355 -1.48736,-1.01878 -13.43869,-1.14028 -18.80639,-0.1916 m -53.05256,33.27499 c 9.87448,5.41576 13.49182,14.16941 8.56074,20.71377 -2.24723,2.982142 -3.44697,3.114742 -6.58623,0.72844 -5.47458,-4.16038 -7.36229,-4.08327 -12.97227,0.53393 -4.4828,3.688392 -6.07057,3.421432 -14.23096,-2.39214 -5.50633,-3.92322 -5.59054,-4.36252 -1.46792,-7.62739 1.74584,-1.38212 6.03041,-4.97589 9.52142,-7.98548 9.34198,-8.05383 9.616,-8.11692 17.17522,-3.97113 m 123.08016,6.22774 c -3.26622,6.52801 -3.78642,10.94251 -3.19302,27.113262 0.8266,22.53343 -3.89849,31.98165 -22.00332,44.00018 -8.09366,5.37311 -8.34889,4.65751 -2.78296,-7.79622 2.19865,-4.9198 4.39081,-10.03122 4.87084,-11.35901 1.09738,-3.03297 3.84406,-5.40991 8.86649,-7.67412 4.19647,-1.89152 4.57803,-2.57031 2.75835,-4.91338 -1.93758,-2.49437 -4.09995,-1.85588 -24.83615,7.33472 -10.95955,4.85731 -23.95256,10.48452 -28.87327,12.50397 -13.43286,5.5139 -18.74744,10.15214 -28.40685,24.79181 -2.81017,4.25912 -5.46877,7.7337 -5.90732,7.72085 -0.43857,-0.0122 -3.65362,-3.86248 -7.14463,-8.55503 -15.06015,-20.24413 -42.58987,-35.94813 -61.89896,-35.30964 -1.91168,0.0631 -3.37571,-0.54327 -5.97405,-2.47451 -16.64857,-12.37486 -21.7552,-12.58691 -27.02508,-1.12217 -2.5815,5.61612 -2.81471,4.3742 -2.88014,-15.31904 -0.0784,-23.526502 -0.13086,-23.872912 -4.18611,-27.689222 -6.11527,-5.75575 -12.24933,-5.4771 -18.39569,0.83592 -5.1928,5.33281 -5.20251,5.39882 -4.94857,33.274402 l 0.22803,25.06986 3.60243,7.15655 c 12.84725,25.52434 36.9747,56.17586 54.25294,68.92284 5.95072,4.38997 5.99153,4.39932 5.99153,1.33598 0,-3.05633 -1.03842,-4.47585 -9.83495,-13.44388 -13.25732,-13.51457 -23.07996,-26.21365 -34.91469,-45.13755 -11.03988,-17.65335 -10.77623,-16.55045 -10.83453,-45.22926 -0.0544,-26.652932 -0.38933,-25.179672 5.827,-25.644082 5.56075,-0.41593 5.43313,-0.88384 5.92935,21.737212 0.4716,21.51465 0.75274,23.11058 5.24462,29.77819 8.76608,13.01278 26.61761,23.75843 43.43719,26.14647 14.46158,2.05333 29.62472,11.48345 36.21743,22.52468 6.98073,11.69023 7.4925,14.37679 7.98807,41.91824 l 0.40876,22.72679 h 3.93347 3.93411 l 0.55063,-13.90713 c 0.90887,-22.95871 0.20795,-37.97924 -2.03799,-43.66781 -4.72638,-11.96829 -20.59498,-27.875 -32.69919,-32.77611 -8.15974,-3.3046 -8.0982,-3.25961 -9.42296,-6.88842 -1.43877,-3.94309 -6.59464,-12.94268 -10.94595,-19.10791 -1.64153,-2.32613 -2.85422,-4.34149 -2.69551,-4.47936 0.36342,-0.31544 22.15554,8.35935 27.1715,10.81691 14.05539,6.88493 33.75576,26.81067 38.02802,38.46235 1.6072,4.38237 0.82466,4.7463 7.23922,-3.36711 20.72583,-26.21306 24.57832,-29.37629 44.34282,-36.40317 3.69637,-1.31436 9.66264,-3.77426 13.2586,-5.46716 8.63717,-4.06576 9.04334,-3.85956 5.02696,2.55745 -1.23731,1.97739 -3.42235,6.55429 -4.85594,10.17084 -4.23793,10.6954 -2.73114,9.42719 -20.28663,17.07327 -27.60162,12.02262 -38.47048,33.59219 -36.2537,71.94587 0.84344,14.57891 1.73807,16.17426 8.19732,14.61339 l 1.67651,-0.40542 -0.15742,-21.30202 c -0.309,-41.73948 5.0898,-48.46377 58.07757,-72.34135 13.81701,-6.22598 18.65416,-9.68597 23.92016,-17.10949 5.78424,-8.15373 6.17098,-10.00844 6.95417,-33.33166 0.65428,-19.505712 0.96977,-20.894842 4.90129,-21.572472 2.41177,-0.41534 5.3353,2.44413 6.0602,5.92864 1.28785,6.190372 -0.17555,45.582682 -1.86245,50.122782 -5.72009,15.3979 -28.35695,48.0823 -44.07203,63.63442 -5.26988,5.21539 -10.41733,12.08689 -9.60369,12.82059 0.49557,0.44688 8.97986,-2.98097 11.90729,-4.80998 10.9725,-6.85747 37.60761,-43.43589 49.41838,-67.86784 l 2.31395,-4.78779 0.26365,-24.41852 c 0.3142,-29.062012 0.1535,-30.004842 -6.0712,-35.606952 -3.8564,-3.4705 -6.4379,-4.55237 -12.8071,-5.36727 l -2.98703,-0.38204 -1.99977,3.99566 M 435.86502,137.2088 c 22.79751,21.47611 27.78172,29.03924 18.36005,27.85866 -0.56553,-0.0712 -1.87151,-1.03339 -2.90346,-2.13921 -1.03194,-1.10581 -4.60199,-3.24443 -7.93365,-4.75273 -22.20153,-10.05167 -35.47763,-27.39249 -24.12746,-31.51433 3.71127,-1.34765 4.52945,-0.82775 16.60452,10.54761"
       stroke="none"
       fill="#000000"
       fill-rule="evenodd"
       style="stroke-width:0.61516" /><path
       id="path0-5"
       d="m 281.22965,257.01206 c -5.61062,2.9545 -8.53924,13.4855 -6.30167,22.6484 1.89076,7.7467 7.89443,18.581 11.72733,21.1694 l 2.25555,1.5235 17.66422,0.1852 c 19.90692,0.2071 18.39123,-0.2147 18.78428,5.1989 0.39564,5.4282 2.10142,5.0769 -25.24267,5.1989 -23.09758,0.1036 -23.61137,0.1331 -25.34285,1.3386 -10.27844,7.1624 -10.01897,23.7466 0.4881,31.3823 2.19647,1.5975 2.3429,1.065 -2.10398,7.6617 -4.13604,6.1345 -4.44945,7.0368 -4.18485,12.0656 0.68077,13.027 14.0651,22.8777 22.76104,16.7507 7.55534,-5.3211 15.28536,-25.6918 11.70679,-30.8463 -0.77839,-1.1167 -1.38724,-1.1796 -1.38724,-0.1368 0,6.8962 -6.53032,20.7367 -11.52439,24.4307 -7.1931,5.3173 -17.19409,-1.2462 -17.18638,-11.2743 0.005,-6.9479 15.81198,-25.5548 16.85241,-19.8345 0.2826,1.5568 0.2004,1.5789 1.74948,-0.5027 l 1.29732,-1.7452 h 16.63919 c 9.50775,0 17.74386,-0.2623 19.21588,-0.6064 12.26939,-2.8656 13.74911,-24.3123 2.04747,-29.722 -4.05127,-1.8747 -4.03328,-2.2444 0.44186,-9.0076 8.41336,-12.7089 9.25598,-24.4123 2.45336,-33.9966 -6.52518,-9.1891 -14.08051,-8.4717 -23.54972,2.2368 -5.79558,6.556 -5.16105,6.6263 -9.92906,-1.1278 -7.43458,-12.0988 -13.40486,-16.1109 -19.33147,-12.9863 m 8.38254,6.7039 c 1.72377,1.2646 3.60426,3.8419 7.9715,10.9268 3.77639,6.1233 5.22272,7.1624 9.62335,6.9257 3.06735,-0.1663 3.13928,-0.2033 3.26259,-1.7305 0.66023,-8.2162 15.02075,-13.9107 20.04565,-7.95 5.98055,7.0959 4.3878,19.1577 -3.74812,28.3649 -1.96269,2.2187 -1.98838,2.2002 -3.13671,-2.3701 -0.88115,-3.498 -0.91712,-3.5091 -9.47178,-2.7437 -11.48329,1.0279 -24.84705,0.5065 -26.86626,-1.0427 -3.6582,-2.814 -7.86361,-11.792 -8.74733,-18.6734 -1.26136,-9.8137 4.84764,-16.2773 11.06711,-11.707 m 304.48161,2.5477 c -0.3108,0.6879 -0.1488,96.754 0.1672,98.1888 0.2288,1.0427 4.15657,2.1224 4.99921,1.3755 0.3032,-0.2699 0.43412,-15.2455 0.43412,-50.0705 v -49.686 l -2.66916,-0.1958 c -1.49256,-0.1073 -2.78217,0.061 -2.93117,0.3885 m 183.85064,49.331 c -0.1104,27.6145 -0.136,50.311 -0.0616,50.4367 0.0772,0.1293 1.53628,0.3621 3.24464,0.5216 l 3.10588,0.285 -0.2672,-14.4876 c -0.1464,-7.9685 -0.2672,-30.7944 -0.2672,-50.725 l -0.003,-36.2338 h -2.77448 -2.77704 l -0.2,50.2037 m 47.30488,-45.6924 c -0.0924,2.1595 -0.2156,18.9913 -0.27,37.3984 -0.0564,18.4072 -0.2388,38.9701 -0.40332,45.6926 -0.3572,14.5209 -0.7116,13.0972 3.23948,13.0972 h 3.22404 l -0.2928,-3.0543 c -0.53176,-5.5576 -0.3828,-41.2108 0.1848,-43.9324 1.55936,-7.4988 9.49745,-13.0417 14.88718,-10.3979 6.01392,2.9545 6.60736,6.4747 6.6202,39.2215 l 0.008,18.2149 3.06736,-0.1701 3.06737,-0.1701 -0.0696,-18.0448 c -0.1156,-30.6797 -0.3572,-35.5533 -1.92161,-39.0661 -4.47252,-10.0319 -14.22433,-11.3076 -23.35442,-3.0544 l -2.42516,2.1928 -0.3184,-3.9011 c -0.1772,-2.1483 -0.2672,-11.5664 -0.2028,-20.929 l 0.1156,-17.0279 h -2.49188 -2.49448 l -0.1688,3.9307 m -461.07042,15.5414 c -0.38276,8.3383 -0.8606,20.8402 -1.06098,27.7808 -0.2004,6.9406 -0.56003,17.0241 -0.79895,22.4118 -0.61141,13.7184 -1.14319,29.5446 -0.99933,29.7813 0.0668,0.1073 1.36156,0.2403 2.87981,0.2917 l 2.76164,0.092 0.28004,-10.1871 c 0.15156,-5.602 0.47012,-18.0447 0.7039,-27.6514 0.4804,-19.6423 1.22283,-41.2442 1.48486,-43.2188 0.69362,-5.2211 3.03138,2.9767 7.42689,26.0503 1.32814,6.9665 6.48663,30.58 7.56818,34.6327 0.34168,1.2794 1.39752,5.9939 2.34804,10.4792 l 1.72634,8.1461 2.54328,0.2994 c 3.83286,0.4475 4.01783,0.1852 5.55153,-7.8798 1.97809,-10.409 15.8993,-70.6113 16.49014,-71.3176 0.93772,-1.1204 1.07384,0.4695 1.43608,16.8098 0.1956,8.8559 0.54204,21.3431 0.77068,27.7476 0.2288,6.4007 0.60884,17.1425 0.84777,23.8649 0.50352,14.2288 0.0796,12.6535 3.43216,12.7385 3.37816,0.085 3.21376,0.9504 2.43792,-12.8864 -0.3544,-6.3231 -0.84004,-18.0411 -1.0764,-26.0466 -0.2388,-8.0056 -0.60628,-17.4347 -0.81692,-20.9549 -0.2132,-3.5202 -0.50608,-13.038 -0.64996,-21.1435 -0.262,-14.58 -0.2748,-14.7391 -1.10976,-14.4136 -0.465,0.1777 -2.40968,0.3288 -4.31845,0.3327 l -3.47584,0.01 -0.50864,2.4738 c -0.5446,2.64 -4.75256,19.0135 -6.99529,27.2113 -1.6544,6.0532 -5.63888,23.6504 -8.35681,36.903 -2.90038,14.1401 -3.33453,14.1142 -6.05765,-0.3439 -2.11169,-11.2114 -6.33249,-29.748 -10.37862,-45.5815 -1.71862,-6.7223 -3.52719,-14.3175 -4.02043,-16.8799 l -0.89913,-4.6555 -4.23366,-0.03 -4.23366,-0.03 -0.69876,15.1643 M 20.583136,271.11456 c -0.218344,0.1074 -0.39562,0.5988 -0.39562,1.0946 0,0.4958 -1.382103,6.959 -3.067343,14.3581 -3.763536,16.5065 -5.790454,25.5696 -9.2559888,41.3958 -1.474588,6.726 -3.9664854,17.8229 -5.538691,24.6636 -3.21891722,14.0106 -3.27286242,13.2785 0.9530844,13.2156 l 2.8875206,-0.038 0.542053,-3.4241 c 0.657653,-4.1489 4.1283278,-20.6184 4.6472578,-22.053 0.346808,-0.9504 1.251089,-1.017 12.341319,-0.8726 l 11.971385,0.1549 0.557466,2.6179 c 0.69619,3.2651 2.828431,16.7544 3.265156,20.6665 l 0.32368,2.9102 3.547747,0.5064 c 4.364672,0.6289 4.267051,0.7838 2.97743,-4.7184 -0.847748,-3.6236 -2.764198,-13.3817 -4.202819,-21.402 -1.043001,-5.8092 -4.105212,-19.8715 -7.480832,-34.3407 -2.24014,-9.6065 -4.821952,-21.2617 -5.739071,-25.9059 l -1.66726,-8.4382 -3.134139,-0.2919 c -1.723776,-0.1586 -3.313969,-0.2032 -3.532331,-0.096 m 615.01058,-0.053 -2.72052,0.2033 -0.012,47.3749 c -0.008,26.0577 0.126,47.4971 0.2956,47.645 0.1696,0.1481 1.57988,0.1329 3.13668,-0.03 l 2.831,-0.2956 -0.144,-21.8164 c -0.0772,-11.999 0.012,-22.0198 0.2028,-22.2712 0.614,-0.8098 29.15779,0.038 29.96703,0.8875 0.64736,0.6803 0.727,2.6105 0.91196,21.8941 l 0.2028,21.1507 3.18296,0.1701 3.18296,0.1701 -0.2388,-31.8927 c -0.1312,-17.5418 -0.244,-38.8813 -0.2516,-47.4193 l -0.012,-15.5228 -2.83104,-0.192 -2.83096,-0.1959 -0.054,2.9137 c -0.032,1.5975 -0.1672,11.1486 -0.3032,21.2175 l -0.2492,18.311 -1.5722,0.4694 c -0.86576,0.2586 -7.68889,0.4029 -15.16462,0.3183 l -13.59241,-0.155 -0.1056,-21.6796 c -0.0848,-16.8393 -0.2184,-21.6574 -0.60888,-21.5687 -0.2748,0.06 -1.72376,0.2033 -3.22148,0.3144 m -610.966595,13.0381 c 0.0026,0.843 0.477827,3.8567 1.055842,6.6928 3.524625,17.3312 5.464193,26.8084 6.532886,31.937 0.66793,3.1985 1.341001,6.6596 1.495137,7.6912 l 0.280024,1.8674 -8.824401,0.1663 c -10.948935,0.2109 -12.26168,0.092 -12.26168,-1.0871 0,-1.357 2.175918,-11.9584 5.058298,-24.6452 1.420639,-6.2453 3.159828,-14.103 3.868865,-17.4642 1.816257,-8.6156 2.774482,-10.3831 2.795035,-5.1583 m 777.672449,-0.344 c -0.334,0.1036 -1.27164,0.3402 -2.08344,0.5322 l -1.47712,0.3439 -0.1412,7.5729 c -0.1568,8.4123 -0.1336,8.342 -3.03653,8.9708 -1.98068,0.4248 -2.56384,1.4753 -2.56384,4.6072 v 2.0448 l 2.52784,0.1739 2.52789,0.1739 -0.1464,23.7355 c -0.16961,27.6219 -0.14401,28.036 1.8548,31.0015 4.97868,7.3732 16.69057,6.2048 16.69057,-1.6677 0,-2.2518 -2.2684,-2.9285 -3.99472,-1.1869 -1.4104,1.4236 -6.80009,-1.2129 -7.53993,-3.6903 -0.1696,-0.573 -0.3956,-11.6774 -0.50096,-24.6748 l -0.1928,-23.6356 1.31276,-0.3773 c 0.72184,-0.2071 3.2908,-0.3772 5.71077,-0.3772 h 4.39552 v -2.8398 c 0,-4.2339 -0.3288,-4.4373 -5.97801,-3.7273 -5.95996,0.7469 -5.50788,1.505 -5.179,-8.6526 l 0.28,-8.6452 -0.92996,0.068 c -0.51124,0.038 -1.20228,0.1519 -1.53624,0.2517 m -275.50119,4.1563 c -0.578,0.2184 -0.71416,0.9724 -0.74756,4.1524 -0.02,2.1374 -0.1568,5.3285 -0.3032,7.0885 l -0.262,3.2023 -3.23689,0.2918 -3.23432,0.2887 -0.1232,2.7659 -0.1232,2.7659 h 2.95428 2.95437 l -0.1128,24.2236 c -0.1312,27.5922 -0.1876,27.0525 3.3576,31.5488 4.25168,5.3838 11.99453,4.9697 14.23209,-0.7655 1.69556,-4.3374 1.63644,-4.3928 -4.36468,-4.2227 -7.54245,0.2109 -6.84369,2.9027 -6.84369,-26.3905 v -23.791 l 1.05584,-0.381 c 0.58316,-0.211 2.36084,-0.2215 3.95105,-0.03 3.89712,0.4732 4.56248,0.1587 4.8836,-2.3074 0.5292,-4.0489 0.3212,-4.2338 -4.96068,-4.4151 l -4.72689,-0.1625 -0.1156,-7.1328 -0.1132,-7.1292 -1.7058,0.068 c -0.93768,0.038 -2.02432,0.1882 -2.41484,0.3327 m -378.41936,13.1709 c -11.3908,6.3007 -15.84538,20.0599 -13.78507,42.5939 1.43605,15.7003 9.81859,25.074 21.45601,23.9905 7.2188,-0.6728 13.28155,-5.491 12.33361,-9.7989 -0.29796,-1.3496 -0.32624,-1.3496 -2.81816,0 -4.95553,2.6809 -13.93151,2.7585 -17.47154,0.152 -4.71662,-3.4721 -8.09482,-13.456 -7.72488,-22.8223 l 0.12588,-3.1652 14.75871,-0.023 14.76128,-0.03 -0.0284,-7.2475 c -0.0437,-10.8198 -2.79757,-17.6569 -8.91429,-22.1237 -3.15982,-2.311 -9.82629,-3.1097 -12.69326,-1.5234 m 40.86455,-0.174 c -9.76978,2.9656 -14.32712,18.7696 -7.96893,27.633 2.09884,2.9286 2.55098,3.3058 9.56683,8.0166 7.98949,5.3654 10.39661,11.0006 7.84306,18.3739 -2.32491,6.715 -10.29128,7.8613 -16.36945,2.3554 -2.50989,-2.2704 -3.00827,-2.1558 -3.81235,0.8763 -0.85547,3.2282 -0.50609,4.2672 2.1348,6.3379 9.05561,7.0922 22.06487,2.5552 24.49511,-8.5528 2.68457,-12.2578 0.22348,-17.5862 -12.79088,-27.6846 -6.43784,-4.9956 -8.4853,-8.9005 -7.35239,-14.0365 1.49257,-6.7742 10.51478,-9.4956 15.25966,-4.6036 3.42957,3.535 5.49502,2.3074 5.24583,-3.1135 -0.17212,-3.7088 -10.62781,-7.3104 -16.25129,-5.602 m 36.08885,0.2072 c -6.07818,2.8693 -9.39471,8.9484 -9.40498,17.2386 -0.0104,8.0462 2.48162,12.2135 9.98557,16.7063 9.17121,5.491 12.60849,12.0434 10.28613,19.6014 -2.05259,6.6781 -10.44027,7.5507 -17.17867,1.7934 -3.10074,-2.6475 -3.11615,-2.6401 -4.0975,2.4072 -1.24595,6.4304 14.53778,11.315 21.00901,6.5006 6.90281,-5.1325 8.85008,-19.1836 3.80207,-27.437 -1.53881,-2.5144 -6.96448,-7.4139 -13.28926,-11.9991 -3.78924,-2.7436 -4.8682,-4.6146 -4.8682,-8.4195 0,-8.7155 8.33117,-13.0493 15.42151,-8.0314 3.45783,2.4477 3.43984,2.4552 4.03327,-1.3572 0.59857,-3.8567 0.70134,-3.6976 -3.75068,-5.7499 -3.90998,-1.8007 -9.53601,-2.3923 -11.94827,-1.2534 m 221.69928,-0.2888 c -16.99373,6.4118 -20.5569,52.0748 -4.95296,63.4341 9.11208,6.63 24.56446,3.2243 24.56446,-5.4135 0,-2.3739 -0.3572,-2.5293 -2.63836,-1.1574 -13.86214,8.3347 -25.26323,-0.9132 -25.26323,-20.4926 0,-4.9993 0.0616,-5.406 0.87344,-5.7758 0.89917,-0.4104 18.84598,0.078 25.10911,0.6841 l 3.53744,0.3402 -0.003,-2.5329 c -0.012,-13.0418 -3.30112,-23.0996 -9.04025,-27.6404 -2.20156,-1.7453 -9.19945,-2.5735 -12.18713,-1.4457 m 30.87639,31.4674 c -0.032,17.6232 -0.0796,32.3734 -0.1028,32.7727 -0.028,0.5102 0.89144,0.7765 3.09308,0.8985 l 3.13412,0.1701 v -23.8353 -23.839 l 2.7822,-3.7052 c 6.38897,-8.5121 11.56289,-9.3071 17.20178,-2.6401 1.66984,1.9708 1.83936,4.8588 1.81884,30.824 -0.02,25.1222 -0.2848,23.1438 3.09304,23.1438 h 2.60493 v -26.9451 -26.9488 l -1.31533,-3.1541 c -4.61388,-11.0821 -14.59941,-12.0953 -23.50346,-2.3851 -3.24204,3.5388 -3.03652,3.5979 -3.129,-0.9429 -0.0976,-4.574 -0.0976,-4.574 -3.09048,-5.0511 l -2.52788,-0.4067 -0.0588,32.0444 m 86.19647,-31.4527 c -8.08965,1.3201 -14.14981,6.1715 -13.61553,10.9009 0.3364,2.9803 0.3108,2.9766 4.21312,0.3249 7.65297,-5.1989 14.39909,-5.1471 17.89546,0.1369 l 1.41548,2.141 v 6.7113 c 0,8.1386 -0.3724,8.9374 -4.19001,8.9411 -12.89365,0.023 -21.69233,8.5194 -21.69233,20.9511 0,16.0481 11.19297,21.8867 22.69169,11.84 3.21889,-2.814 3.58113,-2.8065 4.95037,0.082 2.46108,5.1879 6.276,5.5651 10.14489,1.002 l 1.8188,-2.1483 -1.19968,-0.3696 c -0.66024,-0.2033 -1.84708,-0.4029 -2.64092,-0.4399 -3.45273,-0.1663 -3.61969,-1.3017 -3.97421,-27.1337 l -0.2876,-20.9549 -1.06612,-2.9656 c -2.5998,-7.2253 -7.33696,-10.1798 -14.46329,-9.0187 m 138.50844,0.2956 c -10.45573,4.2708 -14.50698,13.0417 -14.54038,31.4785 -0.046,26.9672 10.04469,39.7762 26.99727,34.2702 5.68,-1.8451 7.15716,-3.5239 7.15716,-8.1237 0,-2.9251 -0.2084,-3.0396 -2.47908,-1.372 -11.88657,8.7303 -25.1373,-1.7269 -25.7513,-20.3152 l -0.1772,-5.4355 14.81009,0.1958 14.81009,0.1957 v -5.5945 c 0,-19.3613 -8.89636,-30.1697 -20.82661,-25.2998 m 45.29343,-0.2661 c -3.09044,0.6879 -8.20528,2.8768 -11.06197,4.7331 l -2.56636,1.6713 0.2828,3.646 c 0.3572,4.5926 0.60116,4.9439 2.13996,3.0802 6.69217,-8.1054 17.86718,-8.3827 20.15358,-0.5065 0.61908,2.1335 0.9916,11.411 0.578,14.3729 l -0.2336,1.6602 -4.64472,0.1883 c -13.11973,0.5291 -21.02702,8.4123 -21.02702,20.9548 0,16.111 11.96629,22.3785 23.7681,12.454 3.43472,-2.8918 3.26772,-2.9249 6.06276,1.2128 3.46813,5.1323 5.43337,4.8994 8.03833,-0.9577 1.69036,-3.8086 1.82136,-3.4758 -1.68528,-4.282 -3.8868,-0.8912 -3.60168,0.8357 -3.84316,-23.1661 -0.2084,-20.415 -0.2572,-21.5096 -1.12776,-24.6563 -2.06037,-7.4434 -8.33889,-11.8511 -14.83326,-10.4052 m 226.17959,0.2252 c -2.65892,1.4273 -5.53872,4.4964 -8.20272,8.7377 -3.03141,4.8291 -3.29085,4.7367 -3.64793,-1.3016 -0.3956,-6.6522 -0.65,-7.2697 -2.85668,-6.911 -1.00708,0.1625 -1.86508,0.3923 -1.91132,0.5102 -0.044,0.1179 0.012,14.3471 0.1204,31.6227 l 0.2028,31.4083 1.81884,0.7654 c 1.00192,0.4256 2.366,0.6984 3.03392,0.61 l 1.21256,-0.1625 0.2028,-21.2471 c 0.2336,-24.5452 0.04,-23.2732 4.56509,-29.918 3.33192,-4.8883 5.94196,-6.2639 9.05817,-4.7774 2.26324,1.0835 3.26512,0.7988 3.75836,-1.0723 0.55492,-2.1077 0.92484,-7.7245 0.5292,-8.0758 -0.93252,-0.8283 -6.44553,-0.9613 -7.88413,-0.1882 m 28.74404,-0.2518 c -7.85066,3.609 -13.05022,12.0805 -14.07527,22.9369 -2.19132,23.1549 3.26261,39.3176 14.55837,43.1485 7.8816,2.6734 19.3571,-1.8083 19.3777,-7.5692 0.012,-2.7585 -0.6526,-3.3059 -2.4304,-2.0005 -5.9625,4.378 -16.8241,2.9286 -20.70319,-2.7659 -3.8123,-5.5946 -6.55595,-20.3558 -4.1077,-22.1122 0.9068,-0.6509 17.45089,-0.5692 23.95559,0.1179 l 4.5936,0.4883 -0.1644,-7.2216 c -0.2596,-11.3704 -3.3811,-18.9877 -9.5826,-23.3843 -2.8001,-1.9855 -8.7936,-2.8472 -11.4216,-1.6381 m -934.800205,1.1982 c -14.453005,6.1456 -20.76753,34.6696 -11.855778,53.5574 5.808432,12.3135 23.005095,16.2774 28.333127,6.5302 2.491898,-4.5629 0.544621,-6.6262 -4.125759,-4.367 -12.200022,5.8978 -21.263334,-3.2872 -21.715474,-22.0087 -0.493241,-20.4335 8.690815,-31.4821 21.075797,-25.3588 4.346692,2.1484 4.742316,1.7639 4.742316,-4.6221 0,-3.5498 -11.010589,-6.0458 -16.454229,-3.731 m 38.899295,0.3697 c -19.051463,9.6104 -19.539567,55.0736 -0.68848,64.2142 6.25801,3.0358 20.06877,-0.4104 20.3642,-5.0769 0.3006,-4.7404 -0.10792,-5.0103 -4.31073,-2.8842 -13.49735,6.8371 -23.251714,-3.254 -23.251714,-24.0535 0,-20.7959 9.785194,-31.5562 22.005764,-24.1978 3.95108,2.3777 4.02301,2.3518 4.44946,-1.4902 0.32112,-2.9027 0.1644,-3.228 -2.3429,-4.8217 -5.36401,-3.4019 -11.55521,-4.0491 -16.2256,-1.6899 m 776.04118,0.192 c -9.15069,4.3781 -13.5693,14.0365 -13.86218,30.2989 -0.362,20.1081 4.83737,31.3085 16.09202,34.6808 6.0268,1.8008 16.37457,-1.6271 17.37393,-5.7574 1.31532,-5.432 0.42388,-6.2269 -4.04872,-3.62 -16.58009,9.6621 -29.76403,-14.4136 -21.39946,-39.081 3.54772,-10.4571 12.24625,-14.4285 19.86066,-9.0667 3.45524,2.433 3.44496,2.4367 4.59844,-1.1537 1.19712,-3.7162 1.30248,-3.5572 -3.87656,-5.7389 -6.28369,-2.6512 -10.07037,-2.7916 -14.73813,-0.5616 m 39.03031,-0.2586 c -5.30237,2.1115 -8.90149,5.1547 -8.89121,7.51 0.02,4.1748 0.89652,4.6776 4.09237,2.3481 4.67036,-3.4093 12.29509,-4.8182 15.03101,-2.7844 4.21312,3.1357 4.73204,4.5926 4.73204,13.2599 0,7.8096 0.59856,7.0368 -5.86496,7.5877 -13.44081,1.1464 -20.01738,7.7467 -20.01738,20.1007 0,16.0369 11.46013,22.5967 22.61202,12.9456 3.612,-3.1245 3.83036,-3.2354 4.24652,-2.1557 2.52016,6.5598 6.63309,7.9908 10.72289,3.7274 2.17332,-2.2668 2.01408,-2.7733 -1.5748,-5.0105 -3.87916,-2.4146 -3.63768,-1.161 -3.66848,-19.1097 -0.044,-26.0244 -0.4136,-29.6112 -3.57085,-34.6585 -3.17784,-5.0806 -10.60724,-6.6448 -17.84917,-3.7606 m -765.54951,4.9439 c 4.03071,1.0982 7.16742,6.6262 7.5913,13.3708 0.34168,5.4097 0.34168,5.4097 -11.72734,4.7627 -12.25141,-0.6509 -12.25397,-0.6546 -9.57454,-8.3014 3.06992,-8.7524 7.09548,-11.6366 13.71058,-9.8321 m 300.9904,1.5678 c 2.47136,2.4479 4.51372,10.2426 3.78152,14.4358 l -0.2544,1.4643 -8.7884,-0.053 c -11.78901,-0.068 -12.87054,-0.2888 -12.70614,-2.57 0.83237,-11.5849 11.62457,-19.5608 17.96734,-13.2783 m 254.68737,-0.6026 c 4.15401,3.9937 5.60033,8.2829 4.99917,14.8279 l -0.28,3.021 -10.60217,-0.3697 c -12.33361,-0.4324 -12.08697,-0.3621 -11.80437,-3.3834 0.4778,-5.136 3.86624,-11.9324 6.95932,-13.9662 2.22217,-1.4605 9.25341,-1.5456 10.72801,-0.1293 m 299.47988,-0.03 c 4.4212,3.0212 8.1718,15.2863 5.2586,17.1981 -1.0302,0.6728 -20.39759,-0.189 -21.25049,-0.9468 -2.07823,-1.8488 2.0655,-12.5942 5.99849,-15.5524 2.6204,-1.9709 7.6196,-2.3184 9.9934,-0.6993 m -679.45306,10.801 c 3.34994,2.1965 3.32425,13.3563 -0.0384,15.5599 -0.7861,0.5178 -6.47379,0.6728 -21.93127,0.6063 -23.1875,-0.1 -21.56904,-0.3583 -26.43467,4.2264 l -3.13925,2.9545 -1.74948,-0.9612 c -7.45256,-4.0971 -9.79289,-12.5465 -5.1482,-18.5848 2.6486,-3.4425 2.99798,-3.498 18.15232,-2.7586 13.8981,0.673 32.58991,0.1218 35.66496,-1.0537 2.00636,-0.7691 3.44242,-0.7654 4.62414,0.01 m 241.0718,16.4511 c 1.20484,1.2683 1.17404,14.8055 -0.04,17.8006 -5.34089,13.1972 -21.53054,6.6006 -18.77914,-7.6541 1.323,-6.8593 14.95649,-14.2103 18.81766,-10.1465 m 183.98171,7.7133 c 0,8.2238 -0.004,8.2533 -1.22028,10.7678 -3.27288,6.7742 -11.71705,7.6579 -16.02521,1.6788 -2.04233,-2.8326 -2.17593,-3.4353 -1.96781,-8.7525 0.27761,-7.0035 7.15453,-12.2468 15.77342,-12.0286 l 3.43988,0.085 v 8.2495 m 179.44479,-7.155 c 1.38728,3.0433 0.012,17.2868 -1.92152,19.9121 -8.28753,11.2484 -22.94606,-1.4901 -15.71181,-13.6555 3.33452,-5.6094 15.89929,-10.0652 17.63333,-6.2566"
       stroke="none"
       fill="#000000"
       fill-rule="evenodd"
       style="stroke-width:3.08209" /></g></svg>
