<svg xmlns="http://www.w3.org/2000/svg" version="1.0" viewBox="0 0 2048 2048">
  <path fill="#fff" stroke="#000" stroke-linecap="round" stroke-linejoin="round" stroke-width=".999756" d="M920.73014 2.810351c-6.02203.7543315-33.12075 4.9032546-59.46687 9.052228-26.72242 4.148923-68.87613 13.20115-94.09307 20.367549-25.21689 6.789183-63.60691 19.235998-85.43653 27.533895-21.82951 8.297894-55.70309 21.876212-75.27441 30.92849-19.57137 8.675062-53.44489 26.025197-75.27441 38.472017-21.82967 12.82403-53.82128 32.81436-71.51079 44.50685-17.6895 12.06965-48.17566 33.94591-67.747 49.41015-19.57139 15.08709-62.10147 53.93626-94.46945 85.99629-34.62624 35.07741-71.88714 76.94406-92.2112 104.10074-18.44225 24.89369-44.03559 62.98853-57.2086 84.86478-13.17302 21.87627-36.13176 64.87442-51.563021 96.18007-15.431261 30.92849-33.873501 75.05812-41.400922 98.06595-7.527471 22.63057-18.44224 61.10257-24.087832 84.86471-6.021958 24.13931-13.549381 59.59395-16.936776 79.20711-3.387346 19.61321-7.527423 52.80474-9.7856696 73.54948C2.3817587 950.65534.49987798 991.39044.49987798 1020.433c0 29.0427 2.63461292 75.8126 5.64559192 103.7237 3.0109791 27.911 7.9037891 64.4971 11.2911841 81.0929 3.01098 16.5958 10.538402 48.6559 16.56036 71.6636 6.021958 22.6306 18.818605 63.3657 28.604274 90.5225 9.78567 26.7794 29.357059 72.795 43.282802 101.8376 13.9258 29.0426 37.63727 72.0408 52.31576 95.8029 15.05488 23.7622 41.0246 61.1026 57.96132 82.9788 16.93679 21.8763 56.45587 65.6288 87.3184 96.5573 31.23889 31.3056 73.39259 69.7777 94.09308 85.619 20.70043 15.8415 57.58493 41.4896 81.2964 56.9538 24.08789 15.8415 62.10141 37.7177 84.68385 49.4102 22.58227 11.3153 59.84312 28.2882 82.42546 37.7177 22.95874 9.0521 61.72507 22.6305 86.56561 30.1741 24.84057 7.1663 60.59589 16.5957 79.03823 20.7447 18.81861 4.1489 52.69214 10.1838 75.27437 13.2012 22.95879 3.0174 65.11234 6.7891 94.09311 8.2979 31.23892 1.5087 75.65102.7544 109.14812-1.8859 31.2389-2.6403 70.7579-7.1663 88.4474-10.1838 17.6896-3.0174 56.0795-11.3152 85.8128-18.8589 29.3572-7.1662 73.3926-19.9903 97.8569-28.2882 24.0879-8.2978 71.1344-28.2883 104.2551-44.5068 33.1208-16.2186 81.6728-44.1297 108.0189-61.4798 25.9697-17.7274 63.2305-44.5069 82.8019-59.594 19.195-15.087 48.9283-39.9808 65.8651-55.445 16.5604-15.087 47.0465-46.3928 67.3706-69.4004 20.3242-22.6307 47.0465-55.4451 59.0905-72.418 12.4203-16.9729 35.7554-53.9363 52.6921-81.8473 16.5604-27.9111 39.1428-69.7777 50.0576-93.1626 10.9147-23.0079 24.8405-56.1994 31.2389-73.5496 6.0219-17.35 17.3132-52.4275 24.8405-78.4527 7.1512-26.0251 17.3132-70.1549 22.206-98.066 4.8928-27.911 11.2911-71.2863 13.5494-96.18 3.011-29.0426 4.14-70.1548 2.6346-115.03887-1.1291-38.472-4.8929-86.75061-7.9038-107.49534-3.011-20.74468-9.033-54.31343-13.5494-75.05817-4.5165-20.36752-14.6785-58.08521-22.9587-83.73324-8.2802-25.64799-22.5823-64.87441-31.9917-87.12782-9.0329-22.25337-27.0988-59.97106-39.519-84.11035-12.4203-23.76215-35.0027-62.2342-50.0575-84.8648-15.0549-23.00776-41.0247-58.46238-57.5851-79.2071-16.5604-20.74472-49.3048-56.95368-72.2635-79.96148-23.335-23.38493-59.4668-56.1993-80.5436-73.17226-21.0769-16.97295-57.9614-43.75252-81.6728-59.97109-23.7114-15.84141-56.8322-36.58613-73.3927-45.63841-16.5603-9.42938-53.0684-27.15668-80.92-39.980716-27.8515-12.823988-73.7689-30.92849-101.6205-39.980715-27.8516-9.429444-70.3816-21.499097-94.093-26.779567-23.7114-5.28047-63.2306-12.0696535-87.6948-15.4642452-30.4862-3.7717572-71.887-5.65763576-131.7303-5.28047004-48.17568.37716572-92.21127 1.50871284-98.60956 2.26309424m211.52126 97.311559c24.0879 3.39459 60.2196 9.42945 79.7909 13.57836 19.5714 4.52615 54.9504 13.95554 78.6619 21.12189 23.7114 7.1664 65.4887 22.63064 92.5876 34.70029 27.4752 12.06965 68.1234 32.43715 90.7057 45.63836 22.9587 12.82403 59.0904 36.58612 80.92 52.42757 21.8296 15.46426 56.4559 43.37532 77.1563 61.47977 20.7005 17.72734 47.7993 42.99815 60.2195 56.19934 12.4204 12.82404 19.195 21.87627 15.055 20.36756-4.1401-1.50872-16.5604-5.65764-27.0988-9.4294-10.9149-4.14897-33.8736-9.05228-50.8102-11.69248-18.0659-2.64027-45.5411-3.39459-66.618-2.2631-19.9477 1.50871-48.552 6.03486-63.6068 10.18377-15.0549 4.14898-39.1428 13.57837-53.0686 20.36755-13.9258 7.16635-34.2498 19.99039-44.7882 28.66545-10.9149 8.29789-27.4752 22.63059-36.5082 31.68282-11.2912 10.56094-16.9367 19.23601-16.9367 25.64802 0 5.2805 4.5164 13.95553 9.7856 19.61325 5.6457 5.28046 13.1731 9.80655 16.9368 9.80655 4.1401 0 24.4642-7.5435 45.9174-16.59574 21.0768-8.67508 50.4339-18.85887 64.7361-22.25346 14.6785-3.39458 35.3789-6.78917 45.9174-8.29788 10.9148-1.13156 34.6262-.37717 52.6921 1.88587 18.4423 2.26305 45.9175 8.29789 61.3486 13.57836 15.4313 5.2805 29.357 10.56096 30.8626 12.06969 1.5054 1.50869-20.7005 2.64021-48.9284 2.64021-41.7773.37721-57.2086 1.88589-80.92 8.67508-16.1841 4.5261-41.0246 14.3327-54.9504 21.49905-14.3021 7.16635-38.7663 23.00778-54.1976 35.83179-15.8076 12.44681-37.2609 33.19154-47.7993 46.01556-10.5384 12.44681-21.8296 28.28824-25.2169 34.32307-5.2692 10.18381-5.2693 12.44686.3763 23.7621 3.3873 7.54361 9.4093 13.57838 15.0548 15.08711 5.2693 1.13153 13.9258-.3772 21.4533-4.52609 7.151-3.39462 22.5823-13.20123 34.6262-21.12194 12.0439-8.29788 32.3681-19.99032 45.1648-25.64804 12.7967-6.03478 33.4971-13.57833 45.5411-16.9729 12.4202-3.01742 38.7663-6.41199 58.3376-7.92072 36.1318-2.26305 36.1318-2.26305 14.6785 9.05224-11.6675 6.41198-31.2388 18.85884-43.2827 28.28824-12.044 9.4294-29.7334 25.27083-39.1427 35.45459-9.7858 9.80661-24.088 27.53393-32.3682 38.84922-8.2801 11.69248-20.7005 30.92848-27.4751 43.37529-7.1512 12.44686-12.6528 23.00783-13.0292 23.76215-.3764.37716-20.3242-12.82402-43.6592-29.41977-24.0878-16.97295-67.3706-42.62098-99.3623-58.0852-30.8625-15.46427-68.4997-32.43723-82.8019-37.34053-14.6785-5.28046-47.0465-13.95549-71.5107-19.61316-34.2499-7.92072-58.7141-10.93808-101.6205-12.06965-41.401-1.50869-67.74713-.37716-98.986 4.14893-23.3351 3.39457-57.20862 10.56092-75.27446 15.84143-18.06589 5.28051-50.05753 16.21859-71.13438 24.51652-21.45321 8.29787-57.58499 26.77951-80.92008 40.73505-23.33505 14.33274-56.45581 35.45458-73.39257 47.14707-16.93672 11.6925-31.99164 23.00779-33.12072 24.89368-1.50553 2.26309-3.76378 3.77177-6.02198 3.77177-1.88189 0-3.53113-2.26309-3.53113-4.9033 0-3.01741-8.28018-19.236-18.81866-36.20896-10.16202-17.35011-28.22789-42.99813-39.89544-57.33088-11.66751-14.3327-31.61523-34.32307-44.41196-44.50684-12.42028-9.80655-32.36802-23.76209-43.65917-30.17413-20.70048-12.44681-20.70048-12.44681 14.30212-9.8066 19.19502 1.13157 46.29381 5.65762 60.21961 9.8066 13.92575 4.5261 31.99164 11.31529 40.27186 15.46428 8.28018 4.52609 30.48615 17.72727 49.30476 29.79692 18.8186 12.44681 38.01362 22.25342 42.53006 22.25342 4.5165 0 12.42027-4.14889 17.31312-9.4294 5.26922-4.9033 9.40936-12.44686 9.40936-16.97296 0-4.14893-3.38738-14.7099-7.90387-23.00778-4.14009-8.67508-20.7005-28.6654-36.50814-44.50688-15.80759-16.21859-39.51905-36.20895-52.31572-44.50677-12.79663-8.29792-35.75531-20.36758-50.81023-26.77956-15.05488-6.41203-41.77735-14.3327-59.46689-18.10453-23.33505-4.52609-42.90644-5.65762-73.39261-4.52609-41.40092 1.88589-41.40092 1.88589-22.58231-6.7892 10.5384-4.9033 30.10978-11.69248 43.2828-15.46423 16.93678-4.52614 38.01358-6.41202 67.74701-6.41202 32.74445 0 50.43398 2.26304 72.26354 8.29789 16.18399 4.52613 44.4119 15.0871 63.2305 23.76218 27.85155 12.44681 36.13178 14.70985 44.41196 11.69244 5.64562-1.50868 12.42031-7.92071 15.43128-13.95554 4.51645-9.4294 4.51645-12.06968-1.88189-23.76212-3.76368-7.1664-18.06589-21.87627-31.61523-32.81436-13.54939-10.93816-31.99169-24.51654-41.40099-30.17418-9.03294-5.65762-28.22791-15.46424-42.53001-21.12187-14.30215-6.03485-39.51909-13.2012-56.0795-16.59579-16.56035-3.01743-41.77737-5.65763-55.70316-5.65763-13.92574 0-39.89546 2.6402-57.96134 5.65763-17.68951 3.01743-41.02456 9.05223-51.93938 13.2012-10.5384 4.14892-19.94771 6.78918-20.70048 6.41197-.37637-.75433 22.206-22.25343 50.05754-48.27861 28.22791-25.64803 66.99427-59.21672 85.81289-74.3038 18.8186-15.08708 48.92845-36.58613 66.61798-47.90145 17.68943-10.93811 46.67014-27.91106 63.98321-37.34051 17.31313-9.42939 54.57398-26.02519 82.42552-37.34045 27.85155-11.31532 66.24157-24.89369 84.68381-30.17416 18.81861-5.65763 56.07946-14.33269 82.80188-19.61316 27.09884-5.28047 61.72507-10.93817 77.1563-12.824046 15.43128-1.88588 58.3377-3.394596 94.84589-3.771759 41.401-.377168 83.5547 1.885879 111.0298 5.280475M280.8972 652.68578c16.18405 6.41203 43.28286 18.48169 59.84322 27.15677 16.93677 8.29782 43.2828 23.76209 58.3377 34.70022 15.43125 10.56097 38.01358 28.28823 50.0575 39.60357 12.04392 10.93808 32.7444 33.1915 45.54105 49.03293 13.17308 15.84148 27.85149 34.32306 32.7443 41.48946 9.03294 12.82402 9.17681 12.82402-3.61977 22.63063-7.1511 5.28046-32.36815 26.77951-56.45598 47.90144-24.08784 21.12184-63.23051 59.21669-87.69471 84.8647-24.08783 25.648-48.17555 52.4276-53.0684 59.5939-5.26918 7.1664-8.28015 14.7099-6.77469 17.7273 1.50551 2.263 13.17288 13.9556 26.34595 25.648 23.71142 21.122 23.56769 21.122-110.04444 21.122-133.61218 0-133.61218 0-136.623161-21.8764-1.505463-11.6923-3.01098-52.8046-2.634612-91.2767 0-46.39272 2.258244-84.11036 6.774743-113.15301 3.76371-23.76204 13.92574-72.41791 22.95869-107.49529 9.03293-35.45464 19.57139-71.66359 23.71147-81.09299 7.15105-16.97295 7.15105-16.97295 13.54937-2.2631 3.38734 7.92072 9.03294 24.89368 12.42028 37.71768 4.89286 16.97296 6.39832 37.71764 6.39832 79.58432 0 47.52424-1.88183 63.74283-10.16203 101.83767-5.64559 24.89367-10.16203 49.03297-10.16203 53.18191 0 4.52615 3.01097 12.06965 6.77468 16.97296 4.89287 5.65765 11.29119 8.29795 19.19498 8.29795 7.90384 0 15.43126-3.3947 23.3351-10.93821 6.39832-6.03477 18.81861-23.00773 27.85154-37.34048 9.03294-14.70986 20.32412-36.58612 25.5933-49.03298 5.26923-12.4468 12.42029-33.56874 16.18405-47.14702 4.51644-16.97296 6.39832-38.0949 6.39832-67.89182 0-29.04266-2.25824-52.05039-6.77474-69.77775-3.76371-14.70986-11.66751-37.34043-18.06583-50.91882-6.39832-13.57833-12.42028-25.64798-13.17306-27.53387-.75273-1.50873-.75273-2.64026 0-2.64026.75278 0 14.67853 5.28046 31.23889 11.31529m1505.4892 15.84143c-6.7747 15.08707-15.4312 38.472-19.195 52.05039-4.5165 16.97294-6.7747 38.8492-6.7747 71.66359-.3764 33.5687 1.5055 54.31343 6.0219 71.66355 3.7638 13.57838 15.0549 41.48945 25.5934 62.6113 10.162 21.12189 26.3459 46.76993 36.1316 57.70805 16.5605 18.10441 18.8188 19.61321 33.1209 18.48161 12.0439-.7543 16.5604-3.39449 20.7005-11.31526 5.2692-9.05219 4.8929-13.95549-5.2692-58.46237-10.162-42.62098-11.2912-55.06779-11.2912-106.74097.3765-56.19938.7528-59.97111 12.7967-96.18005 12.7966-37.71769 12.7966-37.71769 23.7114-5.65772 6.022 17.72736 16.9368 55.82216 24.0878 84.86481 7.1512 29.04261 15.4313 72.04076 18.4422 95.42564 3.0111 23.38499 5.6457 71.6636 5.6457 107.87252 0 35.8318-1.1292 75.8125-2.2583 88.6366-2.6345 23.0078-2.6345 23.0078-136.6231 23.0078s-133.8449 0-108.2516-23.0078c13.9258-12.4469 25.217-26.0253 25.217-29.4198 0-3.7718-11.2913-20.3676-25.217-36.5862-13.5494-16.2185-44.7882-49.41007-68.8761-73.17222-24.0878-23.76215-60.2196-56.95369-80.1672-73.17227-19.9477-16.59575-36.5081-31.68286-36.5081-33.5687 0-1.88589 11.5237-19.23606 26.2022-38.47206 14.3021-19.236 38.7665-46.39277 53.445-60.72547 15.0549-13.95549 41.0245-34.32306 57.9612-45.26114 16.5604-10.93818 42.5301-26.02524 57.2087-33.56875 14.6785-7.54351 39.1427-18.48169 54.1975-24.51651 15.0549-6.03483 28.6043-10.93813 30.1099-10.93813 1.5055-.37716-3.011 12.06965-10.1621 26.77956m-697.6059 38.66061c15.0549 3.01746 39.5191 9.8066 53.8213 15.46427 14.6785 5.28046 35.7553 15.08706 47.0465 21.49904 11.2912 6.41199 30.486 19.23605 42.53 28.66545 12.0439 9.05219 31.6152 29.04261 43.6592 43.75252 11.6675 14.70985 28.2279 40.73505 36.8844 57.33085 8.6566 16.59579 19.5714 43.75245 24.4642 60.34825 7.5274 25.64799 8.6566 38.472 8.6566 90.1452 0 52.4275-1.129 64.4972-9.0328 90.5224-4.8928 16.5958-16.184 44.5069-25.2169 62.2341-9.033 17.7274-25.217 42.9982-36.1319 55.8222-10.9147 13.2013-32.3679 33.5687-47.0465 45.6385-15.0548 11.6924-39.8954 27.911-55.3267 35.4545-15.4312 7.5436-41.0247 17.7273-57.585 22.2535-25.217 7.5434-38.0136 8.675-91.4585 8.675-48.17573 0-67.74705-1.5087-86.56565-6.7892-13.54944-3.7718-39.5191-13.9555-58.33769-23.3849-18.44225-9.0523-44.0356-24.5165-56.45592-34.7003-12.42026-10.1838-34.24983-32.8144-48.17558-50.1645-14.30216-17.7273-32.36805-45.6383-40.27192-62.2342-7.90376-16.5957-18.06578-42.9981-22.58227-58.4623-4.14009-15.4643-8.65659-45.2612-10.16207-66.006-1.12912-22.2533-.37636-49.41005 2.25825-66.00585 2.6346-15.46428 9.4093-43.37531 15.80764-62.23415 6.39833-18.48169 18.44223-46.01556 26.72241-60.34826 9.0329-15.46427 29.35703-40.35794 49.68117-60.72552 21.07685-21.12184 43.65919-39.60353 58.71406-47.90135 13.54939-7.54361 35.75532-17.72736 49.30475-23.00782 13.92575-5.28046 36.50813-12.06965 50.81024-15.08707 14.30216-3.01741 44.0356-5.65766 66.24168-5.65766 21.8296-.37716 52.3158 1.88589 67.7469 4.9033m-454.32598 208.7673c-5.26921 12.82396-12.79662 36.58611-17.31312 52.80475-6.39834 23.38494-7.90382 39.98073-7.90382 87.50503 0 51.296 1.12912 62.9885 9.78571 95.0484 5.26921 19.9905 15.43123 48.6559 22.58228 62.9886 7.15106 14.7099 11.2912 25.648 9.03295 24.1393-2.63461-1.5088-30.86251-23.385-62.85415-48.6559-31.99163-25.2708-77.53271-62.6113-101.24403-82.9788-42.90644-36.9633-42.90644-36.9633 9.78567-88.2593 28.60417-28.28828 73.39253-68.64617 98.98577-89.76812 25.96976-20.74468 47.42297-37.71757 47.79933-36.96326.37635.37716-3.38733 11.31533-8.65659 24.1393m839.68668 30.17418c20.7005 17.35011 58.3377 51.29597 83.931 75.0581 25.2169 23.7621 45.9174 45.2613 45.5411 47.5243 0 2.6402-17.6895 19.6131-39.1428 38.0948-21.8295 18.1045-67.7469 56.1994-101.9968 83.7333-34.6263 27.911-63.6069 49.7873-64.3597 49.0329-.7527-.7543 1.8818-7.1664 6.0219-13.9555 4.1401-7.1664 12.4203-28.2883 18.8186-46.77 6.022-18.8588 13.1731-48.2786 15.8076-65.6287 2.6347-19.9904 3.7638-49.4102 2.2583-77.3212-1.5054-27.9111-5.2692-56.19935-9.7856-72.7951-4.5165-15.08706-12.044-36.58616-17.3132-48.65582-5.2692-11.69249-9.4093-22.2534-9.4093-23.00772 0-1.13157 7.1511 3.77173 16.184 10.56091 8.6566 6.7892 32.7444 26.77951 53.4449 44.12973m-995.64842 284.7683c13.54937 11.3153 33.49696 26.7796 44.41169 35.0775 19.94778 14.7098 19.94793 14.7098-61.34848 15.8414-81.29638.7543-81.29638.7543-80.16728 40.7351 1.12915 39.9808 1.12915 39.9808 135.87039 39.6035 134.36483-.7544 134.50854-.7544 169.51119 19.9904 18.81866 11.6925 48.92845 27.1567 66.61788 34.3231 17.68948 7.5435 37.26085 15.8414 43.28283 18.8588 9.78566 4.5262-17.08048 5.2805-202.63196 5.2805-213.77943.3772-213.77943.3772-212.65033 42.621.75278 23.385 2.25825 42.2438 4.14013 41.4894 1.50546-.3772 290.70303-.7544 642.61116-.7544 640.2092 0 640.0656 0 638.9365-41.4893-1.1292-41.8667-1.1292-41.8667-215.2849-41.4895-117.8046 0-213.6359-.7544-212.5067-1.5087.7527-.7544 15.0549-6.7892 31.6152-13.5784 16.5604-6.4121 51.1866-23.0078 77.1564-36.9633 47.0465-24.8937 46.9028-24.8937 182.0204-26.4023 134.7413-1.1317 134.7413-1.1317 135.4941-40.358.7528-39.6036.7528-39.6036-80.1672-40.3579-80.9201-1.1316-80.7764-1.1316-65.7214-10.9381 7.9038-5.6577 27.4751-20.7448 42.9064-33.946 28.2279-24.1393 28.0842-24.1393 197.4516-26.0251 93.3404-1.1315 170.1203-1.5087 170.4967-1.1315.7529.3771-1.1291 9.4294-4.14 20.7447-3.3874 10.938-7.9039 27.1567-10.1621 35.8317-4.1401 16.2186-4.1401 16.2186-88.8239 16.2186-84.6837 0-84.6837 0-83.5547 40.3579 1.1292 39.9808 1.1292 39.9808 71.8872 39.2264 48.552-.7544 70.3816.3773 70.3816 3.0174 0 2.2632-7.5274 20.3675-16.5604 39.9807-16.9367 35.8319-16.9367 35.8319-71.5107 35.8319-54.9504 0-54.9504 0-54.9504 41.4895 0 41.4893 0 41.4893 31.9916 41.4893 17.6896 0 31.9917.7544 31.9917 2.2631 0 1.1315-9.7857 13.9556-21.4533 29.0426-11.6674 15.0871-38.3899 47.5243-59.0904 72.0408-22.2059 26.4022-59.4667 64.1199-89.953 90.8995-52.3157 46.0156-52.3157 46.0156-318.0345 48.6558-146.4088 1.1315-397.4492 1.1315-557.78384 0-291.68848-2.6402-291.68848-2.6402-319.9164-25.2708-15.43126-12.4469-47.7993-42.621-71.88714-66.3831-24.08782-24.1393-56.83218-60.7254-73.01622-81.4702-16.18399-20.7447-36.50813-44.884-44.78828-53.9362-15.05489-15.8415-15.05489-15.8415 17.68951-15.8415 32.74436 0 32.74436 0 32.74436-42.9981 0-42.9982 0-42.9982-50.0575-41.8666-49.68113 1.5087-49.68113 1.5087-68.49974-35.0775-10.53845-19.9903-19.57139-37.7177-19.94775-39.6035-.75273-1.5087 29.73342-2.6403 67.74701-2.6403 68.87615.7545 68.87615.7545 70.00525-39.2263 1.1291-39.9808 1.1291-39.9808-81.29644-39.9808-82.04912 0-82.04912 0-92.21121-31.3057-5.64554-17.35-10.16203-33.1915-10.16203-35.8317 0-2.2631 8.65657-4.5261 21.82958-5.2805 11.66755-.7543 87.69477-.7543 168.23842 0 146.78519.7544 146.78507.7544 171.24927 20.7447m927.75795 636.2972c-20.7006 9.8065-52.6922 23.3849-71.1344 29.7969-18.4422 6.7892-60.2196 18.4817-92.2112 26.7796-32.368 7.9207-77.1564 17.7273-100.1151 21.1218-28.2279 4.149-65.1124 6.4121-114.7935 6.4121-49.30486 0-88.0712-1.886-118.55735-6.4121-24.84063-3.3945-64.73608-10.5609-88.44749-15.8414-23.71146-5.2804-58.71406-14.7099-77.90908-20.7446-19.195-6.035-56.83221-20.3677-83.55463-31.6829-27.09883-10.9381-52.31578-21.8763-55.7031-24.1394-4.89285-2.6402 124.95559-3.7718 416.64415-3.7718 423.4189.3772 423.4189.3772 385.7817 18.4818"/>
  <path fill="#fff" stroke="#000" stroke-linecap="round" stroke-linejoin="round" stroke-width=".999756" d="M772.84237 215.97959c-6.39834 2.6402-14.67852 10.18377-17.68948 16.59573-3.38738 6.03486-6.02198 16.21863-6.02198 22.25343 0 6.03485 3.38732 15.46425 7.90377 21.12194 4.14013 5.28047 11.29114 11.69244 15.80764 13.95553 5.64567 3.39459 76.02723 4.52609 245.39478 4.9033 130.2248.37717 243.1366-.75438 250.2877-2.26309 7.5274-1.50871 17.6894-7.54352 23.7114-14.3327 6.3982-7.16635 10.162-15.84141 10.162-23.00781 0-6.03481-2.6346-16.21857-5.6455-22.25338-3.3874-6.03485-10.9148-13.57836-16.9368-16.97295-9.4093-4.90331-43.6592-5.65769-252.9222-5.65769-197.59562.37722-244.26577 1.13155-254.05143 5.65769m37.63725 179.15891c-4.89285 1.88588-12.0439 9.05223-16.18404 15.84142-4.14004 6.78918-7.52747 16.21861-7.52747 21.12187 0 4.90331 2.63461 13.57837 5.64568 19.61323 3.38732 6.03479 10.91483 13.57836 16.93681 16.97295 9.4093 4.9033 39.89541 5.65764 217.1668 5.65764 160.3347-.37717 208.1339-1.50871 214.9086-5.28047 4.8928-2.64026 12.044-9.80661 16.1841-15.84141 3.7637-6.03486 7.1509-14.70992 7.1509-19.61322 0-4.90331-2.6344-13.57838-5.2691-19.236-3.011-5.65764-9.7856-13.2012-15.0549-16.97296-8.6565-5.28047-30.4862-6.03481-217.5432-5.65764-114.41729 0-211.89768 1.50871-216.41418 3.39459M374.75771 836.4353c0 35.07738.75273 64.11998 1.50546 64.11998.75279 0 15.0549-13.95554 31.6153-30.92849 30.10975-30.9285 30.10975-30.9285 18.44225-46.01556-6.39833-8.29788-19.94776-23.00773-30.10979-33.19155-9.78567-9.8066-18.81861-18.10448-19.57139-18.10448-1.1291 0-1.88183 28.66545-1.88183 64.1201m1267.28979-37.32425c-13.1729 15.08707-26.3459 30.55134-28.9805 33.94591-4.5164 6.03483-1.882 10.18381 24.4641 36.96332 15.8076 16.5958 30.4862 30.17412 32.368 30.17412 1.5055 0 3.011-29.04259 3.011-64.11998 0-35.8318-1.5055-64.12009-3.3873-64.12009-1.882 0-14.3021 12.44686-27.4752 27.15672m-679.53996 12.17759c-12.42027 3.77173-29.35703 10.56092-37.63726 14.7099-8.28023 4.5261-24.46413 14.70986-35.379 23.00774-11.29114 8.67508-27.09878 23.38498-35.37901 33.56875-8.28023 9.80655-20.7005 30.17412-27.8515 44.50682-6.77475 14.70991-15.05492 38.47205-18.06589 52.80475-3.01096 14.70991-5.64552 34.7002-5.64552 45.2613 0 10.1837 2.63456 30.5512 5.64552 45.2611 3.01087 14.3327 11.66755 39.2264 19.57142 54.6906 9.4093 19.6132 21.45321 35.8318 38.38988 53.182 13.54949 13.5783 35.75531 30.9284 49.30475 38.472 13.54949 7.1663 35.37896 16.2186 48.92845 19.6131 18.81865 4.9034 35.37901 6.0349 69.62892 4.9034 33.4971-1.5088 51.563-4.149 69.6289-10.1838 13.5495-4.5261 33.1208-13.9556 43.2827-20.7448 10.5384-7.1663 26.7226-20.7447 36.5082-30.1741 9.7857-9.8066 23.7115-27.5339 30.8625-39.2263 7.1511-11.6926 16.9367-32.4373 21.4532-46.0157 7.151-20.3675 8.6566-32.4372 9.0329-69.7776 0-34.70033-1.5054-50.16455-7.1509-66.00598-3.7638-11.31529-12.4204-30.9285-18.8187-43.37531-6.3984-12.06965-20.3241-31.30564-30.8625-41.86656-10.5385-10.93818-29.7334-26.77956-42.9065-35.07749-13.173-8.67503-35.0027-19.236-48.552-23.38494-17.6895-5.65767-37.2609-8.67508-68.1234-9.42944-33.87358-1.13153-48.17578 0-65.86521 5.28051m98.42141 92.78543c10.5384 3.01746 26.7225 10.93818 36.5081 17.35016 9.7856 6.41198 22.9588 19.23605 29.357 28.28824 6.022 9.05224 13.9258 23.76215 16.9368 32.43723 3.3874 9.05224 6.022 28.28815 6.022 42.62095.3763 21.4991-1.5055 31.3057-10.1621 50.1645-6.3983 14.3327-16.9368 29.4198-27.0988 38.8492-9.4093 8.2979-26.346 19.9904-38.0137 25.2708-17.313 7.9208-27.0987 9.8066-51.5629 9.8066-24.46429 0-34.25005-1.8858-51.56312-9.8066-11.66755-5.6576-28.98068-17.7272-38.38998-26.7795-9.03294-9.4294-20.70044-24.5165-25.21694-33.5687-6.02198-11.6926-9.03294-24.8938-10.16207-46.7699-1.12911-22.6307 0-35.83181 4.51645-49.78735 3.76373-10.56092 11.29119-25.64804 17.31317-33.94591 6.02193-8.29792 18.06589-20.36758 27.09878-26.40235 9.03295-6.03488 23.71146-13.95554 33.12082-16.97296 9.4093-3.39462 27.09869-6.03487 39.89549-6.41203 12.4203 0 31.2389 2.64025 41.4009 5.65762M383.92019 1597.2006c-1.50551 1.1316-2.6346 19.6133-2.6346 40.7351 0 38.472 0 38.472 21.82959 40.3579 11.66754 1.1315 263.837 2.2631 559.66559 2.6402 296.20503.3772 575.09693-.3771 620.26163-1.8858 81.6728-2.6403 81.6728-2.6403 81.6728-43.3753 0-41.1123 0-41.1123-639.0803-41.1123-351.53161 0-640.5856 1.1315-641.71471 2.6402"/>
</svg>
