<?xml version="1.0" encoding="UTF-8" standalone="no"?>
<svg
   id="svg"
   width="1025.0085"
   height="1024.9818"
   viewBox="0 0 1025.0085 1024.9818"
   version="1.1"
   xmlns:xlink="http://www.w3.org/1999/xlink"
   xmlns="http://www.w3.org/2000/svg"
   xmlns:svg="http://www.w3.org/2000/svg">
  <defs
     id="defs1">
    <linearGradient
       id="swatch1">
      <stop
         style="stop-color:#ffffff;stop-opacity:1;"
         offset="0"
         id="stop1" />
    </linearGradient>
    <linearGradient
       xlink:href="#swatch1"
       id="linearGradient1"
       x1="124.55698"
       y1="200.42593"
       x2="274.56854"
       y2="200.42593"
       gradientUnits="userSpaceOnUse" />
  </defs>
  <g
     id="svgg"
     transform="matrix(6.8261409,0,0,6.6484013,-849.74156,-820.01735)">
    <path
       id="path0"
       d="m 194.922,123.676 c -3.086,0.378 -3.013,0.31 -2.817,2.682 0.199,2.395 0.3,2.329 -2.696,1.753 -7.037,-1.353 -15.111,-1.166 -22.23,0.514 l -3.702,0.874 -1.573,4.843 c -1.706,5.255 -1.853,5.425 -4.707,5.474 -1.826,0.032 -12.017,9.583 -11.041,10.347 0.073,0.058 1.803,1.418 3.844,3.024 3.614,2.842 20.703,15.958 23.438,17.988 l 1.367,1.014 1.758,-0.844 c 0.966,-0.465 3.603,-1.707 5.859,-2.76 2.256,-1.053 5.717,-2.689 7.691,-3.635 l 3.591,-1.72 2.807,2.955 2.807,2.956 h 3.271 3.27 l 0.005,-5.567 c 0.002,-3.061 0.113,-6.224 0.246,-7.028 l 0.241,-1.463 2.196,0.232 c 1.207,0.127 3.857,0.559 5.888,0.959 2.032,0.4 3.741,0.68 3.799,0.623 0.177,-0.177 4.422,-24.74 4.422,-25.586 0,-4.548 -16.304,-9.037 -27.734,-7.635 m 11.771,6.402 c 3.546,0.513 8.924,2.26 9.204,2.989 0.192,0.501 -1.867,13.654 -2.485,15.878 -0.163,0.585 -0.483,0.667 -1.921,0.488 -0.949,-0.118 -2.516,-0.313 -3.483,-0.433 l -1.758,-0.22 v -7.137 -7.138 l -4.525,-2.17 c -2.488,-1.194 -4.29,-2.264 -4.004,-2.378 0.874,-0.349 6.225,-0.276 8.972,0.121 m -19.776,3.928 c 3.366,0.604 7.409,1.843 10.446,3.201 l 2.637,1.179 -0.018,11.178 -0.017,11.178 -1.97,-2.148 c -1.083,-1.182 -4.355,-4.961 -7.271,-8.399 -3.994,-4.709 -5.647,-6.376 -6.704,-6.763 -2.694,-0.984 -10.091,-2.724 -13.651,-3.211 -2.975,-0.407 -3.558,-0.598 -3.41,-1.117 1.449,-5.084 0.819,-4.679 8.822,-5.66 2.01,-0.247 8.442,0.078 11.136,0.562 m 50.687,14.139 c -13.725,15.881 -20.906,24.572 -20.552,24.875 0.182,0.155 1.473,1.082 2.87,2.06 5.145,3.604 9.56,9.452 11.743,15.555 1.132,3.165 1.344,3.497 2.083,3.276 0.452,-0.136 5.92,-2.135 12.15,-4.442 6.231,-2.308 15.064,-5.575 19.629,-7.26 6.102,-2.253 8.301,-3.232 8.301,-3.694 0,-0.562 -1.53,-5.468 -1.705,-5.468 -0.039,0 -1.473,0.541 -3.187,1.201 -5.886,2.27 -13.907,5.13 -13.999,4.992 -0.051,-0.076 -0.54,-1.206 -1.088,-2.511 l -0.997,-2.373 6.484,-3.65 c 3.566,-2.008 7.151,-4.067 7.967,-4.577 l 1.482,-0.927 -1.287,-2.37 c -1.741,-3.205 -1.256,-3.287 -9.905,1.675 l -7.693,4.413 -1.333,-1.55 c -2.426,-2.822 -2.531,-2.516 2.116,-6.144 2.31,-1.804 5.562,-4.297 7.227,-5.542 3.569,-2.668 3.483,-2.319 1.248,-5.062 -2.186,-2.684 -0.986,-3.109 -9.001,3.187 -3.76,2.954 -7.077,5.536 -7.37,5.738 -0.576,0.397 -4.257,-2.288 -4.036,-2.944 0.064,-0.19 2.818,-3.439 6.121,-7.222 l 6.005,-6.877 -2.085,-2.111 c -1.147,-1.162 -2.216,-2.112 -2.375,-2.112 -0.159,0 -4.125,4.439 -8.813,9.864 m -71.002,-2.044 c 11.47,1.107 14.191,2.196 18.729,7.491 2.052,2.395 3.732,4.474 3.732,4.619 0,0.209 -7.645,4.012 -12.65,6.292 -0.827,0.377 -1.221,0.205 -3.42,-1.492 -1.367,-1.056 -5.795,-4.435 -9.839,-7.511 -8.481,-6.449 -8.357,-6.283 -6.202,-8.293 1.84,-1.717 2.522,-1.795 9.65,-1.106 m 71.991,19.426 c 4.504,4.526 11.424,15.055 10.501,15.978 -0.248,0.248 -11.753,4.433 -12.187,4.433 -0.253,0 -0.795,-0.746 -1.203,-1.657 -1.349,-3.009 -4.52,-7.475 -7.234,-10.189 l -2.674,-2.674 3.41,-3.919 c 1.876,-2.155 3.733,-4.338 4.127,-4.85 1.032,-1.341 1.098,-1.304 5.26,2.878 m -106.093,1.96 c -32.137,67.676 39.41,136.227 104.219,99.854 8.816,-4.947 24.898,-19.405 24.134,-21.696 -0.14,-0.42 -6.789,-5.058 -22.817,-15.915 l -10.988,-7.443 -2.42,2.723 c -6.667,7.501 -15.104,11.318 -25.019,11.318 -26.306,0 -42.921,-29.709 -28.713,-51.342 0.971,-1.479 1.721,-2.731 1.665,-2.782 -0.149,-0.138 -37.826,-18.923 -37.954,-18.923 -0.061,0 -1.009,1.893 -2.107,4.206 m 18.239,10.824 c 7.113,3.54 12.933,6.535 12.933,6.656 0,0.121 -0.339,0.885 -0.754,1.698 -10.903,21.371 3.579,49.694 28.226,55.199 12.674,2.831 29.123,-2.046 36.252,-10.75 0.625,-0.763 0.73,-0.715 4.997,2.282 5.484,3.85 5.34,3.426 2.15,6.351 -37.003,33.928 -95.269,0.892 -84.689,-48.018 0.267,-1.237 0.712,-1.079 -9.913,-3.51 -5.668,-1.298 -7.128,-1.762 -7.128,-2.27 0,-1.686 4.16,-14.074 4.726,-14.074 0.147,0 6.087,2.896 13.2,6.436 m -12.356,16.081 4.203,0.991 -0.247,5.336 c -0.371,7.994 0.852,15.658 3.551,22.25 1.234,3.015 1.47,2.665 -3.723,5.523 -5.263,2.898 -4.747,2.938 -6.173,-0.486 -3.662,-8.798 -5.484,-19.923 -4.928,-30.092 l 0.275,-5.015 1.419,0.252 c 0.781,0.138 3.311,0.697 5.623,1.241 m 95.24,12.572 c -0.275,1.638 -0.922,4.147 -1.437,5.574 -0.515,1.428 -0.936,2.773 -0.936,2.99 0,0.217 2.593,2.164 5.762,4.327 3.169,2.163 10.771,7.356 16.894,11.539 6.123,4.184 11.258,7.486 11.411,7.34 2.511,-2.407 10.283,-22.639 9.137,-23.785 -0.177,-0.177 -7.049,-2.051 -27.579,-7.522 -6.553,-1.746 -12.102,-3.235 -12.333,-3.309 -0.246,-0.078 -0.625,1.095 -0.919,2.846 m 19.403,8.692 c 7.467,1.95 13.723,3.688 13.903,3.862 0.339,0.328 -2.108,7.621 -3.171,9.451 l -0.604,1.04 -4.331,-2.94 c -16.424,-11.151 -21.455,-14.96 -19.762,-14.96 0.214,0 6.498,1.596 13.965,3.547 m -100.43,19.785 c 14.01,19.886 40.528,29.311 62.834,22.334 1.289,-0.404 2.537,-0.736 2.774,-0.739 0.607,-0.007 4.266,9.713 3.823,10.156 -1.233,1.233 -12.742,3.456 -19.488,3.764 -24.483,1.12 -47.976,-11.364 -61.258,-32.552 l -1.024,-1.634 4.578,-2.556 c 2.519,-1.405 4.693,-2.559 4.831,-2.564 0.139,-0.005 1.458,1.701 2.93,3.791 m 95.564,8.791 3.824,2.7 -1.24,1.436 c -5.084,5.887 -21.325,17.247 -22.619,15.821 -0.16,-0.177 -1.035,-2.255 -1.944,-4.619 -0.908,-2.363 -1.737,-4.506 -1.84,-4.762 -0.107,-0.266 0.704,-0.915 1.896,-1.516 3.962,-1.998 9.128,-5.831 12.63,-9.369 4.07,-4.113 2.981,-4.149 9.293,0.309"
       stroke="none"
       fill="#000000"
       fill-rule="evenodd"
       style="stroke:url(#linearGradient1);stroke-width:0.148441;stroke-dasharray:none" />
  </g>
</svg>
