<svg xmlns="http://www.w3.org/2000/svg" xmlns:xlink="http://www.w3.org/1999/xlink" viewBox="0 0 1024 1024">
  <defs>
    <linearGradient id="b">
      <stop offset="0" stop-color="#4886ef"/>
    </linearGradient>
    <linearGradient id="a">
      <stop offset="0"/>
    </linearGradient>
    <linearGradient xlink:href="#a" id="d" x1="124.55698" x2="274.56854" y1="200.42593" y2="200.42593" gradientTransform="matrix(6.81952 0 0 6.64194 -848.92488 -819.21419)" gradientUnits="userSpaceOnUse"/>
    <linearGradient xlink:href="#b" id="c" x1="124.48345" x2="274.64276" y1="200.42535" y2="200.42535" gradientTransform="matrix(6.81952 0 0 6.64194 -848.92488 -819.21419)" gradientUnits="userSpaceOnUse"/>
  </defs>
  <path fill="url(#c)" fill-rule="evenodd" stroke="url(#d)" stroke-width=".999029" d="M480.34945 2.2346657c-21.04503 2.5106543-20.5472 2.0590021-19.21057 17.8136883 1.35708 15.907452 2.04585 15.469083-18.38543 11.643325-47.98895-8.986549-103.04977-7.744505-151.59791 3.413957l-25.24587 5.805058-10.72711 32.166926c-11.6341 34.90341-12.63656 36.03255-32.09946 36.358-12.45245.21254-81.95018 63.64973-75.29431 68.72416.49782.38524 12.29559 9.41828 26.21422 20.08525 24.64574 18.87639 141.18452 105.9921 159.83589 119.47526l9.32229 6.73492 11.98871-5.6058c6.58766-3.08851 24.57073-11.33779 39.95558-18.33177 15.38481-6.99396 38.98716-17.86017 52.44891-24.14344l24.48889-11.42417 19.14238 19.62695 19.1424 19.63359h44.60647l.0341-36.9757c.0136-20.33098.77061-41.33945 1.6776-46.67956l1.6435-9.71718 14.97567 1.54095c8.23115.84352 26.30289 3.71284 40.15333 6.36962 13.85727 2.65677 25.51183 4.51653 25.90736 4.13792 1.20704-1.17561 30.15592-164.321644 30.15592-169.940725 0-30.207555-111.18546-60.0232321-189.13256-50.7112293M560.622 44.756379c24.18204 3.407315 60.85739 15.01079 62.76686 19.852764 1.30936 3.327614-12.73203 90.689097-16.94649 105.460757-1.11158 3.88554-3.29384 4.43019-13.1003 3.24128-6.47172-.78376-17.15792-2.07893-23.75239-2.87597l-11.98871-1.46123V74.160257l-30.85833-14.413015c-16.96697-7.93048-29.25575-15.037357-27.30535-15.794539 5.96026-2.318038 42.45152-1.833175 61.18471.803676M425.75919 70.845927c22.95451 4.011733 50.52582 12.241099 71.2367 21.260857l17.98308 7.830854-.12275 74.243642-.11594 74.24361-13.43444-14.26688c-7.38556-7.85078-29.69901-32.95069-49.58472-55.78568-27.23716-31.27691-38.50983-42.34902-45.71807-44.91945-18.37179-6.53567-68.81575-18.09265-93.09324-21.32728-20.28808-2.70327-24.26387-3.97188-23.25456-7.41906 9.88147-33.767626 5.58517-31.077638 60.16177-37.593385 13.70725-1.640559 57.5704.518072 75.94217 3.732772m345.66098 93.910413c-93.59789 105.48069-142.56885 163.2058-140.15476 165.21832 1.24117 1.02949 10.04515 7.18657 19.57202 13.68239 35.08642 23.93758 65.19461 62.77965 80.08162 103.31543 7.7197 21.02174 9.16543 23.22686 14.20505 21.759 3.08243-.9033 40.37156-14.18056 82.85716-29.50352 42.49242-15.3296 102.72923-37.02882 133.86036-48.22049 41.61258-14.96431 56.60868-21.46677 56.60868-24.53534 0-3.73277-10.4338-36.31813-11.6273-36.31813-.2659 0-10.045 3.59328-21.73366 7.97697-40.13969 15.07719-94.83905 34.07315-95.46645 33.15656-.34779-.50477-3.68253-8.01017-7.41962-16.67791l-6.79908-15.76132 44.21777-24.24309c24.31842-13.33703 48.76639-27.01277 54.33111-30.40018l10.10653-6.15708-8.77673-15.7414c-11.87278-21.28742-8.5653-21.83206-67.54734 11.12525l-52.46255 29.3109-9.09041-10.29502c-16.54417-18.74355-17.26021-16.71111 14.43011-40.80809 15.75308-11.98206 37.93015-28.54042 49.28464-36.80964 24.33886-17.7207 23.75239-15.40265 8.51077-33.62151-14.90747-17.82698-6.72405-20.6498-61.38249 21.16787-25.64141 19.6203-48.26175 36.7698-50.25986 38.11146-3.92804 2.63686-29.03069-15.19676-27.52357-19.55387.43645-1.26197 19.21741-22.84164 41.74226-47.9681l40.95123-45.67666-14.2187-14.02113c-7.82198-7.71794-15.11206-14.027779-16.19637-14.027779-1.0843 0-28.13051 29.483589-60.10042 65.516109m-484.1995-13.57612c78.21988 7.35263 96.7758 14.5857 127.72278 49.75478 13.99364 15.90746 25.45045 29.71605 25.45045 30.67913 0 1.38816-52.13524 26.64748-86.26692 41.7911-5.63975 2.50403-8.32664 1.36159-23.32276-9.90977-9.32229-7.01389-39.5191-29.45701-67.09726-49.88762-57.83633-42.83389-56.99071-41.73132-42.29467-55.08163 12.54794-11.40422 17.19884-11.92229 65.80838-7.34599M778.16469 280.2066c30.7151 30.06142 77.90617 99.99442 71.61176 106.12494-1.69125 1.6472-80.14982 29.44373-83.10948 29.44373-1.72536 0-5.42152-4.95489-8.20388-11.0057-9.19954-19.9856-30.82424-49.64853-49.33241-67.67475l-18.23538-17.76054 23.25455-26.02978c12.7934-14.31339 25.45726-28.81275 28.14416-32.21342 7.03773-8.90686 7.48782-8.66111 35.87068 19.11552M54.661431 293.2248C-164.49747 742.72487 323.41868 1198.0367 765.3849 956.44928c60.12088-32.85767 169.79239-128.88688 164.58226-144.10357-.95472-2.78962-46.2977-33.59495-155.60095-105.70651l-74.93289-49.43597-16.50324 18.086c-45.46572 49.82121-103.00202 75.17351-170.61754 75.17351-179.39426 0-292.70058-197.32545-195.80886-341.0106 6.62175-9.82345 11.73639-18.13915 11.3545-18.4779-1.01611-.91658-257.955125-125.68546-258.828024-125.68546-.415991 0-6.880894 12.5732-14.368725 27.93602m124.381189 71.89238c48.50726 23.51247 88.19686 43.40509 88.19686 44.20876 0 .80368-2.31183 5.87812-5.14192 11.27802-74.35322 141.94494 24.40704 330.06467 192.48775 366.62857 86.4306 18.80333 198.60486-13.58942 247.22121-71.40088 4.26219-5.06781 4.97825-4.749 34.07714 15.15691 37.39824 25.57148 36.41623 22.75529 14.66197 42.18297-252.34268 225.34783-649.68878 5.92462-577.53826-318.93277 1.82079-8.21609 4.85549-7.16665-67.60189-23.31321-38.653044-8.62126-48.609541-11.70312-48.609541-15.07722 0-11.19831 28.3692-93.47869 32.229047-93.47869 1.002469 0 41.510414 19.23505 90.017634 42.74754M94.78066 471.92624l28.66245 6.58217-1.68443 35.4414c-2.53004 53.09569 5.81024 103.99954 24.21611 147.78321 8.41528 20.02546 10.02469 17.70078-25.38907 36.68345-35.891128 19.24835-32.372257 19.51403-42.096891-3.22796-24.97308-58.43583-37.398243-132.32743-33.60659-199.86934l1.875367-33.30934 9.676897 1.67377c5.326046.91659 22.57943 4.62944 38.346157 8.24264m649.49099 83.50251c-1.87535 10.87949-6.28757 27.54412-9.79963 37.02219-3.51205 9.48467-6.38308 18.4181-6.38308 19.8594 0 1.4413 17.68302 14.37317 39.29408 28.73967 21.61105 14.36654 73.45304 48.85813 115.20895 76.64138 41.75593 27.78988 76.77415 49.72158 77.81755 48.75186 17.1238-15.98716 70.12508-150.36692 62.30988-157.9786-1.2071-1.17562-48.07073-13.62262-188.07547-49.96068-44.68831-11.59683-82.52983-21.48669-84.10513-21.97819-1.67761-.51807-4.2622 7.27292-6.26715 18.90297m132.31915 57.73176c50.92135 12.95177 93.58426 24.49548 94.81176 25.65118 2.31183 2.17855-14.37553 50.61824-21.62468 62.77299l-4.11899 6.90762-29.53535-19.52731c-112.00376-74.06429-146.31279-99.36345-134.76733-99.36345 1.45938 0 44.31324 10.60054 95.23459 23.55897M191.70649 744.57133c95.54146 132.08166 276.38147 194.68197 428.49765 148.34114 8.79038-2.68335 17.30113-4.88847 18.91735-4.90839 4.13945-.0466 29.09208 64.51318 26.07102 67.45556-8.40846 8.1895-86.89431 22.95455-132.89878 25.00027-166.96229 7.43898-327.17325-75.47903-417.75012-216.20851l-6.98317-10.85292 31.21975-16.97681c17.17837-9.33192 32.004-16.99673 32.9451-17.02994.9479-.0332 9.94286 11.29794 19.9812 25.1796m651.70053 58.38931 26.07784 17.93325-8.45621 9.53783c-34.67043 39.10111-145.42624 114.55359-154.25071 105.08217-1.09111-1.17563-7.0582-14.97759-13.25714-30.67913-6.19212-15.69491-11.8455-29.9286-12.54791-31.62892-.72969-1.76677 4.80093-6.07738 12.92981-10.06919 27.01893-13.27061 62.24857-38.72917 86.13052-62.22835 27.75544-27.31833 20.329-27.55743 63.3738 2.05234"/>
</svg>
