<?xml version="1.0" encoding="UTF-8" standalone="no"?>
<svg
   xml:space="preserve"
   viewBox="0 0 1048576 1048576"
   version="1.1"
   id="svg2"
   width="1048576"
   height="1048576"
   xmlns="http://www.w3.org/2000/svg"
   xmlns:svg="http://www.w3.org/2000/svg"><defs
   id="defs2" />
  <g
   fill-rule="evenodd"
   id="g2">
    <path
   d="m 491.21427,3 c -6,2 -12,8 -25,24 -18.89716,23.323048 -38.57499,46.002588 -59,68 -30.12741,35.55931 -60.1276,71.2262 -90,107 1,3 6,-2 38,-40 22.0413,-27.19197 44.71414,-53.8659 68,-80 14.09097,-17.488303 28.76592,-34.497911 44,-51 23,-27 28,-30 46,-24 5,1 164,136 164,139 l -17,6 -21,9 c 13.90015,-3.15414 27.59276,-7.16173 41,-12 25.79488,20.17096 51.46206,40.5047 77,61 l -71,-62 c 0,-1 2,-2 12,-5 l 26,-10 -6,1 c -7.5299,3.04473 -15.20597,5.71466 -23,8 -14,4 -8,8 -53,-31 -42.39398,-35.928619 -84.72738,-71.92867 -127,-108 -7,-2 -17,-2 -24,0 m 121,165 -14,4 c -90.97869,28.36 -181.65057,57.69502 -272,88 -16.14683,1.53252 -126.1682,44.62624 -102,36 l 23,-7 c 66.27016,-22.86821 132.94769,-44.53841 200,-65 30.85395,-10.44722 61.85718,-20.44827 93,-30 28.69426,-10.86557 57.70725,-20.87005 87,-30 0,-1 -4,0 -15,4 m 321,196 11,10 c 11.95306,10.0054 23.62427,20.34277 35,31 2,-2 0,-5 -2,-5 -1,1 -2,0 -3,-1 -13.08096,-12.33584 -26.76436,-24.01679 -41,-35 m 47,19 v 2 -4 2 m 0,26 c -0.23959,24.34972 0.42754,48.69992 2,73 l 13,-11 c 5.20853,-4.09136 9.90863,-8.79146 14.00003,-14 3,0 6,-15 3,-21 -2,-7 -24.00003,-27 -27.00003,-26 l -1,-1 -1,-2 c -2,0 1,3 12,13 16.00003,14 19.00003,23 12.00003,35 -2,4 -22.00003,21 -24.00003,21 -1.08949,-21.31942 -1.08949,-42.68058 0,-64 -1,1 -2,1 -2,-2 0,-3 0,-3 -1,-1 m -10,79 c -27.72245,22.5985 -55.3892,45.26523 -83,68 -51.43276,39.70287 -102.10853,80.37684 -152,122 -24.42722,21.02762 -49.43697,41.36888 -75,61 -43.88157,36.22459 -88.21843,71.8941 -133,107 l -8,-1 c -43.69548,-8.54126 -87.73554,-15.21399 -132,-20 l -12,-2 c -26.51831,-4.67481 -53.20409,-8.3441 -80,-11 0,3 1,3 24,6 44.56378,5.03205 88.92716,11.70323 133,20 l 55,8 c 15,3 17,3 11,7 -30.13784,23.41165 -59.8103,47.41634 -89,72 l -105,85 c -10,8 -13,10 -23,10 -12,0 -14,-2 -40,-24 l -82,-69 C 135.80117,890.76191 92.467732,854.42849 49.214272,818 c -5,-1 -2,3 14,16 L 235.21427,979 c 54,46 54,46 69,44 10,-1 12,-2 38,-23 l 26,-21 c 45.48541,-35.72799 90.48946,-72.0646 135,-109 24,-20 25,-21 27,-20 21.56095,3.98755 43.23752,7.3224 65,10 39.14197,7.46943 78.49175,13.80541 118,19 29.76128,4.04392 59.43447,8.71162 89,14 l 70,10 c 17,2 52,-7 66,-17 28,-18 40,-36 44,-62 2,-9 2,-335 0,-337 -2,-4 -3,3 -3,169 0,183 0,171 -6,186 -11,28 -43,51 -78,57 -15,2 -23,2 -46,-2 -25.89315,-4.66607 -51.9017,-8.66739 -78,-12 -14.69153,-2.17427 -29.35906,-4.50774 -44,-7 l -25,-4 c -55.91021,-9.55008 -111.91291,-18.55051 -168,-27 19.7337,-19.51385 41.15001,-37.24922 64,-53 53.41575,-42.82233 106.41821,-86.15767 159,-130 l 27,-22 c 45.79043,-37.59082 91.79115,-74.92474 138,-112 56,-46 55,-45 53,-45 l -5,3"
   id="path1" />
    <path
   d="m 513.21427,1 c 6,1 9,4 38,29 l 79,68 53,45 9,-3 c 15.80924,-5.88942 31.81896,-11.22599 48,-16 23.61204,-7.83428 47.2793,-15.50114 71,-23 48,-16 42,-17 60,-17 132.00003,7 120,115 117,194 l -4,126 13,11 c 16.00003,14 18.00003,17 18.00003,27 0,11 -2,15 -18.00003,28 l -13,11 v 170 c 0,187 1,174 -6,191 -14,38 -67,67 -111,61 -70.57046,-9.42624 -140.92137,-20.42898 -211,-33 -38.59611,-6.44622 -77.26535,-12.44662 -116,-18 l -12,-2 -5,4 c -25.83971,20.45083 -51.50728,41.11822 -77,62 l -32,26 c -28.62565,24.12171 -57.62924,47.79131 -87,71 -10,8 -16,10 -26,10 -14,0 -14,0 -56,-36 l -83,-69 C 120.8223,887.5976 82.022693,853.81518 46.214272,817 c 3,-2 0,-4 73.999998,58 41.09935,34.9447 82.43362,69.61215 124,104 46,39 45,39 58,39 10,0 11,-1 32,-19 36.8593,-30.58519 74.19724,-60.5889 112,-90 24.40916,-19.8454 48.41408,-40.1829 72,-61 -73.36852,-12.91163 -147.06004,-23.91534 -221,-33 -3,-1 -3,-1 -3,-3 0,-3 0,-3 10,-2 l 16,2 16,3 22,3 c 52.0242,7.84191 104.02444,15.84195 156,24 13,2 13,2 19,-3 80.70612,-66.02834 161.70693,-131.69566 243,-197 33.97728,-28.10563 68.31344,-55.77457 103,-83 26.11778,-20.85376 52.11819,-41.85409 78,-63 l 20,-17 v -73 l -3,-3 c -17.23965,-17.83144 -35.61109,-34.53275 -55,-50 l -63,-54 c -56.60476,-52.44431 -115.67147,-102.16714 -177,-149 -17.60873,3.99058 -34.97121,8.99899 -52,15 -10.14981,4.16467 -20.49525,7.83563 -31,11 -22.90804,7.61868 -45.90982,14.95258 -69,22 l -90,30 c -28.76317,10.0538 -57.77215,19.39002 -87,28 -26.30349,7.35496 -52.32179,15.69415 -78,25 -19.61869,5.50869 -39.28614,10.84224 -59,16 -2,-3 -5,-2 38,-15 8.04447,-2.53136 16.04561,-5.19841 24,-8 133.77321,-41.62392 267.11363,-84.6262 400,-129 -1,-3 -159,-137 -162,-138 -16,-6 -23,-2 -40,18 -23.48931,29.047416 -47.8333,57.393163 -73,85 -17.70794,20.01099 -35.04424,40.3478 -52,61 -24,28 -28,32 -30,32 -5,0 -3,-3 6,-13 16.50443,-18.22832 32.51034,-36.90188 48,-56 l 21,-24 c 24.09907,-28.864698 48.43321,-57.532318 73,-86 20,-24 29,-28 47,-23 m 356,89 c -10,1 -20,4 -44,12 -34.93085,12.55183 -70.28531,23.89194 -106,34 -9.75622,4.30011 -19.77652,7.97422 -30,11 l 21,20 269,234 c -11,-82 58.00003,-319 -110,-311 m -627.1,238.8 c 2,2 2,128 0,130 -4,6 -15,2 -15,-5 0,-6 0,-6 -5,-1 -11,11 -34,13 -53,6 -36,-15 -37,-74 -2,-91 18,-8 42,-6 55,5 l 4,3 v -23 c 0,-26 0,-25 6,-26 6,0 9,0 10,2 m 637,0 c 2,1 3,72 2,110 l -1,21 -4,1 c -8,1 -12,-1 -12,-7 0,-4 0,-4 -6,0 -18.15973,12.13348 -41.84027,12.13348 -60,0 -19,-14 -24,-44 -12,-68 12,-24 51,-31 73,-13 l 4,3 1,-24 c 0,-23 0,-23 2,-24 3,-2 11,-1 13,1 m -798.999998,1 c 2,0 6,7 14,25 8.628048,21.78888 18.306048,43.14722 28.999998,64 l 11,25 c 8,16 8,16 0,17 -11,1 -13,0 -18,-13 l -10,-22 -2,-4 H 41.114272 c -7.562111,15.12422 -6.872741,30.0546 -14.387961,41.03669 -4.917403,7.18587 -16.089092,3.44445 -17.9405835,3.37046 -3.926533,-0.15689 -1.442732,-11.14122 25.3285445,-74.40715 8.747877,-19.93921 18.085317,-39.61453 28,-59 l 2,-4 h 8 l 8,1 m -8,20 -23,51 c -4,8 -6,7 24,7 h 26 l -1,-3 -5,-11 c -7.241607,-14.55013 -14.24256,-29.21879 -21,-44 m 348.999998,15 c 19,6 22,14 22,53 0,31 0,30 6,30 8,0 7,12 -2,13 -8,1 -17,-3 -19,-8 0,-3 0,-3 -5,1 -33,22 -82,2 -68,-29 5,-12 14,-16 51,-21 15,-2 20,-5 20,-11 0,-11 -13,-18 -28,-16 -13,1 -18,5 -21,16 l -2,4 h -7 c -7,0 -7,0 -8,-3 -2,-6 3,-16 10,-22 7,-4 10,-6 22,-8 5,-1 24,0 29,1 m 108,-1 c 22,5 25,13 25,62 v 34 l -3,1 c -3,1 -9,1 -12,-1 l -2,-1 -1,-35 c 0,-33 0,-35 -2,-38 -8,-11 -31,-12 -43,-1 -8,7 -8,10 -9,44 l -2,30 c -2,2 -10,3 -13,2 l -3,-2 v -45 c 0,-52 -1,-49 8,-49 8,0 9,0 9,7 1,6 1,6 4,3 7,-9 28,-14 44,-11 m 102,0 c 18,4 34,20 33,33 l -1,3 -5,1 c -7,0 -9,-1 -11,-5 -6,-17 -25,-24 -43,-17 -26,11 -25,59 0,68 18,7 36,0 43,-17 l 2,-5 h 16 v 2 c 0,20 -22,36 -47,36 -38,0 -59,-29 -48,-67 7,-24 32,-37 61,-32 m 104,1 c 18,3 29,14 35,34 3,8 3,14 0,17 l -2,2 h -78 l 1,5 c 3,29 50,37 63,11 3,-6 4,-6 14,-4 6,1 0,14 -9,22 -10,8 -19,11 -35,11 -31,0 -49,-17 -51,-45 -2,-37 25,-60 62,-53 m -465,1 c 2,2 6,11 26,60 l 6,16 6,-14 c 5.95101,-14.68666 11.95104,-29.35341 18,-44 8,-19 8,-19 18,-19 10,0 10,0 0,22 l -16,35 c -18,41 -16,39 -27,39 h -8 l -2,-4 -6,-12 c -7.9321,-21.29569 -16.60403,-42.30845 -26,-63 l -6,-16 c 3,-2 15,-1 17,0 m -84,11 c -19,3 -30,22 -25,46 6,37 59,34 65,-4 5,-27 -13,-46 -40,-42 m 529,1 c -12,2 -23,14 -24,24 v 3 h 63 v -3 c -2,-17 -21,-29 -39,-24 m 104,0 c -28,8 -31,57 -4,69 25,10 49,-6 49,-33 0,-28 -19,-43 -45,-36 m 165.1,63.2 c 0,36 -1,34 10,24 20.00003,-17 20.00003,-26 0,-45 l -9,-7 -1,28 m -566.1,-26.2 -12,2 c -28,4 -35,8 -35,18 0,15 25,20 44,9 9,-5 11,-9 11,-22 v -8 h -3 l -5,1 m 545.1,82.2 c -18.31766,16.79317 -37.33451,32.80737 -57,48 -50.09192,39.46908 -99.76142,79.47135 -149,120 -48.49829,40.28245 -97.50218,79.95226 -147,119 l -22,18 -18,14 c -10.72632,8.59299 -21.39324,17.25987 -32,26 -4,3 -3,4 5,5 18.46085,1.70107 36.81951,4.37143 55,8 66.09323,9.72879 132.096,20.06256 198,31 22.32159,3.73786 44.65503,7.40454 67,11 45,8 96,-20 111,-62 l 3,-8 V 486 l -14,11 M 89.314272,559.9 c 27.999998,2 41.999998,15 41.999998,39 0,20 -13,33 -35.999998,37 l -30,2 h -24 l -1,26 v 25 l -2,1 c -4,2 -10,2 -13,0 C 24.665498,604.59703 20.4279,576.46206 29.356135,565.55656 35.874534,557.59459 45.061226,556.70758 89.314272,559.9 m 402.999998,1 c 6,2 8,11 3,16 -5,5 -15,3 -17,-3 -2,-6 1,-13 6,-14 4,-1 5,0 8,1 m -51,5 c 2,2 2,2 3,15 v 14 h 10 c 10,0 11,1 11,6 0,7 -2,8 -12,8 h -9 v 30 c 0,40 -0.0333,39 15,39 h 7 v 5 c 0,8 -2,9 -14,9 -13,0 -19,-3 -24,-12 -2,-3 -2,-4 -2,-37 v -34 h -8 c -9,-1 -10,-2 -10,-9 v -4 l 9,-1 h 8 v -13 c 1,-16 5,-20 16,-16 m -399.999997,32 v 26 h 4 c 11,1 44,-1 50,-3 21.999997,-7 23.999997,-37 2,-45 -6,-2 -10,-2 -36,-3 -23.815393,-2.3253 -20,3.32958 -20,25 m 157.999997,-3 v 11 c 0,2 -1,2 -8,3 -14,2 -22,6 -28,16 l -2,4 -1,30 v 29 l -3,2 c -3,2 -11,2 -14,0 -1,-2 -3,-89 -1,-93 1,-1 2,-2 8,-2 9,0 9,0 9,10 v 7 l 2,-3 c 8.3205,-12.48075 35,-21 38,-14 m 65,-1 c 11,2 21,8 25,16 2,3 2,5 3,35 0,35 0,35 6,35 5,0 5,0 5,6 0,10 -19,9 -25,-1 l -3,-5 -4,4 c -23.75921,23.75921 -68,8 -68,-19 0,-19 10,-26 46,-30 21,-3 26,-6 25,-15 -3,-18 -41.68445,-19.28887 -49,-1 l -2,5 c -1,3 -12,4 -14,2 -2,-2 -1,-11 2,-16 7,-13 30,-20 53,-16 m 104,0 c 16,3 27,11 33,23 4,11 3,13 -8,13 -5,0 -6,0 -9,-7 -7,-17 -31,-22 -48,-9 -19,14 -16,55 6,63 19,7 38,0 45,-17 2,-6 4,-7 12,-7 h 5 v 7 c 0,40 -80,45 -94,6 -16,-43 15,-80 58,-72 m 205,0 c 18,4 33,18 34,31 v 5 l -4,1 c -8,1 -11,0 -13,-4 -9,-25 -45,-27 -58,-4 -6,11 -5,31 2,43 12,21 50,17 57,-6 2,-5 2,-5 10,-5 8,0 8,0 7,7 -11,40 -78,43 -94,3 -16,-41 16,-80 59,-71 m 105,0 c 23,4 38,22 38,45 0,9 6,8 -48,9 h -34 v 5 c 0,29.15476 48,37 64,11 l 4,-6 h 5 c 9,0 10,4 4,15 -14,24 -65,27 -83,4 -31,-38 1,-92 50,-83 m -183,2 c 2,3 2,92 0,94 -3,2 -11,2 -14,0 -2,-1 -4,-92 -2,-94 2,-2 15,-2 16,0 m 161,12 c -10,4 -21,13.78046 -21,23 v 4 h 63 v -3 c 0,-17 -23,-30 -42,-24 m -385,35 -12,2 c -22.05644,3.67607 -26,5 -30,7 -17,8 -8,28 12,28 13,0 28,-7 32,-14 3,-6 1,-25 -2,-23"
   id="path2"
   style="fill:#000000" />
  </g>
</svg>
