<?xml version="1.0" encoding="UTF-8" standalone="no"?>
<!-- Created with Inkscape (http://www.inkscape.org/) -->

<svg
   width="1024"
   height="1024.0001"
   viewBox="0 0 1024 1024.0001"
   version="1.1"
   id="svg1"
   xml:space="preserve"
   xmlns="http://www.w3.org/2000/svg"
   xmlns:svg="http://www.w3.org/2000/svg"><defs
     id="defs1" /><g
     id="layer1"
     transform="translate(7.6789787e-5,1.2794885e-4)"><g
       id="svgg"
       transform="scale(2.56)"><path
         id="path0"
         d="m 195.37964,1.3077578 c -2.49562,0.8199737 -4.79698,2.9401912 -9.89564,9.1173262 -2.05454,2.485301 -5.36147,6.387985 -7.35202,8.670245 -1.99056,2.282261 -5.74998,6.63593 -8.3553,9.675689 -2.60532,3.041713 -5.87339,6.846781 -7.26061,8.457443 -1.38722,1.610664 -5.59229,6.514885 -9.34715,10.899793 -3.75257,4.384907 -7.6834,8.949427 -8.73696,10.144246 -1.05355,1.192866 -3.07153,3.535648 -4.48389,5.20488 -1.41464,1.669233 -4.88382,5.74372 -7.70854,9.054851 -2.82471,3.311133 -5.08037,6.165421 -5.01409,6.345034 0.43879,1.183105 2.35393,-0.833639 14.99657,-15.780588 2.64874,-3.131519 6.29619,-7.377811 8.10163,-9.437505 1.80544,-2.057744 5.07351,-5.841338 7.26289,-8.406682 2.1871,-2.5673 5.13751,-6.009235 6.55443,-7.647231 1.41922,-1.639948 3.52861,-4.152582 4.68729,-5.583631 1.15868,-1.43105 4.49075,-5.312257 7.40459,-8.623389 2.91384,-3.309179 7.26289,-8.361779 9.6671,-11.22583 8.86494,-10.5600896 11.09545,-11.75881301 17.85557,-9.5975967 1.95399,0.6247419 64.26679,53.3060977 64.26679,54.3330167 0,0.435367 -0.66503,0.696976 -6.66412,2.61025 -5.47574,1.747324 -9.18718,3.20961 -8.20904,3.236944 0.77246,0.02148 10.74579,-2.799625 13.26883,-3.754308 1.14499,-0.431464 2.38821,-0.784833 2.76302,-0.784833 0.5919,0 47.01,39.352879 65.11694,55.205698 3.2475,2.84258 6.46073,5.55825 7.14177,6.03462 0.68104,0.47637 1.23867,0.93321 1.23867,1.01521 0,0.31237 19.10339,16.48732 19.47132,16.48732 0.44567,0 -2.28536,-2.40135 -24.42371,-21.4794 -8.90151,-7.67261 -19.51932,-16.877794 -23.59184,-20.458345 -4.07024,-3.5786 -7.5417,-6.434841 -7.7131,-6.345033 -0.16912,0.0898 -0.30853,-0.02733 -0.30853,-0.261612 0,-0.232326 -3.06925,-3.059282 -6.82181,-6.28256 -11.77422,-10.111057 -27.64379,-23.958848 -27.75807,-24.218508 -0.19426,-0.45489 0.82503,-0.91954 4.68043,-2.135835 4.5136,-1.425192 10.28414,-3.689882 10.00762,-3.926112 -0.10742,-0.09176 -1.11754,0.146423 -2.24652,0.529079 -1.12668,0.382654 -2.99154,0.960541 -4.14337,1.282671 -1.15182,0.324085 -3.38006,1.058158 -4.9524,1.63214 -5.21975,1.909366 -3.07609,3.154945 -20.582,-11.963807 C 245.81997,36.010216 231.60042,23.696944 222.69663,15.965763 208.06342,3.2600761 206.31512,1.8465976 204.49368,1.2648068 c -2.65331,-0.84730617 -6.45616,-0.8297353 -9.11404,0.042951 m 47.31395,64.2605552 c -2.5139,0.806308 -4.9981,1.587233 -5.52373,1.733659 -0.90958,0.255751 -12.01875,3.797257 -33.89885,10.802175 -12.38669,3.967112 -15.29139,4.908129 -19.42561,6.298178 -1.78031,0.599363 -8.1222,2.649297 -14.09386,4.55476 -5.96938,1.905463 -11.88391,3.808973 -13.14086,4.232626 -1.25695,0.421701 -5.79797,1.882034 -10.09218,3.244752 -4.29649,1.362718 -8.41015,2.686389 -9.14146,2.94019 -0.73361,0.253802 -3.73429,1.212387 -6.66642,2.128027 -8.06963,2.52435 -18.38577,5.79643 -20.94995,6.64764 -4.30335,1.43105 -10.284153,3.35994 -11.998177,3.87145 -7.85709,2.34474 -10.476121,3.34628 -10.594961,4.0452 -0.153119,0.90393 -0.381656,0.92931 4.015391,-0.44122 3.855413,-1.20067 4.701,-1.474 8.864937,-2.85819 5.96938,-1.98551 22.15434,-7.22749 24.75966,-8.02013 3.52632,-1.07182 16.22153,-5.118975 17.51962,-5.585578 0.52563,-0.187423 2.40878,-0.782879 4.19136,-1.319768 1.7803,-0.53884 6.23677,-1.999173 9.9025,-3.244752 3.66572,-1.245579 8.8078,-2.920669 11.42683,-3.725024 2.61903,-0.802402 7.16005,-2.249069 10.09446,-3.215468 2.93213,-0.964446 6.70298,-2.192454 8.37816,-2.727388 1.67746,-0.534935 4.4199,-1.427144 6.09507,-1.983555 1.67517,-0.556411 6.04708,-1.962081 9.71281,-3.12371 3.66573,-1.163582 9.23745,-2.98119 12.37983,-4.039346 9.44542,-3.182279 16.28781,-5.421587 17.90128,-5.856954 0.83873,-0.22647 2.20995,-0.677455 3.04639,-1.001541 0.83873,-0.324082 3.32293,-1.167484 5.52373,-1.872273 4.87241,-1.561854 7.61713,-2.573155 7.61713,-2.80548 0,-0.413891 -1.62032,-0.05076 -5.9031,1.32172 M 86.539057,130.36966 c -0.141692,0.31237 -0.212537,4.55476 -0.155403,9.42774 0.116551,10.12082 0.223964,9.74598 -2.196238,7.70776 -5.427746,-4.57233 -15.686756,-5.01746 -22.442301,-0.97421 -11.111451,6.64764 -11.486252,25.26104 -0.653613,32.3831 6.746401,4.43567 18.136668,4.00225 22.906227,-0.87073 1.903711,-1.94451 2.719588,-1.86642 2.719588,0.26161 0,2.65515 2.417916,3.9593 4.8724,2.62977 0.518779,-0.28113 1.083265,-47.75175 0.596482,-50.07696 l -0.221681,-1.05816 h -2.582463 c -2.10711,0 -2.630458,0.10543 -2.842998,0.57008 m -63.974265,0.81412 c -1.211245,1.58723 -6.458447,12.81111 -12.7363483,27.25045 -1.6728884,3.84802 -4.4358965,10.07006 -6.1384947,13.82827 -3.72971812,8.22317 -3.88969378,9.06657 -1.7391638,9.2169 4.2690645,0.29675 4.3147721,0.24794 8.1907538,-8.64877 l 2.938981,-6.74917 h 12.507811 c 9.237453,0 12.628935,0.10152 12.96717,0.39047 0.42508,0.36118 2.932126,5.5563 5.306621,10.99741 1.634037,3.74649 1.629468,3.74259 5.155787,3.74259 3.704579,0 3.6543,0.18547 1.307229,-4.8847 -0.952997,-2.05579 -2.852136,-6.2279 -4.221072,-9.26961 -3.501181,-7.78389 -6.351032,-13.95322 -8.720957,-18.87306 -1.119831,-2.32716 -2.991546,-6.46998 -4.159369,-9.20713 -3.601736,-8.44963 -3.672583,-8.52577 -7.662833,-8.52577 -2.104823,0 -2.511618,0.0976 -2.996115,0.73212 m 4.899826,8.54139 c 0.370229,0.89416 1.586045,3.67621 2.705873,6.18104 2.909273,6.51879 6.650418,15.12265 6.650418,15.30227 0,0.31432 -21.28819,0.15228 -21.514442,-0.16204 -0.125695,-0.17376 0.895864,-2.77425 2.27394,-5.77691 1.375791,-3.00072 2.952694,-6.48365 3.503467,-7.73509 0.553059,-1.25339 1.396359,-3.08271 1.878571,-4.06863 0.482213,-0.98397 1.165537,-2.59463 1.522054,-3.5786 1.144969,-3.17837 1.725452,-3.20961 2.980119,-0.16204 m 340.425922,2.36816 c 0.27424,0.31823 2.2968,2.16512 4.4976,4.10572 7.98507,7.04202 8.97692,7.93227 10.52412,9.4258 1.1244,1.08549 1.75517,1.45838 2.21679,1.3061 0.42965,-0.14057 0.62163,-0.0605 0.57364,0.23818 -0.1714,1.05425 0.0227,1.45253 0.42508,0.86293 0.52792,-0.77507 -0.19656,-1.92499 -1.03984,-1.64776 -0.37708,0.12299 -0.82275,-0.0332 -1.13355,-0.39632 -0.99412,-1.15968 -7.23776,-6.86045 -11.66223,-10.64404 -4.20277,-3.59617 -5.5603,-4.59771 -4.40161,-3.25061 m -214.89759,1.92499 c -8.10848,0.49393 -12.95346,3.9222 -14.22641,10.06419 -0.55534,2.68249 4.65758,3.00853 5.49859,0.34557 2.37907,-7.55157 15.51079,-9.10366 19.51932,-2.30764 2.5459,4.31462 0.76102,6.53831 -6.03109,7.50861 -15.67989,2.23931 -19.09423,3.65474 -21.15563,8.77177 -4.50217,11.17702 13.89045,18.24636 25.64409,9.85725 2.42021,-1.7278 3.32064,-1.71218 3.32064,0.0527 0,0.95077 2.52305,2.56729 4.10681,2.63367 4.03595,0.16595 4.63929,-0.10347 4.64843,-2.08117 0.005,-1.23582 -0.79074,-1.95818 -1.81686,-1.64385 -0.26739,0.082 -0.89815,-0.082 -1.40094,-0.36313 l -0.91186,-0.51151 -0.0388,-11.32149 c -0.0297,-8.21536 -0.17825,-11.76858 -0.53934,-12.94192 -1.74831,-5.65782 -7.81367,-8.60191 -16.6169,-8.06307 m 41.70794,0.40217 c -2.97098,0.61303 -7.42745,3.42437 -7.42745,4.68361 0,0.38852 -0.32909,0.5447 -1.14268,0.5447 -1.1404,0 -1.14268,-0.004 -1.14268,-1.92498 0,-2.84648 -0.0983,-2.95582 -2.68531,-2.95582 -2.89099,0 -2.62588,-1.8176 -2.65788,18.08823 -0.032,19.59933 -0.21254,18.3557 2.67617,18.3557 2.95269,0 2.82928,0.51151 3.08524,-12.74669 0.25367,-13.27186 0.34509,-13.74627 3.23837,-16.7626 5.22663,-5.44892 16.49806,-4.49033 18.61202,1.58528 0.48221,1.3881 0.58505,3.88121 0.58505,14.17579 0,14.09378 -0.064,13.75017 2.58475,13.74236 3.15152,-0.008 2.94127,0.98202 2.9207,-13.73065 -0.0183,-12.7994 -0.0389,-13.16644 -0.90957,-15.54826 -0.82502,-2.26469 -2.83386,-5.17365 -3.58803,-5.19707 -0.18054,-0.006 -0.83187,-0.3729 -1.44664,-0.81607 -2.16195,-1.5521 -8.6981,-2.32131 -12.70206,-1.49353 m 40.75494,-0.10933 c -2.16881,0.26161 -4.19593,0.91173 -6.21162,1.99137 -1.80316,0.96835 -2.65332,1.63018 -4.88155,3.79921 -0.98271,0.95664 -2.79958,4.18382 -2.80415,4.98232 -0.002,0.39436 -0.17597,1.05229 -0.38394,1.46423 -2.20081,4.33415 -1.16325,14.64629 1.8283,18.15461 1.14039,1.33929 4.07023,3.90464 4.45646,3.90464 0.14855,0 0.77931,0.36703 1.40093,0.81411 0.62162,0.44708 1.33237,0.80826 1.57919,0.80241 0.24454,-0.006 0.14627,-0.205 -0.21939,-0.44123 -0.36794,-0.23818 -0.66733,-0.59936 -0.66733,-0.80435 0,-0.20304 -0.3428,-0.37094 -0.76103,-0.37094 -0.42508,0 -0.76331,-0.21671 -0.76331,-0.48808 0,-0.26747 -0.25596,-0.48808 -0.57134,-0.48808 -0.3131,0 -0.57135,-0.14838 -0.57135,-0.3319 0,-0.18351 -0.40908,-0.49198 -0.90957,-0.68721 -0.5005,-0.19328 -1.13583,-0.73993 -1.41007,-1.21239 -0.27653,-0.47246 -0.77703,-1.15187 -1.11526,-1.50914 -0.81131,-0.86293 -2.05226,-4.3322 -1.93799,-5.41769 0.0503,-0.47441 -0.0914,-0.96054 -0.31538,-1.07768 -0.69704,-0.36898 -0.52792,-8.50039 0.19882,-9.44726 0.33138,-0.43147 0.5005,-0.92931 0.3748,-1.10306 -0.12569,-0.17571 -0.0549,-0.40999 0.15769,-0.52323 0.21254,-0.11128 0.38852,-0.45098 0.38852,-0.75359 0.002,-0.30261 0.25824,-0.9703 0.57134,-1.48181 0.31309,-0.51346 0.56905,-1.12258 0.56905,-1.35491 0,-0.55251 2.52305,-2.77034 2.843,-2.49897 0.13484,0.11519 0.13027,-0.0469 -0.0114,-0.36118 -0.30167,-0.66964 0.78845,-1.84884 1.70717,-1.84884 0.33823,0 1.03756,-0.43927 1.55634,-0.97616 0.61933,-0.64231 1.29351,-0.97616 1.96313,-0.97616 0.5622,0 1.08783,-0.1718 1.17011,-0.38265 0.2331,-0.59741 8.54498,-0.93126 11.72164,-0.46856 l 1.33237,0.19523 -1.13354,-0.53493 c -1.12897,-0.53299 -6.60928,-0.87269 -9.15061,-0.56813 m 87.79694,0.0644 c 0,0.3807 3.1858,1.04449 3.54687,0.73993 0.1714,-0.14252 -0.46164,-0.42561 -1.40549,-0.62865 -2.04311,-0.43927 -2.14138,-0.44513 -2.14138,-0.11128 m -225.858225,0.37875 c -0.482211,0.26161 -0.43879,0.58765 0.319953,2.35449 0.484497,1.12844 1.873999,4.46691 3.087532,7.42077 8.94035,21.73906 10.88748,25.99316 12.0873,26.38167 4.39248,1.42715 5.77969,0.35142 9.03863,-7.02053 0.47535,-1.07378 1.92885,-4.36929 3.2315,-7.3212 1.30266,-2.95386 2.51391,-5.66172 2.69217,-6.02095 0.48449,-0.98006 4.52274,-10.0642 5.74084,-12.91068 0.90729,-2.12217 0.98728,-2.55753 0.5302,-2.87967 -0.6559,-0.4666 -4.91811,-0.11518 -5.44146,0.44708 -0.37479,0.40413 -4.25535,9.10366 -4.25535,9.53903 0,0.14252 -0.33595,0.99568 -0.74503,1.89375 -0.40908,0.89807 -2.05454,4.78123 -3.6543,8.62925 -3.98796,9.59564 -3.83256,9.26375 -4.41533,9.36331 -0.3588,0.0625 -0.96214,-1.06791 -1.91513,-3.57859 -1.89914,-5.00965 -9.26488,-22.72694 -10.19045,-24.51331 -0.97814,-1.88789 -4.186795,-2.82501 -6.111075,-1.78442 m 179.430995,-0.1679 c 0.0937,0.08 1.66603,0.2089 3.49433,0.28699 1.82829,0.08 3.53774,0.2948 3.79828,0.47832 0.93241,0.65793 3.60174,0.90197 2.99153,0.27332 -0.31765,-0.32799 -0.81359,-0.46855 -1.23867,-0.35532 -0.41592,0.11324 -0.70845,0.0351 -0.70845,-0.18937 0,-0.21085 -0.25596,-0.29676 -0.57134,-0.19524 -0.31311,0.10348 -0.57134,0.0469 -0.57134,-0.1269 0,-0.18156 -1.56091,-0.31627 -3.68173,-0.31627 -2.02483,0 -3.60632,0.0664 -3.51261,0.14447 m -78.42922,0.89807 c -0.35652,0.30261 -0.55991,0.30261 -0.91415,0 -0.35651,-0.30457 -0.25367,-0.39047 0.45708,-0.39047 0.71075,0 0.8113,0.0859 0.45707,0.39047 m 89.90862,0.99177 c 0.0891,0.22452 0.40222,0.40609 0.69932,0.40609 0.96443,0 2.73785,1.38419 2.38821,1.86641 -0.14399,0.20109 -0.0754,0.25576 0.16454,0.12885 0.35195,-0.18547 0.69247,0.25576 1.76887,2.29007 0.0161,0.0312 0.54163,0.16009 1.17012,0.28699 l 1.14269,0.23038 -0.85702,-0.70479 c -0.47307,-0.38851 -0.85701,-0.84145 -0.85701,-1.0074 0,-0.69502 -4.45418,-3.90268 -5.41861,-3.90268 -0.19653,0 -0.28795,0.18157 -0.20111,0.40608 m -39.70825,0.0996 c 0,0.27528 1.63403,1.42129 2.04769,1.43496 0.18283,0.006 0.10969,-0.21671 -0.15998,-0.49394 -0.56677,-0.58374 -1.88771,-1.24167 -1.88771,-0.94102 m 61.93571,0.65989 c -0.14169,0.31627 -0.0571,0.46465 0.22169,0.38655 0.56907,-0.16204 0.88215,-0.90197 0.38166,-0.90197 -0.20341,0 -0.47537,0.23233 -0.60335,0.51542 m 20.33749,-0.0176 c 0,0.26356 0.25823,0.47831 0.57134,0.47831 0.31538,0 0.57134,-0.1308 0.57134,-0.29089 0,-0.16009 -0.25596,-0.37485 -0.57134,-0.47832 -0.34737,-0.11323 -0.57134,0 -0.57134,0.2909 m -54.97449,0.63255 c -1.22039,0.18352 -2.20766,0.47832 -2.19168,0.65598 0.0138,0.17766 -0.1874,0.32408 -0.44563,0.32603 -0.74274,0.004 -2.28767,1.05035 -2.13225,1.44472 0.08,0.2089 0.71075,0.0215 1.5449,-0.4627 0.77245,-0.44903 1.63861,-0.81607 1.92429,-0.81607 0.28567,0 0.85243,-0.21475 1.25923,-0.47832 0.40679,-0.26356 1.55405,-0.48222 2.54817,-0.48808 0.99415,-0.006 1.81002,-0.16009 1.81002,-0.34165 0,-0.36899 -1.04442,-0.32994 -4.31705,0.16009 m 6.22075,0.19133 c 0.73361,0.14837 1.80546,0.36898 2.38136,0.48808 0.69246,0.14447 1.04671,0.0898 1.04671,-0.164 0,-0.21085 -0.15999,-0.29871 -0.35425,-0.19523 -0.19425,0.10347 -0.46164,0.0391 -0.5942,-0.14447 -0.13253,-0.18157 -1.04211,-0.31237 -2.0271,-0.29285 l -1.78488,0.0371 1.33236,0.27138 m -202.666302,1.61847 c 10.099035,4.59966 9.504839,22.06315 -0.911862,26.77409 -3.784566,1.71023 -10.590387,0.86097 -14.082429,-1.75904 -5.900816,-4.42591 -6.664129,-17.35416 -1.330081,-22.5317 4.026815,-3.90855 10.898912,-4.95304 16.324372,-2.48335 M 244.02603,148.4559 c 0,0.0586 0.8753,0.59155 1.94257,1.1831 1.06955,0.5896 2.54589,1.79223 3.28635,2.67077 0.73818,0.87855 1.44435,1.50915 1.57005,1.40177 0.12341,-0.10543 0.0343,-0.2948 -0.20111,-0.41975 -0.23311,-0.12495 -0.48907,-0.59155 -0.56906,-1.04059 -0.08,-0.45879 -0.36109,-0.77311 -0.64219,-0.72235 -0.27424,0.0508 -0.59419,-0.21671 -0.70846,-0.59351 -0.11655,-0.3768 -0.57363,-0.82388 -1.0147,-0.99178 -0.44336,-0.1679 -1.32094,-0.58374 -1.94942,-0.92735 -1.08784,-0.59155 -1.71403,-0.79654 -1.71403,-0.56031 m 42.54211,0.35922 c -0.41593,0.26942 -0.53478,0.52713 -0.29938,0.65208 0.21481,0.11323 0.74046,-0.0937 1.16554,-0.45685 0.87757,-0.74968 0.21709,-0.89806 -0.86616,-0.19523 m 99.63512,0.83364 c 0,0.80436 0.0754,1.1343 0.16684,0.73212 0.0891,-0.40217 0.0891,-1.06206 0,-1.46424 -0.0914,-0.40217 -0.16684,-0.0722 -0.16684,0.73212 m -98.16793,-0.0215 c -0.19426,0.26747 1.45351,1.97379 1.906,1.97379 0.37481,0 0.14627,-1.5189 -0.28339,-1.88789 -0.54618,-0.46661 -1.31866,-0.5076 -1.62261,-0.0859 m 42.60839,0.39632 c -0.16912,0.23428 -0.10514,0.28894 0.1714,0.14252 0.24683,-0.13081 0.54163,-0.01 0.66961,0.27527 0.33366,0.74384 0.87301,0.62279 0.63989,-0.14251 -0.21939,-0.7126 -1.05127,-0.86684 -1.4809,-0.27528 m -120.14173,1.17139 c 0.005,0.22256 -0.16455,0.40608 -0.3748,0.40608 -0.21026,0 -0.37937,-0.40218 -0.3748,-0.89416 0.005,-0.91759 0.73589,-0.44122 0.7496,0.48808 m 42.66551,-1.01911 c 0,0.17766 0.25139,0.60912 0.55992,0.95663 0.30852,0.34752 0.55991,0.48418 0.55991,0.30652 0,-0.17961 -0.25139,-0.61108 -0.55991,-0.95859 -0.30853,-0.34556 -0.55992,-0.48417 -0.55992,-0.30456 m 12.07588,0.64426 c -0.37481,0.42951 -0.50964,0.78093 -0.29937,0.78093 0.38621,0 1.34836,-1.2651 1.11066,-1.46033 -0.0708,-0.0566 -0.4342,0.24794 -0.81129,0.6794 m -36.91553,1.1792 c -1.3438,1.50915 -2.65331,3.79726 -2.38593,4.1682 0.1257,0.17376 -0.0297,0.31433 -0.3428,0.31433 -0.74274,0 -1.10383,2.03431 -0.93472,5.30054 0.12341,2.43454 0.10742,2.49116 -0.72903,2.36035 -1.07641,-0.1679 -1.11526,0.0879 -0.064,0.41975 0.66047,0.2089 0.82045,0.59351 0.95986,2.30178 0.0914,1.12844 0.37023,2.36426 0.61933,2.74887 0.24911,0.38265 0.4068,0.89221 0.34966,1.13039 -0.0846,0.35142 1.26381,1.6829 1.70489,1.6829 0.16226,0 -0.29253,-1.06206 -0.6262,-1.46424 -2.82014,-3.38141 -1.79401,-13.78922 1.81916,-18.45331 1.20667,-1.556 0.91643,-1.95427 -0.37023,-0.50956 m 62.45449,-0.37094 c -0.83415,0.78093 -0.83415,1.0074 0.003,1.61848 0.62392,0.45684 0.67419,0.39436 0.73362,-0.90393 0.0343,-0.76531 0.032,-1.38029 -0.005,-1.36467 -0.0366,0.0137 -0.36566,0.30651 -0.73134,0.65012 m -21.66755,0.65598 c -0.55305,0.51932 -0.89585,0.94492 -0.76102,0.94883 0.13256,0.002 0.003,0.13471 -0.29024,0.29285 -0.46393,0.24989 -1.54263,2.35254 -1.55861,3.0378 -0.0183,0.78093 0.70159,0.0156 1.28209,-1.36271 0.37251,-0.88441 1.09924,-1.99723 1.61803,-2.47554 0.5165,-0.47637 0.889,-0.98397 0.8273,-1.12454 -0.064,-0.14252 -0.56676,0.16595 -1.11755,0.68331 m 25.95264,0.47832 c 0,0.46075 0.25596,1.0562 0.57134,1.32562 0.31308,0.26747 0.57134,0.82584 0.57134,1.24168 0,0.41389 0.25138,1.16749 0.55991,1.67509 0.30853,0.5076 0.67188,1.55014 0.80444,2.31545 0.13483,0.76531 0.41595,1.392 0.62391,1.392 0.20797,0 0.2948,-0.18742 0.19196,-0.41389 -0.10284,-0.22842 -0.48906,-1.58333 -0.85929,-3.01048 -1.01012,-3.89292 -2.46361,-6.56369 -2.46361,-4.52547 m -44.16701,2.1085 c 0.009,0.25966 0.26739,0.91174 0.57363,1.44862 l 0.55991,0.97616 -0.20339,-1.12844 c -0.2034,-1.14796 -0.96443,-2.20416 -0.93015,-1.29634 m 5.03695,1.28463 c 0,0.80631 0.0754,1.13625 0.16683,0.73212 0.0891,-0.40218 0.0891,-1.06011 0,-1.46424 -0.0914,-0.40218 -0.16683,-0.0722 -0.16683,0.73212 m 36.62527,0.38851 c 0.28112,1.84494 1.36211,3.21742 1.36211,1.7278 0,-0.26942 -0.17143,-0.48808 -0.38167,-0.48808 -0.21026,0 -0.38166,-0.43146 -0.38166,-0.95663 0,-0.52713 -0.17139,-1.0484 -0.38166,-1.15968 -0.2354,-0.12495 -0.31766,0.2089 -0.21712,0.87659 m -68.69354,0.27918 c -0.016,0.45684 -0.23539,1.00545 -0.48678,1.2202 -0.34738,0.29675 -0.34966,0.39047 -0.007,0.39047 0.5165,0 1.01471,-1.39396 0.72218,-2.02065 -0.1097,-0.23038 -0.21254,-0.0469 -0.22854,0.40998 m 70.63839,0.08 c -0.16224,0.32018 -0.18968,0.67355 -0.0594,0.78483 0.38621,0.33189 0.69932,-0.13276 0.52105,-0.77507 -0.1577,-0.56813 -0.17825,-0.56813 -0.46165,-0.01 m -0.20338,2.66881 c 0,0.48613 0.16454,0.76531 0.38166,0.65208 0.21023,-0.11128 0.38166,-0.40413 0.38166,-0.65208 0,-0.24599 -0.17143,-0.53884 -0.38166,-0.65012 -0.21712,-0.11518 -0.38166,0.16595 -0.38166,0.65012 m 8.85809,0.32604 c 0.004,0.7165 0.0823,0.9703 0.17367,0.56617 0.0891,-0.40608 0.0868,-0.99178 -0.009,-1.30219 -0.096,-0.31042 -0.16912,0.0195 -0.16455,0.73602 m -41.81307,0.25185 c -0.31081,1.41153 -0.005,7.53985 0.45707,9.18371 0.32224,1.1421 0.89815,2.22954 3.02812,5.71833 0.92329,1.51305 4.60272,4.22287 4.05424,2.98705 -0.27197,-0.61498 -1.05585,-1.38419 -1.41007,-1.38419 -0.96444,0 -3.39835,-3.87926 -3.82571,-6.101 -0.14855,-0.7614 -0.4068,-1.31195 -0.5782,-1.22215 -0.60791,0.32214 -1.3278,-3.31503 -1.33009,-6.74916 -0.005,-3.79921 -0.0434,-4.0374 -0.39536,-2.43259 m 125.04154,-0.41389 c -0.36565,1.06401 -0.32224,28.28323 0.048,29.08954 0.25138,0.5486 0.33594,0.5076 0.75416,-0.35532 0.26054,-0.53494 2.4225,-2.53997 4.80841,-4.45519 2.38366,-1.91523 4.55933,-3.91635 4.83357,-4.44543 0.27424,-0.52908 0.6056,-0.96249 0.73816,-0.96249 1.38266,0 2.34251,-6.08733 1.33694,-8.48868 -1.00555,-2.40135 -9.44769,-10.46052 -10.62009,-10.13644 -0.15541,0.043 -0.28567,-0.14057 -0.28567,-0.40999 0,-0.26746 -0.1897,-0.48808 -0.42508,-0.48808 -0.67876,0 0.44792,1.19677 4.52731,4.80075 6.18191,5.46259 7.53256,9.27156 4.87696,13.74628 -1.0124,1.70632 -8.57927,8.46135 -9.4774,8.46135 -0.42965,0 -0.0869,-24.50355 0.35195,-25.12829 0.22625,-0.32018 0.15081,-0.31628 -0.32681,0.0137 -0.54851,0.3807 -0.63304,0.28894 -0.74047,-0.81412 -0.10511,-1.11087 -0.14856,-1.15577 -0.39994,-0.42755 m -120.27198,0.70869 c 0,0.31627 1.58604,0.73212 2.40421,0.6306 0.37709,-0.0469 0.92329,0.08 1.20896,0.28308 0.38164,0.27137 1.10382,0.27918 2.6693,0.0312 1.18153,-0.18547 2.26479,-0.32409 2.40877,-0.30651 1.71633,0.20694 13.8516,-0.11714 13.56365,-0.36118 -0.41822,-0.35728 -22.25489,-0.62865 -22.25489,-0.27723 m -101.94107,2.38378 c 0.94843,0.81216 0.46165,7.67456 -0.68332,9.59759 -4.4519,7.48129 -21.54644,6.7355 -21.54644,-0.94297 0,-4.25214 2.80186,-5.91162 12.42554,-7.36414 5.87796,-0.88635 8.09248,-1.30415 8.42615,-1.58919 0.36337,-0.31042 0.76788,-0.22256 1.37807,0.29871 m 104.03675,0.70478 c -4.98896,0.49199 -1.44436,0.78483 7.57142,0.6267 10.55839,-0.18352 13.74418,-0.51932 4.92726,-0.51932 -2.93672,0 -6.60702,-0.0586 -8.1565,-0.12885 -1.55175,-0.0703 -3.50575,-0.0605 -4.34218,0.0215 m -5.80026,1.73366 c 0,0.80435 0.0731,1.1343 0.16454,0.73212 0.0914,-0.40218 0.0914,-1.06206 0,-1.46424 -0.0914,-0.40218 -0.16454,-0.0722 -0.16454,0.73212 m 3.48291,1.8137 c -0.15542,0.71455 -0.0891,1.30415 0.17367,1.52867 0.31766,0.27137 0.42966,-0.0293 0.42966,-1.16163 0,-1.82151 -0.24911,-1.97379 -0.60333,-0.36704 m 37.63769,0.78874 c 0,0.62669 0.0777,0.88245 0.17367,0.57008 0.096,-0.31237 0.096,-0.82583 0,-1.1382 -0.096,-0.31433 -0.17367,-0.0586 -0.17367,0.56812 m -52.10408,1.2202 c -0.12569,0.49198 -0.40908,1.3022 -0.63076,1.80004 -0.21939,0.49784 -0.30395,0.98787 -0.18511,1.08939 0.11884,0.10152 0.42736,-0.45294 0.6879,-1.22996 0.25824,-0.77897 0.61476,-1.556 0.79302,-1.7278 0.40908,-0.40023 2.97783,-0.48613 2.97783,-0.10152 0,0.16009 0.19654,0.18547 0.43879,0.0586 0.31995,-0.16985 0.36794,0.15618 0.17369,1.20067 -0.35195,1.92694 -1.07412,3.65279 -1.65918,3.97102 -0.26281,0.14252 -0.47764,0.48027 -0.47764,0.75164 0,1.65166 1.80773,-1.23191 2.32193,-3.70355 0.21254,-1.02496 0.47536,-2.12021 0.58277,-2.43259 0.1714,-0.50174 -0.10513,-0.57007 -2.30136,-0.57007 -2.41106,0 -2.50019,0.0293 -2.72188,0.89416 m 15.38052,1.24558 c 0.14627,1.07377 1.4672,2.74105 2.1711,2.74105 0.16684,0 0.032,-0.25575 -0.29938,-0.57007 -0.32909,-0.31237 -0.8273,-1.19092 -1.10384,-1.95232 -0.61476,-1.68681 -0.98269,-1.79223 -0.76788,-0.21866 m 27.1136,-0.22452 c 0,0.3807 1.73459,0.65208 2.29222,0.35923 0.29938,-0.15814 0.23768,-0.29675 -0.19656,-0.43927 -0.91641,-0.30066 -2.09566,-0.25576 -2.09566,0.08 m -66.1111,4.11746 c 0.73132,1.269 1.33238,1.58137 1.98142,1.02692 0.14626,-0.12495 0.064,-0.22647 -0.18511,-0.22647 -0.24682,0 -0.72218,-0.48808 -1.05584,-1.08549 -0.33367,-0.59546 -0.81131,-1.08354 -1.06499,-1.08354 -0.30852,0 -0.20111,0.45294 0.32452,1.36858 m 67.90969,0.47832 c -0.36111,0.36117 -0.6559,0.78678 -0.6559,0.94882 0,0.16204 -0.17598,0.36899 -0.39082,0.46075 -0.21482,0.0918 -0.17367,0.12885 0.0914,0.082 0.26512,-0.0449 0.79989,-0.54665 1.18613,-1.11478 0.80902,-1.18115 0.71988,-1.32562 -0.23082,-0.37679 m -43.69851,1.00153 c 0,0.23819 -0.63305,0.98788 -1.41007,1.66533 -0.77474,0.67941 -1.24553,1.23387 -1.04441,1.23387 0.2034,0 0.58048,-0.29285 0.8433,-0.65012 0.26053,-0.35728 0.69246,-0.65013 0.95985,-0.65013 0.937,0 1.81687,-1.20653 1.19753,-1.6458 -0.42736,-0.30261 -0.5462,-0.29285 -0.5462,0.0469 m -20.70085,1.10697 c 0.91186,0.95273 1.27981,1.11282 2.29908,0.99959 0.75646,-0.0839 1.38493,0.041 1.66603,0.32799 0.29481,0.30456 1.19753,0.46269 2.59389,0.46074 3.4669,-0.008 3.59717,-0.54274 0.19197,-0.78092 -1.65003,-0.11519 -3.45547,-0.24209 -4.01538,-0.28114 -0.55764,-0.041 -0.94386,-0.13276 -0.8593,-0.20694 0.1714,-0.14448 -2.30594,-1.65557 -2.71273,-1.65557 -0.13713,0 0.23996,0.51151 0.83644,1.13625 m 44.31783,1.14211 c 0.31311,0.17375 1.17012,0.30065 1.9037,0.28113 l 1.33239,-0.0332 -1.14268,-0.24794 c -1.78488,-0.38852 -2.79731,-0.38852 -2.09341,0 m -27.99574,1.48571 c -1.50834,0.66964 -2.02712,1.11672 -1.29352,1.11672 0.31538,0 1.15411,-0.36508 1.86486,-0.81216 1.44892,-0.91368 1.1564,-1.06987 -0.57134,-0.30456 m 23.62612,0.12495 c -0.20339,0.27918 1.15639,0.8024 2.97325,1.1421 0.70162,0.13081 0.99185,0.0839 0.83418,-0.13666 -0.13486,-0.18547 -0.53477,-0.3397 -0.88903,-0.3397 -0.35422,-0.002 -1.11297,-0.21085 -1.68658,-0.46661 -0.57134,-0.25575 -1.1267,-0.3436 -1.23182,-0.19913 m 17.15166,0.51541 c -0.9507,0.61303 -0.59875,0.60912 0.79074,-0.01 0.60105,-0.26746 0.83418,-0.48222 0.51879,-0.47636 -0.3131,0.004 -0.90273,0.22256 -1.30953,0.48613 m 93.92171,10.6538 c -0.91186,0.75554 -5.11236,4.25019 -9.33114,7.76437 -4.22108,3.51417 -8.44444,6.93268 -9.38601,7.59647 -0.94385,0.66379 -3.08523,2.33692 -4.76269,3.71721 -1.67518,1.38029 -5.70428,4.61528 -8.9495,7.18844 -5.97853,4.73632 -17.15167,13.79313 -25.08647,20.3373 -2.38821,1.96793 -4.53416,3.72892 -4.76956,3.91049 -1.75059,1.36467 -11.97076,9.52731 -12.42325,9.92754 -0.31538,0.27528 -3.40063,2.76058 -6.85609,5.52311 -3.45776,2.76253 -7.99878,6.42898 -10.09446,8.14896 -2.09569,1.71805 -5.2655,4.27755 -7.04581,5.68907 -1.78257,1.41153 -6.56126,5.28101 -10.62238,8.59997 -4.06109,3.31697 -7.58513,6.17908 -7.82966,6.35674 -0.24452,0.1796 -2.06368,1.64579 -4.04281,3.26036 -1.97913,1.61263 -6.50872,5.27322 -10.06476,8.13337 -6.11564,4.91789 -8.3393,6.72378 -18.86112,15.30032 -9.82709,8.0123 -22.19321,17.90081 -22.67999,18.13703 -0.28567,0.13666 -1.77116,0.0254 -3.29778,-0.25186 -5.47345,-0.9898 -8.24789,-1.44666 -17.63618,-2.91089 -9.38828,-1.4623 -14.36581,-2.21197 -18.47261,-2.77619 -1.15183,-0.1601 -4.40848,-0.65402 -7.23776,-1.0972 -2.827,-0.44514 -6.51329,-0.97618 -8.18847,-1.18311 -1.67517,-0.205 -3.732,-0.51345 -4.57073,-0.68723 -0.83873,-0.1718 -5.4666,-0.89612 -10.28415,-1.61065 -4.81755,-0.7126 -11.24629,-1.66534 -14.28354,-2.11632 -3.03725,-0.44903 -5.77969,-0.84926 -6.09507,-0.88829 -0.34281,-0.043 -0.57134,0.18545 -0.57134,0.57203 0,0.82777 0.3428,0.90585 9.33343,2.12217 18.89313,2.55558 24.1129,3.30721 28.24713,4.06471 2.44534,0.44903 4.74671,0.81608 5.11922,0.81608 0.37023,0 1.71403,0.20304 2.98469,0.45292 2.18024,0.42756 3.52632,0.63256 9.92763,1.50331 1.46492,0.20108 3.9514,0.57396 5.52145,0.82973 5.78655,0.94295 19.30906,3.0866 21.71098,3.44194 5.83226,0.86291 6.28705,1.16747 4.09538,2.73322 -1.72545,1.23193 -19.20394,15.33938 -22.75997,18.37132 -0.31538,0.26747 -1.51519,1.2124 -2.66702,2.0968 -1.14954,0.88439 -5.2632,4.18771 -9.13918,7.3407 -11.62566,9.45899 -37.69026,30.56747 -41.10232,33.28509 -4.19136,3.34041 -5.30662,3.80701 -9.08661,3.80701 -4.58902,0 -5.35919,-0.44707 -15.55421,-9.02555 C 100.69262,385.14523 86.294815,373.0311 73.537898,362.30116 60.780982,351.56927 44.20979,337.58482 36.713787,331.22612 29.217784,324.86741 22.848468,319.61763 22.560512,319.56297 c -1.876286,-0.35534 -0.543918,1.13233 5.729413,6.39969 32.532194,27.31097 52.410312,44.04624 67.025231,56.43175 21.013944,17.81101 21.203634,17.93206 26.955904,17.32098 4.05423,-0.43146 4.61415,-0.77118 14.72461,-8.94162 3.87598,-3.13153 8.41701,-6.80188 10.09446,-8.15679 7.10064,-5.73786 12.09645,-9.8026 16.57348,-13.48271 2.62132,-2.15339 7.76339,-6.32161 11.42684,-9.2618 3.66344,-2.94018 8.29588,-6.67303 10.29329,-8.29736 1.99741,-1.62433 5.1695,-4.18576 7.04578,-5.69489 1.87857,-1.50915 5.22206,-4.21701 7.43201,-6.019 9.70596,-7.91665 9.91164,-8.06699 10.77551,-7.86591 1.08326,0.2499 7.38859,1.23974 14.7269,2.31352 3.24751,0.4744 8.04678,1.21825 10.66353,1.65166 5.07351,0.84143 5.98308,0.98592 14.28354,2.25102 2.93441,0.44707 7.56228,1.17528 10.28415,1.6165 5.68142,0.91956 18.42235,2.94802 21.52128,3.42244 1.15184,0.17764 4.32393,0.69305 7.0458,1.14599 2.72415,0.45098 5.9808,0.97811 7.23776,1.16946 1.25695,0.19132 3.48517,0.54663 4.95239,0.78872 1.46492,0.24405 4.12279,0.66575 5.90309,0.93906 1.7803,0.27138 6.06536,0.94102 9.52312,1.48767 9.82938,1.55014 25.12989,3.83241 27.26214,4.06667 6.70983,0.73798 20.49745,-2.73909 26.0509,-6.56955 10.70464,-7.38952 15.57247,-14.34758 17.1151,-24.47036 0.50051,-3.27596 0.58962,-130.75064 0.0914,-131.42029 -1.12895,-1.52281 -1.17924,0.88831 -1.34606,65.84779 -0.18513,71.326 -0.0343,66.65021 -2.34479,72.56573 -4.34219,11.12235 -16.64661,20.09521 -30.45479,22.21542 -6.06081,0.9293 -8.99065,0.82389 -17.90128,-0.65013 -2.09569,-0.34555 -5.18094,-0.83558 -6.8561,-1.08744 -1.67518,-0.25185 -6.2185,-0.96835 -10.09446,-1.59112 -3.87599,-0.6228 -10.04419,-1.58531 -13.71222,-2.13974 -3.66572,-0.55446 -7.43656,-1.14017 -8.37813,-1.30027 -0.94388,-0.16203 -2.8293,-0.45879 -4.19137,-0.65987 -1.36208,-0.20108 -3.33206,-0.50369 -4.37878,-0.67355 -1.04896,-0.16986 -5.50545,-0.89416 -9.90475,-1.60872 -4.39934,-0.71453 -12.28387,-1.96792 -17.51964,-2.784 -5.23806,-0.81801 -11.23714,-1.75514 -13.33282,-2.08703 -2.0934,-0.32994 -5.43689,-0.84534 -7.42744,-1.14602 -1.98827,-0.30064 -4.81756,-0.74578 -6.28476,-0.98591 -1.46492,-0.24014 -3.78,-0.60717 -5.14208,-0.8141 -1.36208,-0.20696 -3.24751,-0.50371 -4.18908,-0.6599 -1.56776,-0.25966 -5.62886,-0.89024 -9.87278,-1.53257 -0.92786,-0.14057 -1.74602,-0.41193 -1.82144,-0.60521 -0.1097,-0.27723 9.06605,-8.04942 13.93159,-11.79787 0.55078,-0.42561 2.63275,-2.10849 4.63016,-3.74259 1.99513,-1.63409 4.82669,-3.92417 6.29162,-5.08579 2.36307,-1.87812 9.09804,-7.32705 20.91796,-16.92074 6.4333,-5.22049 11.82448,-9.61906 21.14192,-17.24678 14.04588,-11.4972 16.74031,-13.69356 20.19807,-16.47171 1.78031,-1.43105 6.57958,-5.29273 10.66581,-8.58044 4.08395,-3.28965 8.97006,-7.21772 10.85548,-8.72686 1.88545,-1.51109 5.56945,-4.52352 8.18848,-6.69255 2.61903,-2.17098 6.16821,-5.05845 7.88908,-6.41532 1.72088,-1.35686 5.68601,-4.57818 8.8101,-7.15524 3.12637,-2.57901 8.0422,-6.59298 10.92404,-8.91819 2.88184,-2.32716 6.12706,-4.96279 7.21034,-5.85696 21.66985,-17.88909 21.51901,-17.75828 20.49058,-17.72509 -0.15539,0.006 -1.03069,0.62864 -1.94485,1.38224 M 2.4081495,194.17142 c -0.573627,0.54274 -0.6307612,2.75863 -0.6307612,25.16538 v 24.56993 l 0.9712807,0.37679 c 1.2775199,0.49784 3.6702987,0.48223 4.4770331,-0.0293 0.573627,-0.36313 0.6513295,-1.46424 0.7404589,-10.32972 l 0.095985,-9.92558 9.333437,-0.20304 c 9.888783,-0.21671 12.146723,-0.44513 15.805596,-1.6009 C 47.260753,217.75347 46.68027,198.78084 32.36245,194.75126 27.851135,193.4803 3.6353914,193.01174 2.4081495,194.17142 m 178.1808905,0.91564 c -2.18024,2.01088 -0.72903,5.64805 2.25565,5.64805 1.93571,0 2.49105,-0.27722 3.11039,-1.54428 1.71631,-3.51027 -2.50705,-6.73941 -5.36604,-4.10377 m -20.45403,1.97965 c -0.57363,0.53884 -0.66733,1.31977 -0.66733,5.54458 0,5.70858 0.22625,5.40207 -3.98796,5.42744 l -3.05782,0.0176 0.064,1.55991 c 0.0891,2.21588 0.46393,2.46382 3.87369,2.5751 l 2.91842,0.0937 0.18968,13.50419 c 0.1714,12.08094 0.26282,13.64085 0.8753,14.80053 2.89327,5.48015 14.62863,6.27084 13.91559,0.93906 l -0.12569,-0.93516 h -2.85671 c -5.79798,-0.004 -5.77512,0.0625 -5.7317,-15.51117 0.0183,-6.81554 0.1257,-12.52022 0.23996,-12.6764 0.11199,-0.15619 1.71631,-0.28309 3.56289,-0.28309 3.764,0 4.12737,-0.17375 4.27592,-2.04798 0.13712,-1.76294 -0.31767,-1.96989 -4.23021,-1.91718 -4.38105,0.0566 -4.27592,0.21086 -4.15708,-6.12247 0.0503,-2.67467 -0.0274,-4.96474 -0.17141,-5.08969 -0.69703,-0.5935 -4.26449,-0.5076 -4.92953,0.12105 M 23.680341,198.7496 c 3.827989,0.19914 5.402606,0.42561 6.942944,0.99569 8.79866,3.26037 8.20675,15.57364 -0.882152,18.31079 -4.924964,1.48181 -21.0665083,1.66923 -21.5281525,0.2499 -0.3268075,-1.0074 -0.4159366,-18.10776 -0.100556,-19.11711 0.262817,-0.83364 5.2723405,-0.97615 15.5679165,-0.43927 m 42.608374,8.51016 c -4.15708,0.4627 -9.027197,3.25256 -10.498973,6.01509 -0.930146,1.74147 -1.627182,0.8395 -1.522056,-1.96794 0.125696,-3.37555 0.03657,-3.46927 -3.1858,-3.34822 l -2.621314,0.0976 -0.08456,17.67044 c -0.09598,19.97221 -0.251388,18.93553 2.833857,18.93553 3.007542,0 3.128666,-0.25771 3.160662,-6.77064 0.08684,-17.09059 0.393081,-18.63097 4.365048,-22.0241 2.335646,-1.99527 3.654303,-2.56925 7.130346,-3.10028 4.547878,-0.69503 4.093091,-0.35532 4.093091,-3.05538 0,-2.12608 -0.514208,-3.24085 -1.270665,-2.75472 -0.03428,0.0234 -1.115258,0.16009 -2.399635,0.30261 m 18.904552,0.11323 c -6.451589,1.23777 -11.269141,5.66368 -10.967473,10.07982 l 0.111982,1.66533 h 2.24423 c 2.461339,0 2.415632,0.0351 3.469187,-2.52435 2.996115,-7.27238 18.040683,-7.09667 19.960386,0.23233 1.01242,3.86168 -1.138108,5.20488 -10.453261,6.52855 -13.56365,1.92889 -17.307081,4.40443 -17.311653,11.4523 -0.0091,10.20086 16.788304,14.43153 26.229153,6.60469 1.953991,-1.62042 1.787161,-1.6458 2.863561,0.43146 2.16653,4.18773 10.06018,4.60943 9.1049,0.48808 -0.30167,-1.31 -0.41136,-1.41152 -1.53805,-1.41152 -2.58475,0 -2.54818,0.17571 -2.79729,-13.26991 -0.25367,-13.59009 -0.38394,-14.33392 -2.91384,-16.70403 -3.505751,-3.28185 -11.376555,-4.84371 -18.001832,-3.57275 m 43.042592,0.0664 c -12.38211,1.95818 -18.92512,14.96842 -13.9773,27.78539 5.3569,13.88099 31.69575,13.24258 35.52374,-0.85902 0.90729,-3.34432 0.66275,-3.74845 -2.19395,-3.62935 l -2.33565,0.0957 -0.86615,2.19831 c -3.00069,7.61209 -12.72492,10.44685 -20.35119,5.93114 -6.85839,-4.06082 -7.48001,-19.54466 -0.97585,-24.33369 7.79767,-5.73787 17.65674,-3.49075 20.76941,4.73437 l 0.46393,1.2202 h 2.42249 c 2.89099,0 2.95269,-0.0605 2.44077,-2.42283 -1.60204,-7.40124 -11.10917,-12.27422 -20.92025,-10.72018 m 79.22452,0.13666 c -8.96092,1.597 -14.85488,9.14857 -14.85488,19.03315 0,3.85193 1.7483,10.41367 2.98697,11.21802 0.13941,0.0898 0.75417,0.7946 1.36665,1.56381 4.64158,5.84524 16.0707,7.48324 24.74366,3.54541 4.05653,-1.84103 6.80583,-5.51139 7.69712,-10.28091 l 0.25596,-1.36857 -2.37221,0.0976 -2.37221,0.0996 -0.84787,2.15731 c -3.84856,9.78502 -19.8507,10.08568 -24.36201,0.45685 -3.17894,-6.78236 -1.49463,-16.18472 3.62916,-20.24945 3.00297,-2.38573 9.63511,-3.1608 13.43567,-1.56966 1.03299,0.43146 2.0454,0.69698 2.2488,0.5896 0.20568,-0.10738 0.25368,-0.0332 0.11198,0.16399 -0.14397,0.19914 0.24225,0.67551 0.86159,1.06792 0.95528,0.60327 3.24065,3.99249 3.98568,5.91357 0.19654,0.5037 5.19693,0.93712 5.19693,0.45099 0,-0.81021 -0.90959,-3.77383 -1.49464,-4.87104 -0.83187,-1.5599 -1.92885,-2.58096 -1.93799,-1.80198 -0.005,0.36898 -0.064,0.36703 -0.34509,-0.0137 -0.1874,-0.25185 -0.25139,-0.65598 -0.14398,-0.89806 0.39309,-0.87269 -3.96968,-3.63717 -7.512,-4.76366 -2.07282,-0.65793 -7.90051,-0.96445 -10.27729,-0.54079 m 40.18589,0.61107 c -3.44176,1.04645 -4.38105,1.39396 -4.38105,1.62043 0,0.12299 -0.54392,0.49784 -1.20896,0.83364 -1.84886,0.93321 -2.60074,1.56966 -2.60074,2.20416 0,0.7946 0.78616,0.73212 1.03527,-0.08 0.1394,-0.45294 0.41365,-0.60327 0.87301,-0.47832 0.48221,0.1308 0.73588,-0.039 0.90043,-0.60131 0.13255,-0.45294 0.70161,-0.94883 1.35065,-1.17725 0.61477,-0.21866 1.21125,-0.60327 1.32551,-0.85512 0.11199,-0.25184 0.63077,-0.45879 1.15183,-0.45879 0.51878,0 1.93113,-0.22061 3.13781,-0.48808 3.28178,-0.73017 7.98735,-0.64427 9.98934,0.18156 0.89357,0.36899 1.91056,0.62084 2.26251,0.56227 0.40222,-0.0703 -0.0663,-0.40608 -1.2661,-0.91563 -2.54132,-1.07378 -9.54597,-1.26706 -12.56951,-0.34752 m -67.34062,-0.0898 c -0.57362,0.49003 -0.31081,35.47752 0.26739,35.88946 0.80902,0.57398 2.94812,0.77117 4.13195,0.38265 l 1.05126,-0.3436 -0.0983,-17.98476 -0.0983,-17.98475 -2.49105,-0.0957 c -1.37122,-0.0508 -2.61446,0.01 -2.76301,0.13667 m 32.2031,0.68136 c -0.68103,0.0722 -1.79629,0.0722 -2.47733,0 -0.68104,-0.0722 -0.12341,-0.13081 1.23866,-0.13081 1.36208,0 1.91971,0.0586 1.23867,0.13081 m 42.94433,0.74187 c 0,0.17767 0.47307,0.32214 1.04898,0.32018 0.81588,-0.004 0.92101,-0.0742 0.47536,-0.32018 -0.74503,-0.41193 -1.52434,-0.41193 -1.52434,0 m -4.717,0.99373 c -1.75973,0.25186 -2.88413,0.75555 -2.47276,1.10697 0.10284,0.0879 0.8593,0 1.67974,-0.19328 0.90272,-0.2128 2.66245,-0.26552 4.45418,-0.13081 2.00884,0.14838 2.96184,0.10738 2.96184,-0.12885 0,-0.19133 -0.41823,-0.34751 -0.93015,-0.34751 -0.51192,0 -1.03527,-0.14642 -1.16553,-0.32408 -0.26968,-0.3729 -1.8443,-0.36704 -4.52732,0.0176 m -26.8782,2.07727 c -0.2491,0.25771 -0.69932,0.38851 -0.99642,0.2909 -0.74503,-0.24404 -0.29252,-0.75945 0.66733,-0.75945 0.6399,0 0.70161,0.0859 0.32909,0.46855 m 20.8357,0.41975 c -0.57592,0.24794 -1.0467,0.66574 -1.0467,0.93126 0,0.56226 1.06269,0.18547 1.89457,-0.6716 0.68332,-0.70283 0.39765,-0.79069 -0.84787,-0.25966 m 17.17452,1.06401 c 0.6879,0.53689 1.4535,0.96445 1.7026,0.95078 0.32453,-0.0195 0.31767,-0.0722 -0.0229,-0.18937 -0.26281,-0.0918 -0.47535,-0.32018 -0.47535,-0.50956 0,-0.44708 -1.17697,-1.20458 -1.89457,-1.21824 -0.33367,-0.006 -0.0548,0.38655 0.69018,0.96639 m 5.39347,0.0566 c 0,0.2089 -0.28567,0.64817 -0.63304,0.97811 -0.88445,0.83364 -0.35423,1.11868 0.71988,0.38461 0.48678,-0.33385 0.82729,-0.86293 0.75416,-1.1753 -0.15081,-0.63255 -0.841,-0.78873 -0.841,-0.18742 m -30.03201,1.06987 c -0.98728,1.43105 -1.12668,2.42478 -0.25367,1.8059 0.31309,-0.22257 0.47992,-0.52323 0.3748,-0.66965 -0.10513,-0.14642 0.16911,-0.48222 0.61248,-0.74774 0.60562,-0.36118 0.7176,-0.61888 0.44793,-1.03082 -0.30853,-0.46856 -0.47764,-0.37485 -1.18154,0.64231 m 4.76499,-0.25966 c -0.13941,0.12105 -0.25367,0.48613 -0.25367,0.81412 0,0.32799 -0.25597,0.59741 -0.57135,0.59741 -0.31309,0 -0.59191,0.14642 -0.61704,0.32409 -0.0274,0.17961 -0.0777,0.50955 -0.11427,0.73211 -0.0343,0.22452 -0.29253,0.36509 -0.57134,0.31238 -0.33138,-0.0625 -0.44108,0.12104 -0.31767,0.52517 0.13255,0.43146 0.002,0.61107 -0.42736,0.58374 -0.37709,-0.0234 -0.55535,0.15228 -0.45936,0.45099 0.0891,0.26746 0.29024,1.58528 0.45022,2.92847 0.3428,2.88553 0.16454,2.4814 1.19981,2.74692 0.82959,0.2128 0.83416,0.22646 0.096,0.48026 -0.41822,0.14448 -0.98728,0.18938 -1.26381,0.0996 -0.38851,-0.12299 -0.44336,0.11324 -0.24453,1.02107 0.1714,0.78483 0.11655,1.1831 -0.16226,1.1831 -0.25368,0 -0.42508,0.64427 -0.42508,1.59895 0,0.9703 -0.18283,1.65361 -0.46393,1.73366 -0.2811,0.08 -0.43879,0.66574 -0.40223,1.48181 0.0366,0.74383 -0.0731,1.42324 -0.23996,1.51109 -0.62848,0.3319 -1.13811,-1.38614 -1.27295,-4.2951 -0.0823,-1.73951 -0.33138,-3.17642 -0.59419,-3.39898 -0.63762,-0.54665 -0.56678,-3.90464 0.10741,-5.01356 0.52106,-0.85902 0.21254,-1.87032 -0.40908,-1.33929 -1.48549,1.26706 -0.49593,14.88057 1.08097,14.88057 0.15998,0 0.29025,0.22452 0.29025,0.4998 0,5.28492 11.56852,10.60694 20.36033,9.36722 2.32422,-0.32799 0.55763,-0.71455 -2.45906,-0.53884 -2.81329,0.16399 -3.87141,-0.18352 -3.07153,-1.0074 0.43422,-0.44317 0.36566,-0.5115 -0.5005,-0.5115 -0.54848,0 -0.9987,-0.16205 -0.9987,-0.36118 0,-0.19719 0.27196,-0.27138 0.60334,-0.16205 0.33138,0.10738 0.85244,0.19719 1.15868,0.19719 0.31995,0 0.50963,0.24404 0.44564,0.57007 -0.13255,0.66965 6.27791,0.77117 7.05265,0.11129 0.4982,-0.42756 1.78715,-0.47442 1.78715,-0.0664 0,0.16009 -0.42965,0.38265 -0.953,0.49393 -0.52335,0.11324 -0.95299,0.36509 -0.95299,0.56227 0,1.48767 9.45457,-3.53955 9.51169,-5.0565 0.007,-0.16204 0.43193,-0.76531 0.94385,-1.33929 0.51194,-0.57398 0.92787,-1.31977 0.92329,-1.65752 -0.004,-0.33775 0.15769,-1.15968 0.3588,-1.82542 0.36568,-1.20653 0.3611,-1.21434 -0.95298,-1.42519 -1.45806,-0.23233 -3.16523,0.27137 -3.16523,0.93516 0,0.23428 -0.34052,0.99568 -0.75647,1.69266 -0.41593,0.69698 -0.67646,1.33343 -0.58047,1.41543 0.29025,0.24794 1.33694,-0.63841 1.33694,-1.13234 0,-1.08744 1.21123,-2.0636 2.5596,-2.0636 1.51749,0 1.52662,0.4256 0.0754,3.14909 -0.66731,1.24948 -1.87399,1.71413 -1.87399,0.7204 0,-0.16009 -0.16682,-0.2909 -0.37251,-0.2909 -0.23082,0 -0.24455,0.28699 -0.032,0.75946 0.51649,1.16358 -0.55534,2.81914 -1.83285,2.825 -1.21582,0.006 -2.13454,0.45684 -1.81916,0.89416 0.24453,0.33775 -3.48747,0.90002 -3.85999,0.58179 -0.11426,-0.0976 0.20569,-0.19132 0.71075,-0.20499 0.50736,-0.0137 0.70618,-0.0996 0.44565,-0.18938 -0.72218,-0.24794 -0.57134,-0.66378 0.3131,-0.86097 0.43422,-0.0976 0.88215,-0.48027 0.99641,-0.85121 0.13484,-0.43732 0.5165,-0.6755 1.08784,-0.6755 1.09926,0 2.0774,-0.80435 2.0774,-1.71023 0,-0.67355 -0.0228,-0.6716 -1.0467,0.11519 -4.77413,3.6684 -13.5088,4.31462 -18.48405,1.37052 -1.38036,-0.81802 -3.70457,-3.02218 -3.70457,-3.51222 0,-0.12495 -0.33824,-0.59545 -0.75189,-1.04449 -0.41365,-0.44903 -0.8593,-1.31391 -0.99413,-1.92303 -0.33138,-1.50914 -0.91872,-1.39591 -0.91872,0.17766 0,1.05816 -0.69018,2.29202 -0.79531,1.42129 -0.016,-0.14447 -0.0754,-0.61889 -0.13027,-1.05425 -0.11426,-0.90002 0.6719,-2.40721 1.07413,-2.0636 0.14626,0.12494 0.15312,-0.38266 0.0137,-1.12844 -0.53706,-2.86015 -0.31995,-3.01243 4.12738,-2.87577 2.14367,0.0664 5.0118,0.01 6.37389,-0.1269 l 2.47733,-0.24599 -1.90599,-0.0898 c -1.0467,-0.0488 -1.51749,-0.15228 -1.0467,-0.23037 0.47078,-0.0761 0.85701,-0.26552 0.85701,-0.41975 0,-0.15423 -0.38623,-0.32799 -0.85701,-0.38461 -0.47079,-0.0566 -0.81588,-0.24989 -0.76788,-0.42951 0.11655,-0.4256 3.5286,-0.62278 3.5286,-0.20499 0,0.17571 0.30167,0.38656 0.66733,0.46856 0.61705,0.13861 0.61476,0.15228 -0.0229,0.18742 -1.34151,0.0722 -0.19426,0.68722 1.28437,0.68722 1.56319,0 2.14368,-0.62084 0.64219,-0.68722 -0.77703,-0.0351 -0.78617,-0.0527 -0.0937,-0.20109 1.26609,-0.26942 1.41693,-0.8805 0.27424,-1.10697 -1.13582,-0.22451 1.97456,-0.40413 5.43918,-0.31237 1.0467,0.0273 2.41791,-0.0918 3.04639,-0.26356 0.78617,-0.21671 -2.53676,-0.31627 -10.66581,-0.32213 -6.49272,-0.004 -12.00046,-0.0136 -12.23813,-0.0215 -1.5312,-0.0469 -0.0777,-4.99403 2.19166,-7.45786 0.98957,-1.07377 0.51421,-2.03627 -0.55534,-1.12453 m 21.83896,0.68331 c 0,0.13666 0.32681,0.77116 0.72675,1.40762 0.39992,0.63645 0.95298,1.98941 1.22952,3.00462 0.63762,2.34668 0.98042,2.33887 1.17009,-0.0234 0.14627,-1.82346 -0.0114,-2.6122 -0.35422,-1.79027 -0.26281,0.63059 -0.86844,0.48026 -0.86844,-0.21671 0,-0.70674 -1.18152,-2.62587 -1.61803,-2.62782 -0.15769,-0.002 -0.28567,0.10933 -0.28567,0.24599 m 5.76826,2.93824 c 0.0526,0.76726 0.31996,1.55404 0.59192,1.74732 0.27194,0.19328 0.50962,0.5896 0.52562,0.8805 0.0206,0.35532 0.096,0.39241 0.22625,0.11323 0.10969,-0.23037 0.0434,-0.59545 -0.14396,-0.81411 -0.18741,-0.21671 -0.39082,-0.90783 -0.45024,-1.53453 -0.16225,-1.71608 -0.86614,-2.08702 -0.74959,-0.39241 m -34.03596,0.0664 c -0.19425,1.13625 0.2651,1.32172 0.60334,0.24404 0.31309,-0.99959 0.2971,-1.2202 -0.0983,-1.2202 -0.18511,0 -0.41365,0.43927 -0.50507,0.97616 m -9.85679,0.9293 c -0.56448,0.16595 -0.85015,-0.16985 -0.52792,-0.61693 0.20569,-0.28309 0.36109,-0.26747 0.59877,0.0605 0.1874,0.25966 0.15769,0.48808 -0.0709,0.55641 m 11.76736,2.50678 c -0.16683,1.2202 0.21482,1.80199 0.60791,0.9293 0.34509,-0.77117 0.27653,-2.08703 -0.1097,-2.08703 -0.1874,0 -0.41137,0.52127 -0.49821,1.15773 m 33.72514,2.25883 c 0,1.43105 0.0686,1.9777 0.14856,1.21239 0.08,-0.76531 0.08,-1.9367 -0.003,-2.60439 -0.0823,-0.66574 -0.14853,-0.039 -0.14626,1.392 m -5.66999,-1.11673 c -0.13711,0.19133 -0.15539,0.42756 -0.0388,0.52713 0.31308,0.26747 1.38721,-0.15033 1.38721,-0.53884 0,-0.44122 -1.02614,-0.43342 -1.34837,0.0117 m 4.20738,0.30066 c -0.12798,0.17766 -0.0571,0.57984 0.15769,0.89416 0.33366,0.49198 0.39079,0.44513 0.39991,-0.32213 0.0138,-0.93517 -0.16454,-1.11673 -0.5576,-0.57203 m -75.61593,2.60634 c -0.25139,1.6829 -0.26968,1.70828 -0.31995,0.43341 -0.048,-1.1792 0.26053,-2.59853 0.50278,-2.31935 0.0457,0.0527 -0.0366,0.90002 -0.18283,1.88594 m -93.93314,-0.15619 c 0.39994,0.88831 -0.221678,8.73468 -0.763312,9.65422 -3.763997,6.38017 -18.031541,7.31143 -20.940812,1.36467 -2.276226,-4.65433 1.099262,-8.13726 9.088903,-9.37113 1.832864,-0.28504 4.833551,-0.74969 6.666414,-1.03473 1.832864,-0.28699 3.588025,-0.64817 3.903406,-0.80435 0.884436,-0.44123 1.800868,-0.35532 2.045401,0.19132 m 169.4622,0.47442 c 0.032,0.36118 0.19198,0.65793 0.35653,0.65793 0.4205,0 0.37481,-0.89807 -0.0571,-1.12649 -0.19656,-0.10542 -0.3314,0.10543 -0.29941,0.46856 m -25.52981,-0.0898 c -0.47078,0.0781 -1.24324,0.0781 -1.71402,0 -0.47079,-0.0761 -0.0846,-0.14056 0.85701,-0.14056 0.94157,0 1.3278,0.0644 0.85701,0.14056 m 18.75829,0.0957 c 0.13027,0.17961 0.66504,0.32603 1.18839,0.32603 0.53705,0 0.85016,-0.14252 0.7176,-0.32603 -0.13028,-0.17767 -0.66504,-0.32409 -1.18839,-0.32409 -0.53706,0 -0.85015,0.14057 -0.7176,0.32409 m -2.75615,0.56031 c 0.58048,0.0742 1.43749,0.0722 1.90599,-0.006 0.4685,-0.0761 -0.007,-0.13861 -1.05355,-0.13471 -1.0467,0.002 -1.43064,0.0644 -0.85244,0.14057 m -20.43346,8.35397 c -0.2514,0.85512 0.45707,1.30024 1.51291,0.95468 0.43422,-0.14252 0.5782,-0.0254 0.50963,0.4178 -0.19654,1.30024 0.48679,2.42283 1.7506,2.87381 1.35065,0.48223 1.90599,1.40372 1.50377,2.49116 -0.23997,0.64427 -0.2971,0.62474 -0.97357,-0.32408 -0.39537,-0.55641 -0.97814,-1.00935 -1.2958,-1.00935 -0.32224,0 -0.57592,-0.28699 -0.57592,-0.65208 0,-0.35727 -0.1714,-0.65012 -0.38165,-0.65012 -0.20797,0 -0.37937,0.14642 -0.37937,0.32604 0,0.75164 -0.72218,0.24599 -0.95757,-0.6716 -0.1554,-0.59936 -0.58963,-1.10306 -1.09469,-1.26705 -0.45936,-0.15033 -1.08555,-0.53494 -1.39179,-0.85512 -0.49821,-0.52322 -0.48678,-0.56031 0.1097,-0.36899 0.48907,0.15619 0.66732,0.0488 0.66732,-0.40803 0,-0.34166 0.17369,-0.7126 0.38623,-0.82583 0.21483,-0.11324 0.29025,-0.34166 0.16912,-0.5076 -0.12112,-0.16595 -0.0183,-0.30261 0.22625,-0.30261 0.27881,0 0.3588,0.29089 0.21483,0.77897 m 9.31058,6.70426 c 0.22168,0 0.2971,0.14643 0.16912,0.32214 -0.13712,0.19132 -0.68561,0.0371 -1.33923,-0.3768 -0.61019,-0.38461 -1.02384,-0.81607 -0.91872,-0.96054 0.10513,-0.14448 0.52564,0.0254 0.93701,0.37679 0.41136,0.35142 0.93014,0.63841 1.15182,0.63841 M 2.2546675,256.40937 c -0.6787539,0.60132 -0.6993222,50.4069 -0.020568,50.98673 0.4753563,0.40415 3.9788234,0.53885 5.0346627,0.19328 0.5324903,-0.17375 0.6033367,-1.39393 0.6101929,-10.33166 0.00228,-5.57387 0.1302657,-10.29652 0.2856706,-10.49565 0.1851149,-0.24014 3.4966103,-0.43929 9.8019373,-0.58767 17.094541,-0.40608 23.210181,-3.12174 24.915066,-11.06768 1.967701,-9.17783 -2.449912,-15.98948 -11.872481,-18.30689 -2.79043,-0.68526 -28.0323043,-1.02887 -28.7544802,-0.39046 m 164.3681322,0.0156 c -1.53577,0.47832 -1.52662,0.31433 -1.32323,26.27822 0.20797,26.43243 0.0114,24.75733 2.90242,24.75733 3.40748,0 3.22694,0.67942 3.34806,-12.57096 0.11655,-12.77596 0.26967,-13.83218 2.36079,-16.29797 3.87369,-4.56842 13.33511,-5.62657 17.52876,-1.96011 2.43848,2.12802 2.42477,2.05383 2.74472,16.62398 0.32681,14.92353 0.16455,14.20506 3.20637,14.20506 2.72187,0 2.56418,0.69307 2.75387,-12.18245 0.22853,-15.66151 -0.31538,-18.71882 -3.88284,-21.7664 -6.04708,-5.16583 -19.12395,-4.2092 -23.87294,1.74731 -1.0307,1.2944 -1.81458,0.6599 -1.48549,-1.20261 0.66276,-3.72504 0.23997,-17.0457 -0.55763,-17.54354 -0.84101,-0.52713 -2.21452,-0.55837 -3.72286,-0.0879 m -138.753745,4.95303 c 11.445118,2.12022 13.070011,14.49987 2.475053,18.86917 l -2.475053,1.02106 -9.676241,0.10152 c -7.676546,0.08 -9.740232,0.0138 -9.9916224,-0.32605 -0.5302051,-0.71258 -0.4090804,-19.26352 0.1279806,-19.72231 0.653615,-0.55837 16.4660658,-0.51346 19.5398828,0.0566 m 30.091423,9.27742 c -6.211627,1.37443 -10.071612,5.38451 -10.087609,10.482 -0.01828,5.61096 3.636018,8.05333 15.037712,10.05445 10.956049,1.92302 13.828754,3.88901 11.78792,8.06307 -3.530891,7.22162 -21.880099,5.58753 -21.880099,-1.94841 0,-1.00936 -0.580482,-1.23386 -3.192655,-1.23386 -3.080676,0 -3.407484,0.58959 -2.237375,4.05106 3.402909,10.06419 26.827918,11.23167 32.447633,1.6165 3.761713,-6.43483 -0.5462,-12.33863 -10.183592,-13.95712 -13.575077,-2.27835 -15.906152,-3.33065 -15.862731,-7.15915 0.08913,-8.0084 18.184664,-8.45158 20.214068,-0.49588 0.114268,0.44903 0.274243,0.99764 0.354232,1.22018 0.09827,0.27138 0.975852,0.40804 2.635028,0.40804 h 2.48648 v -1.54622 c 0,-3.58251 -3.485184,-7.41297 -8.085627,-8.89088 -2.536759,-0.81605 -10.885201,-1.22798 -13.433385,-0.66378 m 78.653172,-0.0781 c -12.16957,2.12021 -18.43833,17.4752 -11.8062,28.91382 7.28575,12.56319 30.53021,10.73775 34.2645,-2.6942 0.61248,-2.2022 0.21483,-2.67858 -2.22138,-2.67075 -2.3105,0.006 -2.50019,0.14054 -3.4349,2.41109 -4.21879,10.2575 -20.8654,9.3399 -24.442,-1.3471 -1.63632,-4.89056 -0.79531,-11.83298 1.86943,-15.41941 5.54202,-7.46175 17.95156,-6.77259 21.72927,1.20459 l 1.06269,2.24518 2.53676,0.0956 2.53447,0.0957 v -1.48767 c 0,-7.34462 -11.41541,-13.20745 -22.09264,-11.34687 m -51.420745,0.35531 c -2.37221,0.23429 -2.376782,0.18351 0.454789,6.59299 0.829588,1.88008 1.650034,3.70941 1.826006,4.06667 0.175974,0.35923 0.674185,1.45643 1.108403,2.44041 2.726444,6.17517 9.045482,19.97417 9.833932,21.46964 1.126686,2.13778 1.014704,3.19204 -0.72903,6.80969 -2.262513,4.69532 -3.181231,5.38448 -7.731397,5.80424 l -2.667021,0.24599 -0.116554,1.56966 c -0.187399,2.50288 1.316371,3.15299 5.811686,2.50873 5.526016,-0.79068 7.628551,-3.17839 12.128441,-13.76579 3.3572,-7.89909 3.79599,-8.90257 5.9968,-13.74042 0.65133,-1.43301 2.27623,-5.16583 3.61088,-8.29736 1.33237,-3.13151 3.21094,-7.44808 4.1708,-9.58977 2.28765,-5.10141 2.35849,-5.83158 0.58276,-5.97411 -1.76887,-0.14446 -4.0451,0.4627 -4.38104,1.1675 -0.14855,0.31237 -0.66733,1.5189 -1.1564,2.68248 -0.48678,1.16163 -1.51063,3.50636 -2.27623,5.20488 -0.76559,1.70045 -1.88085,4.3361 -2.47962,5.85695 -0.59648,1.52085 -1.62718,4.01005 -2.28536,5.53286 -0.66048,1.52085 -1.83744,4.30292 -2.61675,6.18104 -1.80087,4.35173 -2.06369,4.33025 -3.92397,-0.32406 -2.344789,-5.86674 -2.41335,-6.03269 -4.895258,-11.87792 -1.291233,-3.0417 -3.014398,-7.11035 -3.830275,-9.04118 -1.901425,-4.50985 -2.475053,-5.43721 -3.366344,-5.43721 -0.395369,0 -0.948428,-0.0488 -1.227243,-0.10933 -0.278813,-0.0605 -1.108403,-0.0488 -1.842005,0.0233"
         stroke="none"
         fill="#3e8aad"
         fill-rule="evenodd"
         style="fill:#000000;stroke-width:2.11229" /><path
         id="path1"
         d="m 204.03204,0.67911128 c 2.14824,0.56226762 3.44176,1.55795002 14.66519,11.29806572 5.86654,5.091646 19.84842,17.164781 31.07185,26.830708 l 20.40375,17.57477 3.7823,-1.333434 c 2.07968,-0.73407 5.75225,-1.950365 8.16102,-2.702006 2.40879,-0.753597 7.12351,-2.286167 10.47385,-3.406796 3.35264,-1.120632 10.03734,-3.315036 14.85487,-4.87494 4.81983,-1.559901 10.64752,-3.467317 12.95119,-4.234577 18.65088,-6.223992 16.29863,-6.62609 23.27815,-6.6339 51.50874,2.86245 46.93256,45.088321 45.93336,75.760998 l -1.60351,49.22438 4.8564,4.29706 c 6.30304,5.57777 7.14404,6.84482 7.13949,10.75922 -0.003,4.26972 -0.92559,5.68515 -7.13949,10.92517 l -4.8564,4.09597 v 66.30073 c 0,73.23145 0.15539,68.17691 -2.28309,74.6996 -5.54429,14.82394 -26.35027,26.17668 -43.61394,23.79485 -5.13749,-0.70868 -18.07038,-2.66295 -27.2347,-4.11549 -2.82702,-0.44709 -6.5133,-1.02301 -8.18848,-1.27682 -6.25962,-0.94687 -13.79675,-2.15535 -16.37922,-2.62586 -1.46492,-0.26551 -4.12281,-0.69503 -5.90309,-0.95078 -1.7803,-0.2577 -5.98083,-0.91369 -9.33116,-1.46034 -3.35265,-0.54663 -7.55314,-1.2241 -9.33345,-1.50717 -1.78029,-0.28115 -4.43589,-0.71652 -5.90309,-0.96835 -3.46462,-0.59156 -21.583,-3.43024 -23.80667,-3.72893 -1.7323,-0.23429 -13.11115,-2.02261 -21.51901,-3.38339 l -4.56845,-0.73991 -2.28308,1.81761 c -5.80712,4.62113 -11.76964,9.42774 -19.21765,15.48381 -1.97912,1.61068 -3.79599,3.07491 -4.03824,3.25258 -0.23997,0.1796 -3.24294,2.59464 -6.67099,5.36887 -6.75782,5.47039 -6.83553,5.53482 -12.39583,10.07983 -8.385,6.85263 -11.91818,9.72058 -14.8206,12.02238 -2.66245,2.1124 -11.08174,8.9377 -19.42104,15.74347 -3.74115,3.0515 -5.96481,3.91832 -10.09447,3.93198 -5.49859,0.0196 -5.45059,0.0508 -21.854956,-13.90246 -7.820525,-6.65154 -22.334886,-18.90233 -32.255662,-27.22313 -40.990336,-34.38813 -45.881021,-38.61491 -45.332533,-39.1791 1.012418,-1.04254 0.08684,-1.76686 28.79562,22.52974 7.966786,6.74135 18.506897,15.60293 23.425006,19.69498 4.918109,4.09207 16.166684,13.57251 24.99734,21.06747 17.962985,15.24762 17.487625,14.93329 22.579425,14.93329 3.9194,0 4.47703,-0.31239 12.78662,-7.13573 2.09568,-1.72 6.62299,-5.39424 10.06247,-8.16459 3.43948,-2.77035 8.1519,-6.58712 10.47384,-8.48283 2.32193,-1.89376 5.41403,-4.38296 6.86981,-5.53091 1.45578,-1.14797 5.13979,-4.14281 8.18847,-6.65741 3.04867,-2.51265 6.65499,-5.44111 8.01706,-6.50709 2.84071,-2.22173 7.48001,-5.96431 13.51566,-10.89977 8.06049,-6.58908 10.16303,-8.29932 12.87118,-10.45467 2.56647,-2.04602 2.6716,-2.1827 1.78716,-2.34473 -4.42218,-0.80632 -22.02179,-3.57275 -33.31607,-5.23614 -4.18908,-0.61692 -10.35957,-1.56966 -13.7122,-2.12021 -6.87667,-1.12649 -8.27532,-1.33538 -15.23426,-2.28811 -2.72415,-0.37095 -6.23676,-0.88636 -7.80909,-1.1421 -1.57005,-0.25771 -5.59915,-0.8395 -8.95178,-1.29244 -3.35035,-0.4549 -6.65042,-0.90392 -7.33146,-0.99764 -1.06498,-0.14642 -1.23867,-0.30064 -1.23867,-1.11281 0,-1.29831 0.19654,-1.33929 3.83713,-0.78287 1.76659,0.26939 4.58216,0.69304 6.25734,0.94101 1.67517,0.2499 4.50445,0.67159 6.28475,0.93906 1.7803,0.26747 5.72256,0.85511 8.75981,1.30805 3.03726,0.45098 8.86723,1.32172 12.95118,1.93474 4.08395,0.61304 9.57111,1.4252 12.18786,1.80591 2.61903,0.38068 6.04708,0.90781 7.61941,1.16943 1.57005,0.26162 5.42774,0.84926 8.57012,1.30609 3.14238,0.45686 6.48359,0.96446 7.42744,1.13041 0.94157,0.16594 3.25665,0.53882 5.14208,0.82973 1.88543,0.29088 5.00952,0.81021 6.94294,1.15382 4.9044,0.87268 4.93411,0.86683 7.53028,-1.22216 4.17308,-3.35994 7.55543,-6.07756 13.89503,-11.1692 3.45091,-2.77426 8.2479,-6.6535 10.65896,-8.62145 5.33176,-4.35366 10.46241,-8.53162 12.03702,-9.79868 0.64219,-0.51541 4.06567,-3.28184 7.6057,-6.1459 8.01936,-6.48169 13.18657,-10.63818 13.75333,-11.06183 0.23768,-0.1796 2.63731,-2.16512 5.33178,-4.41418 2.69444,-2.24909 6.26874,-5.1717 7.9462,-6.49147 1.67519,-1.32173 6.13164,-4.90032 9.90251,-7.95179 3.76857,-3.05148 8.13591,-6.57151 9.70595,-7.82489 1.56776,-1.25339 3.37092,-2.71763 4.00851,-3.25452 0.89361,-0.75359 9.43629,-7.63552 13.93161,-11.22583 0.33825,-0.26747 2.22367,-1.80784 4.19365,-3.42046 11.79936,-9.66202 18.04297,-14.73024 22.24804,-18.05699 3.36862,-2.66491 12.74093,-10.18134 18.65545,-14.95671 2.09797,-1.69657 7.37259,-6.04828 11.71935,-9.66983 l 7.90509,-6.58713 v -14.15235 -14.15431 l -1.23637,-1.23191 c -2.31966,-2.31155 -5.04838,-4.79685 -10.62924,-9.68545 -3.06697,-2.68834 -6.43332,-5.7652 -7.47773,-6.83897 -1.04442,-1.07378 -2.64875,-2.45797 -3.56288,-3.07685 -0.91416,-0.61889 -12.03246,-10.0564 -24.70711,-20.97181 -63.12868,-54.375965 -68.04906,-58.536355 -68.99751,-58.34698 -0.49363,0.09761 -3.63828,1.011301 -6.99092,2.030412 -3.35035,1.019109 -7.1212,2.112407 -8.37816,2.428682 -1.25695,0.31823 -3.40062,1.013254 -4.7627,1.546238 -1.36208,0.532982 -3.93312,1.444715 -5.71342,2.028457 -1.7803,0.583745 -4.69414,1.546236 -6.47444,2.135836 -1.7803,0.591553 -5.37975,1.764898 -7.99879,2.6083 -2.61903,0.843399 -6.64584,2.155359 -8.95178,2.914808 -2.30365,0.759452 -6.76011,2.21393 -9.90249,3.231089 -32.87271,10.642086 -33.50347,10.845127 -35.2335,11.423012 -0.7336,0.244041 -3.9034,1.245579 -7.04578,2.225643 -3.14238,0.980064 -7.08464,2.241261 -8.75981,2.80353 -4.42219,1.483762 -14.74519,4.824177 -18.28294,5.919423 -1.67745,0.51737 -4.33305,1.36272 -5.90538,1.87814 -1.57005,0.51541 -5.25635,1.69265 -8.18847,2.61415 -2.93212,0.92345 -5.93281,1.88008 -6.66641,2.12607 -0.73361,0.246 -2.53219,0.8356 -3.9994,1.30806 -1.46492,0.47441 -3.95139,1.28267 -5.52144,1.79613 -9.1209,2.98509 -18.995968,6.15371 -20.895107,6.70426 -1.604328,0.46465 -1.755164,0.4588 -2.221378,-0.084 -1.090121,-1.27486 -2.212234,-0.80826 14.736045,-6.12247 3.24751,-1.01716 6.41731,-2.04212 7.04578,-2.27445 0.62848,-0.23428 1.65689,-0.5857 2.28537,-0.78288 4.85412,-1.5189 30.36795,-9.626879 31.42379,-9.986107 0.7336,-0.249896 3.73429,-1.208484 6.66642,-2.13193 2.93212,-0.923449 6.53157,-2.087031 7.99878,-2.584871 1.4672,-0.49784 3.35263,-1.08744 4.18907,-1.310005 0.83873,-0.224517 1.69575,-0.509555 1.906,-0.634505 0.20797,-0.124947 1.23638,-0.490029 2.28537,-0.810209 1.0467,-0.322133 2.93212,-0.917591 4.18908,-1.323674 1.25695,-0.406082 7.59884,-2.448205 14.09385,-4.537186 6.49273,-2.08703 12.14901,-3.93197 12.56952,-4.097916 0.89357,-0.357275 6.9338,-2.305688 10.47383,-3.381415 1.36208,-0.413893 2.9047,-0.905878 3.42805,-1.093298 0.52335,-0.187423 2.23737,-0.73212 3.80971,-1.210439 1.57004,-0.476364 3.37091,-1.054251 3.99939,-1.282671 0.62847,-0.230376 2.85671,-0.958591 4.9501,-1.622378 2.09568,-0.661836 4.83812,-1.546235 6.09508,-1.964033 1.25695,-0.415843 3.57203,-1.151866 5.14207,-1.636041 3.764,-1.155774 7.57828,-2.377924 8.75981,-2.809388 0.52564,-0.189373 2.23966,-0.700881 3.80971,-1.132342 1.57233,-0.433417 4.65529,-1.431049 6.8561,-2.217836 2.20081,-0.788736 6.19106,-2.122169 8.86951,-2.967521 2.67845,-0.843402 4.81983,-1.641901 4.7604,-1.772706 -0.47535,-1.042537 -61.94028,-53.395904 -63.18809,-53.8215093 -6.31904,-2.16121634 -9.2146,-0.8668293 -15.80788,7.0615353 -2.26708,2.723484 -6.62071,7.809273 -9.67396,11.298066 -3.05553,3.490745 -7.5897,8.762004 -10.07618,11.71391 -2.48648,2.953855 -6.42645,7.565233 -8.75524,10.249669 -2.32878,2.684439 -4.91125,5.687105 -5.73855,6.671072 -0.8273,0.983969 -3.47833,4.074487 -5.89168,6.868255 -2.41334,2.793767 -6.35789,7.393429 -8.76666,10.220388 -9.27174,10.880269 -10.77779,12.522167 -11.49997,12.522167 -1.83286,0 -1.35065,-1.097203 2.30594,-5.232212 1.39178,-1.571617 3.9354,-4.515712 5.65856,-6.542219 1.72089,-2.024555 5.30663,-6.243513 7.96679,-9.376984 2.66245,-3.131518 4.94782,-5.767149 5.07809,-5.856954 0.13255,-0.08981 3.78228,-4.3361 8.11533,-9.435554 9.21917,-10.856844 17.60418,-20.639909 21.615,-25.218096 1.56776,-1.788323 4.73528,-5.513346 7.03893,-8.2739244 7.69026,-9.21689422 11.24629,-10.964219 18.47262,-9.07632732 M 343.06003,35.426471 c -3.91482,0.468556 -8.03992,1.593093 -17.33221,4.726564 -6.19792,2.088981 -11.30343,3.728926 -17.90129,5.749575 -1.67516,0.513461 -3.64744,1.142106 -4.38105,1.39786 -0.73358,0.257707 -4.76041,1.516952 -8.94948,2.799625 -4.19137,1.282674 -8.73238,2.807433 -10.09446,3.387273 -1.3621,0.579837 -4.44733,1.678992 -6.85612,2.44235 -2.40877,0.765307 -4.58901,1.554046 -4.84269,1.757087 -0.35423,0.27918 1.57006,2.12412 8.19533,7.850269 4.76271,4.115488 23.99636,20.716049 42.74092,36.889056 18.74687,16.173 34.76959,30.0208 35.60831,30.77439 0.83873,0.75359 6.7944,5.92528 13.23684,11.49135 6.44015,5.56605 11.7125,10.27505 11.7125,10.46637 0,0.19133 1.68666,1.98883 1.64952,1.71736 -4.381,-31.99533 22.63505,-124.595075 -42.96429,-121.296925 M 92.334747,130.0651 c 0.715319,0.76726 0.692467,50.11796 -0.02286,50.95355 -1.855719,2.17098 -5.976234,0.72822 -5.976234,-2.09289 0,-2.31544 -0.185116,-2.36816 -1.958559,-0.55641 -4.250783,4.34586 -13.325975,5.35912 -20.856257,2.32912 -14.00244,-5.63244 -14.349816,-28.93336 -0.530204,-35.36039 6.86067,-3.19009 16.168968,-2.39354 21.345323,1.82542 l 1.620324,1.31977 v -9.13881 c 0,-10.08177 -0.08684,-9.73621 2.479625,-9.9451 2.052259,-0.16595 3.327492,0.0508 3.898834,0.66574 m 248.819291,-0.0722 c 0.67649,0.56813 0.98271,28.06653 0.47765,42.9061 l -0.28567,8.44768 -1.52434,0.27332 c -3.26578,0.5896 -4.76041,-0.31041 -4.76041,-2.86405 0,-1.40957 -0.0754,-1.40371 -2.28767,0.17766 -6.69613,4.79099 -17.00998,4.77147 -23.57125,-0.0449 -7.29491,-5.35716 -9.26031,-17.10426 -4.46334,-26.69209 4.61415,-9.22275 19.79356,-11.93452 28.38196,-5.07018 0.83873,0.6716 1.61806,1.22021 1.73231,1.22021 0.11427,0 0.20799,-4.09011 0.20799,-9.09195 0,-9.05485 0.003,-9.0939 0.85701,-9.61907 1.02841,-0.63451 4.3262,-0.40804 5.23576,0.35727 m -312.133085,0.34361 c 0.786164,0.25771 2.18481,2.87381 5.192352,9.71278 2.011122,4.57624 4.2325,9.39456 5.251773,11.38983 0.18283,0.35727 1.222671,2.62586 2.312791,5.04284 1.090118,2.41501 2.203093,4.83198 2.470481,5.36887 0.269674,0.53689 0.923287,2.00113 1.451208,3.25451 0.799878,1.90156 3.242934,7.27629 4.431326,9.76159 3.142379,6.55589 3.142379,6.53246 -0.265105,6.82336 -4.163935,0.35532 -4.847261,-0.15228 -6.977223,-5.19707 -1.718596,-4.07449 -3.014398,-6.95416 -3.766283,-8.37935 l -0.813591,-1.54429 -10.076182,-0.0703 c -5.542013,-0.0391 -11.125164,-0.0761 -12.40954,-0.082 l -2.333359,-0.0117 -2.075113,4.71875 c -4.8678307,11.06769 -4.6461501,10.80218 -8.8740782,10.65966 -3.51976161,0.33551 -2.62216104,-1.89674 -1.76430298,-4.15258 0.53249038,-1.10111 3.75257188,-8.22707 5.22206258,-11.54991 0.3953685,-0.89612 1.471776,-3.31114 2.3927786,-5.36888 0.9187174,-2.0597 2.143674,-4.8398 2.717301,-6.18299 2.699018,-6.29232 8.634115,-19.15029 9.347149,-20.2514 0.201113,-0.31042 0.367944,-0.69502 0.367944,-0.85316 0,-0.15814 0.443361,-0.9664 0.984993,-1.79418 l 0.982708,-1.50524 h 2.795003 c 1.535768,0 3.082961,0.0957 3.434907,0.21085 m -3.407482,7.94984 c -1.581474,3.91049 -7.276608,16.74894 -8.816945,19.87655 -1.533481,3.11395 -2.30822,2.87381 9.315154,2.87381 h 10.238443 l -0.553059,-1.38224 c -0.303953,-0.7614 -1.131258,-2.62782 -1.839719,-4.14867 -0.708464,-1.52086 -2.685307,-5.98776 -4.390192,-9.92364 -3.149233,-7.26261 -3.617734,-8.12749 -3.953682,-7.2958 m 136.331257,5.98581 c 7.71083,2.30764 8.94949,5.17169 8.94949,20.67895 0,11.84862 -0.0251,11.70415 2.12539,11.70415 3.33436,0 2.68531,4.59576 -0.70846,5.00574 -3.1698,0.38266 -6.76925,-1.2241 -7.37716,-3.29161 -0.27653,-0.94297 -0.28339,-0.94297 -2.16424,0.37485 -12.72492,8.90843 -31.75289,0.94883 -26.48512,-11.07941 2.13911,-4.88274 5.45517,-6.25718 19.94668,-8.26416 5.97166,-0.82778 7.80681,-1.84299 7.80681,-4.31072 0,-4.24043 -4.93182,-7.16696 -10.84634,-6.43484 -5.02781,0.62084 -6.98866,2.07141 -8.43758,6.24156 l -0.55077,1.58529 h -2.83614 c -2.72644,0 -2.843,-0.0312 -3.08068,-0.8356 -0.71074,-2.42087 1.20668,-6.54222 4.02911,-8.66829 2.46362,-1.8547 3.66801,-2.32131 8.58155,-3.31894 1.7483,-0.35532 9.18946,0.0566 11.04746,0.61303 m 42.41412,-0.33385 c 8.39872,1.90937 9.56426,4.81246 9.57111,23.85928 l 0.007,13.43 -0.97813,0.31627 c -1.34837,0.43928 -3.59488,0.39047 -4.73528,-0.10347 l -0.953,-0.40999 -0.18969,-13.65646 c -0.18511,-13.24843 -0.21711,-13.69747 -1.02155,-14.98209 -2.83158,-4.51962 -12.05531,-4.80075 -16.57805,-0.5037 -3.02354,2.87186 -3.2338,3.89097 -3.55832,17.2253 -0.21939,9.05876 -0.3908,11.58701 -0.80216,11.93843 -0.81588,0.69698 -3.69316,0.94687 -4.95239,0.43146 l -1.08327,-0.44317 -0.0983,-17.61968 c -0.11427,-20.41929 -0.29024,-19.30452 3.03954,-19.29866 3.22237,0.008 3.46233,0.18742 3.65202,2.7391 0.18054,2.41892 0.33137,2.53411 1.41235,1.06792 2.59389,-3.52198 10.89435,-5.43916 17.26823,-3.99054 m 39.62369,-0.1269 c 7.01379,1.38029 13.3534,7.62771 12.92146,12.73302 l -0.11655,1.40176 -2.18024,0.0976 c -2.67388,0.11909 -3.53317,-0.24404 -4.10909,-1.73171 -2.51847,-6.52269 -9.99391,-9.4336 -16.84315,-6.56174 -10.10361,4.23848 -10.01905,22.83432 0.11884,26.56129 7.03436,2.58487 13.81504,-0.12885 16.56662,-6.62617 l 0.83645,-1.9777 3.08981,-0.0937 3.0921,-0.0957 v 0.92149 c 0,7.54767 -8.52213,14.07231 -18.3812,14.07231 -14.88003,0 -23.12106,-11.52063 -18.74915,-26.20987 2.80643,-9.4375 12.74092,-14.65996 23.7541,-12.49093 m 40.93779,0.13861 c 6.97722,1.26315 11.33999,5.5563 13.58421,13.36557 0.97129,3.37752 0.98044,5.68711 0.0251,6.69646 l -0.72904,0.76726 -15.32337,0.0918 -15.32109,0.0918 0.24225,1.98161 c 1.38263,11.31173 19.61073,14.4413 24.66594,4.23458 1.14268,-2.3096 1.70717,-2.49116 5.6243,-1.8059 2.16424,0.37875 -0.0457,5.73787 -3.59717,8.72296 -3.74115,3.14714 -7.37031,4.26581 -13.68935,4.22482 -11.99589,-0.082 -19.24508,-6.48365 -19.87812,-17.54939 -0.82045,-14.41397 9.78365,-23.46491 24.3963,-20.82148 m -181.89006,0.76141 c 0.87072,0.74578 2.29679,4.05887 10.06018,23.40244 1.3118,3.26622 2.47049,5.937 2.57561,5.93895 0.10513,0 1.16325,-2.37988 2.35164,-5.28688 1.19068,-2.90895 3.04411,-7.411 4.12052,-10.00563 1.07641,-2.59463 2.43848,-5.89014 3.02811,-7.32119 2.99612,-7.28996 3.02583,-7.3212 6.97494,-7.3212 3.75943,0 3.76171,-0.10152 -0.21025,8.78543 -0.51878,1.16163 -3.2498,7.31144 -6.06765,13.66623 -7.09607,15.99535 -6.35332,14.96647 -10.78693,14.96647 h -3.13553 l -0.80673,-1.46424 c -0.44336,-0.8063 -1.3895,-2.89333 -2.10254,-4.63675 -0.71075,-1.74537 -1.83058,-4.41614 -2.48648,-5.937 -1.73002,-4.01006 -3.31606,-7.76437 -5.15807,-12.20199 -0.88901,-2.14755 -2.081969,-5.00379 -2.646454,-6.34503 -2.637311,-6.25523 -2.632742,-6.23766 -2.075111,-6.54027 1.037555,-0.56031 5.608285,-0.34556 6.364745,0.30066 m -32.797296,4.28534 c -7.38859,1.12063 -11.545673,8.55505 -9.870498,17.66067 2.669307,14.50767 23.045636,13.52956 25.614388,-1.22801 1.846577,-10.60304 -5.260914,-18.02185 -15.74389,-16.43266 m 206.530886,0.0996 c -4.47704,1.08354 -8.83523,5.50554 -9.20319,9.34185 l -0.10969,1.13429 h 12.37983 12.37985 l -0.13486,-1.13039 c -0.76102,-6.4856 -8.25016,-11.05598 -15.31194,-9.34575 m 40.9012,0.17962 c -10.93547,3.22718 -12.1193,22.18614 -1.66603,26.71942 9.74936,4.22873 19.07137,-2.05969 19.04396,-12.84234 -0.0297,-10.9486 -7.38859,-16.82703 -17.37793,-13.87708 m 70.25446,23.23063 c -0.13941,14.3105 -0.52792,13.36362 3.92626,9.54489 7.69482,-6.59494 7.69024,-10.31215 -0.0161,-17.45959 -1.72315,-1.59699 -3.28406,-2.90309 -3.46919,-2.90309 -0.1851,0 -0.38166,4.8437 -0.44106,10.81779 M 160.8019,163.61178 c -0.42051,0.14057 -2.47734,0.5076 -4.57073,0.81607 -10.88978,1.60676 -13.69849,3.05928 -13.63679,7.04787 0.0937,5.79838 9.9025,7.80732 17.24081,3.52979 3.3412,-1.94841 4.20279,-3.69379 4.20279,-8.51601 v -3.17447 l -1.23638,0.0215 c -0.68104,0.01 -1.58148,0.13471 -1.9997,0.27528 m 219.01355,31.07505 c -2.72415,2.36035 -6.57958,5.59144 -8.57012,7.18063 -1.99057,1.58918 -5.25407,4.217 -7.25604,5.84133 -1.9997,1.62238 -4.99811,4.04911 -6.66414,5.39035 -1.6683,1.3432 -6.71211,5.44111 -11.21429,9.11147 -4.4999,3.66841 -9.54598,7.76828 -11.212,9.10952 -1.66603,1.34319 -5.09638,4.13306 -7.624,6.20056 -4.02452,3.29161 -7.45715,6.05804 -21.35216,17.19602 -1.67746,1.34319 -4.76272,3.84411 -6.8561,5.5602 -2.09568,1.71414 -7.15319,5.81204 -11.23714,9.10756 -4.08395,3.29551 -9.56884,7.74681 -12.18788,9.89044 -9.71737,7.95374 -12.51924,10.23405 -18.04298,14.68339 -3.10809,2.50481 -6.64356,5.35911 -7.85252,6.34503 -1.20896,0.98398 -4.74442,3.83826 -7.85937,6.34502 -3.11496,2.50484 -7.03436,5.66174 -8.71182,7.01665 -1.67746,1.35294 -4.76499,3.84217 -6.85839,5.53093 -2.09568,1.68875 -5.60829,4.55083 -7.8091,6.36259 -2.2008,1.8098 -4.38562,3.56299 -4.8564,3.89488 -1.39407,0.982 -1.02156,1.31389 1.90371,1.70048 1.51977,0.20108 4.13194,0.59348 5.8094,0.87463 1.67518,0.28112 3.98797,0.6423 5.14208,0.8024 1.15182,0.16203 3.55146,0.52517 5.33176,0.81217 1.7803,0.28503 4.09538,0.65402 5.14208,0.81997 1.04669,0.16594 3.36177,0.53493 5.14207,0.81997 5.40489,0.86682 13.75791,2.12412 16.32666,2.45798 1.33466,0.17375 2.53447,0.37091 2.66702,0.44121 0.13255,0.0703 2.38364,0.43927 5.00268,0.81997 2.61903,0.38071 6.90409,1.05426 9.52312,1.49548 2.61904,0.44122 5.78885,0.96055 7.04578,1.15187 1.25695,0.19327 3.39836,0.54469 4.76043,0.78287 1.36208,0.23818 3.59032,0.59351 4.9524,0.78679 3.21093,0.45683 13.81961,2.10265 22.09262,3.42826 1.78031,0.28504 7.95079,1.24558 13.71222,2.13585 5.76141,0.89024 11.30112,1.76684 12.31125,1.94842 17.74359,3.19204 37.51659,-7.78976 43.41055,-24.10529 l 1.22039,-3.38336 0.10282,-66.46081 c 0.0548,-36.55325 -0.0297,-66.44324 -0.19196,-66.42372 -0.15996,0.0215 -2.51848,1.96794 -5.24263,4.32829 m -352.597797,-1.0972 c 11.141162,1.02496 16.45921,6.04437 16.45921,15.53655 0,7.65503 -4.860975,12.6393 -14.089286,14.4452 -0.943856,0.18547 -6.090502,0.42951 -11.431403,0.54469 l -9.7128081,0.2089 -0.100556,9.95292 -0.1005562,9.95292 -0.9895636,0.45294 C 5.8951822,245.30459 3.63724,245.24993 2.414569,244.56467 l -1.0169881,-0.56813 v -24.86668 -24.86667 l 0.8455856,-0.50565 c 1.0284149,-0.61499 18.8017105,-0.73408 24.9744865,-0.1679 m 157.509747,0.42755 c 2.52762,0.90393 3.23837,4.3322 1.29123,6.23376 -1.99284,1.94646 -5.82997,1.38419 -6.7464,-0.98593 -0.91415,-2.3662 0.30624,-5.10921 2.42935,-5.46454 1.4832,-0.24794 1.77801,-0.22646 3.02582,0.21671 m -19.92611,2.25688 c 0.94386,0.40804 0.953,0.45099 1.14268,5.77106 l 0.18969,5.35911 3.59717,0.0957 c 4.24849,0.11129 4.5913,0.28895 4.5913,2.38574 0,2.46968 -0.71761,2.88747 -4.95011,2.88747 h -3.42805 l 0.002,11.79591 c 0.002,15.53655 0.10284,15.80597 5.80483,15.38427 l 2.9527,-0.21671 v 2.11241 c 0,3.01633 -0.72218,3.46341 -5.59001,3.46341 -5.12836,0 -7.53257,-1.16358 -9.40657,-4.55475 -0.78388,-1.41934 -0.8113,-1.88204 -0.8113,-14.64239 v -13.17815 l -3.04411,-0.23623 c -3.67715,-0.28504 -4.08167,-0.61303 -3.92169,-3.18033 l 0.1097,-1.79027 3.23836,-0.16205 3.23837,-0.16399 0.19883,-5.15803 c 0.24224,-6.3177 1.78258,-7.82879 6.08592,-5.97214 M 8.6331467,208.66933 v 9.8924 l 1.5220543,0.12495 c 4.415328,0.35923 17.343646,-0.31237 19.503318,-1.01325 8.800946,-2.85625 9.255733,-14.41006 0.692465,-17.5572 -2.203093,-0.80826 -3.693152,-0.93321 -14.004725,-1.16554 l -7.7131123,-0.17571 v 9.89435 m 61.7140383,-1.24362 c 0.415938,0.93125 0.434221,3.13932 0.03657,4.35171 -0.228536,0.70284 -0.603335,0.84146 -3.293213,1.22606 -5.49402,0.78483 -8.314163,2.37207 -10.670375,6.00533 l -1.126686,1.73757 -0.189685,11.49915 -0.191971,11.49915 -0.898149,0.62084 c -1.261523,0.87269 -4.349054,0.85512 -5.38661,-0.0293 -0.75874,-0.64817 -1.254665,-34.63803 -0.530204,-36.25455 0.18283,-0.40804 0.843299,-0.51346 3.197228,-0.51346 3.501181,0 3.425764,-0.082 3.434905,3.68598 l 0.0069,2.65905 0.841015,-1.14015 c 3.430336,-4.63676 13.46995,-8.27198 14.770324,-5.3474 m 25.207594,-0.46856 c 4.447322,0.80631 8.371292,3.22328 9.975622,6.14199 0.76103,1.38615 0.81359,2.11436 0.99414,13.66623 0.21253,13.69942 0.20568,13.66623 2.63731,13.66623 1.67517,0 1.93342,0.32018 1.93342,2.40525 0,4.02178 -7.48001,3.78945 -9.90478,-0.30846 -0.52335,-0.8844 -0.98728,-1.66338 -1.0307,-1.72976 -0.0434,-0.0664 -0.900433,0.49785 -1.903709,1.25339 -10.45098,7.8698 -26.535392,3.33847 -26.542247,-7.47737 -0.0046,-7.0713 4.232499,-9.81821 18.049826,-11.70806 8.229605,-1.12258 10.23844,-2.26469 9.781368,-5.55825 -0.998704,-7.206 -16.059271,-7.53399 -19.078241,-0.41779 -0.367943,0.86878 -0.735888,1.76294 -0.81816,1.98941 -0.36566,1.0113 -4.639294,1.45057 -5.498592,0.56617 -0.733602,-0.75359 -0.292526,-4.27948 0.772453,-6.17128 2.92984,-5.20878 11.790206,-7.92055 20.63229,-6.3177 m 40.956052,0.14838 c 6.23448,1.09915 10.54468,4.17796 12.62436,9.0158 1.76659,4.10768 1.1404,5.11312 -3.19037,5.11312 -1.89,0 -2.07054,-0.15813 -3.21094,-2.82695 -2.81557,-6.58127 -12.41868,-8.47111 -18.772,-3.69379 -7.69254,5.78472 -6.19334,21.50674 2.36764,24.83935 7.18291,2.79767 14.86631,-0.10543 17.3825,-6.56565 0.9987,-2.55754 1.73231,-3.00852 4.71014,-2.88943 l 2.09568,0.0839 -0.0388,2.60244 c -0.22396,15.76692 -31.21125,17.68214 -36.84011,2.27835 -6.06308,-16.59275 5.71113,-30.98524 22.87195,-27.95719 m 79.82328,-0.0293 c 7.2309,1.60871 13.06088,6.94635 13.32141,12.19418 l 0.0868,1.78052 -1.8123,0.28894 c -3.02125,0.48417 -4.27363,0.11323 -4.81298,-1.42324 -3.4669,-9.88654 -17.51505,-10.73384 -22.7234,-1.37248 -2.34478,4.2131 -1.97684,12.05947 0.7816,16.66694 4.81984,8.05136 19.5216,6.55784 22.28004,-2.26274 0.66961,-2.14169 0.90271,-2.27835 3.87141,-2.27835 3.13095,0 3.3115,0.19914 2.61446,2.87576 -4.10681,15.80207 -30.48679,16.79189 -36.56587,1.37248 -6.34646,-16.09296 6.38532,-31.52994 22.95879,-27.84201 m 41.10004,-0.12104 c 8.96779,1.61066 14.74975,8.57458 14.77261,17.78757 0.009,3.55712 2.22367,3.17252 -18.80628,3.26623 l -13.28941,0.0586 0.20568,1.93279 c 1.19982,11.29221 18.67145,14.38273 24.95163,4.41224 l 1.43521,-2.27835 2.02255,-0.0996 c 3.52862,-0.1718 3.95825,1.43105 1.53348,5.72224 -5.43002,9.61517 -25.16416,10.75532 -32.32422,1.86642 -12.1513,-15.08947 0.3908,-36.10422 19.49875,-32.66814 m -71.31715,0.91564 c 0.69475,1.10891 0.5302,35.97732 -0.17369,36.57863 -1.18382,1.0113 -4.10909,1.04839 -5.63343,0.0722 -0.73132,-0.46856 -1.24781,-35.93242 -0.53706,-36.87344 0.55077,-0.72626 5.86654,-0.54079 6.34418,0.22257 m 62.70132,4.73437 c -3.93997,1.38419 -7.55085,5.3513 -8.11077,8.91624 l -0.21025,1.33928 h 12.43011 12.43011 l -0.005,-0.89415 c -0.032,-6.86826 -9.06604,-11.98529 -16.53462,-9.36137 M 98.468698,226.27144 c -0.102841,0.0878 -2.145959,0.45879 -4.541025,0.82583 -8.682106,1.33148 -10.476118,1.69851 -12.048452,2.47163 -6.49501,3.18618 -3.108098,11.19654 4.728424,11.18483 5.094083,-0.008 11.063459,-2.74886 12.544377,-5.76129 1.158678,-2.35645 0.575913,-9.79673 -0.683324,-8.721 m -67.020661,30.22969 c 8.613547,2.15145 12.542093,7.15915 12.130727,15.4643 -0.559914,11.35274 -7.029789,14.58579 -29.325824,14.65411 l -5.6197165,0.0175 v 10.01345 c 0,11.97552 0.1714023,11.46207 -3.8165623,11.46207 -2.2122348,0 -2.6944471,-0.10153 -3.0258252,-0.63061 -0.7815954,-1.24754 -0.5210636,-50.4479 0.2719586,-51.19564 0.898149,-0.84926 25.8589234,-0.66769 29.3852424,0.21475 m 139.626753,-0.25184 c 0.54163,0.46465 0.60105,1.61261 0.50278,9.76355 -0.0617,5.07992 -0.0251,9.23055 0.08,9.22274 0.10513,-0.006 0.63533,-0.56226 1.17697,-1.23581 0.7176,-0.8844 1.91056,-1.62042 4.33534,-2.67079 l 3.34577,-1.45055 h 4.61644 c 7.67198,0 12.14444,2.14559 14.39095,6.89949 0.94615,2.00504 1.62261,29.50146 0.75189,30.63771 -0.93928,1.22801 -5.97623,0.64818 -6.33504,-0.72821 -0.0983,-0.37875 -0.22396,-6.40165 -0.28109,-13.3812 l -0.10056,-12.69005 -0.953,-1.62433 c -3.87369,-6.6086 -16.86829,-4.8964 -19.75014,2.6044 -0.77245,2.00893 -0.81816,2.75275 -0.82273,13.58813 -0.005,6.30404 -0.15083,11.6573 -0.32681,11.89352 -0.79302,1.06987 -5.22434,1.16555 -6.22533,0.13666 -0.49821,-0.51345 -0.98043,-48.74938 -0.50278,-50.40885 0.23767,-0.82193 0.80673,-0.99178 3.51032,-1.04254 1.35293,-0.0273 2.16424,0.1269 2.58703,0.48613 M 8.6332235,271.1806 v 9.92365 h 8.1381905 c 11.104597,0 13.792187,-0.53298 17.201954,-3.42046 3.098956,-2.62196 3.773141,-7.94205 1.467204,-11.5597 -2.495618,-3.92024 -6.165918,-4.86711 -18.840561,-4.86711 H 8.633197 v 9.92362 m 62.760738,-0.26551 c 5.434599,1.65754 10.588103,8.19192 8.524416,10.80413 -0.943856,1.19091 -6.152207,0.6677 -6.152207,-0.61889 0,-6.05218 -14.251545,-8.62729 -18.458907,-3.33454 -3.270358,4.11157 0.02286,7.24699 9.141467,8.70341 9.470559,1.51305 12.612939,2.5146 14.569212,4.64654 9.831646,10.71625 -8.741526,22.48093 -24.940206,15.7962 -8.097054,-3.34042 -10.745792,-12.31913 -3.33435,-11.30588 l 2.214523,0.30456 0.429648,1.62629 c 2.109394,7.95766 19.624442,8.20949 21.36132,0.30456 0.644475,-2.93238 -2.607604,-4.65238 -11.646227,-6.15955 -11.982177,-1.99919 -15.878728,-4.76171 -15.554206,-11.03061 0.445646,-8.67416 11.94104,-13.36752 23.845517,-9.73622 m 77.768735,-0.01 c 5.63114,1.79223 9.9962,6.56175 10.07847,11.01304 l 0.0366,1.95231 h -3.00298 -3.00297 l -0.99642,-2.22173 c -4.2942,-9.57808 -19.05538,-8.47503 -22.78282,1.70241 -0.85244,2.32521 -0.937,9.17979 -0.14169,11.58311 3.45547,10.46051 19.16965,11.25707 23.6604,1.19676 l 0.969,-2.17291 h 2.83842 2.84071 l -0.0457,1.87227 c -0.20339,8.63314 -13.80133,14.9938 -25.10932,11.74514 -16.26495,-4.6719 -17.4602,-29.6518 -1.73002,-36.14131 4.60044,-1.89765 11.39941,-2.11632 16.38836,-0.52909 M 88.797,270.56952 c 0.781595,0.25574 1.711741,1.81565 3.181231,5.32982 0.635331,1.52085 1.606611,3.78944 2.159669,5.04282 1.496918,3.399 5.850541,13.97275 6.8881,16.73334 1.27295,3.37947 1.3575,3.36383 2.93441,-0.54862 1.91742,-4.7617 5.44602,-13.22302 6.34417,-15.20854 0.40223,-0.89416 1.44436,-3.30136 2.3128,-5.34741 2.55732,-6.02874 2.39506,-5.87843 6.2939,-5.87843 3.26121,0 3.33434,0.33581 1.12668,5.04285 -0.50278,1.07376 -1.68431,3.78359 -2.6236,6.02094 -2.41563,5.74569 -4.27135,9.99783 -7.38631,16.9188 -1.49005,3.31113 -3.84627,8.72294 -5.23577,12.02627 -4.06567,9.65422 -6.858384,12.13366 -13.728198,12.19028 -3.933115,0.0332 -4.346765,-0.23038 -4.346765,-2.76059 0,-2.21781 -0.01601,-2.20612 3.110384,-2.44819 4.234783,-0.32996 5.263199,-1.0855 7.283462,-5.34156 1.917422,-4.03934 1.981412,-4.50985 0.91186,-6.51486 -0.523348,-0.98007 -1.830578,-3.75823 -2.904699,-6.17519 -1.074123,-2.41501 -2.177954,-4.83198 -2.454483,-5.36888 -0.27653,-0.53689 -0.859298,-1.78051 -1.298089,-2.76449 -0.436506,-0.98592 -1.597472,-3.54735 -2.577893,-5.6949 -3.615452,-7.91665 -5.880248,-13.39487 -5.880248,-14.22265 0,-0.99372 3.912547,-1.67899 5.889389,-1.03081"
         stroke="none"
         fill="#fbfbfb"
         fill-rule="evenodd"
         style="fill:#000000;stroke-width:2.11229" /></g></g></svg>
