<svg height="256" width="256" viewBox="0 0 25 25" role="img"><path fill="#FFFFFF" d="M0,0 h25v25H0z" shape-rendering="crispEdges"></path><path fill="#000000" d="M0 0h7v1H0zM9 0h1v1H9zM12 0h1v1H12zM15 0h1v1H15zM18,0 h7v1H18zM0 1h1v1H0zM6 1h1v1H6zM8 1h1v1H8zM11 1h3v1H11zM15 1h2v1H15zM18 1h1v1H18zM24,1 h1v1H24zM0 2h1v1H0zM2 2h3v1H2zM6 2h1v1H6zM8 2h5v1H8zM16 2h1v1H16zM18 2h1v1H18zM20 2h3v1H20zM24,2 h1v1H24zM0 3h1v1H0zM2 3h3v1H2zM6 3h1v1H6zM9 3h3v1H9zM14 3h3v1H14zM18 3h1v1H18zM20 3h3v1H20zM24,3 h1v1H24zM0 4h1v1H0zM2 4h3v1H2zM6 4h1v1H6zM8 4h1v1H8zM13 4h4v1H13zM18 4h1v1H18zM20 4h3v1H20zM24,4 h1v1H24zM0 5h1v1H0zM6 5h1v1H6zM8 5h2v1H8zM11 5h1v1H11zM13 5h3v1H13zM18 5h1v1H18zM24,5 h1v1H24zM0 6h7v1H0zM8 6h1v1H8zM10 6h1v1H10zM12 6h1v1H12zM14 6h1v1H14zM16 6h1v1H16zM18,6 h7v1H18zM8 7h2v1H8zM12 7h1v1H12zM14 7h2v1H14zM0 8h2v1H0zM3 8h1v1H3zM6 8h2v1H6zM10 8h1v1H10zM12 8h3v1H12zM16 8h1v1H16zM18 8h3v1H18zM22 8h2v1H22zM2 9h4v1H2zM8 9h1v1H8zM10 9h2v1H10zM13 9h1v1H13zM16 9h3v1H16zM24,9 h1v1H24zM0 10h1v1H0zM3 10h2v1H3zM6 10h1v1H6zM8 10h3v1H8zM14 10h1v1H14zM16 10h3v1H16zM20 10h1v1H20zM23,10 h2v1H23zM0 11h2v1H0zM3 11h3v1H3zM8 11h1v1H8zM11 11h3v1H11zM15 11h2v1H15zM19 11h2v1H19zM0 12h1v1H0zM4 12h3v1H4zM11 12h3v1H11zM16 12h3v1H16zM21 12h1v1H21zM23,12 h2v1H23zM1 13h1v1H1zM3 13h3v1H3zM7 13h2v1H7zM10 13h1v1H10zM12 13h1v1H12zM14 13h1v1H14zM18 13h2v1H18zM21 13h2v1H21zM24,13 h1v1H24zM0 14h1v1H0zM2 14h1v1H2zM5 14h2v1H5zM11 14h1v1H11zM14 14h1v1H14zM18 14h3v1H18zM22 14h1v1H22zM24,14 h1v1H24zM1 15h2v1H1zM5 15h1v1H5zM8 15h1v1H8zM10 15h2v1H10zM13 15h1v1H13zM17 15h2v1H17zM20 15h1v1H20zM23 15h1v1H23zM0 16h2v1H0zM3 16h1v1H3zM6 16h2v1H6zM9 16h4v1H9zM16 16h7v1H16zM8 17h2v1H8zM11 17h2v1H11zM14 17h3v1H14zM20 17h2v1H20zM24,17 h1v1H24zM0 18h7v1H0zM8 18h1v1H8zM10 18h1v1H10zM12 18h1v1H12zM14 18h3v1H14zM18 18h1v1H18zM20 18h2v1H20zM23,18 h2v1H23zM0 19h1v1H0zM6 19h1v1H6zM9 19h1v1H9zM12 19h1v1H12zM14 19h1v1H14zM16 19h1v1H16zM20 19h3v1H20zM24,19 h1v1H24zM0 20h1v1H0zM2 20h3v1H2zM6 20h1v1H6zM9 20h2v1H9zM12 20h3v1H12zM16 20h6v1H16zM23 20h1v1H23zM0 21h1v1H0zM2 21h3v1H2zM6 21h1v1H6zM8 21h1v1H8zM10 21h1v1H10zM13 21h1v1H13zM15 21h2v1H15zM19 21h4v1H19zM0 22h1v1H0zM2 22h3v1H2zM6 22h1v1H6zM10 22h1v1H10zM14 22h3v1H14zM19 22h2v1H19zM22 22h1v1H22zM24,22 h1v1H24zM0 23h1v1H0zM6 23h1v1H6zM8 23h1v1H8zM10 23h1v1H10zM12 23h2v1H12zM15 23h2v1H15zM21 23h1v1H21zM0 24h7v1H0zM8 24h1v1H8zM10 24h1v1H10zM12 24h2v1H12zM15 24h5v1H15zM23,24 h2v1H23z" shape-rendering="crispEdges"></path></svg>