<svg xmlns="http://www.w3.org/2000/svg" xmlns:xlink="http://www.w3.org/1999/xlink" viewBox="0 0 1024 1024">
  <defs>
    <linearGradient id="b">
      <stop offset="0"/>
    </linearGradient>
    <linearGradient id="a">
      <stop offset="0" stop-color="#fff"/>
    </linearGradient>
    <linearGradient xlink:href="#a" id="d" x1="1.1e-7" x2="1024" y1="512" y2="512" gradientTransform="translate(.49911042 .5000804) scale(.99902)" gradientUnits="userSpaceOnUse"/>
    <linearGradient xlink:href="#b" id="c" x1="-.49959821" x2="1024.5" y1="511.99945" y2="511.99945" gradientTransform="translate(.49911042 .5000804) scale(.99902)" gradientUnits="userSpaceOnUse"/>
  </defs>
  <path fill="url(#c)" fill-rule="evenodd" stroke="url(#d)" stroke-linecap="round" stroke-linejoin="round" d="M565.53041 2.3826461c-26.21859 9.3853309-29.04311 39.8271589-5.87113 63.3230289 18.57465 18.840538 17.61352 11.65723 17.48655 130.230805-.12253 118.54094.93394 110.77568-17.87198 130.88711-16.61159 17.76504-14.62131 30.2416 7.60761 47.58775l10.16008 7.93283v25.26031c0 30.01815-2.72023 39.77124-15.63232 56.0233-13.75533 17.31357-11.55647 43.69118 4.20279 50.45084 14.16791 6.07994 19.31826 4.18057 36.19733-13.37041 31.21477-32.44825 30.04957-23.61693 29.77301-225.91823-.18151-130.68702.22691-162.42301 2.17167-168.85213 5.0098-16.540674 27.05282-34.645671 42.46297-34.87844 16.89268-.256303 32.19853-20.325556 29.36503-38.509641-5.66718-36.3914302-46.37108-43.281447-63.60836-10.76333-9.49815 17.918741-25.81959 16.764164-35.33586-2.495306-7.49429-15.1673625-25.39802-22.5322358-41.10739-16.9084869M367.61926 8.0576057c-2.67485 2.2532223-4.86919 4.6228353-4.86919 5.2699343 0 .647098-2.58877 5.451497-5.75328 10.684188-20.40182 33.700584 14.74371 81.893552 56.49487 77.470892 17.50016-1.857545 34.93692-13.752109 43.09766-29.408347 2.72477-5.232663-.36259-11.657183-3.27792-6.815534-.75714 1.266266-3.09652 2.029768-5.19113 1.699234-4.42038-.688991-7.42171-3.114495-3.86274-3.114495 1.60494 0 1.31932-.814671-.84781-2.444094-2.39835-1.801615-2.94692-3.719642-2.07642-7.276372 1.55054-6.340679-.23597-6.098595-11.2845 1.536232-26.42257 18.258634-57.592-1.694485-57.53306-36.824346.0181-8.249406.0181-14.9718312 0-14.9392407-.0136.037301-2.21699 1.9087167-4.89648 4.1619484M288.82754 50.235748c-6.77339 4.916059-8.05192 9.231629-4.8148 16.228766 6.51041 14.092007 23.83836 10.437512 23.83836-5.027849 0-9.804309-11.57008-16.615183-19.02356-11.200917M743.7243 61.632147c-27.48353 28.225905-10.59988 71.893683 27.71018 71.670243 22.18811-.13048 45.97659-25.07871 31.50039-33.03484-2.38472-1.312822-4.57455-4.213184-4.86924-6.452427l-.53496-4.068772-9.743 4.604166c-26.91682 12.737233-54.20989-14.236279-37.06325-36.628884 5.80315-7.574336 2.25779-5.591109-7.00012 3.910514M490.71475 97.748942c-13.79616 6.983168-13.61483 5.730828-14.7301 101.576638-1.02013 88.01541-1.22412 90.43625-8.80451 104.28145-2.12634 3.88723-33.73556 36.42398-70.24117 72.29869C273.24959 497.45873 272.51968 498.48757 272.4562 551.66178c-.0136 11.75495-.3626 21.36843-.77526 21.36843-.41251 0-3.07388-2.38823-5.91651-5.30717-14.86155-15.26053-43.40144-9.46921-50.06601 10.16278-2.3575 6.94123-6.40612 6.41049-14.48982-1.8901-10.75399-11.04734-14.30845-26.34973-9.25332-39.87372.63923-1.7039.36259-3.1005-.60752-3.1005-.97479 0-2.353 2.25322-3.0648 4.99993-.7118 2.75132-1.6639 3.98036-2.11272 2.72808-.98837-2.75138-9.37128-3.06327-9.37128-.34438 0 1.05676-.81155 1.41059-1.7999.78209-.99289-.62845-1.32386-1.94126-.73449-2.91428.58487-.97297.0953-2.97484-1.09261-4.44125-2.99223-3.7011-7.46249 2.18336-5.10041 6.71776 1.38729 2.65356.70726 2.90964-5.47224 2.05768-6.00264-.82398-7.05447-.47485-7.05447 2.36033 0 2.59307-.47152 2.84444-2.12633 1.14986-3.49554-3.59397-6.47416-2.56979-5.56745 1.90875.79344 3.89191.69823 3.87328-1.94946-.45622l-2.78374-4.54368 1.09264 4.99995c.66193 3.03997.34898 4.99989-.80248 4.99989-1.31478 0-1.92684 24.88791-1.99485 81.50245-.11346 93.10379-.50777 96.26484-12.98914 104.0766-13.07979 8.18886-29.546341.46554-33.146102-15.54444-.897683-4.00367-1.804442-51.87536-2.017506-106.38566-.208753-54.51035-.661927-94.08143-1.006507-87.93627-.634699 11.32663-7.648387 17.16455-13.660196 11.36387-1.015538-.98229.03177-1.67593 2.656788-1.7504 6.15231-.18174-.68008-3.20294-7.648433-3.38454-4.443-.11651-4.805699.33971-3.840009 4.87426.802474 3.78483.612054 4.34349-.779804 2.29045-1.496137-2.21132-2.262337-2.28113-4.112097-.38166-1.849764 1.89942-1.78176 2.65362.367224 4.05024 2.207925 1.42922 2.099114 1.71787-.661922 1.74112-2.439151.0233-3.064811-.92641-2.380215-3.60795.607521-2.39289.05441-3.63589-1.618539-3.63589-1.400931 0-3.033074-1.29885-3.62246-2.88173-.865939-2.31837-1.369183-2.40681-2.575157-.45621-1.020089 1.65734-1.56414.69365-1.700153-3.02604-.190418-5.12562-.27655-5.19077-1.40545-1.04744-3.432047 12.61156-5.118588 4.4692-6.369903-30.73972l-1.296645-36.47988 4.606267-6.20574c2.538896-3.41707 6.125082-6.7038 7.979379-7.30433 9.502707-3.0958 4.900967-18.10025-5.136719-16.73621-13.052626 1.77371-18.162143 2.97945-20.274862 4.78111-1.201442 1.02419-2.711179 1.32681-3.354967.66573-.639253-.65641-1.165164-.33506-1.165164.71229 0 1.88545-6.505913 4.80436-9.520841 4.27368-1.586808-.27914-6.342696 5.72145-8.5052903 10.73071-.6619284 1.53161-1.2603727-1.23369-1.3283808-6.15452-.1360072-9.74837-2.031116-10.13945-3.0874734-.63772C-23.419783 694.77441 119.08909 918.11353 353.01159 997.05551c281.3273 94.94269 588.12057-74.8452 657.73141-364.01202 16.0721-66.78198 17.2374-200.40656 1.8997-218.75359-1.011-1.21035-4.1619-5.52592-6.9956-9.59012-7.54405-10.80524-19.35895-16.77815-34.27041-17.32746-16.03584-.59593-15.12001-4.37145-15.23792 62.83879-.0908 51.55885-.4352 62.90875-2.01296 66.44689-.70727 1.58748-1.21957 4.44124-1.43264 7.95142-.17698 2.96551-.58941 3.08188-3.20077.90778-2.03565-1.69454-2.57065-1.76904-1.6639-.22322.8342 1.42924.3036 2.27188-1.43266 2.27188-1.51877 0-2.76104.79606-2.76104 1.76437 0 2.33239-4.90556.33972-5.84405-2.37425-.40343-1.16383-.5531-.81005-.33536.79143.82515 6.08465-3.53178 11.41042-6.68272 8.1749-3.52725-3.62192-4.84656-3.66847-4.84656-.17242 0 1.49905-.79793 2.72809-1.77267 2.72809-.97479 0-1.76817.90782-1.76817 2.01579 0 1.10335 1.19238 1.54092 2.65678.96364 1.45986-.57724 2.65674-.32108 2.65674.5633-.005 2.66761-4.17555 3.29606-8.54155 1.28492-2.54795-1.17316-4.56545-1.24298-5.31352-.17708-1.69561 2.42081-5.62639 2.98412-5.62639.80539 0-1.00093 1.10625-1.82026 2.46637-1.82026 1.35558 0 2.91973-1.21044 3.47283-2.69549.55765-1.48511 2.0946-2.27186 3.41842-1.75045 1.41452.55864 3.25068-.94972 4.4567-3.66382 1.23768-2.79327 1.36011-4.61819.31268-4.61819-.9521 0-1.73189 1.22904-1.73189 2.72808s-1.21957 2.72808-2.7112 2.72808c-1.4916 0-3.17358-1.22904-3.73122-2.72808-1.45079-3.88726-4.02145-3.38915-3.01041.58194.46698 1.82027-.40797 4.3761-1.9359 5.67961-2.40289 2.04375-2.77918 9.15255-2.77918 52.35029 0 46.90793-.19061 49.89669-3.10107 48.60717-25.99188-11.52214-59.45541 6.47568-76.74254 41.27033-19.99376 40.23678 11.57013 89.48654 57.47419 89.67274l15.70937.0652-.83418 16.36378c-1.65484 32.6391-20.72371 53.64907-48.69683 53.64907-22.94528 0-37.67086-12.34621-37.67086-31.58239 0-38.39787-48.44746-67.28485-83.43431-49.75248-12.4632 6.24757-27.07088 21.79202-30.04048 31.96413-1.21048 4.14795-2.888 7.54643-3.73126 7.54643-2.97863 0-17.73143 15.38147-20.93224 21.82459-7.87059 15.83774-6.19313 29.45018 6.27015 50.83258 24.11495 41.38203-10.83563 90.40824-49.65802 69.65434-22.4601-12.01096-23.02227-14.26884-23.02227-92.30305 0-82.54985 2.0628-88.06653 35.03213-93.71823 19.56308-3.35192 31.28734-11.17771 38.61837-25.77706 4.7468-9.45516 4.26174-9.92536-2.56608-2.49065-27.69206 30.14851-75.30987-2.74206-57.18856-39.49657l4.15744-8.43565-12.08243 11.00077c-31.44141 28.62153-51.86588 54.67325-58.71184 74.8918-1.28302 3.77553-2.32124 35.25083-2.95144 89.48175-.97473 83.22963-1.00197 83.69517-5.15035 92.26583-17.07857 35.28814-61.57715 33.21647-77.83059-3.61726-2.63864-5.98691-3.07384-15.89829-3.55897-81.27896-.76621-102.9779-6.74622-88.9325 67.84731-159.39695 17.53651-16.56401 48.63792-46.00958 69.12133-65.43202 20.48338-19.427 49.06861-46.30274 63.52213-59.72431 30.81585-28.61693 32.93309-31.61035 32.92855-46.51703-.009-37.77409-22.15185-47.82508-46.5796-21.1402-29.41035 32.12232-42.48112 44.98064-128.73086 126.62735-61.07847 57.82042-99.73762 98.3691-105.07385 110.21244-7.6438 16.96444-8.17881 22.98853-8.23775 92.5405-.0546 70.36206-.43975 74.23068-8.72741 87.64758-18.26193 29.57125-61.86736 22.62538-72.9025-11.61524-2.63863-8.1889-3.92169-333.02552-1.45985-368.80244 2.08099-30.13452 5.05059-33.92872 88.37152-112.73105 93.20457-88.15041 106.66973-103.98346 112.51371-132.28838 4.16648-20.20454 3.74484-182.72531-.50328-191.40299-6.47414-13.235394-23.462-18.533253-37.17656-11.592032m343.65248 46.046772c-8.26047 3.59401-11.6744 17.52301-6.71447 27.37857 8.4101 16.69436 32.74721 8.95235 32.74721-10.41421 0-12.06684-14.92957-21.79668-26.03274-16.96436m-154.06537 3.84538c-13.86414 9.11531-10.24168 32.37384 5.51304 35.40916 20.79174 4.00366 30.57095-26.41952 11.71067-36.43334-6.88221-3.6545-10.43669-3.44038-17.22371 1.02418m-502.61883 31.4195c-29.77302 14.14318-15.77284 63.98406 17.06051 60.74389 27.43357-2.70477 37.04964-39.55711 14.8525-56.94042-7.82072-6.12653-23.17648-7.95611-31.91301-3.80347m717.25036 5.55393c-6.37441 2.90964-13.32918 10.29781-14.09081 14.96716-.29906 1.85748-1.35563 3.2029-2.34399 2.98877-.98834-.21903-1.40998 1.4199-.93848 3.6359.68916 3.24949.48967 3.50086-1.04277 1.29884-4.78305-6.88073-2.85624 18.88705 2.18075 29.08238 6.46059 13.0864 15.69581 18.53325 33.94403 20.01836 27.68304 2.25788 38.07888 14.71578 38.07888 45.63245 0 20.08812 1.22861 24.76218 8.28313 31.47995 9.16722 8.72886 26.71729 4.77645 32.21216-7.25781 1.3284-2.90965 2.99683-6.50365 3.7041-7.9794 2.04468-4.25507-1.27853-15.96343-9.73397-34.30579-9.97421-21.63839-30.97902-61.02327-32.9693-61.81933-.83418-.33506-1.06994-1.35938-.51684-2.27649.54856-.91249.1543-1.662-.87499-1.662-1.0337 0-1.78176-.61452-1.66839-1.36403.51685-3.35193-.43067-5.87515-3.30964-8.83135-1.70468-1.75044-3.09653-3.64988-3.09653-4.22246-.005-2.44875-16.83383-16.68503-22.70047-19.20359-7.8207-3.35658-17.99889-3.43105-25.11687-.18175m-142.27306 51.58668c-17.24639 5.06043-37.02254 27.7277-52.54146 60.2319-4.99164 10.45134-8.69573 16.1589-10.12837 15.61885-14.05006-5.29319-2.77918 25.13002 15.98593 43.16045 42.46292 40.78148 111.41195 29.65503 138.39675-22.33204 5.09598-9.81832 6.30192-17.7139 1.64579-10.75405-1.33752 1.99719-1.48709 1.58287-.59844-1.64337.86592-3.14705.60297-3.94779-.9703-2.95152-1.20596.76814-2.83808.26517-3.70405-1.13592-1.09263-1.77371-1.614-.91244-1.7772 2.95151-.1316 3.10051-.58487 4.0782-1.04276 2.27187-.44428-1.75046-1.64576-3.17965-2.66583-3.17965-1.14253 0-1.01105-1.05212.34444-2.72807 1.39188-1.72253 1.50974-2.72809.32175-2.72809-1.03823 0-2.39835.85657-3.03305 1.90406-.77075 1.2849-1.84524 1.31283-3.29603.0792-1.17876-1.01025-3.89899-1.36404-6.03893-.7868-2.34393.6285-3.89447.21436-3.89447-1.0521 0-1.50371-.95663-1.56425-3.423-.20971-4.30704 2.36497-5.95277 2.39755-4.56094.0932 5.68536-9.45046 5.97546-39.26846.48966-50.9489-10.36407-22.06671-35.3767-32.93709-59.50971-25.86086M366.62614 251.8992c-11.57457 12.89554-11.64259 28.30032-.15883 38.22103 21.23153 18.34698 57.32454 3.16571 62.4023-26.23798 1.08358-6.27551 1.06093-6.30344-1.4553-1.82025-1.95403 3.4776-2.57062 3.79882-2.61595 1.36404-.0363-1.91341-1.43268-3.17968-3.50007-3.17968-1.89057 0-3.95796-.87055-4.59719-1.92735-.68008-1.13127-3.37308-1.42452-6.52403-.71689-3.38216.76344-4.96441.54466-4.27984-.59594.59844-.9916-.49415-2.22992-2.43459-2.75132-3.91717-1.05215-6.59206 1.51302-3.092 2.96085 1.60945.66572 1.52785.96364-.28999 1.06607-1.3828.0792-3.97612-1.21039-5.75786-2.86773-1.77721-1.65269-3.23707-2.15081-3.23707-1.10332 0 1.65731-4.46124 3.57531-11.95546 5.14888-1.5007.31175-2.21246-2.10889-2.21246-7.56041 0-10.01381-1.30122-10.01381-10.29166 0M91.219999 328.91853c-.820581 2.32303-2.303135 3.58469-3.395774 2.88634-1.722801-1.08934-10.137493-1.10332-31.899352-.0514-3.649658.17708-6.641925 1.02423-6.641925 1.88079 0 .85661-1.192374 1.08939-2.652239.51214-3.880869-1.52701-3.4411 6.5036.829675 15.09282 12.930217 26.02852 47.418326 14.73442 45.745399-14.97646-.417052-7.44864-.838733-8.58458-1.985784-5.34442m238.769071 3.88261c-23.87461 14.31074-11.57008 52.55042 14.10901 43.84949 22.17445-7.51852 20.2567-47.62506-2.2578-47.16879-3.59526.0746-8.93149 1.56423-11.85121 3.3193m-96.86778 6.60607c-.51683.52608-3.62698 1.31283-6.90486 1.73647-3.28242.42826-6.90027 2.08556-8.04279 3.69169-1.33747 1.87613-2.48902 2.22997-3.23708.98695-.63475-1.05675-.26729-1.92735.82058-1.92735 1.08811 0 1.47802-.83331.86143-1.85745-.65285-1.08471-2.48448-.14446-4.41586 2.27644-2.93787 3.67779-3.72219 3.86401-7.21318 1.67598-3.41842-2.14618-3.77661-2.09497-2.84721.39563.58487 1.5689.30359 3.33328-.63016 3.92455-.92946.59121-1.69107.0513-1.69107-1.19647 0-1.25228-1.1108-.71689-2.46637 1.18715-2.09457 2.93759-2.89255 3.09585-5.31354 1.0335-1.70015-1.44783-2.84719-1.65269-2.84719-.50278 0 2.85844-11.99631.689-20.896-3.78022-6.70087-3.36118-8.87249-3.60328-18.14852-2.02976-6.36536 1.08005-11.18021 1.13126-12.15495.13048-5.68534-5.83787-17.64529 26.21471-14.36286 38.48171 10.57718 39.56644 59.28765 35.88863 80.9317-6.10786 3.35499-6.50366 11.23912-16.62455 19.47686-25.00433 7.61672-7.74661 12.98466-14.08264 11.93282-14.08264-1.05183 0-2.3349.43758-2.85175.96835m-1.74998 3.37048c-.30813.18174-1.86338 1.34539-3.45019 2.58841-2.31221 1.80632-3.06934 1.79235-3.75847-.0606-.54407-1.45248.74354-2.4208 3.45015-2.58841 2.37118-.14913 4.06226-.12116 3.75851.0606m275.71452 50.08777c-14.98855 6.65724-19.60839 29.0265-8.37834 40.55799 15.65496 16.07517 41.85085-1.1033 35.957-23.57498-3.33229-12.69535-17.53647-21.44755-27.57866-16.98301m172.63098 26.95485c-5.15486 6.71782-3.89445 17.82563 2.68852 23.63563 14.34473 12.672 33.00555-10.37698 19.57211-24.17563-6.32906-6.49895-17.05591-6.23821-22.26063.54m114.74882 40.35785c-23.09034 7.58375-40.43633 36.07024-41.47457 68.09952-.28545 8.89652.0227 17.07611.68911 18.18408.66647 1.10797.97475 4.35746.68009 7.22521-.33083 3.26346.15884 4.76712 1.31932 4.03163 1.01549-.64249 1.34646-2.50929.73898-4.13868-.74352-1.98322-.42159-2.53255.96113-1.65268 1.13793.72156 2.07192 2.49531 2.07192 3.93381 0 1.44317 1.19688 2.62095 2.65674 2.62095 1.47801 0 2.65678 1.61545 2.65678 3.63595 0 2.0018-.99743 3.43571-2.21245 3.18431-1.21957-.25118-2.01751.56796-1.77272 1.81564.27636 1.42453-1.58679 2.27647-4.98706 2.27647-4.62893 0-5.2682-.54-4.31157-3.63585 1.13344-3.65921-2.31679-5.2002-5.14132-2.29979-.71634.74019-2.24417 1.43385-3.39577 1.54095-1.14704.11184-3.4819.32573-5.18658.47951-1.85883.16777-3.10108 1.77371-3.10108 4.02227 0 2.05768-.7934 3.2355-1.76814 2.62098-1.16067-.73554-1.85886 14.1339-2.0175 43.08127-.13616 24.31525-.28998 49.11471-.34445 55.11555-.2632 29.07776 25.05348 43.5049 43.36064 24.7063 9.67498-9.93464 10.51375-15.67478 10.27347-69.98027-.2673-59.39386-1.20601-56.84268 22.81367-62.14526 22.69135-5.00454 44.14961-20.09744 54.59075-38.38393 4.8103-8.4356 4.54731-11.93647-.5758-7.66279-1.67292 1.39195-2.50263 1.61075-1.84976.48413.75259-1.28485-.38076-2.04369-3.06029-2.04369-3.11914 0-4.01228.78675-3.34132 2.95151.74357 2.40686.58034 2.48133-.86137.39565-.97933-1.41059-1.36467-3.67314-.85689-5.0232.62567-1.67132 0-2.09497-1.9586-1.32681-1.58224.62384-3.9398.22787-5.24555-.88452-1.30569-1.11268-4.27984-2.1834-6.61927-2.38359-4.13023-.34905-4.23452-.74021-3.71314-14.09198.96118-24.7901-17.98532-41.66606-39.01726-34.75275m-349.55544 2.38823c-13.43802 7.24388-8.50985 26.77337 6.13864 24.32928 10.74043-1.78765 14.14983-10.9402 7.37642-19.78085-4.15744-5.42829-8.91333-7.02977-13.51506-4.54843m-38.48232 56.77293c-19.66734 5.26058-37.63914 30.95851-36.1928 51.74497 3.4048 48.83073 66.03832 70.89741 114.63091 40.39041 13.05717-8.19817 48.34772-41.89877 47.16894-45.04583-.47604-1.28021.0953-1.93202 1.28306-1.46183 1.17877.46556 7.69376-4.89749 14.4717-11.91319 6.78248-7.01573 11.66533-12.75587 10.84466-12.75587-.81604 0-4.14837 2.9888-7.40809 6.64331-5.04605 5.65168-6.34272 6.29412-8.69574 4.28765-2.2986-1.95996-2.5978-1.91341-1.77267.29311.54403 1.45253-.77076 4.22717-2.91973 6.16379-2.15351 1.93662-3.36405 2.5558-2.69304 1.37797 2.2306-3.92911-2.09457-4.34348-4.74681-.45621-2.13087 3.1238-3.25978 3.46832-6.17495 1.86215-2.66129-1.46181-3.79474-1.3873-4.45667.29777-.68915 1.75049-.92036 1.75977-1.02915.0326-.10437-1.63404-1.34655-1.75511-4.66975-.46087-2.67938 1.04747-4.11207 1.08004-3.50908.0746 1.1652-1.93201-6.07068-1.48972-9.31683.57262-1.22865.77752-2.55699.27913-3.09652-1.16849-.99745-2.67683-5.57652-3.01669-9.24432-.689-1.39637.88919-2.18069.28846-2.18069-1.67127 0-2.35099-.54861-2.58842-2.3757-1.03351-1.31025 1.11262-2.88345 1.50837-3.50005.87058-.6211-.63315-1.61853.16311-2.21696 1.76901-.99744 2.66292-1.46441 2.66758-5.35438.0512-2.71569-1.82953-4.26168-2.12284-4.26168-.8054 0 1.28958-1.65482 1.63404-4.42946.91714-2.78827-.71694-4.42493-.36767-4.42493.9404 0 1.46646-.97479 1.54564-3.30965.2605-1.82254-1.00093-3.9398-1.23369-4.71509-.51676-.77071.71229-.74353.13514.0591-1.2849 1.04277-1.84347.72088-2.29042-1.12436-1.56415-1.8543.73554-2.69757-.46554-2.97867-4.25042-1.76814-23.88698-20.68745-39.08692-41.66045-33.47244m-227.53 13.79859c.42614 1.31283 1.82255 2.74206 3.10107 3.17969 1.32841.45622 1.99032-.22787 1.55054-1.59216-.42614-1.31282-1.82255-2.74205-3.10107-3.17968-1.3284-.45621-1.99036.22789-1.55054 1.59215m658.27098 50.60915c-3.10108 2.5791-4.13931 5.28392-4.13931 10.76794 0 16.84334 19.07801 22.31344 26.49062 7.59764 7.21317-14.32001-10.1011-28.55164-22.35131-18.36558m-155.35748 41.19584c-6.83229 15.40009 10.15107 28.48184 22.06573 16.98762 7.86145-7.5837 5.90737-9.94401-16.14918-19.45501-.97478-.41895-.17698.53538 1.76813 2.12754 3.45474 2.81187 3.41848 2.87706-1.32386 2.5372-3.79471-.26981-4.64705-1.06142-3.86272-3.58935 1.49163-4.82299-.1407-3.91517-2.4981 1.392m-311.9753 17.19246c-9.86089 10.12092 3.30511 26.15419 13.81432 16.82009 5.99356-5.31649 6.47414-10.6982 1.42809-15.87968-5.37247-5.52131-10.47744-5.83325-15.24241-.94041m-97.4073 29.02194v29.02193l7.2676 6.89462c20.40636 19.35723 20.429 51.02346.0498 67.83879l-6.87773 5.675-1.2241 22.15512c-1.53239 27.77425-2.9152 33.20245-10.88996 42.76936-18.81957 22.57883-51.57575 19.51089-64.37902-6.03343l-4.52469-9.02221-.50775-87.34036c-.62568-107.07001-1.73187-101.00401 16.98336-92.98273 19.68089 8.43099 38.93113 7.49059 53.9333-2.63963 4.1302-2.79323 8.11076-5.13957 8.84072-5.21874.72992-.0792 1.32839 12.91885 1.32839 28.88228m90.45712 26.60574c-4.59271 3.96645-5.44959 5.98684-5.44959 12.86753 0 19.89729 24.58192 26.23337 32.8016 8.4543 8.38289-18.13753-12.34082-34.29184-27.35201-21.32183m-139.4849 25.14389c-14.1951 6.55486-14.57594 29.07776-.6166 36.48922 20.90506 11.1032 40.25504-15.80521 23.33512-32.44832-6.06158-5.96357-15.0837-7.56971-22.71852-4.0409m277.48723 89.54237c-24.3099 16.00071-22.78202 45.9304 2.34847 46.04682 7.06356.0373 9.4256-.85662 13.583-5.12567 17.53652-18.00714 3.60888-53.78402-15.93147-40.92115m-142.64944 35.91655c-10.50468 4.69732-15.8862 19.56681-10.76308 29.73425 6.61015 13.12828 19.91212 16.955 31.36893 9.02683 22.41026-15.51182 4.16195-49.84094-20.60585-38.76108m274.2773 21.96434c-9.0947 6.54087-7.65748 22.59737 2.37569 26.51259 12.97098 5.0651 24.50032-8.17958 18.01251-20.69332-4.41585-8.51011-13.1705-11.01008-20.3882-5.81927"/>
</svg>
