<svg xmlns="http://www.w3.org/2000/svg" xmlns:xlink="http://www.w3.org/1999/xlink" viewBox="0 0 1024.0001 1024.0001">
  <defs>
    <linearGradient id="b">
      <stop offset="0" stop-color="#fff"/>
    </linearGradient>
    <linearGradient id="a">
      <stop offset="0"/>
    </linearGradient>
    <linearGradient xlink:href="#a" id="c" x1="0" x2="1024" y1="512" y2="512" gradientTransform="translate(.50033605 .49730512) scale(.99902)" gradientUnits="userSpaceOnUse"/>
    <linearGradient xlink:href="#b" id="d" x1="0" x2="1024" y1="512" y2="512" gradientTransform="translate(.50033605 .49730512) scale(.99902)" gradientUnits="userSpaceOnUse"/>
  </defs>
  <path fill="url(#c)" stroke="url(#d)" stroke-linecap="round" stroke-linejoin="round" d="M157.17591 2.4593836c0 1.168583-1.40811 2.4832394-3.12911 3.0675297-1.72101.4382192-6.41465 3.3596755-10.48251 6.4272047-6.25819 4.528256-10.48249 6.135059-25.50219 9.348662-20.652082 4.528259-44.433267 14.022992-59.922336 23.809872-14.080965 9.056517-14.080965 9.056517 1.721008 8.910444 53.351218-.146073 87.614918 46.743314 69.309648 94.655204-3.28554 8.76436-3.28554 8.76436 17.36653 27.75384 88.7101 80.92434 86.20681 77.56468 75.09849 97.28452-12.20349 21.91093-35.51533 20.15805-60.86108-4.67434-81.826054-79.75577-78.853405-77.27253-94.342472-76.25002-22.216636 1.46072-39.739616-4.2361-56.323864-18.11302-7.8227609-6.42723-8.2921263-6.5733-4.6936572-1.89896 3.9113799 5.11255 3.9113799 5.11255 3.9113799 100.79026 0 62.08097.6258214 96.11593 1.5645523 96.70022.938731.58429 12.35996 1.16858 25.502196 1.16858 23.781186 0 23.781186 0 23.781186 26.00097 0 35.4957-1.251641 36.95643-33.794319 37.97894-19.0875322.58429-19.0875322.58429-17.5229808 5.84291 2.1903728 7.30365.4693655 39.43968-2.1903726 42.36114-5.94529671 6.71935-7.9792146 10.80938-4.3807455 9.0565 6.5711181-3.35966 7.0404836-.87643 7.8227609 44.99043.782275 43.38364.782275 43.38364 24.719919 43.82186 23.78119.43822 23.78119.43822 23.78119 30.23708 0 29.94493 0 29.94493-25.81511 29.94493-24.5634622 0-27.8490217.43822-24.2505526 3.79789.7822763.73037 1.5645536 44.84437 1.8774636 114.52112.62582 127.37551-.156456 118.75722 12.985781 144.31997 21.903726 42.65327 58.983597 69.53067 110.300915 80.19398 10.32604 2.04503 32.38622 2.48325 188.21558 3.21363 154.42128.73035 176.63791 1.16858 177.88957 3.0675.78225 1.16858 1.56453 9.20266 1.56453 17.67487 0 15.6297 0 15.6297 5.9453 13.5847 7.50984-2.4832 15.17615-2.4832 22.84246.146 8.60503 2.7754 7.97921 5.5508 7.50982-41.92281-.3129-24.97844-1.09517-41.63075-1.87744-39.87788-1.0952 2.33717-1.40811 1.75287-1.56456-2.92147-.31291-5.11255-.46936-5.40468-1.56453-2.19108-1.25165 3.50574-1.25165 3.50574-1.40811.29214-.15646-2.04502-1.09518-3.21361-2.81619-3.21361-2.19038 0-2.34683-.29213-.78228-1.31464 1.721-.87644 1.4081-1.31466-.93872-1.89895-4.2243-1.02251-4.69366-4.96647-5.78886-47.91188-1.09518-41.19256-.93872-38.12503-2.97265-37.54074-.93872.43823-1.56456 1.46073-1.25162 2.33717.15644 1.02251-.31294 1.46074-1.25166.87645-1.25163-.73038-1.09518-1.75289.3129-3.35969 1.0952-1.46073 1.25166-2.04502.62582-1.46073-.78227.58429-2.34681.43822-3.44201-.43821-1.25163-1.02251-2.19036-.87643-3.12908.29214-.62582 1.02251-.46937 1.31465.6258.87644.93874-.73037.93874.29214-.15644 2.62931-4.69367 9.34866-7.19693-.43822-7.50984-29.5067-.15648-13.5848-.46938-28.6303-.93874-33.59677-2.19039-27.31561 27.84903-39.00145 40.20897-15.62979 3.1291 5.69684 3.1291 8.6183 3.1291 114.22897 0 99.9138.46936 113.4986 3.9114 108.38605.62582-.87644 33.95076-1.16858 93.09083-1.0225 92.30855.43821 92.30855.43821 92.46501-51.56374.15646-28.48419.78226-49.08046 1.25163-45.5747 2.03392 11.10152 10.32603 17.96693 19.40044 15.77585 8.60507-1.89896 8.91796-4.52826 8.60507-63.24955-.15646-35.05747-.62582-46.7433-1.09521-33.74281-.93872 19.42767-2.19035 25.56274-3.59846 17.96694-.46936-2.045-.15645-4.09003.62581-4.52825.62582-.43822.93875-1.46073.31291-2.19109-.46936-.73036-1.40808-1.02251-2.19037-.5843-.62582.43822-1.721-.29214-2.19036-1.6068-.62582-1.75287-1.56457-1.89894-2.97265-.87644-1.40811 1.16859-1.87747.14607-1.72101-4.09002.3129-6.42721-2.8162-11.97798-4.85014-8.76438-.78226 1.31466-.6258 1.60679.46938.87643 1.25166-.73035 1.56456-.14607.78229 1.31465-.62585 1.75289-1.25167 1.89896-2.03393.73038-.93875-1.31467-1.40808-1.31467-1.87747.14607-.46936 1.31465-.93872 1.16858-1.72098-.5843-.62584-1.6068.15644-3.65181 2.03389-5.4047 3.12913-2.92144 4.38076-11.68582 1.72102-11.68582-.78228 0-1.87747 2.62933-2.50329 5.84292-.62582 3.2136-1.72098 5.8429-2.34682 5.8429-.78227 0-1.56454 2.1911-1.87748 4.67434-.3129 2.62931-.62581-2.045-.78226-10.37117-.15646-9.64081-.93872-15.62979-2.19038-16.21408-.93873-.58429-1.09517-1.31467-.46937-1.6068.78231-.29216.93875-18.2591.46937-40.02397-.62581-21.76484-1.09517-88.95835-1.25163-149.4325-.15646-119.48759 0-116.274-8.91794-122.84727-7.04049-5.11255-19.86983-3.7979-26.12802 2.77538-4.53721 4.8204-4.53721 4.8204-4.06782 185.36643.62582 172.21989.46936 180.69212-2.19038 184.49001-9.70023 13.14654-30.82168 8.76438-33.79433-7.15757-.62582-3.06754-.93872-47.9119-.62582-99.76776.62582-100.4981.46936-107.50961-4.2243-112.18394-1.72099-1.6068-2.50326-3.2136-1.87745-3.65182.62582-.29216.15646-.29216-.78229-.14607-1.09518.29214-2.0339-.14609-2.0339-.87643 0-.87645-2.03393-1.46074-4.69367-1.46074-2.50327 0-4.69366-.58429-4.69366-1.46072 0-1.75287-3.442-1.31466-5.163.73035-.93875.87645-1.56456.87645-2.19037-.29214-.46939-1.46072-1.56456-1.46072-3.91139-.29214-1.72099.87644-3.44202 1.16858-3.91138.73036-.62584-.43822-1.87747-.14608-3.1291.87645-1.0952.87642-2.65976 1.16858-3.28557.58428-1.72099-1.75287 4.69365-5.4047 7.82276-4.38218 1.87747.43823 2.8162 0 2.8162-1.31465 0-1.46073-1.09518-1.89896-3.28557-1.46073-2.19038.58428-3.1291.14606-2.97264-1.16858.62582-4.09006 0-5.69686-2.34682-5.69686-1.25164 0-2.34684.58429-2.34684 1.46072 0 .73037.7823 1.46074 1.56456 1.46074.93872 0 1.56453.58429 1.56453 1.46074 0 .73037-1.09517 1.46072-2.34679 1.46072-1.25166 0-2.19038-.43821-2.19038-1.16857.62581-3.06755-.46936-4.67435-2.81619-4.67435-1.72103 0-2.19039-.43822-1.09521-1.16858.93875-.5843 1.87747-2.04501 1.87747-3.21359.15646-1.16859.78228-5.55078 1.56457-9.78688.93872-5.25863.78227-7.30366-.31291-6.71936-.93875.58429-.46938-.29214.93872-1.89895 2.19035-2.33716 2.34683-3.35968.78227-4.82039-1.40808-1.46073-1.40808-1.60681.62582-.87646 1.56456.5843 3.12912.14609 3.91138-.87642.78227-1.16859.46936-1.46073-.93875-.58429-1.40807.73036-1.72098.58429-.93871-.5843.62581-.87643 1.721-1.31465 2.34682-1.02251.46936.43821 1.09521-.58429 1.09521-2.04501s-.7823-2.33716-1.56457-1.89894c-.78226.43822-.93875.14608-.3129-.87644.6258-.87645 1.72098-1.31465 2.50328-.87645.78227.43823 1.87745 0 2.50327-1.02251.62584-1.02251.62584-1.46073-.15643-.87644-2.03393 1.75289-5.78887-1.89895-4.06786-3.7979.78228-.87642 1.56454-2.33715 1.72102-3.06752 0-.87643 1.25163-4.8204 2.50327-8.76436 6.72758-20.45021 8.91796-33.30462 3.12912-18.69733-17.0536 42.65327-65.5547 73.6207-115.9333 73.76677-95.43765.29215-155.20354-87.64369-113.89936-167.54554 2.97263-5.69685 3.12909-6.57326.78225-3.7979-2.6597 3.06754-3.12908 3.06754-3.91136 1.02252-1.0952-2.48325-4.22431-1.89896-4.22431.73036 0 .87644.78227 1.02251 1.56457.58429.93872-.43822 1.56454.73037 1.56454 2.62932 0 2.04501-1.09518 4.09004-2.50326 4.52825-1.25166.43821-2.03393 1.46073-1.40812 2.1911.46937.73037.15646 1.75287-.62581 2.19109-2.65973 1.60679-3.44202-1.75287-.7823-4.09004 1.25166-1.31465 1.72102-2.33716.7823-2.33716s-1.25166-1.02252-.7823-2.1911c.7823-1.6068.31291-1.89894-1.40807-1.31465-1.40808.43822-2.19037 1.89894-1.56457 3.21359.62585 2.1911.46939 2.1911-.93872.29216-1.40811-1.89895-1.72101-1.89895-1.72101 0 0 1.89894-.15643 1.89894-1.56454 0-2.03392-3.06753-1.87747-5.69685.15646-2.92146 1.40808 1.75287 1.56455 1.75287.78226-.43823-.46936-1.46072-.93872-3.06752-.93872-3.65181 0-.43823-.93875.29213-2.03392 1.75286-1.56457 1.89895-3.1291 2.33718-5.63238 1.60681-2.8162-.73036-3.12911-1.31466-1.56457-3.06754 2.97266-3.35966 0-4.38217-5.00656-1.6068-4.5372 2.33718-4.69366 2.33718-3.75493-.29213.46936-1.60679.15645-3.2136-.78227-3.7979-.93875-.43821-1.25166-1.6068-.78227-2.33716.62581-.73036.15645-1.31466-.78229-1.31466-1.09518 0-1.56454-.87643-1.09518-2.04502.62582-1.31465 0-1.89894-1.72099-1.75287-3.75493.58429-8.1357-2.33717-8.1357-5.25863 0-3.06753-1.72099-3.35968-4.53719-.87643-1.72101 1.60679-2.03391 1.16857-1.25165-2.62931.62582-3.21359.31291-4.52826-1.25162-4.52826-1.25165 0-1.87747.58429-1.40811 1.31467.46936.58427-.3129 2.19108-1.56457 3.50573-2.3468 2.04504-2.50326 2.04504-2.50326 0 0-1.46073-1.4081-2.33717-3.44203-2.48323-2.65972-.14609-2.97264-.29217-.78226-.87645 1.4081-.29213 2.65974-1.75287 2.50328-3.06751 0-1.6068-.3129-1.75288-.93872-.73037-.31291 1.02251-2.19037 1.75287-4.06785 1.75287-3.12911-.14608-3.12911-.29213-.3129-.87644 2.65973-.73035 2.34682-1.02251-1.56457-2.62931-2.65974-1.16859-3.75492-2.04502-2.65974-2.04502.93874-.14608 1.87747-1.16859 1.87747-2.33717 0-1.31465-.93873-2.19108-1.87747-2.04502-1.09518.14608-3.28555-.14606-4.85008-.87643-1.40811-.58429-4.06785-.73037-5.78884-.29215-1.72102.43822-3.12913.29215-3.12913-.43822 0-.58429 1.72102-1.6068 3.91139-2.04501 2.19039-.58429 3.59847-1.60681 2.97265-2.48326-.62582-.87642-2.19037-.73034-4.69366.73037-5.63239 3.50575-6.41465 2.7754-1.25163-1.31465 3.59846-2.92146 3.91137-3.6518 1.72099-3.6518-1.56454 0-2.34684-.73038-1.87745-1.46075.62582-.87643-1.09519-1.46072-3.75494-1.46072-2.97264 0-4.69363-.73037-4.53718-1.75287.31291-1.02251-2.03393-1.89895-5.78883-2.1911-7.82276-.58429-10.63896-1.46073-9.54379-3.21361.46936-.73036-.15644-1.6068-1.4081-2.19109-1.25163-.43821-2.34681-1.75287-2.34681-2.92146 0-1.16858-.78227-2.62931-1.72102-3.2136-1.25162-.73037-1.56456.14607-1.09517 2.92147 1.09517 4.96646-2.19038 4.38217-3.59849-.73038-.93872-3.50575-.93872-3.50575-2.65973.43821-1.25164 2.92147-2.50327 3.79791-4.5372 3.06755-1.56455-.58429-1.87747-1.16858-.78229-1.6068 2.50329-.73037 2.50329-3.35969 0-2.92147-1.09518.29215-1.87744-.58429-2.0339-1.75288-.15645-1.16858-.93875-2.04499-2.03393-1.75285-2.50328.43819-2.50328-2.1911.15645-3.06753 1.25164-.5843.93873-.87645-.62581-.87645-2.03392-.14606-2.65974-2.77538-3.442-14.89944-.93875-16.068-1.40811-17.23657-5.16304-14.31512-2.34683 1.75286-2.50327 1.75286-1.56455-1.02252.46936-1.75287.46936-4.38219-.15646-5.84291-1.56454-3.94396-3.28554 1.89894-3.442 12.12404-.15646 4.82041-.78227 7.74186-1.87746 7.74186-2.81621 0-.62583-30.96744 2.97265-41.63076 12.20351-36.07998 42.39936-65.0024 79.79212-76.25003 25.50221-7.74185 318.22987-8.03399 343.73205-.43821 48.50111 14.46122 84.01643 51.70979 89.17946 93.48662.46936 4.3822 1.25164 139.49957 1.56457 300.1797.15643 160.68013.46936 300.47182.62582 310.55086.15644 18.40517.15644 18.40517 8.76148 20.15804 17.99236 3.7979 28.9442 16.50624 28.9442 33.59676 0 8.6183.15646 9.34868 2.50329 7.30365 2.0339-1.89894 6.10176-2.19109 26.28446-1.6068 112.17837 3.21359 178.04593-50.54121 180.39283-147.24143.6258-21.76485 1.2516-29.21458 3.129-31.84389 3.1292-4.67431 1.5646-5.55076-3.9112-2.04502-42.86878 28.6303-103.41696-13.87692-86.51978-60.76629 4.06783-10.95546 8.13568-5.69685-40.05253-52.44015-33.79434-32.72032-35.35887-35.05749-28.6313-41.33862 7.04049-6.57328 9.07441-5.2586 49.28339 31.98996 37.54924 34.9114 37.54924 34.9114 46.93655 30.38315 13.45516-6.57328 37.54922-6.86544 50.53487-.73037 4.6937 2.33718 8.9181 4.09005 9.3875 4.09005.6257 0 1.0951-34.4732 1.0951-76.68825 0-76.68823 0-76.68823-85.89384-76.68823-85.8939 0-85.8939 0-98.56679-12.4162-12.67285-12.4162-12.67285-12.4162-24.87637-12.4162-12.35994 0-12.35994 0-11.73412-7.74185.46936-7.59578.46936-7.59578 16.74069-8.03401 16.4278-.43822 16.4278-.43822 29.10066 11.39368 12.67288 11.68583 12.67288 11.68583 93.09085 11.39367 80.57442-.4382 80.57442-.4382 81.04382-55.65374.3128-55.06945.3128-55.06945-109.20577-55.06945-109.51862 0-109.51862 0-109.51862-8.76437 0-8.76438 0-8.76438 108.57989-8.76438 59.76589 0 109.0492-.58429 109.5186-1.16859.4694-.73035.9387-11.68581 1.0952-24.54023.1564-23.22558.1564-23.22558-7.5099-23.6638-10.6389-.58429-10.7954-.58429-10.1695-8.18009.4693-5.25861 1.2516-6.71934 3.4419-6.71934 3.9114 0 4.0678-.29214 3.1292-24.39416-.7823-21.61879-.7823-21.61879-5.0066-22.05701-4.38069-.43823-4.38069-.43823-4.38069 20.74234 0 21.32665 0 21.32665-3.75494 21.32665-2.19037 0-4.38075-.73038-4.85011-1.46075-.46936-.87643-4.38073-1.46072-8.76148-1.46072-5.00658 0-7.66632-.58428-7.82277-1.89895 0-.87643-.62582-.43822-1.40808 1.16859-1.25165 2.62931-1.40811-2.33718-2.19037-46.01296-.15649-9.49472-.15649-9.49472 24.56345-9.93296 24.56339-.43821 24.56339-.43821 24.56339-56.9684 0-72.5982-1.721-83.99188-17.3666-114.66718-2.50308-4.96646-4.53705-11.39368-4.53705-14.16907 0-8.32614-10.63895-15.629783-15.33261-10.517232-1.09518 1.314655-1.721 1.752872-1.25164.876435 1.25164-2.483238-8.91796-1.752873-12.04705.730367-1.72102 1.314653-2.65974 1.460728-2.65974.292144 0-2.337165-4.22429-2.045019-5.16303.438219-.46936 1.168582-.31291 2.337164.31294 2.62931.6258.292147.6258 2.045017.15642 4.090047-.93872 3.06752-1.25163 2.6293-2.34681-3.359682-1.0952-6.865423-1.0952-6.865423-10.01313-6.71935-7.82278.292144-8.13568.292144-3.28555 1.314655 2.97264.58429 4.53718 1.168583 3.442 1.314657-1.09517 0-1.56456.876435-.93872 1.752873.46936.876436 2.34681 1.314654 3.91136.876436 3.12911-.730364 4.22431 2.483231 1.40811 4.090051-.78229.43822-1.56456.29214-1.56456-.5843 0-2.48324-5.94528-3.359677-9.7002-1.460731-4.06785 2.045031-12.67289 3.359671-9.38734 1.460731 2.5033-1.31466-.93875-3.067533-5.78883-3.067533-3.59846 0-11.42122-5.696839-10.32605-7.449713.93875-1.168585-1.72099-1.898947-6.72756-1.752874-1.09521.146071-1.72102-.730365-1.25166-1.752876.31291-1.022509.31291-2.337164-.15645-2.775383-.62582-.438219-1.25165-2.921457-1.56457-5.550769-.6258-5.696841-.6258-5.696841-7.04045-6.865423-8.13568-1.606801-8.76149-17.382668-.93874-20.888416 6.88402-2.921458 10.63894-11.685827 6.88402-15.629796-1.40808-1.460726-2.50327-3.213601-2.50327-3.943965 0-1.314657-8.91794-4.674333-24.25056-8.910443-5.00658-1.460729-17.0536-2.483238-33.95077-2.921458-26.28448-.730363-26.28448-.730363-26.28448 8.472226 0 27.899913-1.4081 33.450681-8.76149 33.450681-11.89058 0-11.57766.730363-11.57766-22.495219 0-22.203071 5.78883-21.180562-102.63461-19.865906-6.25823 0-6.25823 0-5.63239 33.012461.46936 18.113034.15646 33.450682-.62584 34.034973-.78228.43822-13.14222.730365-27.53611.43822-26.28445-.584292-26.28445-.584292-26.28445-33.888901 0-33.304607 0-33.304607-5.94528-34.327117-3.44205-.438219-46.15432-.730363-95.1248-.438219-89.02297.438219-89.02297.438219-89.80527 86.62119-.6258 75.37359-1.09516 86.18298-3.12909 86.18298-2.0339 0-2.34683-3.94396-2.81619-24.83237-.15646-14.75336-1.09519-25.41668-2.03393-26.29313-1.09518-1.02251-1.25164-.14607-.62582 2.92146.78229 3.06755.62582 3.7979-.46936 2.33717-1.25166-1.60681-1.72102-1.46072-2.34682.73038-.46936 1.60679-.78228.58428-.93873-2.33719-.15645-3.35967-.62581-4.52825-1.56456-3.2136-3.1291 4.67433-4.06782-7.74185-4.85013-63.249534-.78226-58.283065-.78226-58.283065-63.36433-57.844846-62.58207.292146-62.58207.292146-67.74509-5.550766-14.08097-16.3601594-22.686-12.70833812-10.32606 4.236112 11.57772 15.775864 10.95187 14.899428 8.91797 15.629792-5.94529 2.045019.46936 11.247611 11.10832 16.652304 8.13567 3.943967 8.60503 4.674332 7.66628 10.955465-.46936 3.213601-1.87745 4.820401-5.163 5.988985-2.81619 1.022511-5.6324 3.797895-7.6663 7.595789-1.87747 3.359676-6.10177 8.472224-9.54378 11.539754-6.72757 5.69684-7.50983 9.056515-3.91137 14.899425 2.97265 4.96649 2.81619 5.69684-.78227 5.40471-1.72101-.14609-3.12913-.87645-3.12913-1.75289 0-.73037-.78227-.29214-1.72099 1.16859-.93874 1.31465-2.34683 2.1911-3.12913 1.6068-.93872-.43821-.46933-1.75288 1.25167-3.06753 2.65973-2.04502 2.65973-2.04502-.15646-1.16858-1.72102.43821-3.44201.29214-3.91137-.43822-.46939-.73036-2.97265-1.75288-5.63242-2.04502-2.50326-.43821-3.75491-.43821-2.65973-.14607 2.19037.73036 2.65973 4.82041.46939 4.82041-2.03393 0-5.16304-4.09005-4.22432-5.55078.46938-.730362-.15644-1.314653-1.40808-1.314653-1.25165 0-1.87747.584291-1.56456 1.168582.46937.584301-.62582.730361-2.34682.292141-3.28555-.876432-11.57767 4.38219-9.70023 6.13506.62581.73037.31291.73037-.62581.29216-1.09519-.5843-4.53721 0-7.82276 1.46072-17.67943 6.86542-43.33809 2.33716-60.86107-10.809393-6.57112-4.966476-16.89717-17.382668-12.04704-14.607283.78228.584291 2.03392 0 2.50328-1.314655.46937-1.168583.31292-1.898948-.31291-1.46073-.62582.292147-1.25164-.438218-1.25164-1.752872-.15645-1.314657-.62582-5.11255-1.09519-8.326152-.93874-4.528259-.31292-3.797897 2.50328 3.651819 16.42779 42.507196 78.07114 44.698286 99.8184 3.651822 21.27792-40.316105-28.16192-86.1829767-71.03065-65.878852-15.48907 7.449715-30.35229 24.832384-30.97812 36.664283-.31291 4.382185-.31291 4.382185-1.4081-.730364-1.09519-5.11255-1.09519-5.11255-1.40809.438217-.15647 5.55077-.15647 5.55077-4.69366 1.168585-2.50329-2.48324-5.00656-5.696842-5.6324-7.303643-.62581-1.898946-2.34682-3.06753-4.53718-3.06753-3.12911 0-3.59846-.584292-2.97264-4.09004.62581-3.213602.3129-3.505747-1.0952-1.752873-1.56455 1.898946-1.72102 1.898946-1.0952 0 .31291-1.168584 1.87748-2.04502 3.44203-1.752874 1.72101.292145 2.19038-.146073 1.4081-1.314658-.78227-1.16858-.46937-1.460726.78228-.58429 1.56454.876438 1.72099.43822.46935-1.606801-1.25163-2.191093-.15645-4.674332 5.16303-12.270118 5.31947-7.303642 6.41465-9.9329528 5.31947-11.9779729-1.87746-3.2136022-2.97264-3.35967556-2.97264-.5842915m77.13241 17.2365954c30.35228 8.472225 36.76695 49.226548 10.63894 67.92387-9.85667 7.157571-34.57658 10.955464-33.48139 5.258623.3129-1.022509-.62583-1.460727-1.87747-1.022509-1.56455.584292-2.34684 0-2.34684-1.606801 0-1.460729-.78228-2.045019-1.87746-1.314655-1.09519.438218.15645-.876438 2.65975-3.067531 4.5372-3.943966 4.5372-3.943966.78227-3.067528-3.28557.876437-3.44202.730362-1.0952-.584291 1.56457-.876438 5.00658-1.46073 7.82277-1.314657 9.54376.584289 12.04704-.146073 18.14881-5.404696 10.32603-8.618298 12.35995-21.910925 4.8501-30.821369-17.99234-21.618781-52.72539-1.460728-40.8348 23.663801 3.59847 7.741861.93874 6.865423-4.5372-1.46073-4.38073-6.71935-10.79542-7.887932-12.82933-2.337164-.31291 1.168582-.78228-2.337166-.93873-7.74186-.78228-27.461695 25.50219-45.282582 54.91578-37.102503m356.24845 11.24761c7.97922 7.303642 8.13567 15.483721.62581 22.495217-10.79541 10.079025-28.78774 3.067528-28.78774-11.393683 0-13.584773 17.99233-20.742343 28.16193-11.101534M780.024 51.832005c0 1.022509 0 4.674329-.15645 8.180079-.46936 12.562264 1.72099 13.730846 25.34573 13.146556 23.62473-.584292 23.93765-.730365 25.65865-14.461212 1.09518-9.494735 7.82276-11.977974 17.21009-6.281134 8.91793 5.55077 13.45514 51.709776 5.47591 56.384126-1.56456.87643-2.65972 2.6293-2.19036 3.6518.46935 1.16859 0 1.75287-1.25164 1.46074-1.25165-.29215-.62583.14607 1.25164 1.02251 5.16301 2.04502 5.16301 1.46073 5.16301 95.96986 0 88.52014 0 88.52014 6.25821 92.46411 18.77462 11.53976 21.74727 34.32713 6.41467 49.22654-4.06785 3.94398-8.29211 7.15758-9.54377 7.15758-1.40811 0-1.0952-.87643.93872-2.62932 12.51642-10.37117 13.14224-31.11351 1.09521-27.02348-1.09521.43822-2.03393-.29213-2.03393-1.60678 0-2.04503-.62582-2.48325-3.91138-2.33718-.46939 0-2.34683-1.31466-4.22429-2.92146-1.87748-1.60679-4.22431-2.92146-5.31948-2.92146-1.09517 0-2.50329-.73034-3.1291-1.75285-.78227-1.1686-.31291-1.31466 1.72099-.5843 2.34683.73036 2.50328.5843.7823-1.31465-1.09521-1.16859-3.28556-2.1911-5.00657-2.1911-2.19039 0-2.8162-.73037-2.19039-2.33716.62585-1.60681.31292-2.19111-1.09517-1.60681-1.09521.43821-3.75495-.43823-5.78885-1.89896-2.81618-2.04501-4.38075-2.33715-5.94529-1.16857-1.4081 1.16857-1.72101 1.0225-1.0952-.58429.46936-1.16858 3.28556-3.2136 6.2582-4.52826 5.47593-2.48325 5.47593-2.48325 5.47593-63.54168 0-45.57474-.46936-61.49667-1.87745-62.81133-2.03393-1.89893-58.67069-2.48324-72.28228-.87643-7.19693 1.0225-7.19693 1.0225-7.19693 14.60728 0 15.04549-1.56457 18.11304-9.38734 18.11304-10.32604 0-10.95186-2.92147-10.95186-48.35013 0-40.75433 0-40.75433 11.42122-40.75433 11.26478 0 11.26478 0 15.48909-7.15756 4.22429-7.01149 4.22429-10.37117.15645-7.30364-1.56456 1.31467-2.03392 1.16858-2.03392 0 0-1.16859-2.8162-1.60679-8.13568-1.46073-4.53722.29214-9.54375-.14606-10.95186-.73034-2.34683-1.02252-2.81619-.29216-2.97265 4.38216-.15645 3.21361-.93872-5.11254-1.56456-18.405171-1.56453-27.023475-.78227-30.82137 7.04048-35.203555 5.94531-3.359676 36.767-4.236113 37.0799-1.022509m-282.55805 7.74186c10.63895 9.78688-5.00658 24.686309-15.95843 15.045502-4.22431-3.65182-4.53722-7.011495-1.25167-12.854409 3.5985-6.573278 11.57768-7.595789 17.2101-2.191093M369.64202 63.95605c22.06021 8.618298 26.75385 33.450681 9.54381 49.5187-7.66634 7.15756-7.66634 7.15756-7.66634 41.9229 0 34.91141 0 34.91141-9.38729 34.91141-9.38733 0-9.38733 0-9.38733-37.39465 0-37.24858 0-37.24858-3.44201-36.37214-2.19037.58429-2.81619.43822-1.72101-.29214 1.25165-.87645 1.40811-2.04504.46939-3.35967-1.25166-1.89896-1.56457-1.75287-1.56457.29213 0 1.46073-.3129 2.62932-.78226 2.62932-2.03393 0-12.51642-10.95547-12.04706-12.70835.15645-.87642-.93873-2.33715-2.50329-3.213591-2.3468-1.168582-2.97265-3.359676-3.28556-9.932953-.62581-20.304125 21.27791-33.8889 41.77352-26.000966m219.35018 66.60922c0 61.20452 0 61.20452-8.44857 61.20452-8.29212 0-8.29212 0-9.23084-53.75482-.93873-59.889853-.93873-60.474145 9.7002-67.047423 7.97921-5.11255 7.97921-5.550769 7.97921 59.597723m101.6959-13.58478c0 20.59627-.78229 22.93343-12.51644 37.6868-3.91136 4.82039-6.5711 10.22511-7.82275 15.77585-2.03391 9.20259-5.47593 17.82091-7.50986 18.98948-.78226.43822-1.87744-10.2251-2.50326-23.66379-.93875-18.98948-1.72101-24.97846-3.59849-26.87742-2.50328-2.62931-5.94529-2.19109-4.22427.5843.62581 1.02251.3129 1.16858-.78229.58429-.93873-.58429-1.25164-1.75288-.78228-2.62933.78228-1.0225.31292-1.16857-1.09518-.43821-1.87747 1.02251-1.87747.87644-.15644-1.0225 1.56454-1.89895 1.56454-2.62929.15644-3.50575-1.09519-.58429-1.4081-.43821-.93872.43822.46936.73037 0 1.46075-1.25166 1.46075-1.72102 0-1.87747-.43822-.46936-2.04504 2.03394-2.33716-5.31947-10.07903-7.97921-8.47222-.78227.43823-2.03392 0-2.65974-.87644-.78227-1.1686-.46936-1.31466.78227-.5843 1.56457.87645 1.72101.43823.31291-1.89894-.93873-1.6068-1.72099-7.30365-1.72099-12.56227 0-9.640803 0-9.640803 27.37966-9.640803s27.37966 0 27.37966 18.697323m-169.7539 1.75286c10.16959 5.84293 13.45514 21.32665 6.57114 30.82139-8.60504 11.97796-22.21666 14.89942-33.48144 7.30364-26.28444-17.67482-.46936-53.90088 26.9103-38.12503m379.09093 24.2481c5.00656 3.2136 4.2243 10.66333-1.56458 13.5848-8.60502 4.52823-15.80193-8.1801-7.82276-14.16908 3.28556-2.33717 5.16302-2.1911 9.38734.58428m73.37747 11.3937c24.71991 11.68582 31.7603 42.79933 13.14225 58.42914-3.59847 3.06752-4.22431 2.33716-1.72102-2.1911.93874-1.60681 1.0952-2.77538.46936-2.62932-3.91137.5843-6.72756-.29213-5.78884-1.89894.62582-1.02251.46936-1.16859-.62582-.5843-1.0952.5843-1.87747.43822-1.87747-.29214 0-.73038-2.50328.87644-5.47592 3.50575-13.92451 12.27011-34.88949 5.55076-40.67836-13.14656-3.12909-9.64081-4.53718-11.68583-7.6663-10.66332-1.40808.58429-2.50326.14608-2.50326-.73037 0-1.0225-.78231-.87643-2.34685.29215-5.94527 4.52827-.93874-11.10153 6.41467-20.01198 11.73414-14.46121 31.13457-18.40517 48.65756-10.07901m-683.23979 10.07901c11.26477 5.4047 14.55031 20.59628 6.10177 29.50672-5.63241 5.98898-8.29215 6.71934-5.78886 1.6068 1.72102-3.79789.62584-8.91043-1.56454-7.59578-1.40811.73036-7.19695-4.82041-7.35341-7.15757-.15645-.87645-.93872-1.31467-2.03391-1.1686-1.87745.43822-2.50327-1.31465-1.87745-5.25861.15645-1.6068-1.25166-1.89894-6.10178-1.16859-7.50984.87646-7.97921 0-2.03391-5.11255 6.57112-5.84291 13.45516-7.0115 20.65209-3.65182m688.55927 99.47562c.31291.43823.46936 3.65181.15645 7.30364-.62582 6.71935-.62582 6.71935-38.48797 6.42719-40.05253-.43822-42.39937-1.16857-37.86215-12.27011.78227-1.89895 74.15974-3.35967 76.19367-1.46072m-882.40725 17.6748c14.55034 8.76438 16.27135 27.75384 3.75492 39.58576-7.353387 6.71935-19.869805 10.66329-13.142231 4.09003 3.129105-3.21362 3.129105-9.05651 0-7.30364-.62582.43822-1.251639-1.16858-1.095189-3.50575 0-3.35968-1.408099-5.25864-7.353393-9.49474-4.067835-2.92145-7.353391-5.98899-7.353391-6.86543 0-4.09002-4.850111 2.7754-5.788843 8.18009-.93873 5.4047-1.095187 5.69684-2.190373 2.33715-.93873-3.35965-1.095186-3.35965-1.25164 1.02251-.156456 2.62932-.938732 4.82042-1.877462 4.82042-1.095188 0-1.408095-1.6068-.782277-4.3822.782277-4.09003-.156456-5.11254-4.067835-4.52825-.782275 0-1.251642-.58429-1.251642-1.31465 0-.87644.938733-1.46073 2.033918-1.60681 1.25164 0 1.408096-.29214 0-.73036-2.033918-.87644-.782276-6.13505 3.129103-13.29262 6.414664-11.53976 24.094096-14.89943 37.236335-7.01151m824.04944 55.79983c0 26.43918-.46936 45.72082-.78227 43.23756-.62581-4.82039-1.87743-5.55077-11.42121-6.71936-5.47593-.73036-5.78883-3.06752-6.10174-45.1365-.46936-42.21504-1.72102-38.41715 12.8293-39.00145 5.78887-.14608 5.78887-.14608 5.47592 47.61975m34.73307-8.32615c-.15646 33.45067-.46936 39.43966-2.34683 39.43966-1.721 0-2.34679-1.75287-2.34679-6.28112 0-11.53976-.93875-12.70833-9.5438-12.70833-7.66632 0-7.66632 0-7.66632-29.94493 0-29.94496 0-29.94496 10.95188-29.94496 10.95186 0 10.95186 0 10.95186 39.43968m-755.20917-4.67433c12.35996 11.68584 21.43436 21.47271 21.43436 23.0795 0 1.89895-3.28555-.29214-11.73413-8.18007-8.7615-8.18009-11.73415-10.2251-11.73415-8.03402 0 2.48326-.3129 2.48326-1.56455.73037-.78227-1.16859-1.56455-1.46073-1.56455-.73037 0 .87644.93873 2.48326 2.03392 3.50576 1.56455 1.6068 1.4081 1.89897-.46937 1.02251-1.25164-.58429-.62582.29216 1.56455 1.89896 3.91138 3.06752 3.91138 3.06752-1.09518 1.31464-2.65974-1.02251-4.53719-2.33714-4.22428-2.92144.46935-.73037 0-1.02251-1.25164-.87645-1.09519.29215-1.87747-.73037-1.87747-2.04502.15646-1.46074-.31291-2.33718-.93873-1.89896-.78228.43822-4.22431-1.89893-7.82277-5.11254-6.57112-5.84292-6.57112-5.84292-22.84246-5.84292s-16.27134 0-16.27134-8.034 0-8.034 18.4617-8.034c18.46174 0 18.46174 0 39.89609 20.15805m-19.71335 34.18105c10.1696 9.49473 8.60505 25.27059-3.12911 31.84388-17.67944 10.2251-38.95734-6.13506-31.60394-24.2481 6.10175-14.89943 22.99891-18.55125 34.73305-7.59578m-78.54051 37.54071c23.46829 22.05701 23.46829 22.05701 69.15318 22.05701 25.03284 0 46.62366.43823 48.03176.87643 2.50328.87643 3.59847 3.65182 1.40809 3.35968-.78227-.14607-1.87746 0-2.81619.14606-1.56455.43823-7.66629.87646-15.17615 1.31467-2.50328 0-4.38075.73037-4.38075 1.31466 0 .73036 1.56455 1.16859 3.59847 1.02251 1.87747-.14608 4.5372.43822 5.78884 1.31464 2.03393 1.31465 2.03393 1.31465.31291-.87642-1.72101-2.04502-1.72101-2.33717.31291-2.04502 4.22431.58429 4.38075 2.04502.62583 4.23609-5.00657 3.06753-93.5602 4.96648-93.5602 2.04503 0-1.02252-2.03392-3.06754-4.69367-4.38218-2.50327-1.46072-4.69365-3.65182-4.69365-4.8204 0-1.16859-.62582-2.1911-1.56455-2.1911-.78227-.14607-2.03393-.29214-2.81619-.43822-.62582 0-3.911391-3.06752-7.353398-6.71936-9.543771-9.93293-9.70023-10.22508-10.95187-9.05651-.625818.58429-.782279 0-.46937-1.16857.312921-1.31465-.469357-2.04502-1.877456-1.75288-1.25164.29215-1.877457 0-1.095189-.58429.625819-.58429-.469361-2.77538-2.65974-4.82041-3.442013-3.65182-6.884023-20.4502-4.537191-22.64129 1.721008-1.6068 6.414663 2.19109 29.413574 23.80987m176.48146 64.12598c-2.34683 18.69734 17.99234 32.42817 35.51532 23.80988 8.29212-3.94396 9.23086-3.94396 4.53719.73036-19.24396 19.13554-53.19475-1.16857-42.71226-25.70881 3.28557-7.5958 3.75493-7.30364 2.65975 1.16857m-59.92234 18.25911c0 1.16859.62582 1.02252 1.56455-.43823 1.09519-1.6068 1.56455-.43821 1.56455 4.3822 0 11.83189 8.29213 10.95545-98.87969 11.39366-112.6477279.58431-106.076609 1.02252-106.076609-8.32615 0-3.79788.469366-7.44971 1.095185-7.88792 2.033918-2.04502 200.732014-1.16859 200.732014.87644m748.48159 1.75288c8.7615 7.4497 2.97265 21.18056-9.07439 21.18056-4.06783 0-6.2582-1.0225-8.76148-3.94398-3.28556-3.94397-3.28556-3.94397-76.35013-4.09004-73.06458 0-73.06458 0-73.53394-6.42719-.93875-11.24761-7.82276-10.37118 82.29542-10.37118 81.20023 0 81.20023 0 85.42452 3.65183m-750.20259 43.96792c2.65973.58428 4.8501 1.60679 4.8501 2.33716s-.62582 1.02251-1.4081.58429c-1.721-1.02251-3.28556 2.48325-3.28556 7.30365 0 3.50575 0 3.50575-20.33917 3.50575-17.99235 0-20.49563.29213-21.43436 2.48324-4.38074 11.8319-21.2779 8.034-21.2779-4.67434 0-10.80938 4.22428-12.41617 33.1685-12.41617 13.6116 0 27.06675.43821 29.72649.87642m-122.504429 3.2136c5.945295 3.65183 6.571129 10.95546 1.408096 15.6298-5.006562 4.8204-8.135668 4.67433-4.067833-.14607 4.067833-4.82042 2.033918-9.34867-4.224286-9.34867-5.319484 0-7.509851 1.46073-8.605041 5.11254-.469358 1.89895-.782278 1.31466-.938726-1.89894-.312911-7.74185 9.700218-13.58477 16.42779-9.34866m-11.264768 56.67627c.469358 1.31465.938731 14.75335.938731 29.94493 0 27.60776 0 27.60776-6.101753 27.60776-8.292129 0-8.292129-.43821-7.040488-32.42816 1.095192-27.4617 1.095192-27.4617 6.101756-27.4617 3.285558 0 5.475924.87643 6.101754 2.33717m24.407017 27.60776c0 29.94493 0 29.94493-6.25822 29.94493-6.258211 0-6.258211 0-6.258211-29.94493s0-29.94493 6.258211-29.94493c6.25822 0 6.25822 0 6.25822 29.94493m24.09409-25.41666c.46937 2.48323.93873 16.06799.93873 30.09099 0 25.41668 0 25.41668-6.57111 24.97845-6.72759-.43821-6.72759-.43821-7.19695-28.19206-.46936-31.84387-.62583-31.40565 6.41468-31.40565 4.8501 0 5.47593.58428 6.41465 4.52827m29.10066 25.41666c0 29.94493 0 29.94493-8.60503 29.94493s-8.60503 0-8.60503-4.82039c0-2.48325-.46937-14.89944-1.0952-27.46171-1.09519-28.19205-1.40809-27.60776 9.70023-27.60776 8.60503 0 8.60503 0 8.60503 29.94493m22.37309-19.57376c16.58426 7.74187 37.07989 19.42768 36.61052 20.88842-.78226 2.04501-8.91793 3.94397-8.91793 2.19109 0-.87644-.78228-1.0225-1.72101-.43822-1.25165.5843-1.0952 1.31464.31291 2.1911 1.56455.87643 1.25163 1.31465-1.25166 1.31465-2.50328 0-3.28556-.73036-2.81619-2.7754.62582-3.21359-5.00656-6.13505-13.9245-6.86541-7.19695-.58429-12.82933 1.46074-8.29214 3.06753 1.40809.58429 3.75493.29214 4.85013-.58429 1.56455-1.16859 2.50328-1.31465 3.28557-.14608 1.09518 1.75288-.93874 2.48325-8.91798 3.21362-5.16301.43822-5.63238.29213-4.06783-2.19111 1.25165-2.19108 1.09519-2.62931-.46935-2.19108-1.25165.43823-2.50329 2.19108-3.12912 4.23611-.93873 2.92146-1.09519 2.48323-1.40809-2.33717-.15646-3.21359-.62583-9.93295-.93873-15.04549-.46936-4.9665-.31292-9.05652.15646-9.05652.46936 0 5.31948 2.04501 10.63894 4.52825m722.0407 5.11255c3.7549 2.48324 4.53718 7.74187 1.56454 10.51724-2.65975 2.48326-79.63569 2.48326-82.29543 0-1.09518-1.02251-1.87747-3.21359-1.87747-5.11255 0-3.2136-.62582-3.35967-10.79541-3.35967s-14.08096-1.16857-11.57768-3.50575c2.34684-2.19109 101.38296-.87643 104.98145 1.46073M305.65187 768.17322c-3.442 5.25863-5.78883 6.71936-3.59844 2.33717.62579-1.31465 1.72097-38.70929 2.19036-82.8233.46933-49.81083 1.40808-81.21649 2.3468-82.53115 3.59849-5.11256 2.8162 157.4665-.93872 163.01728m646.15992-143.44353c10.79541 5.25863 12.82933 17.09053 4.2243 25.12454-14.08098 13.14655-35.35887-1.31466-26.28449-17.96696 4.85012-8.61832 13.14226-11.39368 22.06019-7.15758M387.00858 771.97112c.15646 90.56516.62582 126.93732 1.87747 127.66767 7.97922 4.52825 11.73413 28.19205 6.25819 39.29359-16.58423 33.45069-71.03064 22.20308-70.71775-14.75335.15646-26.29311 23.15536-41.33862 51.31733-33.30461 3.59844.87644 3.59844.87644 3.59844-91.58767 0-128.69017 1.72102-172.6581 6.41468-157.61261.62582 2.04502 1.09518 60.62022 1.25164 130.29698m234.68275-83.11545c.15645 20.30412-.93872 24.54024-8.60502 30.09102-4.85011 3.65181-7.19696 3.94394-5.94529.87643.62581-1.16857 1.56457-1.89894 2.34683-1.46073 1.72102 1.0225 5.00657-4.67433 3.75491-6.57327-.46937-.87644-.31291-1.46074.62584-1.46074.93872 0 1.72099-12.85441 2.0339-33.30461.78226-53.02445 5.16303-44.114 5.78883 11.8319m-78.38405 19.13554c-1.56453 6.13507-7.50983 12.56226-11.42121 12.56226-1.87745 0-1.721-.58429.78229-2.92144 5.31945-4.96648 6.2582-9.49474 6.2582-29.0685 0-11.39368.78226-20.59627 2.03392-23.66381 2.50329-6.57327 4.85009 34.03497 2.3468 43.09149m284.43554-32.42815c11.5777 10.37116 11.5777 10.37116 11.5777 43.5297 0 33.01246 0 33.01246 8.60504 33.15852 25.81509.5843 41.61706 26.73134 29.72648 48.64228-5.16302 9.34864-20.49565 18.98945-23.46829 14.60727-.46936-.73036 0-1.46072 1.09517-1.46072 3.59851 0 5.94533-5.25863 4.38077-9.93296-.62582-2.48323-.93872-4.8204-.3129-5.25862.46936-.43823-.46936-.87644-2.1904-.87644-1.72098 0-4.2243-1.16859-5.47592-2.62931-3.75491-3.7979-9.07439-7.5958-10.79542-7.5958-.78225 0-1.87743-1.6068-2.50328-3.50575-.46936-2.045-1.87748-3.94396-3.12911-4.38217-1.25163-.43822-2.19037-2.19109-2.19037-3.79789 0-1.89896-1.09518-2.92145-2.97265-2.92145-3.28554 0-4.38075-2.33719-7.04046-15.33766-.46939-1.6068-.78229-16.7984-.78229-33.74283-.15646-30.82137-.15646-30.82137-6.41465-37.54072-4.85012-5.11256-7.35341-6.57328-10.63896-6.42722-3.91137.29215-8.29213-11.53974-5.16302-14.31514 4.69366-4.52824 16.58425-.29215 27.69256 9.78691M463.51515 782.63444c.15646 59.59772-.3129 93.92483-1.25162 97.43059-4.38077 14.60727-26.28449 17.38266-33.48144 4.38219-4.53717-8.03402-4.22427-169.29844.15646-164.0398 5.16303 6.13504 11.42123 8.18007 18.46171 5.98898 9.07438-2.77539 9.85668-5.25864 10.95186-32.8664.62581-13.73085 1.56457-25.41667 2.03393-26.29312 2.03392-2.92145 2.8162 24.68632 3.1291 115.39756m-245.0088-85.89084c24.71991 22.93344 23.62472 20.88843 14.39387 30.23709-7.04049 7.15757-7.04049 7.15757-30.0394-14.16907-22.84246-21.32663-22.84246-21.32663-15.80197-28.4842 9.0744-9.64081 6.88403-10.37117 31.4475 12.41618m-123.28671 4.96648c4.85011 5.4047 5.16302 11.24761.78228 16.50623-4.224287 5.11254-6.258202 4.82041-4.067835-.58428 2.033916-5.11256.312909-9.20261-4.537196-10.07903-1.564559-.29215-3.754925-1.6068-4.850115-2.92147-1.56455-1.89893-2.346829-2.04501-5.006563-.43822-4.224297 2.33718-4.224297-.29213-.156462-4.09004 4.850115-4.52825 12.985786-3.94396 17.835891 1.60681m100.28779 18.98946c21.43436 20.59628 21.43436 20.59628 17.05362 24.83238-6.10177 5.98902-5.47594 6.28115-28.47487-15.19156-22.84245-21.32665-22.06017-20.15804-17.05359-25.8549 5.163-6.13507 5.163-6.13507 28.47484 16.21408m-40.05253-1.75285c4.22428 2.19107 43.02517 41.04646 40.8348 41.04646-1.87746 0-45.37201-39.73181-45.37201-41.48468 0-1.16858 1.25165-1.16858 4.53721.43822m3.12911 35.9339c12.04703 11.68583 22.06017 21.61879 22.06017 22.34916 0 .58428-5.9453 6.86541-13.14223 14.02299-17.05362 16.79836-18.77462 16.79836-38.48797-1.46074-13.29872-12.27012-13.29872-12.27012-39.896083-12.27012-26.44093 0-26.44093 0-42.242906 14.6073-16.89716 15.48372-21.12145 17.38266-26.440925 11.83189-4.5372-4.67432-1.564553-9.34866 17.992344-27.02347 18.461713-16.94445 18.461713-16.94445 43.181635-16.94445 24.719915 0 24.719915 0 38.800885-13.14656 7.6663-7.30363 14.39388-13.14656 15.01971-13.14656.46937 0 10.95186 9.49473 23.15537 21.18056m451.84255 1.75289c11.57771 5.11255 11.42122 3.06752 11.42122 102.68921 0 86.03691-.15645 88.52013-3.12909 93.19447-9.07438 13.73085-32.07328 8.91044-35.20241-7.44971-2.50329-12.56227 0-176.89423 2.65974-181.56855 4.85011-8.32616 14.86324-11.10153 24.25054-6.86542m-349.99024 50.83333c0 4.96648 12.98579 10.51727 18.30527 7.88796 6.88404-3.50577 18.30526 7.4497 14.55032 13.87691-2.50326 4.52825-.62581 9.49472 4.06785 10.51724 8.29211 1.89895 10.7954 10.95545 5.00657 18.11304-2.97265 3.79788-3.1291 4.67432-1.25165 8.32615 4.22429 8.32614 2.50326 17.96695-3.12911 17.96695-1.40808 0-4.53718 1.31466-6.72756 2.92146-4.69366 3.50576-6.41469 3.65183-5.16302.73037.46936-1.16858.15645-2.19109-.62582-2.19109-.93875 0-1.56457 1.16857-1.56457 2.77538 0 2.04502-1.09516 2.62931-4.69365 2.48324-3.91137-.14607-4.53719-.58429-3.91137-3.50576.3129-1.89894.15644-3.2136-.46936-2.92144-28.63132 14.16907-53.8206 4.09002-59.14008-23.37167-.93873-4.82039-2.97264-5.98898-8.76149-5.11254-3.44201.43822-4.38073.14608-3.59846-1.16859.78226-1.02251.62581-1.46074-.46937-.73036-.93873.4382-2.19036.14606-2.81619-.73038-.62583-1.16858-1.40809-1.02251-2.34683.29216-.93873 1.31465-1.4081.29213-1.4081-3.2136 0-5.4047 2.50328-8.32616 11.57768-13.58478 4.22431-2.48324 4.38075-3.06753 3.59849-9.64081-1.09519-8.76437 4.69364-14.02299 14.08094-12.70832 7.50986 1.16858 12.98579-1.1686 15.01971-6.28114 2.50329-6.28114 19.8698-6.86543 19.8698-.73038m-64.45952 14.6073c.3129 1.60681 1.56455 3.94397 2.81618 5.25861 2.50329 2.62932.93874 5.11256-6.10175 9.2026-2.34681 1.31466-5.00656 4.09004-5.78884 6.13505-.78228 1.89895-2.19038 3.50575-3.12911 3.50575-.93873 0-4.5372 1.75289-7.97921 3.94397-22.52956 13.87693-11.57769 48.05797 15.80199 48.78835 2.97264 0 4.38074.4382 3.12909.87642-1.25164.43822-2.65973 1.31466-3.12909 1.89895-1.25164 1.75286-15.48908-2.33717-20.6521-5.84292-3.75492-2.62932-4.69365-2.7754-3.91137-1.02252 1.56454 3.79792-2.81621 3.06755-7.66632-1.16859-2.34682-2.04501-5.00657-3.6518-5.94529-3.6518-.93873 0-2.97265-2.04503-4.38075-4.52826-1.56454-2.33716-2.03391-3.94396-1.25162-3.50575 2.50327 1.46073-.15646-4.23611-2.81622-6.28113-1.4081-.87643-4.06784-1.75288-5.94529-1.75288-7.50985 0-6.25821-14.16907 1.25164-14.89943 5.78885-.58428 10.79541-9.78688 7.82277-14.31512-2.50329-3.7979 6.57111-13.73087 11.73412-12.70835 3.59847.58429 11.5777-1.31467 15.80198-3.7979.93873-.73037 1.87746-2.77536 1.87746-4.67433 0-5.55075 17.52299-6.86542 18.46173-1.46072m-92.46502 9.49473c16.74069 7.0115 20.80854 27.75385 7.97921 40.46216-4.85011 4.82042-6.10176 4.09004-3.44202-1.75285 2.97265-6.71936 2.8162-9.34867-.46936-8.76438-1.56456.14607-4.38074-1.02251-6.41466-2.77537-2.033923-1.6068-4.067842-2.77539-4.537211-2.48324-1.09519.58429-6.884021-4.23613-11.26477-9.78689-3.911383-4.8204-6.571121-4.96648-5.632391-.29215.782278 3.50575-2.190367 5.55076-4.067839 2.77539-1.095179-1.60679-1.408087-1.46072-1.408087.43821 0 3.2136-2.816196 3.50574-4.067838.43822-4.693655-11.10154 19.243993-24.24809 33.324966-18.2591m811.37657 6.86542c.62584.29214 1.0952 3.06753 1.0952 5.98899 0 9.05652 9.0744 13.00049 17.21005 7.44971 7.82278-5.40469 22.0602 7.5958 15.48909 14.16908-5.16302 5.11254-1.25165 13.29263 6.72756 14.02299 8.13567.73036 9.07442 18.69732.93875 18.69732-6.72758 0-8.44857 1.16859-11.5777 8.034-1.87744 4.09005-2.97265 5.11256-3.44202 3.21361-.78226-3.21361-11.73413-3.94396-15.01968-.87645-2.81619 2.33718-4.2243 1.31467-2.50329-1.60679 1.40809-2.48325 1.09518-3.50576-1.87747-5.84291-4.06786-3.2136-5.94529-3.65181-5.94529-1.46073 0 2.33717-4.2243 1.75288-5.31948-.73036-.46936-1.16858-2.50328-2.1911-4.38074-2.33718-3.44201 0-3.44201-.14607-.46936-1.16858 1.721-.73037 3.59845-1.02251 4.38074-.58429.62582.29214 1.09518.14607 1.09518-.5843 0-2.6293-7.66631-4.52824-8.60503-2.1911-.78226 2.04503-1.09517 2.04503-2.34683.29215-.93873-1.16856-1.56457-1.60679-1.56457-.87643 0 .73037-1.09518.43821-2.3468-.58429-1.4081-1.0225-2.19038-2.77538-1.72102-3.79788 1.25163-2.92147-4.38075-5.25863-6.88401-3.06755-1.56457 1.31466-1.72101 1.31466-.93875 0 .62582-1.16857-.3129-1.60679-3.28554-1.31465-9.5438 1.02251-6.25822 16.2141 5.31947 25.70882 9.07438 7.44971 15.01969 8.47222 24.87637 4.52827 8.13566-3.50575 10.63895-3.21361 4.69365.29214-21.90373 13.4387-52.4125-9.20259-43.02518-31.98995 1.56457-4.09004-2.34682-9.2026-7.19693-9.34867-.78228 0-.62582.58429.62583 1.31466 1.09518.73036 1.56454 2.04501 1.09518 2.92146-1.56457 2.33717-4.06785 2.04502-3.12909-.43822.46936-1.16859 0-2.48324-.93876-3.06754-1.40808-.87643-1.40808-1.31465 0-2.1911 1.25166-.73034 1.0952-1.31464-.62581-1.89892-1.40808-.58429-2.34684-.43823-2.34684.14606.62584 3.79789-.6258 3.06753-3.442-1.75288-5.00657-8.91042 4.06784-20.30412 12.04704-14.75336 7.82276 5.5508 19.40044 0 19.40044-9.49473 0-4.96647.46938-5.69682 4.38075-6.28111 4.38076-.73037 17.523.29214 19.55689 1.46071m-224.51317 46.15901c6.88403 5.84293 1.721 17.09054-7.82276 17.09054-4.85012 0-12.20351-5.69685-12.20351-9.34868 0-10.95545 11.1083-15.19157 20.02627-7.74186M95.845471 906.94243c4.380729 2.92146 4.224279 8.91042-.312922 8.18008-1.564548-.29216-2.346828.14606-1.877457 1.02249.625818.73036.312909 1.89895-.625819 2.33718-.93873.5843-1.4081.29215-1.25164-.43823.31291-.87643-.15646-1.6068-1.095189-1.75287-3.754925-.58428-5.475934-3.21359-3.754925-5.98898.782279-1.46072 1.095189-2.77538.625822-2.77538-.625822 0-.469363-.73037 0-1.46072 1.408094-2.04504 4.224292-1.75288 8.29213.87643m361.724379 23.95596c1.72102 1.60679 3.12911 4.2361 3.12911 5.84289 0 1.60681-1.40809 4.23611-3.12911 5.84292-8.29212 7.74186-20.02625-2.33716-13.14222-11.39368 2.97263-4.09005 8.91793-4.23611 13.14222-.29213" transform="translate(.00048934 .00048636)"/>
</svg>
