<svg xmlns="http://www.w3.org/2000/svg" xmlns:xlink="http://www.w3.org/1999/xlink" viewBox="0 0 1024 1024">
  <defs>
    <linearGradient id="b">
      <stop offset="0" stop-color="#fff"/>
    </linearGradient>
    <linearGradient id="a">
      <stop offset="0"/>
    </linearGradient>
    <linearGradient xlink:href="#a" id="c" x1="86.517242" x2="315.82001" y1="183.27734" y2="183.27734" gradientTransform="matrix(.99902 0 0 .99903 .19750716 .17635999)" gradientUnits="userSpaceOnUse"/>
    <linearGradient xlink:href="#b" id="d" x1="86.517242" x2="315.82001" y1="183.27734" y2="183.27734" gradientTransform="matrix(.99902 0 0 .99903 .19750716 .17635999)" gradientUnits="userSpaceOnUse"/>
  </defs>
  <path fill="url(#c)" fill-rule="evenodd" stroke="url(#d)" stroke-linecap="round" stroke-linejoin="round" stroke-width=".225051" d="M126.83108 68.211552c-7.04309 2.343733-9.6705 6.265939-9.72544 14.515959l-.031 4.697457-3.83624.842184c-10.11706 2.220852-19.885462 10.62872-23.890526 20.561108-2.97208 7.36888-2.712335-.70631-2.712335 84.32544v76.0984l.9151 2.92716c4.521557 14.46601 13.564671 23.03472 27.481001 26.03781 3.69138.79724 57.79422 1.04101 73.0672.33068l7.80433-.36364-3.12192-.46955c-3.6774-.55247-4.17591-.73429-9.63554-3.51061l-4.1719-2.12194h-30.4271c-34.21338 0-34.1964.00099-39.687-2.70538-8.67747-4.27686-14.157098-13.18725-14.983287-24.36443-.246757-3.34577-.31469-118.06381-.07293-124.83426l.05195-1.46358 13.951307-.019c30.08342-.041 50.91496-.59842 51.4864-1.37967.69431-.95008.64936-3.69641-.0779-4.73541-.92709-1.32372-1.92711-1.35169-34.72588-.96207-16.95632.20081-30.89564.3057-30.97656.23377-.08092-.0729.03896-3.69543.266737-8.04921.452556-8.64864 1.754277-13.89556 4.156916-16.74981.545463-.64837.992026-1.36568.992026-1.59346 0-2.37469 9.958231-9.254045 15.126141-10.44889 3.11594-.720304 3.01904-.911118 3.13992 6.21999.15784 9.35296 1.88715 12.87355 7.59353 15.46104 9.58759 4.3478 18.23808-2.86922 18.23808-15.21628 0-2.216859.10789-4.571581.24076-5.232942l.24077-1.203835 11.62458-.11389 11.62457-.112891 1.69533-1.910152c4.47062-5.035129 3.86621-5.25192-14.7395-5.288884l-10.58161-.02098.045-4.585564c.10185-10.391949-7.8753-17.612964-16.34498-14.79469m141.57887.180825c-6.24086 2.228844-9.12503 6.707512-9.41174 14.613865l-.16684 4.585564h-12.38483c-17.80551 0-17.33497-.141863-13.74451 4.135001l2.26179 2.694393 12.07913.235772c6.64347.129874 12.08013.261747 12.08013.292717 0 14.929571 1.3177 18.559061 7.91323 21.785931 9.4657 4.63052 18.03028-2.94514 18.67165-16.51602.3097-6.547675.05-6.309905 4.75832-4.366784 12.22499 5.043124 18.0103 14.858634 18.01929 30.568424l.003 5.46373-31.95059-.10689c-35.16746-.11789-33.56303-.22978-34.85876 2.43764l-.85716 1.76428.80121 1.07396c.97205 1.30374-1.75626 1.19085 38.18249 1.57848l28.487.27673.1009 63.21985c.0829 52.32339.007 63.76033-.43857 66.34982-1.82321 10.59276-8.68246 18.73688-18.78354 22.30543l-3.12192 1.10192-31.21933.19582-31.21933.19481-3.70735 1.85121c-2.03899 1.01801-5.45864 2.33574-7.59852 2.92717l-3.89019 1.07496 4.67141.23977c12.95826.66536 70.5267.35466 74.1831-.39962 13.86438-2.86123 23.69472-12.51589 27.58789-27.09378l.85016-3.18592V118.22616l-.9041-3.3168c-3.89917-14.30813-15.62765-25.947879-27.3881-27.181685l-2.14588-.224783.12887-3.369741c.44557-11.638742-7.60053-19.094531-16.98831-15.740774m-136.82354 6.736484c1.34567.508508 3.12593 2.15092 3.8642 3.565551.87314 1.670384.80121 26.399458-.0829 28.260658-2.2348 4.71146-9.09806 4.43273-10.67551-.43358-.5145-1.58746-.77424-25.380444-.29571-27.124757.42658-1.556495 2.94311-4.150985 4.2738-4.405738 1.55347-.297713 1.79324-.286723 2.91614.137866m143.63786.753271c2.82321 1.721335 2.82221 1.71634 2.82421 17.075484l.001 13.756694-1.53848 1.53851c-3.02703 3.02708-6.09502 2.86324-8.74841-.46555l-1.16685-1.46458-.14686-13.068361c-.13886-12.362043-.10489-13.162269.62739-14.818666 1.38563-3.131971 5.22486-4.335806 8.148-2.553531m-77.30704 12.918505c-9.3718 1.369674-16.19109 5.608574-21.29508 13.240203-4.71536 7.04918-5.71638 11.54383-5.41767 24.32546.3037 12.99443-.0649 20.35431-1.05696 21.0856-1.2328.90912-3.39368 1.05099-18.34098 1.20384-15.69358.16084-18.14018.45156-23.09931 2.74036-21.92844 10.1202-23.94547 37.6196-3.72034 50.70395 6.57054 4.24989 8.08306 4.48466 29.23128 4.52962l16.6926.036.27972-1.044c.15385-.57444.36464-1.8582.46854-2.85324.1049-.99504.2018-1.85321.21679-1.90715.016-.0539.5105-.11589 1.10092-.13787 1.00002-.037.98004-.0659-.29271-.4166-.75127-.2078-9.62255-.49752-19.71363-.64338l-18.34798-.26574-3.8632-1.86818c-16.01027-7.74253-17.46184-27.85407-2.76628-38.33493 4.76032-3.39471 5.09799-3.44566 24.40801-3.68443l16.9853-.21079 2.01903-1.29575c6.25085-4.01213 6.43867-4.68348 6.72938-24.06972l.24077-16.00052 1.02899-2.86224c8.00213-22.254478 38.93574-20.842845 43.6481 1.99208.84517 4.09503 1.08693 24.21157.35265 29.29266-1.12389 7.76948-8.41772 17.52005-16.80448 22.46327l-1.40163.8252-.25874-10.06326c-.14186-5.53466-.14386-12.69173-.004-15.90462l.25475-5.84034 1.97906-1.17087c14.69056-8.6886 5.12398-30.78723-10.73845-24.80502-10.90529 4.11303-11.27392 21.45425-.53047 24.99983l1.36865.45156v2.43764c0 2.76432-.3057 3.18492-3.70735 5.11006-9.65252 5.4637-14.38787 13.28615-13.15608 21.73697 1.10192 7.56068 4.29977 11.08428 15.24202 16.79575 4.9911 2.60548 5.00109 2.32076-.2008 5.3788-12.58763 7.39884-18.08023 14.73575-18.08023 24.14864 0 5.70249 4.82825 15.3042 8.76038 17.42215 1.64938.88814 1.61542.53748.40261 4.10203-3.12992 9.20411 1.18084 20.04361 9.09107 22.85289l2.038.7243.022 6.05416c.034 9.33996 1.95707 11.99438 6.10599 8.42884l1.09193-.93809.12388-5.80539.12487-5.80639 1.90413-.87315c11.21699-5.14602 10.89131-18.69491-.62738-26.06378-2.08995-1.33671-2.11093-1.36968-2.11093-3.28982 0-1.58147-.12587-1.94113-.68333-1.95112-.92708-.016-.0639-.52149 4.00008-2.34173 11.55365-5.17299 17.04924-12.25116 17.00628-21.90182-.05-11.02034-4.20386-16.47706-17.79051-23.37138l-4.29578-2.1809 2.34469-.68633c7.28985-2.13495 16.75255-9.35995 20.62873-15.74977 1.75228-2.8882 2.11593-3.02307 6.5146-2.42665 1.81422.24676 10.5866.57844 19.49484.73729 18.25406.32568 18.07025.29671 23.05835 3.62748 13.29793 8.88041 13.14907 28.28663-.28572 37.20402-4.83126 3.20589-4.03604 3.10199-23.55386 3.10199-20.72263 0-19.78156-.17682-19.56977 3.67345.17582 3.20091.42358 3.44567 3.14492 3.105 1.19982-.15085 8.90724-.28872 17.12816-.3067 17.13816-.038 18.37195-.19182 24.14429-3.01109 4.07099-1.98808 9.70346-7.3319 11.05713-10.49086.3916-.91412 1.13787-2.34074 1.65736-3.16993 6.89223-10.99536 2.3387-27.37352-9.92524-35.70146-6.59353-4.47768-9.48669-5.00417-27.63685-5.02715-15.58168-.019-16.83944-.15085-18.43888-1.93513l-1.07295-1.19783-.014-14.72575c-.009-10.55979-.16183-15.55397-.53746-17.65293-2.81523-15.717804-17.55775-26.767116-32.75181-24.547263m7.00111 26.697183c5.74036 4.37876-.16284 14.34112-6.22588 10.50583-5.25483-3.32478-4.77531-9.4059.9181-11.62674 1.27675-.49752 3.91615.0599 5.30778 1.12091m-7.12499 35.80237c.33667 5.84534.32768 20.58508-.013 20.58508-.86615 0-5.75634-3.39272-7.115-4.93723-4.68341-5.32084-2.79227-13.07633 4.55751-18.68892 2.37867-1.81524 2.28476-1.92714 2.57048 3.04107m11.87832 36.19799c6.43968 3.92619 8.69346 11.83854 5.3987 18.94767-1.02499 2.20985-2.50554 3.51759-6.97215 6.15304l-3.02403 1.78528-.025-1.83423c-.34366-25.52331.0799-27.82109 4.62246-25.05176m-11.97023 17.10145c.12987 6.36884.36564 11.95644.52348 12.419.22378.65736.1029.89913-.55545 1.10792-.46255.14686-1.97606 1.04399-3.3627 1.99307l-2.52051 1.72633-1.16687-.86317c-5.3977-3.99013-6.63148-13.72672-2.55649-20.16649 2.15389-3.4037 8.37278-8.81847 9.19198-8.00326.11588.11489.31569 5.41876.44656 11.7866m32.17638 11.60678c-.41659.3067-1.24278.55746-1.8352.55746-.92109 0-2.80824.59343-3.4566 1.08695-.1069.0819-.30371 9.74857-.43757 21.48222-.2068 18.0945-.34267 21.71899-.89513 23.86991-5.13694 20.00764-30.27424 23.8759-41.83788 6.43977-2.77527-4.18495-2.97408-5.32885-3.17288-18.25935-.2068-13.40502-.048-12.83857-3.46359-12.30308-3.47459.54547-3.26579-.24876-3.26579 12.37401 0 12.71072.26973 14.41607 3.15989 19.97169 8.39874 16.14239 30.40311 20.71396 44.82595 9.313 2.5365-2.00506 7.84828-8.6986 9.34681-11.77761 2.36467-4.8613 2.37766-5.02414 2.34069-28.37656-.038-23.54422-.12986-25.24657-1.3087-24.37841m-117.79525 4.66748c-4.86022 1.78427-5.51058 3.25285-5.06202 11.43593.57144 10.4489 1.82421 11.66473 11.58761 11.24213 9.27589-.40161 10.12405-1.36568 10.28389-11.69369.12887-8.33993-.12588-9.24405-3.02203-10.70464-2.12491-1.07097-11.13206-1.25379-13.78745-.27973m38.55312-.22378c-4.90019.2038-5.13296.25275-6.8293 1.43761-3.74532 2.61647-3.64741 2.33274-3.34971 9.73357.29372 7.28697.47654 7.89737 3.01904 10.07427l1.64139 1.40464 4.71037.0849c10.9922.19581 11.17901.007 11.43376-11.59679.24177-10.98937-.31069-11.56781-10.62555-11.13822m93.26035.16983c-.64736.28173-1.75827 1.17487-2.46857 1.98308l-1.28973 1.46958.12688 7.53471c.18281 10.87049.74326 11.49289 10.34282 11.49289 10.06612 0 10.27191-.2128 10.27191-10.6607 0-8.8854-.36664-10.15517-3.33171-11.54882-2.11393-.99304-11.56265-1.18086-13.6516-.27074m32.16341.23278c-.77225.4086-1.92912 1.3407-2.57049 2.07099l-1.16685 1.32772-.24177 6.44276c-.43956 11.6847.87914 13.11133 11.65456 12.60681 9.72144-.45556 10.0731-.84418 10.21196-11.2741.10789-8.14411-.13587-9.03525-2.97008-10.83251-2.30874-1.46459-12.35886-1.69437-14.91733-.34167m-119.3887 5.44173c.22178.4146.4036 2.87821.4036 5.4727v4.71845l-1.03097.39262c-.56745.21579-3.1579.34267-5.75635.28273l-4.72436-.1089-.10989-4.78438c-.13687-5.96322-.003-6.25494 2.9421-6.43976 6.40172-.40261 7.8543-.32069 8.27587.46654m98.15955-.36464c.42958.18482.60441.35066.38962.36864-.22078.019-.1978.15785.0539.31969.27773.18083.49551 2.09997.58542 5.165l.14186 4.87829-5.26484.1099c-6.48462.13487-6.22387.36564-5.98711-5.29689.27374-6.51869-.20879-5.93925 4.91718-5.90728 2.41062.015 4.73435.17783 5.16392.36265m-130.91636 1.00103c.20879.55047.38063 2.55852.38063 4.46268 0 1.90316-.17184 3.91122-.38063 4.46169l-.38063 1.00103h-11.32187l-.25175-1.00502c-.31369-1.24681-.002-8.82847.38762-9.45986.1978-.31969 1.96107-.46155 5.73537-.46155h5.45063l.38063 1.00103m164.71214-.58743c.58243.35965 1.11891 7.04518.73628 9.19711l-.1988 1.12091H277.0734l-.10989-4.82334c-.0749-3.29881.037-4.99916.35465-5.38179.52547-.63339 10.30486-.7303 11.30787-.11289m-92.10748 7.3259 1.74229 1.10494-.28672 4.80036c-.32668 5.46971-.34266 5.50767-1.78425 4.4387-2.47556-1.83522-3.60645-5.53064-2.83221-9.25605.52248-2.51956.76924-2.60448 3.16089-1.08795m10.92626 7.94133c.6084 1.46858-.012 3.70342-1.38664 4.99417-1.28274 1.20583-1.24378 1.31373-1.46856-4.02011l-.19481-4.61254 1.28874 1.2498c.7093.68732 1.50252 1.76228 1.76127 2.38868m-90.43813 14.67181-5.14095.1089-1.99703 1.79526c-3.11793 2.80428-3.28877 3.33677-2.97508 9.27802.50351 9.54377 2.16987 11.14223 11.61958 11.14623 9.26391.004 10.45772-1.40665 10.46172-12.35806.003-9.54476-.79021-10.20613-11.96824-9.97035m27.97051.11489c-1.23278.51151-3.41664 2.5885-4.10696 3.90623-.9231 1.76128-.77424 12.4899.2008 14.39905 1.67436 3.28184 2.78027 3.70044 10.11806 3.82532 10.24793.17483 10.39978-.001 9.91526-11.46991l-.33967-8.0622-1.52051-1.31273-1.5195-1.31373-4.51956-.005c-2.48655-.002-5.13496-.0869-5.88622-.18782-.75126-.10191-1.80522-.002-2.3417.22079m100.26448-.0979c-.76525.14586-2.16387.9281-3.10695 1.73931l-1.71431 1.47358-.15784 7.34589c-.24576 11.40697.20279 11.92147 10.18997 11.6847 10.26292-.24376 10.44874-.43957 10.29489-10.87149-.12388-8.45481-.26574-8.97731-2.84919-10.50183-1.46256-.86317-9.71246-1.43063-12.65657-.87016m30.87867.31269c-.57644.24077-1.69435 1.19485-2.48557 2.11896l-1.43859 1.68036-.0879 5.29588c-.15385 9.26403.0589 10.17915 2.80025 12.02637 1.21481.81821 1.71532.87816 7.19893.86217 10.75642-.031 11.64055-.91312 11.81538-11.78361l.11089-6.92229-1.2208-1.38966c-2.10693-2.40069-2.7443-2.56253-9.5536-2.43765-3.35071.0609-6.56355.30871-7.13898.54947m-152.63703 5.5796c.83119.8322.75426 9.69162-.0899 10.23909-.47054.30571-9.54661.86816-10.63554.65936-.74327-.14286-1.39963-9.52578-.78024-11.14022.35166-.91811 10.56062-.70332 11.50569.24177m33.17041-.12987c.41659.41659.49851 10.21311.0879 10.46687-.4955.3067-10.21795.96207-10.84833.73129-1.21181-.44357-.86815-10.91644.37563-11.43893.85216-.35866 9.99718-.14586 10.38479.24077m96.49817.0699c-.83817.27973-.49351.87116.5075.87116.64438 0 .97606.21778.97606.64038 0 .35166.26174.83419.58342 1.07296.65136.48353 1.04697 7.31991.45855 7.91234-.34366.34467-8.98018.86017-10.0791.60142-.89212-.2108-1.07894-1.8622-.77923-6.90931l.25475-4.29285 1.75627-.0849c1.29773-.0619 1.55248.006.97604.26175-.5115.22678-.041.27074 1.36566.12887 1.17983-.11888 2.39864-.34966 2.70833-.5135.3087-.16284.82619-.19481 1.15087-.0709.39561.15185.43457.27773.12088.38263m35.74488-.11889c.15085.14986.27473 2.57252.27473 5.3818v5.10905l-1.02599.27673c-.56445.15186-3.28577.34067-6.04905.4206l-5.02306.14386v-5.30686c0-3.46465.15785-5.49669.45455-5.85434.48452-.58244 10.80038-.73829 11.36882-.17084" transform="matrix(4.46571 0 0 4.4213 -386.36107 -298.32241)"/>
</svg>
