<svg xmlns="http://www.w3.org/2000/svg" xmlns:xlink="http://www.w3.org/1999/xlink" viewBox="0 0 1024 1024">
  <defs>
    <linearGradient id="a">
      <stop offset="0" stop-color="#fff"/>
    </linearGradient>
    <linearGradient xlink:href="#a" id="b" x1="3e-8" x2="1024" y1="512" y2="512" gradientTransform="matrix(.99903 0 0 .999 .49756872 .51829604)" gradientUnits="userSpaceOnUse"/>
  </defs>
  <path stroke="url(#b)" stroke-linecap="round" stroke-linejoin="round" d="M537.36215 3.5069598c33.12145 10.2431172 41.1347 24.4259232 42.20311 75.0506032.80134 46.291067-.80131 50.427727-25.37528 63.822577-24.84108 13.59183-24.30687 12.01596-25.90953 68.15619-1.60264 61.26179-11.21857 77.61139-50.21641 85.68771-71.31795 14.57677-116.19216-48.06392-57.96253-80.56616 24.84109-13.98578 23.77265-9.65216 25.37532-100.65842 1.60265-88.445465 1.60265-88.445465 20.83445-102.0373 16.82783-11.4250292 49.94928-15.9556554 71.05087-9.4552002M350.3862 29.114777c21.36867 6.500442 21.10157 5.515527 18.96469 82.929933-1.86975 74.45967-2.13687 74.85362-17.09493 84.30881-23.23845 14.37981-56.627 10.04617-70.51663-9.25819-9.08172-12.60695-9.08172-117.795969 0-130.402905 17.09493-23.637991 45.14131-34.866023 68.64687-27.577648m375.55453 69.141116c22.17002 8.470277 22.43714 9.849177 24.84109 88.445467 4.00664 135.52446.80133 653.19638-3.73953 661.07572-16.02649 26.59272-63.83892 29.35049-83.07073 4.92456-6.1435-7.87931-10.15013-718.20085-4.27373-734.15648 7.21193-18.31944 42.73736-29.350508 66.2429-20.289267m163.7375 34.275077c31.25171 14.77373 30.9846 13.59184 32.05304 167.63271.53421 96.91577 1.60264 132.37275 4.00662 136.70637 1.86975 2.95475 22.17001 19.89532 45.40845 37.42683 47.54526 35.85093 52.35316 41.56346 52.35316 60.27687 0 58.11004-123.93823 68.15619-138.36211 11.22803-1.06845-4.33363-8.81456-12.40993-22.97133-24.03193-34.7241-28.75955-31.51879-10.63709-33.65567-204.66558-2.13688-184.17934-2.40398-180.43666 14.42385-187.33106 12.55412-4.92458 32.58725-3.74267 46.74399 2.75776m-722.79558 16.15264c31.78593 8.86422 39.53205 42.74536 13.88965 60.27686-22.97133 15.56167-55.55856 12.40993-72.1193-6.8944-25.108181-29.35054 14.42386-65.59544 58.22965-53.38246m-66.77712 112.87135c61.43494 23.24406 40.33338 87.85453-28.580604 87.85453-69.1811092 0-84.67339-71.89887-19.498909-89.82434 12.286985-3.34873 36.860946-2.3638 48.079513 1.96981m207.00909 20.09231c27.77928 14.37979 32.05304 40.18458 9.61591 58.89798-43.53869 36.83587-117.79484-2.56077-87.61158-46.29104 13.62254-19.69833 52.35327-26.0018 77.99567-12.60694m270.3138 32.69923c3.47239 3.5457 4.27373 10.44011 4.27373 34.0781 0 33.88109-.53423 34.66903-23.23846 47.86692-7.47902 4.5306-18.16336 12.40996-24.03975 17.53151-30.45036 28.16861-40.86759 31.91125-84.9405 32.10824-73.18773 0-80.39966 7.48539-79.3312 80.76312.80131 55.74627-.80135 63.6256-15.22521 74.85365-22.17001 17.33451-58.76385 13.78883-73.45481-6.8944-6.41062-9.25824-9.88305-125.87229-4.54086-147.93444 10.68433-42.1544 41.93604-58.11002 118.06196-59.88288 54.75724-1.18191 58.22965-2.16682 67.57845-21.66817 8.81456-17.92545 25.64241-23.63799 48.34663-16.54657 19.49892 5.90949 33.38857-1.37888 33.38857-18.12247 0-17.92546 21.63578-28.36558 33.12145-16.15261m-408.14179 70.71696c23.23844 8.07632 34.18989 30.13845 24.03977 47.66993-12.01989 21.47119-50.75061 29.15353-73.98905 14.57676-44.340025-27.38064-1.33554-80.76309 49.94928-62.24669M89.421196 496.162c38.196524 11.81898 54.757234 41.76045 37.128074 67.36827-28.580604 41.56345-110.850031 33.68414-124.7396633-12.01598C-8.6076242 516.45128 45.081198 482.57017 89.421196 496.162m457.022634 14.77375c13.88964 6.89441 24.84109 17.13754 29.38193 27.38066 3.4724 7.2884 4.80795 429.42345 1.60266 444.00022-8.28036 36.24477-68.37976 53.77647-105.77498 30.92617-24.30686-14.77348-24.30686-15.16758-24.57396-133.55446-.26712-120.94768-1.86978-113.06837 27.77928-130.79686 19.23179-11.22804 21.10155-15.75866 21.10155-50.23071.26712-33.68413-.2671-34.86604-25.10818-53.9734-24.30688-18.91039-25.3753-21.27421-25.3753-63.03463 0-36.24491 2.93819-47.07899 15.75939-60.27688 18.6976-19.10738 58.49676-24.03196 85.20761-10.44011M200.80545 618.09463c6.1435 3.3487 9.61588 7.28839 10.95144 12.40993 5.60928 21.86513 15.22516 26.98673 55.82566 28.36561 48.34666 1.77284 76.92727 13.39483 96.69329 39.59362 10.95144 14.77373 13.08832 49.63976 3.73951 63.82257-18.9647 28.75954-71.05085 26.7897-87.34447-3.34872-10.68432-20.09228-12.01987-21.66814-22.97131-26.98671-10.41725-5.12158-12.28701-5.31854-59.03099-6.30346-62.50339-1.18191-83.87207-9.65217-96.6933-38.01777-20.567348-45.50313 51.55197-96.12782 98.83017-69.53507M899.56127 648.824c49.14794 18.51643 20.30022 75.4446-33.92279 67.95924-13.62252-1.77288-31.2517-14.97073-35.52542-26.59277-10.95146-30.13841 31.7859-55.54925 69.44821-41.36647m-556.9212 182.99742c39.26494 13.1979 39.26494 52.20057 0 65.39844-36.86101 12.40996-77.46148-13.00089-65.44159-40.77552 9.88301-22.85006 38.73073-33.68413 65.44159-24.62292"/>
</svg>
