<svg xmlns="http://www.w3.org/2000/svg" xmlns:xlink="http://www.w3.org/1999/xlink" viewBox="0 0 1024 1024">
  <defs>
    <linearGradient id="b">
      <stop offset="0" stop-color="#fff"/>
    </linearGradient>
    <linearGradient id="a">
      <stop offset="0"/>
    </linearGradient>
    <linearGradient xlink:href="#a" id="c" x1="104.58779" x2="300.091" y1="206.93291" y2="206.93291" gradientTransform="matrix(.9991 0 0 .99894 .18180435 .21955761)" gradientUnits="userSpaceOnUse"/>
    <linearGradient xlink:href="#b" id="d" x1="104.58779" x2="300.091" y1="206.93291" y2="206.93291" gradientTransform="matrix(.9991 0 0 .99894 .18180435 .21955761)" gradientUnits="userSpaceOnUse"/>
  </defs>
  <path fill="url(#c)" fill-rule="evenodd" stroke="url(#d)" stroke-linecap="round" stroke-linejoin="round" stroke-width=".175742" d="M128.58227 124.34672c-11.28184.63033-20.23778 7.98152-23.03228 18.90692-1.01808 3.97977-1.2199 121.90054-.2168 126.63151 1.93826 9.14128 9.20472 16.61635 18.46738 18.99782 4.13129 1.06287 153.11324 1.04489 156.98776-.018 10.29773-2.826 17.49326-11.27203 18.71915-21.97466.85324-7.4411.52153-119.37122-.36367-122.83054-2.24598-8.78067-8.85104-15.93108-17.34139-18.77606l-2.76951-.92702-72.98134-.13086c-40.13989-.0709-75.00151-.017-77.4693.12087m150.44065 11.23907c13.2141 5.32034 11.38874 24.16633-2.68759 27.73854-2.8854.73222-4.34709.78417-22.39885.78417h-19.31262l-3.16616-3.02479c-13.37395-12.77145-30.07193-16.13287-46.96873-9.45397-1.7714.70026-3.2201 1.39552-3.2201 1.54636 0 .20179 2.93336 5.0836 4.85963 8.08742.029.045 1.66149-.43554 3.62773-1.06687 34.20922-10.99933 59.38257 29.98315 34.06035 55.4511-11.05206 11.1152-26.88879 12.70551-40.27875 4.04472-4.63583-2.99783-11.24488-10.67368-11.24488-13.05814 0-.58338 5.73683-3.82295 6.04855-3.41538.045.0579.58647.98296 1.20392 2.05582 12.62864 21.9447 46.70997 12.13411 46.76892-13.4617.042-18.38048-18.79509-30.70539-35.19934-23.03055-2.90638 1.35956-2.90538 1.00394-.009 5.79885l2.00721 3.32247-.94615.59237c-.52054.32466-1.87732 1.52738-3.0143 2.67317l-2.06814 2.08179-4.8816-.10889-4.88261-.10888 1.27685-2.53631c.8952-1.77811 2.36188-3.62415 4.90559-6.17345l3.62773-3.63714-2.40683-4.0467-2.40584-4.0467-1.79338 1.2297c-5.89169 4.0377-11.32881 11.13316-12.92638 16.86908l-.65241 2.34152-4.35208.10988c-2.39284.0609-4.34809-.027-4.34409-.19479.0639-2.90392 3.05026-10.40096 4.96653-12.46777.48457-.52244.88121-1.10083.88121-1.28463 0-.18381.79028-1.30362 1.75541-2.48936.96613-1.18574 1.75642-2.2556 1.75642-2.37747 0-.12187-8.26356-.22076-18.36347-.22076-15.34319 0-18.81007-.1019-21.07804-.61835-13.12718-2.98483-16.45119-21.0866-4.94655-26.94038 4.25418-2.1647-.0909-2.05682 79.70829-1.9769l73.76163.0739 2.33191.939M236.688 148.69482v5.65799h12.09811v-11.31598H236.688v5.65799m21.07504 0v5.65799h11.70746v-11.31598h-11.70746v5.65799m31.09002 15.09697c-.62244 5.25441-4.85763 9.71168-10.60746 11.16613-.85523.21577-7.03367.50846-13.73065.65132l-12.17605.25872-1.09101-2.07579c-.60046-1.14079-1.15096-2.20666-1.22389-2.36749-.0729-.16083 5.80977-.29768 13.07223-.30268 13.53982-.01 15.21032-.15783 18.39146-1.63526 2.19902-1.02092 6.56708-5.23444 6.93176-6.6859.4346-1.73316.68838-1.15477.43361.99095m-169.76825 3.08372c4.12528 3.71206 6.84384 4.25648 21.25887 4.25648 6.19542 0 11.26487.0839 11.26487.1858 0 .10289-.48356 1.17775-1.07403 2.38847l-1.07305 2.20166-10.53751-.20278c-16.75893-.32267-22.0052-2.9209-23.40994-11.59668l-.28474-1.75614 1.14797 1.56034c.63243.85909 1.85033 2.19167 2.70756 2.96285m44.80369 44.3499c9.47248 21.95068 34.87961 30.73636 56.99271 19.70906 7.77801-3.87787 13.03428-9.52488 18.34551-19.70906l1.37376-2.6332h5.12538l-.26676 1.21671c-4.7737 21.72891-32.06514 37.37331-54.85265 31.4426-15.55799-4.0497-29.64432-17.63527-32.54871-31.39166l-.26776-1.26765h4.96254l1.13598 2.6332" transform="matrix(5.23777 0 0 6.18162 -547.80587 -767.18097)"/>
</svg>
