<svg xmlns="http://www.w3.org/2000/svg" xmlns:xlink="http://www.w3.org/1999/xlink" viewBox="0 0 1024 1024">
  <defs>
    <linearGradient id="a">
      <stop offset="0" stop-color="#fff"/>
    </linearGradient>
    <linearGradient xlink:href="#a" id="b" x1="-7e-7" x2="1024" y1="512" y2="512" gradientTransform="translate(.49950794 .50015455) scale(.99902)" gradientUnits="userSpaceOnUse"/>
  </defs>
  <path stroke="url(#b)" stroke-linecap="round" stroke-linejoin="round" d="M516.01211 940.97523c-6.17111 6.20039-1.76318 16.38677 7.27312 16.38677 8.81586 0 11.90141-9.96493 5.0691-16.16531-5.0691-4.65032-7.93427-4.65032-12.34222-.22146m-.88159-871.156456c-3.96712 3.985972-3.30595 9.300602 1.98357 14.172347 4.84874 4.428858 9.47707 2.878757 13.88501-4.207416 5.06912-7.971945-9.03627-16.829663-15.86858-9.964931M375.83969 90.412965c-3.30596 3.985973-1.32239 13.508025 3.52635 15.279575 5.28953 1.99298 11.90142-2.65733 11.90142-8.193401 0-9.522045-9.69746-13.950905-15.42777-7.086174M519.31806 364.11641c-114.16559 17.27257-160.00813 160.76757-77.57971 243.36578 98.95822 99.20641 267.34144 1.77154 235.1635-135.96595-16.30937-69.75452-87.27717-118.02907-157.58379-107.39983m57.744 29.4519c37.46747 13.28659 71.629 50.71045 75.81652 83.0411 1.32239 9.30062 1.32239 9.30062-53.99724 8.6363-61.93153-.66434-64.35589-1.32867-64.35589-16.3868 0-15.27956 7.49349-20.81563 28.65161-20.81563 13.00341 0 13.4442-.22145 11.90143-5.09318-5.73033-18.82266-31.29637-42.2956-55.76043-51.37477-7.2731-2.87875-6.1711-3.10019 17.41135-3.10019 21.3785 0 27.77004.66432 40.33265 5.09317m-82.64885 23.69441c22.26009 7.7505 15.86859 41.8527-7.93429 41.8527-22.48047 0-29.97397-28.34469-10.57905-40.08116 7.93431-4.87176 9.47707-5.0932 18.51334-1.77154m13.66461 70.64029c6.8323 3.76453 7.93429 14.83668 1.98357 21.25852-6.17111 6.64329-13.66461 6.86473-19.61532.44288-11.46063-12.4008 2.64476-29.67334 17.63175-21.7014m145.90275 32.33067c2.42437 2.21443-5.06911 28.34469-11.68104 40.74549-14.98698 28.34471-38.56945 47.16735-67.66184 54.03208-15.86859 3.76452-15.86859 3.76452-6.17111-8.19338 8.15468-9.96495 22.0397-36.5381 24.46405-46.50304 1.54278-5.7575 1.32238-5.97896-7.71387-5.97896-20.71731 0-31.73716-17.05109-19.39494-30.33766 4.62833-4.87176 83.75083-8.41483 88.15875-3.76453m-176.9787 11.07213c11.68103 8.41483 13.4442 27.01604 3.08555 37.20244-18.95413 19.26552-49.36892-3.10021-37.90826-28.12326 5.06912-11.51505 24.24365-16.38678 34.82271-9.07918m57.96437 46.72447c7.0527 6.42184 5.06914 17.71542-4.18753 22.58717-6.6119 3.32166-8.81588 3.10022-13.88502-1.99298-12.783-12.84368 4.62835-32.77356 18.07255-20.59419m240.23263-156.11726c-3.74676 3.76453-3.30595 11.73647.66119 15.05813 4.40793 3.76452 13.66459 1.10721 15.42777-4.65032 2.86517-8.8577-9.69746-16.82965-16.08896-10.40781m141.054 230.30065c-5.9507 5.97893-1.32236 15.05811 7.71391 15.05811 7.0527 0 10.13825-6.86475 5.95071-12.84369-3.74675-5.31463-9.69745-6.2004-13.66462-2.21442M601.0853 760.72069c-6.3915 6.42184-.44078 15.9439 8.81589 14.61524 3.74675-.44289 5.28953-2.43588 5.73032-7.08618 1.10198-9.07916-8.15468-13.9509-14.54621-7.52906M66.402437 503.62547c-6.611908 9.52202 5.509921 20.81563 13.664608 12.62222 3.746747-3.76452 3.305953-9.74347-.881588-13.72943-4.628336-4.87178-8.815876-4.42889-12.78302 1.10721m14.546194 104.29962c-7.493494 7.52904 1.322383 19.92984 10.579051 15.05809 7.713894-4.20741 4.40794-17.71542-4.407937-17.71542-1.983572 0-4.628335 1.10722-6.171114 2.65733m109.537259 79.0551c-6.6119 5.31464-3.08556 15.72246 5.28953 15.72246 9.69747 0 13.6646-9.52205 6.8323-16.38679-4.40794-4.42886-5.95073-4.42886-12.12183.66433m232.07793 58.23949c-7.27309 7.30763 2.20399 19.70842 11.68104 15.50101 5.95073-2.65731 6.83231-7.08616 3.30596-13.9509-2.64476-4.65031-11.01983-5.53608-14.987-1.55011m114.16559 132.20143c0 32.99499 0 32.99499 7.49352 39.63828 34.16149 30.11623 4.84871 83.26241-36.3655 65.99-26.00683-11.07216-31.07596-40.74549-10.57906-62.22546 8.5955-9.07917 8.5955-9.07917 8.5955-38.53106 0-16.16535-.6612-29.00903-1.76318-28.56616-.8816.22144-19.61533 19.26555-41.87541 42.07415-40.11225 41.40983-40.11225 41.40983-40.11225 81.26957 0 22.14425.66119 40.08097 1.76318 40.08097.8816 0 13.44421 1.5502 27.99039 3.3217 66.55988 7.9719 163.9753-.443 208.93628-18.1584 8.15469-3.32144 8.15469-3.54288 8.15469-15.94366 0-12.40082 0-12.40082-64.57629-77.28359-35.26351-35.43087-65.01711-64.66133-66.11909-64.66133-.88159 0-1.54278 14.83667-1.54278 32.99499M450.77462 4.9359964C95.935622 54.982098-101.0992 419.6986 54.06021 739.46217c61.04995 125.77958 168.16282 217.67838 304.80891 261.08113 35.7043 11.5149 32.39834 15.058 32.39834-34.10214 0-41.8527 0-41.8527 57.30321-100.0922 57.08278-58.46093 57.08278-58.46093 57.3032-100.0922 0-45.61725 1.32236-50.26754 14.32578-50.26754 13.88501 0 16.52976 7.30761 16.52976 45.39579 0 34.32367 0 34.32367 80.44488 114.48601 80.44486 79.94088 80.44486 79.94088 80.44486 96.32766 0 19.04408-1.54277 18.37976 24.24367 7.30761 263.1539-114.92888 378.20108-437.79264 247.50572-695.77366C872.17351 91.52018 657.06613-24.073022 450.77462 4.9359964m88.37916 36.9809696c24.24366 12.179359 27.77002 42.517041 7.27311 62.225464-9.69748 9.52204-9.69748 9.52204-9.69748 95.88478 0 94.77757-.44079 97.43489-15.42776 97.43489-14.98701 0-15.42778-2.43587-15.42778-98.98499 0-88.13428 0-88.13428-6.83233-92.56313-38.34903-25.02306-.88157-84.81265 40.11224-63.997014M393.25104 60.51817c29.31278 8.414832 35.7043 46.94591 11.24025 66.65433-8.81588 7.08615-8.81588 7.08615-8.81588 44.95291 0 37.86674 0 37.86674-47.38533 87.46994-47.38534 49.82465-47.38534 49.82465-47.38534 87.24852 0 41.18838 8.59549 61.33968 26.66802 61.33968 18.51333 0 27.32922 25.24449 13.00343 38.08819-10.57905 9.74347-24.90485 7.52906-37.2471-5.97895-5.0691-5.53609-5.0691-5.53609-125.40582-5.53609-134.221715 0-130.474969.44288-130.474969-15.50099 0-15.72246-1.763172-15.50102 115.928789-15.94391 105.57012-.66431 105.57012-.66431 106.23129-54.03206.4408-53.36774.4408-53.36774 47.38534-101.6423 52.89524-54.69638 49.80969-48.93889 49.80969-89.90582.22039-25.46595.22039-25.46595-6.61191-30.55912-33.72073-25.02306-7.27309-78.390805 33.05954-66.65433m255.44002 9.522046c7.05268 6.643288 6.83229 19.70842-.88158 25.687379-15.6482 12.400815-35.48392-3.321644-26.88845-21.25852 5.73033-11.957919 17.41136-13.729461 27.77003-4.428859m0 75.954934c5.73031 3.98597 6.17111 11.07212 1.10198 16.82965-8.37509 9.30061-23.14168 0-18.51336-12.17935 3.30597-8.41483 9.69747-10.18639 17.41138-4.6503m-351.31267 3.32164c9.25666 7.30761 7.93427 22.80862-2.42436 28.34467-18.51334 9.74351-35.4839-11.515-20.93771-26.35168 7.93428-7.75052 15.2074-8.41485 23.36207-1.99299m444.32015 4.87174c0 16.16535 13.66462 30.11624 31.95757 32.55212 13.44418 1.77154 12.783 9.52204-1.10199 11.07213-17.85216 2.21443-27.32922 11.2936-29.97399 27.90179-1.98358 13.50803-8.59548 13.95093-10.35866.44291-2.20396-16.60821-15.86858-28.3447-33.05953-28.3447-13.66462 0-11.01985-9.30059 3.08555-11.29357 17.41135-2.65735 30.63518-17.05111 30.63518-33.65936 0-4.42883 1.10198-5.97893 4.40793-5.97893 3.52635 0 4.40794 1.5501 4.40794 7.30761m-520.35708 2.65731c15.86858 8.1934 9.69747 32.10924-8.37508 32.10924-16.30939 0-22.92127-19.26554-10.35866-30.11625 7.05269-6.20041 10.13826-6.42185 18.73374-1.99299m-51.35247 54.91786c11.24022 9.74347.22039 25.9088-13.44423 19.70841-7.49349-3.5431-7.93428-16.38679-.66119-21.25852 6.39153-4.65031 7.05271-4.42887 14.10542 1.55011m441.23458 5.09318c4.18754 2.87875 4.84875 5.31462 4.84875 18.6012 0 12.62223.88158 16.60823 5.5099 23.47295 12.56263 18.6012.88159 41.40983-21.1581 41.18838-21.37851-.44289-34.16151-26.13027-20.71731-42.07416 4.62834-5.53606 5.50995-8.8577 5.50995-20.81564 0-21.92285 11.24022-30.78055 26.00681-20.37273M275.3387 219.0713c8.81586 8.85771-3.52635 22.14429-13.88502 15.05813-8.15467-5.75752-3.74673-18.60121 6.39152-18.60121 2.20398 0 5.73033 1.55009 7.4935 3.54308m566.19964 14.61524c11.90142 15.94389-11.68104 35.20941-26.44763 21.25852-6.61191-6.20041-6.61191-16.38678-.2204-23.25151 6.8323-7.30762 20.49691-6.42187 26.66803 1.99299m-393.40848 13.28657c1.5428 1.55009 2.64476 4.42887 2.64476 6.6433 0 4.42884 1.32239 5.09317 13.88502 7.3076 13.44421 2.21443 11.68102 9.96494-2.64477 9.96494-10.79945 0-10.79945 0-12.34221 9.07916-2.42438 13.95091-13.22384 13.95091-14.7666.22143-.6612-5.31461-1.76319-5.97895-11.68104-7.08616-15.86856-1.5501-15.86856-8.85773 0-12.17937 8.15468-1.77154 11.24023-3.54309 11.68104-6.86471 1.32238-7.97198 2.42436-9.74351 6.61191-9.74351 2.20396 0 5.06912 1.10721 6.61189 2.65732m-218.19292 38.53106c6.1711 6.86474 6.1711 14.17235.22038 21.70141-8.15467 10.18638-27.77001 5.53608-28.65159-7.08617-1.32238-20.37275 15.2074-29.00902 28.43121-14.61524m-98.73781 7.30763c0 17.49398 13.22381 32.33066 30.85556 34.76653 15.42777 1.99298 15.64818 8.63628.6612 10.62927-19.61532 2.6573-31.51676 14.61521-31.51676 32.33066 0 5.09319-1.10198 6.6433-4.18754 6.6433-4.18754 0-6.83231-5.53609-6.83231-15.27958 0-9.30061-14.98699-21.92285-28.210803-23.69438-16.309372-2.21443-16.309372-8.63629 0-10.85071 17.411363-2.43589 30.414773-18.15833 30.414773-37.20242 0-2.21444 1.76317-3.76452 4.40794-3.76452 3.30596 0 4.40794 1.55008 4.40794 6.42185m758.60611 5.75751c1.98358 17.27255 10.79948 25.46594 31.07599 28.78758 13.66459 2.21442 12.12182 12.17937-1.98358 12.17937-16.97055 0-29.53319 12.62224-29.53319 29.89479 0 12.40079-9.47706 10.40782-11.01984-2.21443-2.42438-17.05111-12.56263-26.57316-31.95755-29.23045-13.22382-1.77156-13.00342-7.52908.44078-9.96496 19.17454-3.32165 29.5332-13.06512 32.39836-30.78055 1.98357-13.06513 9.25666-12.17937 10.57903 1.32865m-194.61045 6.86472c7.71389 9.96495 4.18754 23.03008-7.7139 27.45894-6.3915 2.43587-17.85213-1.10722-20.7173-6.64329-9.69746-18.15833 15.86858-36.75954 28.4312-20.81565m-308.11487 8.85774c9.03628 8.19337 4.18754 27.45891-7.93428 30.55911-17.85215 4.42886-27.77001-18.37976-14.10539-32.10922 5.28951-5.31464 15.42777-4.65031 22.03967 1.55011m368.94442-2.21443c7.4935 7.52904.22041 18.37975-10.57906 15.50099-7.49349-1.77155-9.69745-9.07915-4.62833-14.83667 4.62833-5.09319 10.35866-5.31464 15.20739-.66432m-190.64331 20.81563c107.55367 17.0511 173.23195 126.00102 138.18885 229.19343-55.98082 165.19639-290.48312 156.56013-331.91774-11.95792-30.41476-123.56517 70.52702-236.72249 193.72889-217.23551m236.26546 63.997c23.14167 14.61523 25.12525 46.06013 4.18755 62.4469-6.8323 5.53609-6.8323 5.53609-6.39151 148.14532.66119 142.83069.66119 142.83069 50.91167 143.49501 50.03011.4429 50.03011.4429 50.03011-29.8948 0-30.11623-.22039-30.55912-5.95073-36.09521-33.94111-32.55208 13.44422-85.47695 50.9117-56.91081 22.03969 17.0511 20.27652 52.03909-3.08556 62.88979-9.47707 4.42885-9.03628 1.5501-9.69748 53.81062-.22038 8.85774-1.32236 11.07216-11.68101 21.70141-6.39152 6.42185-11.68104 12.62225-11.68104 13.72946 0 1.10721-56.42163 2.21443-133.11973 2.65732-132.89935.66432-132.89935.66432-139.07045 7.97195-25.34564 30.33768-75.81653 6.42185-67.22105-32.10923 7.0527-31.22346 44.29978-39.63828 67.44145-15.05812 7.27309 7.75052 7.27309 7.75052 68.54342 7.30762 61.27035-.66432 61.27035-.66432 61.71114-142.60924.66119-141.94493.66119-141.94493-7.71389-147.25954-4.62832-3.1002-10.35866-9.52205-13.00342-15.27957-18.07255-35.65231 20.93771-70.41885 54.87883-48.93888m130.03417 38.97395c3.96715 18.37976 14.10542 28.34471 32.39836 31.22346 14.54618 2.21443 12.34222 8.41482-3.96715 11.73648-15.64818 3.10019-25.78645 12.84368-27.99042 26.79458-.88157 4.6503-2.86515 9.07916-4.62832 9.74349-3.30595 1.32866-3.96715 0-5.95072-11.95792-2.20396-11.95793-13.00342-21.7014-28.21081-24.8016-14.98698-3.10021-16.97055-8.63628-3.74674-10.85072 17.41135-2.65729 32.83914-17.71543 32.83914-31.88777 0-13.06512 6.61189-13.28656 9.25666 0M87.780935 473.28777c4.187542 1.5501 10.579052 7.08618 14.546195 12.17938 7.2731 9.07914 7.2731 9.07914 112.18202 9.07914 120.99791 0 124.08346.66434 112.62281 22.80861-4.40791 8.19341-4.18753 8.19341-113.28399 8.19341-105.79051 0-105.79051 0-110.85966 7.52905-10.579039 15.50101-33.94111 19.48698-50.470878 8.85772-39.010252-25.46594-7.493494-86.58419 35.263503-68.64731M875.03867 562.0864c11.01984 10.85069 2.86517 27.68036-13.22381 27.68036-11.90145 0-17.85216-7.30762-16.75019-21.03707 1.10199-11.95794 20.49693-16.38679 29.974-6.64329m93.22789-.66434c4.40792 4.42885 3.30594 14.61524-1.98358 17.27254-5.28953 2.87875-15.20739-2.21443-15.20739-7.97193 0-9.96496 10.79945-15.72246 17.19097-9.30061M103.8699 580.68758c5.06915 2.21445 9.91786 5.31465 10.57905 6.64331 3.08557 5.09318 189.54134 3.32164 193.94928-1.77155 9.25667-10.18638 28.6516-6.20041 36.80627 7.30761 15.20741 25.02305-14.10538 50.93186-37.68786 33.4379-13.4442-9.96495-179.18267-8.41485-184.2518 1.55008-13.4442 27.23748-41.43462 34.10221-61.270342 15.501-31.737152-29.89479 2.203969-80.82665 41.875402-62.66835m107.9945 77.50502c38.56943 17.71545 24.68444 71.08319-18.51334 71.08319-12.78303 0-13.22382.22145-22.48048 10.40781-41.65502 46.28158-42.53661 46.94591-54.21766 35.20944-11.01984-11.07215-9.91785-13.06514 18.51334-42.07415 26.00683-26.13029 26.00683-26.13029 25.12525-38.97395-2.20396-29.67338 24.46407-48.05312 51.57289-35.65234m181.60704 13.50804c14.54619 14.61522 1.76317 26.57314-28.21081 26.57314-22.92127 0-22.92127 0-98.95821 77.2836-79.12248 80.82667-81.10605 82.5982-90.14232 76.61923-17.63177-11.51502-17.85217-11.29358 74.71454-104.96394 78.90209-79.94089 78.90209-79.94089 108.65567-79.94089 26.66803 0 29.97397.44288 33.94113 4.42886m307.45367 2.6573c6.8323 8.1934 6.1711 15.72246-2.42437 23.25151-16.30938 14.8367-37.90826-8.8577-22.92127-24.80159 7.49349-8.19342 17.85216-7.52908 25.34564 1.55008m-255.2196 42.51705c19.17452 9.07916 27.76999 31.00199 19.61532 50.71043-14.75498 16.3175-29.41962 31.85932-44.74057 48.27456-19.17453 19.70842-19.17453 19.70842-58.84598 19.70842-39.89183 0-39.89183 0-75.15535 36.53807-37.90825 39.41685-40.77342 41.18839-50.69127 31.00202-10.79946-10.85071-9.03628-13.95091 34.6023-58.01805 40.11224-40.52404 40.11224-40.52404 79.12248-40.52404 38.78986 0 38.78986 0 48.04653-9.96495 10.35866-11.29359 10.57904-12.4008 4.62834-15.94388-10.57906-6.64329-14.98699-30.78059-8.15469-44.06715 11.01985-21.03706 30.19438-27.68037 51.57289-17.71543m397.3756 112.05011c14.54621 14.61524-6.83229 37.20242-23.80285 25.24451-11.90145-8.41484-3.52636-29.67337 11.68103-29.67337 4.84873 0 9.47707 1.77156 12.12182 4.42886m-139.51123 21.03709c15.42778 10.85071.22039 36.98096-17.41136 29.67335-3.52635-1.32866-7.27309-4.42887-8.37509-6.64328-8.81586-16.16534 10.79945-33.65932 25.78645-23.03007m72.29018 17.71543c15.42777 15.27956-4.62833 38.7525-21.81929 25.24449-11.46064-9.07916-3.96715-30.78056 10.79944-30.78056 3.08554 0 8.1547 2.43586 11.01985 5.53607m-428.67198 42.51704c15.86858 10.85071 10.35867 31.66635-8.15467 31.66635-17.85216 0-24.46405-16.38679-11.90145-29.00904 7.4935-7.30762 12.34224-7.97194 20.05612-2.65731" transform="translate(.00049015 .0004907)"/>
</svg>
