<svg xmlns="http://www.w3.org/2000/svg" xmlns:xlink="http://www.w3.org/1999/xlink" viewBox="0 0 1024 1024">
  <defs>
    <linearGradient id="b">
      <stop offset="0" stop-color="#fff"/>
    </linearGradient>
    <linearGradient id="a">
      <stop offset="0"/>
    </linearGradient>
    <linearGradient xlink:href="#a" id="c" x1="0" x2="1024" y1="512" y2="512" gradientTransform="translate(.49950893 .51061501) scale(.99902)" gradientUnits="userSpaceOnUse"/>
    <linearGradient xlink:href="#b" id="d" x1="0" x2="1024" y1="512" y2="512" gradientTransform="translate(.49950893 .51061501) scale(.99902)" gradientUnits="userSpaceOnUse"/>
  </defs>
  <path fill="url(#c)" fill-rule="evenodd" stroke="url(#d)" stroke-linecap="round" stroke-linejoin="round" d="M609.62083 8.8806781C859.81954 63.263598 1023.1146 259.22376 1023.4988 505.55161c.748 481.12222-592.20024 701.37839-900.39417 334.45086C68.965701 775.55421-3.1371999 630.9041 22.896146 638.96868c22.067277 6.84224 58.118727 28.00405 59.882189 35.1604 3.931761 15.93796 39.804795 83.38398 57.062015 107.26358 204.34188 282.84034 625.56884 250.02204 784.54792-61.11591 119.73703-234.33687 25.9167-508.50489-213.61205-624.249558C404.20852-52.112319 49.560772 172.86252 49.437261 515.5555c-.0069 18.70352-.919469 34.02688-2.024206 34.04736-1.104735.0273-12.110928-5.07365-24.462014-11.33547L.49950892 526.89097l1.57819448-38.67716C11.896818 246.75474 187.29598 50.603385 434.05697 5.1386092c40.89582-7.5319386 132.67126-5.57896089 175.56386 3.7420689M535.89855 109.22004c12.59124 7.0676 20.11168 20.2741 20.11168 35.297v12.95385l49.47983 24.5761c44.05221 21.88563 49.06127 25.03362 45.6853 28.74155-2.08596 2.29441-5.37959 7.928-7.32145 12.51682l-3.52693 8.34453-50.17972-24.05713-50.17286-24.06397-10.80032 4.30202c-13.88126 5.52433-18.08064 5.40825-30.3837-.82626l-10.10043-5.12827-44.73838 22.07683c-57.54235 28.3933-55.48383 27.79921-59.22346 17.11247-1.65368-4.7254-4.83751-10.59798-7.07443-13.05628-3.73965-4.11081-1.83894-5.52432 23.48765-17.43339 15.15067-7.12906 37.20421-17.87727 48.99264-23.88643l21.44286-10.92574 1.42724-14.49712c3.32106-33.80836 32.90879-48.892725 62.89448-32.04658m-30.81596 26.891c-10.43667 10.39312-2.57314 25.26581 12.44714 23.53817 12.15897-1.39303 15.23987-14.09423 5.44135-22.47973-9.07119-7.76412-11.02678-7.8802-17.88849-1.05844m-235.62444 62.22215c21.49089 11.28083 30.30134 39.53071 19.43924 62.31775-10.96501 22.99869-45.84997 31.42518-66.18123 15.99255-46.17934-35.05116-4.34348-105.13302 46.74199-78.3103m537.7526 2.60853c15.41142 10.63211 20.0225 20.22629 19.1785 39.92678l-.70675 16.61395 12.46088 6.76716 12.46773 6.76712 1.50957 49.16587c.83712 27.04124 2.39473 49.90337 3.47203 50.79792 1.0773.90137 15.22615 7.40902 31.44038 14.46295 16.2211 7.06077 36.42198 16.27938 44.89619 20.49262l15.41143 7.66167v19.97364c0 10.98038-.44602 19.96682-.99495 19.96682-.54208 0-29.56028-12.90605-64.47954-28.68011l-63.49145-28.67326-1.42038-56.01496c-1.5919-62.54992-2.63488-66.09394-17.25034-58.56883-21.16153 10.88478-47.86733-.0273-59.04506-24.11861-19.81663-42.73333 27.85169-83.2269 66.55176-56.54073m-437.2216 11.21254c9.75735 9.71026 8.4948 31.60274-2.28496 39.58536-17.93653 13.28162-39.52348 1.89834-39.52348-20.8477 0-22.11782 26.47935-33.99274 41.80844-18.73766m324.32582 2.38317c14.18316 14.10788 12.12464 31.82808-4.69341 40.48674-26.54799 13.65718-52.96559-20.85453-31.96188-41.76368 11.32869-11.274 24.51004-10.81648 36.65529 1.27694m-458.61645 15.91063c-5.50996 8.36503-1.44096 19.56392 7.95273 21.91296 9.09177 2.26709 14.2655-.0479 17.92279-8.03043 7.22538-15.78771-16.31029-28.41379-25.87552-13.88253m536.4969-1.43401c-5.81873 6.39839-5.63346 14.55857.46661 20.04875 9.76422 8.79522 24.57866 2.7451 24.57866-10.0312 0-12.8241-16.4887-19.42051-25.04527-10.01755m-158.55364 41.62711c53.06851 23.01236 102.52088 44.57023 109.89037 47.90942 7.36948 3.33235 20.33812 8.884 28.81234 12.33243l15.41827 6.26866v44.09221l-8.71437-3.66012c-4.78948-2.01443-22.58191-9.84683-39.53721-17.41974-45.12264-20.14435-82.5876-36.32129-148.22677-64.00441l-58.44123-24.65122-46.097 19.37272c-25.34717 10.65944-56.3484 24.12542-68.87789 29.92972-12.52949 5.80432-36.05146 16.32035-52.26569 23.36746-16.21423 7.05393-41.8496 18.25964-56.95909 24.91072L261.1692 381.1756v-42.60359l19.43237-9.0274c10.69056-4.96438 56.82873-25.42285 102.52775-45.4716 45.69902-20.04192 93.33991-41.06716 105.87626-46.72124 12.52949-5.65407 23.98856-9.89464 25.45697-9.41664 1.47527.478 46.10386 19.69367 99.17923 42.70603m-406.72816 10.22241c5.55113 12.82409 6.04517 17.97285 6.02458 63.34203l-.0137 49.37756-22.11532 9.86731c-68.72007 30.65356-87.54862 38.91617-97.827465 42.93137l-11.390446 4.44543v-39.89265l15.41141-7.66852c8.474221-4.21324 27.474301-12.85823 42.213271-19.19518 42.83083-18.43036 38.86475-12.03881 38.86475-62.6182v-43.44351l8.71439-5.55164c12.1864-7.76411 13.31171-7.29976 20.11854 8.406m331.67472 44.73412c29.07309 4.12446 92.47533 28.26354 92.47533 35.20139 0 1.3862-5.5031 7.83923-12.22071 14.34005l-12.22071 11.81347-24.63357-9.1708c-51.09232-19.0313-104.98424-17.09199-149.71576 5.38092-6.9166 3.47576-7.36261 3.22311-13.92241-7.90751-3.71905-6.33009-8.64577-13.05627-10.94444-14.95462-18.86971-15.58284 80.54281-41.88659 131.18227-34.7029m-154.23763 86.00613c.0686 1.14037-4.81692 8.28991-10.84838 15.87648-41.80156 52.6348-49.37689 124.40331-19.83721 188.02533 5.1463 11.08962 9.35938 20.45846 9.35938 20.82037 0 1.2155-49.54845-20.55407-52.75287-23.17625-6.56666-5.36727-14.60172-49.91702-14.56741-80.76177.0686-52.88063 12.91374-89.3658 46.09013-130.91779l16.5436-20.71795 12.94806 14.38784c7.12246 7.90751 13.00295 15.31654 13.0647 16.46374m306.2658-8.54258c39.86655 50.51795 53.18514 119.55502 35.97595 186.40012l-5.81186 22.55484-26.29409 11.70422c-31.05613 13.8279-30.84342 13.89619-20.54398-6.63056 30.6101-60.9452 24.07777-133.83361-16.74259-186.83032l-13.4421-17.45389 14.42333-12.86507c18.01886-16.06769 17.24349-16.14281 32.43534 3.12066m-134.42102 9.3825c126.93487 37.10657 124.80088 219.95582-2.97797 255.40305-89.57283 24.84927-176.79209-39.21661-176.79209-129.85936 0-28.77569 20.29008-82.93327 28.52416-76.13882 8.95453 7.39537 9.44857 12.61924 3.45829 36.41688-19.76174 78.51518 33.7665 146.14557 111.83909 141.3041 64.12273-3.98107 108.51117-55.60524 101.29264-117.8069-1.83207-15.78088-1.83893-15.78771-5.26294-7.68217-7.85665 18.60793-40.40863 31.84856-62.26319 25.33408-36.47688-10.87795-54.09777-50.52476-38.0688-85.67152 5.96969-13.11091 4.3709-16.09501-8.65261-16.17012-7.43812-.041-24.61298-17.13977-22.7809-22.67093 2.29867-6.95151 50.63258-8.61085 71.68432-2.45829m-305.77174 43.09524-.0206 20.67016-37.59534 17.07832c-20.6812 9.39614-38.08251 17.86359-38.67948 18.8196-.59696.956 16.31716 9.47808 37.58847 18.92886l38.66576 17.19438.0343 20.56774.0343 20.57455-20.77041-8.884c-11.43162-4.88243-39.46858-17.28999-62.3181-27.56703-22.85638-10.27703-50.59828-22.5685-61.6525-27.30755-32.030489-13.7323-33.046023-12.12757 23.46021-37.31826 27.63897-12.32562 57.83739-25.85988 67.10071-30.07313 17.36013-7.89384 52.32056-23.0943 53.50764-23.26502.37054-.0478.65872 9.21177.645 20.58138m624.10042 21.87199c38.82359 17.67923 71.69122 32.14219 73.04298 32.14219 7.69197 0-.98124 5.43557-26.43134 16.573-15.80938 6.91737-54.07031 23.9069-85.03036 37.76212l-56.28666 25.19068-.78908-20.19215c-.92634-23.64741-4.93358-19.83024 41.66432-39.72193 19.5353-8.33771 35.50938-15.85599 35.50252-16.71639-.0137-.86041-14.787-8.1192-32.83331-16.13598-18.05317-8.01676-35.5231-15.82184-38.83045-17.33779-5.46878-2.51293-6.01086-4.63661-6.03144-23.40159l-.0206-20.62919 12.72848 5.16243c7.00581 2.84069 44.49823 19.6322 83.31493 37.3046m71.89707 134.71449c-.645 1.67984-21.77909 11.99101-46.96844 22.9236l-45.78824 19.87803-.10978 44.0103-.10979 44.01029-15.37022 8.35137c-9.70935 5.27167-14.91738 9.68977-14.14201 12.00466 18.47173 55.20918-44.43646 95.53202-78.21669 50.12871-24.55122-32.99576 5.6266-79.90821 47.14684-73.30495 9.11237 1.45449 11.63748.68286 18.20413-5.57896l7.61651-7.26563v-99.67017l15.4114-6.82175c8.48109-3.7489 37.12875-16.49107 63.663-28.31135l48.24471-21.49643.79597 19.05178c.43915 10.47506.26761 20.4175-.37739 22.0905m-797.07054-10.09949 63.93059 28.45475-.85085 60.77451c-.98808 71.04468-1.11845 71.42709-20.43419 60.74033l-12.57753-6.95833-.72734-43.7986-.7342-43.80544-26.0745-11.74519c-14.33414-6.45984-36.01715-16.24522-48.18298-21.7559l-22.108451-10.00388v-20.17849c0-11.1033.857713-20.1785 1.914416-20.1785 1.056705 0 30.685585 12.80361 65.845025 28.45474m618.41206 63.63567c0 21.12085-.43228 22.90311-6.03145 25.04729-5.59915 2.14418-106.69966 47.21972-207.05912 92.30893-23.59056 10.59798-44.09338 18.36892-45.56864 17.26268-1.47526-1.10624-21.97807-10.44774-45.56179-20.76576-65.20001-28.5162-147.06027-65.06966-176.23629-78.68587l-26.13627-12.19587V668.4477c0-24.87656-8.24091-26.16034 78.34021 12.18222 40.20965 17.80216 93.01739 40.98523 117.35591 51.52174 24.33164 10.5297 46.51557 20.41068 49.2877 21.96076 4.05527 2.26027 13.744-.96966 49.56215-16.5252 39.95578-17.35144 182.40498-80.98712 202.66076-90.5335 4.42581-2.08273 8.34385-3.86498 8.71438-3.96059.37054-.0956.67245 10.05852.67245 22.56851m-495.52556 82.56454c5.47566 3.585 12.21385 11.4857 15.41141 18.06163 22.21137 45.6628-31.80404 87.46745-69.37193 53.69322-41.5271-37.33874 7.34202-102.3128 53.96052-71.75485m-36.6896 29.26735c-5.07767 7.72314-3.15637 16.23156 4.61108 20.36969 13.79205 7.34075 28.16735-7.70265 19.6794-20.59504-5.72952-8.71328-18.48546-8.59037-24.29048.22535m536.64787-1.65935c-8.65261 9.51906-2.07223 24.46685 10.7729 24.46685 6.73134 0 14.27237-7.99628 14.27237-15.13215 0-12.2232-16.74258-18.4577-25.04527-9.3347m-400.92314 5.58579c15.87115 15.80136 4.26112 42.67872-18.50605 42.82894-11.17772.0751-24.58552-12.22318-24.58552-22.54119 0-24.86973 26.12941-37.16803 43.09157-20.28775m322.4114-.7648c10.22395 10.1746 9.83284 25.30677-.92632 36.00717-16.73573 16.66177-42.93375 3.91961-42.93375-20.88184 0-20.79306 28.33888-30.56478 43.86007-15.12533m-43.72284 42.48068c2.40161 2.88167-6.49805 8.31723-45.16382 27.5807l-48.16237 23.98884 1.20079 11.47886c2.73784 26.1945-17.33955 45.96327-44.88247 44.18101-25.18249-1.62521-40.03124-17.39243-40.03124-42.48751v-11.64959l-36.85427-18.19137c-58.6059-28.92592-60.54092-30.21652-55.66909-37.1339 2.23692-3.18211 4.08957-7.62071 4.11016-9.86048.12351-12.45536 3.85628-11.49936 55.40149 14.17617l50.85217 25.33408 12.64614-4.14496c11.29438-3.7011 13.73715-3.71476 22.89068-.13657l10.2514 4.00839 51.94318-26.11255 51.95005-26.11254 3.26618 10.74821c1.79089 5.91355 4.61107 12.36657 6.25102 14.33321m-144.87825 54.51949c-12.87258 12.81044 3.14953 30.32579 18.16982 19.85754 10.61507-7.40218 3.98666-25.19068-9.37996-25.19068-1.88698 0-5.83932 2.39685-8.78986 5.33314" transform="translate(.00048981)"/>
</svg>
