<svg xmlns="http://www.w3.org/2000/svg" xmlns:xlink="http://www.w3.org/1999/xlink" viewBox="0 0 1024 1024">
  <defs>
    <linearGradient id="b">
      <stop offset="0" stop-color="#fff"/>
    </linearGradient>
    <linearGradient id="a">
      <stop offset="0"/>
    </linearGradient>
    <linearGradient xlink:href="#a" id="c" x1="-1e-8" x2="1024" y1="512" y2="512" gradientTransform="matrix(.99902 0 0 .99907 .49952125 .49626156)" gradientUnits="userSpaceOnUse"/>
    <linearGradient xlink:href="#b" id="d" x1="-1e-8" x2="1024" y1="512" y2="512" gradientTransform="matrix(.99902 0 0 .99907 .49952125 .49626156)" gradientUnits="userSpaceOnUse"/>
  </defs>
  <path fill="url(#c)" fill-rule="evenodd" stroke="url(#d)" stroke-linecap="round" stroke-linejoin="round" d="M544.13991 6.0175589C623.24674 34.253844 631.69288 171.85022 556.93366 214.42038c-68.64117 39.09298-143.46536-17.01157-140.64998-105.44507 2.42014-75.838228 64.28276-125.654648 127.85623-102.9577511M495.07106 60.110666C445.8885 83.27711 459.83548 170.96823 512.71052 170.96823c46.48086 0 64.67798-75.501927 25.51169-105.876556-10.04333-7.791946-31.84088-10.304658-43.15115-4.981008M320.59858 116.67207c26.05853 17.16386 15.89067 61.75816-14.07149 61.72642-30.72558-.0381-38.50577-48.64889-10.15164-63.41425 9.00925-4.69546 15.18684-4.26399 24.22313 1.68783m410.212 1.60535c14.1419 12.09402 16.12349 36.11072 4.13645 50.15271-17.73692 20.79333-48.38126 7.03686-48.35961-21.71338.0217-28.55989 25.1706-44.7339 44.22316-28.43933m-446.1406 191.09303c-8.68439 10.78055-16.57287 19.74001-17.53659 19.91768-.96373.17133-18.63025-19.73367-39.26375-44.23896-45.78786-54.37865-54.6509-59.97514-68.18639-43.09048-13.39473 16.71333-12.25234 18.66767 62.12249 106.45398l50.21126 59.26445-16.90313 19.80982-16.8977 19.80982-56.57294-66.04752c-31.11539-36.32646-64.04995-74.22653-73.1837-84.21393-9.133747-9.99374-20.400692-23.47736-25.029829-29.96218l-8.424491-11.78945 48.89562-57.55761 48.89561-57.56394 63.82795 74.80395 63.82796 74.81029-15.78237 19.59408m616.21134-109.82329c26.55665 30.6665 47.96979 56.83425 47.58538 58.1477-.37899 1.31347-72.36073 86.46014-159.9516 189.22119L629.26192 633.74508l-14.52088-18.84534c-7.98594-10.36811-14.64541-19.74001-14.80241-20.82505-.1516-1.09138 59.81604-73.03364 133.26503-159.87449 73.44357-86.84084 134.96509-161.09276 136.70304-165.00777 7.22255-16.25648-8.58149-39.51177-23.95782-35.25411-4.26096 1.18021-46.08563 48.66793-142.19845 161.44175-74.88916 87.87512-136.82757 159.77295-137.63972 159.77295-2.5988 0-32.20903-37.01174-31.46187-39.32775 1.28858-4.01018 313.66605-371.91312 315.83714-371.97657 1.16405-.0381 23.83871 25.02559 50.39534 55.69846M385.8613 210.68938c12.95076 9.2577 16.72446 33.33152 7.49867 47.86843-9.17707 14.45445-27.77484 19.08012-38.67902 9.61939-25.21391-21.87836-15.68493-62.48785 14.66165-62.48785 5.82026 0 12.23067 1.94163 16.5187 5.00003m284.90584 2.47465c21.2778 23.42024 2.23606 66.73914-26.04228 59.26446-25.87444-6.84015-29.88636-52.04993-5.73363-64.53101 7.9318-4.09267 25.99356-1.10407 31.77591 5.26655M530.90763 359.92925l-1.23443 79.89917-8.26748 11.18664-8.26748 11.193-9.46402-12.39859-9.46401-12.39223-.0434-78.69358-.0434-78.69359h38.01308l-1.22903 79.89918M83.1968 344.37074c19.6048 14.01028 17.27129 50.50806-3.838666 60.07033-22.625927 10.2539-42.08455-4.48609-42.04665-31.84038.0379-25.78068 26.513321-42.06889 45.885316-28.22995m888.2639 0c26.70823 19.08647 9.49109 70.71129-21.18033 63.52212-6.41583-1.50382-9.22579 1.47844-85.0083 90.27363l-78.38132 91.83456-28.92264-.69164-28.92264-.69797 101.44581-119.63936C949.53863 328.57747 949.45742 328.64726 971.4607 344.37074M638.98582 713.69501c90.79607 104.66461 234.1315 272.61658 227.38 266.41728-2.89659-2.65865-6.94641-6.96072-8.98756-9.54958-2.32268-2.94418-3.71954-3.53428-3.71954-1.56092 0 2.4683-.78507 2.41754-3.5788-.23477-2.43098-2.31602-3.06985-2.41119-1.99243-.30457 1.12615 2.19545-.20032 3.09647-4.53709 3.09647-4.48837 0-6.77857 1.66245-8.54361 6.19928-1.37519 3.54065-4.18515 6.19295-6.55659 6.19295-2.28479 0-4.6508.94545-5.2626 2.10028-1.96535 3.73099-16.29673 1.17387-19.94048-3.55968-3.30807-4.29573-3.23227-4.28938 1.23984.0698 6.64324 6.47849 5.96646 3.54699-.87168-3.75638-3.09691-3.30586-4.86735-4.46703-3.93611-2.58885 1.16405 2.34773.77423 3.0457-1.24527 2.21448-1.61343-.66625-2.80455-3.02668-2.64754-5.25384.16242-2.22083-.36275-3.57237-1.15865-2.99495-2.56091 1.8528-114.07169-126.09247-397.78099-456.39991l-70.83935-82.46898 16.72444-19.71464 16.72447-19.71463 104.86215 120.67362c57.67743 66.37114 136.27532 156.87954 174.66739 201.13754m71.79766 230.40809c23.19982 27.36699 41.14247 49.76566 39.88096 49.76566-1.26692 0-2.902 1.82743-3.63292 4.06729-1.11532 3.40095-.80129 3.55325 1.88955.93274 2.20358-2.14468 3.22145-2.25255 3.22145-.34898 0 1.52919.71468 2.50639 1.58635 2.16379.87169-.3427 1.58637.387 1.58637 1.6243 0 1.2309-2.8587 2.4872-6.34544 2.7919-19.38823 1.7005-40.40615 12.316-36.41047 18.3947 3.14564 4.7844-300.34713-347.06503-370.67755-429.73708L290.095 532.8876l16.72987-19.72733 16.72986-19.72098 172.52337 200.4459c94.88921 110.24842 191.50554 222.84457 214.70538 250.21791M116.29929 577.38672c31.82464 14.34023 49.10676 48.52834 47.54206 94.06807C159.54248 796.90004 1.7457167 793.49266.5058657 667.92686-.19797985 596.35261 57.777238 551.02228 116.29929 577.38672m851.86967-2.44292c57.29294 20.95196 74.38024 110.55935 30.81761 161.61942-39.19337 45.93314-111.29965 31.38988-134.21251-27.06875-30.83386-78.6809 32.12784-160.62323 103.3949-134.55067m-35.999 52.18955c-27.44456 7.22087-35.20309 50.69207-12.96157 72.62119 26.2426 25.8822 67.11437-9.25136 54.85663-47.15778-6.08555-18.83265-24.51547-30.03199-41.89506-25.46341m-868.8919 5.08887c-30.346571 22.77939-14.991911 78.67455 20.871729 75.97783 46.058581-3.45182 43.930791-81.28879-2.21982-81.12381-8.305378.0254-13.882001 1.56726-18.651909 5.14598m750.19648 30.749v26.02815h-53.85502l22.13323-26.02815c15.11104-17.773 23.64922-26.02178 26.92482-26.02178 4.68327 0 4.79697.62817 4.79697 26.02178m-567.90048 1.40865c-20.70389 23.87711-21.99247 24.91772-29.83221 24.16899l-8.19169-.79315-.60639-24.16266-.60639-24.16899h60.87181l-21.63513 24.95581m153.40044 70.50187 15.78237 18.61692-96.84373 113.37027c-53.26486 62.34825-96.55678 111.7332-96.19944 109.74079.4223-2.39849-1.19653-3.69292-4.79156-3.82616-2.98865-.11422-8.98757-2.66501-13.34059-5.67265-4.34759-3.00763-10.1462-5.46324-12.88579-5.46324-4.41798 0-4.86194-.90103-3.91987-7.93155.9962-7.40488.81212-7.69041-2.82622-4.33379-3.63834 3.35029-3.69789 3.26145-.89333-1.37057 4.25555-7.03686 196.89808-231.74693 198.66852-231.74693.80671 0 8.57067 8.37571 17.24964 18.61691m457.16932 93.61756 77.56919 89.77236-10.36277 13.62956c-5.69574 7.50006-10.9421 16.71968-11.65135 20.4951-1.20737 6.41502-187.04965-204.08172-187.04965-211.85463 0-1.08503 12.1332-1.9353 26.96268-1.89088l26.96813.0825 77.56377 89.766M460.10618 809.673c8.24041 10.48232 14.98108 20.11438 14.98108 21.41516 0 4.14978-148.61968 177.52684-150.81786 175.93424-1.15864-.8439-1.51056-.3935-.77422 1.0024.73091 1.3896-.48187 4.4544-2.70169 6.8085-3.83866 4.0736-3.97943 4.0482-2.95616-.5393.81755-3.6612-.74715-5.8186-6.54034-9.042-4.19059-2.3287-7.10342-5.2093-6.47537-6.40224.62804-1.18656.23822-2.81729-.86086-3.61043-1.10449-.7995-2.69086-.14594-3.53547 1.4467-1.01788 1.9353-.6064 2.23352 1.23984.90103 1.94371-1.41499 2.25774-1.04697 1.0612 1.23097-1.33732 2.52537-2.32812 2.24617-4.53712-1.29443-1.55387-2.49366-3.43258-3.82616-4.16891-2.96321-.73634.86295-3.20521-.88833-5.48459-3.89598-3.10234-4.09268-3.8549-4.39724-3.00488-1.21194.62804 2.3414.0866 5.01909-1.20736 5.95818-1.37521.99619-1.7542.57741-.92041-1.00889.78506-1.49113-.25447-3.84522-2.31728-5.23482-3.23228-2.17642 2.99947-10.43157 45.4955-60.25433 27.0818-31.75788 64.19612-75.76842 82.47985-97.79906 18.28375-22.037 33.87664-40.16533 34.65629-40.27954.77422-.12056 8.14835 8.36301 16.38876 18.83899" transform="translate(.00047706 .00047298)"/>
</svg>
