<svg xmlns="http://www.w3.org/2000/svg" xmlns:xlink="http://www.w3.org/1999/xlink" viewBox="0 0 1024 1024">
  <defs>
    <linearGradient id="b">
      <stop offset="0" stop-color="#fff"/>
    </linearGradient>
    <linearGradient id="a">
      <stop offset="0"/>
    </linearGradient>
    <linearGradient xlink:href="#a" id="c" x1="0" x2="1024" y1="511.99991" y2="511.99991" gradientTransform="matrix(.99905 0 0 .99902 .50000149 .4998124)" gradientUnits="userSpaceOnUse"/>
    <linearGradient xlink:href="#b" id="d" x1="0" x2="1024" y1="511.99991" y2="511.99991" gradientTransform="matrix(.99905 0 0 .99902 .50000149 .4998124)" gradientUnits="userSpaceOnUse"/>
  </defs>
  <path fill="url(#c)" stroke="url(#d)" stroke-linecap="round" stroke-linejoin="round" stroke-width=".999995" d="M452.91204 155.19289c-10.53369 8.8799-4.46341 24.15332 9.28391 24.15332 12.49756 0 18.03222-14.91823 8.74831-23.9757-5.53467-5.50555-11.78343-5.68312-18.03222-.17747m105.15813 24.15332c-13.5688 8.16946-14.81857 25.21886-2.49951 36.22991 3.03512 2.84157 3.74927 5.50556 3.74927 15.27342 0 6.57111-1.24976 14.9182-2.67804 18.29255-3.92784 9.2351-3.39224 13.31983 2.49955 19.18053 6.60579 6.39355 13.03315 6.74875 19.10334.53282 4.10641-3.90715 4.46349-5.50552 3.57078-11.89907-2.49952-15.62856-3.21367-40.31464-1.24975-40.31464 3.21364 0 10.89069-12.96465 10.89069-18.64777 0-11.18867-11.24778-22.19973-22.67412-22.19973-2.67807 0-7.49856 1.5984-10.71221 3.55198m-161.04014 15.2734c-4.99904 6.39352-4.82046 14.03022.71414 19.35815 7.32003 7.4591 18.21075 5.32793 22.3171-4.43996 6.07027-14.56301-13.39023-27.17244-23.03124-14.91819m54.81077 16.51659c-4.99901 4.43992-5.89169 6.3935-5.89169 13.31982 0 11.36624 6.60582 17.93738 17.85368 17.93738 10.17659 0 16.78244-6.03832 18.21073-16.5166.89266-6.57111.35722-7.9919-5.3561-13.67503-8.21268-8.16949-16.42536-8.52469-24.81662-1.06557m211.74452 7.99187c-7.85557 7.81433-8.03413 14.74062-.89265 22.73253 13.39028 14.91819 35.88592 0 28.0303-18.64777-4.99905-11.89902-17.31808-13.8526-27.13765-4.08476m-48.02634 48.12897c-9.10535 8.87991-3.21365 23.97571 9.28392 23.97571 6.78439 0 13.03315-6.92634 13.03315-14.56303 0-6.39353-7.14142-13.8526-13.39021-13.8526-2.49952 0-6.60587 1.95359-8.92686 4.43992m-325.47246 8.52469c-8.03413 8.52468-2.14241 24.33091 8.74831 24.33091 6.42735 0 15.88978-8.34711 15.88978-13.85264 0-1.95359-2.14244-6.03832-4.64199-9.05747-5.89166-6.92634-14.28289-7.45909-19.9961-1.4208m-7.49853 46.88582c-9.81955 5.1503-14.81857 13.85263-13.92584 24.68609 1.07122 13.49737 8.92681 22.02209 22.85268 24.68605 13.21173 2.3088 28.56585-11.18868 28.56585-25.39646 0-19.35816-20.71025-32.678-37.49269-23.97568M79.056116 607.17919c-2.67804 5.15035-2.142423 8.70231 1.606846 10.83347 2.320989 1.06558 24.638058 1.77597 60.523948 1.77597 52.84687 0 57.13176-.17746 59.8098-3.19674 1.78536-1.77597 3.03512-4.43996 3.03512-5.86073 0-6.57115-2.8566-6.92632-63.73759-6.92632-56.774711 0-59.452753.17746-61.238124 3.37435m771.635734-1.24321c-2.8566 2.8416-2.67804 9.41272.35723 11.89907 1.6068 1.42077 15.53266 1.95358 46.59806 1.59841 42.31322-.53283 44.27712-.71039 46.59807-4.08476 2.14249-3.19677 1.96395-4.26235-.35723-7.6367-2.67802-3.90716-3.39219-3.90716-46.95518-3.90716-31.95802 0-44.63414.53284-46.241 2.13114m-717.18199 60.20565c-.35722.53277 10.17657 11.18866 23.56685 23.44289l24.45953 22.55492h54.09662l31.95806 28.77078c17.49661 15.80626 37.84978 34.09875 45.1698 40.84752l13.0332 12.0766h61.05953c57.13176 0 61.4166-.17745 64.09469-3.19674 3.92781-4.26231 3.74928-7.99189-.17862-11.54385-2.85653-2.66396-9.10531-3.01915-51.7756-3.01915h-48.56202l-6.78438-4.97273c-7.67706-5.50556-46.41953-36.22996-61.59516-48.66175l-10.3551-8.52472h8.74829c8.56975 0 9.46242.53278 33.56489 20.06851 13.74735 11.18869 26.60198 21.13415 28.74442 22.19973 5.53467 3.01918 114.97768 3.01918 118.01277 0 3.39218-3.37432 2.49946-7.99189-1.78538-11.01104-3.3922-2.48639-11.2478-2.84157-49.81173-2.84157h-45.70543l-29.99414-24.86367-29.81562-24.86369H236.3469l-16.06831-13.85262-15.88974-13.675h-35.17176c-19.28195 0-35.35027.53274-35.70732 1.06558m701.6493-.71039-16.0683.71039-15.71121 12.25426-15.88976 12.43181h-31.77957l-11.06925 9.41267c-26.2449 22.02214-27.31611 22.55491-41.77763 22.55491h-13.03313l-13.0332 10.47825c-7.1415 5.86076-16.24685 13.85264-20.17468 17.75977l-6.96291 7.2815h31.95806l11.42637-7.99189c10.35517-7.10389 12.67609-7.99188 21.4244-7.99188h9.99806l-6.96293 5.68312c-3.92779 3.19676-16.24685 10.83346-27.49465 16.87179l-20.53171 11.18866h-64.09469c-61.59516 0-64.09468.17748-67.48693 3.55191-4.28484 4.26239-4.28484 5.15039-.71414 10.30068l2.67809 3.90715h182.64307l41.24197-40.84746 41.42051-40.84744h39.09956l8.03414-6.57112c10.71222-8.87991 40.88491-38.36114 40.88491-39.95953 0-1.42073-23.03125-1.42073-58.02445-.17745M94.231685 679.10638c-3.213692 2.30877-3.392216 3.01915-1.07123 9.41269 3.570742 10.12304 21.960005 42.9786 36.600035 65.17832 38.20684 58.07447 92.83909 109.04496 153.89864 143.85414l14.46146 8.16947h37.31419c20.53174 0 64.63029.53283 97.83812 1.24319 55.52495 1.06558 60.88106 1.42078 63.91618 4.43993 4.28487 4.26237 4.10635 12.43187-.53563 16.69425-3.39215 3.01912-7.32002 3.37432-34.81467 3.9071-30.88682.5328-31.0654.5328-34.63609 5.15037-4.82053 6.0383-4.46341 8.70227 1.60681 14.91814l5.17753 5.1504h154.07721l4.2849-4.43996c8.39122-8.1695 3.39218-18.82538-9.99803-21.13415-3.7493-.71038-7.67714-2.30877-8.92686-3.90715-3.21369-3.90713-2.67807-12.6094 1.07118-16.69416 3.03515-3.37438 5.35616-3.55193 34.8147-3.55193 29.27999 0 31.95808-.35531 36.42149-3.72955 3.39221-2.66398 4.64193-5.32795 4.64193-9.41271 0-12.07665 3.92786-11.54383-101.23028-12.07665-90.33963-.53281-94.98153-.71039-98.55228-3.90713-4.64196-4.26232-4.82048-8.34711-.35723-13.67503 3.39219-4.08477 4.28491-4.26237 35.35024-4.79515 34.27906-.71039 38.02839-1.77594 38.02839-10.30064 0-9.41268-.71421-9.59032-65.34446-9.59032h-59.63107l-13.03314-11.18863-13.03321-11.36624-27.49465-1.24319c-18.03222-.88801-28.92297-2.13116-31.24396-3.55199-3.92778-2.66394-45.70538-40.66986-71.95028-65.35594l-16.60391-15.62859h-57.13178l-27.67318-26.28443c-15.35416-14.38545-29.28002-26.63966-30.88685-27.35007-4.8205-1.95352-11.783433-1.59836-15.354139 1.06561M231.34796 804.84555c-2.85661 3.19673-3.03513 3.19673-6.60588-.17748-3.39218-3.55194-3.39218-3.72954-.17859-7.28148l3.57074-3.90715 3.21365 4.08471c3.03512 3.72957 3.03512 4.08476 0 7.28153m127.65377 42.97866c-.35722 2.30877-1.7854 3.72955-4.10638 3.72955-4.10631 0-5.89168-6.03835-2.49949-7.99189 3.57074-2.30877 7.14149.17745 6.60587 4.26234m59.27416 28.59321c-5.17753 5.50553-5.71316 5.50553-11.96195.17745l-4.99902-4.26232 5.35612-5.50554 5.17755-5.50556 5.35607 5.15037 5.35613 5.32792zm495.43942-197.66623c-1.96389 1.0656-14.81852 13.49742-28.56585 27.52765l-24.99517 25.57407-21.24587-.17745h-21.24586l-39.99221 40.66986c-22.13856 22.55492-42.13466 41.3803-44.81272 42.26824-2.67807 1.06561-29.63712 1.9536-60.16688 2.13119l-55.34641.53278-6.24876 4.61755c-8.3912 6.39353-10.53366 9.2351-10.7122 14.91822 0 3.01915 1.60681 6.03832 4.64192 8.34708 4.64199 3.55198 6.7844 3.72957 69.27227 3.72957 55.52493 0 65.1659.3553 68.5581 2.84154 4.82053 3.37438 4.99905 8.5247.35723 13.14227-3.0351 3.01915-5.89171 3.5519-19.282 3.5519-11.2478 0-16.78244.71044-19.63897 2.84157-4.82052 3.37438-4.99907 8.52472-.35721 13.14221 3.39219 3.3744 5.17758 3.55199 29.10147 2.48641 30.35126-1.24319 33.92195-2.66397 63.20203-24.5085 45.7054-33.92113 85.162-80.98454 119.08397-141.72296 15.53271-28.06045 18.74634-35.8747 16.06831-40.13707-2.32098-3.55194-12.67613-4.79513-17.67516-1.77598m-74.80687 79.74136c1.4283 2.48639-3.74926 7.63673-6.24881 6.21595-1.0712-.71041-1.96386-2.84157-1.96386-4.79517 0-3.72952 6.07026-4.79513 8.21267-1.42078m-31.42242 36.22993 4.28486 4.61751-4.8205 4.79518-4.8205 4.79512-4.82049-4.79512-4.82047-4.79518 4.28484-4.61751c2.32101-2.48636 4.64199-4.43993 5.35612-4.43993.71415 0 3.03513 1.95357 5.35614 4.43993m-209.24505-71.39427c-24.28101 20.24613-19.8176 18.64774-54.63223 19.35815-28.20885.5328-31.244.88798-33.56493 3.90716-2.14249 3.01915-2.14249 4.08473 0 7.10388 2.32093 3.55196 4.1063 3.72957 53.02541 4.08477l50.70439.53277 23.2098-17.93735c12.85465-9.76788 25.17368-19.71335 27.67319-22.19969l4.46341-4.26239h-59.63124ZM551.99991 1.9261241C643.58924 8.3196343 734.28594 40.819991 811.05672 94.632111c38.92099 27.172429 87.48297 75.656619 116.40591 115.793679 31.60103 44.22182 58.56007 98.92195 73.55697 149.18205 12.8547 43.51145 24.4597 118.81288 19.6393 126.62716-3.7494 5.68312-10.1767 7.45913-29.2801 7.45913-26.42342 0-26.24492.17746-28.56587-29.30361-8.03417-98.03396-57.13179-199.79745-132.47427-274.56608-68.5581-68.0199-151.22056-108.86735-254.05777-125.383948-30.35122-4.795126-98.90935-4.262355-131.22447.888001-97.83813 15.983794-182.64307 58.074437-249.23727 123.785577C117.7986 266.36909 68.165394 368.84294 60.131236 469.54086c-1.78537 23.08767-3.213652 24.15327-30.172725 24.15327-25.530751 0-27.6731749-1.42079-27.6731749-17.58218 0-45.2874 18.2107369-120.05605 42.3132039-173.33535 41.956117-93.06119 117.12008-178.3081 201.92502-228.745826C339.36267 18.442689 442.91395-5.8881956 551.99991 1.9261241M517.36384 90.547341c0 3.196771-1.07126 4.617544-3.74935 4.972738-4.64193.710383-7.14145-4.262355-4.10633-7.991897 3.21367-3.729545 7.85568-1.953582 7.85568 3.019159M555.39211 118.075c77.84202 11.54387 146.04306 55.58808 193.17674 124.3184 21.60296 31.61238 39.27809 79.91893 39.27809 107.269 0 3.55193.89268 7.45908 2.14244 8.7023 3.39218 3.37432 10.35513 2.48633 16.06827-2.3088 6.78445-5.68315 17.3181-5.86073 25.88784-.71038 7.49856 4.61749 11.2478 11.72145 11.2478 21.13412 0 13.14223 10.53371 18.64777 25.17372 13.31984 6.9629-2.48635 9.81949-2.66397 14.46147-1.06558 8.56979 3.01916 17.13951 10.30068 21.06734 17.93737 4.64193 8.87984 4.46341 11.54383-.35718 14.91818-3.39222 2.48635-13.74734 2.84157-76.41373 2.84157-62.6664 0-73.02151-.35533-76.41372-2.84157-3.57075-2.48635-3.92781-4.26232-3.92781-17.75977V388.7339l6.2488-3.55199c18.56779-11.01104 18.56779-37.82828 0-48.66174-17.13951-10.12308-36.77859-1.77599-42.13467 17.75974-2.49955 9.0575.89267 19.71337 9.28388 28.06048 6.96292 7.10389 6.96292 7.28148 6.96292 21.13409 0 18.82541-2.14244 20.95654-20.35318 20.95654-19.63902 0-18.92488 1.77597-18.92488-43.33382v-37.82833l5.35613-6.7487c12.67606-15.8062.53561-36.76274-19.63907-34.09877-19.28195 2.48636-25.17368 24.68607-9.99809 38.36109l4.642 4.26237v37.82828c0 35.69715-.17858 38.00592-3.3922 39.78192-4.8205 2.48634-23.92393 2.30877-26.60197-.35528-1.42833-1.42083-2.14245-8.16955-2.14245-18.29259 0-11.72147-.71414-17.22698-2.85658-20.06857-3.39221-4.7951-8.56977-4.97271-13.21174-.35531-3.03507 3.01916-3.57071 5.86074-3.57071 18.29258 0 20.42376-1.78538 22.55492-17.8537 22.55492-15.35415 0-17.85368-2.66396-17.85368-18.64777 0-9.41266.53563-11.54387 4.64199-15.27341 6.78441-6.21595 9.64097-12.78701 9.64097-22.1997 0-7.2815-.89269-9.0575-6.96293-15.09584-6.42732-6.39347-7.67706-6.92631-17.13954-6.92631-9.10534 0-10.7122.53284-16.0683 5.86074-10.71222 10.65584-10.53366 24.33088.53562 34.80912 6.42734 6.03839 6.60582 6.39358 6.60582 19.35821 0 16.51658-1.78534 18.11496-19.81753 18.11496-19.10342 0-18.56779 1.42075-18.56779-50.26015v-42.26827l8.74828-9.23506c4.99903-5.15036 9.81951-11.72145 10.89072-14.56302 2.14244-5.68315 1.07122-14.91823-2.67804-22.19973-3.0351-5.68314-14.10442-13.4974-21.78147-15.0958-13.92589-2.84158-28.92299 7.10391-32.49371 21.48931-3.03512 11.72148-.17856 19.89095 10.17662 29.30361l8.3912 7.81433v44.57702c0 35.16434-.53563 45.10983-2.49951 47.4186-1.78536 2.30878-5.53462 3.01916-14.99711 3.01916-17.13948 0-19.10337-1.95358-19.10337-18.82538 0-12.07665.35718-13.31984 6.24876-20.24612 7.49854-8.87991 9.28391-16.69416 5.5346-25.39652-3.92776-9.41264-12.14047-14.0302-23.9239-13.14217-10.71222.71035-16.96098 5.3279-20.17463 14.91816-2.8566 8.87989-.71414 16.69422 6.42731 23.62053 5.89167 5.68309 6.24878 6.57107 6.24878 18.64774 0 17.93735-2.14244 20.42376-17.85367 20.42376-10.35511 0-12.67608-.5328-14.28295-3.37435-.89267-1.95358-2.32095-19.35815-2.85656-38.89392l-1.24976-35.51953 5.53463-8.5247c8.03416-11.72143 7.8556-20.24615-.35719-28.41565-5.17755-5.15031-7.32001-6.03831-14.64001-6.03831-9.28388 0-14.81852 3.19677-18.3893 10.12311-4.28488 8.34705-1.4283 20.60131 6.78442 27.88281 3.57075 3.19671 3.74926 4.97274 3.74926 40.31469 0 43.15623.35722 42.44585-16.06831 42.44585-17.1395 0-16.06831 5.15028-16.06831-77.7878v-72.28225l7.85564-7.63673c11.78343-11.36623 13.03317-24.50848 3.39216-35.87472-8.9268-10.65588-20.88875-13.49742-32.67218-7.45908-17.85371 8.87988-19.28196 31.96757-2.8566 46.17536l4.64198 3.90717v72.63746c0 63.75756-.3572 73.17022-2.85664 75.47902-2.49949 2.48635-14.99708 2.84157-111.4069 2.84157-96.40984 0-108.9074-.35533-111.40692-2.84157-1.60681-1.42078-2.85656-3.72955-2.85656-4.97274 0-4.08478 10.17658-18.29254 16.24685-22.55489 6.42729-4.43998 16.60387-5.32795 32.85072-2.4864 6.24879 1.0656 7.85563.53279 11.78346-3.37435 3.03508-2.84155 4.99898-7.45909 5.71317-12.07663 1.0712-8.52471 5.35607-14.91822 13.74732-20.60134 8.92683-6.03834 17.13951-5.15035 24.281 2.30875 4.10632 4.43995 7.31999 6.21594 11.2478 6.21594 7.14145 0 8.39121-2.84157 9.64098-21.31173 4.10635-62.15922 52.66834-139.2366 112.65666-179.19609 36.95714-24.50845 72.12884-38.53867 113.54939-45.46499 19.10339-3.19678 67.1298-3.19678 88.91129 0m126.22546 6.21592c1.24975 4.08475-1.7854 8.87986-5.3561 8.87986-3.57074 0-6.60588-4.79511-5.3561-8.87986.71412-2.30876 2.67804-3.55196 5.3561-3.55196 2.67803 0 4.64195 1.2432 5.3561 3.55196M326.5078 140.45207c3.74929 4.08474 1.78538 9.23509-3.92783 10.12305-5.17756.71042-8.21266-5.32794-4.99898-10.12305 3.39217-4.61754 4.64195-4.61754 8.92681 0m389.9242 2.48635c1.07126 1.4208 1.60683 4.08478.89271 6.21593-1.42829 4.61753-7.67705 4.26234-10.53369-.53276-1.60683-2.66398-1.24977-3.72959 1.42831-5.86076 4.4634-3.19675 5.53463-3.19675 8.21267.17748m-431.3447 22.55492c4.82046 6.92631-3.21368 14.20784-9.28395 8.16951-2.85658-2.84159-2.67804-5.86074.71417-9.23509 3.74928-3.72954 5.3561-3.55197 8.56978 1.06558m470.6228 3.01915c1.24978 2.66397 1.0712 4.08474-1.0712 6.21593-2.14249 2.13116-3.57076 2.30878-6.24879 1.06559-3.92787-2.13116-4.10635-2.66398-1.60686-7.28152 2.49952-4.26235 6.42733-4.26235 8.92685 0m-512.4002 37.29587c0 4.43993.71414 5.32794 4.99904 5.86075 3.39219.35531 4.8205 1.59839 4.8205 4.08472 0 2.48636-1.42831 3.72955-4.8205 4.08475-4.46341.53281-4.99904 1.42081-4.99904 6.74874 0 4.79513-.71412 6.03831-3.57069 6.03831-2.8566 0-3.57075-1.24318-3.57075-6.03831 0-5.32793-.53562-6.21593-4.8205-6.74874-3.57075-.35531-4.99902-1.59839-4.99902-4.08475 0-2.48633 1.42827-3.72953 4.99902-4.08472 3.74928-.53281 4.8205-1.59839 4.8205-4.79517 0-3.72956 1.78536-5.68312 5.89169-6.03832.71415-.17745 1.24975 2.13119 1.24975 4.97274m546.32242 0c0 4.43993.71414 5.32794 4.82046 5.86075 6.96294.71039 7.6771 6.39349 1.0712 7.10388-4.28488.35531-5.17752 1.5984-5.89166 6.74871-.53563 4.08477-1.96392 6.39352-3.92782 6.74874-2.67809.53278-3.21365-.71042-3.21365-5.68312 0-5.50554-.5356-6.39355-4.2849-6.39355-2.32098 0-5.17759-1.24316-6.42734-2.66397-2.32095-2.84155-1.24977-3.55193 6.24879-4.79512 2.49952-.35529 3.74927-2.13116 4.10635-6.39351.35723-4.26235 1.42829-5.68313 4.10635-5.68313 2.49952 0 3.39222 1.24315 3.39222 5.15032m-590.42099 53.63451c10.35513 5.32797 13.5688 19.89095 6.42735 28.94844-10.71223 13.675-33.74347 5.8607-33.74347-11.72146 0-5.68315 1.24975-8.34713 6.07026-13.14224 6.4273-6.39352 13.74733-7.81429 21.24586-4.08474m647.55271 2.84154c3.92781 3.55198 5.89171 7.10394 6.60585 12.43186.89271 6.92629.35721 8.16948-5.35608 13.85262-5.17758 5.15035-7.49855 6.21593-14.1044 6.21593-9.1054 0-14.28294-3.19677-17.49656-10.4783-7.6771-18.82533 15.35412-35.34189 30.35119-22.02211m-685.58103 67.13194c0 1.2432-1.60683 3.55194-3.57074 5.32794-3.21365 3.01915-3.74926 3.01915-8.0341.17747-5.53467-3.55193-5.53467-5.8607-.53561-11.18862l3.92778-4.08475 4.10636 3.90714c2.32095 2.13118 4.10631 4.79514 4.10631 5.86072m716.28937-4.97273c4.46342 3.90715 4.10635 6.7487-1.42829 10.30069-4.64198 3.01913-4.8205 2.84151-9.46246-1.77603l-4.64198-4.61751 4.28491-3.55198c4.99903-4.08474 6.96293-4.26233 11.24782-.35527M284.19483 453.55682c12.85462 6.7487 11.42633 27.17246-2.32099 30.90198-12.85464 3.55192-23.38833-3.37433-23.38833-15.62859 0-13.49743 13.56882-21.48929 25.70932-15.27339m56.06054 3.01913c2.8566 3.55199 3.03512 9.59029 2.49952 89.33168-.35723 79.03094-.71416 85.95728-3.7493 93.41639-5.53461 12.96459-.35718 24.15327 11.60492 25.92924 4.99901.888 7.31998.17745 11.96191-3.72954 7.49857-6.21592 8.74834-13.67504 4.10635-25.39649-3.57069-9.05748-3.74925-12.60943-3.74925-91.81801 0-45.2874.5356-83.64851 1.07122-85.24684 2.67803-6.57114 16.0683-9.94552 24.4595-6.03839 7.85565 3.55196 8.39128 7.28153 8.39128 67.66478 0 45.64256-.53563 58.96238-2.85661 67.48708-1.42827 5.86074-2.1424 12.96464-1.60681 15.80618 2.32093 10.65586 15.71122 14.03026 22.31709 5.68318 3.21364-4.08479 3.5707-6.39356 2.67804-12.96465-.71415-4.43995-1.60684-23.79811-1.9639-43.33382-1.07122-39.6043-.89268-40.1371 11.96196-44.04426 8.56976-2.48638 16.60392.3553 19.4605 7.28151 1.42824 3.37434 1.78535 25.21888 1.42824 73.17026l-.53555 68.19748-7.85562 14.74059c-11.96197 22.37737-11.06928 34.27638 3.92779 45.46506 9.81954 7.2815 28.38736 2.84154 35.17176-8.34711 5.53463-8.87989 4.64191-18.47016-3.57074-35.16435l-7.14145-14.74062V460.48315l4.46342-4.08476c2.85655-2.66396 7.31993-4.26235 13.03314-4.97275 7.32005-.53279 9.46243 0 13.92586 3.72953l5.17759 4.43996v114.9057l-5.17759 7.6367c-13.03316 19.18055-4.82049 41.20269 15.71125 41.20269 11.78343 0 22.4956-14.20781 19.63906-25.92928-.71418-2.84156-3.57075-9.76788-6.24879-15.27341l-5.17756-10.12305V461.90392l4.10632-4.79517c3.39221-3.90715 6.07025-4.97271 13.92587-5.68311 8.56974-.71037 10.53363-.17746 15.17561 3.72953l5.17755 4.43996v77.07739c0 67.13193-.35718 77.6102-2.85651 82.22774-1.60689 2.84157-6.07033 11.36623-10.17665 18.64777-9.64098 17.58216-10.89072 25.75162-5.71319 36.40751 7.67713 15.80621 22.6742 22.02211 38.38541 15.98377 11.78343-4.4399 17.49662-12.78698 18.38929-26.46202.53562-10.1231 0-11.89904-8.92683-29.4812l-9.46246-18.64776-.5356-75.30143c-.35722-52.39134.17859-76.89981 1.42827-80.27416 3.74929-9.05747 20.53174-11.89904 29.28002-4.97273l4.82049 3.72954-.71411 67.66473c-.53563 37.29548-1.42829 70.68389-2.14247 74.23582-2.49951 12.78704 7.49859 22.5549 18.03219 17.75977 6.60588-3.01915 8.56977-9.94547 6.2488-21.66692-2.49949-12.43182-2.67804-133.73106-.17863-138.17101 4.64201-8.70225 21.96004-9.05744 28.56591-.71041 3.57075 4.61756 3.74929 6.03831 2.8566 73.17029-.35719 37.6507-1.24974 72.63747-1.96392 77.43258-1.0712 7.6367-.53557 9.59028 2.67807 13.8526 6.78439 8.52466 18.21076 5.68315 21.60295-5.50551 1.60682-5.50551 1.42828-8.34709-.89269-15.09581-2.32101-6.74869-2.85661-16.16139-2.85661-45.82017 0-36.76276 0-37.29553 4.10636-41.38029 9.10538-9.0575 29.45853-6.7487 33.56491 3.72956 1.0712 3.01915 1.60678 20.60132 1.24975 47.77381l-.5356 42.80098-7.14149 11.36627c-5.89169 9.41269-7.14147 12.96462-7.14147 20.60134 0 10.83341 4.10632 17.58219 13.92587 22.37731 8.92685 4.43991 17.49664 2.48638 26.42347-5.86073 9.46243-8.87988 9.64094-17.04935.35716-35.51954l-6.78436-13.31982-.53565-44.04423c-.5356-50.08254-.3572-51.14809 12.31908-54.52252 5.35607-1.42075 8.74828-1.42075 13.39022 0 11.24782 3.72959 11.60488 5.68315 10.71216 48.12902-.35716 20.95651-1.24975 42.44583-1.96385 47.77375-.8927 8.16952-.53567 10.65587 2.14243 13.675 5.35607 6.39354 11.60486 6.74876 18.21075 1.24322 5.53465-4.61754 5.71314-5.32792 4.64194-13.85264-.53559-4.97268-1.4283-14.74059-1.9639-21.66693-1.60681-20.06851-10.35511-18.47013 107.83618-18.47013 67.48687 0 101.76596.53281 104.08686 1.95358 5.8918 3.01919 6.7844 8.5247 4.1064 26.46204-6.963 47.06342-25.17369 103.71705-47.1337 147.4061-24.99515 49.37218-53.91808 89.15405-95.51717 130.71187-30.88679 30.72445-46.59807 43.68907-83.91223 68.55273-128.72502 85.77964-296.54948 105.49304-449.734 52.92412-63.38055-21.84453-121.22646-56.29847-175.68018-105.31546C82.091285 813.01455 26.20928 712.67182 5.8561184 600.4301c-3.5707445-20.77895-3.3922187-25.39646 1.4282826-30.902 2.4995136-2.84152 9.283913-3.01916 93.553229-3.01916 97.12399 0 98.5523-.17745 103.19424-8.70227.89267-1.95358 1.78536-11.18868 1.78536-20.60134 0-16.51656.17861-17.40458 5.17756-22.37731 4.10637-3.90715 6.96294-5.15037 12.31906-5.15037 17.6751 0 18.21071 1.9536 18.21071 56.29849-.17859 33.7436-.71413 45.64259-2.67804 51.14815-4.10634 11.01104-3.39217 19.89096 1.78537 24.86369 5.89171 5.8607 12.49759 5.6831 18.92489-.71042 5.89175-5.86072 6.24879-9.05748 2.49951-19.71334-2.1424-6.03833-2.67802-17.40458-2.67802-54.87764 0-51.85856.17859-52.74656 10.53367-57.00893 6.78436-2.66397 17.13953.35532 20.17463 5.86072 1.42831 2.48641 2.32097 16.33903 2.8566 37.29557.71415 27.88281.3572 35.51956-2.321 44.93223-3.39218 12.43182-2.67804 18.47012 2.67809 23.79805 4.82047 4.79518 11.78338 4.43996 17.13947-.88797 4.2849-4.26234 4.46345-5.50553 3.39222-13.85264-.71415-5.15029-1.60681-39.78186-1.96391-77.255l-.71416-68.01991 5.35613-5.50551c4.82047-4.79517 6.42733-5.32792 13.0332-4.43995 4.64193.71036 8.56974 2.48635 10.71221 4.97271m104.44396.88802c6.07022 6.92631 5.35611 17.22695-1.42831 24.15325-4.99904 4.7952-6.42731 5.32795-13.03316 4.43998-13.92586-1.95357-20.53174-17.4046-11.96197-28.41567 6.24879-7.81426 19.46053-7.99184 26.42344-.17746m276.55337-.17747c2.32102 2.4864 4.10639 6.92633 4.10639 9.94549 0 15.98381-15.88979 24.33091-29.81565 15.80622-6.42733-3.90715-9.10537-12.43187-6.42733-20.77895 3.74929-11.36627 23.92395-14.56306 32.13659-4.97276m51.77564-2.66391c10.7122 6.3935 9.81954 23.08767-1.42826 28.94842-12.6761 6.5711-26.602-.5328-26.602-13.85264 0-15.62861 14.28299-23.44292 28.03026-15.09578m-628.98485 7.63667c1.78534 1.24319 2.85657 3.90715 2.49953 5.86073-.53562 3.19677-2.32099 3.37437-25.53077 3.37437-24.638078 0-24.995166 0-25.530743-4.08476-.892708-5.68312 4.463407-7.2815 26.601933-7.2815 12.85467-.17745 19.81758.53275 21.96005 2.13116m780.20548 0c1.78538 1.24319 3.03513 3.90715 2.49952 5.86073-.53557 3.01915-2.32095 3.37437-15.35414 3.90712-12.49756.35533-14.81854 0-15.88978-2.48633-.71413-1.9536.3572-4.26237 2.85659-6.39353 4.99904-3.90714 21.06732-4.43993 25.88781-.88799m-740.9274 5.15034c3.9278 6.2159-4.8205 13.14223-10.53365 8.52466-3.57077-3.01915-3.39224-8.34708.53559-10.47824 4.10633-2.48638 7.49854-1.77598 9.99806 1.95358m43.56298-1.77599c3.39216 3.37435 2.4995 9.94546-1.60685 12.07665-7.32002 3.90715-14.64-8.16948-7.32002-12.25424 4.10636-2.48638 6.42734-2.30877 8.92687.17748m637.91171-.35533c7.67709 4.26238 1.60682 14.56306-6.42735 11.01108-5.17756-2.3088-5.71316-6.03834-1.60681-9.9455 3.21369-3.37432 3.57075-3.37432 8.03416-1.06558m-41.77759 2.84161c2.49952 6.74866-7.32 12.60945-11.78343 7.10389-1.24976-1.42081-1.78538-4.26235-1.0712-6.39351 1.42825-4.43993 11.06927-4.97273 12.85463-.71038m-642.19666 48.30674c3.03513 2.30879 4.10632 5.32792 4.2849 10.83345.17859 6.21592-.71419 8.34708-4.8205 11.89904l-4.99903 4.26237h-60.52395c-60.166885 0-60.523973 0-64.987385-4.08478-2.67804-2.13116-5.177555-6.3935-5.713171-9.59024-.892666-4.79516-.1786-6.57109 4.284889-11.18866l5.356079-5.32795h61.595178c56.77471 0 61.95226.17747 65.52299 3.19677m793.06015 2.13118c4.64193 4.79517 5.35613 6.3935 4.46341 12.07662-2.14243 13.14224.5356 12.78706-86.41177 12.78706-81.59131 0-85.69763-.35529-88.73276-7.99191-2.32097-6.03831-1.07121-15.09583 2.49953-18.64777 3.39218-3.37432 5.89167-3.55195 83.1981-3.55195h79.62737zm-955.171509 1.24319c4.10636 3.55198 4.284884 14.20778.178601 18.64777-6.248784 6.9263-18.38930049 1.06558-18.38930049-8.87991 0-10.83344 10.53366849-16.69417 18.21073649-9.76786m1000.876862.53275c5.5346 5.15036 5.1776 12.96464-.7141 17.58218-6.0703 4.79518-8.9269 4.61754-14.1045-.71038-5.35608-5.1503-5.71307-12.0766-.8927-16.8718 4.642-4.61749 10.7123-4.43993 15.7113 0M482.01352 809.46282c-3.57073 3.90715-3.92782 8.16947-.71414 10.65586 1.24979 1.06558 17.31806 2.13116 39.81365 2.48636 40.5279.53279 43.563 0 43.563-8.52468 0-2.30879-1.60684-4.97273-3.39221-6.03834-2.14238-1.06558-18.21072-1.77596-39.99223-1.77596-33.02929 0-36.60004.35529-39.27807 3.19676"/>
</svg>
