<svg xmlns="http://www.w3.org/2000/svg" xmlns:xlink="http://www.w3.org/1999/xlink" viewBox="0 0 1024 1024">
  <defs>
    <linearGradient id="b">
      <stop offset="0" stop-color="#fff"/>
    </linearGradient>
    <linearGradient id="a">
      <stop offset="0"/>
    </linearGradient>
    <linearGradient xlink:href="#a" id="c" x1="0" x2="1024" y1="512" y2="512" gradientTransform="translate(.49950983 .50556203) scale(.99902)" gradientUnits="userSpaceOnUse"/>
    <linearGradient xlink:href="#b" id="d" x1="0" x2="1024" y1="512" y2="512" gradientTransform="translate(.49950983 .50556203) scale(.99902)" gradientUnits="userSpaceOnUse"/>
  </defs>
  <path fill="url(#c)" stroke="url(#d)" stroke-linecap="round" stroke-linejoin="round" d="M491.95828 2.0386008c-9.56061 1.9346298-14.82435 3.7554598-11.17195 3.8692596 1.28907.1138002 2.68557.5690101 3.00784 1.2518201.32226.56901 1.82618 1.13801 3.33009 1.13801 1.9336 0 2.57813.5690101 2.57813 2.5036405 0 2.16224-.21484 2.27604-1.82618.79661-2.25586-1.9346205-11.17197-1.251811-11.8165.79662-.21484.79661.64453 1.138009 2.3633.79661 3.86724-.79661 3.33012 1.47942-.64454 2.958839-4.18946 1.47943-6.33791 1.59323-4.18946.113811.85938-.56901 1.18163-1.36562.85938-1.70703-1.18166-1.25182-3.00783.569009-3.00783 2.958849 0 1.138011-.75198 2.162231-1.61136 2.162231-.85938 0-1.61133.79661-1.61133 1.820829 0 .910409-.4297 1.479421-.96681 1.024211-.53711-.341401-1.28908-.113802-1.71876.45521-.32226.56901 0 1.479419.75196 2.048429 4.08207 2.73124 4.08207 4.438271 0 4.210661-6.01566-.2276-6.2305-.3414-4.51174-1.707021 1.39649-1.02422 1.39649-1.13802 0-.682809-.96682.2276-1.50392 1.707019-1.39651 3.755448 0 1.820831-.10741 2.617441-.42969 1.820831-.21485-.682809-1.3965-1.365619-2.47073-1.365619s-2.14845-.455212-2.3633-1.024211c-.85938-2.61744-4.61916-1.82083-4.40432 1.024211.10742 1.593229-.10743 2.162229-.32227 1.365619-.75196-1.820831-2.57815-1.707021-2.57815.22761 0 .910409-.75195 1.82082-1.61134 2.27603-2.36327.91041-1.9336 2.95885.64454 2.95885 1.61134 0 2.04103-.569009 1.61134-1.707031-.32226-.910409-.21485-1.707029.21485-1.707029.42969 0 1.82619-.341399 3.22268-.68281 1.71876-.56901 2.36329-.227601 2.36329 1.251821 0 1.251818-.5371 1.707029-1.61133 1.251818-1.3965-.569009-1.50392-.2276-.42969 1.707031.85938 1.93463.85938 2.27603-.10743 1.593221-.9668-.682812-.9668-.341401-.10741 1.365618.85938 1.934631.64453 2.731241-1.8262 5.007281-1.61133 1.47942-2.3633 2.04843-1.71876 1.251819.96681-1.138019.64454-2.16223-1.07423-4.210669-3.8672-4.438261-4.834-6.03149-4.29689-6.600501.32228-.3414.10743-1.593219-.53711-2.84504-.75196-1.479419-.75196-2.503638.10742-3.414049.96681-1.024219.96681-1.365619.10743-1.365619-1.3965 0-9.02352 9.331739-8.27159 10.242148.32229.227611 1.8262-1.138009 3.33012-3.300249 1.93363-2.61744 3.00786-3.30025 3.54497-2.27603 1.18165 2.04843.10743 4.43827-1.71877 3.641651-.85941-.341401-1.50394-.113801-1.50394.569009 0 .682809.64453 1.365619 1.39653 1.70703.75195.227601.85938.91041.32226 1.479419-.53711.569011-1.18167.455211-1.39651-.455209-.42969-1.13801-.85938-1.13801-2.14846-.1138-1.18166 1.13802-1.71876 1.13802-2.3633 0-.64451-1.02421-1.50389-.455209-3.22267 2.048431-1.28907 1.934628-2.14845 3.527859-1.82619 3.527859.32227 0-.32226 1.024209-1.61134 2.38983-1.18165 1.251819-1.93361 3.072649-1.61134 3.98306.32227.910419.10742 1.365619-.42969 1.024219-1.18165-.796609-5.04885 7.055711-8.37898 17.070259-13.10555 38.464982-1.50391 88.196352 25.8889 112.094702 25.02946 21.73614 51.45544 24.23977 87.22719 8.19373 17.9396-7.96613 25.99631-6.3729 58.00826 11.49399 28.35959 15.81844 61.76804 34.25432 82.17835 45.40688 10.9571 6.03148 42.32452 23.32934 69.82474 38.46498 27.5002 15.24943 62.94969 34.70954 78.74083 43.35847 34.59009 18.89109 33.83812 18.32208 39.85382 28.67801 6.66019 11.49401 8.5938 19.1187 8.48638 34.36815 0 21.16711-1.07422 24.12596-24.5998 66.574-7.08989 12.8596-17.72474 32.3197-23.41813 43.24465-5.80084 10.92498-13.10557 24.46739-16.22084 30.15747-3.11524 5.57629-6.98245 12.63198-8.59379 15.59084-3.65238 6.94191-4.18951 7.16951-7.73444 4.43827-3.22269-2.50363-12.46103-6.25909-18.58414-7.39713-2.68557-.45521-3.3301-.34141-2.14845.45522.85938.56903 1.18164 1.13804.53711 1.13804-2.36329-.11381-4.83401-3.30027-4.83401-6.14532 0-1.59322.53711-2.95885 1.07424-2.95885.64453 0 1.07422-1.93461 1.07422-4.32444 0-2.61745-.32228-3.64167-.96682-2.73125-.53711.91041-1.18164-2.38983-1.61133-8.53516-.42969-5.46245-1.18165-12.06296-1.71876-14.56659-.64453-2.50363-1.3965-7.51093-1.61134-11.26638-.32227-3.64166-1.71877-9.78695-3.2227-13.65623-1.39647-3.75543-3.54494-11.26634-4.7266-16.61502-10.84967-49.38996-36.73854-73.06072-78.2037-71.46751-12.13877.45521-12.13877.45521-12.13877-6.14528 0-3.64164-.32227-6.6005-.64454-6.6005-1.28905 0-69.60988 39.48921-72.93997 42.10665-2.14849 1.70701-20.73259 11.38016-21.91424 11.38016-2.47074 0-1.07424-2.16223 2.90041-4.32446 2.14845-1.25183 15.14659-8.76273 28.68185-16.72886 13.64269-7.96612 34.16041-19.68771 45.65464-25.83299 33.83815-18.32209 35.01981-22.53274 9.77547-35.16474-12.35363-6.14529-13.213-6.37289-15.89855-3.75547-3.33011 3.07266-15.46888 11.94921-18.15444 13.20102-1.3965.68281-2.57814 1.82083-2.57814 2.50364 0 .569-.75196.1138-1.71876-1.13801-.85938-1.13802-1.3965-1.47943-.96681-.79662.32227.79662.10743 2.38983-.53711 3.41404-1.18165 1.93464-1.18165 1.93464-.64454 0 .32227-1.13801.21485-1.70701-.42969-1.36561-.53712.3414-2.90041-2.38983-5.26373-6.14529-5.58598-8.76275-7.19732-9.78696-28.14473-19.8015-16.65053-7.96613-42.21711-20.82572-84.43423-42.33424-17.61732-8.99035-24.92206-14.45283-25.02948-18.54969 0-.68281-.64454-1.36563-1.50392-1.36563-2.04102 0-.9668 10.01455 1.39649 12.97341 4.08206 5.00726 61.33836 34.14051 95.17649 48.47954 22.02165 9.33174 27.92992 13.54239 33.30104 24.01216 3.3301 6.60051 3.00782 8.76273-.42969 2.84503-4.94143-8.30752-15.79113-16.50125-19.22866-14.45282-1.39649.91042-1.39649 1.13802-.32226 1.25182 1.71875 0-7.84186 6.82812-9.66804 6.82812-.53711 0-4.83404 1.36563-9.56063 3.07264-8.48638 2.95885-8.48638 2.95885-4.18948 8.07992 5.69339 6.9419 5.26371 8.19371-.85939 2.73124-7.41215-6.6005-12.89073-9.78694-43.39876-25.03637-69.82474-34.93714-73.90681-37.44079-72.40289-42.10664.32226-.79662.10741-1.25182-.42969-.91042-.53713.34141-1.71874-1.59322-2.68556-4.32446-1.28908-3.52785-2.57815-5.2349-4.40433-5.69011-2.68557-.68281-2.68557-.68281-2.68557-18.43586 0-17.18407-.10742-17.75308-2.68555-20.37051-5.37116-5.8039-7.51962-5.00728-42.75422 14.56661-23.52558 13.0872-25.13693 13.77003-19.98063 7.85233 1.71876-2.04843 2.68555-3.64167 1.93361-3.64167-.85939 0-.85939-.4552.1074-1.70702 1.07423-1.36562.96681-1.70703-.42969-1.70703-1.07422 0-1.50391-.56901-1.18163-1.13802.32225-.68281.10741-1.13802-.53713-1.13802-9.23834 0 6.23052-10.24214 52.52969-34.70949 8.91609-4.66591 11.8165-6.71433 10.74228-7.51095-3.43751-2.27603-8.16415-.22758-39.74639 16.61507-32.11939 17.18406-37.06083 19.46009-34.37527 16.04604.96682-1.25181.75197-1.70701-1.18163-2.16222-2.793-.79662-6.1231-5.34871-3.86723-5.34871.64454 0 .32227-.7966-.85938-1.82082-2.04103-1.70703-2.04103-1.82083.10742-1.02421 1.18165.3414 1.71876.3414 1.28907-.11381-.9668-1.02421 3.00784-3.41405 29.21897-17.75307 11.38681-6.14529 21.48452-11.03875 22.23649-10.69735 2.04104.79661 1.93363-1.02422-.21484-3.18645-2.47074-2.73125-2.47074-2.73125-28.68185 11.38017-20.19547 10.81117-24.81464 12.85961-26.1037 11.72159-1.28908-1.13802-1.28908-1.59323-.21485-2.38984.85938-.68282.21485-.79663-1.8262-.34141-2.04101.45521-2.79298.34141-2.14845-.34141 1.8262-1.82082 32.97875-19.46009 37.92019-21.39471 4.51178-1.93465 5.90828-4.55209 3.00787-5.69009-.75196-.34142-10.74229 4.32445-22.02167 10.24215-20.94742 11.15256-22.2365 11.72157-21.05486 9.78693.3223-.56901-.64454-1.70701-2.14846-2.50363-2.68555-1.2518-2.68555-1.47942-.96679-2.84503 2.3633-1.82084 4.08209-1.93463 3.00784-.1138-.42969.7966-.32228.9104.53712.45521.64454-.45521.96682-1.25184.64454-1.70703-.21485-.56901 6.23052-4.66588 14.50206-9.33174 8.27156-4.55207 15.03917-8.64895 15.03917-9.10416 0-3.30023-5.2637-1.47941-21.80681 7.51092-9.99031 5.4625-18.36927 9.55934-18.69153 9.21795-.42969-.34142 0-.68282.85938-.79662.9668 0 .64453-.4552-.64454-1.13801-2.04104-1.02422-2.04104-1.02422.21485-.56901 1.61132.34141 2.14844 0 1.71875-1.13801-.42968-1.13802-1.07422-1.25182-2.57813-.34141-1.18166.56901-2.04104.68282-2.04104 0 0-1.36562 3.11526-2.61744 4.51174-1.59321.64454.3414.85939.22759.53712-.45522-.64452-1.02421 13.75011-10.24217 22.12907-14.11142 3.3301-1.59323 3.65236-2.73125 1.18166-3.75545-.96682-.45521-8.16413 2.73124-17.72477 7.85231-16.2208 8.64894-18.1544 9.44555-18.1544 7.28332 0-.56902.64453-.79664 1.3965-.34142.64452.45523.42969-.1138-.53712-1.36562-1.82619-2.16223-1.50392-2.50364 12.03133-10.12834 7.73445-4.32447 13.96496-8.19372 13.96496-8.64893 0-3.41407-5.47856-1.70705-21.16227 6.8281-12.56847 6.82809-17.18763 8.87652-17.9396 7.96612-.85938-1.02422-.75195-1.13803.53712-.68282.9668.3414 2.36329.1138 3.22267-.45521 1.18165-.79661 1.18165-1.02421-.42969-1.02421-.9668 0-1.71875-.56901-1.61133-1.25182.21484-.6828-.42969-1.59321-1.28908-1.82081-1.28907-.45522-1.28907-.34141-.10741.56901 1.07422.79659.64453 1.0242-1.39651 1.0242-3.75978 0-3.00782-.4552 13.75012-9.90074 8.91608-5.0073 12.24617-7.39711 11.27938-8.07993-2.57815-1.70702-3.97465-1.25182-16.00599 5.23487-7.0899 3.75548-12.46102 5.9177-13.64267 5.57629-1.61134-.56901-1.71876-.4552-.32227.569 1.3965 1.02423 1.3965 1.25182-.21485 1.25182-7.94928.11382 15.25401-16.50125 24.92207-17.86686 3.22267-.4552 5.69339.11381 9.88287 2.27602 3.11525 1.59323 6.76763 3.18646 8.0567 3.64168 1.28909.3414 3.54496 2.16222 5.04888 4.09684 1.61133 1.93465 3.65238 3.30027 5.2637 3.30027 1.39651 0 3.86721 1.02422 5.37114 2.27603 4.83401 4.09686 5.1563 2.38984 1.18166-6.0315-19.01382-39.94442-46.29918-58.83547-85.07878-58.83547-26.64083 0-41.03546 5.57627-84.97133 32.66108-8.59381 5.34866-22.45134 13.88382-30.72288 18.89107-8.27157 5.00728-25.88888 15.93225-39.20929 24.12598-13.32042 8.30753-30.40062 18.77728-38.13505 23.32934C25.636418 261.16514.60693282 305.54783.49950982 366.77315c0 36.07516 5.80082518 55.87665 28.89670118 97.86951 6.660209 12.17677 26.640825 49.04853 44.365568 81.93725 32.549081 60.4287 40.820621 75.56432 63.594231 116.64675 31.79711 57.35607 40.17609 72.60552 56.71918 102.99056 32.97875 60.54253 32.33421 59.74591 45.86949 69.30527 42.53937 30.15746 103.44803 7.51092 110.21565-41.08243 2.57814-18.43587-1.28907-28.67803-29.64865-80.0026-4.83402-8.76275-14.39465-26.17442-21.16227-38.6926-6.87506-12.5182-17.83216-32.54731-24.49236-44.38266-6.66022-11.9492-14.07239-25.49161-16.65052-30.15748-5.58599-10.46975-28.68186-52.34878-47.48083-85.92031-7.62702-13.77001-18.26185-32.77491-23.41815-42.10665-11.06452-19.9153-12.3536-21.84991-12.3536-17.29785 0 2.16222-.53711 3.07264-1.93361 3.07264-2.47071 0-4.51174-2.16222-4.51174-4.89347 0-1.13801-.42971-1.82083-.96683-1.47942-.53711.34141-1.18165-.11379-1.61133-1.02422-.64453-1.82083-4.94145-2.38983-4.94145-.68281 0 .56901-.75196 1.36562-1.71877 1.70703-1.50391.56901-1.61132.45521-.42969-1.02422.85938-1.13801.96681-1.70702.10743-1.70702-.64453 0-1.18165-.56901-1.18165-1.25181 0-.56901.42969-.79662 1.07422-.45521.64454.34141.75196-.1138.42969-1.02422-.32226-1.02422-1.18163-1.47943-1.82617-1.02422-.64454.3414-.75196.11381-.32227-.56901.42969-.7966.21484-1.36561-.32227-1.36561-1.18165 0-1.61133 1.47941-1.28907 4.55207.21485 1.47942.10742 1.47942-.85937 0-.53712-.91042-.75197-2.04844-.53712-2.50364.32227-.45521.10742-.91042-.53712-.91042-1.18164 0-2.79298-4.32448-2.47072-6.48671.21485-.68281-.21484-1.59323-.85938-2.04842-.64454-.34141-.85938.11381-.53711 1.36561.32227 1.13802-1.61133-2.61744-4.18951-8.19372-17.83214-38.00978-8.48637-79.3198 22.77364-100.48692 7.30474-5.00727 55.85978-34.36814 56.82658-34.36814.21485 0 .32227 5.0073.32227 11.03878 0 19.68769 4.7266 23.10175 20.51773 15.36325.4297-.11382.75196 2.38983.8594 5.69007.1074 6.25909 1.71875 8.87653 5.47854 8.87653.96681 0 2.90042 1.25182 4.29692 2.84506 3.22268 3.64165 4.83401 3.52784 10.74226-.56901 4.834-3.41406 4.834-3.41406 5.15631 3.64164.21484 3.98306.96678 7.85231 1.82616 8.87654 1.18167 1.47942 1.18167 2.16223 0 4.55206-2.14847 4.09688-1.9336 8.30754.64454 11.72159 1.71876 2.38985 1.93361 3.52785 1.07422 5.23488-1.61132 3.07263-1.50391 11.49398.21485 12.06299.96682.45521 1.28908 14.56661 1.28908 65.20839 0 71.92268 0 71.58127 7.41215 78.4094 1.82619 1.70702 36.09404 20.37051 76.1627 41.31002 72.61773 38.12357 72.61773 38.12357 72.72513 212.01262 0 192.66633-.42968 181.85518 6.98251 198.24262 25.78142 57.12862 113.97545 58.94942 140.50884 2.84502 8.80868-18.66345 8.27156-8.99032 8.27156-165.46769 0-138.95192 0-138.95192 19.76578-151.24251 10.84968-6.7143 20.08803-12.97338 20.4103-13.8838.32226-.91041 1.28907-1.70703 2.25588-1.70703 1.93361 0 2.14846-1.82085.32226-2.61745-.75195-.34142.32228-.4552 2.3633-.1138 2.04104.22761 3.00783.22761 2.14845-.22762-.85937-.34139-2.36329-.9104-3.22267-1.3656-.85938-.34142 3.75979-1.02422 10.20514-1.36563 11.38682-.68281 20.19547-3.18644 25.13692-7.28329.85938-.68281 5.69341-1.36563 10.74226-1.36563 20.30289-.3414 44.473-16.61505 58.65279-39.4892 2.25587-3.64167 4.51175-6.37289 5.04887-6.25909.53709.2276.85937.68281.64452 1.02422-.21484.2276 2.57815 3.30023 6.12308 6.60048 14.60951 13.65622 13.53528 11.72159 9.34581 17.86689-1.71877 2.50363-3.33011 5.00727-3.54496 5.57627-.21484.68281-8.37898 15.24944-18.04701 32.4335-64.8833 115.28115-64.56103 114.59833-64.56103 133.71703 0 68.28103 99.15115 85.35129 131.59278 22.76035 2.25588-4.43826 10.09773-19.00489 17.5099-32.43348 39.3167-71.69512 75.41073-139.40714 75.41073-141.68316 0-.22761-1.71879.56901-3.75981 1.82082-2.04102 1.36561-3.75978 1.93462-3.75978 1.36561 0-.4552-.53712 0-1.18166 1.02423-.53711 1.13801-1.61134 2.04841-2.25587 2.04841-.64453 0-.53712-.79661.32226-2.04841.85938-1.02423-2.68556 2.16223-7.62699 7.1695-49.84414 49.61757-108.38951 83.75807-146.63197 85.5789-23.41813 1.13803-25.88887-5.91769-12.24619-35.50614 7.0899-15.36324 9.45318-18.09447 4.7266-5.46247-9.34577 24.58118-4.94144 35.16473 14.50206 34.93711 24.1701-.22759 65.63525-19.91529 100.76248-47.56911 12.24616-9.67314 21.16226-17.75306 19.65835-17.75306-.53711 0-1.71876.79659-2.68556 1.70701-.85938.91041-2.14845 1.70702-2.79301 1.70702-.64455 0-.85939.56901-.4297 1.36563.4297.6828.32228 1.02422-.21485.56901-.5371-.34142-3.11523 1.02422-5.80081 2.95882-24.81464 18.09449-61.44578 36.41658-80.0299 40.05822-39.74638 7.85234-42.53937-17.41164-8.48637-77.95417 8.48637-15.13563 7.94926-14.79424 13.3204-9.44555 4.61918 4.43826 4.61918 4.43826.53713 15.24944-12.99816 34.02672-.21485 46.08969 32.33421 30.61266 7.1973-3.52786 7.1973-3.52786 10.52744-.11381 3.65236 3.64167 11.38679 8.07994 14.07235 8.07994 2.25586 0 8.37899-3.41405 7.62702-4.21067-.32226-.45521 0-1.47942.75197-2.38984.64454-.91042 1.28906-2.50364 1.28906-3.52785.10742-1.02423.42969-2.95885.9668-4.32447.53711-1.70702.10743-3.52786-1.18164-5.69008-1.82619-2.84503-1.82619-3.07264 0-2.27604 1.18164.45521 1.82617.22761 1.82617-.7966 0-2.27604 8.05672-10.92499 10.20515-10.92499 3.22271 0 9.13095-3.64165 9.13095-5.57626 0-2.16225-4.29691-6.9419-6.12309-6.9419-.64455 0-2.14847-1.82084-3.43754-3.98308-1.18165-2.16224-2.68557-3.98307-3.33011-3.98307-.5371 0-1.07422-.9104-1.07422-2.16222 0-2.38985 3.86721-8.07992 5.47855-8.07992 1.28907 0 6.87507-6.8281 6.87507-8.30754 0-1.47941 4.18947-3.07264 5.69339-2.04842.75196.45519 1.3965 4.77967 1.71876 9.90076.64454 13.31478 2.90041 16.38743 6.12307 8.19372 1.07423-2.73126 1.61136-3.18647 2.47074-1.93463.64456.9104 2.14848 1.82083 3.33012 1.93463 3.65237.6828 4.29689 2.16223 3.00784 7.05569-1.39649 5.5763 1.61133 3.75548 3.97464-2.38982.75194-1.82084 1.71875-3.30025 2.25586-3.30025 2.14845 0 6.12308-11.15257 6.76762-18.77729.64453-8.19372-2.79298-19.91531-5.80081-19.91531-.53712 0-1.07423-.569-1.07423-1.25181 0-.56901.53711-.79662 1.07423-.45521 1.28907.79661 3.22268-3.98305 3.22268-7.85231 0-4.09686-3.65237-8.07995-11.38679-12.17679-3.86722-2.04844-7.30477-4.21066-7.51961-4.66587-.32229-.45521-2.14844-.91042-3.97464-.91042-2.68556 0-3.11525-.34141-1.82618-1.25182 1.28907-.91041.9668-1.02421-1.28907-.56901-1.61134.3414-3.00784.1138-3.22269-.569-.53711-1.82084-10.74228 2.61743-23.09586 10.12835-6.12312 3.86925-11.38681 6.3729-12.13877 5.9177-.85937-.569-.21484-1.13801 1.50391-1.59323 1.61134-.45522 2.57814-1.25184 2.25587-1.82085-.32226-.56901 0-.7966.85938-.45519.85939.3414 1.93363.1138 2.36333-.56901.32225-.68283-.21485-1.25183-1.2891-1.25183-1.82619-.1138-1.71876-.22759.21485-1.93462 2.14847-1.82082 1.71878-1.82082-3.22268.34139-.85939.34141-1.61133.22762-1.61133-.45519 0-.68282.64453-1.47943 1.39648-1.70702.96681-.45521.96681-.68282-.10742-.68282-.75196-.11381-1.82618 1.02421-2.36329 2.38984-.53712 1.47941-.96681 1.93462-.96681 1.13801-.10741-1.02421-1.07423-.79662-3.3301.91041-5.2637 3.98306-5.47854 2.16224-.53712-5.69007 2.47074-4.09687 8.37898-14.33903 12.89074-22.76036 38.13503-69.98804 53.60391-101.16973 58.33049-117.21578 9.34579-32.43348 3.43755-68.05342-15.14657-89.33436-10.84971-12.63199-12.03135-13.42861-58.76021-39.2616-13.85754-7.7385-25.67401-14.33901-26.31855-14.79422-.53712-.45521-8.27157-4.77967-17.18764-9.67314-8.80867-4.89347-21.16227-11.83538-27.39278-15.36324-6.23052-3.52786-21.37712-12.17678-33.83815-19.2325-27.92991-15.70462-29.21898-16.84265-30.50806-25.26398-3.00783-19.6877 13.42785-42.33424 32.76394-44.95168 10.9571-1.47943 17.83216 1.70703 83.14514 38.80638 7.94929 4.55209 31.68969 17.86688 52.6371 29.58846 20.94742 11.72159 39.63899 22.30515 41.35774 23.44316 1.82621 1.13802 6.87508 3.41404 11.27939 5.12109 55.96723 21.28091 79.92248 53.71439 79.92248 107.99784.10743 33.11629-3.86721 46.08969-26.64082 88.19633-18.58412 34.25433-25.35176 48.13813-22.23652 46.2035.64453-.45521 1.18168-.22761 1.18168.56901 0 1.13802.32226 1.13802 1.18165.22761.75196-.79662 2.3633-.91042 4.94143-.11381 2.57814.68282 4.18949.68282 5.15629-.2276 1.18165-1.02422 1.93361-.91042 3.22268.4552 2.47072 2.50363 10.95713 8.64895 12.03135 8.64895 1.61134 0 32.97875-56.78708 42.75408-77.3852 26.8559-56.67325 18.2619-123.70247-21.80666-168.65415-15.79113-17.75308-30.07836-27.99522-67.35402-48.70713-18.15443-10.12837-58.7602-33.00251-74.65878-42.10667-7.41214-4.32445-32.01196-18.09446-54.78557-30.72646C690.90508 85.341469 601.74426 35.49631 596.58796 32.19606c-1.71876-1.02422-7.30472-4.210671-12.35361-6.94191-5.04886-2.617439-13.21297-7.28331-18.26183-10.242149-20.30289-11.9491904-51.88517-17.4116702-74.01424-12.9734002m43.93587 36.5303582c18.58413 3.641651 27.39278 8.19372 158.98558 81.709651 16.86536 9.44554 22.55876 17.18406 19.33607 26.17439-1.07423 3.07263-2.14846 3.75544-13.10557 7.96614-15.1466 5.91768-25.13689 25.83297-22.55874 45.40687 1.0742 8.53513-.10742 11.26636-1.93361 4.55207-5.80083-21.39473 3.75978-43.92747 22.55874-53.1454 3.22269-1.59325 6.66021-2.95885 7.62701-2.95885 4.83403 0 5.80084-9.10414 1.50392-14.56663-2.79299-3.52783-38.67216-23.89835-124.61032-70.78467-46.51401-25.37779-70.89895-28.791839-103.12574-14.22522-10.09775 4.552069-7.73445 1.934629 3.22268-3.41405 16.32823-8.193729 33.94555-10.46976 52.09998-6.714301M294.94509 144.29076c16.43565 4.32446 30.18576 14.11142 39.10183 27.99525 6.55281 10.24214 3.86723 9.90073-9.45317-1.36564-66.92433-56.55944-155.44063 14.90804-101.19218 81.59584 2.04103 2.61744 2.68557 4.43828 2.3633 6.4867-.64454 3.64166-6.55277-4.09685-17.93959-23.67075-13.3204-22.76036-14.28721-24.23979-19.65835-27.54003-6.55278-3.98306-17.40246-4.32447-25.13691-.68282-7.19732 3.41406-72.617724 44.49648-86.367829 54.16964-37.705361 26.7434-57.148866 72.37788-52.744536 124.04389.537113 6.37289.966804 13.20099.966804 15.24944 0 2.04843.537112 3.30024 1.074228 2.95884.644534-.45521.751957.56901.322268 2.38983-.429691 2.04844-.322268 2.84504.429689 2.38984.644535-.3414 1.074228.34141 1.074228 1.82083 0 1.36561-.322269 2.16223-.75196 1.70702-.429691-.34141-1.396494.45521-2.148453 1.82082-1.074226 2.16224-1.289071 2.27604-1.396494.56901 0-1.13801-.429691-1.82082-.966806-1.36561-.537111.34139-1.396495-.45521-1.718763-1.70703-.644535-2.04843-.966801-2.16222-2.363298-.91042-1.503918 1.25182-1.611339 1.13802-.859381-1.2518.42969-1.59323.322267-2.38985-.214846-2.04845-2.900412 1.93464-7.304742-31.97828-6.230515-47.56911 2.255877-31.63689 9.990308-54.16963 26.533402-77.61278 14.931752-21.28093 21.269691-26.0606 87.871742-66.91542 7.41218-4.55208 28.68187-17.52547 47.266-29.01944 71.97318-44.15508 89.16082-50.07277 122.13959-41.53765m-113.22353 71.8089c4.51177 2.38985 5.69341 4.09687 15.68373 21.50853 21.37711 37.44075 21.16227 38.12359-20.73257 63.61516-47.69568 29.01944-60.04929 46.08971-61.55321 84.8961-1.07423 27.1986 5.04887 44.95168 32.11937 93.31741 19.22866 34.25433 18.79898 33.34391 17.61733 40.51342-1.18165 6.25911-5.58599 8.42134-16.32824 8.19374-11.06454-.22761-15.79113 2.04842-27.17795 13.42858-10.31257 10.24218-11.38679 10.35597-16.11341 1.82083C36.05642 419.12195 31.652087 408.8798 31.652087 369.6182c0-55.19386 17.187631-80.91303 80.459593-120.06083 9.45318-5.91769 24.92206-15.47702 34.26781-21.39473 22.12911-13.9976 28.03735-15.93226 35.34207-12.06298m156.94456 113.91553c-.10744 15.93224-.64454 27.08479-1.39651 28.79185-.85937 2.16223-1.07422-3.75547-.85937-23.89837.21484-22.07754.85937-30.72647 2.25588-30.72647zm96.25069-14.45283c3.11528 2.38985 23.31072 12.74581 74.12167 38.35119 51.24063 25.83301 53.28164 28.67804 28.467 40.28581-12.78327 6.03152-11.38679 6.37292-50.70348-13.31479-73.04745-36.64415-84.32681-42.67565-82.71548-44.38268.96681-1.02422 6.44536.91041 13.96497 4.77968 7.84183 4.09686 7.84183 4.21067 8.16411-8.42133.21484-7.62473.75195-11.83537 1.93361-13.77001 1.50391-2.50364 1.50391-2.73125-.10743-2.04843-1.18165.45521-1.61134.3414-1.18165-.45521.42969-.68282 1.39649-.91042 2.25587-.56901.85939.3414 1.50392-.11381 1.50392-1.02423 0-2.27602.64454-2.16222 4.29689.56901m-36.20142 52.23501c8.91609 4.32446 23.63301 11.49398 32.44165 16.04605 17.83217 9.10414 22.55877 11.15256 19.76578 8.87653-.96681-.79662-1.50392-2.16223-1.18166-3.07265.21485-.7966-.10742-1.93463-.9668-2.38983-1.07422-.79662-1.07422-1.25183 0-2.73123.75196-1.02423 1.82618-1.47943 2.3633-1.13802.53711.3414.9668-.11382.9668-1.13802 0-.91042-.64453-1.93463-1.28907-2.16223-.75195-.34141-.42969-.68281.75196-.68281 1.82619-.11381 1.93361-.34143.53711-1.36565-1.28907-1.0242-1.18164-1.13801.53712-.4552 1.39649.45521.75195-.68281-1.93361-3.41405-6.01567-6.03149-4.83403-5.80388 9.99032 1.82082 14.39463 7.39714 52.42225 26.28823 62.52 30.95408 3.43752 1.59323 8.16411 5.12108 10.74227 7.96612 4.4043 4.77967 12.46102 8.76275 17.93957 8.76275 1.50392 0 13.85754-6.82812 38.02764-20.93953 6.98247-4.09688 9.88287-4.66588 7.41215-1.5932-1.07422 1.47941-1.28906 2.04842-1.28906 4.43825 0 .68281-.96681.91041-2.36329.4552-1.39651-.3414-1.93361-.3414-1.39651.22761 2.14845 1.82083 1.71876 3.98305-.5371 3.18643-1.50392-.45518-2.14846-.22758-1.93361.79662.21484.79661-1.28908 2.16224-3.11525 3.07264-1.93362.91042-3.54496 2.27605-3.54496 2.95885 0 .79662-2.04104 2.27603-4.51176 3.30025-2.57815 1.13802-3.97464 2.27605-3.22268 2.61745 1.39649.56901.75196 2.61745-.9668 2.61745-.64454 0-.75197-.56901-.42969-1.13802 1.39649-2.27604-1.28908-1.02423-3.54495 1.70701-1.28907 1.59324-3.00784 2.84505-3.86722 2.84505-.75195 0-2.04102.79662-2.79298 1.70702-.75197.91042-2.04104 1.70703-2.79301 1.70703-.85938 0-3.54494 1.02422-6.12307 2.16222-7.0899 3.41405-11.3868 4.66588-13.42786 3.86926-.9668-.3414-.53711.45521 1.07423 1.70703 6.5528 5.6901 6.23054-5.00728 6.01569 198.12883-.10743 101.73875-.42969 179.92053-.75196 173.66144-.64454-11.38018-.64454-11.38018-1.61135-4.55208-.96679 6.82811-.96679 6.82811-2.25586 2.84505-.75197-2.16223-2.14848-5.57628-3.11529-7.39711-.96679-1.93463-1.71875-4.21065-1.71875-5.12108 0-.9104-.96681-3.75546-2.14846-6.25912-1.18164-2.50361-2.04102-5.23486-2.14844-6.14527 0-.79662-.85937-3.18645-2.04104-5.12106-1.07423-1.93464-2.3633-5.46251-2.68556-7.85234-.42968-2.27604-1.18165-4.21068-1.61134-4.21068-.53711 0-1.28907-1.3656-1.71876-3.07261-.32227-1.59325-1.61133-4.32449-2.79298-5.8039-1.07423-1.59323-2.04105-4.09685-2.04105-5.57631 0-1.47941-.96681-4.89346-2.14846-7.62471-1.07421-2.61742-2.25587-6.25908-2.57813-7.96611-.32227-1.70703-1.07423-3.86924-1.71878-4.77968-.75194-.79661-2.4707-6.14528-3.8672-11.94918-1.50392-5.69007-3.3301-11.15257-4.18949-12.06297-1.71876-1.70704-2.14845-3.41406-3.22266-11.72159-.32227-2.73122-1.18165-5.34867-1.71876-5.80389-.64454-.3414-1.82622-4.43826-2.79301-9.10412-.85939-4.66587-2.04104-8.64894-2.57814-8.99034-.42969-.3414-1.39651-3.41407-2.04105-6.82812-.75193-3.41404-2.68555-10.69736-4.40432-16.15983-1.71876-5.4625-3.11525-10.69737-3.11525-11.72159 0-.9104-.42969-1.70701-.85937-1.70701-.42969 0-1.50393-3.98307-2.25587-8.87656-.85939-4.77967-1.93361-9.78694-2.57815-10.92495-.53712-1.13801-1.61137-7.28331-2.36332-13.65622-.85938-6.25909-1.93362-11.60776-2.57816-11.83536-.75194-.22762-.96679-2.38983-.64452-5.12109.32226-3.75547.32226-3.98307-.32227-1.36564-1.61133 6.37293-2.36328-4.09684-2.36328-31.29546 0-45.63449-4.51176-55.19384-33.30103-69.98806-9.66806-5.12109-16.75796-9.44555-16.22084-10.01456.64454-.6828 23.74041 8.64893 31.26 12.8596 3.43752 1.82084 6.23053-3.07265 4.61918-7.96613-.32227-.91042-.64456-9.90074-.8594-19.91531-.5371-25.49157-1.71877-46.20349-2.68556-45.52067-1.07422.6828-2.36329-2.73124-1.50391-4.09687.32225-.56901-.10743-1.02421-.85938-1.02421s-.42969-.68282.75195-1.36563c2.04103-1.25181 2.04103-1.25181 0-2.16222-1.82617-.79661-1.93359-.91042-.21485-.91042.96681-.11379 1.82619-.6828 1.82619-1.36562 0-.6828-.96682-.91041-2.36329-.45521-1.61133.45521-2.04102.34141-1.07422-.34138 1.28906-.91042-10.95711-7.51095-59.61962-31.86451-8.37894-4.21066-15.25398-7.96611-15.3614-8.53512-.10742-2.16224 5.58596-.22759 20.73256 7.0557m260.17773 33.34393c.75195 2.38982 1.07423 4.55205.75195 4.77965-.32226.34141 0 1.36562.75197 2.16224.9668 1.3656.32226 1.93462-3.43751 3.52784-19.98063 8.07992-47.37341 35.16475-62.19775 61.45294-4.40432 7.85231-8.37895 11.9492-8.37895 8.53512 0-.56901-1.71877-2.61744-3.75981-4.55206-2.04103-1.93463-3.65238-3.86927-3.54495-4.32446.21485-2.16223-.32227-3.52785-1.28907-2.95885-3.65238 2.38984 8.27156-18.09448 17.18763-29.58845 15.1466-19.4601 46.08432-41.99285 57.68599-41.99285 2.25587 0 3.00784-.3414 2.14845-1.02422-.85938-.569-.64453-.7966.64454-.569 1.28907.22761 2.57815 2.04842 3.43751 4.5521m42.96907 21.96372c11.06454 2.50363 28.14474 12.74578 27.07053 16.27363-.10744.4552 2.04103 3.18647 4.83402 5.9177 2.68556 2.84505 5.26371 6.37289 5.58598 7.96611.64453 2.61745.53711 2.61745-.64453.6828-3.86722-6.03146-5.80082-7.73849-11.92392-10.92494-21.37713-11.15257-48.87732-4.21068-72.83258 18.32206-4.08206 3.86928-7.41217 6.37291-7.41217 5.8039 0-.6828-1.28908-1.02421-2.90042-.6828-2.68557.34139-2.04103-.45521 4.51176-7.16953 23.09588-23.21555 49.09216-30.95406 73.36969-21.96373 7.41217 2.84505 8.27153 2.16222 2.14844-1.59322-21.37711-13.20099-52.6371-5.80389-79.81505 19.00489-4.18948 3.86925-4.18948 3.86925-6.01566 1.47942-1.61134-2.04843-2.04103-2.16223-3.75979-.68281-1.93361 1.59322-1.93361 1.59322-.10742-.68281.9668-1.25182 1.82618-2.84504 1.82618-3.41405s-.42969-.34141-.9668.56901c-.53712.91042-1.18165 1.02422-1.61134.34141-.85939-1.47943 10.95711-12.17679 19.65835-17.75308 17.40247-11.26636 33.30102-15.02183 48.98473-11.49396m20.73257 21.05332c1.93361.79662 3.33012 1.70702 2.90043 2.04843-.32228.3414.32226 1.59322 1.28908 2.84505 1.82617 2.16221 1.82617 2.16221-.21485 1.5932-21.05486-6.60048-41.25033.11382-63.27197 21.05333-3.54495 3.30024-6.12308 5.12108-5.69338 3.98306.64452-1.70703.42969-1.82083-1.39651-.79662-1.50391.79662-2.14846.79662-2.14846 0 0-.56901.42969-1.13802.85939-1.13802.53712 0 .96681-.7966.96681-1.70701 0-1.02422-1.18165-.34141-3.11527 1.93462-1.61133 1.93463-3.22268 3.30024-3.54494 2.95886-.96681-1.02423 11.9239-14.11142 19.33609-19.68773 17.18761-12.97337 39.74637-18.43587 54.03358-13.08717m-288.64474 42.44804c5.58601 2.73124 12.24619 5.9177 14.71692 7.05571 14.07238 6.37289 19.55093 22.64654 19.55093 57.58368 0 30.61265-1.93361 35.73372-10.09774 27.31241-3.65238-3.75547-3.65238-3.75547-4.40432-28.33663-.96681-35.61995-3.86722-42.67564-20.73259-51.32459-4.18948-2.16223-7.41216-4.32447-7.0899-4.89348.32228-.4552-.10742-.91039-.85938-.91039-.85938-.11381-.64453-.68282.64454-1.70703 1.18165-.91042 1.50392-1.70703.75196-1.70703s-.96681-.56901-.53712-1.36562c.42969-.79661.32228-.91041-.42969-.45521-.75195.45521-1.28907.22761-1.28907-.3414 0-.68282.53712-1.25183 1.28907-1.25183.64454 0 .32227-1.02419-.75195-2.27603-2.68557-3.07266-2.25588-2.95886 9.23834 2.61744m-5.04886 16.84264c17.72474 8.99035 19.98062 14.45282 19.98062 47.56914 0 31.40927-2.47073 29.13324-3.22268-3.07265-.85938-30.61268-1.93359-33.00251-18.79897-42.22044-4.72658-2.50365-7.84184-4.66588-6.98247-4.66588 1.39651 0 1.39651-.1138 0-1.13802-3.54496-2.38984.42969-.91041 9.0235 3.52785m325.38331 25.4916c.42969 44.72408-34.26784 93.43122-66.17238 92.6346-4.72661-.11378-5.1563-.22759-2.3633-1.0242 1.8262-.45521 2.79299-.91041 2.14845-1.02422-.64454-.1138-.5371-.4552.21485-1.02421 1.39652-.91043 2.47073-13.65623 1.18167-14.11142-.42968-.22761 3.33008-.3414 8.5938-.3414 30.18578 0 57.68598-45.4069 48.87731-81.02686-1.50392-6.03146-1.71877-7.8523-.64454-6.94189.96682.79662 1.39651.79662 1.39651-.11379 0-.68282 1.07423-2.50365 2.3633-4.09687 3.3301-4.09686 4.18948-.6828 4.40433 17.07026m-24.81465-10.81116c1.18166 2.95884 1.50393 4.43826 4.94146 17.63926 2.14845 8.53514 3.97463 10.01456 6.33792 5.12109 2.04104-4.32448 1.93361 5.46248-.21484 14.22521-2.04102 7.9661-8.37896 21.28091-8.91607 18.43587-.21485-1.13801-.85939-1.59321-1.50394-1.2518-.64453.45522-.85938-.11379-.32227-1.70704.42969-1.36561.21485-2.38982-.42967-2.38982-.64454 0-1.39651-1.13801-1.71876-2.61746-.64454-2.27603-1.28908-2.61744-6.5528-2.38983-3.22267.1138-6.12308-.3414-6.44536-.91041-.32225-.45522-1.07423-.68282-1.61133-.34142-1.50391 1.02422-1.18166-.9104.75195-3.75544 1.8262-2.84504 1.18166-4.89348-.85938-2.73124-.85939.91041-1.50391.91041-2.36329-.22761-.64453-.91041-4.08207-2.73125-7.62703-4.09685-6.44534-2.38983-12.78327-7.51093-11.70905-9.33176.5371-.79661-1.9336-1.47942-4.1895-1.02421-2.90041.56901 4.29691-12.97339 10.63486-19.80151 5.15628-5.69008 8.48638-7.51091 11.49422-6.37289 2.14847.91041 14.7169 16.72886 14.7169 18.6635 0 .91039.32228.91039 1.18166 0 1.50392-1.59323 1.82617-13.20102.64454-17.86688-1.07423-4.21066 2.04101-2.04844 3.75978 2.73124m-562.1429 18.89108c5.69342 2.38984 6.55281 3.86927 37.92022 61.90815 15.03916 27.88141 32.54909 59.9735 38.887 71.46746 6.23051 11.49401 11.06455 21.39476 10.74229 22.07757-.42969.68281-.21485.91042.32226.56901.64454-.45521 1.3965 0 1.82619.91041.9668 2.73123-1.28907 3.07265-2.793.3414-.75195-1.47941-1.18164-3.07265-1.07423-3.52787.10743-.4552-.42969-2.04843-1.39649-3.41404-.85939-1.36562-1.61134-2.04842-1.61134-1.47942 0 1.25182-6.66021-10.46975-24.38495-42.56186-7.08988-12.85959-16.97278-30.72645-22.02165-39.83059-5.04886-9.10415-14.07237-25.7192-20.08805-36.98558-18.15442-33.91289-22.98845-35.16472-48.44761-12.63198-8.48639 7.5109-11.60167 6.94189-3.65237-.79662 16.65051-16.15985 25.78143-20.25669 35.77173-16.04604m634.00867 53.82823c.64454-1.13802.96681-1.13802.96681-.2276 0 .79661 1.07423 1.93461 2.3633 2.73123 1.93361 1.13802 2.14846 1.02421 1.61134-.56901-.42969-1.0242-.42969-1.82083-.10742-1.82083 2.47071 0 2.3633 6.3729-.21484 11.49397-3.54496 6.82812-3.33011 6.82812-8.37897-.22759-4.08205-5.80389-4.08205-5.80389-1.50391-9.55936 2.04103-3.18643 2.57814-3.52784 3.43752-2.04841.75194 1.4794 1.07423 1.4794 1.82617.2276M476.59682 840.30216c.42969 86.71691 1.50392 124.2715 3.54496 128.59595 3.2227 6.8281 7.19732 10.92497 13.85752 14.45282 3.43752 1.93464 6.01566 3.75548 5.58597 4.32449-.42969.4552-.21485.569.32228.22759.64454-.3414 5.47857-.3414 10.95712.1138 5.80082.45521 9.56061.22761 9.23834-.34139-.32227-.56901.64453-.79663 2.14847-.45522 1.61135.34141 2.57815.1138 2.25589-.34141-.32228-.56901.10741-1.0242.85938-1.0242 1.50391 0 5.04884-1.82085 9.99029-5.12109 3.22267-2.16225 3.22267-2.16225 1.61133 0-1.39649 1.93463-1.39649 2.04842 0 1.25181.85939-.45521.4297.22759-1.07422 1.47943-15.68371 13.77-47.3734 7.62471-57.36372-11.26637-3.3301-6.2591-3.3301-6.2591-3.54495-89.33435 0-45.7483.21485-81.48205.64454-79.54743.53712 2.04844.9668 18.66349.9668 36.98557m-21.37712 63.27377c.10744 31.06785.64453 51.77978 1.39651 54.96621 2.9004 12.51821 11.27938 25.15021 21.48453 32.0921 6.55281 4.55208 5.90827 5.34869-1.18166 1.47942-10.41998-5.57626-18.90639-17.18406-22.23647-30.72647-1.18165-4.32445-1.50392-17.63926-1.50392-55.87664 0-42.67565.32227-51.666 1.61133-51.666.10743 0 .32227 22.41896.42968 49.73138m114.9423 29.81605c.21484 33.91291-4.94145 48.36572-20.30289 57.01466-3.86722 2.16224-3.43753.56901.85939-3.07264 15.79111-13.42861 17.40246-20.93952 17.61731-82.05104.10741-48.13816.21484-49.38998.9668-23.55697.42969 15.02182.85939 38.23736.85939 51.66599m-21.59196-1.59323c-.32227 34.59573-1.71876 45.52069-5.26371 43.13085-.53714-.34141-.96683-.22762-.8594.3414.42969 2.27604-.21485 3.07266-1.28907 1.47942-.9668-1.47942-1.07422-1.36561-.53712.22761.64453 2.27605-.96679 3.86927-2.04103 1.93463-.42969-.68281.21485-2.27603 1.3965-3.64166 4.83404-5.46247 8.70125-34.25432 7.5196-56.55946-.10742-.91042 0-9.67313.21485-19.34629.21484-10.12835.53711-14.22519.85938-9.67313.21485 4.32445.21485 23.32934 0 42.10663M464.45807 12.84976c.32228.569011 0 .91042-.75194.569011-1.50392-.682811-12.56847 6.600499-17.50992 11.493979-2.36327 2.27603-2.79296 3.30025-1.61134 3.64165.85938.341411 1.71876 0 1.93361-.68281.21485-.68281 1.18166-.910409 2.14846-.569 1.61134.682799 1.61134.569.32227-1.251819-.85938-1.024221-1.07423-1.820831-.53712-1.707031 2.3633.45521 3.7598-.2276 3.00784-1.479419-.42969-.796621-.32227-.910421.42969-.455212.64453.455212 2.68555 0 4.51174-1.024218 2.9004-1.59322 3.7598-2.95884 3.33011-5.462481-.10742-.45521.85939-.341399 2.14846.341411 1.18166.79661 2.47074 1.02421 2.90042.68281.32226-.34141-.10743-.68281-.9668-.796621-.85938 0-.42969-.455199.9668-1.138009 2.36329-.91042 2.36329-3.30025.10742-3.30025-.64453 0-.75195.4552-.4297 1.138009m245.46084 152.15291c-12.35361 4.66588-24.92208 27.54004-21.69939 39.60301 1.07424 3.86927 7.62701 9.55936 17.0802 14.79423 3.43753 1.82083 10.63484 5.9177 15.89856 8.87653 9.13093 5.34869 58.97506 33.45771 89.16081 50.52798 7.73446 4.32446 22.98846 12.85959 33.94558 19.0049 40.17608 22.41893 54.57074 42.67565 57.36373 81.02681 2.14844 30.04367-4.40434 48.13815-45.65464 125.0681-13.96497 26.0606-22.98849 43.81369-22.12911 43.81369.64456 0 11.17198-7.62473 12.99817-9.44556.64454-.56901-.64454-.22761-2.68558.79662-3.75978 1.93462-3.75978 1.93462-1.07422-.34142 1.61134-1.36562 3.54495-2.04842 4.7266-1.70702 1.28907.4552 1.71876.2276 1.18166-.68281-.85938-1.47941 2.36329-5.69008 4.4043-5.69008.75197 0 1.50393-.45521 1.71877-.91041.21487-.45521 2.47074-2.61744 5.15632-4.77966 2.68555-2.16226 5.04885-4.2107 5.37111-4.55209 1.18166-1.36563 6.44538-4.55206 6.44538-3.98305 0 .4552 1.28905-.22762 3.00782-1.47944 10.95713-8.07992 38.56475-18.77728 50.1664-19.46008 8.5938-.45522 3.97463 6.25907 35.23464-51.32458 24.38494-44.95171 29.8635-81.59586 17.93958-119.15042-8.80866-27.99522-36.30885-52.69021-73.58454-66.34641-3.43751-1.25181-9.66805-4.21067-13.85752-6.7143-4.18949-2.38984-13.42784-7.62472-20.51774-11.49398-7.08989-3.98305-23.52556-13.20101-36.52371-20.48431-108.28205-61.11153-107.9598-60.88392-124.07318-54.96625M438.35434 272.09011c-.96679.68281-1.28907 3.18646-1.07423 7.96613.32229 7.0557.32229 7.0557 6.9825 2.61744 6.23052-4.21067 6.55278-4.66588 5.80083-7.73854-.85939-3.41404-8.27154-5.12107-11.7091-2.84503" transform="translate(.00049018 .00049598)"/>
</svg>
