<svg xmlns="http://www.w3.org/2000/svg" xmlns:xlink="http://www.w3.org/1999/xlink" viewBox="0 0 1024 1024">
  <defs>
    <linearGradient id="b">
      <stop offset="0" stop-color="#fff"/>
    </linearGradient>
    <linearGradient id="a">
      <stop offset="0"/>
    </linearGradient>
    <linearGradient xlink:href="#a" id="c" x1="66.393555" x2="328.84015" y1="199.48389" y2="199.48389" gradientTransform="matrix(.99902 0 0 .99903 .19348522 .19438403)" gradientUnits="userSpaceOnUse"/>
    <linearGradient xlink:href="#b" id="d" x1="66.393555" x2="328.84015" y1="199.48389" y2="199.48389" gradientTransform="matrix(.99902 0 0 .99903 .19348522 .19438403)" gradientUnits="userSpaceOnUse"/>
  </defs>
  <path fill="url(#c)" fill-rule="evenodd" stroke="url(#d)" stroke-linecap="round" stroke-linejoin="round" stroke-width=".256596" d="M187.86739 68.24102c-.0889.07992-1.57047.253752-3.29079.386622-1.72031.13387-4.09098.414597-5.26783.625391-1.17684.210795-2.71333.479532-3.41464.596418-25.03545 4.169933-52.31169 18.320133-70.37297 36.507399-6.415704 6.4607-19.084277 22.06148-19.084277 23.50208 0 .11389-.686326 1.33769-1.525503 2.71935-7.263874 11.95533-15.204085 33.39342-16.225084 43.80527-.147855 1.49953-.320686 2.81725-.384623 2.92714-.06494.11089-.231773 1.43061-.371635 2.93314-.139862 1.50154-.412595 4.04806-.607404 5.65848-5.735373 47.4807 19.822555 98.93152 61.260906 123.32173 27.16435 15.98841 53.36864 21.94459 83.12145 18.89158 39.22254-4.02508 75.21022-26.22543 96.92092-59.78869 16.65367-25.74589 23.59086-60.56794 18.38897-92.30798-.0759-.46654-.24276-1.54448-.36964-2.39565-8.23492-55.10926-58.83029-101.346167-117.22599-107.12653-3.75533-.371637-21.18822-.578436-21.55186-.25575m8.22792 26.157489v7.570611l-1.65837.85517c-8.70647 4.48763-8.38878 18.0424.49551 21.13838l1.16286.40561v19.31716l-1.56946.70831c-1.64239.74028-4.39369 3.43965-5.11099 5.01411-.64336 1.41262-23.53092 1.97308-47.64027 1.16586l-7.61652-.25475-.67434-1.87417c-.93708-2.60746-3.2588-5.09503-5.99512-6.42374l-2.29874-1.11691-.25375-8.4038c-.13886-4.62149-.25375-10.63463-.25475-13.36197l-.001-4.95916 2.63441-2.09895c4.31277-3.43565 12.71752-8.86136 13.72853-8.86136.64337 0 .57543 20.12836-.0699 20.67483-.26874.22678-1.2308.93409-2.13791 1.57246-9.31086 6.54663.88913 21.08743 10.53667 15.02136 5.84327-3.67542 5.78133-12.44986-.11189-15.76163l-1.55547-.87415V99.075947l2.4396-1.205825c4.56952-2.260795 12.14908-5.18794 13.43382-5.18794 1.08594 0 .71131 14.306048-.38162 14.579778-4.00508 1.00502-6.74538 8.48972-4.61947 12.6157 5.37173 10.42384 21.36903 3.57751 17.23909-7.3778-.77723-2.06399-3.70636-5.37876-4.75134-5.37876-.18482 0-.33567-3.74735-.33567-8.327878v-8.328877l1.46357-.435574c4.36272-1.299733 16.17114-3.048028 21.26813-3.14793l2.63442-.05195v7.569618m18.1462-6.379778c34.57707 5.266863 68.06323 29.745989 83.52106 61.053459 3.45662 7.00117 8.53963 20.48402 7.93722 21.05446-.0779.0739-8.45171.19581-18.60775.27174l-18.46589.13786-.90811-1.88216c-5.02006-10.41585-20.90049-6.75841-20.87951 4.80931.021 10.94432 15.31898 14.89446 20.49089 5.28983l.75127-1.39464 19.71466.10091 19.71366.1009.47553 2.34171c.67534 3.32576 1.72131 11.89441 1.49753 12.25806-.10389.16783-3.52653.34266-7.60553.38962l-7.41672.0859-1.19682-1.9451c-5.83629-9.48576-21.23317-4.22289-20.60979 7.04513.66036 11.95033 17.30002 14.52084 21.57284 3.33274l.70631-1.8492h14.83344l-.23777 7.12206c-.13087 3.91718-.40361 7.91229-.60541 8.87735-.2028.96606-.47553 2.4586-.6074 3.31776-2.04699 13.38295-7.69545 28.61409-15.26601 41.17085-3.16991 5.25687-8.30186 12.68262-8.76441 12.68262-.19681 0-7.56358-7.08309-16.37195-15.73964L251.8996 240.9116v-23.16839l-4.48761-4.47564c-2.46858-2.4606-4.4876-4.77136-4.4876-5.134 0-2.13292-4.04402-4.36274-6.25286-3.44763-4.33574 1.79624-3.89118 8.03316.65236 9.13909.64937.15784 2.53452 1.67936 4.52757 3.65344l3.41464 3.38269-.016 11.71558-.016 11.71557 16.89343 16.69172 16.89443 16.69073-2.92713 2.75631c-11.98325 11.28398-26.27423 20.511-39.13661 25.26935-3.10695 1.14988-3.01005 1.2258-3.00405-2.38368l.006-3.21985 1.95808-1.07995c3.00905-1.65938 5.05005-5.32482 5.05005-9.06616 0-8.94628-10.62857-14.36699-17.96039-9.15906l-.98903.7023-5.42067-5.15196-5.42069-5.15199-.03-3.10696c-.048-4.8253-2.62641-8.97225-6.69843-10.77449l-1.72031-.76026v-8.93129c0-8.9213.00099-8.93129.87813-9.20003 7.39176-2.26479 7.62453-15.60279.3127-17.92352-1.09393-.34667-.62639-.98205.72229-.98205 5.39572 0 13.65961-6.04809 16.52979-12.09719 10.36784-21.85669-15.5028-42.20584-34.51714-27.14953-12.83141 10.1611-9.26891 31.83196 6.29183 38.28167l3.50056 1.45058-1.94309.96906c-6.87625 3.42666-6.73239 14.14421.23477 17.45098l1.35667.64338v17.45497l-1.70833.8272c-7.38076 3.5725-8.91226 13.53678-2.91014 18.93353 3.78229 3.40068 10.66653 4.07503 14.09217 1.38065 1.36566-1.07395.9201-1.35667 7.14999 4.54556l5.61949 5.32481v2.55151c0 4.35076 3.08996 8.85238 7.13799 10.39787l1.8382.70231v3.63145c0 4.19292.32768 3.80829-4.13495 4.84728-11.96026 2.78228-25.24922 3.6774-35.47518 2.38967-1.93112-.24376-4.38971-.54447-5.46266-.66835-1.07394-.12388-2.57148-.38163-3.32873-.57444l-1.37664-.34966.011-32.9099.011-32.90991 1.52449-1.33869c6.64648-5.8353.57943-16.403-7.48265-13.0343-5.54157 2.31576-6.54858 9.57967-1.84719 13.33001l1.36666 1.09094v32.29251c0 17.76067-.0959 32.2925-.21379 32.2925-.59542 0-14.33693-4.74038-16.27903-5.61553l-2.2488-1.01301.1019-13.71562.1029-13.71562 2.07597-.78923c11.32089-4.30081 11.37583-21.70883.0819-26.08856l-2.3527-.91211.009-13.66067.009-13.66069 6.7214-6.79436 6.72041-6.79438 2.047.0829c8.52064.34466 10.85034-10.61964 2.87317-13.52281-3.95311-1.4386-9.01416 2.33173-9.01416 6.71544 0 .74827-1.81522 2.83124-7.66248 8.79642-9.19498 9.37787-8.29785 6.6745-8.32083 25.09054-.016 12.95237-.0659 13.97837-.69932 14.16618-12.11911 3.60847-13.02622 22.40415-1.28174 26.57509l1.85718.65935.24876 3.49959c.13687 1.92513.24876 7.52765.24876 12.45086v8.95127l-3.41466-1.8432c-5.26984-2.84423-11.43179-6.86331-16.63269-10.84843l-4.73336-3.62546-1.75627 1.11191c-8.62853 5.46368-20.042335-.36165-20.048329-10.23201-.005-6.95323 4.679409-11.61568 11.993229-11.93737l3.13492-.13686 2.69536-2.64542 2.69635-2.64542-.2028-5.94821-.2018-5.94719 1.64539-.72829c8.86231-3.92018 8.92225-16.5099.0979-20.79972l-1.61442-.78523.028-8.2959.028-8.29592 1.19783-1.52751c5.81929-7.41975-4.11197-16.48593-10.94726-9.99325-3.6694 3.4856-2.83822 9.78146 1.57845 11.95334l1.63939.80622.018 7.82437.018 7.82436-1.41062.5095c-1.8352.66336-4.13794 2.76631-5.41269 4.94019l-1.01401 1.7313H89.588861l-.434573-1.65837c-.238766-.91211-.681332-2.53653-.982036-3.61048-2.094945-7.46372-3.215846-26.10654-2.163877-35.98291.719293-6.75541.780234-7.21996 1.254768-9.57766l.451558-2.24381h38.761969c38.15657 0 38.76797.012 39.17257.76825 1.83821 3.43365 8.51166 3.41367 10.96525-.033 4.79429-6.73243-4.50159-14.42793-10.56764-8.74846l-.97604.91411-37.75596.28272c-37.737977.28273-37.75596.28273-37.75596-.5065 0-1.05198 1.314711-5.38476 2.840215-9.35988l1.235788-3.21986 9.376797.024 9.3768.024 1.18085 1.63441c4.34972 6.01813 13.9573 6.01813 18.31703 0l1.18484-1.63441 27.53797-.024 27.538-.024 1.61541 2.53453c5.09201 7.9862 16.52079 7.30587 20.40199-1.21382 2.29275-5.03408-.9181-12.77954-6.07005-14.64272l-1.36566-.49351v-19.29519l1.43059-.47154c8.96821-2.96011 9.30888-17.1183.5085-21.09542l-1.93909-.87615V86.715941l3.21984.264742c1.77026.145858 5.5026.612402 8.29287 1.037988m5.88123 12.611699c-2.48356 2.34271-1.61841 5.92422 1.67035 6.91026 4.3897 1.31472 7.27088-3.96114 3.88919-7.12006-1.71931-1.606428-3.71436-1.530502-5.55954.2098m28.78975 11.92737c-2.14689 1.30873-2.17786 4.2968-.0619 6.07707 3.67341 3.09098 8.43074-2.28977 5.03007-5.68945-1.36665-1.36666-3.13591-1.50453-4.96813-.38762m-12.9403 6.85531c-1.46157 1.2298-1.80023 2.55351-1.08793 4.25885 1.5305 3.66243 7.25988 2.61244 7.25988-1.33071 0-3.21386-3.72934-4.98314-6.17195-2.92814m-121.43888 1.60344c4.10498 1.87417 3.90317 1.25277 3.90317 12.02727v9.39583l-1.81522.96306c-2.02201 1.07296-3.81624 3.2788-4.48659 5.51463l-.44156 1.47456-7.45769.12088c-4.10098.0669-7.526612.0799-7.611529.031-.08592-.05.748265-1.56347 1.853182-3.36573 2.390647-3.89819 2.345687-3.49158.598412-5.4257-9.64354-10.67458 2.326715-26.73193 15.457825-20.73577m142.65207 3.40967c-.37064.27174-.83318 1.33869-1.02599 2.37269-.66335 3.55154-3.43862 6.51964-6.59354 7.05312-3.054.5155-3.20685 2.46959-.24975 3.20187 3.45562.85417 6.18493 3.5895 6.71142 6.72445.37563 2.2418.55046 2.67238 1.18384 2.91515 1.16385.44656 1.98904-.44657 2.25379-2.44161.45155-3.40868 2.65239-5.91224 6.09301-6.93025 4.27881-1.26776 4.39669-3.14892.23777-3.78929-3.27878-.50451-6.48164-4.23388-6.48164-7.54666 0-1.54448-1.07394-2.33171-2.12891-1.55947m-37.97375.74427c-.21678.26774-.51849 1.27776-.67134 2.24382-.59342 3.76933-2.67537 6.06509-6.50062 7.16701-2.90714.83819-3.58048 2.68538-1.16986 3.20986 4.67942 1.01801 6.7384 3.079 7.52263 7.53066.7113 4.04007 2.61443 4.28682 3.17388.4126.57443-3.98412 2.77328-6.55061 6.36076-7.42676 4.19788-1.025 4.13295-3.43264-.1069-3.97212-3.13892-.39861-5.71639-3.35872-6.2229-7.14803-.31568-2.3607-1.38163-3.26182-2.38565-2.01704m-40.99078 3.66144c-3.20786 1.62042-3.17189 6.16599.0619 7.70048 2.47856 1.17586 5.02007.1089 6.02409-2.52852 1.3277-3.4896-2.67638-6.89328-6.08602-5.17196m101.64129 11.7835c-.35466.39262-.64737 1.31472-.64937 2.049-.01 3.40767-2.63641 6.63753-6.11199 7.51368-3.28579.82819-3.31277 2.73833-.051 3.56652 3.50355.88914 5.8982 3.46961 6.36375 6.85631.47853 3.47561 3.31275 3.21187 3.31674-.3087.003-3.26682 3.6674-6.73143 7.11801-6.73143 2.24381 0 1.58045-2.92515-.76025-3.34873-3.73533-.67634-6.74937-4.19293-6.74937-7.87533 0-2.28877-1.20482-3.12595-2.47657-1.72132m-41.01976 3.86024c-1.40063.36264-2.58947 1.38465-3.35571 2.88519-2.76829 5.42671 4.16491 10.243 8.39376 5.83031 3.38767-3.53655-.3127-9.93731-5.03805-8.7155m-7.77337 14.36099c-.34766.34866-.63238 1.07295-.63238 1.61143 0 1.30772-1.98307 3.25882-3.31276 3.25882-.56745 0-1.37066.18182-1.78625.40361-1.41761.75926-.68133 2.71834 1.022 2.71834 1.62041 0 3.45861 1.6454 3.90817 3.4986.73029 3.00707 2.8532 3.1759 3.32673.26474.35765-2.20085 1.62241-3.25584 4.70139-3.92318 2.07896-.45156 1.80423-2.43063-.38462-2.77429-2.60645-.4096-3.92415-1.31971-4.17191-2.88019-.4096-2.57949-1.43359-3.41468-2.67037-2.17788m-26.39912 22.6589c20.25014 6.01413 12.45279 36.33457-8.16998 31.77102-3.17988-.70331-3.1539-.80921.42359-1.71133 16.76655-4.22688 16.25105-26.38427-.66535-28.58213-2.65939-.34566-3.40866-.78823-1.91412-1.1299.64137-.14685 1.69234-.4076 2.33671-.58043 1.97106-.52949 5.7963-.41859 7.98915.23277m33.52013 1.61643c-.39162.0899-.72629.7143-.87315 1.62941-.29571 1.8482-1.91512 3.55053-3.37869 3.55053-3.06398 0-3.43761 2.64543-.45655 3.23485 1.90513.37664 3.58848 2.14691 3.58848 3.77233 0 1.39064.87315 2.12792 2.1419 1.80923.72429-.18082.98004-.50351.98004-1.2328 0-2.39766 1.50952-3.90319 4.40867-4.39771 1.48654-.25375 1.64039-.38662 1.64039-1.41562 0-1.18585.0809-1.1399-3.42664-1.93512-1.19881-.27174-2.61842-2.23581-2.62042-3.62646-.002-.93808-.98903-1.62242-2.00403-1.38864m-140.436238 2.83923c-.467541.46754-.780235 1.30073-.780235 2.07796 0 2.62146 3.227823 3.99612 4.971113 2.11695 1.94909-2.10096.76725-4.97615-2.043984-4.97615-.84617 0-1.663368.29771-2.146894.78124m36.813888 3.5905c-.21179.27873-.59642 1.46157-.85416 2.62943-.77125 3.49959-2.70036 5.4387-6.00412 6.03711-2.65139.47953-2.67636 3.35273-.029 3.35273 2.94511 0 5.34976 2.59347 5.97714 6.44472.63937 3.93017 2.68736 4.08302 3.27378.24575.5095-3.33674 2.83422-6.01113 5.63448-6.48467 1.73829-.29371 3.01505-1.41962 2.6584-2.34671-.25276-.65936-.40861-.73329-2.8672-1.36267-3.057-.78223-5.11598-3.38569-5.55955-7.03314-.22478-1.8462-1.37264-2.60846-2.2298-1.48255m125.43495 6.77639c-3.85922 2.09395-2.35769 8.75446 1.97406 8.75446 3.90916 0 6.29182-3.66843 4.55952-7.02016-1.17684-2.27477-4.10596-3.05201-6.53358-1.7343M96.336173 209.72402c-1.822212 1.11093-2.484564 2.29678-2.484564 4.44968 0 4.76834 6.485631 6.59955 8.965201 2.53253 2.6534-4.35176-2.20684-9.58865-6.480637-6.98221m199.306487 3.97314c-2.15788.85417-2.61343 3.12995-.95806 4.78534 1.32271 1.3237 2.97707 1.35167 4.25682.0709 2.27876-2.27778-.28372-6.0501-3.29876-4.85627m-121.44487 1.71733c-2.71334 1.47356-2.11692 5.46466.92909 6.21693 1.22879.3037 1.64639.23277 2.53651-.42559 3.86021-2.8562.73728-8.07612-3.4656-5.79134m92.01873.89912c-1.39564 1.45658-1.36467 2.94212.0919 4.3987 1.66736 1.66738 4.14293 1.3357 5.06004-.67634 1.54149-3.38269-2.60645-6.37877-5.15195-3.72236m-44.63522 4.79132c-3.00904.89013-3.85521 4.89723-1.52549 7.22596 1.49052 1.49053 3.02102 1.72231 4.91317.74426 4.81029-2.48756 1.82521-9.51072-3.38768-7.97022m60.16998 1.2358c-.0949.26873-.35765 1.33969-.58342 2.38167-.82719 3.80829-2.83323 6.05209-6.29084 7.03615-3.92314 1.11591-4.05902 2.7613-.30469 3.6884 3.70736.91711 5.98912 3.36971 6.45466 6.94122.49752 3.81429 3.2628 4.02108 3.2628.24377 0-3.11697 3.49856-7.09608 6.25486-7.11406 3.88021-.025 3.54554-2.90816-.47054-4.05904-3.30875-.94909-5.78432-4.25286-5.78432-7.71948 0-1.57546-2.07196-2.71735-2.53851-1.39863m-147.37043 8.68954c-1.94909 1.05898-2.11592 4.23489-.3077 5.87129 1.14788 1.03899 3.63143.9271 4.85124-.21879 3.30575-3.10597-.50451-7.84635-4.54354-5.6525m95.827 1.13391c-5.26984 2.29476-2.75031 10.03521 2.81223 8.63857 4.20988-1.05597 4.44265-7.24393.33268-8.80741-1.29473-.49252-1.67335-.47154-3.14491.16884m-124.14023 6.6685c.96606 2.02601 3.48958 4.58852 5.5136 5.59953l1.78225.89013v8.13807l-1.42061 1.57347-1.4216 1.57346-5.06604-.10889-5.06703-.1089-2.286749-4.29281c-1.901135-3.56752-4.756334-9.86339-6.237881-13.75558l-.333672-.87815h13.884372l.65336 1.36967m115.87732 10.72553c-2.56447 1.56447-3.42862 4.27284-2.19184 6.8783 1.74029 3.66642 6.33478 4.23886 9.0651 1.1289 4.01107-4.56755-1.66636-11.1811-6.87326-8.0072m52.97904 2.73434c-.42957.42858-.78023 1.21881-.78023 1.75629 0 .53647.35066 1.3267.78023 1.75529 1.53449 1.5355 4.29279.42558 4.29279-1.72732 0-2.02003-2.86619-3.21088-4.29279-1.78426m-35.38928 9.36786c-1.91812.77324-2.30474 3.74535-.65536 5.04308 2.49056 1.95809 5.98912-.28372 4.82526-3.09298-.74327-1.79525-2.50653-2.61945-4.1699-1.9501m14.80747 3.21686c-.21179.26874-.50151 1.25278-.64437 2.18787-.51049 3.34274-2.45259 5.59753-5.74736 6.67149-3.2678 1.06497-3.65542 3.06002-.69133 3.55954 3.69939.62239 6.20192 3.51157 6.20192 7.15801 0 2.84922 2.77029 3.43565 3.32974.70531.98503-4.8073 3.18388-7.50168 6.12499-7.50168 2.58745 0 3.62544-2.96011 1.27674-3.64245-4.8822-1.41862-6.57454-3.03305-7.17695-6.84432-.39661-2.51056-1.65238-3.58751-2.67338-2.29377m-131.64287 3.77532c-1.51451 1.51452-1.55447 3.41167-.10389 4.86226 1.9461 1.9461 4.66143 1.64839 5.84527-.64238 1.9351-3.74135-2.76429-7.19698-5.74138-4.21988m11.11311 11.86743c-2.94012 2.52853.79622 6.95721 3.84522 4.55855 1.29173-1.01601 1.6274-2.45661.89912-3.86423-.96606-1.86917-3.02802-2.17088-4.74434-.69432m27.94158 1.70133c-1.59344.56945-2.09494 3.02805-.84717 4.15695 1.04598.94708 3.01405.83119 3.75132-.22178 1.55049-2.21284-.38462-4.83529-2.90415-3.93517m27.9316 6.83534c-1.76825 1.03199-3.34671 3.6804-3.34671 5.61353 0 6.82634 9.18999 8.97024 12.238 2.85422 2.81822-5.6555-3.46361-11.63766-8.89129-8.46775m17.40393 11.74855c-1.75028 1.86417-.59642 4.95016 1.85119 4.95016 1.66737 0 2.33471-.35365 2.96509-1.57246 1.55947-3.01506-2.48955-5.85429-4.81628-3.3777" transform="matrix(3.90175 0 0 3.89262 -259.05032 -264.5146)"/>
</svg>
