<svg xmlns="http://www.w3.org/2000/svg" xmlns:xlink="http://www.w3.org/1999/xlink" version="1.0" viewBox="0 0 1024.0001 1023.9999">
  <defs>
    <linearGradient id="b">
      <stop offset="0" stop-color="#fff"/>
    </linearGradient>
    <linearGradient id="a">
      <stop offset="0"/>
    </linearGradient>
    <linearGradient xlink:href="#a" id="c" x1="5e-8" x2="1024" y1="512" y2="512" gradientTransform="translate(.50066424 .50000002) scale(.99902)" gradientUnits="userSpaceOnUse"/>
    <linearGradient xlink:href="#b" id="d" x1="5e-8" x2="1024" y1="512" y2="512" gradientTransform="translate(.50066424 .50000002) scale(.99902)" gradientUnits="userSpaceOnUse"/>
  </defs>
  <path fill="url(#c)" stroke="url(#d)" stroke-linecap="round" stroke-linejoin="round" d="M457.9527 302.66814c-24.31623 4.56318-52.68514 14.97294-74.80615 27.52168-14.5222 8.27077-46.26838 35.64987-59.10195 51.0506-12.83356 15.25813-34.27912 50.76538-40.69591 67.02172-18.57488 47.343-21.44555 102.24377-7.76767 146.16438 7.26109 23.38631 28.36892 54.18778 48.46358 70.87191 11.98926 9.98197 34.44799 21.53251 49.3079 25.5253 31.57733 8.12817 68.22053 8.98375 96.4206 2.13899 53.02288-12.97655 98.27808-42.06683 132.38833-85.55964 22.12102-28.23469 34.27912-52.47659 42.89112-86.27265 4.22157-16.68412 4.5593-20.24911 4.39043-52.19138v-34.22386l-6.24792-19.96392c-12.15811-38.50182-32.75936-67.73471-61.29716-86.84304-28.20006-18.96572-52.34742-26.38088-88.48403-27.37908-16.37968-.4278-24.31622 0-35.46117 2.13899m76.83253 15.97114c1.85749.1426 0 .71299-4.22157 1.28339l-7.59882.9982 8.44313.2852c11.82038.2852 6.41678 2.99458-6.24791 2.99458-10.80722 0-31.74619 2.13899-44.41089 4.56318-11.98925 2.13899-46.43724 14.54514-59.60852 21.24731-28.5378 14.68774-54.3738 38.07405-75.65049 68.59032-12.6647 17.96752-20.93897 35.36465-27.69347 57.46755-2.7018 9.26898-5.23476 16.96934-5.57249 17.39714-1.35089.9982-16.37966-2.70939-16.37966-3.99279 0-.71299 2.36408-8.12816 5.4036-16.68413 14.5222-41.92422 36.6432-75.72028 67.8828-103.81237 15.36651-13.97472 27.01803-21.81771 45.76178-30.94406 38.66955-18.82313 71.42892-24.09929 119.89251-19.39352m-22.79646 24.2419c-3.2084.85559-7.09223 1.71119-8.44313 2.28159-3.37727.9982 13.84672 4.56317 23.64077 4.70577 6.41677.2852 4.55929.8556-10.97608 3.56499-61.9726 11.40795-96.25173 30.08848-128.67337 70.15891-18.91261 23.3863-29.88869 44.20581-34.95456 66.73652l-3.71498 15.68594-6.41678.4278c-3.54612.2852-7.26109-.1426-8.27427-.99819-2.36409-1.9964 4.72815-20.24912 9.4563-24.09931 3.37725-2.7094 4.05271-4.278 3.37725-9.26896-.50658-4.42059.67546-9.12636 4.39044-17.68234 12.15811-27.94947 27.01802-47.05779 52.85402-68.3051 15.70422-12.97656 22.45874-17.25454 37.65637-24.5271 23.9785-11.40796 54.03605-19.82132 70.92233-19.96392 5.06587 0 5.06587 0-.84431 1.2834M308.17151 524.55283c-.16886 3.13718.33773 14.83031 1.18204 25.95308 4.55929 55.61377 21.78329 84.41885 71.42891 119.7835 28.87551 20.53432 28.36893 24.38451-1.3509 12.40615-24.31622-9.69675-56.73786-40.07043-70.92232-66.59393-6.07906-11.12275-12.49584-31.37187-15.19764-47.34299-2.53295-14.54515-3.37727-44.20581-1.51978-48.48381.84433-1.71119 2.87069-2.13899 8.94973-1.85379l7.76769.4278zm39.00728 21.67511c2.7018 43.06502 14.69105 70.7293 42.21567 97.68058 15.8731 15.54333 28.5378 23.81409 49.98337 33.22567 9.79402 4.13538 19.25032 8.98376 20.93896 10.55235 3.20838 2.99459 3.20838 2.99459-5.57248 2.99459-9.28744 0-26.51143-4.99098-37.31865-10.69496-8.10541-4.27798-43.05998-31.94226-50.32108-39.50003-13.17129-13.97475-22.28987-29.80327-30.22641-52.33398-3.37726-10.12457-4.39044-16.54155-5.23474-36.22026l-1.18205-23.81409h15.53537zM671.56399 3.9223858C730.49706 10.33936 774.40137 24.028903 821.85177 50.837591c26.51144 14.830339 32.75936 19.25092 59.94626 42.352024 44.41088 37.646245 77.50796 78.429675 103.17509 126.913465 10.97607 20.96212 22.96528 54.75818 31.23958 88.41163 8.4432 34.93686 9.2875 45.48921 3.8839 49.7672-5.0659 3.85019-9.4563 4.56318-13.1713 1.85379-3.2084-2.42418-4.3905-7.12997-9.45635-36.22024-3.71497-21.67511-17.39285-63.88454-27.35574-85.27445-16.21083-34.50906-48.29473-79.99827-75.65049-107.66255-6.92337-7.12998-16.71741-16.96934-21.78328-22.10291-4.89702-5.13357-11.98925-11.550553-15.70424-14.259941-66.86961-48.911597-129.68653-71.299704-222.22327-79.28527l-11.48266-.855597.33772-6.987371L624.11358.5h7.59883c4.22157 0 22.28987 1.5685935 39.85158 3.4223858m-12.6647 31.9422682c31.91505 5.133578 57.24445 11.407952 82.74272 20.534313 81.72953 29.232878 146.40393 91.834013 188.45073 182.527253 3.03954 6.84476 7.26111 17.39712 9.28745 23.52889 1.85749 6.13177 5.06589 15.25814 6.75452 20.39172 4.0527 10.98015 9.96289 39.35743 9.96289 47.0578 0 4.84838-.50659 5.56139-6.24792 7.55776-3.54611 1.1408-8.94973 2.5668-11.82038 3.1372l-5.57248.99819v-9.26896c0-16.54154-12.15812-61.31774-23.13419-85.84485-15.3665-34.22385-40.69589-71.87009-66.70074-99.39178-47.78814-50.765389-116.51526-83.420652-195.543-93.260012-75.14388-9.268961-154.50933.998197-231.34186 30.088475-57.4133 21.675117-107.73438 51.620977-157.8866 94.115607-58.25761 49.33939-105.03258 102.95677-138.46739 158.99834-21.61442 36.07764-35.461159 66.59392-50.6588 111.94053-18.91262 56.18418-25.83599 104.09757-23.9785 165.84311.67545 17.82493 1.350902 33.93866 1.519765 35.79245.506586 2.9946-.844315 3.85019-10.300625 6.84477-5.910192 1.85379-11.144937 2.99459-11.820387 2.5668-2.364077-2.139-.844312-91.54882 2.195215-116.21851 13.002425-108.37557 59.94625-210.90454 138.298522-301.59776 20.77011-23.95669 19.41922-22.5307 53.69834-54.90077 73.96186-69.73111 154.84708-115.362916 250.08562-140.88821 46.26837-12.548748 74.29957-15.971133 123.77635-15.400737 34.95456.427798 41.54022.855597 66.70075 4.848381M548.12538 74.081295c7.42995 6.274373 6.75451 14.830338-1.85749 20.534314-6.07907 3.992784-11.14494 3.564984-17.224-1.568594-6.58565-5.561377-6.58565-9.83936 0-16.256333 4.05271-3.850184 6.58565-4.990978 10.80721-4.990978 3.20839 0 6.92338.998195 8.27428 2.281591m66.02531 24.954895c24.31621 2.99458 54.54264 11.12276 84.09361 22.38811l11.65152 4.56318-6.75451 7.12997c-3.71497 3.99278-7.09223 7.98556-7.42995 8.84116-.33772.8556-6.24792-.8556-14.01561-4.13538-27.18689-11.40795-61.63487-19.39352-95.06968-22.10291-16.71741-1.28339-20.60125-1.9964-19.75693-3.56497.50659-1.1408.84431-5.27619.84431-9.26899v-7.272555l17.39284.998196c9.45632.570397 22.62762 1.711192 29.0444 2.424189m-92.87449 9.41157c1.35092 9.69675 0 10.98015-13.17128 12.40614-31.91505 3.56497-89.66607 20.24911-123.77634 35.93504-59.94625 27.66429-121.58113 75.5777-164.97883 128.48207-35.7989 43.77802-63.32351 89.12463-81.89841 135.18425-26.00485 64.74013-36.47433 114.79252-36.47433 173.97126 0 26.38089.67544 34.22387 3.88384 49.1968 10.97607 50.4802 28.5378 92.11922 53.3606 125.77268 8.44315 11.40796 8.27429 11.40796-4.72814 16.11373-5.40362 1.85379-6.07907 1.85379-9.11859-1.14078-4.5593-4.27799-17.224-24.24191-25.836-40.78344-48.970167-94.25821-49.645617-202.49117-2.02635-320.99127 18.74377-46.4874 31.40846-69.87371 60.45284-110.79973 34.27914-48.48381 80.20977-95.25641 124.78952-126.91348 22.6276-16.11373 58.42649-36.79064 80.20978-46.4874 41.54021-18.53793 96.58944-33.93866 136.1033-37.93145 1.18204 0 2.53294 3.2798 3.20839 7.98558m216.65082 32.22746c3.2084 5.56137 0 13.11915-7.09223 16.82673-6.58564 3.56498-11.14493 2.99458-14.35333-1.7112-3.20839-4.70577-1.35089-10.40976 4.89702-15.82853 6.41678-5.41878 13.34015-5.13358 16.54854.713m-164.30338 2.42419c21.61442 1.71118 46.77496 6.70217 71.76664 14.25994 29.55097 8.98375 39.34499 12.69135 44.74862 17.11194 6.2479 4.99096 12.49582 7.12996 21.10783 7.12996 6.24791 0 7.26109.71299 15.36649 9.26896 4.72816 5.13359 9.62518 9.69676 10.80722 10.40975 9.28743 4.56318 38.33183 39.64264 51.84083 62.45854l8.94974 15.11554-5.57248 4.13539c-3.03954 2.28158-6.24792 4.13537-7.09223 4.13537-1.85749 0-5.40361-4.42057-22.96533-29.51807-16.21082-23.3863-43.05998-51.76359-48.97018-51.76359-1.01317 0-6.24791-3.27978-11.82038-7.41517-5.40361-3.99277-13.67788-8.69855-18.40603-10.40975-35.46117-13.26174-70.07801-23.5289-92.87446-27.23649-18.91264-3.27978-67.37622-3.70758-82.74272-.85559-53.52947 10.12456-101.14874 26.66608-138.12967 48.34119-89.83495 52.61919-163.62794 139.74741-196.38729 232.15184-9.79405 27.52168-20.09466 83.13546-18.74376 101.10297.50659 6.27438.33773 12.69135-.50659 14.40255-1.68863 3.70758-15.8731 9.26897-24.99168 9.69676-6.24792.2852-6.24792.2852-6.07905-5.13358.16885-2.85199 2.19522-8.98377 4.55929-13.54694 2.36408-4.42059 5.57247-14.83035 7.09223-23.10111 13.84674-72.29789 27.18688-109.23115 58.25762-160.99473 36.81207-61.17514 77.17025-104.81055 135.93445-146.87738 56.06243-40.21304 136.44105-68.87552 206.01248-73.4387 14.52218-.8556 20.93897-.8556 38.83841.5704m-410.67403 17.68232c12.32698 4.42058 17.89944 16.25633 13.00242 28.51989-5.57246 14.25993-30.2264 17.96752-43.22883 6.41697-4.39044-3.85018-4.89702-5.27618-4.89702-13.11915 0-10.69495 4.0527-16.25634 14.69105-20.81951 8.44314-3.56499 13.00242-3.70759 20.43238-.9982m599.96909.713c7.76767 5.13358 28.20006 25.24009 39.85159 38.92964 20.77011 24.81229 42.72226 64.16973 57.9199 103.81237 3.37726 8.84117 6.58564 19.25092 7.09223 22.8159.84432 6.41698.67545 6.70217-6.7545 11.83575-4.22158 2.85199-7.93655 5.27619-8.44314 5.27619-1.3509 0-4.05271-6.98739-11.14493-28.09209-19.25035-56.89716-49.30792-103.38457-86.96428-134.47124-5.23475-4.27799-9.45632-8.41336-9.45632-9.26896 0-2.28159 10.13177-13.54695 12.15812-13.54695.84431 0 3.54611 1.1408 5.74133 2.70939m-189.29506 16.68412c44.07316 6.13178 89.32835 26.5235 123.43861 55.61378 17.89945 15.25813 26.17372 24.38451 40.69591 44.77621 24.82281 34.93686 38.16297 65.59574 46.09951 104.81057 1.85749 9.41155 3.37725 17.82492 3.37725 18.68052 0 1.85379-16.54855 7.98557-18.57489 6.98737-.67545-.28519-1.68863-6.55957-2.19522-13.83215-2.53293-32.08486-16.54855-68.87551-38.50069-100.81778-13.00242-18.96571-24.31622-30.94407-47.78814-50.90798-33.26594-28.09208-63.32349-41.92423-109.08528-50.05239-11.14493-1.99639-21.2767-2.56679-44.7486-2.42419-28.87553.28519-31.57733.5704-54.54265 5.41878-13.34016 2.85198-24.82282 5.13357-25.83599 5.13357-1.85749 0-2.02635-7.12996-.16886-9.55415 3.03952-3.99279 42.55339-13.54696 66.53189-15.97114 15.02878-1.56858 41.03362-.71299 61.29715 2.13898m-16.04196 35.50727c49.47677 8.27076 91.35472 31.79966 126.30928 70.87189 11.65153 13.11916 34.27913 52.04879 42.5534 73.7239 6.92338 17.96754 17.89945 60.03436 16.37968 63.31415-.84431 1.85378-18.06831 7.12996-19.41921 5.98916-.50658-.2852-2.53293-10.40975-4.72815-22.3881-4.55929-25.0975-12.49585-46.20221-26.6803-71.58491-12.15813-21.96031-27.18689-40.07042-46.6061-56.46936-28.36894-24.0993-58.59535-38.21663-94.39424-44.20581-16.88626-2.852-22.6276-3.1372-48.12585-2.42419-30.22643.71299-41.54022 2.42419-69.40257 10.26714-40.52704 11.40797-78.18342 31.79967-114.65775 61.88815-30.73301 25.38269-53.19175 51.05059-71.76666 81.56686-22.45872 36.79065-39.17613 83.27805-45.93063 126.91347-2.02636 13.54696-2.02636 13.54696 2.53293 20.10652 6.75452 9.69675 7.93656 8.55596-16.54854 15.25814-9.45631 2.56679-11.98924 2.85199-13.00242 1.28339-2.36408-3.13718-1.68863-9.12636 1.51977-12.69135 2.36407-2.56679 3.71497-7.98555 5.06587-21.2473 5.57247-49.6246 30.05756-112.36834 61.29716-156.28895 35.79888-50.0524 77.67683-85.84484 134.24582-114.64994 33.9414-17.25452 68.89598-27.37907 107.90325-31.37185 16.21082-1.7112 58.08876-.4278 73.45526 2.13899m-452.21424 37.36104c5.74133 5.27618 6.41678 7.55777 3.54611 12.12094-4.0527 6.98738-14.522183 6.98738-23.978494.2852-6.247918-4.42057-6.585644-7.55776-1.350901-11.55054 7.598821-5.98918 15.70423-6.27438 21.783285-.8556m454.74717 5.27618c38.33184 9.69675 65.68759 26.52349 58.59536 36.07766-1.01317 1.42598-3.88384.57039-11.48266-3.2798-32.25277-16.54154-57.24444-23.38631-89.32836-24.3845-13.509-.42781-22.45873-1.426-23.13418-2.4242-1.68863-2.13897-1.68863-8.69856 0-9.98195.67545-.57039 12.15811-.8556 25.66712-.42779 20.26352.42779 27.1869 1.28339 39.68272 4.42058m-49.47675 25.09749c37.99411 3.70758 81.72954 22.67331 103.68169 45.0614 44.91746 45.77442 64.50555 108.23296 54.88036 174.54168-2.53294 18.11012-13.00242 53.47479-20.43238 69.16073-24.99168 53.33217-80.5475 105.38096-137.62308 128.90986-33.60368 13.97473-54.54265 18.68052-81.56067 18.68052-32.92823 0-59.10194-5.98918-88.48404-20.24912-32.5905-15.68594-52.00972-34.36646-71.59779-68.73291-25.49825-44.91883-30.56414-105.23836-13.34015-162.70593 12.6647-42.35202 40.69592-86.84304 76.32593-120.92429 31.7462-30.51627 72.27323-52.47657 112.29369-60.74735 21.95214-4.56318 40.86476-5.41878 65.85644-2.99459m293.98992 20.96212c1.35091 2.28158 3.37725 6.55956 4.5593 9.69675 1.01316 3.13719 4.22156 10.69497 7.09223 16.96933 5.23474 11.97835 16.54853 45.48921 16.54853 49.33941 0 1.56858-3.88383 3.56497-11.65152 6.13176-6.41678 2.13899-11.98924 3.85019-12.49584 3.85019-.50658 0-1.51976-2.99459-2.02634-6.84478-3.88385-25.09749-8.612-45.06141-12.83358-54.47297-2.87066-5.84657-5.4036-13.68954-6.07904-17.39713-.84432-6.13176-.67546-6.70217 3.88383-8.84116 7.09224-3.13718 10.46949-2.70939 13.00243 1.5686m84.09361 45.917c8.27427 6.98738 8.44313 11.12276.67546 18.39533-9.79404 9.26896-28.0312 11.97836-34.448 5.13356-4.0527-4.42057-4.72815-14.83031-1.3509-20.5343 2.87066-4.70577 12.15811-8.55596 21.2767-8.55596 6.24793 0 8.27428.85559 13.84674 5.56137m70.24687 15.40074c2.19522 6.41697 1.35091 87.98384-1.01317 106.66435-6.07906 49.05419-18.23717 97.53801-34.78571 138.74923-33.43482 83.84845-83.75588 154.72035-156.70457 221.02907-48.8013 44.49102-100.13556 79.14268-154.50933 104.81057-41.2025 19.39352-81.22296 32.22747-133.73926 42.92242l-30.56414 6.27438.5066-10.83756c.50658-12.54875-3.71499-10.26715 33.4348-17.53974 69.40256-13.40433 132.89492-39.35743 190.81482-78.28706 60.28399-40.35563 101.8242-78.28708 148.59915-135.46944 19.92581-24.5271 28.87552-37.50365 46.77497-68.44771 39.34501-68.16253 59.10194-128.90986 67.20734-207.48214 2.70181-26.38088 3.71499-78.71487 1.68863-92.26182-1.3509-8.69856-.84432-9.26895 9.28745-11.97834 9.45631-2.70939 11.65152-2.42419 13.00242 1.85379m-72.10436 38.50184c2.02635 10.12455 2.53295 50.76539.84432 64.45493-9.11859 71.01451-24.82281 121.77989-56.40013 180.95864-17.7306 33.22566-55.89354 83.84845-84.76907 112.22574-9.62517 9.41155-18.5749 18.25273-20.09466 19.67872-1.3509 1.42599-7.42995 6.27436-13.34015 10.69495l-10.80722 7.98557-3.03951-3.27978c-6.24793-6.41699-4.39044-10.55235 10.13175-23.52892 24.31623-21.8177 59.10193-60.60475 73.79299-82.13726 30.22642-44.491 45.76179-74.72208 59.60852-115.22031 18.57491-54.33038 24.48509-88.12643 24.65395-142.17161 0-22.9585.67545-37.50364 1.68863-38.07404.84431-.5704 4.89702-1.1408 8.61199-1.1408h7.09225zm-42.72226 2.85199c4.72816 5.98918 4.05271 60.74734-1.01317 88.12643-11.3138 62.03074-34.11026 120.2113-67.03847 171.11929-21.10784 32.65527-40.86478 56.89715-80.71636 99.39178-13.34016 14.25995-17.89945 18.25273-21.10784 18.25273-4.22157 0-10.30063-3.56498-10.30063-6.13177 0-.71301 4.55929-5.56139 10.30063-10.69496 53.69832-49.48199 102.66851-118.64272 128.33563-181.10126 9.11858-22.3881 19.4192-55.32856 25.16054-80.71124 4.55928-20.24913 7.42995-70.58672 4.897-86.55786-1.01315-6.13176-1.35088-12.26354-.8443-13.40434 1.51975-3.56498 9.11859-2.56679 12.32697 1.7112m-28.20005 10.26715c4.0527 6.55958.16885 64.59753-6.07906 88.55424-2.36408 8.98376-5.40362 21.24731-6.75452 27.09388-6.2479 25.8105-27.18688 76.57588-36.47434 88.83943-3.88383 5.13357-6.07904 6.70217-8.78085 6.41697-2.1952-.2852-3.71498-1.71119-4.0527-3.56498-.33772-1.56859 4.72815-14.40253 11.14493-28.51988 13.34015-29.09028 21.27671-50.62279 23.97849-66.02352 1.18205-5.84658 3.71499-16.82674 5.91021-24.2419 4.05271-14.11735 8.44313-45.34662 9.96289-72.01271.84432-12.40613 1.51977-16.11373 3.88384-17.53973 3.88384-2.42419 5.23474-2.13899 7.26111.9982m-31.23961 26.0957c1.18205 10.83755-2.02635 37.50363-6.92336 58.18055-1.3509 5.84659-3.71498 16.11373-5.06589 22.81592-1.3509 6.70216-5.57247 20.3917-9.28744 30.65886-3.71498 10.12455-7.59883 20.81952-8.61199 23.5289-3.37726 9.26897-16.88628 36.36286-25.32942 50.62279-20.93896 35.36465-45.42406 65.88093-76.49478 95.5416-37.31866 35.50725-56.23128 49.6246-96.25173 71.7275-22.62759 12.26355-79.53432 32.65527-83.08044 29.66068-.50659-.42779-1.35089-3.85019-1.85748-7.70036l-.67545-6.84479 16.54854-4.70577c36.13661-10.26715 63.66122-22.5307 90.17267-39.92783 68.72711-45.06141 124.62065-107.37735 155.1848-173.25827 20.26352-43.35022 37.65636-115.79074 35.12342-146.0218-1.01317-11.26536-.84431-11.83576 2.70181-13.11915 2.02636-.713 5.74134-1.28339 8.27427-1.28339 4.39044-.1426 4.39044.1426 5.57247 10.12456m-42.38452 9.98196c3.88383 12.69134-5.74133 71.1571-17.39287 105.23836-9.11857 26.66608-11.65152 32.22747-24.31622 54.18778-10.63835 18.53791-33.60367 49.62458-49.81448 67.7347-11.14495 12.26356-39.17614 36.50545-56.56901 48.6264-66.70075 47.20041-148.59915 70.58671-213.27355 61.17514-57.75104-8.55596-108.91643-37.93143-147.24825-84.56144-26.00486-31.51447-44.91747-78.00188-50.15223-123.06328-1.01317-9.12638-1.01317-9.26897 3.71499-11.12275 6.07905-2.4242 14.0156-4.42058 14.0156-3.56499 0 6.13177 4.55928 32.22746 7.76768 44.63362 8.44313 31.94226 19.08148 53.33217 39.17614 78.71485 54.37378 68.59033 129.8554 94.97123 217.66399 76.14809 15.8731-3.42238 51.67198-16.25633 70.92233-25.52528 27.5246-12.97656 54.20492-30.51628 75.81935-49.7672 65.18099-57.61016 104.69485-136.03984 108.57869-216.3233l1.01318-22.1029 5.91019-1.7112c9.11858-2.70939 13.00243-2.28159 14.18447 1.2834m-577.3415 146.59218c5.06589 34.79426 17.73058 74.57949 31.57733 99.96219 13.67788 24.66969 45.08633 59.32135 70.078 77.43147 35.2923 25.3827 69.90916 37.36105 118.03502 40.92604 21.2767 1.56859 42.04681.85559 56.40012-1.8538 2.02636-.2852 2.70181 1.426 3.03954 7.55777l.50658 8.12816-14.85992 1.7112c-46.43723 5.56138-104.86372-5.27618-146.57279-27.37908-44.24203-23.52891-89.49722-72.29791-109.42302-118.07232-11.82039-26.95129-26.51144-84.84665-26.51144-104.24017 0-2.42418 11.48266-5.98916 13.84673-4.27798.5066.42781 2.36408 9.55417 3.88385 20.10652m-32.42163-3.27979c10.30061 70.01632 23.9785 107.09216 55.2181 149.44418 5.57246 7.55777 10.13176 14.54515 10.13176 15.68594 0 2.42419-6.41678 6.41697-10.30062 6.41697-4.05272 0-14.85993-14.25994-28.5378-37.78884-13.34014-22.95851-19.9258-37.93144-27.86234-64.16973-5.91019-19.96392-15.36651-70.44411-13.84675-74.15169.67545-1.426 3.20839-2.13899 7.59884-2.13899h6.58563zm617.5308 49.482c0 4.70578-4.22157 12.69134-13.17128 25.0975-11.14494 15.40073-36.47434 45.917-48.46359 58.60835-5.57247 5.84658-15.19764 16.11373-21.2767 22.81591-34.61684 37.07584-77.67682 67.59211-121.41225 86.13005-37.31866 15.82851-71.76665 25.81048-103.85056 29.94587-27.35575 3.70758-69.06483 2.42419-95.74514-2.70939-42.89112-8.27077-82.57385-26.09569-112.63139-50.4802l-13.67789-10.98015 2.19522-5.98918c1.18203-3.27978 2.53294-6.41697 3.20839-6.98737.67544-.4278 5.57247 2.56679 10.97607 6.98737 48.80131 38.92964 98.27808 55.61377 165.14771 55.47117 30.39527 0 49.13903-2.13899 76.8325-9.12635 65.01213-16.25634 111.7871-40.78343 162.4459-85.13185 31.2396-27.37909 59.43967-58.75095 88.48404-98.5362 14.01561-19.25092 20.93897-24.24189 20.93897-15.11553M56.228402 696.38511c20.094659 66.16612 50.321068 117.3593 95.576278 161.70773 16.88627 16.54152 51.5031 43.20762 71.59776 55.32856 48.29474 29.23288 104.526 45.6318 167.68064 49.0542l17.89944.9982v19.96391l-21.61442-.8556c-56.90672-2.28159-115.67092-19.25091-167.3429-48.05601-43.56657-24.38449-91.18585-65.73831-122.763168-106.94955-9.287447-12.12094-24.822813-39.50004-36.136612-63.45674-8.274271-17.82492-26.680303-65.88091-28.031205-73.86648-.844313-4.27798-.337726-4.70578 7.261095-7.70037 4.39043-1.5686 8.780859-2.85199 9.45631-2.70939.844314.1426 3.714979 7.55777 6.416782 16.54154m-45.761784-3.99279c5.741329 16.68412 22.79646 61.88815 29.382105 77.85927 5.910193 14.25995 31.408458 58.18056 43.228844 74.4369 17.392853 23.9567 61.972603 66.73652 88.652903 85.27444 48.63246 33.65347 103.68169 57.18237 153.66504 65.88093 28.70664 4.99094 60.79056 8.55594 93.04334 10.55234 33.77252 1.9964 39.85158 3.4224 42.04681 9.554.67544 1.4261 2.02633 2.7095 3.03951 2.7095 1.18204 0 .67545.713-1.01318 1.5686-5.4036 2.7094-41.03362 4.1353-66.86962 2.7094-89.15949-4.8484-162.27701-29.66063-231.51072-78.57222-23.13419-16.25635-48.97018-37.78886-58.93307-49.05421-3.37726-3.85019-13.846742-15.82852-23.303051-26.38088-28.875518-32.65527-40.695906-51.19319-59.946251-94.11561-18.7437555-41.78163-27.8623399-92.68962-16.3796781-92.68962.6754507 0 3.0395282 4.70578 4.8970181 10.26716m315.773202 18.96573c11.82039 8.27076 24.31622 13.68953 43.05998 18.96571 21.61442 5.98918 37.48752 7.98557 60.95943 7.84297 19.92579-.2852 20.60125-.1426 21.61441 2.85199 2.19522 6.84477 1.18204 9.12636-4.22156 10.12455-11.3138 1.8538-46.26836.8556-61.46601-1.85379-16.88627-2.99459-39.68273-10.98015-57.58217-20.10651-15.02878-7.70038-17.56173-9.69676-17.56173-13.68955 0-3.56498 3.2084-10.55235 4.89703-10.55235.50658 0 5.23474 2.85199 10.30062 6.41698m614.82899 59.03614c5.40362 4.56318 5.91021 6.70218 3.03954 11.97836-4.72816 8.69856-19.25034 9.26895-24.31623.99819-3.54611-5.84658-3.20838-8.55596 2.02636-13.11915 6.07906-5.27617 12.6647-5.27617 19.25033.1426m-757.85568 23.9567c4.72817 4.56318 5.06589 9.55417 1.18203 17.25453-4.897 9.69677-9.96289 13.40435-17.05511 12.83395-5.06589-.4278-6.07907-1.14079-8.27428-6.41698-2.19522-5.41877-2.02635-6.55957.33771-10.83756 4.22157-7.55775 13.00244-15.25813 17.22401-15.25813 2.19522 0 5.06588 1.1408 6.58564 2.42419m470.78915 19.53612c7.26109 13.97474 7.93654 12.97655-17.39286 28.94769-35.29231 22.3881-56.90672 32.94045-95.23856 46.4874-55.38695 19.67872-94.0565 26.09569-152.65185 25.81048-27.35575-.1426-50.32107-3.27977-76.32594-10.55235-14.8599-4.13537-52.17856-19.82131-66.70075-28.09209-19.58807-11.12274-43.39771-28.23467-46.77495-33.65344-3.20839-4.70578-3.20839-5.27618-.5066-11.26536 5.06588-10.69495 4.39043-10.83756 21.78329 3.85018 34.44799 28.66249 89.49722 51.76359 138.46739 57.89535 17.73059 2.2816 65.18099 2.2816 84.09361 0 45.93066-5.56136 99.62898-22.2455 142.0135-43.92061 16.21083-8.27076 46.94385-27.80688 55.55583-35.22205 4.05271-3.56498 8.10541-6.55958 8.94973-6.55958.67546 0 2.87067 2.852 4.72816 6.27438m221.71668 21.38991c13.34016 8.55597 17.39286 24.24191 9.45633 36.36285-6.58566 9.83936-11.65154 12.26355-25.32941 12.26355-10.13176 0-12.49584-.57039-18.91262-4.27797-9.45631-5.56139-13.17129-11.97836-13.17129-22.53072 0-11.69315 5.06587-18.82312 17.73058-24.5271 7.93654-3.56499 22.62759-2.28159 30.22641 2.70939m-440.56271 91.54882c7.59881 6.84478 4.39043 18.68053-6.24792 23.52891-4.05271 1.85379-9.11859-1.426-12.49585-8.12816-4.0527-8.27078 2.53295-19.10832 11.65153-19.10832 1.68862 0 4.89701 1.71118 7.09224 3.70757"/>
</svg>
