<svg xmlns="http://www.w3.org/2000/svg" viewBox="0 0 353.105 352.703">
  <path fill="#0b0b0b" d="M248.758.22c-35.53.14-89.98.474-121 .741-31.02.267-68.37.543-83 .613-32.495.155-32.683.185-38.742 6.165C-.404 14.075-.104 11 .064 69.027.666 276.451 1.218 335.918 2.57 338.508c.32.616.584 1.33.586 1.587.008 1.633 6.167 9.332 7.466 9.332.258 0 .529.135.603.3.177.4 2.672 1.7 3.265 1.702.258.002 1.008.292 1.668.645 1.46.781 100.2.851 165.4.117 21.01-.237 64.12-.577 95.8-.756 48.068-.272 57.997-.422 60-.905 2.812-.678 5-1.549 5-1.99 0-.172.188-.313.417-.313.976 0 4.898-3.472 6.31-5.585 4.027-6.03 4.264-8.147 3.899-34.79-.161-11.784-.462-59.405-.668-105.825-.696-156.713-.964-183.547-1.863-186.847-1.52-5.573-5.36-10.548-9.748-12.627-6.216-2.945 2.978-2.712-91.947-2.334m87.024 6.595c.427.323 1.012.593 1.3.6.87.021 4.076 2.677 5.434 4.501 2.494 3.35 2.366 1.571 2.709 37.512.736 77.034.96 121.821.612 122.292-.276.374-4.762.524-18.621.625-10.042.073-47.031.367-82.198.654-46.32.377-64.205.4-64.9.083l-.96-.437.004-58.108c.002-31.96-.2-68.96-.45-82.223-.43-22.864-.416-24.154.254-24.895.857-.946 1.397-.953 94.216-1.096 53.84-.083 61.923-.019 62.6.492m-163.804.437c.697.84.619-5.993.974 84.654l.317 81.08-.955.21c-.526.115-21.476.305-46.556.422-25.08.116-62.017.318-82.083.448l-36.483.236-.24-.955c-.383-1.527-.86-66.744-.826-112.919l.032-42.4 1.165-2.3c1.24-2.45 4.025-5.275 6.269-6.36 4.263-2.06.405-1.936 61.274-1.994 31.07-.03 62.252-.176 69.292-.325 24.349-.513 27.243-.492 27.82.203m123.18 31.69c-.55.37-1.09.78-1.2.908-.11.13-.56.38-1 .554-.544.215-.632.38-.277.512.288.107.857-.107 1.264-.476 2.07-1.874 7.613.471 7.613 3.222 0 .311.168.566.373.566s.496.405.646.9c.15.495.703 1.473 1.227 2.173.525.701.954 1.444.954 1.651 0 .208.27.602.6.876 1.878 1.56-.401 7.2-2.91 7.2-.215 0-.616.27-.89.6-1.58 1.904-5.77.086-7.244-3.144-.508-1.114-1.157-2.192-2.204-3.664-.466-.656-.973-1.597-1.126-2.092-.154-.495-.44-.9-.635-.9s-.478-.659-.63-1.464c-.303-1.619.732-4.136 1.702-4.136.295 0 .537-.264.537-.587 0-.834-1.177-.309-2.39 1.065-1.243 1.411-1.63 1.403-3.673-.078-2.477-1.794-5.831-1.509-8.247.7-.301.275-.79.5-1.085.5-.296 0-.598.14-.672.312-.178.418-8.162 5.288-8.668 5.288-.22 0-.458.153-.532.34-.073.188-.886.773-1.807 1.3-.921.528-3.621 2.158-6 3.621-5.363 3.3-6.96 4.254-7.726 4.615-.33.156-.78.44-1 .63-.22.19-2.194 1.46-4.387 2.82-4.928 3.058-5.917 4.346-5.74 7.471.12 2.088.075 2.21-.873 2.337-1.746.234-1.876.865-.18.873 1.432.006 3.38 1.244 3.38 2.15 0 .132 1.26 2.287 2.8 4.788 4.124 6.695 3.835 8.22-2.127 11.236l-2.198 1.112-1.633-.918c-.898-.504-1.737-1.245-1.865-1.646-.127-.4-.393-.729-.591-.729-.414 0-.036 1.181.592 1.851.232.248.687.833 1.01 1.3.936 1.35 3.999.946 5.612-.742.11-.115.853-.54 1.65-.946.799-.405 2.025-1.26 2.726-1.9 1.429-1.305 1.739-1.385 2.495-.647 1.955 1.91 4.957 2.504 6.553 1.297.427-.323 1.076-.593 1.443-.6.366-.007.726-.153.8-.325.185-.434 8.172-5.288 8.702-5.288.237 0 .43-.177.43-.392 0-.216.45-.506 1-.644s1-.41 1-.607.54-.357 1.2-.357c1.316 0 1.53-.429.6-1.2-.33-.274-.6-.746-.6-1.049 0-.303-.18-.55-.4-.55-.22 0-.4.347-.4.772 0 .676-3.117 2.913-7.3 5.238-.384.214-1.014.57-1.4.792-.384.221-.97.523-1.3.67-.33.148-.69.376-.8.507-1.488 1.776-5.792 2.187-8.173.782-1.174-.692-3.826-3.882-3.826-4.6 0-.11-.668-1.227-1.485-2.48-1.601-2.458-1.746-2.705-3.652-6.19-2.016-3.687-1.453-7.148 1.479-9.11.802-.536 1.548-1.092 1.658-1.235.11-.143.92-.65 1.8-1.13a60.09 60.09 0 0 0 2.8-1.633c.66-.419 1.92-1.15 2.8-1.626.88-.476 1.69-.976 1.8-1.112.24-.295 1.497-1.094 2.6-1.653.44-.223 1.34-.76 2-1.195.66-.434 1.47-.91 1.8-1.059.33-.148 1.136-.645 1.792-1.104a32.235 32.235 0 0 1 3.608-2.224c.44-.232 1.34-.782 2-1.222.66-.439 1.515-.907 1.9-1.04s.7-.38.7-.549c0-.169.315-.416.7-.549.385-.133 1.24-.6 1.9-1.04.66-.44 1.56-.984 2-1.21.44-.226 1.43-.8 2.2-1.275 3.5-2.16 7.91-.487 10.205 3.874.347.66.98 1.74 1.408 2.4.428.66.899 1.47 1.048 1.8.148.33.645 1.136 1.104 1.792 3.053 4.357 3.988 7.357 2.98 9.567-.986 2.166-2.982.91-2.514-1.583.19-1.02-.151-1.877-1.923-4.809-1.186-1.962-2.283-3.837-2.437-4.167-.154-.33-.593-1.069-.975-1.64a88.29 88.29 0 0 1-1.696-2.698c-.55-.91-1.166-1.657-1.37-1.659-.201-.002-.684-.29-1.072-.64-.684-.62-3.151-.488-3.163.17-.002.146-.767.624-1.7 1.061-.932.437-1.785.896-1.895 1.022-.11.125-3.26 2.068-7 4.318-3.74 2.25-7.07 4.266-7.4 4.48-.33.215-.87.512-1.2.66-.33.147-.69.378-.8.514-.11.135-2.09 1.374-4.4 2.752a539.377 539.377 0 0 0-4.8 2.886c-.33.208-.87.5-1.2.647-.33.148-.69.373-.8.502-.11.128-.92.7-1.8 1.268-2.973 1.925-3.218 4.357-.78 7.757.474.66 2.048 3.19 3.498 5.62 3.787 6.35 4.905 6.722 10.082 3.367.66-.428 1.47-.899 1.8-1.048.33-.148 1.136-.645 1.792-1.104 1.392-.976 2.567-1.692 3.408-2.08.33-.152.909-.542 1.287-.866.384-.33 1.063-.49 1.54-.366.779.204.83.11.579-1.05-.575-2.645-.676-6.396-.201-7.43.264-.574.765-1.673 1.114-2.443.703-1.553 3.602-4.8 4.284-4.8.24 0 .647-.21.904-.467 1.29-1.29 8.445-2.182 9.093-1.133.136.22.642.402 1.124.404.956.004 3.878 2.161 5.374 3.967 6.507 7.854.576 20.03-9.757 20.03-2.906 0-8.141-1.842-8.141-2.865 0-.185-.315-.329-.7-.32-1.596.037 4.22 3.984 5.87 3.984.634 0 1.592.916 3.644 3.483.212.266.386.656.386.868 0 .211.25.894.556 1.517 1.556 3.171 2.264 8.602 1.504 11.532l-.774 3c-1.008 3.922-5.456 10.037-8.143 11.193-.52.223-1.213.565-1.543.76-4.207 2.486-10.865 3.247-14.076 1.608-2.132-1.087-1.478-1.547 2.216-1.555 2.545-.006 2.82-.094 3.9-1.248l1.16-1.243v-6.377c0-7.814-.253-8.546-3.097-8.975-1.047-.158-12.973-.17-26.503-.026l-24.6.262-.9 1.023c-1.447 1.645-1.383 13.94.08 15.52l.982 1.058h6.845c7.507 0 7.909.1 9.22 2.295.496.828 1.592 2.422 2.437 3.542 1.807 2.397 1.819 2.481.529 3.705-1.55 1.471-1.53 11.478.027 13.52l1.02 1.338h31.193c36.372 0 35.229.137 35.09-4.2-.044-1.389-.072-1.434-.21-.344-.101.811-.68 1.732-1.634 2.6l-1.477 1.344h-30.041c-36.431 0-33.361.716-33.361-7.786v-4.426l1.3-1.38 1.3-1.382 28.4-.045c37.198-.059 33.23-.18 34.303 1.044.493.564 1.01 1.51 1.15 2.1.23.982.255.955.283-.325.022-.994-.303-1.79-1.122-2.748-1.117-1.307-1.087-3.252.05-3.252a.346.346 0 0 0 .336-.354c0-.195.72-1.433 1.6-2.75.88-1.319 1.6-2.527 1.6-2.686 0-.159.285-.946.633-1.75.349-.803.889-2.05 1.2-2.774.312-.722.57-1.712.573-2.2.003-.487.265-1.606.582-2.486.808-2.24.808-13.76 0-16-.317-.88-.58-1.999-.582-2.486-.006-.945-.627-2.51-2.462-6.217-1.588-3.205-1.988-3.89-3.244-5.555-.605-.8-1.1-1.576-1.1-1.72 0-.147-.516-.818-1.147-1.493-1.617-1.73-2.96-8.66-1.832-9.45.94-.66 1.779-2.57 1.779-4.057 0-1.428.122-1.633 1.1-1.845 1.432-.31 2.69-.912 4.9-2.34 4.609-2.98 4.986-4.296 2.4-8.39-.88-1.393-1.6-2.739-1.6-2.99 0-.25-.177-.457-.392-.457-.216 0-.506-.45-.644-1s-.37-1-.516-1c-.147 0-.612-.675-1.035-1.5-1.922-3.752-4.276-4.957-6.613-3.386m-222.453.36c-1.164.188-3.01 1.738-4.063 3.412-.567.9-.685 2.13-.69 7.2-.007 7.26-.112 7.55-2.241 6.223-.854-.532-1.823-1.092-2.153-1.243-.33-.152-1.41-.745-2.4-1.318-6.2-3.588-7.087-3.856-8.811-2.664-1.635 1.13-2.266 2.026-5.013 7.116-1.48 2.743-3.068 5.542-3.97 7-.475.77-.99 1.67-1.14 2-.152.33-.825 1.5-1.496 2.6-.67 1.1-1.427 2.495-1.682 3.1-.255.605-.604 1.1-.776 1.1-.171 0-.312.257-.312.571 0 .315-.225.812-.5 1.107-3.517 3.76-2.486 8.947 2.188 11.01.832.366 1.512.811 1.512.99 0 .177.324.322.72.322.396 0 .92.201 1.166.446.566.566 2.002 1.401 3.398 1.975 1.156.476 1.946 2.036 1.162 2.297-.253.084-.714.407-1.025.718-.31.31-.693.564-.851.564-.6 0-8.412 4.951-9.27 5.875-1.246 1.342-1.207 3.855.095 6.162.547.97 1.12 2.024 1.273 2.343.248.515 2.758 4.834 3.732 6.42.889 1.448 5.135 8.73 5.832 10 .423.77.872 1.49 1 1.6.128.11.664 1.074 1.192 2.143 2.076 4.2 5.736 5.801 8.376 3.664.33-.267.87-.61 1.2-.762.33-.152.96-.496 1.4-.766 8.234-5.034 7.972-5.09 8.072 1.765.164 11.237.025 11.156 18.97 11.156 20.086 0 20.49-.238 20.33-11.983-.08-5.87-.275-5.758 4.909-2.854.945.53 2.169 1.214 2.719 1.521.55.307 1.72.99 2.6 1.52 3.959 2.38 6.956.628 9.93-5.804.152-.33.657-1.23 1.12-2 .466-.77 1.486-2.57 2.268-4 .783-1.43 1.749-3.14 2.147-3.8.399-.66.902-1.56 1.119-2 .216-.44.932-1.7 1.59-2.8 5.326-8.9 5.498-12.197.726-13.888-.605-.215-1.1-.553-1.1-.75 0-.2-.177-.362-.393-.362-.216 0-1.521-.68-2.9-1.51-1.38-.832-3.002-1.728-3.607-1.992-1.793-.784-1.41-1.86 1.2-3.369 1.265-.73 2.66-1.55 3.1-1.823.44-.27 1.115-.607 1.5-.746s.7-.393.7-.563c0-.17.405-.414.9-.54 5.41-1.382 5.375-5.837-.114-14.257a11.02 11.02 0 0 1-.663-1.2c-.15-.33-.924-1.68-1.723-3-.8-1.32-1.577-2.67-1.73-3-.154-.33-.635-1.14-1.07-1.8-.435-.66-.917-1.47-1.071-1.8-.154-.33-1.236-2.18-2.405-4.114-1.168-1.933-2.124-3.672-2.124-3.865 0-1.996-4.711-3.055-7.206-1.618a53.068 53.068 0 0 1-2.394 1.295c-.55.271-1.238.72-1.53.997-.29.278-.784.505-1.1.505-.313 0-.57.168-.57.373s-.405.496-.9.646c-.495.151-1.467.698-2.16 1.217-1.837 1.376-2.06.79-2.21-5.84-.144-6.424-.84-8.763-3.05-10.263-1.036-.703-28.011-1.265-31.733-.66m29.489 2.868c3.298 2.053 3.764 3.427 3.764 11.1 0 4.106.15 6.56.4 6.56.22 0 .4-.149.4-.33 0-.18.765-.73 1.7-1.222.935-.49 2.24-1.23 2.9-1.643 8.955-5.603 12.513-4.543 17.435 5.194.5.99 1.016 1.89 1.147 2 .418.354 1.659 2.42 3.02 5.032.729 1.398 1.679 3.044 2.11 3.655.73 1.032 1.996 3.661 2.646 5.49.743 2.093-2.677 8.223-4.588 8.223-.307 0-4.593 2.437-6.37 3.623-.33.22-.922.508-1.316.64-1.244.415-.352 1.377 2.716 2.93.44.223 1.07.573 1.4.777.33.205.87.482 1.2.617 1.866.76 5.44 3.364 5.939 4.326 1.895 3.655 1.68 5.465-1.208 10.194-.842 1.38-1.531 2.588-1.531 2.686 0 .098-.81 1.513-1.8 3.143-.99 1.631-1.8 3.074-1.8 3.208 0 .133-.72 1.418-1.6 2.856-.88 1.438-1.6 2.75-1.6 2.914 0 .698-3.726 4.486-4.412 4.486-.413 0-1.21.21-1.77.464-.783.358-1.408.347-2.718-.047-2.247-.676-2.308-.702-3.7-1.599-1.33-.857-2.373-1.452-4.902-2.796-.936-.498-1.802-1.066-1.924-1.263-.96-1.554-1.288-.115-1.443 6.341-.18 7.517-.348 8.038-3.275 10.16l-1.576 1.14H88.245c-17.982 0-18.18-.122-18.46-11.43-.081-3.284-.166-6.133-.188-6.332-.021-.199-.368-.064-.77.3-.403.364-.85.662-.993.662-.144 0-1.39.69-2.77 1.533-6.803 4.16-8.525 4.624-11.63 3.138-1.431-.687-5.076-4.978-5.076-5.977 0-.23-.45-1.008-1-1.73-.55-.72-1-1.406-1-1.523 0-.117-.967-1.808-2.15-3.757-2.005-3.309-4.091-6.948-5.32-9.284-.906-1.725-.674-5.202.46-6.87.794-1.17 6.375-5.13 7.228-5.13.104 0 .934-.54 1.845-1.2.912-.66 1.9-1.2 2.197-1.2.595 0 .686-.385.234-1-.162-.22-1.51-1.024-2.994-1.787-1.485-.763-2.7-1.528-2.7-1.7 0-.172-.257-.313-.571-.313-.315 0-.81-.227-1.1-.505-.291-.277-1.018-.72-1.616-.985-2.708-1.198-4.874-7.784-3.135-9.53.209-.209 1.035-1.639 1.837-3.179.802-1.539 1.576-2.889 1.72-3 .146-.11.599-.83 1.006-1.6a164.786 164.786 0 0 1 4.726-8.308c.843-1.379 1.539-2.639 1.546-2.8.027-.595 1.47-2.009 3.097-3.036 2.714-1.714 5.68-1.219 10.49 1.75 2.249 1.388 6.043 3.593 6.18 3.593.093 0 .225-3.12.294-6.933.14-7.784.437-8.616 3.857-10.857l1.469-.963 12.7-.023 12.702-.024 1.834 1.141m191.685 1.694c-1.687 1.38-1.685 1.395.553 5.072.839 1.38 1.526 2.684 1.526 2.9 0 .216.168.393.373.393s.493.38.64.843c.55 1.734 3.387 3.45 3.387 2.048 0-.17.63-.648 1.4-1.063 1.816-.978 1.807-1.945-.045-4.688-.794-1.177-1.612-2.5-1.817-2.94-1.914-4.109-3.368-4.729-6.017-2.565m-218.963.664c-2.374 1.138-2.558 1.93-2.558 11.04 0 9.304-.083 9.497-3.2 7.473-1.555-1.009-5.996-3.56-7.723-4.437a218.103 218.103 0 0 1-3.2-1.656c-2.801-1.493-5.246-.087-7.477 4.301-.55 1.081-1.225 2.207-1.5 2.501-.275.295-.5.7-.5.901 0 .2-.687 1.492-1.526 2.871-.84 1.38-1.652 2.777-1.805 3.107-.154.33-.822 1.5-1.486 2.6-.663 1.1-1.37 2.388-1.57 2.861-.2.474-.555.98-.788 1.124-1.445.893-.121 5.212 1.956 6.38.426.24 1.549.86 2.497 1.38.947.518 1.812 1.058 1.922 1.2.11.14 1.07.706 2.134 1.255 1.064.55 2.909 1.507 4.1 2.128 3.035 1.58 2.889 2.17-1.126 4.534-1.81 1.066-3.595 2.118-3.966 2.338-.371.22-1.524.85-2.564 1.4-6.632 3.504-6.775 4.936-1.385 13.8.802 1.32 1.589 2.67 1.749 3 .159.33.507.96.774 1.4.266.44 1.114 1.88 1.884 3.2.77 1.32 1.618 2.76 1.884 3.2.267.44.618 1.07.78 1.4 1.52 3.086 4.85 3.556 8.536 1.205 1.266-.807 5.828-3.47 6.4-3.735.33-.154 1.14-.635 1.8-1.07 3.69-2.432 3.8-2.25 3.802 6.35.004 12.4-1.022 11.62 15.302 11.637l12.703.013 1.297-1.239 1.296-1.239-.122-7.945c-.17-10.959-.591-10.618 7.322-5.937 1.1.65 2.446 1.37 2.992 1.596.545.228 1.085.538 1.2.69.114.151 1.08.701 2.147 1.222 3.63 1.773 5.89.77 8.213-3.648a98.13 98.13 0 0 1 2.082-3.7c.654-1.1 1.375-2.446 1.602-2.992.228-.545.538-1.085.689-1.2.15-.114.566-.748.923-1.408 2.184-4.048 3.333-6.095 3.81-6.789 2.035-2.963-.59-6.51-7.058-9.54-.33-.155-1.5-.826-2.6-1.492s-2.5-1.403-3.108-1.637c-.937-.36-1.892-1.405-1.892-2.07 0-.1 2.198-1.507 4.884-3.127 6.419-3.87 6.383-3.85 7.35-4.293 3.529-1.617 3.72-4.996.556-9.852-.43-.66-.907-1.47-1.061-1.8-.154-.33-1.202-2.13-2.33-4-1.126-1.87-2.18-3.67-2.34-4-.16-.33-.508-.964-.775-1.408a885.817 885.817 0 0 1-1.656-2.794c-2.244-3.803-4.463-4.386-8.308-2.184-1.166.668-2.57 1.431-3.12 1.696-.55.264-1.238.708-1.53.985-.29.278-.722.505-.961.505-.238 0-1.023.45-1.745 1-.721.55-1.573 1-1.895 1-.321 0-.692.282-.824.627-.157.41-.624.582-1.343.5l-1.102-.127-.101-8c-.157-12.41.62-11.82-15.431-11.748-9.425.042-11.907.166-12.91.647m15.34 12.716c5.126 2.142 5.983 8.12 1.708 11.92-.98.87-1.221 1.352-1.04 2.075.13.517.056 1.053-.165 1.19-1.143.706-.006 1.001 3.899 1.013 5.75.017 7.572 1.476 5.564 4.46l-.894 1.327-4.485.113c-4.311.11-4.933.277-4.107 1.107.208.21.433 1.46.5 2.78l.122 2.4 1.4.12c3.098.262 7.24 3.551 7.772 6.168.659 3.248.663 3.902.04 5.751-1.223 3.627-5.1 6.561-8.67 6.561-1.324 0-1.595.107-1.222.48.272.272.48 1.573.48 3v2.52h2.164c5.42 0 5.789 5.943.384 6.178l-2.348.103-.208 2.301c-.492 5.437-6.252 5.552-6.154.123.042-2.337-.24-2.69-2.146-2.699-2.13-.01-6.492-3.25-6.492-4.822 0-.343-.208-.832-.463-1.087s-.478-1.523-.496-2.817c-.065-4.845 3.14-8.435 8.478-9.49 1.066-.212 1.23-.368.86-.816-.308-.37-.367-1.35-.18-2.964l.28-2.41H82.78c-7.312 0-11.668-9.265-6.948-14.779 2.21-2.583 4.119-3.62 6.655-3.62h2.147l-.115-1.5a107.89 107.89 0 0 1-.138-2c-.013-.276-.285-.5-.604-.5-.318 0-1.076-.653-1.684-1.449-4.195-5.5 1.805-13.393 8.162-10.737m189.219 6.31c-.816.265-1.707.705-1.98.978-.274.274-.641.497-.817.497-.432 0-1.92 1.512-1.92 1.951 0 .193-.246.555-.546.804-1.64 1.361-1.636 7.753.007 9.676.296.348.539.761.539.92 0 .583 2.199 2.3 3.924 3.063 4.742 2.097 9.902.034 12.776-5.109 3.618-6.472-4.561-15.196-11.983-12.78m-42.517 13.287-1.7 1.243c-1.164.85-1.134 1.396.187 3.453a62.458 62.458 0 0 1 1.833 3.053c2.41 4.393 3.876 5.483 5.366 3.993.246-.246.865-.655 1.377-.91 1.513-.755 1.319-1.486-1.743-6.587-3.062-5.098-3.586-5.516-5.32-4.245m60.218.488c1.713 2.012 4.985 8.293 5.679 10.9.205.77.652 2.48.995 3.8 1.318 5.082.879 17.344-.701 19.6-.155.22-.407.927-.561 1.571-.308 1.284-2.141 5.175-3.541 7.517-2.47 4.13-3.831 5.512-5.432 5.512-1.815 0-1.671-1.378.35-3.37.876-.864 1.593-1.809 1.593-2.1 0-.292.18-.53.4-.53.22 0 .4-.257.4-.57 0-.316.225-.813.5-1.108.464-.495 1.206-1.953 2.505-4.922.517-1.18 1.318-4.336 2.165-8.53 1.18-5.842-.575-15.704-3.8-21.355-.537-.943-1.087-2.03-1.22-2.415-.134-.385-.388-.7-.565-.7-.472 0-.886-2.25-.588-3.19.316-.996 1.03-1.038 1.82-.11m-66.274.697c-.488 1.046.043 3.35.99 4.296.257.257.467.712.467 1.011 0 .3.172.437.383.307.435-.269.088-1.47-.548-1.893-.232-.154-.515-1.276-.63-2.49-.188-2.027-.243-2.13-.662-1.23M81.458 80.13c-2.328 1.444-1.134 5.294 1.686 5.435l1.238.062.097-3.1c.109-3.474-.502-3.959-3.021-2.397m151.7 4.064c0 .745.493 1.622.804 1.43.408-.252.02-1.797-.451-1.797a.361.361 0 0 0-.353.367m1.2 2.16c0 .316.27.8.6 1.073.33.274.6.746.6 1.05 0 .302.18.55.4.55.586 0 .488-.655-.2-1.343-.33-.33-.6-.782-.6-1.005 0-.223-.18-.516-.4-.652-.22-.136-.4.011-.4.327m52.115.645c.543.645 1.347 1.95 1.787 2.9 1.937 4.185 2.098 4.992 2.098 10.528 0 5.424-.07 5.803-1.91 10.4-.731 1.825-3.96 6.406-5.357 7.6-3.476 2.971-8.382 5.8-10.06 5.8-.502 0-1.113.2-1.357.444-.627.627-10.383.65-11.006.026-.26-.259-.94-.47-1.514-.47-.573 0-1.392-.264-1.82-.587-.427-.323-.998-.593-1.27-.6-1.491-.039-6.315-3.75-5.851-4.502.412-.667 3.024-.27 4.545.69.87.55 1.785 1 2.03 1 .246 0 .924.25 1.508.554 5.309 2.778 13.998 1.748 20.068-2.379 3.024-2.056 5.875-5.387 7.338-8.576 3.01-6.558 2.33-15.955-1.517-21-1.85-2.426.324-4.162 2.288-1.828M90.819 94.17c.09 1.565-.046 2.558-.412 3-.835 1.005 2.377.934 3.289-.073 1.707-1.887.32-5.269-2.161-5.269-.786 0-.84.178-.716 2.341m174.993 8.204c2.469 2.124 1.817 12.62-.88 14.148l-1.574.894-23.353.006c-28.998.01-26.478.824-26.42-8.543.053-8.142-2.48-7.444 27.05-7.447l24.078-.003 1.099.945m-183.154 2.982c-1.315 1.293-1.38 2.158-.273 3.711.993 1.394 3.109 1.738 2.387.388-.697-1.3-.516-4.327.286-4.794.608-.354.569-.406-.3-.397-.55.006-1.495.497-2.1 1.092m134.9-.835c-1.036.394-1.188 1.007-1.194 4.834-.01 5.905-2.813 5.274 23.422 5.274 26.926 0 24.575.473 24.567-4.946-.003-2.01-.114-4.059-.247-4.554l-.241-.9-22.854.032c-12.57.017-23.123.134-23.453.26m18.64 16.208c1.039 1.375 2.329 2.98 2.868 3.567 1.215 1.325.887 1.936-1.032 1.923-2.062-.015-6.98-6.553-5.81-7.723.876-.875 2.182-.14 3.975 2.233m29.8 9c-26.23.098-28.194.153-28.695.803-.68.881-.416 7.49.334 8.394.613.738 58.503.36 59.42-.387.339-.276.5-1.679.5-4.345 0-4.27-.33-4.893-2.474-4.668-.51.054-13.597.145-29.084.203m79.826 49.033c.183.183.364 13.413.403 29.4.039 15.987.295 50.553.567 76.814.378 36.408.385 47.924.029 48.494-.257.412-.467 1.031-.467 1.377 0 1.715-4.93 8.182-6.236 8.182-.256 0-.69.27-.964.6-.274.33-.89.6-1.37.6-.478 0-1.095.225-1.37.5-.394.394-14.88.553-68.38.75-37.334.138-72.025.39-77.091.561-8.137.273-9.285.236-9.844-.323-.567-.567-.66-5.516-.888-47.56-.14-25.81-.37-62.983-.512-82.606l-.257-35.679.956-.2c.526-.11 22.376-.32 48.556-.469 26.18-.148 60.92-.396 77.2-.55 35.285-.337 39.234-.326 39.668.11m-172.571 13.866c.43 18.791.967 151.632.618 152.7l-.295.9-48.91.032c-26.901.018-60.97.16-75.71.316-14.74.156-27.896.152-29.235-.009-5.422-.65-9.965-4.749-11.683-10.539-.532-1.793-1.47-152.98-.96-154.845.162-.595 94.573-1.646 142.478-1.585l23.4.03.297 13m-87.097 18.304c-.66.341-1.29.727-1.4.86-.11.13-2.09 1.857-4.4 3.837a900.45 900.45 0 0 0-7.4 6.416 567.178 567.178 0 0 1-4.353 3.8c-1.576 1.344-1.786 1.53-4.058 3.583-1.095.99-2.872 2.52-3.948 3.4-1.076.88-2.426 2.057-3 2.615-.572.56-3.021 2.71-5.441 4.778-2.42 2.07-5.03 4.343-5.8 5.052-.77.71-1.938 1.71-2.596 2.222-.657.513-1.48 1.203-1.83 1.533-.347.33-1.291 1.187-2.097 1.904-6.871 6.116-2.61 13.267 7.923 13.296 2.42.007 4.598.144 4.84.306.306.205.519 7.494.7 24.011.239 21.54.327 23.816.956 24.8 2.258 3.527.785 3.397 35.88 3.17 31.144-.204 33.072-.304 34.569-1.795 2.146-2.136 2.055-.962 2.055-26.598 0-17.926.117-23.85.48-24.214.32-.32 2.07-.48 5.24-.48 6.626 0 9.472-1.604 10.083-5.683.643-4.284.004-5.09-12.003-15.176-5.537-4.65-7.231-6.093-7.4-6.298-.11-.134-1.01-.906-2-1.716-.99-.809-2.273-1.889-2.851-2.4a152.43 152.43 0 0 0-2.99-2.527 224.247 224.247 0 0 1-5.602-4.8 75 75 0 0 0-1.417-1.2c-3.44-2.846-5.795-4.85-6.14-5.225-.22-.24-1.474-1.322-2.786-2.405-4.112-3.394-4.31-3.56-4.767-3.994-1.83-1.736-6.108-2.279-8.447-1.072m6.05 1.937c1.058.245 3.295 1.835 5.64 4.007.52.483 1.693 1.48 2.604 2.215 1.944 1.57 5.013 4.19 5.696 4.864.263.26 1.267 1.103 2.23 1.873a123.55 123.55 0 0 1 5.592 4.8c.358.33 1.093.96 1.633 1.4 2.405 1.96 5.874 4.903 7.193 6.104.79.72 2.074 1.802 2.85 2.403 1.513 1.17 5.738 4.788 9.825 8.413 4.918 4.36 5.448 8.763 1.396 11.585-2.661 1.853-1.52 1.806-47.31 1.973l-43.4.158-1.582-.92c-5.117-2.979-5.043-7.857.188-12.316a299.5 299.5 0 0 0 3.91-3.4c2.676-2.382 3.316-2.936 5.243-4.538.967-.804 2.227-1.912 2.8-2.462.573-.55 1.68-1.54 2.462-2.2 4.82-4.074 5.835-4.952 7.326-6.337a84.384 84.384 0 0 1 3.453-3 92.53 92.53 0 0 0 2.239-1.863c3.355-3.059 6.855-6.118 7.522-6.577.462-.317.93-.695 1.04-.839.953-1.25 5.944-5.185 6.585-5.19.448-.003 1.085-.188 1.415-.41.33-.22.983-.314 1.45-.206l2 .463m-3.95 2.815c-.767.222-1.883 1.116-4.426 3.544-.922.88-2.756 2.49-4.075 3.58-1.32 1.087-2.684 2.257-3.033 2.6-1.283 1.256-6.202 5.575-7.366 6.467-.66.505-1.564 1.286-2.01 1.736-.443.45-2.153 1.987-3.798 3.417a776.315 776.315 0 0 0-3.438 3c-.246.22-.967.833-1.601 1.362-.634.53-1.968 1.7-2.965 2.6-.996.901-2.964 2.628-4.373 3.838-7.917 6.8-8.981 8.996-5.426 11.193 1.875 1.16 83.65.966 88.33-.208 4.04-1.015 3.17-4.71-2.131-9.047-1.678-1.372-2.283-1.884-4.788-4.052-.55-.476-2.26-1.937-3.8-3.248-1.54-1.31-3.097-2.665-3.46-3.01-.362-.345-1.434-1.258-2.381-2.028-.947-.77-2.36-1.962-3.14-2.649a140.25 140.25 0 0 0-2.42-2.077c-1.882-1.56-7.398-6.273-8.6-7.347-.66-.59-2.64-2.298-4.4-3.794-1.76-1.497-3.38-2.914-3.6-3.15-1.944-2.085-5.111-3.302-7.098-2.727m160.499 28.036c-.33.125-.69.336-.8.468-.288.345-1.64 1.167-2.8 1.704-.903.417-.925.48-.226.642.425.1.965-.08 1.2-.398.714-.97 5.542-1.892 6.003-1.146.149.241.69.438 1.204.438.513 0 1.037.27 1.164.6.126.33.428.6.67.6.244 0 .712.27 1.042.6.688.688 1.343.786 1.343.2 0-.22-.27-.4-.6-.4-.33 0-.6-.142-.6-.315 0-1.644-5.477-3.8-7.6-2.993m23 .328c-.66.338-1.38.846-1.6 1.13-.22.282-1.518 1.335-2.886 2.34-2.9 2.13-3.714 2.892-3.714 3.481 0 .811-1.297.427-2.69-.796-1.527-1.34-2.283-1.348-.943-.008.458.458.939.833 1.069.833s.535.36.9.8c.733.882.22 1.216 5.7-3.709 1.372-1.232 3.716-2.57 6.037-3.446 1.058-.399 4.179.372 5.592 1.381 1.42 1.015 6.795 3.774 7.352 3.774.273 0 .6.27.728.6.126.33.596.6 1.042.6.447 0 .813.177.813.392 0 .216.45.506 1 .644s1 .397 1 .576c0 .178.54.443 1.2.588.66.145 1.2.41 1.2.588 0 .18.45.438 1 .576.55.138 1 .428 1 .644 0 .215.36.392.8.392.44 0 .8.145.8.323 0 .178.695.63 1.543 1.004 1.365.602 2.014 1.041 3.94 2.666.266.224.84.407 1.277.407.436 0 .897.17 1.025.376.128.208 1.008.764 1.954 1.236.989.494 4.56 3.652 8.395 7.424 3.67 3.61 6.852 6.564 7.07 6.564.218 0 .396.27.396.6 0 .33.18.6.4.6 2.148 0-14.213-15.724-18.33-17.617-3.64-1.673-4.672-2.186-4.87-2.415-.11-.128-1.1-.668-2.2-1.2-1.1-.532-2.06-1.103-2.133-1.268-.074-.165-.376-.3-.672-.3-.296 0-.777-.225-1.07-.5-.292-.275-1.79-1.13-3.328-1.9-1.538-.77-2.887-1.51-2.997-1.646-.11-.135-.605-.373-1.1-.527-.495-.155-.9-.434-.9-.622s-.54-.46-1.2-.605c-.66-.145-1.2-.41-1.2-.588 0-.179-.45-.438-1-.576-.55-.138-1-.428-1-.644 0-.215-.35-.392-.776-.392-.427 0-.877-.16-.998-.359-1.036-1.676-5.503-2.509-7.626-1.42m-28.593 2.897c-.326.116-.834.452-1.128.746-.295.295-.793.536-1.108.536-.314 0-.571.136-.571.302 0 .167-.945.747-2.1 1.29-1.81.851-1.965 1.008-1.122 1.136.575.087 1.169-.114 1.444-.49.256-.35.739-.638 1.073-.638.334 0 .83-.27 1.105-.6.274-.33.652-.6.839-.6.623 0 2.833-1.508 2.494-1.702-.183-.104-.6-.095-.926.02m30.793.7c-.55.304-1.3.56-1.667.568-.366.008-.726.155-.8.327-.073.173-1.257 1.172-2.63 2.222-1.374 1.05-2.685 2.258-2.914 2.686-.565 1.055-.141.981.93-.16.873-.93 3.28-2.575 5.78-3.948.714-.392 2.154-.734 3.2-.759 1.045-.026 1.54-.135 1.1-.242-.44-.107-1.07-.432-1.4-.723-.497-.437-.77-.433-1.6.028m-25.8.583c-.54.232.174.344 2.2.344 2.028 0 2.74-.112 2.2-.344-.44-.189-1.43-.344-2.2-.344-.77 0-1.76.155-2.2.344m-13.654 3.8c-.127.33-.661.6-1.188.6-.526 0-.957.186-.957.413 0 .227-.405.576-.9.775-.865.347-.857.362.2.387.605.014 1.1-.15 1.1-.365s.81-.759 1.8-1.21c1.976-.9 2.223-1.2.987-1.2-.446 0-.916.27-1.042.6m12.655.618c-.99.642-1.932 1.17-2.093 1.174-.161.005-1.47.728-2.907 1.608-1.438.88-2.86 1.6-3.158 1.6-.3 0-.768.27-1.042.6-.274.33-.704.6-.957.6-.252 0-1.891.72-3.643 1.6-1.752.88-3.638 1.6-4.192 1.598-1.59-.003-6.576 1.784-8.378 3.002-.325.22-6.675 6.463-14.111 13.873l-13.52 13.472v1.742c0 1.734.04 1.781 7.62 9.228 9.822 9.65 8.5 9.516 16.435 1.645l5.887-5.84 1.729.255c.952.14 2.48.447 3.397.683 1.562.401 2.479.362 6.874-.29 1.014-.152 2.099-.076 2.6.181.472.242 1.849.611 3.059.821 1.21.21 3.37.672 4.8 1.028 1.43.355 3.23.786 4 .958 1.333.297 5.522 2.066 6.8 2.871.33.208.87.48 1.2.605.33.124.913.393 1.295.597 1.05.561 1.708.452 2.49-.413 1.156-1.277.534-2.554-1.778-3.652-1.104-.524-2.007-1.09-2.007-1.258 0-.168-.225-.306-.5-.307-.606 0-6.045-3.522-6.233-4.035-.074-.2-.318-.364-.543-.364-.345 0-3.292-2.103-3.924-2.8-.11-.12-1.01-.833-2-1.58-2.167-1.639-6.321-5.907-6.831-7.02a19.09 19.09 0 0 0-.72-1.4c-2.177-3.708-2.146-11.357.05-12.333.166-.074.307-.344.314-.6.03-1.17 3.972-4.494 6.587-5.557 4.13-1.68 10.236-1.473 13.427.454.755.456 1.639.956 1.964 1.11.325.155.976.697 1.446 1.204 1.645 1.775 1.88 1.287 1.684-3.487-.207-5.032-.373-5.315-5.321-9.112-1.32-1.013-2.49-1.94-2.6-2.06-1.638-1.788-4.79-1.963-7.2-.4m26.094-.443c-3.048 1.703-7.161 5.556-7.54 7.06-.132.53-.378.964-.545.964-.858 0-1.362 8.416-.522 8.696.215.071 1.498-.686 2.853-1.683 1.354-.997 2.732-1.813 3.06-1.813.33 0 .6-.156.6-.346 0-.457 4.995-1.656 6.894-1.655 5.435.004 11.57 3.67 13.747 8.216 1.165 2.433 1.079 9.056-.144 10.985-.488.77-1.06 1.76-1.27 2.2-.533 1.12-4.24 4.932-6.627 6.82-1.1.87-2.09 1.683-2.2 1.81-.438.5-13.003 9.717-14.258 10.457-2.993 1.766-.898 4.005 2.225 2.377l2.304-1.199c3.526-1.83 5.856-2.865 6.455-2.865.393 0 .885-.17 1.094-.377.38-.377 2.575-1.006 5.58-1.598.88-.174 2.107-.52 2.726-.77.658-.266 3.499-.455 6.839-.455 4.422 0 6-.144 6.988-.637 1.645-.82 1.627-.833 8.292 5.744 7.753 7.652 6.268 7.946 17.554-3.477 8.557-8.66 8.83-7.028-3.183-18.944-15.577-15.45-17.572-17.286-20.027-18.42-.874-.405-2.1-.99-2.721-1.3-.623-.312-2.243-.568-3.6-.57-1.927-.005-2.863-.234-4.268-1.049-.99-.573-3.317-1.849-5.17-2.834-1.854-.985-4.055-2.224-4.892-2.752-.837-.529-1.641-.96-1.786-.96-.145 0-1.141-.54-2.214-1.2-2.265-1.395-4.266-1.53-6.244-.425m-44.294 2.824c-.136.22.113.4.553.4.44 0 .91-.18 1.047-.4.136-.22-.113-.4-.553-.4-.44 0-.911.18-1.047.4m7 0c-.485.314-.428.39.3.394.495.003.9-.174.9-.394 0-.5-.424-.5-1.2 0m-9.2 1.2c0 .22.36.4.8.4.44 0 .8-.18.8-.4 0-.22-.36-.4-.8-.4-.44 0-.8.18-.8.4m7 0c-.136.22.023.4.353.4.33 0 .71-.18.847-.4.136-.22-.023-.4-.353-.4-.33 0-.711.18-.847.4m-9 1.4c-.274.33-.746.6-1.05.6-.302 0-.55.16-.55.357 0 .196-.493.48-1.096.631-.603.152-1.188.398-1.3.547-.112.15-.987.78-1.944 1.401-.956.62-3.116 2.575-4.8 4.344-1.683 1.77-4.86 5.065-7.06 7.325-6.83 7.013-7.842 8.195-7.024 8.195.233 0 .424-.27.424-.6 0-.33.159-.6.354-.6.195 0 4.29-3.915 9.1-8.7 4.81-4.785 9.106-8.916 9.546-9.179.44-.264 1.52-.869 2.4-1.344.88-.475 1.69-.983 1.8-1.127.11-.145.799-.755 1.53-1.356.747-.614 1.076-1.094.75-1.094-.32 0-.806.27-1.08.6m6.983-.172c-.146.235-.651.584-1.124.775l-.86.346.9.026c.496.014.9-.16.9-.388 0-.227.406-.576.9-.775.653-.262.715-.368.225-.387-.372-.014-.796.168-.941.403m-108.026 7.005c.6 1.566.26 44.455-.357 44.967-.33.274-.6.74-.6 1.035 0 .727-2.772 2.565-3.87 2.565-.485 0-.994.18-1.13.4-.161.26-9.863.4-27.8.4s-27.64-.14-27.8-.4c-.136-.22-.597-.4-1.024-.4-1.261 0-3.467-2.679-3.986-4.84-.812-3.387-.762-43.159.056-43.678 1.969-1.249 1.954-1.407 1.954 20.344 0 28.117-.87 26.17 11.7 26.173l7.9.001v-24.906l1.428-1.347 1.429-1.347h8.139c12.417 0 11.804-.818 11.804 15.76v11.84l7.3-.006c13.495-.01 12.3 2.396 12.3-24.789 0-12.029.12-21.992.267-22.138.509-.51 2.049-.263 2.29.366m125.043 1.787c-4.61 1.051-5.325 1.397-7.813 3.78-4.22 4.041-4.456 9.688-.612 14.6 1.917 2.45 1.984 2.513 5.728 5.441 5.189 4.058 5.575 4.343 6.255 4.62.353.143 1.003.593 1.445 1 1.782 1.641 9.44 6.54 10.225 6.54.708 0 4.123-2.04 4.772-2.85.11-.138.75-.588 1.423-1 7.386-4.53 18.539-14.065 18.59-15.892.007-.253.277-.808.6-1.235.77-1.02.76-4.88-.015-6.37-.33-.63-.598-1.355-.598-1.61 0-.788-4.191-4.81-5.842-5.609-.857-.414-1.902-.926-2.323-1.138-1.518-.764-5.335-.854-6.408-.15-.55.36-1.343.653-1.764.653-.421 0-.99.27-1.263.6-.274.33-.72.6-.991.6-.647 0-3.74 3.034-5.01 4.914-1.257 1.863-1.24 1.865-3.072-.406-3.29-4.077-5.746-5.544-11.127-6.643-.44-.09-1.43-.02-2.2.155m33.209 2.244c6.188 3.087 8.54 10.585 4.699 14.971-.658.751-1.401 1.64-1.652 1.976-.371.498-3.393 3.095-5.242 4.504-3.134 2.39-8.702 6.285-8.983 6.285a.58.58 0 0 0-.498.343c-.76 1.951-7.243 4.742-8.146 3.507-.261-.357-.59-.65-.73-.65-.244 0-3.995-2.636-6.412-4.506-.635-.492-1.355-.965-1.6-1.052-.596-.212-3.61-2.556-3.778-2.939-.074-.167-.318-.303-.543-.303-.967 0-8.324-6.627-8.324-7.498 0-.229-.27-.52-.6-.647-.33-.126-.6-.478-.6-.78 0-.304-.291-1.135-.646-1.847-2.525-5.062 3.844-12.028 11-12.028 5.416 0 8.112 1.532 11.826 6.72 1.819 2.542 2.3 2.528 4.108-.12 4.366-6.39 10.604-8.688 16.12-5.936m43.055 9.635c-.246.396 1.293 1.88 1.615 1.556.11-.11-.157-.588-.596-1.059-.438-.47-.897-.695-1.02-.497M82 286.776c-.322.388-.423 3.962-.348 12.3l.106 11.751 7.71.11c4.863.067 8.002-.049 8.5-.315.966-.517 1.257-22.968.31-23.915-.735-.735-15.662-.673-16.277.068m15.057 1.03c1.352 1.127 1.423 20.914.078 21.634-.812.434-14.08.423-14.513-.012-.11-.11-.25-4.852-.313-10.538l-.114-10.337.98-.753c1.47-1.13 12.526-1.126 13.882.005m239.106 2.323c1.176 2.817 1.178 2.846.378 4.465-.431.872-4.107 4.972-8.168 9.11-11.384 11.602-11.052 11.537-18.953 3.681-6.413-6.378-5.138-5.866-13.863-5.56l-7.4.26 7.492.072 7.493.072 6.372 6.456 6.373 6.456 1.913-.216c2.067-.233 8.05-6.005 18.939-18.268 1.539-1.734 1.758-5.088.418-6.428-.986-.986-1.38-1.026-.994-.1m-146.717 1.305c-.455.53-.69 1.491-.69 2.822v2.018l7.1 7.236c11.013 11.223 11.74 11.914 12.814 12.183 1.3.327 3.262-.725 5.293-2.839 5.363-5.583 7.915-8.434 7.714-8.617-.126-.114-.31.017-.408.292-.098.275-.434.5-.745.5-.312 0-.567.172-.567.382 0 .351-4.492 4.87-6.761 6.8-1.431 1.217-4.68 1.218-6.64.001-.66-.41-4.612-4.168-8.782-8.35l-7.584-7.608.026-2.812c.014-1.547.002-2.813-.028-2.813s-.363.362-.742.805m35.01 10.682a8.899 8.899 0 0 0 2.2 0c.606-.092.11-.167-1.1-.167-1.21 0-1.704.075-1.1.167m10.2-.005a5.661 5.661 0 0 0 1.8 0c.496-.095.09-.173-.9-.173s-1.394.078-.9.173m-5.7.918c-.15.242.405.4 1.4.4.997 0 1.55-.158 1.4-.4-.135-.22-.765-.4-1.4-.4-.633 0-1.263.18-1.4.4m8.42-.03c.21.202 1.19.4 2.18.436 2.535.096 2.86-.044 1-.429-2.215-.458-3.646-.462-3.18-.008m47.98.031c-1.125.287-1.094.308.5.353.936.026 1.7-.133 1.7-.353 0-.447-.443-.447-2.2 0m-42.838 1.138c.158.254.975.462 1.817.462s2.046.27 2.676.598c.63.328 1.82.598 2.646.6.825.001 1.5.168 1.5.37 0 .203.54.487 1.2.632.66.145 1.2.43 1.2.632s.326.368.724.368c.397 0 1.072.264 1.5.587.896.678 6.176.86 6.176.213 0-.234-1.11-.37-2.675-.326-1.764.048-2.73-.088-2.834-.4-.087-.26-.571-.474-1.075-.474-.505 0-1.142-.27-1.416-.6-.274-.33-.904-.6-1.4-.6-.496 0-1.126-.27-1.4-.6-.277-.334-1.15-.6-1.97-.6-.808 0-1.66-.19-1.893-.423-.62-.62-5.144-1.036-4.776-.439m37.339-.062c-.385.1-.7.35-.7.553 0 .204-.54.371-1.2.371-.66 0-1.2.18-1.2.4 0 .568.815.491 2.146-.202.63-.329 1.8-.6 2.6-.604.8-.003 1.724-.18 2.054-.394.626-.405-2.257-.5-3.7-.124"/>
</svg>
