<?xml version="1.0" encoding="UTF-8" standalone="no"?>
<svg
   version="1.1"
   width="256"
   height="256.00003"
   style="clip-rule:evenodd;fill-rule:evenodd;image-rendering:optimizeQuality;shape-rendering:geometricPrecision;text-rendering:geometricPrecision"
   id="svg64"
   viewBox="0 0 256 256.00003"
   xmlns="http://www.w3.org/2000/svg"
   xmlns:svg="http://www.w3.org/2000/svg">
  <defs
     id="defs64" />
  <path
     fill="#0b0b0b"
     d="M 180.34854,0.15998281 C 154.58939,0.26159801 115.11331,0.50402281 92.6239,0.6978175 70.134487,0.89161218 43.055848,1.0919393 32.449141,1.1427468 8.8903619,1.2552494 8.7540625,1.2770241 4.3613056,5.6174443 -0.29317551,10.216258 -0.07567639,7.9843525 0.04612311,50.101671 0.48257134,200.65474 0.88276975,243.81724 1.8629657,245.69712 c 0.2319991,0.44711 0.4233984,0.96534 0.4248484,1.15188 0.00725,1.18527 4.4710565,6.77338 5.4128278,6.77338 0.1870493,0 0.3835231,0.098 0.4371725,0.21775 0.128325,0.29033 1.9371926,1.2339 2.3671166,1.23535 0.187048,0 0.730796,0.21194 1.209294,0.46815 1.058496,0.56687 72.644706,0.61768 119.914515,0.0849 15.23218,-0.17202 46.4868,-0.4188 69.45472,-0.54872 34.84916,-0.19742 42.04765,-0.3063 43.49982,-0.65687 2.03869,-0.4921 3.62499,-1.1243 3.62499,-1.44438 0,-0.12485 0.1363,-0.22718 0.30232,-0.22718 0.70759,0 3.55103,-2.52006 4.57473,-4.05373 2.91956,-4.37671 3.09139,-5.91327 2.82677,-25.25138 -0.11673,-8.55309 -0.33495,-43.11749 -0.4843,-76.81019 -0.5046,-113.745865 -0.69891,-133.222593 -1.35068,-135.617809 -1.10199,-4.0450097 -3.88598,-7.6559781 -7.06727,-9.1649636 -4.50658,-2.13754812 2.15905,-1.96843142 -66.6613,-1.6940704 m 63.09215,4.7868013 c 0.30957,0.2344407 0.73369,0.4304129 0.94248,0.4354936 0.63076,0.015242 2.9551,1.9430275 3.93964,3.2669281 1.80814,2.431506 1.71535,1.1402675 1.96402,27.227064 0.5336,55.913032 0.696,88.420456 0.4437,88.762316 -0.2001,0.27146 -3.45244,0.38034 -13.50017,0.45364 -7.28042,0.053 -34.09734,0.26638 -59.59331,0.4747 -33.58186,0.27363 -46.54843,0.29032 -47.05231,0.0602 l -0.696,-0.31719 V 83.133139 c 0,-23.197295 -0.145,-50.052738 -0.32625,-59.679326 -0.31175,-16.5952117 -0.30159,-17.5315231 0.18416,-18.0693577 0.62132,-0.6866284 1.01282,-0.6917092 68.30631,-0.7955019 39.03385,-0.060243 44.894,-0.013791 45.38483,0.3571049 M 124.68037,5.2632428 c 0.50532,0.6096911 0.44877,-4.34985593 0.70614,61.4438022 l 0.22983,58.849715 -0.69237,0.15242 c -0.38135,0.0835 -15.57004,0.22138 -33.752964,0.3063 -18.182937,0.0842 -44.962145,0.23081 -59.509937,0.32517 L 5.2110022,126.51194 5.0370028,125.81878 C 4.759329,124.71045 4.4135054,77.374464 4.4381552,43.859595 l 0.0232,-30.774887 0.8446216,-1.669392 C 6.2049731,9.6370506 8.2240894,7.5866013 9.8509831,6.7990838 12.941646,5.3038889 10.144607,5.3938909 54.274452,5.3517932 76.800112,5.3300184 99.406969,5.2240484 104.51095,5.1159008 122.16391,4.7435537 124.26204,4.758796 124.68037,5.2632428 m 89.30514,23.0013232 c -0.39875,0.268555 -0.79025,0.566142 -0.87,0.659048 -0.0797,0.09436 -0.406,0.275812 -0.725,0.402105 -0.3944,0.156052 -0.4582,0.275813 -0.20082,0.371622 0.2088,0.07766 0.62132,-0.07766 0.91639,-0.345492 1.50074,-1.360192 5.51941,0.341863 5.51941,2.338601 0,0.225731 0.1218,0.410816 0.27042,0.410816 0.14862,0 0.3596,0.293958 0.46835,0.65324 0.10875,0.359283 0.50967,1.069137 0.88957,1.577213 0.38063,0.508802 0.69164,1.048088 0.69164,1.198334 0,0.15097 0.19575,0.436945 0.435,0.63582 1.36155,1.132284 -0.29072,5.225925 -2.10975,5.225925 -0.15586,0 -0.44658,0.195971 -0.64523,0.435493 -1.1455,1.381967 -4.18323,0.06242 -5.25188,-2.281987 -0.3683,-0.808566 -0.83882,-1.591003 -1.5979,-2.659415 -0.33785,-0.476139 -0.70542,-1.159138 -0.81634,-1.518421 -0.11165,-0.359282 -0.319,-0.65324 -0.46038,-0.65324 -0.14137,0 -0.34655,-0.478317 -0.45675,-1.062605 -0.21967,-1.175107 0.5307,-3.002003 1.23395,-3.002003 0.21387,0 0.38932,-0.191617 0.38932,-0.426057 0,-0.605337 -0.85332,-0.22428 -1.73274,0.773001 -0.90117,1.024135 -1.18175,1.018329 -2.66292,-0.05662 -1.79581,-1.302126 -4.22745,-1.095267 -5.97904,0.508076 -0.21823,0.199601 -0.57275,0.362912 -0.78662,0.362912 -0.2146,0 -0.43356,0.101615 -0.4872,0.226456 -0.12905,0.303395 -5.91743,3.838151 -6.28428,3.838151 -0.1595,0 -0.33205,0.111051 -0.3857,0.24678 -0.0529,0.136455 -0.64234,0.561061 -1.31007,0.94357 -0.66772,0.383234 -2.62521,1.566325 -4.34998,2.628204 -3.88816,2.395215 -5.04598,3.08765 -5.60132,3.349672 -0.23925,0.113228 -0.5655,0.319362 -0.725,0.457268 -0.1595,0.137906 -1.59065,1.059701 -3.18057,2.046821 -3.57278,2.219565 -4.2898,3.154425 -4.16148,5.422622 0.087,1.515518 0.0544,1.604068 -0.63292,1.696247 -1.26585,0.169843 -1.3601,0.627837 -0.1305,0.633644 1.0382,0.0073 2.45049,0.902923 2.45049,1.560519 0,0.09581 0.9135,1.659956 2.02998,3.475239 2.9899,4.859384 2.78038,5.966265 -1.54207,8.155346 l -1.59353,0.807113 -1.18393,-0.666306 c -0.65104,-0.365813 -1.25931,-0.90365 -1.35211,-1.1947 -0.0921,-0.290332 -0.28493,-0.529125 -0.42848,-0.529125 -0.30015,0 -0.0261,0.857193 0.4292,1.343493 0.1682,0.180007 0.49808,0.604613 0.73225,0.943569 0.6786,0.979863 2.89927,0.686631 4.06869,-0.538556 0.0798,-0.08347 0.61842,-0.391944 1.19624,-0.686631 0.57927,-0.293957 1.46812,-0.914538 1.97634,-1.379063 1.03602,-0.9472 1.26077,-1.005262 1.80887,-0.469606 1.41737,1.386319 3.59381,1.817462 4.75091,0.941394 0.30956,-0.234444 0.78009,-0.430413 1.04616,-0.435494 0.26536,-0.0073 0.52636,-0.11105 0.58001,-0.235894 0.13412,-0.315006 5.92467,-3.838151 6.30892,-3.838151 0.17182,0 0.31175,-0.128471 0.31175,-0.284523 0,-0.156777 0.32625,-0.367266 0.725,-0.46743 0.39875,-0.100163 0.72498,-0.297587 0.72498,-0.440574 0,-0.142987 0.3915,-0.259119 0.87001,-0.259119 0.95409,0 1.10924,-0.311378 0.43499,-0.870987 -0.23925,-0.198875 -0.43499,-0.541464 -0.43499,-0.761388 0,-0.219925 -0.1305,-0.399203 -0.29,-0.399203 -0.1595,0 -0.29001,0.251861 -0.29001,0.560336 0,0.490656 -2.2598,2.114321 -5.29247,3.801859 -0.2784,0.155326 -0.73515,0.413719 -1.015,0.574852 -0.2784,0.160407 -0.70324,0.379605 -0.94249,0.486301 -0.23926,0.107421 -0.50026,0.272908 -0.58,0.36799 -1.07879,1.289062 -4.19919,1.587375 -5.9254,0.567593 -0.85114,-0.502268 -2.77384,-2.817642 -2.77384,-3.338782 0,-0.07984 -0.4843,-0.890585 -1.07662,-1.800041 -1.16072,-1.784072 -1.26585,-1.96335 -2.64769,-4.492843 -1.46159,-2.676108 -1.05342,-5.188181 1.07228,-6.612245 0.58143,-0.389041 1.12229,-0.792599 1.20204,-0.896391 0.0797,-0.103793 0.66699,-0.471785 1.30499,-0.820181 a 43.565073,43.614691 0 0 0 2.03,-1.185268 c 0.47849,-0.304119 1.39199,-0.834696 2.02998,-1.180187 0.638,-0.345492 1.22525,-0.708404 1.30499,-0.807115 0.17401,-0.214118 1.08533,-0.794051 1.885,-1.199785 0.319,-0.161859 0.9715,-0.551626 1.45,-0.867359 0.4785,-0.315007 1.06575,-0.660498 1.30499,-0.768646 0.23925,-0.107422 0.8236,-0.468155 1.2992,-0.801309 a 23.370279,23.396897 0 0 1 2.61579,-1.61423 c 0.319,-0.16839 0.97149,-0.567593 1.44998,-0.886955 0.47851,-0.318636 1.09838,-0.658321 1.3775,-0.754855 0.27913,-0.09653 0.5075,-0.275813 0.5075,-0.398477 0,-0.122664 0.22838,-0.301943 0.5075,-0.398477 0.27912,-0.09653 0.899,-0.435494 1.3775,-0.754856 0.47849,-0.319361 1.13099,-0.714209 1.44999,-0.878245 0.319,-0.164036 1.03675,-0.580658 1.595,-0.925424 2.53748,-1.567777 5.73472,-0.353476 7.39859,2.811837 0.25157,0.479044 0.71049,1.262932 1.02079,1.741975 0.3103,0.479043 0.65178,1.066959 0.7598,1.306481 0.1073,0.239521 0.46762,0.824535 0.8004,1.300675 2.21342,3.16241 2.89128,5.339878 2.16049,6.943946 -0.71485,1.572132 -2.16194,0.660499 -1.82264,-1.148978 0.13775,-0.740339 -0.10948,-1.362369 -1.39417,-3.490481 -0.85985,-1.424064 -1.65517,-2.784983 -1.76682,-3.024504 -0.11166,-0.239522 -0.42993,-0.775904 -0.70688,-1.190349 a 64.009987,64.082894 0 0 1 -1.22959,-1.95827 c -0.39875,-0.660499 -0.84535,-1.202688 -0.99324,-1.204141 -0.14573,0 -0.4959,-0.210488 -0.7772,-0.464525 -0.4959,-0.450011 -2.28447,-0.354202 -2.29317,0.123389 0,0.105971 -0.55608,0.452914 -1.23249,0.770098 -0.6757,0.317185 -1.29412,0.650338 -1.37387,0.741791 -0.0797,0.09073 -2.36349,1.501002 -5.07498,3.134103 -2.71149,1.633101 -5.12574,3.09636 -5.36498,3.251686 -0.23925,0.156052 -0.63074,0.371621 -0.86999,0.479043 -0.23926,0.106696 -0.50025,0.274361 -0.58001,0.373073 -0.0797,0.09799 -1.51524,0.99728 -3.18998,1.997464 a 391.04673,391.49211 0 0 0 -3.47998,2.094725 c -0.23925,0.150971 -0.63076,0.362911 -0.87,0.469607 -0.23925,0.107422 -0.50025,0.270732 -0.58,0.364363 -0.0797,0.09291 -0.667,0.508076 -1.305,0.920343 -2.15541,1.397208 -2.33303,3.16241 -0.56549,5.630208 0.34365,0.479043 1.48479,2.315374 2.53603,4.079124 2.74557,4.608976 3.55612,4.878982 7.30943,2.443845 0.4785,-0.310652 1.06575,-0.652515 1.30499,-0.760662 0.23925,-0.107423 0.8236,-0.468156 1.2992,-0.801308 1.00919,-0.708404 1.86106,-1.228093 2.47079,-1.509712 0.23925,-0.110325 0.65902,-0.393396 0.93307,-0.628562 0.2784,-0.239522 0.77067,-0.355653 1.1165,-0.265651 0.56476,0.148067 0.60174,0.07984 0.41976,-0.762115 -0.41686,-1.919802 -0.49009,-4.642363 -0.14571,-5.392863 0.19139,-0.416622 0.55461,-1.214301 0.80763,-1.773185 0.50968,-1.127202 2.61145,-3.483949 3.10589,-3.483949 0.17401,0 0.46908,-0.152423 0.65541,-0.33896 0.93524,-0.936311 6.1226,-1.583745 6.59239,-0.822357 0.0986,0.159682 0.46545,0.291781 0.8149,0.293233 0.69309,0 2.81154,1.568503 3.89613,2.879339 4.71756,5.700612 0.4176,14.53823 -7.07379,14.53823 -2.10685,0 -5.9022,-1.336965 -5.9022,-2.079482 0,-0.134278 -0.22838,-0.238796 -0.50751,-0.232263 -1.15709,0.02685 3.0595,2.891677 4.25574,2.891677 0.45965,0 1.15419,0.664852 2.64189,2.52804 0.1537,0.193068 0.27984,0.476143 0.27984,0.630018 0,0.153144 0.18125,0.648882 0.40311,1.101069 1.12809,2.301588 1.64139,6.243531 1.09039,8.370194 l -0.56114,2.177469 c -0.7308,2.846675 -3.95559,7.285081 -5.90365,8.124131 -0.377,0.161856 -0.87943,0.410087 -1.11868,0.551625 -3.05006,1.804394 -7.87709,2.35675 -10.20505,1.167125 -1.5457,-0.788969 -1.07155,-1.12285 1.60658,-1.128656 1.84513,-0.0073 2.0445,-0.06823 2.8275,-0.905825 l 0.84099,-0.9022 v -4.628569 c 0,-5.671581 -0.18342,-6.202881 -2.24531,-6.514263 -0.75908,-0.114681 -9.40539,-0.123387 -19.2146,-0.01887 l -17.83493,0.190162 -0.6525,0.742519 c -1.04907,1.193975 -1.00267,10.117969 0.058,11.264769 l 0.71195,0.767918 h 4.96261 c 5.44255,0 5.73399,0.07258 6.68447,1.665763 0.35959,0.600981 1.1542,1.757944 1.76682,2.570869 1.31007,1.739793 1.31876,1.800762 0.38352,2.689168 -1.12374,1.067688 -1.10924,8.330996 0.0196,9.813126 l 0.73949,0.97115 h 22.61484 c 26.36959,0 25.54092,0.0994 25.44014,-3.04846 -0.0319,-1.008159 -0.0522,-1.040822 -0.15225,-0.24968 -0.0732,0.58864 -0.49299,1.25712 -1.18464,1.88714 l -1.07082,0.9755 h -21.77964 c -26.41237,0 -24.18662,0.5197 -24.18662,-5.651251 v -3.212487 l 0.94249,-1.001638 0.94249,-1.003087 20.58992,-0.03266 c 26.96845,-0.04282 24.09165,-0.130643 24.86958,0.757763 0.35742,0.409362 0.73224,1.095987 0.83374,1.524225 0.16675,0.712756 0.18487,0.693162 0.20518,-0.235894 0.016,-0.721469 -0.21968,-1.299219 -0.81345,-1.994556 -0.80982,-0.948656 -0.78807,-2.360381 0.0362,-2.360381 a 0.25084898,0.25113468 0 0 0 0.2436,-0.256938 c 0,-0.141537 0.522,-1.040106 1.16,-1.996012 0.63799,-0.957363 1.15999,-1.834157 1.15999,-1.949563 0,-0.115406 0.20663,-0.686625 0.45893,-1.270187 0.25302,-0.582838 0.64451,-1.487938 0.86999,-2.013432 0.2262,-0.524043 0.41325,-1.242612 0.41542,-1.596812 0,-0.353475 0.19213,-1.165669 0.42195,-1.804394 0.5858,-1.625844 0.5858,-9.987325 0,-11.613169 -0.22982,-0.638725 -0.4205,-1.450918 -0.42195,-1.804393 -0.007,-0.6859 -0.45457,-1.821813 -1.78494,-4.51244 -1.15129,-2.326263 -1.44129,-2.823451 -2.35189,-4.031946 -0.43862,-0.580659 -0.7975,-1.143897 -0.7975,-1.248416 0,-0.106695 -0.3741,-0.593723 -0.83157,-1.083653 -1.17232,-1.255674 -2.14599,-6.285625 -1.3282,-6.859025 0.6815,-0.479043 1.28978,-1.865365 1.28978,-2.944664 0,-1.036474 0.0884,-1.185268 0.79749,-1.339142 1.0382,-0.225005 1.95025,-0.661951 3.55248,-1.698426 3.34152,-2.162952 3.61485,-3.118134 1.74,-6.089653 -0.638,-1.011071 -1.15999,-1.988028 -1.15999,-2.17021 0,-0.181455 -0.12832,-0.331702 -0.2842,-0.331702 -0.1566,0 -0.36685,-0.326619 -0.4669,-0.725822 -0.10005,-0.399202 -0.26825,-0.725822 -0.3741,-0.725822 -0.10658,0 -0.44369,-0.489931 -0.75037,-1.088734 -1.39344,-2.723287 -3.10009,-3.597904 -4.7944,-2.457637 m -161.277746,0.2613 c -0.843897,0.136455 -2.182242,1.261481 -2.945663,2.476508 -0.411074,0.653241 -0.496623,1.546003 -0.500249,5.225924 -0.0072,5.269474 -0.0812,5.479962 -1.624718,4.516795 -0.619147,-0.386138 -1.321669,-0.792598 -1.560918,-0.902198 -0.239249,-0.110325 -1.022247,-0.540737 -1.739994,-0.956634 -4.494981,-2.604252 -5.138054,-2.798773 -6.387949,-1.933592 -1.18537,0.82018 -1.642843,1.470517 -3.63441,5.164954 -1.072995,1.990933 -2.224291,4.022511 -2.878237,5.08076 -0.344375,0.558884 -0.717748,1.212125 -0.826497,1.451646 -0.1102,0.239522 -0.598123,1.088734 -1.084596,1.887139 -0.485748,0.798405 -1.034571,1.810928 -1.219446,2.250051 -0.184874,0.439123 -0.437897,0.798405 -0.562596,0.798405 -0.123976,0 -0.2262,0.186536 -0.2262,0.414445 0,0.228634 -0.163125,0.589368 -0.362499,0.803486 -2.549814,2.729093 -1.802342,6.493936 1.586294,7.991307 0.603198,0.26565 1.096196,0.588643 1.096196,0.718568 0,0.128469 0.234899,0.233713 0.521997,0.233713 0.2871,0 0.666998,0.145887 0.845347,0.323719 0.410348,0.410812 1.451445,1.016875 2.46354,1.4335 0.838097,0.345487 1.410844,1.477775 0.842447,1.667212 -0.183424,0.06097 -0.517649,0.295413 -0.743122,0.521138 -0.22475,0.225006 -0.502424,0.409368 -0.616974,0.409368 -0.434997,0 -6.098674,3.59355 -6.720721,4.264207 -0.903347,0.974056 -0.875072,2.79805 0.06888,4.472525 0.396573,0.704043 0.811995,1.469062 0.922921,1.7006 0.179798,0.3738 1.999541,3.508631 2.705689,4.659781 0.644522,1.050994 3.72286,6.336437 4.228183,7.258231 0.306673,0.558881 0.632197,1.081475 0.724997,1.161313 0.0928,0.07984 0.481398,0.779537 0.864195,1.555437 1.505094,3.048456 4.158583,4.2105 6.072576,2.659419 0.239249,-0.193794 0.630747,-0.44275 0.869996,-0.553075 0.239249,-0.110325 0.695998,-0.360013 1.014997,-0.555981 5.969625,-3.653794 5.779676,-3.694438 5.852176,1.281075 0.118899,8.156072 0.01812,8.097282 13.753191,8.097282 14.562294,0 14.855194,-0.17275 14.739194,-8.697539 -0.058,-4.260581 -0.199375,-4.179287 3.559013,-2.071493 0.685118,0.384681 1.572518,0.881143 1.971256,1.103975 0.398756,0.222825 1.247,0.718562 1.885,1.103243 2.870262,1.727463 5.043081,0.455825 7.199225,-4.212668 0.110187,-0.239525 0.476319,-0.892763 0.811994,-1.45165 0.33785,-0.558882 1.077343,-1.865363 1.644293,-2.903288 0.567669,-1.037925 1.268019,-2.279081 1.556569,-2.758125 0.289275,-0.479044 0.65395,-1.132287 0.811269,-1.45165 0.1566,-0.319362 0.6757,-1.233894 1.15275,-2.0323 3.86132,-6.459825 3.98603,-8.852862 0.526344,-10.080231 -0.438619,-0.15605 -0.7975,-0.401381 -0.7975,-0.544363 0,-0.145168 -0.128319,-0.26275 -0.284919,-0.26275 -0.1566,0 -1.102719,-0.493562 -2.102494,-1.095993 -1.000494,-0.603882 -2.176444,-1.254219 -2.615062,-1.445838 -1.299919,-0.569044 -1.022244,-1.350031 0.87,-2.4453 0.917118,-0.52985 1.928487,-1.125025 2.247487,-1.323175 0.319,-0.195969 0.808375,-0.440575 1.087494,-0.541462 0.279125,-0.100888 0.5075,-0.28525 0.5075,-0.408638 0,-0.123391 0.293625,-0.300491 0.652494,-0.391944 3.922246,-1.003087 3.896866,-4.236628 -0.08264,-10.348055 A 7.9894675,7.9985669 0 0 1 98.36515,50.972658 c -0.10875,-0.239522 -0.6699,-1.219382 -1.249169,-2.177469 -0.580006,-0.958085 -1.143319,-1.937946 -1.25425,-2.177468 -0.111644,-0.239521 -0.460369,-0.827438 -0.775744,-1.30648 -0.315375,-0.479043 -0.664818,-1.06696 -0.776468,-1.306482 -0.11165,-0.239521 -0.8961,-1.582293 -1.743619,-2.986035 -0.8468,-1.403015 -1.5399,-2.665221 -1.5399,-2.805305 0,-1.448742 -3.415456,-2.217388 -5.224325,-1.174381 a 38.474143,38.517962 0 0 1 -1.735644,0.939941 c -0.398744,0.196698 -0.897544,0.522592 -1.109244,0.723645 -0.21025,0.201779 -0.5684,0.36654 -0.797493,0.36654 -0.226925,0 -0.41325,0.121939 -0.41325,0.270732 0,0.148794 -0.293625,0.360008 -0.6525,0.468882 -0.358875,0.109599 -1.063569,0.506624 -1.565994,0.883326 -1.331819,0.998732 -1.493494,0.5734 -1.602244,-4.238805 -0.1044,-4.662685 -0.608994,-6.360385 -2.211237,-7.449119 -0.7511,-0.510254 -20.307897,-0.918166 -23.006335,-0.479043 m 21.379441,2.08166 c 2.391037,1.490114 2.728887,2.487394 2.728887,8.056632 0,2.980229 0.10875,4.761398 0.29,4.761398 0.1595,0 0.29,-0.108148 0.29,-0.239521 0,-0.130648 0.554619,-0.529851 1.232488,-0.886956 0.677875,-0.355653 1.624,-0.892762 2.102494,-1.192527 6.49235,-4.066785 9.071893,-3.297413 12.640325,3.769924 0.3625,0.718564 0.7366,1.371805 0.831575,1.451646 0.303043,0.256941 1.202768,1.75649 2.189487,3.65234 0.528525,1.0147 1.217269,2.209404 1.529744,2.652882 0.52925,0.749049 1.447094,2.657237 1.918344,3.984767 0.538671,1.519147 -1.940819,5.968438 -3.326288,5.968438 -0.222575,0 -3.329912,1.768831 -4.618231,2.629656 -0.23925,0.159682 -0.668444,0.368719 -0.954094,0.464532 -0.9019,0.301212 -0.2552,0.999456 1.969094,2.126656 0.318994,0.161862 0.775744,0.4159 1.014994,0.563969 0.23925,0.148793 0.630743,0.349843 0.869987,0.447831 1.35285,0.551625 3.943994,2.441662 4.305769,3.139906 1.37387,2.652888 1.21799,3.966625 -0.8758,7.399044 -0.61045,1.001631 -1.109969,1.878425 -1.109969,1.949556 0,0.07113 -0.58725,1.098169 -1.304994,2.281263 -0.71775,1.183818 -1.305,2.231181 -1.305,2.328437 0,0.09654 -0.521993,1.029219 -1.159993,2.07295 C 92.708,89.033358 92.186,89.985633 92.186,90.10467 c 0,0.506625 -2.701338,3.256038 -3.198688,3.256038 -0.299425,0 -0.877243,0.152425 -1.28325,0.336781 -0.567668,0.25985 -1.020787,0.251862 -1.970537,-0.03411 -1.629075,-0.490656 -1.673294,-0.509525 -2.682488,-1.160587 -0.96425,-0.622031 -1.720418,-1.053894 -3.553937,-2.0294 -0.678594,-0.361463 -1.306444,-0.773731 -1.394894,-0.916719 -0.695994,-1.127925 -0.933794,-0.08347 -1.046169,4.602444 -0.1305,5.456012 -0.2523,5.834162 -2.374368,7.374363 l -1.142594,0.82743 h -9.564888 c -13.036896,0 -13.180445,-0.0885 -13.383445,-8.296149 -0.05872,-2.3836 -0.12035,-4.451469 -0.1363,-4.595913 -0.01523,-0.144437 -0.266798,-0.04645 -0.558247,0.21775 -0.292174,0.2642 -0.616248,0.480494 -0.719923,0.480494 -0.104399,0 -1.007745,0.500819 -2.008241,1.112687 -4.932155,3.019425 -6.1806,3.356207 -8.431715,2.277632 -1.037471,-0.498638 -3.680085,-3.613144 -3.680085,-4.338244 0,-0.166938 -0.32625,-0.731625 -0.724997,-1.255675 -0.39875,-0.522588 -0.724998,-1.020506 -0.724998,-1.105425 0,-0.08492 -0.701072,-1.312288 -1.558744,-2.726919 -1.453618,-2.401744 -2.965962,-5.043012 -3.856984,-6.738537 -0.656847,-1.252044 -0.488648,-3.775732 0.333499,-4.9864 0.575648,-0.849213 4.621856,-3.723475 5.240279,-3.723475 0.0754,0 0.677146,-0.391944 1.33762,-0.870988 0.661196,-0.479044 1.377494,-0.870987 1.592817,-0.870987 0.431374,0 0.497349,-0.279438 0.169649,-0.725819 -0.117449,-0.159681 -1.094745,-0.743244 -2.170641,-1.29705 -1.07662,-0.5538 -1.957492,-1.109056 -1.957492,-1.233894 0,-0.124844 -0.186323,-0.227187 -0.413972,-0.227187 -0.228375,0 -0.587248,-0.164763 -0.797498,-0.366538 -0.210973,-0.201056 -0.738047,-0.522594 -1.171594,-0.714937 -1.963293,-0.869535 -3.533636,-5.649804 -2.272866,-6.91709 0.151523,-0.151697 0.750372,-1.189624 1.331819,-2.307391 0.581448,-1.117041 1.142596,-2.096902 1.246996,-2.177468 0.105849,-0.07984 0.434272,-0.602433 0.729347,-1.161316 a 119.46936,119.60543 0 0 1 3.426336,-6.030136 c 0.611172,-1.00091 1.115769,-1.915446 1.120844,-2.032304 0.01958,-0.431865 1.065746,-1.458179 2.245317,-2.203598 1.967642,-1.24406 4.117983,-0.884778 7.605219,1.27019 1.630518,1.007442 4.381157,2.607881 4.480482,2.607881 0.06743,0 0.163124,-2.264568 0.213149,-5.032129 0.101499,-5.649804 0.316824,-6.253689 2.796314,-7.880259 l 1.06502,-0.698967 9.20746,-0.01669 9.208919,-0.01742 1.329644,0.828164 m 138.971045,1.229544 c -1.22306,1.001635 -1.22161,1.012522 0.40094,3.681373 0.60826,1.001635 1.10633,1.948108 1.10633,2.104885 0,0.156779 0.12181,0.285249 0.27043,0.285249 0.14862,0 0.35743,0.275813 0.464,0.611869 0.39875,1.258576 2.45557,2.504088 2.45557,1.486485 0,-0.12339 0.45675,-0.470333 1.015,-0.77155 1.31658,-0.709854 1.31007,-1.411725 -0.0326,-3.402657 -0.57565,-0.854294 -1.16869,-1.814557 -1.31732,-2.133919 -1.38764,-2.982406 -2.44179,-3.432416 -4.36232,-1.861735 m -158.747548,0.48194 c -1.721143,0.825986 -1.854543,1.400838 -1.854543,8.013083 0,6.753056 -0.06018,6.893139 -2.31999,5.424074 -1.12737,-0.732356 -4.347083,-2.583929 -5.599152,-3.220476 a 158.12403,158.30412 0 0 1 -2.319991,-1.201962 c -2.030716,-1.083653 -3.803334,-0.06315 -5.420803,3.121763 -0.398748,0.784614 -0.888121,1.601892 -1.087495,1.815284 -0.199375,0.214117 -0.362499,0.508075 -0.362499,0.653965 0,0.145165 -0.498073,1.082928 -1.106345,2.083838 -0.608998,1.001635 -1.197695,2.01561 -1.30862,2.255131 -0.11165,0.239522 -0.595947,1.088734 -1.077345,1.887139 -0.480673,0.798405 -0.993247,1.733265 -1.138246,2.07658 -0.144999,0.34404 -0.402373,0.711306 -0.571297,0.815824 -1.047621,0.64816 -0.08773,3.782988 1.418094,4.630749 0.308848,0.174198 1.12302,0.624208 1.810317,1.001635 0.686572,0.375977 1.313695,0.767922 1.393444,0.870987 0.07975,0.101619 0.775748,0.512432 1.547144,0.910907 0.771397,0.399206 2.109017,1.093818 2.972488,1.544556 2.200366,1.1468 2.094517,1.575031 -0.816346,3.290875 -1.312246,0.773731 -2.606365,1.537294 -2.875338,1.696975 -0.268975,0.159681 -1.104896,0.61695 -1.858893,1.01615 -4.80818,2.543287 -4.911855,3.582669 -1.004122,10.016356 0.581448,0.958088 1.152022,1.93795 1.26802,2.177469 0.115275,0.239525 0.367575,0.696794 0.561148,1.016156 0.192849,0.319363 0.807647,1.364544 1.365895,2.322631 0.558247,0.958088 1.173045,2.003269 1.365894,2.322632 0.193575,0.319362 0.448048,0.776631 0.565498,1.01615 1.101996,2.239893 3.516235,2.581031 6.188575,0.874618 0.917847,-0.585737 4.225282,-2.518606 4.639981,-2.71095 0.239249,-0.111775 0.826497,-0.4609 1.304995,-0.776625 2.675239,-1.765206 2.754989,-1.633106 2.756438,4.608975 0,9.000204 -0.740947,8.434054 11.093904,8.446394 l 9.209638,0.009 0.940319,-0.899296 0.9396,-0.899294 -0.08845,-5.766662 c -0.12325,-7.954294 -0.428469,-7.706788 5.308431,-4.309213 0.797494,0.471788 1.773344,0.994381 2.169187,1.158419 0.395125,0.165487 0.786619,0.390487 0.87,0.500812 0.08265,0.1096 0.782994,0.508807 1.556569,0.886957 2.631738,1.286887 4.270231,0.558887 5.9544,-2.6478 a 71.143962,71.224987 0 0 1 1.509444,-2.685544 c 0.47415,-0.798406 0.996869,-1.775363 1.161444,-2.171663 0.165293,-0.395575 0.39005,-0.787518 0.499525,-0.870987 0.10875,-0.08274 0.41035,-0.542913 0.669162,-1.021956 1.5834,-2.938132 2.416425,-4.423894 2.76225,-4.927613 1.475369,-2.150172 -0.42775,-4.724666 -5.117031,-6.92391 -0.23925,-0.112506 -1.087494,-0.599531 -1.884994,-1.082931 -0.797494,-0.483394 -1.812494,-1.018325 -2.253287,-1.188169 -0.679325,-0.261294 -1.371694,-1.019781 -1.371694,-1.502456 0,-0.07258 1.593544,-1.093813 3.540881,-2.269644 4.653756,-2.808936 4.627656,-2.794419 5.328731,-3.115959 2.558513,-1.173655 2.696982,-3.62621 0.4031,-7.150806 -0.31175,-0.479043 -0.657575,-1.066959 -0.769225,-1.306481 -0.111656,-0.239521 -0.871443,-1.546002 -1.689243,-2.903291 -0.816344,-1.357288 -1.580494,-2.663769 -1.696494,-2.90329 -0.116,-0.239522 -0.3683,-0.699694 -0.561869,-1.021959 a 642.21469,642.94619 0 0 1 -1.2006,-2.027949 c -1.626894,-2.760304 -3.235656,-3.183459 -6.023275,-1.585197 -0.845344,0.48485 -1.863237,1.038653 -2.261987,1.230995 -0.39875,0.191618 -0.89755,0.513883 -1.109244,0.714936 -0.21025,0.201779 -0.52345,0.36654 -0.696725,0.36654 -0.17255,0 -0.741675,0.32662 -1.265119,0.725823 -0.522731,0.399202 -1.140425,0.725823 -1.373869,0.725823 -0.232725,0 -0.5017,0.204682 -0.5974,0.455091 -0.113825,0.297587 -0.4524,0.422428 -0.973668,0.362911 l -0.79895,-0.09218 -0.07322,-5.806581 c -0.113825,-9.007461 0.4495,-8.579226 -11.187432,-8.526967 -6.833095,0.03048 -8.632538,0.120487 -9.35971,0.469608 m 11.121454,9.229562 c 3.716338,1.554713 4.337656,5.89368 1.238294,8.651808 -0.710494,0.631465 -0.885219,0.981312 -0.753994,1.506082 0.09425,0.37525 0.0406,0.764292 -0.119625,0.863729 -0.828675,0.512431 -0.0072,0.726548 2.826763,0.735259 4.168737,0.01234 5.489681,1.071314 4.033887,3.237169 l -0.64815,0.963167 -3.251612,0.08202 c -3.125463,0.07984 -3.576413,0.201052 -2.977563,0.803486 0.1508,0.152422 0.313925,1.059701 0.3625,2.017787 l 0.08845,1.741975 1.014994,0.0871 c 2.246044,0.190165 5.248975,2.577398 5.634681,4.476873 0.477769,2.357475 0.480669,2.832163 0.029,4.174207 -0.886675,2.632562 -3.697487,4.762125 -6.285731,4.762125 -0.9599,0 -1.156369,0.07766 -0.885944,0.348393 0.1972,0.197425 0.348,1.141725 0.348,2.177469 V 80.00557 H 67.655 c 3.929481,0 4.197006,4.313563 0.2784,4.484131 l -1.702294,0.07476 -0.1508,1.670119 c -0.3567,3.9463 -4.532684,4.029768 -4.461634,0.08928 0.03045,-1.69625 -0.173998,-1.952463 -1.555843,-1.958994 -1.544243,-0.0073 -4.706681,-2.358925 -4.706681,-3.499919 0,-0.248956 -0.150799,-0.603887 -0.335674,-0.788969 -0.184874,-0.185087 -0.346548,-1.105431 -0.359598,-2.044643 -0.04713,-3.516613 2.27649,-6.122319 6.146525,-6.888063 0.772846,-0.153869 0.891746,-0.2671 0.623497,-0.592269 -0.223299,-0.268556 -0.266074,-0.979862 -0.130499,-2.151337 l 0.202998,-1.749231 h -1.491318 c -5.301178,0 -8.459265,-6.724751 -5.03728,-10.726938 1.602244,-1.8748 2.986263,-2.627479 4.824855,-2.627479 h 1.556569 l -0.08337,-1.088733 a 78.219931,78.309019 0 0 1 -0.10005,-1.451646 c -0.0094,-0.200327 -0.206624,-0.362911 -0.437898,-0.362911 -0.230549,0 -0.780097,-0.473963 -1.220895,-1.051718 -3.041363,-3.992025 1.30862,-9.720944 5.917425,-7.793159 m 137.183215,4.579942 c -0.59159,0.192343 -1.23757,0.511705 -1.43549,0.709855 -0.19865,0.198875 -0.46473,0.360733 -0.59232,0.360733 -0.3132,0 -1.392,1.097445 -1.392,1.416081 0,0.140084 -0.17835,0.402831 -0.39585,0.583561 -1.189,0.987845 -1.1861,5.627305 0.007,7.023062 0.2146,0.252586 0.39077,0.552351 0.39077,0.667756 0,0.423155 1.59427,1.669392 2.8449,2.223195 3.43793,1.52205 7.17891,0.02468 9.26256,-3.708228 2.62304,-4.697525 -3.30671,-11.029603 -8.68765,-9.276015 m -30.8247,9.644007 -1.23249,0.902198 c -0.84389,0.616949 -0.82215,1.013248 0.13557,2.506266 a 45.281866,45.333439 0 0 1 1.32892,2.215937 c 1.74725,3.18854 2.81009,3.979684 3.89034,2.898209 0.17835,-0.17855 0.62712,-0.475413 0.99832,-0.6605 1.09692,-0.547994 0.95627,-1.078569 -1.26367,-4.780992 -2.21994,-3.700245 -2.59984,-4.003639 -3.85699,-3.081118 m 43.65787,0.354202 c 1.24192,1.460355 3.61412,6.019248 4.11727,7.91147 0.14862,0.558881 0.4727,1.800038 0.72137,2.758125 0.95554,3.688631 0.63726,12.588669 -0.50823,14.226125 -0.11238,0.159681 -0.29507,0.672838 -0.40672,1.140269 -0.2233,0.931956 -1.55222,3.756131 -2.56721,5.456012 -1.79075,2.997644 -2.77746,4.000732 -3.93818,4.000732 -1.31588,0 -1.21148,-1.000182 0.25374,-2.446019 0.6351,-0.627113 1.15492,-1.313013 1.15492,-1.524231 0,-0.211938 0.1305,-0.384682 0.29,-0.384682 0.1595,0 0.29,-0.186537 0.29,-0.413718 0,-0.229363 0.16312,-0.5901 0.3625,-0.804213 0.3364,-0.359287 0.87434,-1.417531 1.81612,-3.5725 0.37482,-0.856481 0.95554,-3.147169 1.56962,-6.191269 0.85549,-4.240262 -0.41688,-11.398325 -2.75499,-15.499948 -0.38933,-0.684451 -0.78808,-1.47342 -0.8845,-1.752862 -0.0971,-0.279442 -0.28131,-0.508076 -0.40963,-0.508076 -0.3422,0 -0.64235,-1.633101 -0.4263,-2.315375 0.22911,-0.72292 0.74675,-0.753404 1.3195,-0.07984 M 167.40057,56.6319 c -0.3538,0.759211 0.0312,2.431506 0.71775,3.118135 0.18632,0.186536 0.33857,0.516786 0.33857,0.733807 0,0.217747 0.1247,0.317184 0.27767,0.222828 0.31538,-0.195247 0.0638,-1.06696 -0.39729,-1.373983 -0.1682,-0.111777 -0.37338,-0.92615 -0.45675,-1.807299 -0.1363,-1.471243 -0.17618,-1.546002 -0.47995,-0.892762 M 59.055807,58.160481 c -1.687792,1.048088 -0.822146,3.842506 1.222345,3.944847 l 0.897547,0.045 0.07032,-2.250051 c 0.07902,-2.521508 -0.363948,-2.873532 -2.190217,-1.739797 m 109.982048,2.949744 c 0,0.540738 0.35743,1.177284 0.5829,1.037926 0.29581,-0.182907 0.0145,-1.304303 -0.32696,-1.304303 a 0.26172393,0.26202202 0 0 0 -0.25594,0.266377 m 0.87,1.567776 c 0,0.229363 0.19576,0.580657 0.43501,0.778807 0.23923,0.198875 0.435,0.541468 0.435,0.762118 0,0.219194 0.1305,0.3992 0.28999,0.3992 0.42484,0 0.35381,-0.475412 -0.145,-0.974781 -0.23926,-0.239519 -0.435,-0.567594 -0.435,-0.72945 0,-0.161856 -0.1305,-0.374525 -0.29,-0.473237 -0.1595,-0.09871 -0.29,0.008 -0.29,0.237343 m 37.78322,0.468157 c 0.39368,0.468156 0.97658,1.415356 1.29557,2.104887 1.40433,3.037569 1.52104,3.623306 1.52104,7.641463 0,3.936862 -0.0507,4.21195 -1.38473,7.548556 -0.52998,1.324625 -2.871,4.649619 -3.88382,5.516256 -2.52009,2.156419 -6.07693,4.209769 -7.29347,4.209769 -0.36396,0 -0.80692,0.145162 -0.98382,0.322269 -0.45458,0.455087 -7.52764,0.471781 -7.97933,0.01887 -0.18849,-0.187993 -0.68148,-0.341137 -1.09763,-0.341137 -0.41543,0 -1.0092,-0.191619 -1.3195,-0.426056 -0.30958,-0.234444 -0.72355,-0.430413 -0.92075,-0.435494 -1.08097,-0.02831 -4.57835,-2.721838 -4.24195,-3.267656 0.2987,-0.484125 2.19239,-0.195969 3.29511,0.500818 0.63074,0.3992 1.29412,0.725825 1.47174,0.725825 0.17835,0 0.66989,0.181457 1.0933,0.402107 3.84901,2.016331 10.14851,1.268737 14.54924,-1.726738 2.19238,-1.492287 4.25936,-3.910006 5.32003,-6.224656 2.18224,-4.759944 1.68924,-11.5805 -1.09982,-15.242275 -1.34125,-1.76085 0.23489,-3.020876 1.65879,-1.326806 M 65.842506,68.351033 c 0.06524,1.135912 -0.03335,1.856656 -0.2987,2.177468 -0.605381,0.72945 1.723319,0.677919 2.384519,-0.05299 1.237569,-1.369625 0.231994,-3.824356 -1.566725,-3.824356 -0.569844,0 -0.608994,0.129193 -0.519094,1.69915 m 126.869414,5.95465 c 1.79002,1.54165 1.31732,9.159887 -0.638,10.268943 l -1.14115,0.648882 -16.93085,0.0073 c -21.02347,0.0073 -19.19648,0.598075 -19.15443,-6.200706 0.0384,-5.90965 -1.79799,-5.403025 19.61117,-5.4052 h 17.45648 l 0.79678,0.6859 M 59.925804,76.474445 c -0.953371,0.938488 -1.000496,1.566325 -0.197923,2.693525 0.719921,1.0118 2.254015,1.261481 1.730567,0.281619 -0.505323,-0.943569 -0.374098,-3.140631 0.207349,-3.479594 0.440798,-0.256937 0.412523,-0.294681 -0.217499,-0.28815 -0.398749,0.0073 -1.08387,0.360731 -1.522494,0.7926 m 97.802106,-0.606062 c -0.7511,0.285975 -0.8613,0.7309 -0.86565,3.508625 -0.007,4.285981 -2.03942,3.827987 16.98088,3.827987 19.52127,0 17.8168,0.343319 17.811,-3.589919 0,-1.4589 -0.0827,-2.946112 -0.17907,-3.305393 l -0.17472,-0.653244 -16.56909,0.02323 c -9.11321,0.01234 -16.7641,0.09726 -17.00335,0.188713 m 13.51395,11.764131 c 0.75326,0.998006 1.68851,2.162956 2.07928,2.589012 0.88088,0.961713 0.64308,1.405194 -0.74819,1.395757 -1.49494,-0.01089 -5.06048,-4.756319 -4.21224,-5.605532 0.6351,-0.635093 1.58195,-0.101612 2.88187,1.620763 m 21.60491,6.532406 c -19.01667,0.07113 -20.44057,0.11105 -20.80379,0.582838 -0.49301,0.63945 -0.3016,5.436413 0.24215,6.092553 0.44442,0.53566 42.4145,0.2613 43.07932,-0.28089 0.24578,-0.20032 0.3625,-1.218657 0.3625,-3.153701 0,-3.099262 -0.23925,-3.55145 -1.79364,-3.388137 -0.36975,0.03919 -9.85779,0.105243 -21.08582,0.147337 m 57.87362,35.589271 c 0.13268,0.13282 0.2639,9.73546 0.29218,21.33919 0.0283,11.60373 0.21387,36.69252 0.41107,55.75335 0.27404,26.42576 0.27912,34.78433 0.021,35.19805 -0.18632,0.29904 -0.33856,0.74832 -0.33856,0.99945 0,1.2448 -3.57424,5.93869 -4.52108,5.93869 -0.18561,0 -0.50025,0.19598 -0.6989,0.43549 -0.19865,0.23953 -0.64524,0.4355 -0.99324,0.4355 -0.34656,0 -0.79389,0.16331 -0.99326,0.36291 -0.28564,0.28598 -10.78795,0.40138 -49.57529,0.54437 -27.06704,0.10016 -52.21792,0.28307 -55.89075,0.40718 -5.8993,0.19815 -6.7316,0.1713 -7.13687,-0.23444 -0.41107,-0.41154 -0.4785,-4.00363 -0.6438,-34.52013 -0.1015,-18.73349 -0.26825,-45.71449 -0.3712,-59.95732 l -0.18632,-25.89663 0.6931,-0.14516 c 0.38135,-0.0798 16.22253,-0.23226 35.20295,-0.34041 18.98043,-0.10742 44.16682,-0.28743 55.96978,-0.3992 25.58152,-0.24461 28.44453,-0.23662 28.75918,0.0798 m -125.11347,10.06427 c 0.31175,13.63893 0.70108,110.05795 0.44805,110.83313 l -0.21387,0.65324 -35.459609,0.0232 c -19.503144,0.0131 -44.203071,0.11613 -54.889527,0.22936 -10.686457,0.11323 -20.224518,0.11032 -21.195289,-0.007 C 10.367171,251.0793 7.0735094,248.10415 5.8279646,243.90163 5.4422762,242.60003 4.762229,132.86506 5.1319774,131.51141 5.249427,131.07955 73.697125,130.3167 108.42811,130.36098 l 16.96493,0.0218 0.21532,9.4357 m -63.145066,13.28546 c -0.478498,0.2475 -0.935246,0.52767 -1.014996,0.6242 -0.07975,0.0944 -1.515244,1.34786 -3.189987,2.78499 a 652.82362,653.56712 0 0 0 -5.364978,4.65688 411.20238,411.67071 0 0 1 -3.155912,2.75812 c -1.142595,0.97551 -1.294845,1.11051 -2.942039,2.60063 -0.793871,0.71856 -2.082191,1.82907 -2.862288,2.4678 -0.780097,0.63872 -1.758842,1.49301 -2.174992,1.89802 -0.414697,0.40646 -2.190215,1.96698 -3.944708,3.46798 -1.754492,1.50245 -3.646735,3.15225 -4.204983,3.66686 -0.558247,0.51533 -1.405044,1.24116 -1.882092,1.61278 -0.476323,0.37234 -1.072995,0.87316 -1.326745,1.11268 -0.251574,0.23952 -0.935971,0.86156 -1.520319,1.38197 -4.981454,4.43913 -1.892243,9.62949 5.744152,9.65054 1.754492,0.007 3.333537,0.10452 3.508985,0.2221 0.22185,0.1488 0.376275,5.43932 0.507499,17.42773 0.173274,15.63422 0.237074,17.2862 0.693096,18.00041 1.637045,2.55998 0.569124,2.46562 26.012894,2.30086 22.579306,-0.14807 23.977106,-0.22065 25.062419,-1.30286 1.55585,-1.55035 1.489875,-0.69824 1.489875,-19.30543 0,-13.0111 0.08483,-17.31087 0.348,-17.57507 0.232,-0.23227 1.500744,-0.3484 3.798981,-0.3484 4.803834,0 6.867174,-1.16422 7.310154,-4.12485 0.46616,-3.10942 0,-3.69444 -8.702148,-11.01509 -4.014306,-3.37507 -5.24245,-4.42243 -5.364975,-4.57123 -0.07975,-0.0973 -0.73225,-0.65759 -1.449993,-1.24551 -0.717757,-0.58719 -1.647919,-1.37108 -2.066975,-1.74197 a 110.5113,110.63717 0 0 0 -2.167732,-1.83416 162.57841,162.76358 0 0 1 -4.061437,-3.48394 54.374779,54.436709 0 0 0 -1.027319,-0.87099 c -2.493987,-2.0657 -4.201356,-3.52025 -4.451481,-3.79243 -0.1595,-0.1742 -1.06865,-0.95953 -2.019844,-1.7456 -2.981187,-2.46345 -3.124737,-2.58393 -3.456062,-2.89894 -1.326744,-1.26003 -4.428282,-1.65415 -6.12405,-0.77808 m 4.386231,1.40592 c 0.76705,0.17782 2.388869,1.33188 4.088987,2.90837 0.376994,0.35057 1.227419,1.07422 1.887894,1.6077 1.409394,1.13954 3.634406,3.0412 4.129581,3.5304 0.190675,0.18871 0.918563,0.80058 1.616744,1.35946 a 89.573387,89.675406 0 0 1 4.054181,3.48395 c 0.25955,0.23953 0.792425,0.69679 1.183919,1.01615 1.743619,1.42262 4.258638,3.55872 5.214906,4.43043 0.57275,0.52259 1.503644,1.30793 2.066244,1.74415 1.096919,0.84921 4.160031,3.47524 7.123094,6.10635 3.565535,3.16459 3.949785,6.36038 1.012094,8.40866 -1.929213,1.34495 -1.101994,1.31083 -34.299613,1.43205 l -31.464869,0.11467 -1.146946,-0.66776 c -3.70981,-2.16222 -3.656159,-5.70278 0.1363,-8.93923 a 217.13662,217.38392 0 0 0 2.834739,-2.4678 c 1.940092,-1.7289 2.404089,-2.13101 3.801159,-3.29378 0.701072,-0.58356 1.614568,-1.38777 2.029992,-1.78697 0.415423,-0.39921 1.217995,-1.11777 1.784943,-1.59682 3.494485,-2.957 4.230357,-3.59427 5.311328,-4.59953 a 61.178151,61.247829 0 0 1 2.503414,-2.17747 67.083975,67.160381 0 0 0 1.62327,-1.35221 c 2.432365,-2.22029 4.969854,-4.44059 5.453427,-4.77374 0.334949,-0.23008 0.674247,-0.50444 0.753996,-0.60896 0.690923,-0.90728 4.309385,-3.76339 4.77411,-3.76702 0.324793,0 0.786618,-0.13645 1.025868,-0.29759 0.23925,-0.15968 0.712669,-0.22791 1.051244,-0.14952 l 1.449994,0.33606 m -2.863738,2.04319 c -0.556075,0.16113 -1.365168,0.81002 -3.208836,2.57231 -0.668448,0.63873 -1.998092,1.8073 -2.954363,2.59845 -0.956996,0.78897 -1.945892,1.63818 -2.198916,1.88714 -0.930171,0.91163 -4.496431,4.04646 -5.340329,4.69389 -0.478498,0.36655 -1.133895,0.93342 -1.457243,1.26004 -0.321174,0.32661 -1.560919,1.4422 -2.75354,2.48013 a 562.82608,563.46711 0 0 0 -2.492539,2.17747 c -0.178349,0.15968 -0.701073,0.60461 -1.16072,0.98857 -0.459649,0.38469 -1.426795,1.2339 -2.149617,1.88714 -0.722097,0.65397 -2.148891,1.90746 -3.170412,2.7857 -5.739801,4.9356 -6.511198,6.5295 -3.933834,8.12414 1.359369,0.84196 60.646006,0.70115 64.038993,-0.15097 2.928989,-0.73671 2.298238,-3.41863 -1.544969,-6.56652 -1.216543,-0.99583 -1.655168,-1.36745 -3.471293,-2.94103 -0.398744,-0.3455 -1.638488,-1.40592 -2.754988,-2.35748 -1.116487,-0.95082 -2.245312,-1.93432 -2.508487,-2.18472 -0.262444,-0.25041 -1.039644,-0.91308 -1.726219,-1.47197 -0.686569,-0.55888 -1.710988,-1.42406 -2.276488,-1.9227 a 101.68084,101.79664 0 0 0 -1.754493,-1.50754 c -1.364444,-1.13228 -5.363525,-4.55309 -6.234982,-5.33262 -0.478487,-0.42824 -1.913987,-1.66794 -3.189981,-2.75378 -1.275994,-1.08655 -2.450494,-2.11504 -2.609987,-2.28633 -1.409394,-1.51334 -3.705463,-2.39667 -5.146032,-1.97932 m 116.361308,20.34917 c -0.23925,0.0907 -0.50025,0.24387 -0.58,0.33968 -0.2088,0.25041 -1.189,0.84704 -2.03,1.2368 -0.65466,0.30267 -0.67062,0.3484 -0.16384,0.46598 0.30812,0.0726 0.69962,-0.0581 0.86999,-0.28888 0.51765,-0.70404 4.01794,-1.37325 4.35216,-0.83179 0.10803,0.17492 0.50024,0.31791 0.8729,0.31791 0.37192,0 0.75182,0.19597 0.84389,0.43549 0.0914,0.23953 0.3103,0.4355 0.48575,0.4355 0.1769,0 0.5162,0.19597 0.75545,0.43548 0.4988,0.49938 0.97367,0.57051 0.97367,0.14518 0,-0.15968 -0.19575,-0.29033 -0.435,-0.29033 -0.23925,0 -0.435,-0.10307 -0.435,-0.22863 0,-1.19326 -3.9708,-2.75813 -5.50997,-2.17239 m 16.67493,0.23807 c -0.47851,0.24532 -1.00049,0.61404 -1.15999,0.82018 -0.1595,0.20468 -1.10055,0.96897 -2.09235,1.69842 -2.10249,1.546 -2.69264,2.09908 -2.69264,2.52659 0,0.58865 -0.94032,0.30993 -1.95024,-0.57775 -1.10707,-0.9726 -1.65517,-0.97841 -0.68368,-0.007 0.33206,0.33242 0.68077,0.60461 0.77503,0.60461 0.0942,0 0.38788,0.2613 0.6525,0.58066 0.53142,0.64017 0.15949,0.8826 4.13248,-2.69208 0.9947,-0.89422 2.69409,-1.86537 4.37681,-2.50118 0.76704,-0.28961 3.02976,0.27 4.05418,1.00236 1.0295,0.7367 4.92635,2.73924 5.33018,2.73924 0.19793,0 0.43499,0.19598 0.5278,0.4355 0.0913,0.23953 0.43209,0.4355 0.75544,0.4355 0.32408,0 0.58943,0.12847 0.58943,0.28452 0,0.15678 0.32624,0.36727 0.72499,0.46743 0.39875,0.10016 0.725,0.28815 0.725,0.41808 0,0.12919 0.3915,0.32153 0.86999,0.42678 0.47851,0.10524 0.87001,0.29759 0.87001,0.42678 0,0.13065 0.32623,0.31791 0.72499,0.41807 0.39875,0.10017 0.725,0.31066 0.725,0.46744 0,0.15605 0.26099,0.28452 0.57999,0.28452 0.319,0 0.58,0.10524 0.58,0.23444 0,0.1292 0.50388,0.45727 1.11867,0.72872 0.98963,0.43695 1.46015,0.75558 2.85649,1.93505 0.19284,0.16258 0.609,0.29541 0.92583,0.29541 0.3161,0 0.65031,0.12339 0.74311,0.2729 0.0928,0.15098 0.7308,0.55454 1.41665,0.89712 0.71702,0.35856 3.30599,2.65071 6.08635,5.38851 2.66074,2.62023 4.96768,4.7643 5.12573,4.7643 0.15805,0 0.28709,0.19597 0.28709,0.43549 0,0.23953 0.1305,0.4355 0.29001,0.4355 1.55729,0 -10.30439,-11.41284 -13.2892,-12.78682 -2.63899,-1.2143 -3.38719,-1.58664 -3.53074,-1.75286 -0.0797,-0.0929 -0.79749,-0.48485 -1.59499,-0.87099 -0.7975,-0.38614 -1.4935,-0.80058 -1.54641,-0.92034 -0.0537,-0.11976 -0.2726,-0.21775 -0.4872,-0.21775 -0.21461,0 -0.56333,-0.16331 -0.77576,-0.36291 -0.21169,-0.1996 -1.29774,-0.82018 -2.41278,-1.37906 -1.11505,-0.55888 -2.09307,-1.096 -2.17282,-1.19471 -0.0798,-0.098 -0.43862,-0.27073 -0.79749,-0.38251 -0.35888,-0.1125 -0.6525,-0.315 -0.6525,-0.45146 0,-0.13645 -0.3915,-0.33387 -0.87,-0.43912 -0.4785,-0.10525 -0.87,-0.29759 -0.87,-0.42678 0,-0.12993 -0.32624,-0.31792 -0.72499,-0.41808 -0.39876,-0.10016 -0.725,-0.31065 -0.725,-0.46743 0,-0.15605 -0.25375,-0.28452 -0.5626,-0.28452 -0.30957,0 -0.63582,-0.11613 -0.72355,-0.26057 -0.75109,-1.21648 -3.98965,-1.82109 -5.52882,-1.03067 m -20.72984,2.10271 c -0.23635,0.0842 -0.60465,0.32807 -0.8178,0.54146 -0.21387,0.21412 -0.57492,0.38905 -0.8033,0.38905 -0.22764,0 -0.41397,0.0987 -0.41397,0.2192 0,0.12121 -0.68512,0.54218 -1.5225,0.9363 -1.31223,0.61768 -1.42461,0.73163 -0.81344,0.82454 0.41687,0.0631 0.84752,-0.0827 1.04689,-0.35566 0.1856,-0.25403 0.53578,-0.46308 0.77793,-0.46308 0.24215,0 0.60175,-0.19596 0.80112,-0.43549 0.19865,-0.23951 0.4727,-0.43549 0.60827,-0.43549 0.45168,0 2.05392,-1.09454 1.80814,-1.23535 -0.13267,-0.0755 -0.43499,-0.069 -0.67134,0.0145 m 22.32483,0.50807 c -0.39875,0.22065 -0.9425,0.40647 -1.20857,0.41227 -0.26535,0.007 -0.52635,0.1125 -0.58,0.23735 -0.0529,0.12557 -0.91131,0.85066 -1.90674,1.61277 -0.99614,0.76212 -1.94662,1.63891 -2.11264,1.94956 -0.40962,0.76575 -0.10222,0.71204 0.67424,-0.11613 0.63293,-0.67501 2.378,-1.86899 4.19049,-2.86555 0.51765,-0.28452 1.56164,-0.53275 2.31999,-0.5509 0.75762,-0.0189 1.1165,-0.098 0.7975,-0.17564 -0.319,-0.0777 -0.77575,-0.31356 -1.015,-0.52478 -0.36032,-0.31718 -0.55825,-0.31428 -1.15999,0.0203 m -18.70493,0.42316 c -0.3915,0.16838 0.12615,0.24967 1.595,0.24967 1.47029,0 1.98649,-0.0813 1.59499,-0.24967 -0.319,-0.13719 -1.03674,-0.24969 -1.59499,-0.24969 -0.55825,0 -1.276,0.1125 -1.595,0.24969 m -9.89911,2.75811 c -0.0921,0.23953 -0.47922,0.4355 -0.86129,0.4355 -0.38135,0 -0.69383,0.135 -0.69383,0.29977 0,0.16476 -0.29362,0.41807 -0.65249,0.56251 -0.62713,0.25186 -0.62133,0.26275 0.145,0.28089 0.43862,0.0102 0.79749,-0.10887 0.79749,-0.26493 0,-0.15604 0.58725,-0.55089 1.305,-0.87824 1.43259,-0.65323 1.61166,-0.87098 0.71556,-0.87098 -0.32334,0 -0.66409,0.19597 -0.75544,0.43548 m 9.17484,0.44857 c -0.71775,0.46598 -1.4007,0.84921 -1.51742,0.85212 -0.11672,0.007 -1.06574,0.52839 -2.10756,1.16712 -1.04255,0.63872 -2.0735,1.16131 -2.28955,1.16131 -0.2175,0 -0.55679,0.19598 -0.75544,0.4355 -0.19865,0.23952 -0.5104,0.43549 -0.69383,0.43549 -0.1827,0 -1.37096,0.52259 -2.64116,1.16132 -1.27019,0.63872 -2.63754,1.16131 -3.03919,1.15986 -1.15274,0 -4.76758,1.29487 -6.07402,2.17892 -0.23563,0.15968 -4.83936,4.69099 -10.23043,10.06934 l -9.80196,9.77829 v 1.26438 c 0,1.25858 0.029,1.29269 5.52447,6.69789 7.12093,7.00419 6.16248,6.90693 11.91533,1.19398 l 4.26806,-4.2388 1.25352,0.18508 c 0.69019,0.10162 1.79799,0.32445 2.46281,0.49574 1.13245,0.29105 1.79727,0.26274 4.98363,-0.2105 0.73515,-0.11032 1.52177,-0.0552 1.88499,0.13138 0.3422,0.17565 1.34052,0.44348 2.21777,0.5959 0.87725,0.15243 2.44324,0.48776 3.47998,0.74615 1.03675,0.25766 2.34175,0.5705 2.89999,0.69533 0.96643,0.21558 4.00344,1.49956 4.92998,2.08384 0.23925,0.15098 0.63075,0.3484 0.87,0.43913 0.23925,0.09 0.66192,0.28525 0.93887,0.43331 0.76125,0.40719 1.2383,0.32807 1.80525,-0.29976 0.83809,-0.92688 0.38715,-1.85375 -1.28905,-2.65071 -0.8004,-0.38033 -1.45507,-0.79114 -1.45507,-0.91308 0,-0.12194 -0.16312,-0.2221 -0.3625,-0.22283 -0.43935,0 -4.3826,-2.55635 -4.5189,-2.92869 -0.0537,-0.14517 -0.23055,-0.2642 -0.39368,-0.2642 -0.25012,0 -2.38669,-1.52641 -2.84489,-2.03231 -0.0797,-0.0871 -0.73225,-0.60461 -1.45,-1.1468 -1.57106,-1.18962 -4.5827,-4.28743 -4.95245,-5.09527 a 13.840194,13.855957 0 0 0 -0.522,-1.01615 c -1.57832,-2.69135 -1.55584,-8.24317 0.0362,-8.95158 0.12035,-0.0537 0.22257,-0.24968 0.22765,-0.43549 0.0217,-0.84921 2.87969,-3.26185 4.77556,-4.03339 2.99424,-1.21939 7.42107,-1.06915 9.73454,0.32951 0.54737,0.33098 1.18827,0.69389 1.42389,0.80567 0.23563,0.1125 0.7076,0.5059 1.04835,0.87389 1.19261,1.28834 1.36299,0.93413 1.22089,-2.53094 -0.15008,-3.65235 -0.27042,-3.85775 -3.85771,-6.6137 -0.957,-0.73526 -1.80525,-1.4081 -1.885,-1.4952 -1.18753,-1.29777 -3.47273,-1.42479 -5.21997,-0.29033 m 18.91807,-0.32154 c -2.20978,1.23608 -5.1917,4.03268 -5.46648,5.12432 -0.0957,0.38468 -0.27404,0.69968 -0.39512,0.69968 -0.62205,0 -0.98744,6.10853 -0.37845,6.31176 0.15588,0.0515 1.08605,-0.49791 2.06842,-1.22156 0.98165,-0.72365 1.98069,-1.31591 2.21849,-1.31591 0.23924,0 0.435,-0.11323 0.435,-0.25114 0,-0.3317 3.62136,-1.20197 4.99813,-1.20123 3.94036,0 8.38821,2.66377 9.96653,5.96335 0.84463,1.76593 0.78228,6.57305 -0.1044,7.97317 -0.35379,0.55888 -0.76849,1.27745 -0.92074,1.59681 -0.38643,0.81292 -3.07399,3.57975 -4.80456,4.95011 -0.79749,0.63146 -1.51524,1.22156 -1.59499,1.31374 -0.31755,0.36291 -9.42714,7.05281 -10.33701,7.58993 -2.16992,1.2818 -0.65105,2.90692 1.61312,1.72528 l 1.67039,-0.87026 c 2.55634,-1.32826 4.24559,-2.07948 4.67985,-2.07948 0.28494,0 0.64163,-0.1234 0.79315,-0.27364 0.2755,-0.27364 1.86687,-0.73018 4.04549,-1.15986 0.63799,-0.1263 1.52756,-0.37743 1.97634,-0.55889 0.47705,-0.19307 2.53677,-0.33025 4.95826,-0.33025 3.20593,0 4.34998,-0.10453 5.06628,-0.46235 1.19261,-0.59517 1.17957,-0.60461 6.01167,4.16913 5.6209,5.55399 4.54428,5.76739 12.7266,-2.52369 6.2038,-6.28562 6.40173,-5.10108 -2.30767,-13.74998 -11.29327,-11.21397 -12.73965,-12.54658 -14.51951,-13.36966 -0.63366,-0.29396 -1.5225,-0.71856 -1.97272,-0.94357 -0.45168,-0.22646 -1.62617,-0.41227 -2.60999,-0.41372 -1.39707,0 -2.07567,-0.16984 -3.09428,-0.76139 -0.71775,-0.4159 -2.40482,-1.34205 -3.74824,-2.05698 -1.34415,-0.71493 -2.93986,-1.61423 -3.54669,-1.99747 -0.60682,-0.38395 -1.18972,-0.69678 -1.29484,-0.69678 -0.10513,0 -0.82722,-0.39195 -1.60515,-0.87099 -1.64211,-1.01253 -3.09283,-1.11051 -4.52688,-0.30848 m -32.11302,2.04973 c -0.0986,0.15968 0.0819,0.29033 0.40093,0.29033 0.319,0 0.65974,-0.13065 0.75907,-0.29033 0.0986,-0.15968 -0.0819,-0.29033 -0.40092,-0.29033 -0.319,0 -0.66048,0.13065 -0.75908,0.29033 m 5.07499,0 c -0.35163,0.22791 -0.31031,0.28307 0.2175,0.28597 0.35886,0 0.65249,-0.12629 0.65249,-0.28597 0,-0.36291 -0.30741,-0.36291 -0.86999,0 m -6.66998,0.87099 c 0,0.15968 0.261,0.29033 0.58,0.29033 0.31899,0 0.57999,-0.13065 0.57999,-0.29033 0,-0.15968 -0.261,-0.29033 -0.57999,-0.29033 -0.319,0 -0.58,0.13065 -0.58,0.29033 m 5.07498,0 c -0.0986,0.15968 0.0167,0.29033 0.25593,0.29033 0.23924,0 0.51474,-0.13065 0.61407,-0.29033 0.0986,-0.15968 -0.0167,-0.29033 -0.25593,-0.29033 -0.23924,0 -0.51547,0.13065 -0.61407,0.29033 m -6.52497,1.01615 c -0.19865,0.23952 -0.54086,0.43549 -0.76125,0.43549 -0.21895,0 -0.39875,0.11613 -0.39875,0.25912 0,0.14226 -0.35742,0.34839 -0.7946,0.45799 -0.43717,0.11033 -0.86129,0.28888 -0.94249,0.39703 -0.0812,0.10887 -0.71558,0.56614 -1.40939,1.01688 -0.6931,0.45001 -2.2591,1.86899 -3.47999,3.15297 -1.22017,1.28471 -3.52349,3.67629 -5.11848,5.31665 -4.95173,5.0902 -5.68543,5.94812 -5.09238,5.94812 0.16893,0 0.3074,-0.19597 0.3074,-0.43549 0,-0.23953 0.11527,-0.43549 0.25665,-0.43549 0.14136,0 3.11023,-2.8416 6.59747,-6.31467 3.48724,-3.47305 6.60183,-6.47143 6.92083,-6.66232 0.31898,-0.19162 1.10199,-0.63074 1.73998,-0.97551 0.638,-0.34476 1.22525,-0.71348 1.305,-0.818 0.0797,-0.10524 0.57927,-0.548 1.10925,-0.98422 0.54157,-0.44565 0.78009,-0.79405 0.54375,-0.79405 -0.232,0 -0.58435,0.19598 -0.783,0.4355 m 5.06265,-0.12484 c -0.10585,0.17057 -0.47197,0.42387 -0.8149,0.56251 l -0.62349,0.25113 0.65249,0.0189 c 0.3596,0.0102 0.6525,-0.11613 0.6525,-0.28163 0,-0.16475 0.29435,-0.41807 0.65249,-0.56251 0.47343,-0.19016 0.51838,-0.2671 0.16313,-0.28089 -0.2697,-0.0102 -0.5771,0.12194 -0.68222,0.29251 m -78.318528,5.08439 c 0.434994,1.13663 0.1885,32.26645 -0.258831,32.63807 -0.239244,0.19887 -0.434994,0.53711 -0.434994,0.75123 0,0.52767 -2.009693,1.86173 -2.805737,1.86173 -0.351625,0 -0.72065,0.13065 -0.81925,0.29033 -0.116719,0.18871 -7.150644,0.29033 -20.154919,0.29033 -13.00427,0 -20.038917,-0.10162 -20.154916,-0.29033 -0.0986,-0.15968 -0.432823,-0.29033 -0.742398,-0.29033 -0.91422,0 -2.513565,-1.94448 -2.889838,-3.51298 -0.588697,-2.45837 -0.552447,-31.32578 0.0406,-31.70249 1.427519,-0.90655 1.416644,-1.02123 1.416644,14.76614 0,20.40796 -0.630747,18.99478 8.482466,18.99696 h 5.727477 v -18.07734 l 1.035295,-0.97769 1.036021,-0.97768 h 5.900749 c 9.002294,0 8.557869,-0.59372 8.557869,11.43897 v 8.59374 l 5.292481,-0.007 c 9.783831,-0.007 8.917463,1.73907 8.917463,-17.99242 0,-8.73092 0.08699,-15.9623 0.193575,-16.06826 0.369018,-0.37017 1.485518,-0.1909 1.660243,0.26564 m 90.655808,1.29705 c -3.34224,0.76284 -3.86061,1.01397 -5.66441,2.74361 -3.05949,2.93305 -3.23059,7.03177 -0.44369,10.59701 1.38982,1.77827 1.43839,1.824 4.15278,3.9492 3.76201,2.94539 4.04186,3.15225 4.53486,3.3533 0.25591,0.1038 0.72717,0.43042 1.04761,0.72583 1.29195,1.19107 6.84397,4.74688 7.4131,4.74688 0.51329,0 2.98917,-1.48068 3.45969,-2.06859 0.0798,-0.10017 0.54375,-0.42679 1.03167,-0.72583 5.35483,-3.28797 13.44072,-10.20869 13.47769,-11.53477 0.007,-0.18363 0.20083,-0.58647 0.435,-0.89639 0.55825,-0.74034 0.551,-3.54202 -0.0109,-4.62349 -0.23924,-0.45727 -0.43354,-0.98349 -0.43354,-1.16858 0,-0.57195 -3.03846,-3.49121 -4.23543,-4.07114 -0.62133,-0.30049 -1.37895,-0.67211 -1.68417,-0.82598 -1.10055,-0.55454 -3.86787,-0.61986 -4.64578,-0.10888 -0.39875,0.26129 -0.97368,0.47396 -1.2789,0.47396 -0.30522,0 -0.71775,0.19598 -0.91567,0.4355 -0.19865,0.23952 -0.522,0.43549 -0.71847,0.43549 -0.46907,0 -2.71149,2.20214 -3.63224,3.56669 -0.91132,1.35221 -0.89899,1.35366 -2.22719,-0.29468 -2.38524,-2.95918 -4.16583,-4.02396 -8.06704,-4.82164 -0.319,-0.0653 -1.03675,-0.0145 -1.59499,0.1125 m 24.07642,1.62875 c 4.48628,2.24061 6.19148,7.68283 3.40676,10.86629 -0.47704,0.54509 -1.01572,1.19035 -1.19769,1.43423 -0.26897,0.36145 -2.45992,2.24642 -3.80044,3.2691 -2.27213,1.73472 -6.30892,4.5618 -6.51265,4.5618 a 0.42049829,0.42097721 0 0 0 -0.36104,0.24895 c -0.551,1.41609 -5.25116,3.44185 -5.90584,2.54547 -0.18921,-0.25912 -0.42773,-0.47179 -0.52923,-0.47179 -0.1769,0 -2.89637,-1.91327 -4.64869,-3.27056 -0.46037,-0.3571 -0.98237,-0.70042 -1.15999,-0.76356 -0.4321,-0.15387 -2.61724,-1.85521 -2.73904,-2.13319 -0.0537,-0.12122 -0.23056,-0.21993 -0.39367,-0.21993 -0.70108,0 -6.03488,-4.81003 -6.03488,-5.44222 0,-0.16621 -0.19575,-0.37743 -0.435,-0.4696 -0.23925,-0.0915 -0.435,-0.34695 -0.435,-0.56615 0,-0.22065 -0.21098,-0.82381 -0.46835,-1.34059 -1.83061,-3.67412 2.7869,-8.7302 7.97497,-8.7302 3.92659,0 5.88118,1.11196 8.57382,4.87753 1.31877,1.84504 1.66749,1.83488 2.97829,-0.0871 3.16534,-4.63801 7.68787,-6.30595 11.68695,-4.30848 m 31.21475,6.9933 c -0.17835,0.28742 0.93742,1.36455 1.17087,1.12938 0.0797,-0.0798 -0.11383,-0.42678 -0.4321,-0.76864 -0.31755,-0.34114 -0.65033,-0.50445 -0.7395,-0.36074 m -176.188784,6.27764 c -0.233449,0.28162 -0.306674,2.87571 -0.252299,8.92762 l 0.07685,8.52915 5.58973,0.0798 c 3.525657,0.0486 5.801425,-0.0356 6.162475,-0.22863 0.700344,-0.37525 0.911319,-16.6707 0.224744,-17.35805 -0.532869,-0.53348 -11.354902,-0.48848 -11.800775,0.0494 m 10.916281,0.74759 c 0.980194,0.81801 1.031669,15.17985 0.05655,15.70245 -0.5887,0.31501 -10.207959,0.30703 -10.521883,-0.009 -0.07975,-0.0798 -0.181249,-3.5217 -0.226923,-7.64874 l -0.08265,-7.50282 0.710496,-0.54654 c 1.065746,-0.82018 9.08131,-0.81728 10.06441,0.007 m 173.351148,1.68609 c 0.8526,2.04463 0.85404,2.06568 0.27405,3.24079 -0.31247,0.63292 -2.97757,3.60879 -5.92178,6.61225 -8.25336,8.42099 -8.01267,8.37381 -13.74087,2.67175 -4.64941,-4.62929 -3.72503,-4.25768 -10.05063,-4.03558 l -5.36498,0.18872 5.43167,0.0523 5.43241,0.0523 4.61968,4.68591 4.62041,4.68591 1.38691,-0.15677 c 1.49858,-0.16913 5.83623,-4.35857 13.73072,-13.25934 1.11577,-1.25858 1.27454,-3.69298 0.30306,-4.66558 -0.71485,-0.71567 -1.0005,-0.7447 -0.72065,-0.0726 m -106.36939,0.94719 c -0.32988,0.38469 -0.50026,1.08221 -0.50026,2.04827 v 1.46472 l 5.14749,5.25205 c 7.98439,8.14591 8.51146,8.64745 9.29011,8.8427 0.9425,0.23734 2.36494,-0.52623 3.83741,-2.06062 3.88816,-4.05226 5.73835,-6.12158 5.59262,-6.25441 -0.0913,-0.0827 -0.22474,0.0123 -0.29579,0.21194 -0.071,0.1996 -0.31465,0.36291 -0.54013,0.36291 -0.2262,0 -0.41107,0.12485 -0.41107,0.27726 0,0.25477 -3.25669,3.53476 -4.90171,4.9356 -1.03747,0.88332 -3.39298,0.88405 -4.81397,7.5e-4 -0.4785,-0.29759 -3.34369,-3.02523 -6.36693,-6.06063 l -5.49838,-5.52205 0.0188,-2.04102 c 0.0102,-1.12285 0,-2.04174 -0.0203,-2.04174 -0.0217,0 -0.26317,0.26274 -0.53794,0.58429 m 25.38214,7.75324 a 6.4517487,6.4590969 0 0 0 1.595,0 c 0.43935,-0.0668 0.0798,-0.12121 -0.7975,-0.12121 -0.87725,0 -1.2354,0.0544 -0.7975,0.12121 m 7.39497,-0.007 a 4.1042082,4.1088827 0 0 0 1.30499,0 c 0.3596,-0.069 0.0652,-0.12557 -0.65249,-0.12557 -0.71775,0 -1.01064,0.0566 -0.6525,0.12557 m -4.13248,0.66631 c -0.10875,0.17565 0.29362,0.29033 1.01499,0.29033 0.72282,0 1.12375,-0.11468 1.015,-0.29033 -0.0979,-0.15969 -0.55462,-0.29034 -1.015,-0.29034 -0.45892,0 -0.91567,0.13065 -1.01499,0.29034 m 6.10447,-0.0218 c 0.15225,0.14662 0.86275,0.29033 1.5805,0.31646 1.83787,0.0697 2.07349,-0.0319 0.72499,-0.31138 -1.60586,-0.33242 -2.64334,-0.33533 -2.30549,-0.007 m 34.78536,0.0225 c -0.81562,0.20831 -0.79314,0.22355 0.3625,0.25621 0.6786,0.0189 1.23249,-0.0965 1.23249,-0.25621 0,-0.32445 -0.32116,-0.32445 -1.59499,0 m -31.05742,0.82598 c 0.11455,0.18436 0.70687,0.33533 1.31732,0.33533 0.61044,0 1.48334,0.19597 1.94009,0.43404 0.45674,0.23807 1.3195,0.43405 1.91834,0.4355 0.59813,0 1.0875,0.12193 1.0875,0.26855 0,0.14735 0.3915,0.35348 0.87,0.45872 0.4785,0.10524 0.86999,0.31211 0.86999,0.45872 0,0.14662 0.23635,0.26711 0.5249,0.26711 0.28782,0 0.7772,0.19161 1.08749,0.42605 0.6496,0.49211 4.47758,0.62421 4.47758,0.1546 0,-0.16984 -0.80475,-0.26855 -1.93936,-0.23662 -1.27889,0.0348 -1.97924,-0.0639 -2.05464,-0.29033 -0.0631,-0.18871 -0.41398,-0.34404 -0.77938,-0.34404 -0.36612,0 -0.82794,-0.19596 -1.02659,-0.43549 -0.19865,-0.23952 -0.65539,-0.43549 -1.01499,-0.43549 -0.3596,0 -0.81635,-0.19597 -1.015,-0.4355 -0.20082,-0.24242 -0.83375,-0.43549 -1.42825,-0.43549 -0.58579,0 -1.20349,-0.13791 -1.37242,-0.30703 -0.44949,-0.45 -3.72938,-0.75195 -3.46258,-0.31863 m 27.07066,-0.045 c -0.27912,0.0726 -0.5075,0.25404 -0.5075,0.40138 0,0.14807 -0.39149,0.26928 -0.86999,0.26928 -0.4785,0 -0.86999,0.13065 -0.86999,0.29033 0,0.41227 0.59087,0.35638 1.55583,-0.14662 0.45675,-0.23879 1.305,-0.4355 1.885,-0.43839 0.57999,0 1.24989,-0.13065 1.48914,-0.28598 0.45385,-0.29395 -1.63632,-0.36291 -2.68249,-0.09"
     id="path1"
     style="stroke-width:0.725412" />
</svg>
