<?xml version="1.0" encoding="UTF-8" standalone="no"?>
<svg
   version="1.1"
   width="4096"
   height="4096"
   style="clip-rule:evenodd;fill-rule:evenodd;image-rendering:optimizeQuality;shape-rendering:geometricPrecision;text-rendering:geometricPrecision"
   id="svg64"
   viewBox="0 0 4096 4096"
   xmlns="http://www.w3.org/2000/svg"
   xmlns:svg="http://www.w3.org/2000/svg">
  <defs
     id="defs64" />
  <path
     fill="#0b0b0b"
     d="M 2885.5766,2.5594051 C 2473.4303,4.1852482 1841.8129,8.0640451 1481.9824,11.16476 1122.1518,14.265475 688.89357,17.470709 519.18626,18.283629 142.24579,20.083671 140.065,20.432066 69.780889,89.878789 -4.6908081,163.4598 -1.2108222,127.74932 0.73796985,801.62641 7.7211415,3210.4755 14.124316,3901.0755 29.807452,3931.1536 c 3.711985,7.1537 6.774373,15.4455 6.797573,18.4301 0.115999,18.9643 71.536905,108.3741 86.605245,108.3741 2.99279,0 6.13637,1.5677 6.99476,3.4839 2.0532,4.6453 30.99508,19.7424 37.87386,19.7656 2.99278,0 11.69275,3.3911 19.34871,7.4905 16.93594,9.0699 1162.3153,9.8828 1918.6322,1.3587 243.715,-2.7524 743.7889,-6.7008 1111.2755,-8.7795 557.5866,-3.1588 672.7624,-4.9008 695.9972,-10.5099 32.619,-7.8737 57.9998,-17.9888 57.9998,-23.1102 0,-1.9975 2.1808,-3.6349 4.8371,-3.6349 11.3215,0 56.8166,-40.3209 73.1957,-64.8596 46.713,-70.0273 49.4622,-94.6124 45.2283,-404.0221 -1.8676,-136.8494 -5.3592,-689.8799 -7.7488,-1228.963 C 4078.771,526.24344 4075.6621,214.61579 4065.2338,176.29234 4047.6019,111.57218 4003.0581,53.796687 3952.1575,29.652918 3880.0522,-4.5478515 3986.7022,-1.8419842 2885.5766,2.547792 m 1009.4744,76.58882 c 4.9531,3.751052 11.7391,6.886607 15.0798,6.967899 10.0921,0.243876 47.2815,31.088439 63.0342,52.270849 28.9302,38.9041 27.4455,18.24428 31.4243,435.63303 8.5376,894.60851 11.136,1414.72731 7.0992,1420.19711 -3.2016,4.3433 -55.239,6.0853 -216.0027,7.2582 -116.4868,0.8478 -545.5574,4.2621 -953.493,7.5951 -537.3098,4.3781 -744.7749,4.6452 -752.8369,0.9639 l -11.136,-5.075 v -674.8178 c 0,-371.15672 -2.32,-800.84381 -5.22,-954.86921 -4.988,-265.52339 -4.8255,-280.504372 2.9465,-289.109726 9.9411,-10.986054 16.2051,-11.067346 1092.901,-12.728029 624.5416,-0.963892 718.304,-0.22065 726.1572,5.713677 m -1900.1187,5.074953 c 8.0852,9.755058 7.1804,-69.597695 11.2983,983.100835 l 3.6772,941.5954 -11.0779,2.4388 c -6.1016,1.3355 -249.1206,3.542 -540.0474,4.9007 -290.927,1.3471 -719.39433,3.693 -952.15899,5.2027 l -423.201075,2.7407 -2.78399,-11.0906 c -4.442781,-17.7333 -9.975959,-775.109 -9.581561,-1311.3469 l 0.371199,-492.39819 13.513946,-26.71027 c 14.383941,-28.45225 46.689801,-61.25944 72.720101,-73.85972 49.4506,-23.923118 4.69798,-22.483086 710.77551,-23.156649 360.41056,-0.348396 722.12026,-2.043917 803.78396,-3.774278 282.4473,-5.957554 316.0174,-5.713677 322.7107,2.357472 M 3423.7681,452.23274 c -6.38,4.29688 -12.644,9.05827 -13.92,10.54476 -1.276,1.50971 -6.4959,4.413 -11.5999,6.43369 -6.3104,2.49683 -7.3312,4.413 -3.2132,5.94594 3.3408,1.2426 9.9412,-1.24261 14.6623,-5.52787 24.0119,-21.76307 88.3105,5.46981 88.3105,37.41762 0,3.61169 1.9488,6.57305 4.3268,6.57305 2.3779,0 5.7535,4.70333 7.4935,10.45185 1.74,5.74852 8.1548,17.10619 14.2332,25.23541 6.09,8.14082 11.0663,16.7694 11.0663,19.17333 0,2.41553 3.1319,6.99112 6.96,10.17313 21.7847,18.11654 -4.6516,83.61479 -33.756,83.61479 -2.4938,0 -7.1454,3.13555 -10.3238,6.9679 -18.328,22.11146 -66.9317,0.99873 -84.0301,-36.51179 -5.8928,-12.93707 -13.4211,-25.45606 -25.5663,-42.55064 -5.4056,-7.61823 -11.2867,-18.54622 -13.0615,-24.29474 -1.7864,-5.74851 -5.104,-10.45185 -7.366,-10.45185 -2.262,0 -5.5448,-7.65307 -7.308,-17.00167 -3.5147,-18.80171 8.4912,-48.03205 19.7432,-48.03205 3.4219,0 6.2291,-3.06587 6.2291,-6.81692 0,-9.68538 -13.6531,-3.58847 -27.7239,12.36802 -14.4187,16.38617 -18.9079,16.29327 -42.6067,-0.90583 -28.733,-20.83402 -67.6392,-17.52428 -95.6647,8.12921 -3.4916,3.19361 -9.164,5.80659 -12.5859,5.80659 -3.4336,0 -6.9369,1.62584 -7.7952,3.6233 -2.0648,4.85431 -94.6788,61.41042 -100.5485,61.41042 -2.5519,0 -5.3127,1.77681 -6.1712,3.94847 -0.8467,2.18328 -10.2774,8.97698 -20.961,15.09712 -10.6836,6.13175 -42.0034,25.06121 -69.5997,42.05127 -62.2106,38.32343 -80.7357,49.4024 -89.6212,53.59475 -3.828,1.81165 -9.048,5.10979 -11.6,7.31629 -2.552,2.2065 -25.4503,16.95522 -50.889,32.74913 -57.1646,35.51305 -68.6369,50.47081 -66.5837,86.76195 1.392,24.24829 0.87,25.66509 -10.1268,27.13996 -20.2535,2.71748 -21.7615,10.04539 -2.088,10.1383 16.6112,0.11613 39.2079,14.44677 39.2079,24.9683 0,1.53294 14.6159,26.5593 32.4797,55.60383 47.8383,77.75014 44.486,95.46024 -24.6731,130.48554 l -25.4966,12.9138 -18.9428,-10.6609 c -10.4166,-5.853 -20.149,-14.4584 -21.6338,-19.1152 -1.4732,-4.6453 -4.5588,-8.466 -6.8556,-8.466 -4.8024,0 -0.4176,13.7151 6.8672,21.4959 2.6912,2.8801 7.9692,9.6738 11.716,15.0971 10.8575,15.6778 46.3882,10.9861 65.0989,-8.6169 1.276,-1.3355 9.8948,-6.2711 19.1399,-10.9861 9.2684,-4.7033 23.4899,-14.6326 31.6215,-22.065 16.5762,-15.1552 20.1723,-16.0842 28.9419,-7.5137 22.6779,22.1811 57.5009,29.0794 76.0145,15.0623 4.953,-3.7511 12.4814,-6.8866 16.7386,-6.9679 4.2457,-0.1162 8.4217,-1.7768 9.2801,-3.7743 2.1459,-5.0401 94.7948,-61.41042 100.9427,-61.41042 2.7492,0 4.988,-2.05553 4.988,-4.55236 0,-2.50844 5.22,-5.87626 11.6,-7.47888 6.38,-1.60262 11.5998,-4.7614 11.5998,-7.04919 0,-2.28779 6.264,-4.1459 13.9201,-4.1459 15.2655,0 17.7478,-4.98205 6.9599,-13.9358 -3.828,-3.182 -6.9599,-8.66342 -6.9599,-12.18221 0,-3.51879 -2.088,-6.38724 -4.64,-6.38724 -2.552,0 -4.6401,4.02977 -4.6401,8.96537 0,7.8505 -36.1569,33.82914 -84.6795,60.82975 -4.4544,2.48522 -11.7624,6.61951 -16.24,9.19763 -4.4544,2.56651 -11.2519,6.07368 -15.0799,7.78082 -3.8281,1.71873 -8.0041,4.36653 -9.28,5.88783 -17.2607,20.625 -67.187,25.398 -94.8064,9.0815 -13.6183,-8.0363 -44.3814,-45.08227 -44.3814,-53.42052 0,-1.27745 -7.7488,-14.24935 -17.2259,-28.80066 -18.5716,-28.54515 -20.2536,-31.4136 -42.3631,-71.88548 -23.3855,-42.81773 -16.8547,-83.0109 17.1564,-105.79592 9.303,-6.22466 17.9567,-12.68158 19.2327,-14.34226 1.276,-1.66068 10.6719,-7.54856 20.8799,-13.12289 a 697.04117,697.83505 0 0 0 32.4799,-18.96429 c 7.6559,-4.86591 22.2719,-13.35513 32.4798,-18.883 10.208,-5.52787 19.6039,-11.33445 20.8798,-12.91384 2.7841,-3.42588 17.3653,-12.70481 30.16,-19.19656 5.104,-2.58974 15.5439,-8.82601 23.1999,-13.87773 7.656,-5.04012 17.052,-10.56798 20.8799,-12.29834 3.828,-1.71875 13.1776,-7.49049 20.7872,-12.82094 a 373.92447,374.35036 0 0 1 41.8526,-25.82768 c 5.104,-2.69425 15.5439,-9.08149 23.1998,-14.19128 7.6561,-5.09818 17.574,-10.53314 22.0399,-12.07769 4.4661,-1.54455 8.1201,-4.41301 8.1201,-6.37563 0,-1.96263 3.654,-4.83108 8.1199,-6.37563 4.466,-1.54455 14.384,-6.9679 22.04,-12.07769 7.6559,-5.10979 18.0959,-11.42735 23.1999,-14.05193 5.1039,-2.62457 16.5879,-9.29053 25.5199,-14.80678 40.5998,-25.08444 91.7556,-5.65561 118.3775,44.98939 4.0252,7.6647 11.3679,20.20691 16.3327,27.8716 4.9648,7.66469 10.4284,17.07135 12.1568,20.9037 1.7168,3.83234 7.4818,13.19255 12.8063,20.81079 35.4147,50.59856 46.2606,85.43805 34.5679,111.10314 -11.4376,25.15412 -34.5911,10.56798 -29.1623,-18.38364 2.204,-11.84543 -1.7517,-21.79791 -22.3067,-55.8477 -13.7576,-22.78503 -26.4827,-44.55973 -28.2691,-48.39207 -1.7865,-3.83235 -6.8788,-12.41446 -11.3101,-19.04558 a 1024.1598,1025.3263 0 0 1 -19.6734,-31.33232 c -6.38,-10.56798 -13.5256,-19.24301 -15.8919,-19.26625 -2.3316,0 -7.9344,-3.36781 -12.4352,-7.43241 -7.9343,-7.20017 -36.5514,-5.66723 -36.6906,1.97423 0,1.69553 -8.8973,7.24662 -19.7199,12.32157 -10.8112,5.07495 -20.706,10.4054 -21.9819,11.86866 -1.276,1.45164 -37.8159,24.01602 -81.1997,50.14564 -43.3838,26.12962 -82.0118,49.54176 -85.8397,52.02698 -3.828,2.49683 -10.0919,5.94594 -13.9199,7.66469 -3.8281,1.70713 -8.004,4.38977 -9.2801,5.96916 -1.276,1.56778 -24.2438,15.95649 -51.0397,31.95943 a 6256.7477,6263.8738 0 0 0 -55.6797,33.51559 c -3.828,2.41554 -10.0921,5.80659 -13.92,7.51372 -3.828,1.71875 -8.004,4.33171 -9.2799,5.82981 -1.276,1.48648 -10.6721,8.12921 -20.88,14.72549 -34.4866,22.35533 -37.3286,50.59856 -9.0479,90.08332 5.4984,7.66469 23.7567,37.04599 40.5765,65.26598 43.9291,73.74362 56.8979,78.06372 116.9508,39.10152 7.656,-4.97043 17.052,-10.44023 20.8799,-12.17059 3.828,-1.71876 13.1776,-7.49049 20.7872,-12.82093 16.1471,-11.33445 29.7769,-19.64948 39.5326,-24.15538 3.828,-1.7652 10.5443,-6.29434 14.9291,-10.057 4.4544,-3.83235 12.3308,-5.69045 17.864,-4.25042 9.0363,2.36908 9.6279,1.27745 6.7163,-12.19383 -6.6699,-30.71683 -7.8415,-74.27781 -2.3315,-86.28581 3.0623,-6.66595 8.8739,-19.42882 12.9222,-28.37096 8.1548,-18.03524 41.7831,-55.74319 49.6942,-55.74319 2.7841,0 7.5053,-2.43876 10.4865,-5.42335 14.9639,-14.98098 97.9616,-25.33993 105.4783,-13.15771 1.5776,2.5549 7.4472,4.66849 13.0384,4.69172 11.0895,0 44.9846,25.09605 62.3381,46.06942 75.4809,91.2098 6.6816,232.61169 -113.1807,232.61169 -33.7096,0 -94.4352,-21.39145 -94.4352,-33.27172 0,-2.14844 -3.654,-3.82073 -8.1201,-3.71621 -18.5134,0.42968 48.9519,46.26683 68.0918,46.26683 7.3544,0 18.4671,10.63764 42.2702,40.44864 2.4592,3.0891 4.4775,7.6183 4.4775,10.0803 0,2.4503 2.9,10.3821 6.4497,17.6171 18.0495,36.8254 26.2623,99.8965 17.4463,133.9231 l -8.9783,34.8395 c -11.6928,45.5468 -63.2894,116.5613 -94.4584,129.9861 -6.032,2.5897 -14.0709,6.5614 -17.8988,8.826 -48.801,28.8703 -126.0335,37.708 -163.2809,18.674 -24.7311,-12.6235 -17.1447,-17.9656 25.7054,-18.0585 29.522,-0.1161 32.712,-1.0916 45.2399,-14.4932 l 13.4559,-14.4352 v -74.0571 c 0,-90.7453 -2.9347,-99.2461 -35.925,-104.2282 -12.1452,-1.8349 -150.4862,-1.9742 -307.4336,-0.3019 l -285.3588,3.0426 -10.44,11.8803 c -16.7851,19.1036 -16.0427,161.8875 0.928,180.2363 l 11.3911,12.2867 h 79.4018 c 87.0808,0 91.7439,1.1613 106.9515,26.6522 5.7535,9.6157 18.4672,28.1271 28.2691,41.1339 20.9611,27.8367 21.1002,28.8122 6.1363,43.0267 -17.9798,17.083 -17.7478,133.2959 0.3133,157.01 l 11.8319,15.5384 h 361.8374 c 421.9134,0 408.6547,1.591 407.0422,-48.7753 -0.5103,-16.1306 -0.8351,-16.6532 -2.4359,-3.9949 -1.1716,9.4183 -7.8879,20.114 -18.9543,30.1942 l -17.1331,15.6081 H 3100.837 c -422.598,0 -386.986,8.3151 -386.986,-90.4201 v -51.3998 l 15.0799,-16.0262 15.0799,-16.0494 329.4387,-0.5226 c 431.4951,-0.6852 385.4664,-2.0903 397.9132,12.1242 5.7188,6.5498 11.7159,17.5358 13.3399,24.3876 2.6679,11.4041 2.9579,11.0906 3.2828,-3.7743 0.2552,-11.5435 -3.5149,-20.7875 -13.0151,-31.9129 -12.9572,-15.1785 -12.6092,-37.7661 0.58,-37.7661 a 4.0135837,4.0181549 0 0 0 3.8976,-4.111 c 0,-2.2646 8.3519,-16.6417 18.5599,-31.9362 10.2079,-15.3178 18.5599,-29.3465 18.5599,-31.193 0,-1.8465 3.306,-10.986 7.3428,-20.323 4.0484,-9.3254 10.3123,-23.807 13.9199,-32.2149 3.6192,-8.3847 6.612,-19.8818 6.6468,-25.549 0,-5.6556 3.074,-18.6507 6.7511,-28.8703 9.3728,-26.0135 9.3728,-159.7972 0,-185.8107 -3.6771,-10.2196 -6.7279,-23.2147 -6.7511,-28.8703 -0.116,-10.9744 -7.2732,-29.149 -28.5591,-72.19904 -18.4207,-37.2202 -23.0607,-45.17521 -37.6302,-64.51113 -7.018,-9.29054 -12.7601,-18.30235 -12.7601,-19.97466 0,-1.70712 -5.9856,-9.49956 -13.305,-17.33844 -18.7572,-20.09078 -34.3359,-100.57001 -21.2512,-109.74441 10.904,-7.66468 20.6364,-29.84584 20.6364,-47.11461 0,-16.58359 1.4152,-18.96429 12.7599,-21.42628 16.6112,-3.60008 31.2039,-10.59121 56.8397,-27.17481 53.4643,-34.60723 57.8375,-49.89015 27.8399,-97.43445 -10.2079,-16.17714 -18.5598,-31.80845 -18.5598,-34.72336 0,-2.90329 -2.0532,-5.30723 -4.5472,-5.30723 -2.5056,0 -5.8696,-5.22591 -7.4704,-11.61315 -1.6008,-6.38724 -4.292,-11.61316 -5.9856,-11.61316 -1.7053,0 -7.0991,-7.83889 -12.0059,-17.41975 -22.2951,-43.57259 -49.6014,-57.56646 -76.7105,-39.32218 m -2580.44436,4.18073 c -13.50235,2.18328 -34.91586,20.18369 -47.13061,39.62413 -6.57718,10.45185 -7.94596,24.73604 -8.00397,83.61478 -0.11599,84.31158 -1.29919,87.67939 -25.9955,72.26873 -9.90635,-6.17821 -21.1467,-12.68158 -24.97469,-14.43517 -3.82798,-1.76521 -16.35594,-8.6518 -27.83989,-15.30615 -71.9197,-41.66803 -82.20887,-44.78036 -102.20719,-30.93747 -18.96592,13.12288 -26.28549,23.52827 -58.15056,82.63927 -17.16792,31.85492 -35.58866,64.36017 -46.0518,81.29216 -5.50999,8.94214 -11.48396,19.39399 -13.22395,23.22633 -1.7632,3.83235 -9.56996,17.41975 -17.35353,30.19423 -7.77197,12.77448 -16.55313,28.97484 -19.51113,36.00081 -2.95799,7.02596 -7.00636,12.77448 -9.00155,12.77448 -1.98361,0 -3.61919,2.98458 -3.61919,6.63112 0,3.65814 -2.61,9.42989 -5.79998,12.85577 -40.79703,43.6655 -28.83748,103.90298 25.3807,127.86091 9.65116,4.2504 17.53913,9.4183 17.53913,11.4971 0,2.0555 3.75838,3.7394 8.35196,3.7394 4.59359,0 10.67196,2.3342 13.52555,5.1795 6.56556,6.573 23.22311,16.27 39.41664,22.936 13.40955,5.5278 22.5735,23.6444 13.47915,26.6754 -2.93479,0.9755 -8.28238,4.7266 -11.88996,8.3382 -3.59599,3.6001 -8.03877,6.5499 -9.87157,6.5499 -6.95996,0 -97.57879,57.4968 -107.53155,68.2273 -14.45354,15.5849 -14.00114,44.7688 1.102,71.5604 6.34517,11.2647 12.99193,23.505 14.76674,27.2096 2.87677,5.9808 31.99266,56.1381 43.29102,74.5565 10.31236,16.8159 59.56576,101.383 67.65093,116.1317 4.90678,8.9421 10.11515,17.3036 11.59995,18.581 1.48478,1.2775 7.70237,12.4726 13.82713,24.887 24.0815,48.7753 66.53733,67.368 97.16122,42.5507 3.82798,-3.1007 10.09195,-7.084 13.91993,-8.8492 3.82799,-1.7652 11.13597,-5.7602 16.23995,-8.8957 95.514,-58.4607 92.47482,-59.111 93.63481,20.4972 1.90239,130.4971 0.28999,129.5565 220.05107,129.5565 232.9967,0 237.6831,-2.764 235.8271,-139.1606 -0.928,-68.1693 -3.19,-66.8686 56.9442,-33.1439 10.9619,6.1549 25.1603,14.0983 31.5401,17.6636 6.3801,3.5652 19.952,11.497 30.16,17.6519 45.9242,27.6394 80.6893,7.2932 115.1876,-67.4027 1.763,-3.8324 7.6211,-14.2842 12.9919,-23.2264 5.4056,-8.9421 17.2375,-29.8458 26.3087,-46.4526 9.0827,-16.6068 20.2883,-36.4653 24.9051,-44.13 4.6284,-7.6647 10.4632,-18.1166 12.9803,-23.2264 2.5056,-5.1098 10.8112,-19.7423 18.444,-32.5168 61.7812,-103.3572 63.7764,-141.6458 8.4215,-161.2837 -7.0179,-2.4968 -12.76,-6.4221 -12.76,-8.7098 0,-2.3227 -2.0531,-4.204 -4.5587,-4.204 -2.5056,0 -17.6435,-7.897 -33.6399,-17.5359 -16.0079,-9.6621 -34.8231,-20.0675 -41.841,-23.1334 -20.7987,-9.1047 -16.3559,-21.6005 13.92,-39.1248 14.6739,-8.4776 30.8558,-18.0004 35.9598,-21.1708 5.104,-3.1355 12.934,-7.0492 17.3999,-8.6634 4.466,-1.6142 8.12,-4.564 8.12,-6.5382 0,-1.97425 4.698,-4.80785 10.4399,-6.27111 62.7558,-16.04939 62.3498,-67.78604 -1.3223,-165.56888 a 127.83148,127.97707 0 0 1 -7.6908,-13.9358 c -1.74,-3.83235 -10.7184,-19.51012 -19.9867,-34.8395 -9.2801,-15.32937 -18.2931,-31.00714 -20.068,-34.83949 -1.7863,-3.83234 -7.3659,-13.23901 -12.4119,-20.90369 -5.046,-7.66469 -10.6371,-17.07136 -12.4235,-20.9037 -1.7864,-3.83235 -14.3376,-25.3167 -27.8979,-47.77656 -13.5488,-22.44825 -24.6384,-42.64354 -24.6384,-44.88488 0,-23.17988 -54.6473,-35.47822 -83.5892,-18.7901 a 615.58629,616.2874 0 0 1 -27.7703,15.03905 c -6.3799,3.14717 -14.3607,8.36148 -17.7479,11.57832 -3.364,3.22846 -9.0944,5.86465 -12.7599,5.86465 -3.6308,0 -6.612,1.95101 -6.612,4.33171 0,2.3807 -4.698,5.76013 -10.44,7.50211 -5.742,1.75358 -17.0171,8.10598 -25.0559,14.13322 -21.3091,15.97971 -23.8959,9.1744 -25.6359,-67.82088 -1.6704,-74.60297 -9.7439,-101.76616 -35.3798,-119.18591 -12.0176,-8.16406 -324.92634,-14.69065 -368.10136,-7.66469 m 342.07106,33.30656 c 38.2566,23.84182 43.6622,39.79831 43.6622,128.90612 0,47.68366 1.74,76.18236 4.64,76.18236 2.552,0 4.64,-1.73036 4.64,-3.83234 0,-2.09037 8.8739,-8.47761 19.7198,-14.19129 10.846,-5.69045 25.984,-14.28419 33.6399,-19.08043 103.8776,-65.06856 145.1503,-52.75861 202.2452,60.31878 5.8,11.49703 11.7856,21.94888 13.3052,23.22633 4.8487,4.11106 19.2443,28.10385 35.0318,58.43744 8.4564,16.2352 19.4763,35.35047 24.4759,42.44612 8.468,11.98478 23.1535,42.51579 30.6935,63.75627 8.6188,24.30635 -31.0531,95.49501 -53.2206,95.49501 -3.5612,0 -53.2786,28.3013 -73.8917,42.0745 -3.828,2.5549 -10.6951,5.8995 -15.2655,7.4325 -14.4304,4.8194 -4.0832,15.9913 31.5055,34.0265 5.1039,2.5898 12.4119,6.6544 16.2399,9.0235 3.828,2.3807 10.0919,5.5975 13.9198,7.1653 21.6456,8.826 63.1039,39.0666 68.8923,50.2385 21.9819,42.4462 19.4879,63.466 -14.0128,118.3847 -9.7672,16.0261 -17.7595,30.0548 -17.7595,31.1929 0,1.1381 -9.396,17.5707 -20.8799,36.5002 -11.484,18.9411 -20.88,35.6989 -20.88,37.255 0,1.5446 -8.3519,16.4675 -18.5599,33.1672 -10.2079,16.6998 -18.5599,31.9362 -18.5599,33.8408 0,8.106 -43.2214,52.0966 -51.179,52.0966 -4.7908,0 -14.0359,2.4388 -20.532,5.3885 -9.0827,4.1576 -16.3326,4.0298 -31.5286,-0.5458 -26.0652,-7.8505 -26.7727,-8.1524 -42.9198,-18.5694 -15.428,-9.9525 -27.5267,-16.8623 -56.863,-32.4704 -10.8575,-5.7834 -20.9031,-12.3797 -22.3183,-14.6675 -11.1359,-18.0468 -14.9407,-1.3355 -16.7387,73.6391 -2.088,87.2962 -4.0368,93.3466 -37.9899,117.9898 l -18.2815,13.239 H 1023.587 c -208.59034,0 -210.88713,-1.4168 -214.13513,-132.7385 -0.93959,-38.1376 -1.92559,-71.2235 -2.18079,-73.5346 -0.2436,-2.311 -4.26877,-0.7432 -8.93196,3.484 -4.67478,4.2272 -9.85996,7.6879 -11.51876,7.6879 -1.67039,0 -16.12392,8.0131 -32.13186,17.803 -78.91449,48.3108 -98.8896,53.6993 -134.90745,36.4421 -16.59953,-7.9782 -58.88136,-57.8103 -58.88136,-69.4119 0,-2.671 -5.21999,-11.706 -11.59995,-20.0908 -6.37999,-8.3614 -11.59996,-16.3281 -11.59996,-17.6868 0,-1.3587 -11.21716,-20.9966 -24.9399,-43.6307 -23.2579,-38.4279 -47.4554,-80.6882 -61.71175,-107.8166 -10.50955,-20.0327 -7.81837,-60.4117 5.33598,-79.7824 9.21037,-13.5874 73.9497,-59.5756 83.84446,-59.5756 1.2064,0 10.83435,-6.2711 21.40192,-13.9358 10.57915,-7.6647 22.03991,-13.9358 25.48508,-13.9358 6.90198,0 7.95758,-4.471 2.71439,-11.6131 -1.87919,-2.5549 -17.51593,-11.8919 -34.73026,-20.7528 -17.22593,-8.8608 -31.31987,-17.7449 -31.31987,-19.7423 0,-1.9975 -2.98118,-3.635 -6.62356,-3.635 -3.65399,0 -9.39596,-2.6362 -12.75996,-5.8646 -3.37558,-3.2169 -11.80875,-8.3615 -18.74551,-11.43899 -31.41268,-13.91256 -56.53817,-90.39686 -36.36586,-110.67345 2.42438,-2.42715 12.00595,-19.03397 21.30911,-36.91825 9.30317,-17.87266 18.28153,-33.55043 19.95193,-34.83949 1.69359,-1.27745 6.94836,-9.63893 11.66955,-18.58106 a 1911.5098,1913.6869 0 0 1 54.82138,-96.48217 c 9.77876,-16.01456 17.85231,-30.64714 17.93351,-32.51686 0.31321,-6.90984 17.05193,-23.33086 35.92507,-35.25757 31.48227,-19.90496 65.88772,-14.15645 121.6835,20.32304 26.08829,16.11907 70.09852,41.7261 71.68771,41.7261 1.0788,0 2.60999,-36.23309 3.41039,-80.51407 1.62399,-90.39687 5.06918,-100.05903 44.74102,-126.08414 l 17.04033,-11.18347 147.31936,-0.2671 147.3427,-0.27871 21.2743,13.25062 m 2223.5368,19.6727 c -19.569,16.02616 -19.5458,16.20036 6.4149,58.90197 9.7323,16.02616 17.7014,31.16973 17.7014,33.67817 0,2.50845 1.9489,4.56398 4.3269,4.56398 2.3779,0 5.7188,4.413 7.424,9.7899 6.38,20.13722 39.289,40.06541 39.289,23.78376 0,-1.97424 7.308,-7.52533 16.24,-12.3448 21.0654,-11.35767 20.9611,-22.5876 -0.5221,-54.44251 -9.2103,-13.6687 -18.699,-29.03291 -21.077,-34.14271 -22.2023,-47.71849 -39.0687,-54.91865 -69.7971,-29.78776 m -2539.96036,7.71114 c -27.5383,13.21578 -29.67269,22.41341 -29.67269,128.20933 0,108.04889 -0.9628,110.29023 -37.11984,86.78518 -18.03793,-11.71769 -69.55333,-41.34286 -89.58644,-51.52762 a 2529.9845,2532.866 0 0 1 -37.11985,-19.23139 c -32.49146,-17.33845 -60.85335,-1.01034 -86.73285,49.94822 -6.37997,12.55382 -14.20994,25.63026 -17.39992,29.04453 -3.19,3.42588 -5.79998,8.12921 -5.79998,10.46345 0,2.32264 -7.96917,17.32685 -17.70153,33.3414 -9.74397,16.02616 -19.16312,32.24976 -20.93792,36.0821 -1.78639,3.83235 -9.53515,17.41975 -17.23752,30.19423 -7.69077,12.77448 -15.89194,27.73224 -18.21193,33.22527 -2.31999,5.50464 -6.43797,11.3809 -9.14076,13.05319 -16.76193,10.37056 -1.4036,60.52781 22.68951,74.09199 4.94157,2.78716 17.96832,9.98732 28.96507,16.02616 10.98516,6.01562 21.01912,12.28675 22.29511,13.93579 1.276,1.6259 12.41196,8.1989 24.7543,14.5745 12.34235,6.3873 33.74427,17.5011 47.55981,24.7129 35.20586,18.3488 33.51227,25.2005 -13.06154,52.654 -20.99593,12.3797 -41.70184,24.5967 -46.00541,27.1516 -4.3036,2.5549 -17.67833,9.8712 -29.74228,16.2584 -76.93089,40.6926 -78.58968,57.3227 -16.06595,160.2617 9.30317,15.3294 18.43234,31.0072 20.28832,34.8395 1.8444,3.8324 5.88119,11.1487 8.97837,16.2585 3.08558,5.1098 12.92235,21.8327 21.85431,37.1621 8.93196,15.3294 18.76873,32.0523 21.85431,37.1621 3.09719,5.1098 7.16877,12.4261 9.04797,16.2584 17.63193,35.8383 56.25976,41.2965 99.0172,13.9939 14.68554,-9.3718 67.60451,-40.2977 74.23969,-43.3752 3.82799,-1.7884 13.22395,-7.3744 20.87992,-12.426 42.80382,-28.2433 44.07982,-26.1297 44.10301,73.7436 0,144.0032 -11.85515,134.9449 177.50247,135.1423 l 147.3542,0.151 15.0451,-14.3887 15.0336,-14.3887 -1.4152,-92.2666 c -1.972,-127.2687 -6.8555,-123.3086 84.9349,-68.9474 12.7599,7.5486 28.3735,15.9101 34.707,18.5347 6.322,2.6478 12.5859,6.2478 13.92,8.013 1.3224,1.7536 12.5279,8.1409 24.9051,14.1913 42.1078,20.5902 68.3237,8.9422 95.2704,-42.3648 a 1138.3034,1139.5998 0 0 1 24.1511,-42.9687 c 7.5864,-12.7745 15.9499,-28.4058 18.5831,-34.7466 2.6447,-6.3292 6.2408,-12.6003 7.9924,-13.9358 1.74,-1.3239 6.5656,-8.6866 10.7066,-16.3513 25.3344,-47.0101 38.6628,-70.7823 44.196,-78.8418 23.6059,-34.4098 -6.844,-75.6017 -81.8725,-110.7896 -3.828,-1.8001 -17.3999,-9.5925 -30.1599,-17.3269 -12.7599,-7.7343 -28.9999,-16.2932 -36.0526,-19.0107 -10.8692,-4.1807 -21.9471,-16.3165 -21.9471,-24.0393 0,-1.1613 25.4967,-17.501 56.6541,-36.3143 74.4601,-44.94297 74.0425,-44.7107 85.2597,-49.85534 40.9362,-18.77848 43.1517,-58.01937 6.4496,-114.4129 -4.988,-7.66469 -10.5212,-17.07134 -12.3076,-20.90369 -1.7865,-3.83234 -13.9431,-24.73604 -27.0279,-46.45266 -13.0615,-21.71661 -25.2879,-42.62031 -27.1439,-46.45265 -1.856,-3.83235 -5.8928,-11.19509 -8.9899,-16.35134 a 10275.435,10287.139 0 0 1 -19.2096,-32.44718 c -26.0303,-44.16487 -51.7705,-50.93534 -96.3724,-25.36315 -13.5255,7.75759 -29.8118,16.61844 -36.1918,19.69592 -6.38,3.06588 -14.3608,8.22212 -17.7479,11.43897 -3.364,3.22846 -8.3752,5.86465 -11.1476,5.86465 -2.7608,0 -11.8668,5.22592 -20.2419,11.61316 -8.3637,6.38724 -18.2468,11.61317 -21.9819,11.61317 -3.7236,0 -8.0272,3.27491 -9.5584,7.28145 -1.8212,4.7614 -7.2384,6.75886 -15.5787,5.80658 l -12.7832,-1.47488 -1.1716,-92.9053 c -1.8212,-144.11937 7.192,-137.26761 -178.9989,-136.43146 -109.32953,0.48775 -138.12062,1.92779 -149.75536,7.51372 m 177.94326,147.673 c 59.4614,24.8754 69.4025,94.29888 19.8127,138.42892 -11.3679,10.10344 -14.1635,15.701 -12.0639,24.09731 1.508,6.00401 0.6496,12.22867 -1.914,13.81967 -13.2588,8.19889 -0.116,11.62477 45.2282,11.76414 66.6998,0.19742 87.8349,17.14103 64.5422,51.79471 l -10.3704,15.41067 -52.0258,1.31228 c -50.0074,1.27744 -57.2226,3.21684 -47.641,12.85578 2.4128,2.43876 5.0228,16.95522 5.8,32.2846 l 1.4152,27.87159 16.2399,1.39358 c 35.9367,3.04265 83.9836,41.23838 90.1549,71.62998 7.6443,37.7196 7.6907,45.3146 0.464,66.7873 -14.1868,42.121 -59.1598,76.194 -100.5717,76.194 -15.3584,0 -18.5019,1.2426 -14.1751,5.5743 3.1552,3.1588 5.568,18.2676 5.568,34.8395 v 29.2652 h 25.1023 c 62.8717,0 67.1521,69.017 4.4544,71.7461 l -27.2367,1.1962 -2.4128,26.7219 c -5.7072,63.1408 -72.52294,64.4763 -71.38615,1.4284 0.4872,-27.14 -2.78397,-31.2394 -24.89349,-31.3439 -24.70789,-0.1163 -75.30689,-37.7428 -75.30689,-55.9987 0,-3.9833 -2.41279,-9.6622 -5.37078,-12.6235 -2.95799,-2.9614 -5.54477,-17.6869 -5.75357,-32.7143 -0.75401,-56.2658 36.42384,-97.9571 98.34439,-110.209 12.36555,-2.4619 14.26794,-4.2736 9.97596,-9.4763 -3.57279,-4.2969 -4.25718,-15.6778 -2.08799,-34.4214 l 3.24798,-27.9877 h -23.8611 c -84.81885,0 -135.34824,-107.59601 -80.59647,-171.631 25.6359,-29.9968 47.7802,-42.03966 77.19768,-42.03966 h 24.9051 l -1.33399,-17.41974 a 1251.5189,1252.9443 0 0 1 -1.60079,-23.22633 c -0.15081,-3.20523 -3.30599,-5.80658 -7.00638,-5.80658 -3.68877,0 -12.48155,-7.5834 -19.53432,-16.82748 -48.6618,-63.8724 20.93792,-155.53511 94.67881,-124.69054 m 2194.9315,73.27907 c -9.4655,3.07748 -19.8011,8.18728 -22.9679,11.35767 -3.1784,3.18201 -7.4356,5.77174 -9.4771,5.77174 -5.0112,0 -22.272,17.55911 -22.272,22.65729 0,2.24134 -2.8535,6.4453 -6.3335,9.33698 -19.0241,15.80552 -18.9776,90.03687 0.1159,112.36898 3.4337,4.04138 6.2524,8.83762 6.2524,10.68411 0,6.77048 25.5083,26.71027 45.5183,35.57111 55.0069,24.35281 114.8627,0.39486 148.201,-59.33164 41.9686,-75.1604 -52.9074,-176.47365 -139.0023,-148.41624 m -493.1952,154.30411 -19.7199,14.43517 c -13.5023,9.87118 -13.1544,16.21197 2.1691,40.10025 a 724.50986,725.33503 0 0 1 21.2628,35.45499 c 27.9559,51.01664 44.9614,63.67494 62.2454,46.37134 2.8535,-2.8568 10.0339,-7.6066 15.9731,-10.568 17.5507,-8.7679 15.3003,-17.2571 -20.2188,-76.49586 -35.519,-59.20392 -41.5974,-64.05823 -61.7117,-49.29789 m 698.5259,5.66723 c 19.8707,23.36568 57.8259,96.30797 65.8762,126.58352 2.378,8.9421 7.5632,28.8006 11.542,44.13 15.2887,59.0181 10.1962,201.4187 -8.1317,227.618 -1.798,2.5549 -4.7211,10.7654 -6.5075,18.2443 -3.5728,14.9113 -24.8355,60.0981 -41.0754,87.2962 -28.6519,47.9623 -44.4394,64.0117 -63.0109,64.0117 -21.054,0 -19.3836,-16.0029 4.0599,-39.1363 10.1616,-10.0338 18.4787,-21.0082 18.4787,-24.3877 0,-3.391 2.088,-6.1549 4.64,-6.1549 2.552,0 4.64,-2.9846 4.64,-6.6195 0,-3.6698 2.61,-9.4416 5.8,-12.8674 5.3824,-5.7486 13.9895,-22.6805 29.0579,-57.16 5.9972,-13.7037 15.2887,-50.3547 25.1139,-99.0603 13.6879,-67.8442 -6.67,-182.3732 -44.0798,-247.99917 -6.2293,-10.95122 -12.6092,-23.57473 -14.152,-28.0458 -1.5544,-4.47106 -4.5009,-8.12921 -6.554,-8.12921 -5.4752,0 -10.2776,-26.12962 -6.8208,-37.046 3.6657,-11.56672 11.948,-12.05446 21.112,-1.27744 m -768.7753,8.09437 c -5.6608,12.14737 0.4988,38.9041 11.484,49.89016 2.9812,2.98458 5.4171,8.26857 5.4171,11.74091 0,3.48395 1.9952,5.07495 4.4428,3.56524 5.046,-3.12394 1.0208,-17.07135 -6.3567,-21.98372 -2.6912,-1.78843 -5.974,-14.8184 -7.308,-28.91679 -2.1808,-23.53988 -2.8188,-24.73603 -7.6792,-14.28419 M 944.89292,930.56738 c -27.00468,16.76941 -13.15435,61.48009 19.55752,63.11755 l 14.36075,0.72001 1.1252,-36.00082 c 1.26438,-40.34412 -5.82318,-45.97651 -35.04347,-27.83674 m 1759.71288,47.1959 c 0,8.6518 5.7188,18.83655 9.3264,16.60682 4.7327,-2.92652 0.232,-20.86885 -5.2316,-20.86885 a 4.1875829,4.1923524 0 0 0 -4.0948,4.26203 m 13.9199,25.08442 c 0,3.6698 3.132,9.2905 6.96,12.4609 3.8279,3.182 6.96,8.6635 6.96,12.1939 0,3.5071 2.088,6.3872 4.64,6.3872 6.7975,0 5.6608,-7.6066 -2.32,-15.5965 -3.8281,-3.8323 -6.96,-9.0815 -6.96,-11.6712 0,-2.5897 -2.088,-5.9924 -4.64,-7.5718 -2.552,-1.57939 -4.64,0.12776 -4.64,3.7975 m 604.5316,7.4905 c 6.2988,7.4905 15.6251,22.6457 20.7291,33.6782 22.4691,48.6011 24.3367,57.9729 24.3367,122.2634 0,62.9898 -0.812,67.3912 -22.1559,120.7769 -8.4796,21.194 -45.9358,74.3939 -62.1409,88.2601 -40.3215,34.5027 -97.2309,67.3563 -116.6956,67.3563 -5.8233,0 -12.9107,2.3226 -15.7411,5.1563 -7.2732,7.2814 -120.4423,7.5485 -127.6692,0.3019 -3.0159,-3.0079 -10.9038,-5.4582 -17.5622,-5.4582 -6.6469,0 -16.1472,-3.0659 -21.1119,-6.8169 -4.9533,-3.7511 -11.5769,-6.8866 -14.732,-6.9679 -17.2955,-0.4529 -73.2537,-43.5494 -67.8713,-52.2825 4.7792,-7.746 35.0783,-3.1355 52.7218,8.0131 10.0919,6.3872 20.7059,11.6132 23.5479,11.6132 2.8536,0 10.7182,2.9033 17.4927,6.4337 61.5842,32.2613 162.3762,20.2998 232.7879,-27.6278 35.0781,-23.8766 68.1497,-62.5601 85.1204,-99.5945 34.9159,-76.1591 27.0279,-185.288 -17.5971,-243.8764 -21.4599,-28.1736 3.7583,-48.33402 26.5407,-21.2289 m -2269.5772,83.278 c 1.0439,18.1746 -0.5336,29.7065 -4.7792,34.8395 -9.6861,11.6712 27.5731,10.8467 38.1523,-0.8478 19.8011,-21.914 3.7119,-61.1897 -25.0676,-61.1897 -9.1175,0 -9.7439,2.0671 -8.3055,27.1864 m 2029.9106,95.2744 c 28.6403,24.6664 21.0771,146.5582 -10.208,164.3031 l -18.2583,10.3821 -270.8937,0.1162 c -336.3755,0.1161 -307.1437,9.5692 -306.4708,-99.2113 0.6148,-94.5544 -28.7679,-86.4484 313.7787,-86.4832 h 279.3037 l 12.7484,10.9744 m -2124.57784,34.6305 c -15.25393,15.0158 -16.00793,25.0612 -3.16677,43.0964 11.51875,16.1888 36.06424,20.1837 27.68908,4.5059 -8.08517,-15.0971 -5.98557,-50.2501 3.31759,-55.6735 7.05276,-4.111 6.60036,-4.7149 -3.47999,-4.6104 -6.37998,0.1161 -17.34192,5.7717 -24.35991,12.6816 m 1564.83364,-9.697 c -12.0175,4.5756 -13.7807,11.6944 -13.8503,56.138 -0.116,68.5757 -32.6308,61.2478 271.6941,61.2478 312.3402,0 285.0688,5.4931 284.976,-57.4387 0,-23.3424 -1.3224,-47.1378 -2.8652,-52.8863 l -2.7955,-10.4519 -265.1055,0.3717 c -145.8113,0.1974 -268.2256,1.5561 -272.0536,3.0194 m 216.2232,188.2261 c 12.0523,15.9681 27.0163,34.6073 33.2686,41.4242 14.094,15.3874 10.2892,22.4831 -11.9711,22.3321 -23.9191,-0.1742 -80.9677,-76.1011 -67.3958,-89.6885 10.1616,-10.1615 25.3111,-1.6258 46.1099,25.9322 m 345.6786,104.5185 c -304.2668,1.1381 -327.0492,1.7768 -332.8607,9.3254 -7.8881,10.2312 -4.8256,86.9826 3.8744,97.4809 7.1107,8.5705 678.632,4.1807 689.2692,-4.4943 3.9324,-3.2052 5.7999,-19.4985 5.7999,-50.4592 0,-49.5882 -3.8279,-56.8232 -28.6982,-54.2102 -5.916,0.6271 -157.7246,1.6839 -337.3731,2.3574 m 925.9779,569.4283 c 2.1228,2.1252 4.2224,155.7674 4.6748,341.4271 0.4524,185.6596 3.422,587.0803 6.5772,892.0536 4.3847,422.8121 4.4659,556.5493 0.3362,563.1688 -2.9811,4.7846 -5.417,11.9731 -5.417,15.9912 0,19.9167 -57.1878,95.019 -72.3373,95.019 -2.9697,0 -8.004,3.1356 -11.1824,6.9679 -3.1784,3.8324 -10.3239,6.9679 -15.8919,6.9679 -5.5449,0 -12.7021,2.613 -15.8921,5.8066 -4.5702,4.5756 -172.6072,6.4221 -793.2046,8.7099 -433.0727,1.6026 -835.4867,4.5291 -894.252,6.5149 -94.3888,3.1704 -107.7056,2.7408 -114.1899,-3.751 -6.5772,-6.5847 -7.656,-64.0582 -10.3008,-552.3221 -1.624,-299.7358 -4.292,-731.4319 -5.9392,-959.3171 l -2.9812,-414.3461 11.0896,-2.3226 c 6.1016,-1.2775 259.5605,-3.7162 563.2473,-5.4466 303.6868,-1.7187 706.6691,-4.5988 895.5164,-6.3872 409.3043,-3.9137 455.1125,-3.7859 460.1469,1.2774 m -2001.8155,161.0282 c 4.988,218.2229 11.2172,1760.9273 7.1688,1773.3302 l -3.422,10.4518 -567.3537,0.3717 c -312.0503,0.209 -707.24914,1.8581 -878.23244,3.6697 -170.9833,1.8117 -323.59228,1.7651 -339.12462,-0.1161 C 165.87489,4017.2652 113.17631,3969.6629 93.247594,3902.4226 87.07642,3881.6002 76.195664,2125.8407 82.111639,2104.1822 83.990832,2097.2724 1179.154,2085.0669 1734.8497,2085.7753 l 271.4389,0.3484 3.4452,150.9712 M 999.4127,2449.6622 c -7.65597,3.9601 -14.96393,8.4428 -16.23993,9.9873 -1.276,1.5098 -24.2439,21.5657 -51.0398,44.5598 a 10445.178,10457.074 0 0 0 -85.83964,74.51 6579.2381,6586.7314 0 0 1 -50.4946,44.13 c -18.28152,15.6081 -20.71751,17.7682 -47.07261,41.61 -12.70194,11.497 -33.31507,29.2652 -45.79661,39.4848 -12.48155,10.2195 -28.14148,23.8882 -34.79987,30.3684 -6.63516,6.5034 -35.04344,31.4717 -63.11533,55.4877 -28.07188,24.0392 -58.34776,50.436 -67.27973,58.6697 -8.93196,8.2453 -22.48071,19.8585 -30.11347,25.8045 -7.62118,5.9575 -17.16793,13.9706 -21.22793,17.8029 -4.02518,3.8323 -14.97553,13.7849 -24.3251,22.1115 -79.70326,71.0261 -30.27588,154.0719 91.90643,154.4086 28.07188,0.1162 53.33659,1.6723 56.14377,3.5537 3.5496,2.3807 6.02039,87.029 8.11998,278.8436 2.77238,250.1475 3.79318,276.5792 11.08954,288.0065 26.19271,40.9597 9.10597,39.45 416.2063,36.8138 361.2689,-2.3691 383.6337,-3.5304 400.9987,-20.8457 24.8936,-24.8057 23.838,-11.1718 23.838,-308.8869 0,-208.1776 1.3572,-276.974 5.568,-281.2012 3.712,-3.7163 24.0119,-5.5743 60.7837,-5.5743 76.8613,0 109.8748,-18.6275 116.9624,-65.9976 7.4587,-49.7508 0,-59.111 -139.2343,-176.2414 -64.2289,-54.0012 -83.8792,-70.759 -85.8396,-73.1397 -1.276,-1.5562 -11.716,-10.5215 -23.1999,-19.9282 -11.4841,-9.395 -26.3667,-21.9373 -33.0716,-27.8716 a 1768.1808,1770.1947 0 0 0 -34.6837,-29.3465 2601.2546,2604.2173 0 0 1 -64.983,-55.7431 869.99647,870.98734 0 0 0 -16.4371,-13.9358 c -39.9038,-33.0511 -67.2217,-56.3239 -71.2237,-60.6788 -2.552,-2.7872 -17.0984,-15.3526 -32.3175,-27.9297 -47.699,-39.4151 -49.9958,-41.3429 -55.297,-46.383 -21.2279,-20.1604 -70.8525,-26.4664 -97.9848,-12.4493 m 70.1797,22.4947 c 12.2728,2.8452 38.2219,21.3102 65.4238,46.534 6.0319,5.6091 19.6387,17.1875 30.2063,25.7231 22.5503,18.2327 58.1505,48.6592 66.0733,56.4865 3.0508,3.0194 14.697,12.8093 25.8679,21.7514 a 1433.1742,1434.8065 0 0 1 64.8669,55.7432 c 4.1528,3.8324 12.6788,11.1486 18.9427,16.2584 27.8979,22.7618 68.1382,56.9394 83.4385,70.8868 9.164,8.3615 24.0583,20.9269 33.0599,27.9064 17.5507,13.5874 66.5605,55.6039 113.9695,97.7016 57.0486,50.6334 63.1966,101.7661 16.1935,134.5385 -30.8674,21.5192 -17.6319,20.9734 -548.7938,22.9128 l -503.43791,1.8348 -18.35113,-10.6841 c -59.35696,-34.5956 -58.49855,-91.2446 2.1808,-143.0278 a 3474.1859,3478.1428 0 0 0 45.35582,-39.4847 c 31.04147,-27.6625 38.46543,-34.0962 60.81855,-52.7005 11.21715,-9.337 25.83308,-22.2044 32.47987,-28.5916 6.64677,-6.3873 19.48792,-17.8843 28.55908,-25.549 55.91176,-47.312 67.68572,-57.5084 84.98125,-73.5926 a 978.85041,979.96527 0 0 1 40.05463,-34.8395 1073.3436,1074.5661 0 0 0 25.97231,-21.6353 c 38.91784,-35.5247 79.51767,-71.0494 87.25484,-76.3798 5.35918,-3.6814 10.78795,-8.0711 12.06394,-9.7434 11.05477,-14.5165 68.95015,-60.2143 76.38575,-60.2724 5.1967,0 12.5859,-2.1832 16.4139,-4.7614 3.828,-2.5549 11.4027,-3.6465 16.8199,-2.3923 l 23.1999,5.3769 m -45.8198,32.6911 c -8.8972,2.5781 -21.8427,12.9603 -51.34139,41.157 -10.69516,10.2196 -31.96946,28.9168 -47.2698,41.5752 -15.31194,12.6235 -31.13428,26.2109 -35.18266,30.1942 -14.88274,14.5861 -71.9429,64.7434 -85.44526,75.1023 -7.65597,5.8647 -18.14232,14.9346 -23.31589,20.1605 -5.13878,5.2259 -24.9747,23.0753 -44.05664,39.6822 a 9005.2173,9015.4738 0 0 0 -39.88063,34.8395 c -2.85358,2.5548 -11.21716,9.6737 -18.57152,15.8171 -7.35437,6.155 -22.82871,19.7424 -34.39386,30.1942 -11.55355,10.4635 -34.38226,30.5194 -50.72659,44.5713 -91.83683,78.9696 -104.17918,104.472 -62.94135,129.9862 21.74991,13.4713 970.33609,11.2183 1024.62389,-2.4156 46.8638,-11.7873 36.7718,-54.698 -24.7195,-105.0643 -19.4647,-15.9332 -26.4827,-21.8792 -55.5407,-47.0565 -6.3799,-5.5279 -26.2158,-22.4947 -44.0798,-37.7196 -17.8638,-15.2132 -35.925,-30.9491 -40.1358,-34.9556 -4.1991,-4.0065 -16.6343,-14.6093 -27.6195,-23.5515 -10.9851,-8.9421 -27.3758,-22.785 -36.4238,-30.7632 a 1626.8934,1628.7463 0 0 0 -28.0719,-24.1206 c -21.8311,-18.1165 -85.8164,-72.8494 -99.7597,-85.3219 -7.6558,-6.8518 -30.6238,-26.6871 -51.0397,-44.0605 -20.4159,-17.3848 -39.2079,-33.8406 -41.7598,-36.5813 -22.5503,-24.2135 -59.2874,-38.3467 -82.3365,-31.6691 m 1861.7809,325.5867 c -3.828,1.4516 -8.004,3.902 -9.28,5.4349 -3.3408,4.0066 -19.0239,13.5526 -32.4799,19.7888 -10.4747,4.8427 -10.73,5.5744 -2.6215,7.4557 4.9299,1.1613 11.1939,-0.9291 13.9198,-4.6221 8.2825,-11.2647 64.287,-21.972 69.6346,-13.3086 1.7284,2.7986 8.0039,5.0865 13.9664,5.0865 5.9507,0 12.0291,3.1356 13.5023,6.9679 1.4616,3.8324 4.9648,6.9679 7.772,6.9679 2.8304,0 8.2591,3.1356 12.0871,6.9678 7.9808,7.99 15.5788,9.1281 15.5788,2.3228 0,-2.5549 -3.132,-4.6453 -6.96,-4.6453 -3.828,0 -6.96,-1.6491 -6.96,-3.6581 0,-19.0921 -63.5329,-44.1301 -88.1596,-34.7582 m 266.7989,3.8091 c -7.6561,3.9252 -16.0079,9.8247 -18.5599,13.1229 -2.552,3.2749 -17.6088,15.5035 -33.4775,27.1748 -33.6399,24.736 -43.0822,33.5852 -43.0822,40.4254 0,9.4183 -15.0452,4.9588 -31.2039,-9.2441 -17.7131,-15.5616 -26.4827,-15.6545 -10.9389,-0.1161 5.3129,5.3188 10.8924,9.6737 12.4005,9.6737 1.508,0 6.206,4.1808 10.44,9.2906 8.5027,10.2428 2.5518,14.1216 66.1197,-43.0733 15.9151,-14.3074 43.1054,-29.8458 70.0289,-40.0189 12.2727,-4.6337 48.4762,4.3201 64.8669,16.0378 16.472,11.7873 78.8216,43.8279 85.2829,43.8279 3.1668,0 6.9599,3.1357 8.4448,6.968 1.4615,3.8324 6.9135,6.9679 12.0871,6.9679 5.1852,0 9.4308,2.0556 9.4308,4.5524 0,2.5084 5.2199,5.8763 11.5999,7.4789 6.3799,1.6026 11.6,4.6104 11.6,6.6892 0,2.0671 6.2639,5.1446 13.9198,6.8285 7.6561,1.6839 13.9201,4.7614 13.9201,6.8285 0,2.0904 5.2198,5.0866 11.5999,6.6891 6.38,1.6027 11.6,4.9706 11.6,7.479 0,2.4968 4.1759,4.5524 9.2799,4.5524 5.104,0 9.28,1.6839 9.28,3.751 0,2.0672 8.062,7.3163 17.8987,11.6596 15.834,6.9912 23.3623,12.0893 45.7038,30.9607 3.0855,2.6014 9.744,4.7266 14.8132,4.7266 5.0576,0 10.405,1.9742 11.8899,4.3664 1.4848,2.4157 11.6928,8.8726 22.6663,14.354 11.4724,5.7369 52.8958,42.4113 97.3816,86.2161 42.5719,41.9236 79.4829,76.2288 82.0117,76.2288 2.5288,0 4.5935,3.1355 4.5935,6.9679 0,3.8324 2.088,6.9679 4.6401,6.9679 24.9167,0 -164.8702,-182.6054 -212.6272,-204.5891 -42.2238,-19.4288 -54.195,-25.3863 -56.4918,-28.0458 -1.2759,-1.4864 -12.7599,-7.7576 -25.5198,-13.9358 -12.76,-6.1782 -23.896,-12.8093 -24.7427,-14.7255 -0.8584,-1.9161 -4.3616,-3.4839 -7.7952,-3.4839 -3.4337,0 -9.0132,-2.613 -12.4121,-5.8066 -3.387,-3.1936 -20.7638,-13.1229 -38.6045,-22.065 -17.8407,-8.9421 -33.4891,-17.5359 -34.7651,-19.1153 -1.2761,-1.5677 -7.0179,-4.3317 -12.7599,-6.1201 -5.742,-1.8 -10.44,-5.0401 -10.44,-7.2234 0,-2.1833 -6.2639,-5.342 -13.9199,-7.026 -7.656,-1.6839 -13.92,-4.7614 -13.92,-6.8285 0,-2.0788 -5.2199,-5.0866 -11.5999,-6.6892 -6.3801,-1.6026 -11.6,-4.9704 -11.6,-7.4789 0,-2.4968 -4.0599,-4.5523 -9.0015,-4.5523 -4.9532,0 -10.1732,-1.8581 -11.5768,-4.1691 -12.0175,-19.4637 -63.8345,-29.1375 -88.4612,-16.4907 m -331.6775,33.6433 c -3.7816,1.3471 -9.6743,5.2491 -13.0847,8.6634 -3.422,3.4259 -9.1988,6.2247 -12.8528,6.2247 -3.6423,0 -6.6235,1.5794 -6.6235,3.5072 0,1.9394 -10.962,8.675 -24.36,14.9809 -20.9958,9.8828 -22.7938,11.7061 -13.0151,13.1926 6.6699,1.0103 13.5603,-1.3239 16.7503,-5.6905 2.9696,-4.0646 8.5724,-7.4093 12.4468,-7.4093 3.8744,0 9.628,-3.1354 12.8179,-6.9678 3.1784,-3.8323 7.5632,-6.9679 9.7323,-6.9679 7.2269,0 32.8628,-17.5126 28.9303,-19.7656 -2.1227,-1.2077 -6.9599,-1.1032 -10.7415,0.2323 m 357.1974,8.1292 c -6.38,3.5304 -15.08,6.5034 -19.3371,6.5963 -4.2456,0.1161 -8.4216,1.7999 -9.28,3.7975 -0.8468,2.0091 -14.5811,13.6106 -30.5079,25.8044 -15.9383,12.1939 -31.1459,26.2226 -33.8022,31.193 -6.554,12.2519 -1.6356,11.3925 10.7878,-1.8581 10.1269,-10.8002 38.048,-29.9039 67.0478,-45.8488 8.2824,-4.5523 24.9863,-8.524 37.1199,-8.8144 12.1219,-0.3019 17.8639,-1.5678 12.7599,-2.8103 -5.104,-1.2427 -12.4119,-5.0169 -16.2399,-8.3964 -5.7652,-5.0749 -8.932,-5.0285 -18.5599,0.3252 m -299.2789,6.7705 c -6.2639,2.6942 2.0185,3.9948 25.52,3.9948 23.5247,0 31.7839,-1.3006 25.5199,-3.9948 -5.104,-2.1949 -16.5879,-3.995 -25.5199,-3.995 -8.932,0 -20.4159,1.8001 -25.52,3.995 m -158.3857,44.1299 c -1.4732,3.8324 -7.6675,6.968 -13.7807,6.968 -6.1016,0 -11.1012,2.16 -11.1012,4.7962 0,2.6362 -4.6979,6.6892 -10.4399,9.0002 -10.034,4.0298 -9.9412,4.204 2.32,4.4943 7.0179,0.1626 12.7599,-1.7419 12.7599,-4.2389 0,-2.4967 9.396,-8.8143 20.8799,-14.0518 22.9215,-10.4518 25.7866,-13.9358 11.4491,-13.9358 -5.1735,0 -10.6255,3.1356 -12.0871,6.9678 m 146.7974,7.177 c -11.4839,7.4557 -22.4112,13.5874 -24.2787,13.6339 -1.8675,0.1161 -17.0519,8.4543 -33.721,18.674 -16.6808,10.2195 -33.176,18.581 -36.6327,18.581 -3.48,0 -8.9087,3.1356 -12.0871,6.9679 -3.1784,3.8324 -8.1664,6.9679 -11.1012,6.9679 -2.9233,0 -21.9355,8.3614 -42.2586,18.5811 -20.3231,10.2196 -42.2007,18.581 -48.627,18.5578 -18.4439,0 -76.2814,20.7179 -97.1844,34.8627 -3.7701,2.5549 -77.4298,75.0559 -163.6869,161.1095 l -156.8314,156.4525 v 20.2302 c 0,20.1372 0.464,20.683 88.3916,107.1662 113.9348,112.0671 98.5996,110.5109 190.6453,19.1037 l 68.2889,-67.8209 20.0563,2.9614 c 11.0431,1.6258 28.7679,5.1911 39.405,7.9318 18.1192,4.6568 28.7563,4.2039 79.7381,-3.368 11.7624,-1.7651 24.3483,-0.8825 30.1599,2.1021 5.4752,2.8104 21.4483,7.0957 35.4842,9.5344 14.036,2.4388 39.0919,7.8041 55.6798,11.9384 16.588,4.1226 37.4679,9.1279 46.3998,11.1253 15.4628,3.4492 64.055,23.9929 78.8797,33.3414 3.8279,2.4156 10.092,5.5744 13.92,7.026 3.8279,1.4401 10.5906,4.564 15.0219,6.9331 12.1799,6.515 19.8127,5.249 28.8839,-4.7962 13.4095,-14.8301 6.1944,-29.6601 -20.6248,-42.4114 -12.8063,-6.0852 -23.281,-12.6583 -23.281,-14.6093 0,-1.951 -2.61,-3.5536 -5.8,-3.5652 -7.0296,0 -70.1217,-40.9016 -72.3025,-46.8591 -0.8584,-2.3227 -3.6888,-4.2272 -6.2988,-4.2272 -4.002,0 -38.187,-24.4226 -45.5182,-32.5169 -1.276,-1.3936 -11.716,-9.6738 -23.2,-18.3488 -25.1371,-19.034 -73.3232,-68.599 -79.2392,-81.5244 a 221.4431,221.69531 0 0 0 -8.352,-16.2584 c -25.2532,-43.0616 -24.8935,-131.8907 0.58,-143.2253 1.9255,-0.8593 3.5611,-3.9948 3.6424,-6.9678 0.348,-13.5874 46.075,-52.1896 76.4089,-64.5343 47.9078,-19.5102 118.7371,-17.1063 155.7526,5.2722 8.7579,5.2957 19.0123,11.1023 22.7823,12.8907 3.77,1.8001 11.3215,8.0944 16.7735,13.9823 19.0819,20.6134 21.8079,14.9461 19.5343,-40.4951 -2.4012,-58.4375 -4.3267,-61.724 -61.7233,-105.8192 -15.312,-11.7641 -28.884,-22.5296 -30.16,-23.9231 -19.0006,-20.7643 -55.5637,-22.7967 -83.5196,-4.6453 m 302.6892,-5.1446 c -35.3566,19.7772 -83.0672,64.5228 -87.4637,81.989 -1.5311,6.1549 -4.3847,11.195 -6.3219,11.195 -9.9528,0 -15.7991,97.7364 -6.0552,100.9881 2.494,0.8246 17.3768,-7.9666 33.0947,-19.545 15.7063,-11.5783 31.691,-21.0546 35.4958,-21.0546 3.8279,0 6.96,-1.8116 6.96,-4.0181 0,-5.3073 57.9418,-19.2316 79.9701,-19.2198 63.0457,0 134.2113,42.6203 159.4645,95.4137 13.514,28.2549 12.5164,105.1688 -1.6705,127.5706 -5.6606,8.9421 -12.2958,20.4392 -14.7318,25.549 -6.1828,13.0067 -49.1838,57.2761 -76.8729,79.2018 -12.7599,10.1033 -24.2439,19.5449 -25.5199,21.0198 -5.0808,5.8066 -150.8342,112.845 -165.3921,121.4389 -34.7187,20.5088 -10.4168,46.5107 25.8099,27.6045 l 26.7263,-13.9242 c 40.9014,-21.2521 67.9293,-33.2717 74.8776,-33.2717 4.5589,0 10.266,-1.9743 12.6904,-4.3782 4.408,-4.3783 29.8699,-11.6828 64.7278,-18.5578 10.2078,-2.0207 24.441,-6.0389 31.6214,-8.9422 7.6328,-3.0891 40.5883,-5.284 79.3321,-5.284 51.295,0 69.5997,-1.6724 81.0605,-7.3976 19.0818,-9.5227 18.8731,-9.6737 96.1868,66.7061 89.9344,88.8639 72.7085,92.2782 203.6256,-40.379 99.2608,-100.57 102.4276,-81.6173 -36.9228,-219.9998 -180.6923,-179.4234 -203.8343,-200.7452 -232.3121,-213.9145 -10.1385,-4.7033 -24.36,-11.497 -31.5635,-15.0971 -7.2269,-3.6233 -26.0187,-6.5963 -41.7598,-6.6195 -22.3532,0 -33.2108,-2.7175 -49.5086,-12.1822 -11.484,-6.6544 -38.4771,-21.4728 -59.9718,-32.9117 -21.5064,-11.439 -47.0378,-25.8277 -56.747,-31.9595 -9.7091,-6.1433 -19.0355,-11.1486 -20.7175,-11.1486 -1.682,0 -13.2355,-6.2711 -25.6824,-13.9358 -26.2738,-16.2004 -49.4853,-17.7681 -72.43,-4.9356 m -513.8083,32.7956 c -1.5776,2.5549 1.3107,4.6453 6.4148,4.6453 5.104,0 10.5559,-2.0904 12.1451,-4.6453 1.5776,-2.5549 -1.3108,-4.6453 -6.4147,-4.6453 -5.104,0 -10.5676,2.0904 -12.1452,4.6453 m 81.1997,0 c -5.626,3.6465 -4.9649,4.5291 3.48,4.5756 5.7419,0 10.4399,-2.0207 10.4399,-4.5756 0,-5.8066 -4.9185,-5.8066 -13.9199,0 m -106.7196,13.9358 c 0,2.5549 4.176,4.6453 9.28,4.6453 5.1039,0 9.2799,-2.0904 9.2799,-4.6453 0,-2.5549 -4.176,-4.6453 -9.2799,-4.6453 -5.104,0 -9.28,2.0904 -9.28,4.6453 m 81.1997,0 c -1.5777,2.5549 0.2668,4.6453 4.0948,4.6453 3.8279,0 8.2359,-2.0904 9.8251,-4.6453 1.5776,-2.5549 -0.2669,-4.6453 -4.0948,-4.6453 -3.8279,0 -8.2475,2.0904 -9.8251,4.6453 m -104.3996,16.2584 c -3.1784,3.8324 -8.6537,6.9679 -12.18,6.9679 -3.5031,0 -6.3799,1.8581 -6.3799,4.1459 0,2.2762 -5.7188,5.5742 -12.7136,7.3279 -6.9947,1.7652 -13.7807,4.6221 -15.0799,6.3524 -1.2993,1.742 -11.4493,9.0583 -22.5503,16.2701 -11.0896,7.2001 -36.1455,29.9039 -55.6798,50.4476 -19.5227,20.5553 -56.3758,58.8206 -81.8957,85.0664 -79.2276,81.4431 -90.9668,95.1699 -81.478,95.1699 2.7028,0 4.9184,-3.1356 4.9184,-6.9679 0,-3.8325 1.8443,-6.9679 4.1063,-6.9679 2.2619,0 49.7638,-45.4656 105.5596,-101.0346 55.7958,-55.5689 105.6292,-103.5429 110.7332,-106.5972 5.1038,-3.0659 17.6319,-10.0918 27.8398,-15.6081 10.208,-5.5162 19.604,-11.4157 20.88,-13.088 1.2759,-1.6839 9.2682,-8.768 17.7479,-15.7475 8.6652,-7.1305 12.4815,-12.7048 8.7,-12.7048 -3.712,0 -9.3496,3.1356 -12.528,6.9679 m 81.0025,-1.9974 c -1.6936,2.7291 -7.5516,6.782 -13.0384,9.0002 l -9.9759,4.0181 10.4399,0.302 c 5.7536,0.1625 10.44,-1.8581 10.44,-4.506 0,-2.6361 4.7096,-6.6891 10.4398,-9.0002 7.5749,-3.0426 8.2941,-4.2736 2.6101,-4.4942 -4.3152,-0.1626 -9.2336,1.951 -10.9155,4.6801 m -1253.0965,81.3502 c 6.9599,18.1862 3.016,516.2632 -4.1413,522.2091 -3.8279,3.182 -6.9599,8.5938 -6.9599,12.0197 0,8.4427 -32.1551,29.7877 -44.8918,29.7877 -5.626,0 -11.5304,2.0904 -13.108,4.6453 -1.8675,3.0194 -114.4103,4.6453 -322.4787,4.6453 -208.06833,0 -320.62267,-1.6259 -322.47866,-4.6453 -1.57759,-2.5549 -6.92517,-4.6453 -11.87836,-4.6453 -14.62753,0 -40.21704,-31.1116 -46.23741,-56.2077 -9.41916,-39.3338 -8.83916,-501.2125 0.64959,-507.2398 22.84031,-14.5048 22.66631,-16.3397 22.66631,236.2582 0,326.5274 -10.09196,303.9166 135.71946,303.9514 h 91.63962 v -289.2375 l 16.56473,-15.6429 16.57633,-15.6429 h 94.41199 c 144.0367,0 136.9259,-9.4996 136.9259,183.0234 v 137.4999 l 84.6797,-0.1161 c 156.5413,-0.1162 142.6794,27.8251 142.6794,-287.8788 0,-139.6947 1.3919,-255.3967 3.0972,-257.0922 5.9043,-5.9227 23.7683,-3.0543 26.5639,4.2503 m 1450.4929,20.7528 c -53.4758,12.2055 -61.7698,16.2236 -90.6305,43.8978 -48.9518,46.9288 -51.6894,112.5083 -7.0991,169.5521 22.2371,28.4524 23.0143,29.184 66.4445,63.1873 60.1922,47.1262 64.6697,50.436 72.5577,53.6528 4.0947,1.6607 11.6348,6.8867 16.7619,11.6132 20.6712,19.0572 109.5035,75.9501 118.6096,75.9501 8.2126,0 47.8266,-23.6909 55.3549,-33.0975 1.276,-1.6026 8.7,-6.8286 16.5068,-11.6132 85.6772,-52.6076 215.0515,-163.3391 215.6431,-184.5564 0.116,-2.9381 3.2132,-9.3835 6.9599,-14.3422 8.932,-11.8455 8.816,-56.6723 -0.174,-73.9759 -3.8279,-7.3163 -6.9367,-15.7358 -6.9367,-18.6972 0,-9.1512 -48.6154,-55.8593 -67.7669,-65.1382 -9.9412,-4.8079 -22.0631,-10.7538 -26.9467,-13.2158 -17.6088,-8.8725 -61.8859,-9.9177 -74.3325,-1.742 -6.38,4.1807 -15.5789,7.5834 -20.4623,7.5834 -4.8836,0 -11.484,3.1356 -14.6508,6.9679 -3.1784,3.8323 -8.352,6.9679 -11.4955,6.9679 -7.5052,0 -43.3839,35.2343 -58.1158,57.0671 -14.5811,21.6353 -14.3839,21.6585 -35.6351,-4.715 -38.1638,-47.3468 -66.6533,-64.3833 -129.0726,-77.1462 -5.104,-1.0452 -16.588,-0.2323 -25.5199,1.8 m 385.2227,26.06 c 71.7806,35.8498 99.0637,122.9253 54.5082,173.8607 -7.6327,8.7214 -16.2515,19.0456 -19.163,22.9476 -4.3036,5.7833 -39.3587,35.9427 -60.807,52.3057 -36.3542,27.7554 -100.9428,72.9887 -104.2024,72.9887 a 6.7279727,6.7356354 0 0 0 -5.7767,3.9833 c -8.816,22.6573 -84.0185,55.0696 -94.4934,40.7274 -3.0274,-4.1459 -6.8438,-7.5486 -8.4678,-7.5486 -2.8304,0 -46.3418,-30.6123 -74.3789,-52.3289 -7.366,-5.7137 -15.718,-11.2067 -18.5599,-12.217 -6.9136,-2.462 -41.8759,-29.6833 -43.8247,-34.1311 -0.8584,-1.9394 -3.6889,-3.5188 -6.2987,-3.5188 -11.2172,0 -96.5581,-76.9605 -96.5581,-87.0756 0,-2.6593 -3.1319,-6.0388 -6.96,-7.5136 -3.8279,-1.4633 -6.9599,-5.5511 -6.9599,-9.0583 0,-3.5304 -3.3757,-13.181 -7.4936,-21.4495 -29.2898,-58.7859 44.5903,-139.6832 127.5995,-139.6832 62.8254,0 94.0988,17.7914 137.1811,78.0405 21.1003,29.5207 26.6798,29.358 47.6526,-1.3936 50.6454,-74.2081 123.0059,-100.8952 186.9912,-68.9357 m 499.436,111.8928 c -2.8536,4.5988 14.9987,21.8328 18.7339,18.0701 1.2759,-1.2774 -1.8212,-6.8285 -6.9136,-12.2983 -5.0808,-5.4582 -10.4052,-8.0712 -11.8319,-5.7718 M 951.18009,3330.3698 c -3.73517,4.5059 -4.90678,46.0113 -4.03677,142.8419 l 1.22959,136.4663 89.43569,1.2774 c 56.4105,0.7781 92.8228,-0.569 98.5996,-3.6581 11.2055,-6.004 14.5811,-266.7312 3.5959,-277.7288 -8.5259,-8.5357 -181.67843,-7.8157 -188.8124,0.7897 m 174.6605,11.9615 c 15.6831,13.0881 16.5067,242.8776 0.9048,251.2392 -9.4192,5.0401 -163.32735,4.9124 -168.35013,-0.1393 -1.276,-1.2775 -2.89999,-56.3471 -3.63078,-122.3797 l -1.3224,-120.0452 11.36795,-8.7447 c 17.05193,-13.1228 145.30096,-13.0764 161.03056,0.1162 m 2773.6184,26.9774 c 13.6415,32.7142 13.6646,33.051 4.3847,51.8527 -4.9995,10.1267 -47.641,57.7407 -94.7484,105.796 -132.0538,134.7359 -128.2027,133.981 -219.8539,42.748 -74.3906,-74.0687 -59.6005,-68.1228 -160.8101,-64.5692 l -85.8397,3.0194 86.9068,0.8362 86.9185,0.8361 73.9149,74.9746 73.9265,74.9746 22.1906,-2.5084 c 23.9772,-2.706 93.3797,-69.7371 219.6915,-212.1493 17.8524,-20.1373 20.3927,-59.0878 4.8489,-74.6494 -11.4375,-11.4506 -16.0079,-11.9151 -11.5303,-1.1613 m -1701.9103,15.1551 c -5.278,6.155 -8.0041,17.3153 -8.0041,32.7724 v 23.4354 l 82.3598,84.0328 c 127.7502,130.3346 136.1834,138.3593 148.6417,141.4832 15.08,3.7975 37.8391,-8.4196 61.3986,-32.9698 62.2106,-64.8363 91.8136,-97.9454 89.482,-100.0706 -1.4615,-1.3239 -3.5959,0.1974 -4.7327,3.391 -1.1368,3.1936 -5.0344,5.8066 -8.6421,5.8066 -3.6192,0 -6.5771,1.9975 -6.5771,4.4362 0,4.0763 -52.1071,56.5561 -78.4273,78.9695 -16.5995,14.1332 -54.2877,14.1449 -77.0236,0.012 -7.656,-4.7614 -53.499,-48.4037 -101.8708,-96.97 l -87.9741,-88.3529 0.3016,-32.6562 c 0.1624,-17.9656 0,-32.6679 -0.3248,-32.6679 -0.348,0 -4.2108,4.2039 -8.6071,9.3486 m 406.1143,124.0518 a 103.22798,103.34555 0 0 0 25.5199,0 c 7.0296,-1.0684 1.276,-1.9393 -12.7599,-1.9393 -14.036,0 -19.7664,0.8709 -12.76,1.9393 m 118.3195,-0.1161 a 65.667332,65.742124 0 0 0 20.8799,0 c 5.7535,-1.1032 1.0439,-2.0091 -10.4399,-2.0091 -11.484,0 -16.1703,0.9059 -10.44,2.0091 m -66.1197,10.6609 c -1.74,2.8104 4.698,4.6453 16.2399,4.6453 11.5651,0 17.98,-1.8349 16.24,-4.6453 -1.566,-2.5549 -8.874,-4.6453 -16.24,-4.6453 -7.3427,0 -14.6507,2.0904 -16.2399,4.6453 m 97.6716,-0.3484 c 2.436,2.3459 13.804,4.6453 25.2879,5.0634 29.4059,1.1148 33.1759,-0.511 11.5999,-4.9821 -25.6938,-5.3188 -42.2934,-5.3653 -36.8878,-0.1161 m 556.5657,0.36 c -13.0499,3.333 -12.6903,3.5768 5.8,4.0994 10.8576,0.302 19.7198,-1.5445 19.7198,-4.0994 0,-5.1911 -5.1386,-5.1911 -25.5198,0 m -496.9187,13.2157 c 1.8327,2.9498 11.3099,5.3653 21.0771,5.3653 9.767,0 23.7334,3.1356 31.0415,6.9447 7.3078,3.8091 21.1119,6.9447 30.6934,6.9679 9.57,0 17.4,1.951 17.4,4.2969 0,2.3575 6.2639,5.6556 13.9199,7.3395 7.656,1.6839 13.9199,4.9937 13.9199,7.3395 0,2.3459 3.7816,4.2737 8.3984,4.2737 4.6052,0 12.4352,3.0658 17.3999,6.8169 10.3936,7.8737 71.6412,9.9873 71.6412,2.4736 0,-2.7175 -12.8759,-4.2969 -31.0297,-3.7859 -20.4623,0.5574 -31.6679,-1.0219 -32.8743,-4.6453 -1.0092,-3.0194 -6.6236,-5.5046 -12.47,-5.5046 -5.8579,0 -13.2471,-3.1355 -16.4255,-6.9679 -3.1784,-3.8323 -10.4863,-6.9679 -16.2399,-6.9679 -5.7536,0 -13.0616,-3.1355 -16.2399,-6.9679 -3.2132,-3.8788 -13.34,-6.9679 -22.852,-6.9679 -9.3727,0 -19.2559,-2.2065 -21.9587,-4.9124 -7.1919,-7.2001 -59.6701,-12.0312 -55.4013,-5.0982 m 433.1306,-0.72 c -4.466,1.1614 -8.12,4.0647 -8.12,6.4221 0,2.3691 -6.2639,4.3085 -13.9199,4.3085 -7.656,0 -13.9199,2.0904 -13.9199,4.6453 0,6.5963 9.4539,5.702 24.8934,-2.3459 7.308,-3.8207 20.88,-6.968 30.1599,-7.0143 9.2799,0 19.9983,-2.0904 23.8263,-4.5756 7.2616,-4.7033 -26.1811,-5.8066 -42.9198,-1.4401"
     id="path1"
     style="stroke-width:11.6066" />
</svg>
