<?xml version="1.0" encoding="UTF-8"?>
<!DOCTYPE svg PUBLIC "-//W3C//DTD SVG 1.1//EN" "http://www.w3.org/Graphics/SVG/1.1/DTD/svg11.dtd">
<svg xmlns="http://www.w3.org/2000/svg" version="1.1" width="5441px" height="2921px" style="shape-rendering:geometricPrecision; text-rendering:geometricPrecision; image-rendering:optimizeQuality; fill-rule:evenodd; clip-rule:evenodd" xmlns:xlink="http://www.w3.org/1999/xlink">
<g><path style="opacity:1" fill="#022275" d="M 776.5,-0.5 C 1183.83,-0.5 1591.17,-0.5 1998.5,-0.5C 1998.5,263.5 1998.5,527.5 1998.5,791.5C 2267.5,791.5 2536.5,791.5 2805.5,791.5C 2805.5,1198.83 2805.5,1606.17 2805.5,2013.5C 2536.5,2013.5 2267.5,2013.5 1998.5,2013.5C 1998.5,2277.5 1998.5,2541.5 1998.5,2805.5C 1591.17,2805.5 1183.83,2805.5 776.5,2805.5C 776.5,2541.5 776.5,2277.5 776.5,2013.5C 517.5,2013.5 258.5,2013.5 -0.5,2013.5C -0.5,1606.17 -0.5,1198.83 -0.5,791.5C 258.5,791.5 517.5,791.5 776.5,791.5C 776.5,527.5 776.5,263.5 776.5,-0.5 Z"/></g>
<g><path style="opacity:1" fill="#acb6d1" d="M 3276.5,56.5 C 3275.39,56.5569 3274.39,56.8902 3273.5,57.5C 3274.05,55.4482 3275.05,55.1148 3276.5,56.5 Z"/></g>
<g><path style="opacity:1" fill="#032275" d="M 5440.5,841.5 C 5440.5,886.5 5440.5,931.5 5440.5,976.5C 5432.73,1261.57 5361.23,1529.57 5226,1780.5C 5137.45,1944.68 5040.11,2103.02 4934,2255.5C 4816.46,2422.78 4683.63,2577.95 4535.5,2721C 4460.29,2792.03 4381.62,2858.53 4299.5,2920.5C 4298.5,2920.5 4297.5,2920.5 4296.5,2920.5C 4296.5,2920.17 4296.5,2919.83 4296.5,2919.5C 4296.03,2918.09 4295.03,2917.43 4293.5,2917.5C 4263.51,2890.17 4233.84,2862.51 4204.5,2834.5C 4204.03,2833.09 4203.03,2832.43 4201.5,2832.5C 4185.84,2818.17 4170.5,2803.5 4155.5,2788.5C 4155.03,2787.09 4154.03,2786.43 4152.5,2786.5C 4138.53,2774.2 4125.2,2761.2 4112.5,2747.5C 4112.03,2746.09 4111.03,2745.43 4109.5,2745.5C 4000.78,2642.3 3897.62,2534.3 3800,2421.5C 3684.83,2287.5 3582.16,2144.5 3492,1992.5C 3475.65,1964.46 3459.81,1936.13 3444.5,1907.5C 3444.71,1905.82 3444.05,1904.82 3442.5,1904.5C 3440.82,1901.14 3439.15,1897.81 3437.5,1894.5C 3437.71,1892.82 3437.05,1891.82 3435.5,1891.5C 3428.9,1879.3 3422.56,1866.96 3416.5,1854.5C 3416.71,1852.82 3416.05,1851.82 3414.5,1851.5C 3186.8,1411.15 3111.3,945.821 3188,455.5C 3208.64,321.117 3237.14,188.451 3273.5,57.5C 3274.39,56.8902 3275.39,56.5569 3276.5,56.5C 3451.22,122.933 3630.89,171.433 3815.5,202C 3966.36,226.669 4118.02,244.503 4270.5,255.5C 4584.59,248.275 4891.59,198.108 5191.5,105C 5240.75,89.0336 5289.75,72.5336 5338.5,55.5C 5356.21,160.452 5373.71,265.452 5391,370.5C 5417.15,526.653 5433.65,683.653 5440.5,841.5 Z"/></g>
<g><path style="opacity:1" fill="#fefefe" d="M 5090.5,326.5 C 5118.7,321.679 5138.2,332.346 5149,358.5C 5178.69,472.292 5203.03,587.292 5222,703.5C 5235.42,790.715 5244.42,878.382 5249,966.5C 5256.01,1127.11 5238.01,1284.77 5195,1439.5C 5172.4,1516.64 5149.4,1593.64 5126,1670.5C 5022.08,1865.13 4901.74,2048.46 4765,2220.5C 4646.98,2366.85 4514.15,2498.02 4366.5,2614C 4335.93,2636.2 4304.6,2637.2 4272.5,2617C 4268.83,2614.67 4265.17,2612.33 4261.5,2610C 4150.85,2512.02 4045.35,2408.52 3945,2299.5C 3832.85,2177.05 3734.19,2044.71 3649,1902.5C 3579.68,1783.91 3522.68,1659.57 3478,1529.5C 3436.79,1418.01 3408.13,1303.34 3392,1185.5C 3372.26,1025.4 3377.26,866.067 3407,707.5C 3428.85,593.961 3456.85,481.961 3491,371.5C 3495.7,356.485 3504.53,344.651 3517.5,336C 3520.95,334.073 3524.61,332.739 3528.5,332C 3537.54,331.283 3546.54,331.616 3555.5,333C 3693.04,375.178 3832.38,410.511 3973.5,439C 4087.63,461.329 4202.8,475.162 4319,480.5C 4583.35,463.797 4840.51,412.464 5090.5,326.5 Z"/></g>
<g><path style="opacity:1" fill="#022275" d="M 3578.5,441.5 C 3588.8,447.324 3599.8,451.491 3611.5,454C 3765.29,499.447 3921.29,535.114 4079.5,561C 4160.68,573.855 4242.34,581.688 4324.5,584.5C 4454.6,577.39 4583.94,563.223 4712.5,542C 4819.01,523.622 4923.35,496.955 5025.5,462C 5035.5,457.333 5045.5,452.667 5055.5,448C 5062.07,446.038 5066.57,448.205 5069,454.5C 5098.36,604.019 5120.02,754.685 5134,906.5C 5140.63,999.738 5142.29,1093.07 5139,1186.5C 5137.6,1220.98 5134.6,1255.31 5130,1289.5C 5120.65,1338.57 5108.32,1386.9 5093,1434.5C 5070.27,1501.35 5047.94,1568.35 5026,1635.5C 4891.74,1888.34 4725.41,2118.01 4527,2324.5C 4489.47,2362.36 4451.64,2399.86 4413.5,2437C 4390.17,2458.33 4366.83,2479.67 4343.5,2501C 4337.17,2506 4330.83,2511 4324.5,2516C 4321.83,2516.67 4319.17,2516.67 4316.5,2516C 4301.39,2507.55 4287.39,2497.55 4274.5,2486C 4260.17,2471.67 4245.83,2457.33 4231.5,2443C 4224.45,2436.95 4217.12,2431.28 4209.5,2426C 4079.53,2307.74 3963.03,2178.24 3860,2037.5C 3751.08,1886.36 3663.41,1723.03 3597,1547.5C 3564.52,1466.39 3537.85,1383.39 3517,1298.5C 3495.61,1202.05 3485.78,1104.38 3487.5,1005.5C 3489.2,843.738 3512.04,685.071 3556,529.5C 3563.08,504.774 3570.41,480.107 3578,455.5C 3578.5,450.845 3578.67,446.179 3578.5,441.5 Z"/></g>
<g><path style="opacity:1" fill="#fefefe" d="M 1363.5,567.5 C 1589.33,561.842 1785.66,634.009 1952.5,784C 2112.45,936.099 2198.95,1122.93 2212,1344.5C 2218.55,1540.76 2163.21,1717.09 2046,1873.5C 1899.19,2059.86 1707.02,2165.36 1469.5,2190C 1250.74,2205.95 1056.07,2145.95 885.5,2010C 715.313,1867.52 617.146,1685.36 591,1463.5C 570.119,1217.46 642.452,1003.8 808,822.5C 935.405,689.366 1090.57,607.533 1273.5,577C 1303.55,572.829 1333.55,569.663 1363.5,567.5 Z"/></g>
<g><path style="opacity:1" fill="#0c0c10" d="M 1411.5,694.5 C 1444.61,694.486 1477.61,696.319 1510.5,700C 1546.29,727.371 1557.12,762.538 1543,805.5C 1527.83,829.004 1511.5,851.671 1494,873.5C 1482.34,889.151 1473.01,906.151 1466,924.5C 1461,940.137 1459,956.137 1460,972.5C 1462.72,989.893 1472.22,1002.06 1488.5,1009C 1494.07,1011.29 1499.74,1013.29 1505.5,1015C 1666.17,1015.44 1826.83,1016.1 1987.5,1017C 2005.57,1052.3 2023.23,1087.8 2040.5,1123.5C 1916.55,1131.22 1792.55,1138.39 1668.5,1145C 1636.7,1151.15 1607.37,1163.15 1580.5,1181C 1544.38,1209.33 1531.22,1246.17 1541,1291.5C 1543.96,1307.02 1548.63,1322.02 1555,1336.5C 1660.63,1518.27 1766.13,1700.1 1871.5,1882C 1843.35,1904.14 1815.19,1926.31 1787,1948.5C 1676.33,1790.5 1565.67,1632.5 1455,1474.5C 1437.9,1454.27 1416.74,1447.77 1391.5,1455C 1384.43,1458.74 1378.59,1463.9 1374,1470.5C 1370.67,1476.5 1367.33,1482.5 1364,1488.5C 1255.67,1646.17 1147.33,1803.83 1039,1961.5C 1008.59,1938.38 978.09,1915.38 947.5,1892.5C 1051.08,1717 1154.91,1541.67 1259,1366.5C 1276.8,1332.27 1286.97,1295.94 1289.5,1257.5C 1288.49,1217.31 1270.49,1187.47 1235.5,1168C 1200.71,1150.05 1163.71,1141.39 1124.5,1142C 1006.13,1138.05 887.801,1133.38 769.5,1128C 785.893,1091.21 802.559,1054.55 819.5,1018C 989.501,1017.72 1159.5,1017.72 1329.5,1018C 1350.94,1005.19 1363.77,986.36 1368,961.5C 1368.67,952.5 1368.67,943.5 1368,934.5C 1356.39,909.27 1343.72,884.603 1330,860.5C 1325.7,855.199 1321.03,850.199 1316,845.5C 1309.19,834.912 1301.19,825.245 1292,816.5C 1275.8,795.228 1273.13,772.228 1284,747.5C 1292.5,731.168 1302,715.501 1312.5,700.5C 1319.81,699.447 1327.14,698.613 1334.5,698C 1360.32,696.581 1385.98,695.414 1411.5,694.5 Z"/></g>
<g><path style="opacity:1" fill="#012174" d="M 1374.5,698.5 C 1401.84,698.333 1429.17,698.5 1456.5,699C 1474.23,699.473 1491.9,700.806 1509.5,703C 1542.07,728.711 1552.57,761.544 1541,801.5C 1527.39,824.395 1512.05,846.062 1495,866.5C 1484.16,880.834 1474.83,896.167 1467,912.5C 1457.78,935.155 1455.11,958.489 1459,982.5C 1462.9,994.398 1470.4,1003.23 1481.5,1009C 1488.85,1012.78 1496.52,1015.78 1504.5,1018C 1664.83,1018.43 1825.17,1019.1 1985.5,1020C 2002.02,1053.55 2018.69,1087.05 2035.5,1120.5C 1912.53,1128.11 1789.53,1135.28 1666.5,1142C 1635.72,1148.73 1607.05,1160.4 1580.5,1177C 1544.09,1204.19 1529.59,1240.35 1537,1285.5C 1539.55,1304.35 1544.88,1322.35 1553,1339.5C 1658.09,1520 1762.92,1700.67 1867.5,1881.5C 1841.14,1902.36 1814.64,1923.02 1788,1943.5C 1678.67,1787.5 1569.33,1631.5 1460,1475.5C 1443.64,1454.05 1422.14,1445.55 1395.5,1450C 1385.95,1453.56 1378.11,1459.39 1372,1467.5C 1368.25,1474.66 1364.25,1481.66 1360,1488.5C 1252.67,1644.5 1145.33,1800.5 1038,1956.5C 1010.43,1935.3 982.602,1914.47 954.5,1894C 953.426,1893.26 952.759,1892.26 952.5,1891C 1055.95,1715.27 1159.78,1539.77 1264,1364.5C 1276.07,1339.3 1284.73,1312.97 1290,1285.5C 1300.29,1222.84 1276.12,1179.67 1217.5,1156C 1196.24,1147.61 1174.24,1142.28 1151.5,1140C 1025.8,1135.49 900.131,1130.49 774.5,1125C 789.973,1090.25 805.639,1055.58 821.5,1021C 991.165,1021.52 1160.83,1021.52 1330.5,1021C 1347.66,1012.18 1359.49,998.676 1366,980.5C 1371.7,965.232 1373.37,949.566 1371,933.5C 1360.31,909.117 1348.31,885.45 1335,862.5C 1330.12,854.617 1324.12,847.617 1317,841.5C 1310.67,830.543 1302.67,820.876 1293,812.5C 1280.28,795.485 1277.28,776.818 1284,756.5C 1292.08,737.167 1302.58,719.334 1315.5,703C 1335.32,701.425 1354.98,699.925 1374.5,698.5 Z"/></g>
<g><path style="opacity:1" fill="#032275" d="M 1190.5,726.5 C 1191.5,726.5 1192.5,726.5 1193.5,726.5C 1187.92,756.024 1187.08,785.691 1191,815.5C 1192.26,821.941 1193.92,828.275 1196,834.5C 1214.39,867.954 1236.22,898.954 1261.5,927.5C 1134.53,932.499 1007.53,936.832 880.5,940.5C 891.166,929.003 902.5,917.836 914.5,907C 926.137,894.362 938.137,882.029 950.5,870C 971.5,853 992.5,836 1013.5,819C 1049.51,796.325 1086.17,774.659 1123.5,754C 1145.12,742.747 1167.45,733.58 1190.5,726.5 Z"/></g>
<g><path style="opacity:1" fill="#0d0d10" d="M 1626.5,728.5 C 1682.82,755.494 1738.82,783.327 1794.5,812C 1840.82,853.001 1886.32,894.501 1931,936.5C 1914.57,937.658 1898.07,937.824 1881.5,937C 1775.8,934.893 1670.14,932.227 1564.5,929C 1571.79,916.911 1579.46,905.078 1587.5,893.5C 1595.81,888.356 1602.64,881.69 1608,873.5C 1617.66,852.535 1627.33,831.535 1637,810.5C 1641.54,782.113 1638.04,754.779 1626.5,728.5 Z"/></g>
<g><path style="opacity:1" fill="#012174" d="M 1632.5,734.5 C 1685.76,760.462 1738.76,786.962 1791.5,814C 1836.1,853.261 1880.1,893.261 1923.5,934C 1810.16,932.126 1696.83,929.793 1583.5,927C 1579.13,926.828 1574.8,926.328 1570.5,925.5C 1576.67,915.833 1582.83,906.167 1589,896.5C 1602.26,887.899 1611.93,876.233 1618,861.5C 1624.75,844.253 1632.08,827.253 1640,810.5C 1642.45,798.287 1643.12,785.954 1642,773.5C 1639.65,760.263 1636.49,747.263 1632.5,734.5 Z"/></g>
<g><path style="opacity:1" fill="#0f0f11" d="M 4249.5,657.5 C 4321.97,658.831 4383.47,685.164 4434,736.5C 4437.07,762.064 4435.9,787.397 4430.5,812.5C 4430.49,821.623 4432.99,829.957 4438,837.5C 4445.38,842.439 4451.21,840.939 4455.5,833C 4493.5,806 4531.5,779 4569.5,752C 4590.44,749.579 4610.78,751.912 4630.5,759C 4650.22,768.73 4661.38,784.563 4664,806.5C 4664.67,814.5 4664.67,822.5 4664,830.5C 4583.45,905.183 4502.62,979.516 4421.5,1053.5C 4420.5,1061.14 4420.17,1068.8 4420.5,1076.5C 4475.62,1083.46 4524.28,1104.63 4566.5,1140C 4589.24,1161.73 4607.74,1186.56 4622,1214.5C 4640.96,1261.03 4641.29,1307.69 4623,1354.5C 4605.77,1390.07 4579.93,1417.57 4545.5,1437C 4527.97,1446.6 4509.64,1454.26 4490.5,1460C 4464.16,1460.27 4437.82,1460.77 4411.5,1461.5C 4411.48,1483.51 4411.14,1505.51 4410.5,1527.5C 4449.34,1530.54 4486.01,1541.04 4520.5,1559C 4537.05,1568.21 4551.88,1579.71 4565,1593.5C 4596.18,1662.9 4585.85,1725.23 4534,1780.5C 4515.61,1800.88 4493.44,1815.72 4467.5,1825C 4446.76,1832.68 4425.43,1837.85 4403.5,1840.5C 4402.98,1861.85 4402.98,1883.18 4403.5,1904.5C 4437.27,1921.29 4467.77,1942.62 4495,1968.5C 4508.93,1984.36 4519.27,2002.36 4526,2022.5C 4529.66,2035.62 4529.32,2048.62 4525,2061.5C 4516.69,2085.14 4503.52,2105.64 4485.5,2123C 4424.01,2157.24 4363.01,2192.24 4302.5,2228C 4301.26,2228.46 4300.42,2227.96 4300,2226.5C 4291.42,2230.87 4282.92,2235.37 4274.5,2240C 4269.29,2245.95 4266.63,2252.95 4266.5,2261C 4267.6,2269.9 4269.1,2278.74 4271,2287.5C 4272.26,2297.2 4270.93,2306.53 4267,2315.5C 4260.04,2325.49 4250.54,2328.99 4238.5,2326C 4227.99,2322.41 4217.99,2317.74 4208.5,2312C 4199.73,2303.96 4193.89,2294.12 4191,2282.5C 4183.56,2244.4 4191.89,2210.4 4216,2180.5C 4238.97,2157.37 4264.3,2137.37 4292,2120.5C 4291.15,2083.14 4289.48,2045.81 4287,2008.5C 4286.75,2006.57 4286.25,2004.73 4285.5,2003C 4245.63,1987.23 4207.96,1967.57 4172.5,1944C 4156.72,1933.19 4143.22,1920.02 4132,1904.5C 4106.1,1862.66 4109.1,1822.99 4141,1785.5C 4171.55,1753.63 4208.38,1732.13 4251.5,1721C 4257.78,1719.77 4264.11,1718.94 4270.5,1718.5C 4269.44,1690.81 4267.94,1663.15 4266,1635.5C 4237.12,1629.49 4208.62,1621.99 4180.5,1613C 4146.43,1602.14 4115.43,1585.8 4087.5,1564C 4050.61,1532.84 4044.11,1496.34 4068,1454.5C 4084.69,1430.14 4104.52,1408.64 4127.5,1390C 4141.01,1381.08 4155.01,1372.91 4169.5,1365.5C 4175.33,1339.51 4181.16,1313.51 4187,1287.5C 4205.14,1274.85 4222.97,1261.85 4240.5,1248.5C 4238.92,1247.7 4237.26,1247.2 4235.5,1247C 4213.5,1246.48 4191.5,1245.81 4169.5,1245C 4130.21,1234.09 4091.21,1222.09 4052.5,1209C 4007.83,1193.68 3967.83,1170.68 3932.5,1140C 3907.71,1115.93 3888.21,1088.1 3874,1056.5C 3837.58,1000.61 3829.91,940.945 3851,877.5C 3867.9,832.873 3897.07,798.706 3938.5,775C 3950.53,768.984 3962.53,762.984 3974.5,757C 3991.42,751.29 4008.76,747.29 4026.5,745C 4087.83,736.369 4149.16,736.536 4210.5,745.5C 4211.5,745.167 4212.5,744.833 4213.5,744.5C 4215.01,736.095 4215.68,727.595 4215.5,719C 4214.95,703.146 4214.45,687.312 4214,671.5C 4225.04,664.548 4236.87,659.882 4249.5,657.5 Z"/></g>
<g><path style="opacity:1" fill="#fefefe" d="M 4249.5,659.5 C 4321.27,660.479 4382.1,686.479 4432,737.5C 4436.18,762.597 4435.01,787.43 4428.5,812C 4429.11,820.617 4431.27,828.784 4435,836.5C 4439.49,842.665 4444.99,843.832 4451.5,840C 4453.82,837.709 4456.16,835.376 4458.5,833C 4495.5,806.667 4532.5,780.333 4569.5,754C 4589.73,750.661 4609.4,752.661 4628.5,760C 4648.05,768.901 4659.22,784.068 4662,805.5C 4662.67,813.833 4662.67,822.167 4662,830.5C 4581,904.833 4500,979.167 4419,1053.5C 4418.5,1061.16 4418.33,1068.83 4418.5,1076.5C 4357.31,1072.39 4296.31,1066.39 4235.5,1058.5C 4234.01,1019.51 4232.67,980.506 4231.5,941.5C 4240.25,940.918 4248.58,938.751 4256.5,935C 4260.2,931.604 4261.37,927.437 4260,922.5C 4256.92,917.412 4253.08,912.912 4248.5,909C 4240.53,904.347 4232.53,899.68 4224.5,895C 4227.78,892.126 4231.61,890.959 4236,891.5C 4261.8,894.391 4287.63,896.558 4313.5,898C 4316.52,892.767 4318.85,887.267 4320.5,881.5C 4303.86,877.341 4287.2,873.175 4270.5,869C 4288.48,867.834 4306.48,867.334 4324.5,867.5C 4324.14,853.831 4323.64,840.164 4323,826.5C 4315.65,807.822 4303.82,792.655 4287.5,781C 4266.13,765.314 4242.8,753.314 4217.5,745C 4216.57,744.612 4215.91,743.945 4215.5,743C 4216.56,719.516 4216.72,696.016 4216,672.5C 4226.35,665.73 4237.52,661.397 4249.5,659.5 Z"/></g>
<g><path style="opacity:1" fill="#fefefe" d="M 4079.5,741.5 C 4126.11,739.972 4172.44,742.805 4218.5,750C 4246.02,755.835 4268.52,769.669 4286,791.5C 4291.33,798.833 4296.67,806.167 4302,813.5C 4304.6,827.373 4306.44,841.373 4307.5,855.5C 4248.81,855.782 4190.15,856.782 4131.5,858.5C 4131.33,859.822 4131.66,860.989 4132.5,862C 4168.17,877.167 4203.83,892.333 4239.5,907.5C 4243.79,920.861 4239.46,929.694 4226.5,934C 4196.27,935.979 4166.27,933.979 4136.5,928C 4111.29,922.992 4086.29,917.158 4061.5,910.5C 4037.36,916.427 4026.86,931.761 4030,956.5C 4031.18,966.367 4034.51,975.367 4040,983.5C 4056.62,1001.07 4076.12,1014.57 4098.5,1024C 4133.89,1039.24 4170.56,1050.24 4208.5,1057C 4231.08,1060.89 4253.75,1064.23 4276.5,1067C 4325.78,1072 4375.11,1076.33 4424.5,1080C 4466.29,1086.81 4504.95,1101.48 4540.5,1124C 4569.22,1144.39 4592.72,1169.55 4611,1199.5C 4639.81,1254.38 4640.81,1309.71 4614,1365.5C 4591.14,1403.54 4558.98,1430.7 4517.5,1447C 4508.16,1450.34 4498.82,1453.67 4489.5,1457C 4419.22,1456.32 4349.22,1460.32 4279.5,1469C 4272.83,1473 4266.17,1477 4259.5,1481C 4252.63,1487.13 4251.8,1493.97 4257,1501.5C 4261.24,1505.04 4265.74,1508.2 4270.5,1511C 4304.27,1516.13 4337.93,1521.79 4371.5,1528C 4412.73,1528.09 4452.73,1535.09 4491.5,1549C 4518.08,1559.53 4541.58,1574.7 4562,1594.5C 4592.6,1661.22 4583.27,1721.55 4534,1775.5C 4514.63,1797.44 4491.13,1813.27 4463.5,1823C 4411.6,1840 4358.6,1844.5 4304.5,1836.5C 4296.82,1838.78 4289.65,1842.11 4283,1846.5C 4281.7,1848.36 4281.37,1850.36 4282,1852.5C 4284.08,1856.58 4286.91,1860.08 4290.5,1863C 4344.65,1878.92 4395.65,1901.59 4443.5,1931C 4459.82,1942.08 4475.32,1954.25 4490,1967.5C 4500.9,1980.41 4510.24,1994.41 4518,2009.5C 4528.55,2036 4526.22,2061.33 4511,2085.5C 4502.97,2097.86 4493.81,2109.36 4483.5,2120C 4413.06,2160.97 4341.89,2200.81 4270,2239.5C 4265.69,2245.63 4263.52,2252.46 4263.5,2260C 4264.68,2271.59 4266.35,2283.09 4268.5,2294.5C 4266.99,2321.76 4253.66,2329.93 4228.5,2319C 4210.8,2312.64 4199.3,2300.47 4194,2282.5C 4186.01,2241.75 4196.01,2206.42 4224,2176.5C 4243.65,2158.43 4264.48,2141.93 4286.5,2127C 4325.96,2107.85 4365.13,2088.35 4404,2068.5C 4407.48,2063.57 4407.15,2058.9 4403,2054.5C 4399.59,2051.55 4396.09,2048.71 4392.5,2046C 4354.33,2028.17 4315.66,2011.5 4276.5,1996C 4246.68,1983.42 4218.01,1968.76 4190.5,1952C 4169.57,1939.41 4151.4,1923.57 4136,1904.5C 4110.8,1867.38 4111.46,1830.71 4138,1794.5C 4171.93,1755.64 4214.43,1731.47 4265.5,1722C 4323.22,1717.79 4380.88,1713.12 4438.5,1708C 4444.98,1706.23 4446.81,1702.39 4444,1696.5C 4434.01,1686.09 4422.18,1678.59 4408.5,1674C 4378.49,1663.66 4348.49,1653.33 4318.5,1643C 4275.46,1634.57 4232.79,1624.57 4190.5,1613C 4154.26,1602.38 4121.26,1585.72 4091.5,1563C 4078.07,1552.27 4067.9,1539.1 4061,1523.5C 4054.46,1504.79 4055.46,1486.45 4064,1468.5C 4071.78,1454.06 4081.11,1440.73 4092,1428.5C 4103.2,1416.97 4114.7,1405.8 4126.5,1395C 4147.66,1380.08 4170.33,1367.75 4194.5,1358C 4272.96,1338.47 4351.29,1318.47 4429.5,1298C 4439.11,1294.96 4447.27,1289.79 4454,1282.5C 4455.4,1278.93 4455.74,1275.26 4455,1271.5C 4452.87,1268.37 4450.37,1265.54 4447.5,1263C 4435.4,1254.95 4422.74,1247.95 4409.5,1242C 4403.19,1240.56 4396.85,1239.23 4390.5,1238C 4352.98,1236.29 4315.65,1237.96 4278.5,1243C 4268.85,1243.79 4259.18,1244.29 4249.5,1244.5C 4223.5,1243.56 4197.5,1242.72 4171.5,1242C 4129.03,1230.55 4087.03,1217.55 4045.5,1203C 3997.64,1186.17 3956.14,1159.67 3921,1123.5C 3902.51,1102.55 3887.51,1079.21 3876,1053.5C 3838.38,994.995 3832.38,933.328 3858,868.5C 3874.65,831.524 3900.15,802.358 3934.5,781C 3951.53,771.318 3969.2,762.984 3987.5,756C 4017.96,749.055 4048.63,744.221 4079.5,741.5 Z"/></g>
<g><path style="opacity:1" fill="#012172" d="M 4275.5,776.5 C 4292.76,785.584 4306.6,798.917 4317,816.5C 4319.47,821.232 4321.13,826.232 4322,831.5C 4322.5,842.828 4322.67,854.162 4322.5,865.5C 4302.4,865.465 4282.4,866.298 4262.5,868C 4281.03,873.452 4299.7,878.619 4318.5,883.5C 4316.59,887.727 4314.59,891.894 4312.5,896C 4286.13,894.63 4259.79,892.463 4233.5,889.5C 4228.72,890.752 4224.22,892.752 4220,895.5C 4193.83,884.333 4167.67,873.167 4141.5,862C 4197.52,860.295 4253.52,858.795 4309.5,857.5C 4309.83,855.833 4310.17,854.167 4310.5,852.5C 4309.23,839.793 4307.73,827.127 4306,814.5C 4297.98,800.119 4287.81,787.453 4275.5,776.5 Z"/></g>
<g><path style="opacity:1" fill="#052376" d="M 4195.5,781.5 C 4207.52,780.174 4218.86,782.341 4229.5,788C 4237.1,793.85 4237.44,800.183 4230.5,807C 4218.22,813.179 4205.22,815.179 4191.5,813C 4182.77,812.391 4175.94,808.558 4171,801.5C 4169.25,793.842 4172.08,788.676 4179.5,786C 4184.7,783.536 4190.04,782.036 4195.5,781.5 Z"/></g>
<g><path style="opacity:1" fill="#aab4d0" d="M 775.5,-0.5 C 775.833,-0.5 776.167,-0.5 776.5,-0.5C 776.5,263.5 776.5,527.5 776.5,791.5C 517.5,791.5 258.5,791.5 -0.5,791.5C -0.5,791.167 -0.5,790.833 -0.5,790.5C 258.167,790.5 516.833,790.5 775.5,790.5C 775.5,526.833 775.5,263.167 775.5,-0.5 Z"/></g>
<g><path style="opacity:1" fill="#acb6d1" d="M 1998.5,-0.5 C 1998.83,-0.5 1999.17,-0.5 1999.5,-0.5C 1999.5,263.167 1999.5,526.833 1999.5,790.5C 2268.5,790.5 2537.5,790.5 2806.5,790.5C 2806.5,1198.17 2806.5,1605.83 2806.5,2013.5C 2806.17,2013.5 2805.83,2013.5 2805.5,2013.5C 2805.5,1606.17 2805.5,1198.83 2805.5,791.5C 2536.5,791.5 2267.5,791.5 1998.5,791.5C 1998.5,527.5 1998.5,263.5 1998.5,-0.5 Z"/></g>
<g><path style="opacity:1" fill="#012174" d="M 4243.5,908.5 C 4251.46,912.241 4256.46,918.408 4258.5,927C 4257.67,931.503 4255,934.503 4250.5,936C 4243.95,938.036 4237.28,939.536 4230.5,940.5C 4230.17,942.833 4229.83,945.167 4229.5,947.5C 4231.25,984.153 4232.59,1020.82 4233.5,1057.5C 4179.43,1050.98 4128.1,1035.48 4079.5,1011C 4065.11,1002.53 4052.27,992.033 4041,979.5C 4032.83,964.967 4030.83,949.633 4035,933.5C 4041.37,921.064 4051.54,914.897 4065.5,915C 4106.18,926.17 4147.51,933.837 4189.5,938C 4200.83,938.667 4212.17,938.667 4223.5,938C 4240.21,935.1 4246.88,925.266 4243.5,908.5 Z"/></g>
<g><path style="opacity:1" fill="#0b0b0f" d="M 739.5,1207.5 C 876.531,1215.43 1013.53,1223.93 1150.5,1233C 1162.47,1236.48 1174.14,1240.82 1185.5,1246C 1201.67,1253.82 1206.5,1265.99 1200,1282.5C 1093.65,1461.87 988.312,1641.87 884,1822.5C 882.056,1821.56 880.389,1820.23 879,1818.5C 821.93,1742.72 777.597,1659.72 746,1569.5C 723.619,1499.24 714.619,1427.24 719,1353.5C 721.778,1304.22 728.612,1255.55 739.5,1207.5 Z"/></g>
<g><path style="opacity:1" fill="#012174" d="M 742.5,1211.5 C 877.532,1219.1 1012.53,1227.27 1147.5,1236C 1159.64,1238.62 1171.31,1242.62 1182.5,1248C 1190.75,1251.92 1196.59,1258.08 1200,1266.5C 1200.55,1269.9 1200.21,1273.23 1199,1276.5C 1132,1390.5 1065,1504.5 998,1618.5C 959.328,1684.51 921.161,1750.84 883.5,1817.5C 866.205,1796.26 850.371,1773.92 836,1750.5C 802.49,1696.81 774.823,1640.14 753,1580.5C 728.27,1508.88 717.937,1435.22 722,1359.5C 724.027,1309.48 730.861,1260.14 742.5,1211.5 Z"/></g>
<g><path style="opacity:1" fill="#5c5c5c" d="M 2060.5,1218.5 C 2061.96,1217.84 2063.63,1217.51 2065.5,1217.5C 2067.64,1217.56 2069.31,1218.22 2070.5,1219.5C 2067.27,1218.59 2063.94,1218.25 2060.5,1218.5 Z"/></g>
<g><path style="opacity:1" fill="#0c0d0f" d="M 2060.5,1218.5 C 2063.94,1218.25 2067.27,1218.59 2070.5,1219.5C 2074.75,1259.85 2079.25,1300.18 2084,1340.5C 2089.48,1387.47 2089.82,1434.47 2085,1481.5C 2072.2,1546.9 2051.2,1609.56 2022,1669.5C 1997.03,1720.81 1968.03,1769.48 1935,1815.5C 1834.25,1643 1733.25,1470.67 1632,1298.5C 1625.49,1287.65 1623.16,1275.99 1625,1263.5C 1627.75,1257.75 1631.59,1252.92 1636.5,1249C 1645.77,1243.53 1655.44,1238.87 1665.5,1235C 1797.15,1229.03 1928.81,1223.53 2060.5,1218.5 Z"/></g>
<g><path style="opacity:1" fill="#012174" d="M 2042.5,1221.5 C 2050.83,1221.5 2059.17,1221.5 2067.5,1221.5C 2071.87,1261.84 2076.37,1302.17 2081,1342.5C 2085.41,1381.42 2086.41,1420.42 2084,1459.5C 2078.99,1504.53 2068.32,1548.2 2052,1590.5C 2022.76,1668.67 1983.93,1741.33 1935.5,1808.5C 1834.84,1637.65 1734.34,1466.65 1634,1295.5C 1620.37,1271.04 1626.54,1253.87 1652.5,1244C 1657.42,1241.8 1662.42,1239.8 1667.5,1238C 1792.65,1232.47 1917.65,1226.97 2042.5,1221.5 Z"/></g>
<g><path style="opacity:1" fill="#fdfdfd" d="M 4332.5,1240.5 C 4350.84,1240.33 4369.17,1240.5 4387.5,1241C 4396.55,1241.63 4405.22,1243.79 4413.5,1247.5C 4414.78,1264.85 4414.78,1282.18 4413.5,1299.5C 4339.81,1317.84 4266.14,1336.34 4192.5,1355C 4186.17,1358.17 4179.83,1361.33 4173.5,1364.5C 4173.17,1363.83 4172.83,1363.17 4172.5,1362.5C 4177.38,1337.66 4182.88,1313 4189,1288.5C 4205.24,1276.3 4221.74,1264.47 4238.5,1253C 4240.75,1251.74 4242.08,1249.91 4242.5,1247.5C 4264.36,1247.8 4286.02,1245.97 4307.5,1242C 4316.01,1241.83 4324.34,1241.33 4332.5,1240.5 Z"/></g>
<g><path style="opacity:1" fill="#012172" d="M 4416.5,1249.5 C 4418.31,1249.49 4419.98,1249.99 4421.5,1251C 4428.5,1255.84 4435.84,1260.17 4443.5,1264C 4455.95,1273.22 4455.28,1281.55 4441.5,1289C 4433.33,1293.59 4424.67,1296.75 4415.5,1298.5C 4415.76,1282.16 4416.09,1265.83 4416.5,1249.5 Z"/></g>
<g><path style="opacity:1" fill="#fcfcfc" d="M 4409.5,1516.5 C 4408.52,1519.62 4408.19,1522.96 4408.5,1526.5C 4407.17,1526.5 4405.83,1526.5 4404.5,1526.5C 4394.17,1525.98 4383.84,1525.48 4373.5,1525C 4339.5,1519.33 4305.5,1513.67 4271.5,1508C 4269.33,1506.5 4267.17,1505 4265,1503.5C 4264.33,1496.17 4264.33,1488.83 4265,1481.5C 4272.16,1475.67 4280.32,1472.17 4289.5,1471C 4329.69,1466.02 4370.03,1462.86 4410.5,1461.5C 4409.61,1479.82 4409.28,1498.15 4409.5,1516.5 Z"/></g>
<g><path style="opacity:1" fill="#012070" d="M 4261.5,1483.5 C 4262.65,1489.32 4262.82,1495.32 4262,1501.5C 4254.86,1495.66 4254.69,1489.66 4261.5,1483.5 Z"/></g>
<g><path style="opacity:1" fill="#767676" d="M 4409.5,1516.5 C 4409.5,1520.17 4409.5,1523.83 4409.5,1527.5C 4407.59,1527.78 4405.92,1527.45 4404.5,1526.5C 4405.83,1526.5 4407.17,1526.5 4408.5,1526.5C 4408.19,1522.96 4408.52,1519.62 4409.5,1516.5 Z"/></g>
<g><path style="opacity:1" fill="#0d0d10" d="M 1412.5,1568.5 C 1416.44,1572.33 1419.94,1576.66 1423,1581.5C 1516.5,1719.83 1610,1858.17 1703.5,1996.5C 1507.05,2089.45 1310.38,2089.78 1113.5,1997.5C 1113.17,1997.17 1112.83,1996.83 1112.5,1996.5C 1212.94,1854.07 1312.94,1711.41 1412.5,1568.5 Z"/></g>
<g><path style="opacity:1" fill="#012174" d="M 1412.5,1574.5 C 1414.19,1575.47 1415.69,1576.81 1417,1578.5C 1510.42,1717.01 1604.09,1855.34 1698,1993.5C 1698.75,1994.64 1698.58,1995.64 1697.5,1996.5C 1605.55,2038.99 1508.88,2061.32 1407.5,2063.5C 1305.8,2061.91 1209.13,2039.24 1117.5,1995.5C 1216.1,1855.28 1314.43,1714.95 1412.5,1574.5 Z"/></g>
<g><path style="opacity:1" fill="#fcfcfc" d="M 4268.5,1635.5 C 4283.81,1638.66 4299.14,1641.83 4314.5,1645C 4344.22,1655.18 4373.88,1665.51 4403.5,1676C 4404.81,1681.09 4405.47,1686.42 4405.5,1692C 4405.49,1697.41 4405.16,1702.75 4404.5,1708C 4360.49,1711.48 4316.49,1714.98 4272.5,1718.5C 4270.61,1690.86 4269.28,1663.2 4268.5,1635.5 Z"/></g>
<g><path style="opacity:1" fill="#012171" d="M 4407.5,1677.5 C 4419.76,1681.38 4430.6,1687.71 4440,1696.5C 4443.96,1701.28 4442.79,1704.11 4436.5,1705C 4426.59,1706.91 4416.59,1707.74 4406.5,1707.5C 4406.68,1697.49 4407.01,1687.49 4407.5,1677.5 Z"/></g>
<g><path style="opacity:1" fill="#fcfcfc" d="M 4398.5,1841.5 C 4399.5,1841.5 4400.5,1841.5 4401.5,1841.5C 4401.5,1849.17 4401.5,1856.83 4401.5,1864.5C 4401.67,1876.17 4401.5,1887.84 4401,1899.5C 4400.75,1900.62 4400.25,1901.62 4399.5,1902.5C 4365.56,1886.02 4330.56,1872.19 4294.5,1861C 4289.09,1858.31 4286.26,1854.14 4286,1848.5C 4292.35,1844.16 4299.35,1841.49 4307,1840.5C 4337.47,1844.01 4367.97,1844.34 4398.5,1841.5 Z"/></g>
<g><path style="opacity:1" fill="#878bb9" d="M 3414.5,1851.5 C 3416.05,1851.82 3416.71,1852.82 3416.5,1854.5C 3415.6,1853.71 3414.93,1852.71 3414.5,1851.5 Z"/></g>
<g><path style="opacity:1" fill="#565656" d="M 4398.5,1841.5 C 4399.57,1840.57 4400.9,1840.23 4402.5,1840.5C 4402.83,1848.68 4402.49,1856.68 4401.5,1864.5C 4401.5,1856.83 4401.5,1849.17 4401.5,1841.5C 4400.5,1841.5 4399.5,1841.5 4398.5,1841.5 Z"/></g>
<g><path style="opacity:1" fill="#8488b7" d="M 3435.5,1891.5 C 3437.05,1891.82 3437.71,1892.82 3437.5,1894.5C 3436.6,1893.71 3435.93,1892.71 3435.5,1891.5 Z"/></g>
<g><path style="opacity:1" fill="#8488b7" d="M 3442.5,1904.5 C 3444.05,1904.82 3444.71,1905.82 3444.5,1907.5C 3443.6,1906.71 3442.93,1905.71 3442.5,1904.5 Z"/></g>
<g><path style="opacity:1" fill="#fcfcfc" d="M 4288.5,2004.5 C 4322.61,2017.88 4356.27,2032.38 4389.5,2048C 4392,2049.83 4394.5,2051.67 4397,2053.5C 4397.83,2059.2 4397.66,2064.86 4396.5,2070.5C 4362.35,2086.16 4328.51,2102.49 4295,2119.5C 4292.46,2081.19 4290.3,2042.85 4288.5,2004.5 Z"/></g>
<g><path style="opacity:1" fill="#95a2c5" d="M -0.5,2014.5 C -0.5,2014.17 -0.5,2013.83 -0.5,2013.5C 258.5,2013.5 517.5,2013.5 776.5,2013.5C 776.5,2277.5 776.5,2541.5 776.5,2805.5C 776.167,2805.5 775.833,2805.5 775.5,2805.5C 775.5,2541.83 775.5,2278.17 775.5,2014.5C 516.833,2014.5 258.167,2014.5 -0.5,2014.5 Z"/></g>
<g><path style="opacity:1" fill="#011e66" d="M 4399.5,2056.5 C 4403.65,2060.61 4403.49,2064.61 4399,2068.5C 4398.64,2064.49 4398.81,2060.49 4399.5,2056.5 Z"/></g>
<g><path style="opacity:1" fill="#bfc7dc" d="M 4387.5,2197.5 C 4387.56,2196.96 4387.89,2196.62 4388.5,2196.5C 4389.83,2254.33 4389.83,2312 4388.5,2369.5C 4388.83,2312 4388.5,2254.66 4387.5,2197.5 Z"/></g>
<g><path style="opacity:1" fill="#fefefe" d="M 4387.5,2197.5 C 4388.5,2254.66 4388.83,2312 4388.5,2369.5C 4366.16,2370.73 4343.82,2370.23 4321.5,2368C 4316.67,2364.5 4311.83,2361 4307,2357.5C 4304.66,2319.29 4301.83,2281.13 4298.5,2243C 4298.83,2241.5 4299.17,2240 4299.5,2238.5C 4328.61,2224.27 4357.95,2210.61 4387.5,2197.5 Z"/></g>
<g><path style="opacity:1" fill="#868fbb" d="M 4109.5,2745.5 C 4111.03,2745.43 4112.03,2746.09 4112.5,2747.5C 4110.97,2747.57 4109.97,2746.91 4109.5,2745.5 Z"/></g>
<g><path style="opacity:1" fill="#8992bd" d="M 4152.5,2786.5 C 4154.03,2786.43 4155.03,2787.09 4155.5,2788.5C 4153.97,2788.57 4152.97,2787.91 4152.5,2786.5 Z"/></g>
<g><path style="opacity:1" fill="#c0c8dc" d="M 2805.5,2013.5 C 2805.83,2013.5 2806.17,2013.5 2806.5,2013.5C 2537.67,2014.5 2268.67,2014.83 1999.5,2014.5C 1999.5,2278.5 1999.5,2542.5 1999.5,2806.5C 1591.33,2806.83 1183.33,2806.5 775.5,2805.5C 775.833,2805.5 776.167,2805.5 776.5,2805.5C 1183.83,2805.5 1591.17,2805.5 1998.5,2805.5C 1998.5,2541.5 1998.5,2277.5 1998.5,2013.5C 2267.5,2013.5 2536.5,2013.5 2805.5,2013.5 Z"/></g>
<g><path style="opacity:1" fill="#868fbb" d="M 4201.5,2832.5 C 4203.03,2832.43 4204.03,2833.09 4204.5,2834.5C 4202.97,2834.57 4201.97,2833.91 4201.5,2832.5 Z"/></g>
<g><path style="opacity:1" fill="#868fbb" d="M 4293.5,2917.5 C 4295.03,2917.43 4296.03,2918.09 4296.5,2919.5C 4294.97,2919.57 4293.97,2918.91 4293.5,2917.5 Z"/></g>
</svg>
