<svg xmlns="http://www.w3.org/2000/svg" xml:space="preserve" viewBox="0 0 221.11 54.5">
  <path d="M65.56 17.92c-.09-.65-.4-1.19-.95-1.63-.55-.44-1.19-.66-1.91-.66-.62 0-1.16.12-1.62.37s-.83.57-1.11.99a4.4 4.4 0 0 0-.62 1.43c-.13.54-.2 1.11-.2 1.7 0 .57.07 1.12.2 1.64.13.52.35.99.63 1.4.29.42.66.74 1.11.98.45.24.99.36 1.61.36.85 0 1.54-.27 2.04-.8.51-.53.82-1.24.93-2.13h2.79c-.07.81-.26 1.54-.57 2.2-.31.66-.71 1.22-1.22 1.69s-1.1.83-1.77 1.08c-.67.25-1.4.38-2.2.38-.99 0-1.88-.17-2.68-.52a5.75 5.75 0 0 1-2.03-1.45c-.56-.62-.98-1.34-1.27-2.17-.29-.83-.44-1.72-.44-2.66 0-.96.15-1.87.44-2.71.29-.84.72-1.58 1.27-2.21.56-.63 1.23-1.12 2.03-1.47.8-.35 1.7-.52 2.68-.52.72 0 1.4.1 2.05.31.65.21 1.22.51 1.73.92.51.4.92.9 1.25 1.48.32.59.53 1.25.61 2h-2.78zm4.86-4.4h9.79v2.42H73.3v2.8h6.34v2.24H73.3v3.21h7.05v2.42h-9.93V13.52zm11.87 0h2.86l5.46 8.78h.04v-8.78h2.69V26.6h-2.88l-5.44-8.76h-.04v8.76h-2.69V13.52zm16.48 2.42h-3.92v-2.42h10.72v2.42h-3.92V26.6h-2.88V15.94zm8.3-2.42h7.05c.57 0 1.1.09 1.58.28.48.18.88.44 1.22.78.34.34.59.72.77 1.15.18.43.27.9.27 1.4 0 .79-.17 1.47-.5 2.02-.34.56-.86.97-1.57 1.26v.04c.65.17 1.11.53 1.4 1.07.29.54.45 1.21.5 1.99 0 .05.01.2.02.44.04.62.09 1.15.16 1.59.07.44.19.79.38 1.06h-2.88a2.95 2.95 0 0 1-.23-.84c-.04-.32-.08-.73-.12-1.23-.04-.46-.07-.82-.11-1.06-.1-.71-.31-1.22-.63-1.52-.32-.31-.84-.46-1.55-.46h-2.88v5.11h-2.88V13.52zm2.87 5.92h3.15c.66 0 1.15-.15 1.48-.45.33-.3.49-.77.49-1.42 0-.62-.16-1.08-.49-1.37-.33-.29-.82-.44-1.48-.44h-3.15v3.68zm13.93-5.92h2.95l4.89 13.08h-2.99l-.99-2.91h-4.89l-1.03 2.91h-2.91l4.97-13.08zm-.27 8.02h3.39l-1.65-4.8h-.04l-1.7 4.8zm9.25-8.02h2.88v10.66h6.38v2.42h-9.25V13.52zm15.96 0h2.88v5.02h5.3v-5.02h2.88V26.6h-2.88v-5.64h-5.3v5.64h-2.88V13.52zm13.58 0h9.79v2.42h-6.91v2.8h6.34v2.24h-6.34v3.21h7.05v2.42h-9.93V13.52zm15.45 0h2.95l4.89 13.08h-2.99l-.99-2.91h-4.89l-1.03 2.91h-2.91l4.97-13.08zm-.28 8.02h3.39l-1.65-4.8h-.04l-1.7 4.8zm9.25-8.02h2.88v10.66h6.38v2.42h-9.25V13.52zm11.73 2.42h-3.92v-2.42h10.72v2.42h-3.92V26.6h-2.88V15.94zm8.3-2.42h2.88v5.02h5.3v-5.02h2.88V26.6h-2.88v-5.64h-5.3v5.64h-2.88V13.52z" class="st0"/>
  <path d="M56.84 31.84h4.05l3.06 9h.04l2.9-9h4.05v13.08h-2.69v-9.27h-.05L65 44.93h-2.22l-3.21-9.18h-.04v9.18h-2.69V31.84zm17.76 0h9.79v2.42h-6.91v2.8h6.34v2.24h-6.34v3.21h7.05v2.42H74.6V31.84zm13.01 0h5.64c1.77 0 3.2.55 4.3 1.66 1.09 1.11 1.64 2.71 1.64 4.81 0 .96-.12 1.85-.37 2.65s-.62 1.5-1.12 2.1c-.5.6-1.12 1.06-1.87 1.38-.74.32-1.61.49-2.58.49h-5.64V31.84zm2.87 10.67h2.57c.44 0 .85-.07 1.24-.21a2.8 2.8 0 0 0 1.04-.68c.31-.31.55-.72.72-1.23.18-.51.27-1.11.27-1.81 0-1.4-.29-2.48-.86-3.22-.57-.74-1.55-1.11-2.91-1.11H90.5v8.26zm11.84-10.67h2.88v13.08h-2.88V31.84zm15.27 4.4c-.09-.65-.4-1.19-.95-1.63-.55-.44-1.19-.66-1.91-.66-.62 0-1.16.12-1.62.37-.46.24-.83.57-1.11.99a4.4 4.4 0 0 0-.62 1.43c-.13.54-.2 1.11-.2 1.7 0 .57.07 1.12.2 1.64.13.52.35.99.63 1.4.29.42.66.74 1.11.98.45.24.99.36 1.61.36.85 0 1.54-.27 2.04-.8.51-.53.82-1.24.93-2.13h2.79c-.07.81-.26 1.54-.57 2.2-.31.66-.71 1.22-1.22 1.69s-1.1.83-1.77 1.08c-.67.25-1.4.38-2.2.38-.99 0-1.88-.17-2.68-.52a5.75 5.75 0 0 1-2.03-1.45c-.56-.62-.98-1.34-1.27-2.17-.29-.83-.44-1.72-.44-2.66 0-.96.15-1.87.44-2.71.29-.84.72-1.58 1.27-2.21.56-.63 1.23-1.12 2.03-1.47.8-.35 1.7-.52 2.68-.52.72 0 1.4.1 2.05.31.65.21 1.22.51 1.73.92.51.4.92.9 1.25 1.48.32.59.53 1.25.61 2h-2.78zm9.56-4.4h2.95l4.89 13.08H132l-.99-2.91h-4.89l-1.03 2.91h-2.91l4.97-13.08zm-.27 8.03h3.39l-1.65-4.8h-.04l-1.7 4.8zm10.39-8.03h7.05c.57 0 1.1.09 1.58.28.48.18.88.44 1.22.78.34.34.59.72.77 1.15s.27.9.27 1.4c0 .79-.17 1.47-.5 2.02-.34.56-.86.97-1.57 1.26v.04c.65.17 1.11.53 1.4 1.07.29.54.45 1.21.5 1.99 0 .05.01.2.02.44.04.62.09 1.15.16 1.59.07.44.19.79.38 1.06h-2.88a2.95 2.95 0 0 1-.23-.84c-.04-.32-.08-.73-.12-1.23-.04-.46-.07-.82-.11-1.06-.1-.71-.31-1.22-.63-1.52-.32-.31-.84-.46-1.55-.46h-2.88v5.11h-2.88V31.84zm2.87 5.92h3.15c.66 0 1.15-.15 1.48-.45.33-.3.49-.77.49-1.42 0-.62-.16-1.08-.49-1.37-.33-.29-.82-.44-1.48-.44h-3.15v3.68zm11.49-5.92h9.79v2.42h-6.91v2.8h6.34v2.24h-6.34v3.21h7.05v2.42h-9.93V31.84z" class="st1"/>
  <path d="M170.19 31.84h5.9c.78 0 1.46.11 2.04.34s1.05.54 1.42.93c.37.4.63.85.81 1.35.17.5.26 1.03.26 1.58s-.09 1.08-.26 1.58-.44.95-.81 1.35-.84.71-1.42.93-1.26.34-2.04.34h-3.02v4.69h-2.88V31.84zm2.88 6.16h2.24c.37 0 .7-.03.99-.08.29-.06.56-.15.8-.29.24-.14.42-.34.55-.6.13-.26.19-.59.19-.99s-.06-.73-.19-.99-.31-.46-.55-.6c-.24-.15-.5-.24-.8-.29-.29-.05-.62-.07-.99-.07h-2.24V38zm9.8-6.16h2.88V42.5h6.38v2.42h-9.25V31.84zm14.9 0h2.95l4.89 13.08h-2.99l-.99-2.91h-4.89l-1.03 2.91h-2.91l4.97-13.08zm-.27 8.03h3.39l-1.65-4.8h-.04l-1.7 4.8zm9.71-8.03h2.86l5.46 8.78h.04v-8.78h2.69v13.08h-2.88l-5.44-8.76h-.04v8.76h-2.69V31.84z" class="st0"/>
  <path fill="#fff" d="M26.98 2.87c-13.65 0-24.71 11.06-24.71 24.71 0 13.66 11.06 24.72 24.71 24.72S51.7 41.23 51.7 27.58C51.69 13.93 40.63 2.87 26.98 2.87"/>
  <path d="M26.98 2.86c-13.66 0-24.72 11.07-24.72 24.72 0 13.66 11.07 24.72 24.72 24.72 13.65 0 24.72-11.07 24.72-24.72 0-13.65-11.07-24.72-24.72-24.72m0 47.74c-12.71 0-23.02-10.3-23.02-23.02 0-12.71 10.31-23.02 23.02-23.02C39.69 4.56 50 14.87 50 27.58 50 40.29 39.69 50.6 26.98 50.6" class="st0"/>
  <path d="M24.49 19.21a1.965 1.965 0 1 1-3.93 0 1.965 1.965 0 1 1 3.93 0m7.87 1.49c0 1.09-.88 1.97-1.97 1.97-1.09 0-1.97-.88-1.97-1.97 0-1.09.88-1.97 1.97-1.97 1.09 0 1.97.88 1.97 1.97m-11.62 1.11h3.78c.35.1.78.24 1 .55.51.72.45 1.6.45 2.44v1.04l-.05.7c0 1.22-.26 2.41-.35 3.59l-.1 1.34s-.09 1.2-.1 1.29c-.03.46-.22.91-.35 1.35l-.1.35-.14 2.5-.05 1.04-.1 1.25-.1 1.64v.15l-.05.45-3.74-1.1-.05-.95c0-1.19 0-2.35-.1-3.54l-.09-1.25-.15-2.04-.25-1.55-.7-3.09c-.09-.37-.17-.77-.2-1.15l-.15-1.55.05-.89c.09-.67.18-1.18.45-1.8.2-.46.66-.77 1.19-.77" class="st0"/>
  <path d="M25.29 28.29h3.22v1.83h-3.22z" class="st0"/>
  <path d="M29.47 23.51h2.06c.73 0 1.23.66 1.46 1.27.23.63.26 1.35.21 2.01-.05.63-.26 1.22-.41 1.83-.15.59-.13 1.13-.13 1.73 0 .83.01 1.69-.11 2.5l-.11 1.39c-.13.85-.21 1.69-.26 2.54l-.03.82-.15 1.91-.15 1.27-2.5.67-.23-1.98-.11-1.68-.22-1.76-.15-1.6-.11-1.54-.11-1.57-.12-.89-.03-2.47-.19-1.42s-.07-.96-.07-1.04c-.1-.96.54-1.81 1.46-1.99" class="st0"/>
  <path d="M26.98 41.58c-7.73 0-14-6.27-14-14s6.27-14 14-14c5.35 0 10 3.01 12.36 7.42h7.8C44.38 12.51 36.4 6.37 26.98 6.37c-11.71 0-21.21 9.5-21.21 21.21 0 11.72 9.5 21.21 21.21 21.21 9.36 0 17.31-6.07 20.12-14.48h-7.84c-2.38 4.33-6.99 7.27-12.28 7.27" class="st1"/>
  <path fill="#005d63" stroke="#005d63" stroke-miterlimit="10" d="M434.75-29.34c-6.8.47-14.25.88-18.79 1.12-.03.24-.17.41-.44.47l-.95-2.34c4.6-.17 12.66-.51 20.21-.95l-.03 1.7z"/>
</svg>
