<svg xmlns="http://www.w3.org/2000/svg" version="1.0" viewBox="0 0 3274 1178">
  <path fill="#BF4000" fill-opacity=".1" d="M1453.7 379.7c1.8.2 5 .2 7 0 2.1-.2.7-.4-3.2-.4-3.8 0-5.5.2-3.8.4m198.1 1c.6.2 1.8.2 2.5 0 .6-.3.1-.5-1.3-.5s-1.9.2-1.2.5m16 0c.7.3 1.6.2 1.9-.1.4-.3-.2-.6-1.3-.5-1.1 0-1.4.3-.6.6m88.1 219c-1.3 1.6-1.2 1.7.4.4.9-.7 1.7-1.5 1.7-1.7 0-.8-.8-.3-2.1 1.3m-200.1 185c.7.3 1.6.2 1.9-.1.4-.3-.2-.6-1.3-.5-1.1 0-1.4.3-.6.6m4 0c.7.3 1.6.2 1.9-.1.4-.3-.2-.6-1.3-.5-1.1 0-1.4.3-.6.6"/>
  <path fill="#BF0000" fill-opacity=".2" d="M1657.8 380.7c1.7.2 4.7.2 6.5 0 1.7-.2.3-.4-3.3-.4s-5 .2-3.2.4M1326.2 503c0 1.4.2 1.9.5 1.2.2-.6.2-1.8 0-2.5-.3-.6-.5-.1-.5 1.3m0 16c0 1.4.2 1.9.5 1.2.2-.6.2-1.8 0-2.5-.3-.6-.5-.1-.5 1.3"/>
  <path fill="#BF0000" fill-opacity=".3" d="m1366.4 416.2-1.9 2.3 2.3-1.9c2.1-1.8 2.7-2.6 1.9-2.6-.2 0-1.2 1-2.3 2.2m185.1 3.8c3.3 3.3 6.2 6 6.4 6 .3 0-2.1-2.7-5.4-6s-6.2-6-6.4-6c-.3 0 2.1 2.7 5.4 6m-190.1 1.2-1.9 2.3 2.3-1.9c2.1-1.8 2.7-2.6 1.9-2.6-.2 0-1.2 1-2.3 2.2m-35.1 89.8c0 3.6.2 5 .4 3.2.2-1.7.2-4.7 0-6.5-.2-1.7-.4-.3-.4 3.3m123.2 178c47.8 47.8 87.2 87 87.5 87s-38.7-39.2-86.5-87c-47.8-47.9-87.2-87-87.5-87s38.7 39.1 86.5 87"/>
  <path fill="#BF0000" fill-opacity=".4" d="M1563 421.5c-2.4 2.5-4.2 4.5-3.9 4.5s2.5-2 4.9-4.5 4.2-4.5 3.9-4.5-2.5 2-4.9 4.5"/>
  <path fill="#BF0000" fill-opacity=".5" d="M1447.8 380.7c.6.2 1.8.2 2.5 0 .6-.3.1-.5-1.3-.5s-1.9.2-1.2.5m17 0c.6.2 1.8.2 2.5 0 .6-.3.1-.5-1.3-.5s-1.9.2-1.2.5m206 1c.7.3 1.6.2 1.9-.1.4-.3-.2-.6-1.3-.5-1.1 0-1.4.3-.6.6m-343.7 115.9c0 1.1.3 1.4.6.6.3-.7.2-1.6-.1-1.9-.3-.4-.6.2-.5 1.3m427.8 102.1c-1.3 1.6-1.2 1.7.4.4.9-.7 1.7-1.5 1.7-1.7 0-.8-.8-.3-2.1 1.3"/>
  <path fill="#BF0000" fill-opacity=".6" d="M1453.7 380.7c1.8.2 5 .2 7 0 2.1-.2.7-.4-3.2-.4-3.8 0-5.5.2-3.8.4m198.1 1c.6.2 1.8.2 2.5 0 .6-.3.1-.5-1.3-.5s-1.9.2-1.2.5m16 0c.7.3 1.6.2 1.9-.1.4-.3-.2-.6-1.3-.5-1.1 0-1.4.3-.6.6m79.7 33.3c1 1.1 2 2 2.3 2s-.3-.9-1.3-2-2-2-2.3-2 .3.9 1.3 2m7 7c1 1.1 2 2 2.3 2s-.3-.9-1.3-2-2-2-2.3-2 .3.9 1.3 2M1360 598.4c0 .2.8 1 1.8 1.7 1.5 1.3 1.6 1.2.3-.4s-2.1-2.1-2.1-1.3m306 90.3-87.5 87.8 87.8-87.5c48.2-48.1 87.7-87.6 87.7-87.7q0-.3-.3-.3c-.1 0-39.6 39.5-87.7 87.7m-110.2 95c.7.3 1.6.2 1.9-.1.4-.3-.2-.6-1.3-.5-1.1 0-1.4.3-.6.6m4 0c.7.3 1.6.2 1.9-.1.4-.3-.2-.6-1.3-.5-1.1 0-1.4.3-.6.6"/>
  <path fill="#BF0000" fill-opacity=".7" d="M1657.8 381.7c1.7.2 4.7.2 6.5 0 1.7-.2.3-.4-3.3-.4s-5 .2-3.2.4m-289.9 34-2.4 2.8 2.8-2.4c1.5-1.4 2.7-2.6 2.7-2.8 0-.8-.8-.1-3.1 2.4m183.1 4.8c3.5 3.6 6.7 6.5 6.9 6.5.3 0-2.4-2.9-5.9-6.5s-6.7-6.5-6.9-6.5c-.3 0 2.4 2.9 5.9 6.5m17.9-3.8c-1.3 1.6-1.2 1.7.4.4.9-.7 1.7-1.5 1.7-1.7 0-.8-.8-.3-2.1 1.3m181.1.7c0 .2.8 1 1.8 1.7 1.5 1.3 1.6 1.2.3-.4s-2.1-2.1-2.1-1.3m-388.1 4.3-2.4 2.8 2.8-2.4c1.5-1.4 2.7-2.6 2.7-2.8 0-.8-.8-.1-3.1 2.4m-34.7 81.3c0 1.4.2 1.9.5 1.2.2-.6.2-1.8 0-2.5-.3-.6-.5-.1-.5 1.3m0 16c0 1.4.2 1.9.5 1.2.2-.6.2-1.8 0-2.5-.3-.6-.5-.1-.5 1.3M1450 688.5c48.1 48.1 87.7 87.5 88 87.5s-38.9-39.4-87-87.5-87.7-87.5-88-87.5 38.9 39.4 87 87.5"/>
  <path fill="#BF0000" fill-opacity=".8" d="M1563 422.5c-2.4 2.5-4.2 4.5-3.9 4.5s2.5-2 4.9-4.5 4.2-4.5 3.9-4.5-2.5 2-4.9 4.5M1327.3 511c0 3.6.2 5 .4 3.2.2-1.7.2-4.7 0-6.5-.2-1.7-.4-.3-.4 3.3"/>
  <path fill="#BF0000" fill-opacity=".9" d="M1376.9 408.7c-1.3 1.6-1.2 1.7.4.4.9-.7 1.7-1.5 1.7-1.7 0-.8-.8-.3-2.1 1.3m362.1-.3c0 .2.8 1 1.8 1.7 1.5 1.3 1.6 1.2.3-.4s-2.1-2.1-2.1-1.3m-162.1 2.3c-1.3 1.6-1.2 1.7.4.4.9-.7 1.7-1.5 1.7-1.7 0-.8-.8-.3-2.1 1.3m-207.4 4.5-4 4.3 4.3-4c3.9-3.6 4.7-4.5 3.9-4.5-.2 0-2.1 1.9-4.2 4.2m179.7 4.3c4.8 4.9 8.9 8.7 9 8.5.2-.3-3.7-4.3-8.7-9l-9-8.4zm21.7-3.8-2.4 2.8 2.8-2.4c1.5-1.4 2.7-2.6 2.7-2.8 0-.8-.8-.1-3.1 2.4m180.1 3.8c3.5 3.6 6.7 6.5 6.9 6.5.3 0-2.4-2.9-5.9-6.5s-6.7-6.5-6.9-6.5c-.3 0 2.4 2.9 5.9 6.5m-390.1 4.2-3.4 3.8 3.8-3.4c3.4-3.3 4.2-4.1 3.4-4.1-.2 0-1.9 1.7-3.8 3.7m398.1 4.7c0 .2.8 1 1.8 1.7 1.5 1.3 1.6 1.2.3-.4s-2.1-2.1-2.1-1.3m-404.1 2.3c-1.3 1.6-1.2 1.7.4.4.9-.7 1.7-1.5 1.7-1.7 0-.8-.8-.3-2.1 1.3m.1 160.7c0 .2.8 1 1.8 1.7 1.5 1.3 1.6 1.2.3-.4s-2.1-2.1-2.1-1.3m403.9 2.3c-1.3 1.6-1.2 1.7.4.4.9-.7 1.7-1.5 1.7-1.7 0-.8-.8-.3-2.1 1.3M1449 686.5c49.8 49.8 90.7 90.5 91 90.5s-40.2-40.7-90-90.5-90.7-90.5-91-90.5 40.2 40.7 90 90.5m217.5.7-89 89.3 89.3-89c49-48.9 89.2-89.1 89.2-89.2q0-.3-.3-.3c-.1 0-40.3 40.2-89.2 89.2"/>
  <path fill="#BF0000" d="M1438.7 382.5c-26.8 4.4-50.2 15.5-68.3 32.6-27.1 25.4-40.8 54.9-42.1 90.4-1.1 29.4 5.4 52.9 21.5 77.5 4.6 7.2 19.7 22.7 98.5 101.7 103 103.1 96.8 97.7 110.2 97.8 13.2 0 7.8 4.8 110.1-97.7 98.9-99.1 98.6-98.8 107.9-118.3 8.7-18.5 12-33.5 12-55.5 0-23.5-3.4-38.2-13.6-58.6-24.4-48.9-78.5-77-132.8-69-28.4 4.2-53 16.3-75.7 37.1l-8.5 7.7-10.2-9.9c-19.3-18.7-40.3-29.8-66-34.8-11.5-2.3-32.1-2.8-43-1m207.7 47.5c2.2.5 5.3 2.3 7 4 2.8 2.7 3.1 3.7 3.1 9.1 0 5.7-.2 6.2-3.9 9.6l-3.8 3.5-9.7-.4c-10.9-.4-14.8-2.2-17.1-7.8-2.7-6.5.5-15.6 6.5-18 2.7-1.2 13.1-1.2 17.9 0m49.3 20.6c21.3 17.3 35.8 43.1 39.4 70.2 1.1 7.9 1 9.2-.6 12.5-1 2.1-3 4.4-4.6 5.2-3.8 2-11.4 1.9-15-.2-3.1-1.9-5.9-6.7-5.9-10.5 0-4.3-3.9-18.7-6.9-25.2-4.5-10-10.7-18.3-20.7-28.1-10.2-10-11.6-12.9-9.2-20 3.1-9.4 14.4-11.3 23.5-3.9"/>
  <path fill="#BF4000" fill-opacity=".2" d="M1748.5 415c1 1.1 2 2 2.3 2s-.3-.9-1.3-2-2-2-2.3-2 .3.9 1.3 2m5.5 5.4c0 .2.8 1 1.8 1.7 1.5 1.3 1.6 1.2.3-.4s-2.1-2.1-2.1-1.3m-395 178c0 .2.8 1 1.8 1.7 1.5 1.3 1.6 1.2.3-.4s-2.1-2.1-2.1-1.3m308 90.3-87.5 87.8 87.8-87.5c48.2-48.1 87.7-87.6 87.7-87.7q0-.3-.3-.3c-.1 0-39.6 39.5-87.7 87.7"/>
  <path fill-opacity=".1" d="M2260.8 399.7c.6.2 1.8.2 2.5 0 .6-.3.1-.5-1.3-.5s-1.9.2-1.2.5m-1300.9 4c-1.3 1.6-1.2 1.7.4.4.9-.7 1.7-1.5 1.7-1.7 0-.8-.8-.3-2.1 1.3m84.1-1.3c0 .2.8 1 1.8 1.7 1.5 1.3 1.6 1.2.3-.4s-2.1-2.1-2.1-1.3m734.9 1.3c-1.3 1.6-1.2 1.7.4.4s2.1-2.1 1.3-2.1c-.2 0-1 .8-1.7 1.7m84.1-1.3c0 .2.8 1 1.8 1.7 1.5 1.3 1.6 1.2.3-.4s-2.1-2.1-2.1-1.3m102.5 69.6c0 33.3.1 46.9.2 30.3.2-16.7.2-43.9 0-60.5-.1-16.7-.2-3.1-.2 30.2m94 116c0 96.5.1 136 .2 87.8.2-48.3.2-127.3 0-175.5-.1-48.3-.2-8.8-.2 87.7M2347 435.5c1.3 1.4 2.6 2.5 2.8 2.5.3 0-.5-1.1-1.8-2.5s-2.6-2.5-2.8-2.5c-.3 0 .5 1.1 1.8 2.5m34.1 76.1c0 1.1.3 1.4.6.6.3-.7.2-1.6-.1-1.9-.3-.4-.6.2-.5 1.3m0 18c0 1.1.3 1.4.6.6.3-.7.2-1.6-.1-1.9-.3-.4-.6.2-.5 1.3M1872.5 540c1 1.1 2 2 2.3 2s-.3-.9-1.3-2-2-2-2.3-2 .3.9 1.3 2m-685.5-.6c0 .2.8 1 1.8 1.7 1.5 1.3 1.6 1.2.3-.4s-2.1-2.1-2.1-1.3m773 91c0 .2.8 1 1.8 1.7 1.5 1.3 1.6 1.2.3-.4s-2.1-2.1-2.1-1.3m5.5 71.6c0 34.4.1 48.4.2 31.2.2-17.1.2-45.3 0-62.5-.1-17.1-.2-3.1-.2 31.3m256.3-59.3c7.2.2 19.2.2 26.5 0 7.2-.1 1.3-.3-13.3-.3s-20.5.2-13.2.3m-991.5 50c19.1.2 50.3.2 69.5 0 19.1-.1 3.4-.2-34.8-.2s-53.9.1-34.7.2m961.6 80c-1.3 1.6-1.2 1.7.4.4.9-.7 1.7-1.5 1.7-1.7 0-.8-.8-.3-2.1 1.3m-1206.1 4c9.4.2 25 .2 34.5 0 9.4-.1 1.7-.3-17.3-.3s-26.7.2-17.2.3m176 0c32.1.2 84.3.2 116 0 31.7-.1 5.5-.2-58.3-.2s-89.8.1-57.7.2m643 0c9.4.2 25 .2 34.5 0 9.4-.1 1.7-.3-17.3-.3s-26.7.2-17.2.3m189.9 0c9.4.2 25.2.2 35 0 9.8-.1 2.1-.2-17.2-.2-19.2-.1-27.3.1-17.8.2m138.1 0c9.4.2 25 .2 34.5 0 9.4-.1 1.7-.3-17.3-.3s-26.7.2-17.2.3"/>
  <path fill-opacity=".2" d="M985.8 399.7c9.4.2 25 .2 34.5 0 9.4-.1 1.7-.3-17.3-.3s-26.7.2-17.2.3m175 0c32 .2 84.4.2 116.5 0 32-.1 5.8-.2-58.3-.2s-90.3.1-58.2.2m644 0c9.4.2 25 .2 34.5 0 9.4-.1 1.7-.3-17.3-.3s-26.7.2-17.2.3m189.9 0c9.4.2 25.2.2 35 0 9.8-.1 2.1-.2-17.2-.2-19.2-.1-27.3.1-17.8.2m157.1 0c19.9.2 52.5.2 72.5 0 19.9-.1 3.6-.2-36.3-.2s-56.2.1-36.2.2m-1056.9 4c-1.3 1.6-1.2 1.7.4.4.9-.7 1.7-1.5 1.7-1.7 0-.8-.8-.3-2.1 1.3m1008.6 183.8c0 97.3.1 137 .2 88.2.2-48.9.2-128.5 0-177-.1-48.5-.2-8.6-.2 88.8M1347.4 425c0 7.4.1 10.5.3 6.7.2-3.7.2-9.7 0-13.5-.2-3.7-.3-.6-.3 6.8m871.9 58.7c5.9.2 15.5.2 21.5 0 5.9-.1 1-.3-10.8-.3s-16.7.2-10.7.3M1184.4 514c0 10.7.2 15.1.3 9.7.2-5.3.2-14.1 0-19.5-.1-5.3-.3-.9-.3 9.8m1196.9 6.5c0 4.4.2 6.1.4 3.7.2-2.3.2-5.9 0-8-.2-2-.4-.1-.4 4.3m-1156.5 24.2c16.1.2 42.2.2 58 0 15.8-.1 2.6-.2-29.3-.2s-44.8.1-28.7.2m674 83c10 .2 26.4.2 36.5 0 10-.1 1.8-.2-18.3-.2s-28.3.1-18.2.2m-714.4 32.8c0 11.5.2 16.1.3 10.2.2-5.9.2-15.4 0-21-.1-5.6-.3-.8-.3 10.8m158.1 36.5c1 1.1 2 2 2.3 2s-.3-.9-1.3-2-2-2-2.3-2 .3.9 1.3 2m4.9 38c0 16.2.2 22.9.3 14.7.2-8.1.2-21.3 0-29.5-.1-8.1-.3-1.4-.3 14.8m622.1 37c1 1.1 2 2 2.3 2s-.3-.9-1.3-2-2-2-2.3-2 .3.9 1.3 2"/>
  <path fill-opacity=".4" d="M2276.9 547.7c-1.3 1.6-1.2 1.7.4.4.9-.7 1.7-1.5 1.7-1.7 0-.8-.8-.3-2.1 1.3m69.5 58.5-2.9 3.3 3.3-2.9c3-2.8 3.7-3.6 2.9-3.6-.2 0-1.6 1.5-3.3 3.2m-482.5 165.5c-1.3 1.6-1.2 1.7.4.4s2.1-2.1 1.3-2.1c-.2 0-1 .8-1.7 1.7"/>
  <path fill-opacity=".5" d="M2264.8 400.7c.7.3 1.6.2 1.9-.1.4-.3-.2-.6-1.3-.5-1.1 0-1.4.3-.6.6M1044 403.4c0 .2.8 1 1.8 1.7 1.5 1.3 1.6 1.2.3-.4s-2.1-2.1-2.1-1.3m47.5 184.6c0 97.1.1 136.8.2 88.2.2-48.5.2-127.9 0-176.5-.1-48.5-.2-8.8-.2 88.3M2346 435.5c1.3 1.4 2.6 2.5 2.8 2.5.3 0-.5-1.1-1.8-2.5s-2.6-2.5-2.8-2.5c-.3 0 .5 1.1 1.8 2.5m-1116.7 47.2c18.6.2 48.8.2 67 0 18.3-.1 3.1-.2-33.8-.2-36.8 0-51.8.1-33.2.2m967.1 37.8c0 14.8.2 21.1.3 13.8.2-7.2.2-19.4 0-27-.1-7.6-.3-1.7-.3 13.2m91.9.5c0 2.5.2 3.5.4 2.2.2-1.2.2-3.2 0-4.5-.2-1.2-.4-.2-.4 2.3m91.8 11.6c0 1.1.3 1.4.6.6.3-.7.2-1.6-.1-1.9-.3-.4-.6.2-.5 1.3m-481.3 12.1c10.6.2 27.7.2 38 0 10.3-.1 1.6-.2-19.3-.2s-29.3.1-18.7.2m-674 83c16.1.2 42.2.2 58 0 15.8-.1 2.6-.2-29.3-.2s-44.8.1-28.7.2m1037 14c.6.2 1.8.2 2.5 0 .6-.3.1-.5-1.3-.5s-1.9.2-1.2.5m-65.3 66.3c0 30.5.1 43 .2 27.7.2-15.2.2-40.2 0-55.5-.1-15.2-.2-2.7-.2 27.8m-4.6 63.7c-1.3 1.6-1.2 1.7.4.4.9-.7 1.7-1.5 1.7-1.7 0-.8-.8-.3-2.1 1.3"/>
  <path fill-opacity=".6" d="M2260.8 400.7c.6.2 1.8.2 2.5 0 .6-.3.1-.5-1.3-.5s-1.9.2-1.2.5m-1165.9 4c-1.3 1.6-1.2 1.7.4.4.9-.7 1.7-1.5 1.7-1.7 0-.8-.8-.3-2.1 1.3m871.6 67.3c0 33.3.1 46.9.2 30.3.2-16.7.2-43.9 0-60.5-.1-16.7-.2-3.1-.2 30.2m92 116c0 96.5.1 136 .2 87.8.2-48.3.2-127.3 0-175.5-.1-48.3-.2-8.8-.2 87.7m321.6-76.4c0 1.1.3 1.4.6.6.3-.7.2-1.6-.1-1.9-.3-.4-.6.2-.5 1.3m0 18c0 1.1.3 1.4.6.6.3-.7.2-1.6-.1-1.9-.3-.4-.6.2-.5 1.3M1966.5 702c0 34.4.1 48.4.2 31.2.2-17.1.2-45.3 0-62.5-.1-17.1-.2-3.1-.2 31.3m255.3-60.3c7.2.2 19.2.2 26.5 0 7.2-.1 1.3-.3-13.3-.3s-20.5.2-13.2.3m-991.5 52c19.1.2 50.3.2 69.5 0 19.1-.1 3.4-.2-34.8-.2s-53.9.1-34.7.2m823.6 78c-1.3 1.6-1.2 1.7.4.4s2.1-2.1 1.3-2.1c-.2 0-1 .8-1.7 1.7m-1068.1 4c9.4.2 25 .2 34.5 0 9.4-.1 1.7-.3-17.3-.3s-26.7.2-17.2.3m176 0c32.1.2 84.3.2 116 0 31.7-.1 5.5-.2-58.3-.2s-89.8.1-57.7.2m643 0c9.4.2 25 .2 34.5 0 9.4-.1 1.7-.3-17.3-.3s-26.7.2-17.2.3m189.9 0c9.4.2 25.2.2 35 0 9.8-.1 2.1-.2-17.2-.2-19.2-.1-27.3.1-17.8.2m138.1 0c9.4.2 25 .2 34.5 0 9.4-.1 1.7-.3-17.3-.3s-26.7.2-17.2.3"/>
  <path fill-opacity=".7" d="M985.8 400.7c9.4.2 25 .2 34.5 0 9.4-.1 1.7-.3-17.3-.3s-26.7.2-17.2.3m175 0c32 .2 84.4.2 116.5 0 32-.1 5.8-.2-58.3-.2s-90.3.1-58.2.2m644 0c9.4.2 25 .2 34.5 0 9.4-.1 1.7-.3-17.3-.3s-26.7.2-17.2.3m189.9 0c9.4.2 25.2.2 35 0 9.8-.1 2.1-.2-17.2-.2-19.2-.1-27.3.1-17.8.2m157.1 0c19.9.2 52.5.2 72.5 0 19.9-.1 3.6-.2-36.3-.2s-56.2.1-36.2.2m-181.9 4c-1.3 1.6-1.2 1.7.4.4.9-.7 1.7-1.5 1.7-1.7 0-.8-.8-.3-2.1 1.3m83.1-1.3c0 .2.8 1 1.8 1.7 1.5 1.3 1.6 1.2.3-.4s-2.1-2.1-2.1-1.3m51.5 184.1c0 97.3.1 137 .2 88.2.2-48.9.2-128.5 0-177-.1-48.5-.2-8.6-.2 88.8M1346.4 426c0 8 .2 11.2.3 7.2.2-3.9.2-10.5 0-14.5-.1-3.9-.3-.7-.3 7.3m872.9 56.7c5.9.2 15.5.2 21.5 0 5.9-.1 1-.3-10.8-.3s-16.7.2-10.7.3M1183.4 514c0 10.7.2 15.1.3 9.7.2-5.3.2-14.1 0-19.5-.1-5.3-.3-.9-.3 9.8m1196.9 6.5c0 4.4.2 6.1.4 3.7.2-2.3.2-5.9 0-8-.2-2-.4-.1-.4 4.3m-1155.5 25.2c16.1.2 42.2.2 58 0 15.8-.1 2.6-.2-29.3-.2s-44.8.1-28.7.2m1125.1 56c-1.3 1.6-1.2 1.7.4.4s2.1-2.1 1.3-2.1c-.2 0-1 .8-1.7 1.7m-9 9c-1.3 1.6-1.2 1.7.4.4s2.1-2.1 1.3-2.1c-.2 0-1 .8-1.7 1.7m-1023 13c-1.3 1.6-1.2 1.7.4.4.9-.7 1.7-1.5 1.7-1.7 0-.8-.8-.3-2.1 1.3m580.9 3c10 .2 26.4.2 36.5 0 10-.1 1.8-.2-18.3-.2s-28.3.1-18.2.2m-26.9 4c-1.3 1.6-1.2 1.7.4.4.9-.7 1.7-1.5 1.7-1.7 0-.8-.8-.3-2.1 1.3m-688.5 29.8c0 11.5.2 16.1.3 10.2.2-5.9.2-15.4 0-21-.1-5.6-.3-.8-.3 10.8m163 74.5c0 16.2.2 22.9.3 14.7.2-8.1.2-21.3 0-29.5-.1-8.1-.3-1.4-.3 14.8m-4.5 36.7c-1.3 1.6-1.2 1.7.4.4s2.1-2.1 1.3-2.1c-.2 0-1 .8-1.7 1.7"/>
  <path fill-opacity=".3" d="M1049.5 587.5c0 97.3.1 137 .2 88.2.2-48.9.2-128.5 0-177-.1-48.5-.2-8.6-.2 88.8m819-116.5c0 33.3.1 46.9.2 30.3.2-16.7.2-43.9 0-60.5-.1-16.7-.2-3.1-.2 30.2m-912 117c0 97.1.1 136.8.2 88.2.2-48.5.2-127.9 0-176.5-.1-48.5-.2-8.8-.2 88.3m818.9-158c0 10.2.2 14.3.3 9.2.2-5 .2-13.4 0-18.5-.1-5-.3-.9-.3 9.3m476.4 53.7c.7.3 1.6.2 1.9-.1.4-.3-.2-.6-1.3-.5-1.1 0-1.4.3-.6.6m-928.4 102.8c0 16.5.2 23.4.3 15.3.2-8.1.2-21.6 0-30-.1-8.4-.3-1.8-.3 14.7m895.8-27.8c5.9.2 15.8.2 22 0 6.2-.1 1.4-.3-10.7-.3s-17.2.2-11.3.3m-443.7 109.8c0 52.8.1 74.3.2 47.7.2-26.6.2-69.8 0-96-.1-26.2-.2-4.5-.2 48.3m96.4-36.8c-1.3 1.6-1.2 1.7.4.4.9-.7 1.7-1.5 1.7-1.7 0-.8-.8-.3-2.1 1.3m-3.4 70.3c0 34.4.1 48.4.2 31.2.2-17.1.2-45.3 0-62.5-.1-17.1-.2-3.1-.2 31.3m398.3-60.3c.7.3 1.6.2 1.9-.1.4-.3-.2-.6-1.3-.5-1.1 0-1.4.3-.6.6"/>
  <path fill-opacity=".9" d="m1095.4 405.2-1.9 2.3 2.3-1.9c2.1-1.8 2.7-2.6 1.9-2.6-.2 0-1.2 1-2.3 2.2m875 0-1.9 2.3 2.3-1.9c2.1-1.8 2.7-2.6 1.9-2.6-.2 0-1.2 1-2.3 2.2m83.1-.2c1 1.1 2 2 2.3 2s-.3-.9-1.3-2-2-2-2.3-2 .3.9 1.3 2m285 25c1 1.1 2 2 2.3 2s-.3-.9-1.3-2-2-2-2.3-2 .3.9 1.3 2m7 6c1 1.1 2 2 2.3 2s-.3-.9-1.3-2-2-2-2.3-2 .3.9 1.3 2m7 8c1 1.1 2 2 2.3 2s-.3-.9-1.3-2-2-2-2.3-2 .3.9 1.3 2m2.5 3.4c0 .2.8 1 1.8 1.7 1.5 1.3 1.6 1.2.3-.4s-2.1-2.1-2.1-1.3m-1168 94.1c1.3 1.4 2.6 2.5 2.8 2.5.3 0-.5-1.1-1.8-2.5s-2.6-2.5-2.8-2.5c-.3 0 .5 1.1 1.8 2.5m775.4-.3-1.9 2.3 2.3-1.9c2.1-1.8 2.7-2.6 1.9-2.6-.2 0-1.2 1-2.3 2.2m318.5 3.5c-1.3 1.6-1.2 1.7.4.4.9-.7 1.7-1.5 1.7-1.7 0-.8-.8-.3-2.1 1.3m-7 7c-1.3 1.6-1.2 1.7.4.4s2.1-2.1 1.3-2.1c-.2 0-1 .8-1.7 1.7m77 48-2.4 2.8 2.8-2.4c1.5-1.4 2.7-2.6 2.7-2.8 0-.8-.8-.1-3.1 2.4m-11 11-2.4 2.8 2.8-2.4c1.5-1.4 2.7-2.6 2.7-2.8 0-.8-.8-.1-3.1 2.4m-6 5c-1.3 1.6-1.2 1.7.4.4.9-.7 1.7-1.5 1.7-1.7 0-.8-.8-.3-2.1 1.3m-1016 7-2.4 2.8 2.8-2.4c2.5-2.3 3.2-3.1 2.4-3.1-.2 0-1.4 1.2-2.8 2.7m644.1 7.8c1.3 1.4 2.6 2.5 2.8 2.5.3 0-.5-1.1-1.8-2.5s-2.6-2.5-2.8-2.5c-.3 0 .5 1.1 1.8 2.5m-91.1.2c-1.3 1.6-1.2 1.7.4.4.9-.7 1.7-1.5 1.7-1.7 0-.8-.8-.3-2.1 1.3m328.5 14.5-1.9 2.3 2.3-1.9c2.1-1.8 2.7-2.6 1.9-2.6-.2 0-1.2 1-2.3 2.2M1341.5 698c1 1.1 2 2 2.3 2s-.3-.9-1.3-2-2-2-2.3-2 .3.9 1.3 2m-.1 73.2-1.9 2.3 2.3-1.9c2.1-1.8 2.7-2.6 1.9-2.6-.2 0-1.2 1-2.3 2.2m629.1-.2c1 1.1 2 2 2.3 2s-.3-.9-1.3-2-2-2-2.3-2 .3.9 1.3 2m82.9.2-1.9 2.3 2.3-1.9c2.1-1.8 2.7-2.6 1.9-2.6-.2 0-1.2 1-2.3 2.2"/>
  <path d="M964.3 403c-6.8 4.1-6.3-10.7-6.3 185.1 0 175.9 0 177.2 2 180.4 3.9 6.3 5 6.5 43 6.5 37.9 0 39.3-.2 43.1-6.4 1.8-3 1.9-8.7 1.9-180.4 0-195.9.5-181.1-6.3-185.2-3-1.9-5.3-2-38.7-2s-35.7.1-38.7 2m134.6.3c-1.9 1.2-4.2 3.8-5.1 5.7-1.7 3.3-1.8 13.9-1.8 179s.1 175.7 1.8 178.9c.9 1.9 3 4.4 4.5 5.5 2.8 2.1 3.3 2.1 119.5 2.4 82.4.2 117.5-.1 119.3-.9 1.5-.6 4-2.4 5.5-4l2.9-3 .3-31.2c.2-29.6.1-31.4-1.7-34.4-4.5-7.2.6-6.7-80.2-7.3l-72.7-.5-2.7-2.5c-5.3-4.9-5.5-6.2-5.5-30.6 0-21.1.1-22.9 2.1-26.4 4.1-7.3.9-7 66.3-7 64.2 0 62.8.1 67.9-5.9l2.7-3.3v-31.1c0-29.5-.1-31.4-2-34.5-3.9-6.3-2.9-6.2-67.2-6.2s-62.5.2-67.2-6.3c-1.9-2.6-2.1-4.4-2.4-24.8-.3-24.5.2-27.1 6.3-30.9 3.2-2 4.8-2 71.4-2 53.7 0 68.2-.3 68.5-1.3 3.3-11.5 6.9-21 11.3-29.6l5.3-10.6V426c0-16.5-1-19.9-7.1-23.2-3.2-1.7-9-1.8-120-1.8h-116.6zm684.4-.3c-5.8 3.5-6.3 5.6-6.3 28.4V452l3.6 8.7c13.2 31.8 13.2 69.9 0 100.6l-3.6 8.3v97.9c0 94.1.1 98.1 1.9 101.1 3.8 6.2 5.2 6.4 43.1 6.4 29.7 0 34.7-.2 37.7-1.6 7.1-3.5 6.7.4 7.3-71.9.5-62.7.6-65.1 2.5-68.4 1.1-1.8 3.6-4.2 5.5-5.2 3.2-1.8 6.3-1.9 42-1.9 42.9 0 43.1 0 47.7 6.9l2.3 3.4v64.1c0 62.2.1 64.2 2 67.4 1.1 1.8 3.4 4.1 5.2 5.2 3.1 1.9 5.1 2 38.4 2 34.8 0 35.1 0 38.5-2.3 1.9-1.2 4.2-3.8 5.1-5.7 1.7-3.3 1.8-13.9 1.8-178.8 0-190.1.3-178.9-5.5-184.2l-2.7-2.5h-74.6l-2.7 2.5c-5.7 5.3-5.5 2.8-5.5 69 0 67.3.1 66.1-6.2 70-3.2 1.9-4.9 2-44 2h-40.7l-3.5-3.1c-2-1.7-4-4.7-4.6-6.7-.6-2.3-1-26.1-1-64 0-66.5.2-64.3-6.3-68.2-3-1.9-5.3-2-38.7-2s-35.7.1-38.7 2m327.9.1c-6.7 4.3-6.2-10.1-6.2 184.4 0 193.7-.4 180.4 5.8 185 2.6 1.9 4.5 2 38.2 2.3 40.7.3 40.7.3 44.8-7.8l2.2-4.4v-56.1c0-53.7.1-56.1 2-59.2 3.4-5.7 3.7-5.7 40-6.4 34.8-.6 41.3-1.3 57.2-6 80.1-23.5 111.1-120.2 60-187.4-18.5-24.3-46.3-39.9-80.5-44.9-8.7-1.3-22.8-1.6-85.3-1.6-74.4 0-74.9 0-78.2 2.1m146.9 79.9c11.8 2.2 22.4 10.3 27.7 21 2.5 5 2.7 6.5 2.7 17 0 10.6-.2 11.9-2.8 17-5.8 11.3-16.4 18.9-29.4 21-3.2.6-15.4 1-27.1 1-23.5 0-25.9-.5-30.5-5.9l-2.7-3.3v-29.5c0-33.4.1-34 7.5-37.4 3.5-1.6 6.8-1.9 26.6-1.9 12.5 0 25.1.5 28 1"/>
  <path fill-opacity=".8" d="M2107.9 404.7c-1.3 1.6-1.2 1.7.4.4.9-.7 1.7-1.5 1.7-1.7 0-.8-.8-.3-2.1 1.3M1048.5 587.5c0 97.3.1 137 .2 88.2.2-48.9.2-128.5 0-177-.1-48.5-.2-8.6-.2 88.8m819-116.5c0 33.3.1 46.9.2 30.3.2-16.7.2-43.9 0-60.5-.1-16.7-.2-3.1-.2 30.2m-910 117c0 97.1.1 136.8.2 88.2.2-48.5.2-127.9 0-176.5-.1-48.5-.2-8.8-.2 88.3m818.9-156.5c0 11 .2 15.6.3 10.3.2-5.3.2-14.3 0-20-.1-5.7-.3-1.3-.3 9.7m564.6-.1c0 .2.8 1 1.8 1.7 1.5 1.3 1.6 1.2.3-.4s-2.1-2.1-2.1-1.3m7 7c0 .2.8 1 1.8 1.7 1.5 1.3 1.6 1.2.3-.4s-2.1-2.1-2.1-1.3m-96.2 44.3c.7.3 1.6.2 1.9-.1.4-.3-.2-.6-1.3-.5-1.1 0-1.4.3-.6.6m25.6 65.5-1.9 2.3 2.3-1.9c2.1-1.8 2.7-2.6 1.9-2.6-.2 0-1.2 1-2.3 2.2m-78.4 6.2c0 .2.8 1 1.8 1.7 1.5 1.3 1.6 1.2.3-.4s-2.1-2.1-2.1-1.3m-876.6 32.1c0 16.5.2 23.4.3 15.3.2-8.1.2-21.6 0-30-.1-8.4-.3-1.8-.3 14.7m896.8-26.8c5.9.2 15.8.2 22 0 6.2-.1 1.4-.3-10.7-.3s-17.2.2-11.3.3m-442.7 107.8c0 53.3.1 75 .2 48.2.2-26.9.2-70.5 0-97-.1-26.5-.2-4.6-.2 48.8m568.9-61.3-2.9 3.3 3.3-2.9c3-2.8 3.7-3.6 2.9-3.6-.2 0-1.6 1.5-3.3 3.2M1867.5 702c0 34.4.1 48.4.2 31.2.2-17.1.2-45.3 0-62.5-.1-17.1-.2-3.1-.2 31.3m399.3-61.3c.7.3 1.6.2 1.9-.1.4-.3-.2-.6-1.3-.5-1.1 0-1.4.3-.6.6M1186 688.4c0 .2.8 1 1.8 1.7 1.5 1.3 1.6 1.2.3-.4s-2.1-2.1-2.1-1.3m-226 82c0 .2.8 1 1.8 1.7 1.5 1.3 1.6 1.2.3-.4s-2.1-2.1-2.1-1.3m83.9 1.3c-1.3 1.6-1.2 1.7.4.4.9-.7 1.7-1.5 1.7-1.7 0-.8-.8-.3-2.1 1.3m735.1-1.3c0 .2.8 1 1.8 1.7 1.5 1.3 1.6 1.2.3-.4s-2.1-2.1-2.1-1.3m83.9 1.3c-1.3 1.6-1.2 1.7.4.4.9-.7 1.7-1.5 1.7-1.7 0-.8-.8-.3-2.1 1.3"/>
  <path fill="#BF4040" d="M1630.8 429.7c.6.2 1.8.2 2.5 0 .6-.3.1-.5-1.3-.5s-1.9.2-1.2.5m7 0c1.2.2 3 .2 4 0 .9-.3-.1-.5-2.3-.4-2.2 0-3 .2-1.7.4m-13.7 3.9c-1.2 1.5-2.1 3.2-2.1 3.8s.6.2 1.2-.9 1.8-2.8 2.6-3.8c.8-.9 1.2-1.7.9-1.7s-1.5 1.2-2.6 2.6m28.4.4c1 1.1 2 2 2.3 2s-.3-.9-1.3-2-2-2-2.3-2 .3.9 1.3 2m-31.2 8.5c0 2.2.2 3 .4 1.7.2-1.2.2-3 0-4-.3-.9-.5.1-.4 2.3m34.9.5c0 1.9.2 2.7.5 1.7.2-.9.2-2.5 0-3.5-.3-.9-.5-.1-.5 1.8m26.6 3.7c1.2.2 3 .2 4 0 .9-.3-.1-.5-2.3-.4-2.2 0-3 .2-1.7.4m-60.8.9c0 .6 1.5 2.3 3.3 4l3.2 2.9-3-3.5c-1.6-1.9-3.1-3.7-3.2-3.9-.2-.2-.3 0-.3.5m54.9 1.1c-1.3 1.7-1.3 1.7.6.3 1.1-.8 2.2-1.6 2.4-1.7q.3-.3-.6-.3c-.6 0-1.7.8-2.4 1.7m13.6-.5c1.1.6 2.7 1.6 3.5 2.2.9.6.5.1-.8-1.2-1.3-1.2-2.8-2.2-3.5-2.2s-.3.6.8 1.2m-38.1 4-1.9 2.3 2.3-1.9c2.1-1.8 2.7-2.6 1.9-2.6-.2 0-1.2 1-2.3 2.2m50.6 6.3c3.5 3.6 6.7 6.5 6.9 6.5.3 0-2.4-2.9-5.9-6.5s-6.7-6.5-6.9-6.5c-.3 0 2.4 2.9 5.9 6.5m-68.2-2.8c1.2.2 3.2.2 4.5 0 1.2-.2.2-.4-2.3-.4s-3.5.2-2.2.4m36.4 3.3c0 1.4.2 1.9.5 1.2.2-.6.2-1.8 0-2.5-.3-.6-.5-.1-.5 1.3m.8 4.7c0 .7 1.2 2.5 2.8 4.1 1.5 1.5 2 1.9 1.1.7-.9-1.1-2.1-2.9-2.7-4s-1.2-1.4-1.2-.8m39.5 4.3c1 1.1 2 2 2.3 2s-.3-.9-1.3-2-2-2-2.3-2 .3.9 1.3 2m-27 9c3.3 3.3 6.2 6 6.4 6 .3 0-2.1-2.7-5.4-6s-6.2-6-6.4-6c-.3 0 2.1 2.7 5.4 6m29.5-5.6c0 .2.8 1 1.8 1.7 1.5 1.3 1.6 1.2.3-.4s-2.1-2.1-2.1-1.3m6.5 9.6c.9 1.6 1.8 3 2.1 3 .2 0-.2-1.4-1.1-3-.9-1.7-1.8-3-2.1-3-.2 0 .2 1.3 1.1 3m-27 6.5c4 5.6 5.1 6.6 2.9 2.7-1-1.8-2.8-4.1-3.8-5-1.2-1-.8 0 .9 2.3m32.5 4c0 .5.5 1.7 1 2.5s1 1 1 .5c0-.6-.5-1.7-1-2.5s-1-1.1-1-.5m-25.8 7c1.2 2.4 2.3 4.3 2.6 4.1.4-.5-3.6-8.6-4.3-8.6-.3 0 .5 2 1.7 4.5m89.1 12.5c0 3 .2 4.3.4 2.7.2-1.5.2-3.9 0-5.5-.2-1.5-.4-.2-.4 2.8m-56.2 2.6c0 1.1.3 1.4.6.6.3-.7.2-1.6-.1-1.9-.3-.4-.6.2-.5 1.3m-26 3c0 1.1.3 1.4.6.6.3-.7.2-1.6-.1-1.9-.3-.4-.6.2-.5 1.3m27 2c0 1.1.3 1.4.6.6.3-.7.2-1.6-.1-1.9-.3-.4-.6.2-.5 1.3m-26 3c0 1.1.3 1.4.6.6.3-.7.2-1.6-.1-1.9-.3-.4-.6.2-.5 1.3m27.2 4.9c0 2.2.2 3 .4 1.7.2-1.2.2-3 0-4-.3-.9-.5.1-.4 2.3m-26.1 1.5c0 1.4.2 1.9.5 1.2.2-.6.2-1.8 0-2.5-.3-.6-.5-.1-.5 1.3m5 9.2c1.6 1.6 3.4 2.8 4.1 2.8.6 0 .3-.6-.8-1.2s-2.9-1.8-4-2.7c-1.2-.9-.8-.4.7 1.1m18.2-2.1c-.3.6-2 1.9-3.8 3-1.7 1-2.5 1.9-1.9 1.9 1.3 0 8.3-5.9 7.1-6-.4 0-1 .5-1.4 1.1"/>
  <path fill="#BF4000" d="M1345.6 443.7c-.6 1.4-.5 1.5.5.6.7-.7 1-1.5.7-1.8s-.9.2-1.2 1.2m-4.2 7.4c-1.4 2.8-2.4 5.3-2.2 5.5s1.6-2.1 3.1-5.1 2.5-5.5 2.2-5.5-1.6 2.3-3.1 5.1m333-.9-1.9 2.3 2.3-1.9c2.1-1.8 2.7-2.6 1.9-2.6-.2 0-1.2 1-2.3 2.2m-51.4.2c0 .2.8 1 1.8 1.7 1.5 1.3 1.6 1.2.3-.4s-2.1-2.1-2.1-1.3m80.5 7.6c1 1.1 2 2 2.3 2s-.3-.9-1.3-2-2-2-2.3-2 .3.9 1.3 2m6.5 7.4c0 .2.8 1 1.8 1.7 1.5 1.3 1.6 1.2.3-.4s-2.1-2.1-2.1-1.3m-32 6c0 .2.8 1 1.8 1.7 1.5 1.3 1.6 1.2.3-.4s-2.1-2.1-2.1-1.3m110.1 26.2c0 1.1.3 1.4.6.6.3-.7.2-1.6-.1-1.9-.3-.4-.6.2-.5 1.3m0 27c0 1.1.3 1.4.6.6.3-.7.2-1.6-.1-1.9-.3-.4-.6.2-.5 1.3m-10.5 38.9c-.9 2.6-.7 3.2.5 1.2.6-1 .9-2.1.6-2.3-.2-.3-.7.2-1.1 1.1"/>
  <path fill="#BF8080" d="M1641.8 430.7c.6.2 1.8.2 2.5 0 .6-.3.1-.5-1.3-.5s-1.9.2-1.2.5m-16.9 3c-1.3 1.6-1.2 1.7.4.4.9-.7 1.7-1.5 1.7-1.7 0-.8-.8-.3-2.1 1.3m26.6.3c1 1.1 2 2 2.3 2s-.3-.9-1.3-2-2-2-2.3-2 .3.9 1.3 2m-.1 18.2-1.9 2.3 2.3-1.9c2.1-1.8 2.7-2.6 1.9-2.6-.2 0-1.2 1-2.3 2.2m22.1.9c-.4.6-.5 1.2-.2 1.5.2.3.7-.2 1-1.1.7-1.7.1-2-.8-.4m25.5 2.4c1.3 1.4 2.6 2.5 2.8 2.5.3 0-.5-1.1-1.8-2.5s-2.6-2.5-2.8-2.5c-.3 0 .5 1.1 1.8 2.5m-66.2-.8c1.2.2 3 .2 4 0 .9-.3-.1-.5-2.3-.4-2.2 0-3 .2-1.7.4m10 1c.7.3 1.6.2 1.9-.1.4-.3-.2-.6-1.3-.5-1.1 0-1.4.3-.6.6m29.5 3.8c0 2.2.2 3 .4 1.7.2-1.2.2-3 0-4-.3-.9-.5.1-.4 2.3m34.2 3.5c1 1.1 2 2 2.3 2s-.3-.9-1.3-2-2-2-2.3-2 .3.9 1.3 2m-31 5c1 1.1 2 2 2.3 2s-.3-.9-1.3-2-2-2-2.3-2 .3.9 1.3 2m35.5.4c0 .2.8 1 1.8 1.7 1.5 1.3 1.6 1.2.3-.4s-2.1-2.1-2.1-1.3m-25.5 8.6c2.7 2.7 5.1 5 5.4 5s-1.7-2.3-4.4-5c-2.7-2.8-5.1-5-5.4-5s1.7 2.2 4.4 5m47.6 39.6c0 1.1.3 1.4.6.6.3-.7.2-1.6-.1-1.9-.3-.4-.6.2-.5 1.3m1.1 6.4c0 1.4.2 1.9.5 1.2.2-.6.2-1.8 0-2.5-.3-.6-.5-.1-.5 1.3m-25.1.6c0 1.1.3 1.4.6.6.3-.7.2-1.6-.1-1.9-.3-.4-.6.2-.5 1.3m1 6c0 1.1.3 1.4.6.6.3-.7.2-1.6-.1-1.9-.3-.4-.6.2-.5 1.3m3.4 6.4c1 1.1 2 2 2.3 2s-.3-.9-1.3-2-2-2-2.3-2 .3.9 1.3 2m16.9.2-1.9 2.3 2.3-1.9c2.1-1.8 2.7-2.6 1.9-2.6-.2 0-1.2 1-2.3 2.2m-9.1 3.5c.9.2 2.3.2 3 0 .6-.3-.1-.5-1.8-.5-1.6 0-2.2.2-1.2.5"/>
  <path fill="#BFBF80" d="M1702 458.4c0 .2.8 1 1.8 1.7 1.5 1.3 1.6 1.2.3-.4s-2.1-2.1-2.1-1.3"/>
  <path fill="#BFBFBF" d="M1633.8 430.7c1.2.2 3.2.2 4.5 0 1.2-.2.2-.4-2.3-.4s-3.5.2-2.2.4m11 1c.7.3 1.6.2 1.9-.1.4-.3-.2-.6-1.3-.5-1.1 0-1.4.3-.6.6m-19.7 2.9c-1.2 1.5-2.1 3.2-2.1 3.8s.6.2 1.2-.9 1.8-2.8 2.6-3.8c.8-.9 1.2-1.7.9-1.7s-1.5 1.2-2.6 2.6m26.4.4c1 1.1 2 2 2.3 2s-.3-.9-1.3-2-2-2-2.3-2 .3.9 1.3 2m-29.4 7.6c0 1.1.3 1.4.6.6.3-.7.2-1.6-.1-1.9-.3-.4-.6.2-.5 1.3m61.7 5.1c.6.2 1.8.2 2.5 0 .6-.3.1-.5-1.3-.5s-1.9.2-1.2.5m-59.2 1.6c.3 1 .9 1.5 1.2 1.2s0-1.1-.7-1.8c-1-.9-1.1-.8-.5.6m53.9-.3c-.3.6.1.7.9.4 1.8-.7 2.1-1.4.7-1.4-.6 0-1.3.4-1.6 1m13.6 2c4.4 2.8 15.6 14 21.2 21l2.8 3.5-2.2-3.5c-4.8-7.4-22.2-24-25.2-24-.6 0 1 1.3 3.4 3m-40.7.2-1.9 2.3 2.3-1.9c2.1-1.8 2.7-2.6 1.9-2.6-.2 0-1.2 1-2.3 2.2m23.6.8c-.6 1.1-.8 2-.6 2 .3 0 1-.9 1.6-2s.8-2 .6-2c-.3 0-1 .9-1.6 2m-35.2 2.7c.6.2 1.8.2 2.5 0 .6-.3.1-.5-1.3-.5s-1.9.2-1.2.5m5 0c.7.3 1.6.2 1.9-.1.4-.3-.2-.6-1.3-.5-1.1 0-1.4.3-.6.6m28.2 8.1c0 .7 1.5 2.7 3.3 4.5 1.7 1.8 2.2 2.1 1.1.7-1.2-1.4-2.6-3.4-3.2-4.5s-1.2-1.4-1.2-.7m13.5 14.2c8.1 9 9.4 10.2 5.8 5.5-1.7-2.2-5.1-5.8-7.4-8-3.1-2.9-2.7-2.1 1.6 2.5m33 5c.9 1.6 1.8 3 2.1 3 .2 0-.2-1.4-1.1-3-.9-1.7-1.8-3-2.1-3-.2 0 .2 1.3 1.1 3m-23 7.4c1 1.4 1.9 2.6 2.2 2.6.7 0-1.7-3.9-2.8-4.6-.6-.3-.3.5.6 2m28.5 3.1c0 .5.5 1.7 1 2.5s1 1 1 .5c0-.6-.5-1.7-1-2.5s-1-1.1-1-.5m-23.8 5c1.2 2.4 2.3 4.3 2.6 4.1.4-.5-3.6-8.6-4.3-8.6-.3 0 .5 2 1.7 4.5m29.9 13.1c0 1.1.3 1.4.6.6.3-.7.2-1.6-.1-1.9-.3-.4-.6.2-.5 1.3m-22 9c0 1.1.3 1.4.6.6.3-.7.2-1.6-.1-1.9-.3-.4-.6.2-.5 1.3m24 1c0 1.1.3 1.4.6.6.3-.7.2-1.6-.1-1.9-.3-.4-.6.2-.5 1.3m-23 5c0 1.1.3 1.4.6.6.3-.7.2-1.6-.1-1.9-.3-.4-.6.2-.5 1.3m5.1 10.6c1.6 1.6 3.6 2.8 4.6 2.7 1.2 0 .9-.3-.8-1-1.4-.6-3.4-1.8-4.5-2.7-1.2-.9-.8-.5.7 1m15.7-1.5c-.8.9-2.7 2.2-4.4 2.9-1.8.8-2.3 1.3-1.3 1.4 1.6 0 9.2-5.9 7.7-6-.4 0-1.3.7-2 1.7"/>
  <path fill="#FFF" d="M1628.8 432.6c-3.3 1.7-5.8 6.2-5.8 10.2 0 3.5 3 7.7 7 9.7 4 2.1 16.8 2 19.8-.1 2.7-1.9 5.2-6.5 5.2-9.7 0-3.7-4.1-9.1-8-10.4-4.9-1.7-14.9-1.5-18.2.3m48.8 18.5c-4 3.5-5.5 8.4-3.6 12 .7 1.3 5 5.9 9.6 10.2 14.1 13.2 22.6 28.3 25.9 46.2 1 4.9 2.3 10.4 3.1 12.2 3.7 8.8 15.5 8.9 20 .1 1.5-2.9 1.5-4.2.5-11.2-3.5-22.9-14.1-43.7-30.5-60.2-13.2-13.2-18.4-15.2-25-9.3"/>
  <path fill="#400000" d="M1787.1 483.6c0 1.1.3 1.4.6.6.3-.7.2-1.6-.1-1.9-.3-.4-.6.2-.5 1.3m1.1 5.4c0 1.4.2 1.9.5 1.2.2-.6.2-1.8 0-2.5-.3-.6-.5-.1-.5 1.3m1.1 7.5c0 2.2.2 3 .4 1.7.2-1.2.2-3 0-4-.3-.9-.5.1-.4 2.3m1 14.5c0 3.6.2 5 .4 3.2.2-1.7.2-4.7 0-6.5-.2-1.7-.4-.3-.4 3.3m-1.1 14c0 1.9.2 2.7.5 1.7.2-.9.2-2.5 0-3.5-.3-.9-.5-.1-.5 1.8m-1 8c0 1.4.2 1.9.5 1.2.2-.6.2-1.8 0-2.5-.3-.6-.5-.1-.5 1.3m-1.1 5.6c0 1.1.3 1.4.6.6.3-.7.2-1.6-.1-1.9-.3-.4-.6.2-.5 1.3"/>
  <path fill="#804000" d="M1789.1 502.6c0 1.1.3 1.4.6.6.3-.7.2-1.6-.1-1.9-.3-.4-.6.2-.5 1.3m0 17c0 1.1.3 1.4.6.6.3-.7.2-1.6-.1-1.9-.3-.4-.6.2-.5 1.3"/>
</svg>
