<svg xmlns="http://www.w3.org/2000/svg" xmlns:xlink="http://www.w3.org/1999/xlink" fill-rule="evenodd" clip-rule="evenodd" image-rendering="optimizeQuality" shape-rendering="geometricPrecision" text-rendering="geometricPrecision" viewBox="0 0 256 256">
  <defs>
    <path id="a" fill="#872c40" d="M116.87 234.364c-1.261 6.383-4.044 11.535-8.348 15.454.473-4.086-.455-7.692-2.783-10.818-24.781.34-48.897-.175-72.348-1.545V256h-5.565a85.408 85.408 0 0 0-1.391-21.636c-4.35-3.787-7.596-8.423-9.74-13.909.195-2.363 1.123-3.909 2.783-4.636h2.783c15.346-15.378 30.186-15.378 44.522 0 2.72-1.473 5.039-3.534 6.956-6.181 8.477 7.639 16.825 7.639 25.044 0 3.614 1.44 7.788 1.44 12.521 0 .181 9.05 2.037 17.292 5.566 24.726z"/>
    <path id="b" fill="#872c40" d="M116.87 234.364c-1.261 6.383-4.044 11.534-8.348 15.454.473-4.086-.455-7.692-2.783-10.818-24.781.34-48.897-.176-72.348-1.545V256h-5.565a85.408 85.408 0 0 0-1.391-21.636c-4.35-3.787-7.596-8.423-9.74-13.909.195-2.364 1.123-3.91 2.783-4.636h2.783c15.346-15.378 30.186-15.378 44.522 0 2.72-1.473 5.039-3.534 6.956-6.182 8.477 7.64 16.825 7.64 25.043 0 3.615 1.441 7.788 1.441 12.522 0 .181 9.05 2.037 17.293 5.565 24.727z"/>
  </defs>
  <path fill="#245378" d="M111.304 2.552c16.262-3.403 32.958-3.403 50.087 0l2.783 6.182c-9.175-.53-10.103 1.53-2.783 6.181 3.303-4.308 5.158-3.793 5.566 1.546-3.774 4.843-5.63 10.51-5.566 17 5.855-.925 11.42.106 16.696 3.09-3.6 4.953-6.382 10.105-8.348 15.454V39.642c-7.38.28-13.873-1.781-19.478-6.182-2.84-7.63-7.941-12.78-15.304-15.454C131.88 4.86 123.997-.293 111.304 2.552Z"/>
  <path fill="#233f68" d="M94.609 5.643c4.91-2.972 10.475-4.002 16.695-3.091 12.693-2.845 20.577 2.307 23.653 15.454 7.363 2.674 12.464 7.825 15.304 15.454l-33.391 6.182-8.348-18.545c-1.927 1.624-3.318 3.684-4.174 6.182-.861-3.913-2.253-7.519-4.174-10.818 2.328-3.126 3.256-6.732 2.783-10.818h-8.348z"/>
  <path fill="#2d2d4a" d="M94.609 5.643c1.106 6.304 1.57 12.485 1.391 18.545-3.71-2.06-6.493-5.152-8.348-9.273-14.511 11.11-17.294 24.503-8.348 40.181a2267.315 2267.315 0 0 0 5.566 52.544c3.097 3.896 3.56 7.502 1.39 10.818 3.426 11.279 8.99 21.066 16.697 29.363-8.147-3.373-14.176-9.555-18.087-18.545a2867.472 2867.472 0 0 0-13.913-74.18c-6.787-9.12-14.67-16.332-23.653-21.636C60.36 18.483 76.127 9.21 94.61 5.643z"/>
  <path fill="#287996" d="M161.391 2.552c18.163 4.943 34.858 13.185 50.087 24.727 1.26 2.962 3.115 5.537 5.565 7.727-10.043 1.931-17.463 7.598-22.26 17 .754-7.175-1.1-13.357-5.566-18.546 4.942-2.518 6.797-6.124 5.566-10.818-8.891-7.894-19.094-12.53-30.61-13.908l-2.782-6.182z"/>
  <path fill="#16678b" d="M164.174 8.734c11.515 1.378 21.718 6.014 30.609 13.908 1.231 4.694-.624 8.3-5.566 10.818 4.465 5.19 6.32 11.371 5.566 18.545-3.97 7.8-7.217 16.042-9.74 24.727a821.15 821.15 0 0 1-4.173 49.453l-5.566 6.182c-1.18-13.194-1.643-26.588-1.391-40.181a25.968 25.968 0 0 0-6.956-4.636l13.913-21.636c-1.742-2.32-3.133-4.895-4.174-7.727-.614 12.464-5.715 16.585-15.305 12.363-1.312-8.833 1.47-15.015 8.348-18.545 1.966-5.349 4.749-10.5 8.348-15.454-5.276-2.984-10.841-4.015-16.696-3.09-.063-6.49 1.792-12.157 5.566-17-.408-5.339-2.263-5.854-5.566-1.546-7.32-4.65-6.392-6.71 2.783-6.181z"/>
  <path fill="#1f254d" d="M94.609 5.643h8.348c.473 4.086-.455 7.692-2.783 10.818 1.921 3.299 3.313 6.905 4.174 10.818.856-2.498 2.247-4.558 4.174-6.182l8.348 18.545c-6.22-.91-11.786.12-16.696 3.09-3.056 3.403-3.52 7.525-1.391 12.364 5.486 2.489 9.66 6.61 12.521 12.363-5.243 2.156-6.17 5.246-2.782 9.273-7.164 6.78-6.236 12.446 2.782 17-7.42 8.242-7.42 16.484 0 24.726-2.248.95-4.103 2.496-5.565 4.636 4.795 7.318 6.65 15.56 5.565 24.727h-8.347c-7.706-8.297-13.271-18.084-16.696-29.363 2.17-3.316 1.706-6.922-1.391-10.818a2267.315 2267.315 0 0 1-5.566-52.544c-8.946-15.678-6.163-29.071 8.348-40.18 1.855 4.12 4.638 7.211 8.348 9.272.179-6.06-.285-12.241-1.391-18.545z"/>
  <path fill="#3e94b6" d="M230.957 52.005c4.517 11.829 7.3 24.192 8.347 37.09h-2.782c-.474-14.448-6.04-25.781-16.696-33.999-4.042 9.04-6.825 18.312-8.348 27.818h-2.782l2.782-24.727v-3.09c5.677-14.108 12.17-15.139 19.479-3.092z"/>
  <path fill="#312c48" d="M44.522 42.733c5.468 7.01 8.714 15.253 9.739 24.726.103 21.102 2.885 41.707 8.348 61.817 5.567 8.75 11.596 16.992 18.087 24.727-4.592 1.693-9.23 2.723-13.913 3.09-4.719-8.455-7.965-17.728-9.74-27.817a39.662 39.662 0 0 0-12.521-4.636c3.885-9.217 6.668-20.035 8.348-32.454-3.026-11.757-6.736-23.09-11.13-34-1.631.648-3.023 1.678-4.175 3.092-6.2 21.17-10.374 42.805-12.522 64.907l5.566 15.454c-.707 5.926-3.49 10.047-8.348 12.364-4.574.958-7.356 4.05-8.348 9.272-1.855 0-2.783 1.03-2.783 3.091H5.565c5.344-8.774 9.981-18.047 13.913-27.818 2.336-19.084 4.19-38.66 5.565-58.725 2.317-15.502 8.81-27.865 19.479-37.09z"/>
  <path fill="#d8f2f5" d="M211.478 27.279c3.68-.526 6.925.505 9.74 3.09 4.744 6.419 7.99 13.631 9.739 21.636-7.31-12.047-13.802-11.016-19.479 3.091-2.569-2.482-5.351-2.997-8.348-1.545l-9.739 17a1043.002 1043.002 0 0 0-8.348 52.543c-1.064 1.719-2.455 2.749-4.173 3.091a821.15 821.15 0 0 0 4.173-49.453c2.523-8.685 5.77-16.927 9.74-24.727 4.797-9.401 12.217-15.068 22.26-17-2.45-2.189-4.305-4.764-5.565-7.726z"/>
  <path fill="#f3f5f7" d="M47.304 33.46c8.982 5.304 16.866 12.516 23.653 21.636a2867.472 2867.472 0 0 1 13.913 74.18c3.91 8.99 9.94 15.172 18.087 18.545 4.91 2.971 10.475 4.002 16.695 3.09a1347 1347 0 0 0-1.391-86.542c-4.874-9-10.903-16.212-18.087-21.636a363.3 363.3 0 0 1 66.783 3.09c-9.661 4.064-16.618 11.276-20.87 21.636a1252.713 1252.713 0 0 0-1.391 83.453c5.328.88 9.965-.151 13.913-3.091 7.26-2.915 12.825-8.066 16.695-15.454l5.566-6.182c1.718-.342 3.109-1.372 4.173-3.09a1043.938 1043.938 0 0 1 8.348-52.545l9.74-17c2.996-1.45 5.778-.936 8.347 1.546v3.09c-2.137 2.358-3.528 5.449-4.174 9.273a248.511 248.511 0 0 0-1.391 37.09c-6.547 37.137-26.953 56.713-61.217 58.726a10802.996 10802.996 0 0 0-5.566 80.362c2.296 2.737 5.079 3.767 8.348 3.09V256H105.74l2.783-6.182c4.304-3.92 7.087-9.07 8.348-15.454v-9.272c2.756-20.026 3.684-40.631 2.782-61.817a124.176 124.176 0 0 1-30.609-3.09c-1.316-4.347-4.099-6.408-8.347-6.182-6.491-7.735-12.52-15.978-18.087-24.727-5.463-20.11-8.245-40.715-8.348-61.817-1.025-9.473-4.271-17.716-9.74-24.726-.66-3.99.268-7.081 2.783-9.273z"/>
  <path fill="#89c1de" d="m211.478 58.187-2.782 24.727v21.635h-2.783a248.579 248.579 0 0 1 1.391-37.09c.646-3.824 2.037-6.915 4.174-9.272z"/>
  <path fill="#1996d1" d="M236.522 89.095v3.091c-4.363 4.233-9.464 7.324-15.305 9.273-1.926-1.624-3.318-3.684-4.174-6.182 7.932-15.566 6.54-17.627-4.173-6.182-1.292-1.837-1.756-3.898-1.392-6.181 1.523-9.506 4.306-18.778 8.348-27.818 10.657 8.218 16.222 19.551 16.696 34z"/>
  <path fill="#21365d" d="M100.174 42.733c7.184 5.424 13.213 12.636 18.087 21.636a1347.746 1347.746 0 0 1 1.391 86.543c-6.22.91-11.785-.12-16.695-3.091h8.347c1.085-9.167-.77-17.409-5.565-24.727 1.462-2.14 3.317-3.685 5.565-4.636-7.42-8.242-7.42-16.484 0-24.727-9.018-4.553-9.946-10.22-2.782-17-3.389-4.026-2.461-7.116 2.782-9.272-2.861-5.753-7.035-9.874-12.521-12.363-2.13-4.84-1.665-8.96 1.39-12.363z"/>
  <path fill="#254964" d="M150.26 33.46c5.606 4.401 12.1 6.462 19.48 6.182v12.363c-6.879 3.53-9.661 9.712-8.349 18.545-2.77-.265-5.09.766-6.956 3.091a787.85 787.85 0 0 0-6.957 71.09c4.45-.829 8.16.202 11.13 3.09-3.947 2.94-8.584 3.97-13.912 3.09-.463-27.836 0-55.653 1.391-83.452 4.252-10.36 11.209-17.572 20.87-21.635a363.3 363.3 0 0 0-66.783-3.091c4.91-2.972 10.475-4.002 16.696-3.091l33.39-6.182z"/>
  <path fill="#0c7fc1" d="M236.522 92.186v37.09A85.79 85.79 0 0 1 224 138.548c-2.618-4.826-5.865-8.947-9.74-12.363-2.583 3.675-3.51 7.796-2.782 12.363h8.348c-.305 9.378-4.015 12.47-11.13 9.273-2.687-5.86-3.615-12.042-2.783-18.545 2.13-8.024 3.057-16.266 2.783-24.727V82.914h2.782c-.364 2.283.1 4.344 1.392 6.181 10.714-11.445 12.105-9.384 4.173 6.182.856 2.498 2.248 4.558 4.174 6.182 5.841-1.95 10.942-5.04 15.305-9.273z"/>
  <path fill="#18577d" d="M175.304 132.367c-3.87 7.388-9.435 12.539-16.695 15.454-2.971-2.888-6.681-3.919-11.13-3.09a787.85 787.85 0 0 1 6.956-71.09c1.866-2.325 4.185-3.356 6.956-3.09 9.59 4.221 14.691.1 15.305-12.364 1.04 2.832 2.432 5.408 4.174 7.727L166.957 87.55a25.968 25.968 0 0 1 6.956 4.636c-.252 13.593.212 26.987 1.391 40.18z"/>
  <path fill="#2e204b" d="M66.783 157.093a432.42 432.42 0 0 0-44.522-3.09c4.859-2.317 7.641-6.438 8.348-12.364l-5.566-15.454c2.148-22.102 6.322-43.738 12.522-64.907 1.152-1.414 2.544-2.444 4.174-3.091 4.395 10.909 8.105 22.242 11.13 33.999-1.68 12.42-4.462 23.237-8.347 32.454 4.455.845 8.63 2.39 12.521 4.636 1.775 10.09 5.021 19.362 9.74 27.817z"/>
  <path fill="#2c6896" d="M205.913 104.55h2.783c.274 8.46-.653 16.702-2.783 24.726-2.646 4.385-3.574 9.536-2.783 15.454-11.05 8.097-23.107 14.793-36.173 20.09-6.234 3.02-12.726 4.566-19.479 4.637v15.454h-2.782v-21.636c34.264-2.013 54.67-21.589 61.217-58.726z"/>
  <path fill="#451b43" d="M22.26 154.003a432.42 432.42 0 0 1 44.523 3.09c4.684-.367 9.321-1.397 13.913-3.09 4.248-.226 7.031 1.835 8.347 6.181l2.783 6.182c-8.272 5.64-17.084 6.67-26.435 3.09-3.212 7.596-6.922 7.596-11.13 0-.986 7.133-3.768 8.163-8.348 3.092-2.644 1.614-4.963 3.675-6.956 6.181-7.47-6.888-15.818-12.04-25.044-15.454.992-5.223 3.774-8.314 8.348-9.272z"/>
  <path fill="#0b67aa" d="M236.522 129.276c-1.371 10.237-4.154 20.025-8.348 29.363l1.391 4.636c16.176-4.538 21.741 2.674 16.696 21.636-.76 8.942-3.08 17.184-6.957 24.727a68.64 68.64 0 0 1 2.783 15.454c-6.88 1.273-10.59-1.818-11.13-9.273-1.708-5.51-4.954-9.63-9.74-12.363l-2.782-15.454c-3.911 3.61-7.158 2.58-9.74-3.091-3.179 11.204-6.89 11.719-11.13 1.545a357.1 357.1 0 0 0-25.043-13.908c-2.546 2.559-4.4 5.65-5.565 9.272-.858 8.365.07 17.122 2.782 26.272a98.12 98.12 0 0 0-5.565 20.09c-4.536-4.716-6.854-10.898-6.957-18.544-1.363 3.997-1.827 8.118-1.39 12.363-1.814-1.826-3.669-3.886-5.566-6.182-2.747-10.102-3.674-20.404-2.783-30.908v-15.454c6.753-.071 13.245-1.617 19.479-4.636 13.066-5.298 25.124-11.994 36.173-20.09-.791-5.919.137-11.07 2.783-15.455-.832 6.503.096 12.685 2.783 18.545 7.115 3.196 10.825.105 11.13-9.273h-8.348c-.729-4.567.199-8.688 2.783-12.363 3.874 3.416 7.12 7.537 9.739 12.363a85.79 85.79 0 0 0 12.522-9.272z"/>
  <path fill="#6d3a52" d="M89.043 160.184a124.176 124.176 0 0 0 30.61 3.091c.9 21.186-.027 41.791-2.783 61.817 1.274-16.585-.58-32.554-5.566-47.908-2.638-1.492-5.42-2.008-8.347-1.546-1.525-6.281-5.235-9.372-11.13-9.272l-2.784-6.182z"/>
  <path fill="#2474aa" d="M236.522 89.095h2.782c-4.546 28.281 1.02 53.008 16.696 74.18v24.727h-8.348c.841 13.261-1.014 25.624-5.565 37.09a68.64 68.64 0 0 0-2.783-15.454c3.877-7.543 6.196-15.785 6.957-24.727 5.045-18.962-.52-26.174-16.696-21.636l-1.391-4.636c4.194-9.338 6.977-19.126 8.348-29.363v-40.18z"/>
  <path fill="#743d54" d="M5.565 166.366h5.565l2.783 6.182c.734 15.034 3.516 29.458 8.348 43.271h-2.783a372.16 372.16 0 0 0-8.348-10.818c2.041-5.458 2.969-11.124 2.783-17-5.604.336-10.241-1.725-13.913-6.18v-12.364l5.565-3.091z"/>
  <path fill="#601f45" d="M13.913 163.275c9.226 3.415 17.574 8.566 25.044 15.454 1.993-2.506 4.312-4.567 6.956-6.181 4.58 5.071 7.362 4.04 8.348-3.091 4.208 7.595 7.918 7.595 11.13 0 9.351 3.58 18.163 2.55 26.435-3.091 5.896-.1 9.606 2.99 11.13 9.272-5.128 2.42-10.694 4.48-16.695 6.182-1.63-.647-3.022-1.677-4.174-3.09-.64 12.31-4.35 14.37-11.13 6.18-6.262-.601-12.755.429-19.479 3.092-13.108-4.017-25.63-9.168-37.565-15.454l-2.783-6.182c0-2.06.928-3.09 2.783-3.09z"/>
  <path fill="#0a5da3" d="M230.957 215.82c-8.945 3.256-16.829 8.408-23.653 15.453a39.662 39.662 0 0 0-12.521-4.636c2.248-.95 4.103-2.496 5.565-4.636-3.793-4.305-6.112-9.457-6.957-15.454-2.782 4.12-5.565 4.12-8.348 0L178.087 222c1.462 2.14 3.317 3.685 5.565 4.636-6.3.73-12.329 2.276-18.087 4.636-1.11-.706-1.573-1.736-1.391-3.09a98.12 98.12 0 0 1 5.565-20.09c-2.713-9.15-3.64-17.908-2.782-26.273 1.164-3.623 3.02-6.713 5.565-9.272a357.1 357.1 0 0 1 25.043 13.908c4.24 10.174 7.951 9.659 11.13-1.545 2.582 5.671 5.829 6.701 9.74 3.09l2.782 15.455c4.786 2.733 8.032 6.854 9.74 12.363z"/>
  <path fill="#752444" d="M13.913 172.548c11.935 6.286 24.457 11.437 37.565 15.454 6.724-2.663 13.217-3.693 19.479-3.091 6.78 8.189 10.49 6.128 11.13-6.182 1.152 1.414 2.543 2.444 4.174 3.091 6.001-1.701 11.567-3.762 16.696-6.182 2.927-.462 5.71.054 8.347 1.546 4.985 15.354 6.84 31.323 5.566 47.908v9.272c-3.53-7.434-5.385-15.676-5.566-24.726-4.733 1.44-8.907 1.44-12.521 0-8.22 7.639-16.567 7.639-25.044 0-1.917 2.647-4.236 4.708-6.956 6.181-14.336-15.378-29.176-15.378-44.522 0-4.832-13.813-7.614-28.237-8.348-43.271z"/>
  <path fill="#1a5384" d="M144.696 184.91h2.782c-.891 10.505.036 20.807 2.783 30.91 1.897 2.295 3.752 4.355 5.565 6.18-.871 12.094.983 23.427 5.565 34h-5.565c-3.916-5.59-7.162-11.77-9.739-18.545-1.39-17.484-1.854-35-1.391-52.544z"/>
  <path fill="#155393" d="M230.957 215.82c.54 7.454 4.25 10.545 11.13 9.272-6.413 8.986-10.123 19.289-11.13 30.908H161.39c-4.582-10.573-6.436-21.906-5.565-34-.436-4.244.028-8.365 1.391-12.362.103 7.646 2.421 13.828 6.957 18.545-.182 1.354.282 2.384 1.391 3.09 5.758-2.36 11.787-3.906 18.087-4.636-2.248-.95-4.103-2.496-5.565-4.636l6.956-15.454c2.783 4.12 5.566 4.12 8.348 0 .845 5.997 3.164 11.149 6.957 15.454-1.462 2.14-3.317 3.685-5.565 4.636a39.653 39.653 0 0 1 12.521 4.636c6.824-7.045 14.708-12.197 23.653-15.454z"/>
  <use xlink:href="#a"/>
  <path fill="#9d3642" d="M108.522 249.818 105.739 256H33.391v-18.545c23.45 1.37 47.567 1.885 72.348 1.545 2.328 3.126 3.256 6.732 2.783 10.818z"/>
  <path fill="#c2d6e6" d="M144.696 163.275v21.636a497.407 497.407 0 0 0 1.391 52.544c2.577 6.774 5.823 12.956 9.74 18.545h-8.349v-9.272c-3.27.676-6.052-.354-8.348-3.091a10829.51 10829.51 0 0 1 5.566-80.362z"/>
  <use xlink:href="#b"/>
  <use xlink:href="#a"/>
  <use xlink:href="#b"/>
</svg>
