<?xml version="1.0" encoding="UTF-8" standalone="no"?>
<svg
   viewBox="0 0 1024 512"
   version="1.1"
   id="svg3"
   width="1024"
   height="512"
   xmlns="http://www.w3.org/2000/svg"
   xmlns:svg="http://www.w3.org/2000/svg">
  <defs
     id="defs3" />
  <g
     fill-rule="evenodd"
     id="g3">
    <path
       fill="#0c3b88"
       d="m 546.65771,2.4791181 v 3.7742284 l -3.93279,7.5484575 -3.93279,7.548457 v 11.322686 l -3.93279,7.548456 -3.93279,7.548457 -3.93279,7.548457 v 7.548458 l -3.93279,11.322685 -3.93279,7.548458 -3.93279,7.548457 v 11.322685 l -3.93279,7.54846 -3.93279,7.54845 3.93279,3.77423 7.86558,3.77423 7.86558,3.77423 c 3.93279,3.77423 3.93279,3.77423 7.86558,-7.54846 l 3.93279,-15.09691 3.93279,-7.548458 V 85.512146 l 3.93279,-11.322686 3.93278,-7.548457 7.86558,18.871143 v 7.548457 l 3.93279,11.322687 3.93279,11.32268 3.93279,11.32269 3.93279,7.54846 v 11.32268 l 7.86558,11.32269 v 3.77423 h 102.25252 v 7.54846 l -11.79837,7.54845 -3.93279,3.77423 -3.93279,3.77423 h -3.93279 l -3.93279,3.77423 -11.79836,7.54846 -7.86558,3.77422 -11.79837,7.54846 v 3.77423 l -3.93279,3.77423 -7.86558,3.77423 -11.79837,7.54845 h -3.93278 l -3.93279,3.77423 3.93279,11.32269 v 3.77423 l 3.93278,7.54845 3.93279,3.77423 3.93279,7.54848 v 7.54845 l 3.93279,3.77423 3.93279,7.54846 v 3.77423 l 3.93279,7.54845 3.93279,3.77423 3.93279,7.54846 v 3.77423 l 3.93279,7.54846 3.93279,3.77422 v 3.77423 l -7.86558,-3.77423 h -3.93279 l -3.93279,-3.77422 h -3.93279 l -11.79837,-11.32269 -7.86557,-3.77423 -7.86558,-7.54846 h -3.93279 l -7.86558,-3.77422 -3.93279,-3.77423 -3.93279,-3.77423 -3.93279,-3.77423 h -3.93279 l -11.79837,-3.77423 v 11.32269 l 3.93279,15.09691 3.93279,3.77423 7.86558,3.77423 3.93279,3.77423 3.93279,3.77423 h 3.93279 l 3.93279,3.77422 3.93279,3.77423 h 3.93279 l 3.93279,3.77423 3.93279,3.77423 7.86557,3.77423 11.79837,7.54846 3.93279,3.77422 3.93279,3.77423 h 3.93279 l 3.93279,3.77423 7.86558,3.77423 3.93279,3.77423 7.86557,3.77423 3.93279,3.77423 h 3.93279 l 11.79837,11.32269 h 7.86558 l 3.93279,3.77423 3.93279,3.77423 v -18.87115 l -3.93279,-3.77423 -3.93279,-7.54846 -3.93279,-7.54846 v -7.54845 l -3.93279,-7.54846 -3.93279,-3.77423 -3.93279,-7.54846 v -7.54845 l -3.93279,-7.54846 -3.93279,-3.77423 -3.93279,-7.54846 v -7.54845 l -3.93278,-7.54846 -3.93279,-3.77423 v -7.54846 l -3.93279,-11.32268 -3.93279,-3.77425 -3.93279,-15.09691 11.79837,-7.54846 3.93279,-3.77423 7.86557,-3.77423 15.73116,-11.32268 3.93279,-3.77423 a 259.56409,249.09909 0 0 1 35.3951,-30.19383 l 3.93279,-3.77423 19.66395,-15.09691 h 74.72299 v 7.54846 l -7.86557,3.77422 a 259.56409,249.09909 0 0 1 -23.59674,15.09692 l -19.66395,15.09691 -3.93278,3.77423 h -3.93279 l -3.93279,3.77423 -3.93279,3.77423 -3.93279,3.77423 h -3.93279 l -15.73116,11.32268 v 11.32269 l 3.93279,7.54846 3.93279,3.77422 3.93279,7.54848 v 3.77423 l 3.93279,7.54845 3.93279,7.54846 3.93279,3.77423 v 3.77423 l 3.93279,7.54845 3.93279,3.77423 v 7.54846 l 3.93279,7.54846 3.93278,3.77423 c 3.93279,7.54845 3.93279,11.32268 -3.93278,7.54845 l -3.93279,-3.77423 -3.93279,-3.77422 -7.86558,-3.77423 -3.93279,-3.77423 -11.79837,-7.54846 -15.73116,-7.54846 -3.93278,-3.77422 -3.93279,-3.77423 -3.93279,-3.77423 h -3.93279 l -3.93279,-3.77423 -3.93279,-3.77423 -3.93279,-3.77423 -3.93279,15.09692 c -3.93279,11.32268 0,15.09691 3.93279,15.09691 l 3.93279,3.77423 11.79837,7.54846 7.86558,3.77423 3.93278,3.77422 h 3.93279 l 3.93279,3.77423 3.93279,3.77423 3.93279,3.77423 3.93279,3.77423 7.86558,3.77423 h 3.93279 l 3.93279,3.77423 7.86558,3.77422 3.93279,3.77423 3.93278,3.77423 3.93279,3.77423 h 3.93279 l 7.86558,3.77423 3.93279,3.77423 a 3417.5939,3279.8046 0 0 0 35.3951,11.32268 l -3.93279,-3.77423 v -7.54845 l -3.93278,-7.54846 -3.93279,-3.77423 v -7.54846 l -3.93279,-7.54845 -3.93279,-7.54846 -3.93279,-7.54846 v -3.77423 l -3.93279,-7.54845 -3.93279,-7.54846 -3.93279,-7.54846 -3.93279,-7.54845 v -7.54846 l -3.93279,-3.77423 -3.93279,-7.54846 -3.93279,-7.54845 v -7.54848 l -3.93279,-3.77423 v -11.32268 l 3.93279,-3.77423 a 247.76572,237.7764 0 0 1 23.59674,-15.09691 365.7494,351.00326 0 0 1 35.3951,-30.19383 192.70667,184.9372 0 0 1 23.59674,-18.87115 l 7.86558,-7.54845 47.19347,-3.77423 h 35.3951 v 7.54846 l -3.93279,3.77422 -7.86558,3.77423 a 184.84109,177.38874 0 0 0 -19.66394,15.09692 l -7.86558,3.77423 -7.86558,3.77422 -3.93279,3.77423 -3.93279,3.77423 a 106.18531,101.90417 0 0 0 -19.66395,11.32269 v 3.77423 l -7.86557,3.77422 -3.93279,3.77423 c -7.86558,3.77423 -7.86558,3.77423 -3.93279,7.54846 l 3.93279,7.54846 3.93279,3.77423 v 7.54845 l 3.93279,7.54848 3.93278,3.77422 3.93279,7.54846 v 3.77423 l 3.93279,7.54846 3.93279,3.77423 3.93279,7.54845 v 3.77423 l 3.93279,7.54846 3.93279,7.54846 3.93279,3.77422 c 3.93279,3.77423 0,7.54846 -7.86558,3.77423 l -3.93279,-3.77423 -3.93279,-3.77422 -3.93279,-3.77423 -11.79836,-7.54846 -3.93279,-3.77423 h -3.93279 l -3.93279,-3.77423 -7.86558,-3.77423 -11.79837,-7.54845 -3.93279,-3.77423 h -3.93279 l -3.93279,-3.77423 -7.86557,-3.77423 -3.93279,15.09692 3.93279,15.09691 h 3.93278 l 3.93279,3.77423 3.93279,3.77423 15.73116,7.54845 3.93279,3.77423 3.93279,3.77423 11.79837,7.54846 7.86557,3.77423 11.79837,7.54845 15.73116,7.54846 v 3.77423 h 3.93279 l 11.79837,7.54846 7.86558,3.77423 3.93278,3.77422 3.93279,3.77423 h 3.93279 l 7.86558,3.77424 3.93279,3.77423 c 7.86558,7.54845 7.86558,0 3.93279,-7.54847 l -3.93279,-7.54845 v -7.54846 l -3.93279,-7.54846 -3.93279,-7.54846 -3.93279,-3.77422 -3.93279,-7.54846 v -7.54846 l -3.93279,-7.54846 -3.93278,-3.77422 v -7.54846 l -3.93279,-7.54846 -3.93279,-7.54846 -3.93279,-3.77422 v -7.54846 l -3.93279,-7.54846 -3.93279,-7.54846 v -3.77422 l -3.93279,-7.54848 v -15.09691 l 3.93279,-3.77423 a 169.10994,162.29183 0 0 1 27.52952,-18.87114 l 11.79837,-11.32269 a 1199.5007,1151.1397 0 0 0 86.52135,-71.71034 h -86.52135 a 2737.2213,2626.8631 0 0 1 -82.58857,-7.54846 l -3.93279,-7.54846 v -7.54845 l -3.93279,-7.54846 -3.93279,-7.548458 -3.93279,-7.548457 v -7.548457 l -3.93279,-7.548458 -3.93279,-7.548457 -3.93279,-11.322686 v -3.774228 l -3.93279,-7.548457 -3.93279,-11.322685 v -7.548458 l -3.93279,-7.548457 -3.93278,-7.548457 -3.93279,-3.7742285 c -3.93279,-7.548457 -3.93279,-7.548457 -3.93279,3.7742285 l -3.93279,7.548457 -3.93279,7.548457 -3.93279,11.322686 v 7.548457 l -3.93279,7.548457 -3.93279,7.548457 -3.93279,7.548457 v 11.322686 l -3.93279,7.548457 -3.93279,7.548457 v 7.548457 l -3.93279,11.32269 -3.93279,7.54845 -3.93278,7.54846 c 0,7.54846 0,7.54846 -15.73116,7.54846 -15.73116,0 -15.73116,0 -19.66395,-11.32269 v -7.54846 l -3.93279,-7.54845 -3.93279,-7.54846 v -7.548457 l -3.93279,-7.548457 -3.93278,-7.548457 -3.93279,-11.322686 v -3.774228 l -3.93279,-7.548458 -3.93279,-11.322685 -3.93279,-7.548457 v -7.548457 l -3.93279,-7.548457 -3.93279,-7.548457 -3.93279,-7.5484575 c -3.93279,-3.7742284 -3.93279,0 -7.86558,7.5484575 l -3.93279,7.548457 v 7.548457 l -3.93279,11.322685 -3.93279,7.548457 -3.93279,7.548457 v 7.548458 l -3.93278,7.548457 -3.93279,11.322686 -3.93279,7.548457 v 7.548457 l -3.93279,7.548458 -3.93279,7.54846 -3.93279,11.32268 v 7.54846 l -15.73116,3.77423 c -11.79837,0 -11.79837,0 -15.73115,-7.54846 v -3.77423 l -3.93279,-7.54846 -3.93279,-7.54845 -3.93279,-11.322688 v -7.548457 l -3.93279,-3.774229 -3.93279,-7.548457 -3.93279,-11.322686 v -7.548457 l -3.93279,-7.548457 -3.93279,-7.548457 -3.93279,-7.548457 v -7.548457 l -3.93279,-7.548457 -3.93279,-7.548457 V 6.2533465 c -3.93279,-7.548457 -3.93279,-7.548457 -7.86557,-3.7742284 m 133.71483,75.4845709 3.93279,7.548457 v 7.548457 l 3.93279,11.322687 3.93279,11.32268 3.93279,11.32269 c 3.93279,7.54846 3.93279,7.54846 -19.66395,7.54846 -19.66395,0 -19.66395,0 -19.66395,-7.54846 l 3.93279,-11.32269 3.93279,-11.32268 V 93.060603 l 3.93279,-7.548457 3.93279,-11.322686 c 3.93279,-7.548457 7.86558,-7.548457 7.86558,3.774229 m 121.91647,-7.548457 7.86557,11.322686 v 11.322685 l 3.93279,7.548457 3.93279,11.32269 3.93279,11.32268 v 11.32269 c -7.86558,0 -43.26068,0 -39.32789,-3.77423 l 3.93279,-11.32269 v -11.32268 l 3.93279,-7.54846 3.93279,-11.322685 3.93279,-11.322686 c 0,-11.322686 0,-11.322686 3.93279,-7.548457 M 943.86942,387.45046 v 3.77422 l 3.93279,-3.77422 h -3.93279"
       id="path2"
       style="stroke-width:3.8527" />
    <path
       fill="#c31228"
       d="m 385.41335,100.60906 -23.59673,3.77423 -15.73116,3.77423 h -11.79837 l -7.86557,3.77423 -7.86558,3.77422 h -3.93279 l -11.79837,3.77423 -3.93279,3.77423 -7.86558,3.77423 -3.93279,3.77423 h -7.86558 l -3.93278,3.77423 -3.93279,3.77423 h -7.86558 l -7.86558,3.77423 -3.93279,3.77422 h -3.93279 l -7.86558,3.77423 -7.86558,3.77423 -7.86558,3.77423 -7.86557,3.77423 -15.73116,3.77423 h -11.79837 a 169.10994,162.29183 0 0 1 -70.7902,0 125.84926,120.77532 0 0 1 -62.924641,-45.29075 c 0,-3.77423 -3.932789,-3.77423 -3.932789,3.77423 l -3.932789,3.77423 v 18.87114 a 145.5132,139.64646 0 0 0 62.924629,41.51652 h 7.86559 l 23.59673,3.77423 h 19.66395 a 613.51512,588.77966 0 0 1 39.32789,-3.77423 l 11.79837,-3.77423 h 7.86558 l 11.79836,-3.77423 7.86558,-3.77423 h 3.93279 l 7.86558,-3.77423 7.86558,-3.77422 7.86558,-3.77423 h 3.93279 l 7.86557,-3.77423 3.93279,-3.77423 7.86558,-3.77423 h 3.93279 l 7.86558,-3.77423 3.93279,-3.77423 3.93279,-3.77422 h 7.86558 l 7.86558,-3.77423 7.86557,-3.77423 11.79837,-3.77423 h 7.86558 l 15.73116,-3.77423 a 232.03457,222.67949 0 0 1 145.51319,22.64537 c 7.86558,7.54846 11.79837,0 15.73116,-11.32268 v -7.54846 l -11.79837,-7.54846 -7.86558,-3.77423 -7.86558,-3.77423 h -7.86557 l -7.86558,-3.77422 -11.79837,-3.77423 -11.79837,-3.77423 h -11.79837 l -23.59673,-3.77423 h -43.26068 m -27.52952,86.80726 h -3.93279 l -11.79837,3.77423 -19.66394,3.77423 h -7.86558 l -11.79837,3.77422 -7.86558,3.77423 h -7.86558 l -7.86558,3.77423 -3.93278,3.77423 -7.86558,3.77423 h -3.93279 l -7.86558,3.77423 -3.93279,3.77423 -3.93279,3.77422 h -7.86558 l -3.93279,3.77423 -7.86558,3.77423 -7.86557,3.77423 -3.93279,3.77423 h -7.86558 l -7.86558,3.77423 -11.79837,3.77423 h -7.86558 l -27.52952,7.54845 A 169.10994,162.29183 0 0 1 82.588574,244.02975 l -7.865578,-3.77423 -3.93279,-3.77423 H 66.857417 A 114.05089,109.45263 0 0 1 31.462314,202.51323 l -3.932789,7.54846 -3.93279,11.32269 c -3.932789,7.54845 -3.932789,7.54845 3.93279,15.09691 a 165.17715,158.5176 0 0 0 31.462314,22.64539 l 7.865578,3.77423 7.865579,3.77422 3.932789,3.77423 11.798368,3.77423 h 11.798367 l 7.86558,3.77423 a 192.70667,184.9372 0 0 0 106.18532,-15.09691 h 3.93279 l 7.86557,-3.77423 7.86558,-3.77425 3.93279,-3.77423 h 7.86558 l 7.86558,-3.77422 3.93279,-3.77423 7.86558,-3.77423 h 3.93279 l 3.93279,-3.77423 7.86557,-3.77423 3.93279,-3.77423 h 7.86558 l 7.86558,-3.77423 7.86558,-3.77422 11.79837,-3.77423 h 7.86557 l 11.79837,-3.77423 19.66395,-3.77423 a 180.90831,173.61452 0 0 1 58.99183,3.77423 h 15.73116 l 11.79836,3.77423 7.86558,3.77423 11.79837,3.77422 7.86558,3.77423 h 3.93279 l 7.86558,3.77423 15.73115,7.54846 3.93279,-18.87114 c 0,-7.54846 0,-7.54846 -7.86558,-7.54846 l -3.93278,-3.77423 -7.86558,-3.77423 -7.86558,-3.77423 h -3.93279 l -7.86558,-3.77423 -11.79837,-3.77422 h -11.79837 l -19.66394,-3.77423 -11.79837,-3.77423 h -55.05904 m -3.93279,83.03304 -19.66395,3.77423 h -11.79836 l -15.73116,3.77423 H 294.9592 l -11.79837,3.77423 -3.93279,3.77423 -7.86557,3.77423 h -7.86558 l -7.86558,3.77422 -7.86558,3.77423 -3.93279,3.77423 -7.86558,3.77423 h -3.93279 l -7.86558,3.77423 -3.93278,3.77423 -19.66395,7.54845 -3.93279,3.77423 h -7.86558 l -7.86558,3.77423 -7.86558,3.77423 -11.79836,3.77423 H 149.446 l -15.73116,3.77423 A 133.71483,128.32377 0 0 1 82.588574,334.61125 H 70.790206 l -7.865578,-3.77423 -7.865579,-3.77423 -3.932789,-3.77423 h -3.932789 l -3.932789,-3.77423 -27.529525,-26.4196 c -3.932789,-7.54845 -7.8655785,-3.77422 -11.7983678,7.54846 L 0,308.19165 v 3.77423 a 145.5132,139.64646 0 0 0 39.327892,33.96805 l 3.93279,3.77423 h 7.865578 l 3.932789,3.77423 7.865579,3.77423 11.798368,3.77423 h 11.798367 a 141.58041,135.87223 0 0 0 70.790217,-3.77423 h 11.79837 l 7.86557,-3.77423 11.79837,-3.77423 7.86558,-3.77423 h 7.86558 l 3.93279,-3.77422 11.79837,-3.77423 3.93278,-3.77423 h 3.93279 l 7.86558,-3.77423 7.86558,-3.77423 h 3.93279 l 3.93279,-3.77423 7.86558,-3.77423 3.93279,-3.77422 h 3.93279 l 11.79836,-3.77423 3.93279,-3.77423 7.86558,-3.77423 h 7.86558 l 15.73116,-3.77423 c 11.79837,-3.77423 39.32789,-7.54846 58.99184,-3.77423 a 149.44599,143.42069 0 0 1 51.12625,7.54846 h 7.86558 l 7.86558,3.77423 11.79836,3.77423 7.86558,3.77423 h 3.93279 l 3.93279,3.77422 7.86558,3.77423 c 3.93279,3.77423 7.86558,3.77423 7.86558,-7.54845 v -3.77423 c 3.93279,-7.54846 0,-15.09692 -3.93279,-15.09692 l -7.86558,-3.77423 -7.86558,-3.77422 h -7.86558 l -7.86558,-3.77423 -7.86557,-3.77423 -11.79837,-3.77423 h -7.86558 l -15.73116,-3.77423 -15.73115,-3.77423 h -35.3951 m 141.58041,173.61453 c -7.86558,0 -15.73116,7.54845 -23.59674,15.09691 -7.86558,7.54846 -3.93279,30.19383 3.93279,37.74229 v 3.77422 l 3.93279,3.77423 7.86558,3.77423 h 27.52952 l 3.93279,-7.54846 c 0,-7.54845 -3.93279,-11.32268 -7.86558,-7.54845 H 495.53145 C 475.8675,485.5804 483.73308,455.38657 511.2626,459.1608 l 7.86558,-3.77423 c 0,-11.32268 -3.93279,-15.09691 -23.59673,-11.32268 m -314.62314,0 -3.93279,33.96805 v 30.19383 C 188.77389,512 192.70668,512 192.70668,496.90309 v -7.54846 l 7.86558,7.54846 3.93279,3.77422 3.93279,3.77423 v 3.77423 h 19.66394 l -3.93279,-3.77423 -3.93278,-7.54845 -3.93279,-3.77423 v -11.32269 c 7.86557,-3.77423 11.79836,-18.87114 7.86557,-26.4196 l -3.93278,-3.77423 c -3.93279,-7.54845 -31.46232,-11.32268 -39.3279,-7.54845 m 161.24436,0 -3.93279,33.96805 c 0,33.96806 0,30.19383 7.86558,30.19383 11.79837,3.77423 7.86558,3.77423 7.86558,-30.19383 0,-37.74228 0,-37.74228 -11.79837,-33.96805 m 471.9347,0 v 64.16188 L 821.95295,512 c 7.86558,0 7.86558,-3.77423 7.86558,-11.32269 0,-11.32268 3.93279,-15.09691 7.86558,-7.54845 l 3.93279,3.77423 v 3.77422 C 845.54969,508.22577 849.48248,512 857.34806,512 c 11.79836,0 11.79836,-3.77423 7.86557,-7.54846 -15.73115,-18.87114 -15.73115,-18.87114 -11.79836,-22.64537 7.86557,-3.77423 11.79836,-15.09691 7.86557,-22.64537 -3.93278,-11.32269 -11.79836,-15.09691 -31.46231,-15.09691 h -15.73116 m 169.10994,0 v 64.16188 L 1002.8613,512 c 15.7311,0 15.7311,-3.77423 15.7311,-7.54846 0,-7.54845 0,-7.54845 -7.8656,-7.54845 l -11.79833,-3.77423 c 0,-7.54846 3.93283,-11.32269 11.79833,-7.54846 7.8656,0 7.8656,-3.77423 7.8656,-7.54846 0,-7.54845 0,-7.54845 -7.8656,-7.54845 -7.8655,0 -11.79833,-3.77423 -11.79833,-7.54846 l 11.79833,-3.77423 c 11.7984,0 15.7312,-3.77423 11.7984,-11.32269 l -19.6639,-3.77422 h -19.66399 m -955.667785,0 C 7.8655785,447.83811 7.8655785,447.83811 7.8655785,455.38657 l 7.8655785,3.77423 c 7.865578,0 7.865578,0 7.865578,26.4196 0,26.4196 -3.932789,26.4196 7.865579,26.4196 7.865578,-3.77423 7.865578,0 7.865578,-26.4196 0,-26.4196 0,-26.4196 7.865579,-26.4196 l 7.865578,-7.54846 -7.865578,-7.54845 H 27.529525 m 637.111855,0 c -3.93279,3.77422 -7.86558,3.77422 -7.86558,11.32268 l -3.93279,3.77423 v 3.77423 l -3.93278,11.32268 -3.93279,3.77423 -3.93279,7.54846 v 11.32269 l -3.93279,3.77422 C 633.17907,508.22577 633.17907,512 641.04465,512 c 7.86558,0 11.79836,-3.77423 11.79836,-7.54846 l 15.73116,-3.77423 15.73116,3.77423 C 688.23812,512 688.23812,512 700.03649,512 v -15.09691 l -3.93279,-7.54846 -3.93279,-7.54846 -3.93279,-7.54846 v -7.54845 l -3.93279,-7.54846 -3.93279,-7.54846 -15.73116,-7.54845 m 173.04273,11.32268 c 11.79837,3.77423 7.86558,18.87114 0,18.87114 -3.93279,0 -7.86558,0 -7.86558,-7.54845 0,-7.54846 3.93279,-11.32269 7.86558,-11.32269 m -633.17906,3.77423 h 3.93279 v 7.54846 c 0,7.54845 -15.73116,11.32268 -15.73116,3.77423 -3.93279,-11.32269 3.93279,-15.09692 11.79837,-11.32269 m 468.00191,15.09691 v 11.32269 l -11.79837,-3.77423 3.93279,-3.77423 c 0,-7.54845 3.93279,-11.32268 7.86558,-3.77423"
       id="path3"
       style="stroke-width:3.8527" />
  </g>
</svg>
