<?xml version="1.0" encoding="utf-8"?>
<!-- Generator: Adobe Illustrator 25.4.1, SVG Export Plug-In . SVG Version: 6.00 Build 0)  -->
<svg version="1.1" id="Layer_1" xmlns="http://www.w3.org/2000/svg" xmlns:xlink="http://www.w3.org/1999/xlink" x="0px" y="0px"
	 viewBox="0 0 221.11 54.5" style="enable-background:new 0 0 221.11 54.5;" xml:space="preserve">
<style type="text/css">
	.st0{fill:#005D63;}
	.st1{fill:#F58220;}
	.st2{fill:#FFFFFF;}
	.st3{fill:#005D63;stroke:#005D63;stroke-miterlimit:10;}
</style>
<g id="XMLID_120_">
	<g>
		<g>
			<path class="st0" d="M65.56,17.92c-0.09-0.65-0.4-1.19-0.95-1.63c-0.55-0.44-1.19-0.66-1.91-0.66c-0.62,0-1.16,0.12-1.62,0.37
				s-0.83,0.57-1.11,0.99c-0.28,0.42-0.49,0.89-0.62,1.43c-0.13,0.54-0.2,1.11-0.2,1.7c0,0.57,0.07,1.12,0.2,1.64
				c0.13,0.52,0.35,0.99,0.63,1.4c0.29,0.42,0.66,0.74,1.11,0.98c0.45,0.24,0.99,0.36,1.61,0.36c0.85,0,1.54-0.27,2.04-0.8
				c0.51-0.53,0.82-1.24,0.93-2.13h2.79c-0.07,0.81-0.26,1.54-0.57,2.2c-0.31,0.66-0.71,1.22-1.22,1.69
				c-0.51,0.47-1.1,0.83-1.77,1.08c-0.67,0.25-1.4,0.38-2.2,0.38c-0.99,0-1.88-0.17-2.68-0.52c-0.8-0.35-1.48-0.83-2.03-1.45
				c-0.56-0.62-0.98-1.34-1.27-2.17c-0.29-0.83-0.44-1.72-0.44-2.66c0-0.96,0.15-1.87,0.44-2.71c0.29-0.84,0.72-1.58,1.27-2.21
				c0.56-0.63,1.23-1.12,2.03-1.47c0.8-0.35,1.7-0.52,2.68-0.52c0.72,0,1.4,0.1,2.05,0.31c0.65,0.21,1.22,0.51,1.73,0.92
				c0.51,0.4,0.92,0.9,1.25,1.48c0.32,0.59,0.53,1.25,0.61,2H65.56z"/>
			<path class="st0" d="M70.42,13.52h9.79v2.42H73.3v2.8h6.34v2.24H73.3v3.21h7.05v2.42h-9.93V13.52z"/>
			<path class="st0" d="M82.29,13.52h2.86l5.46,8.78h0.04v-8.78h2.69V26.6h-2.88l-5.44-8.76h-0.04v8.76h-2.69V13.52z"/>
			<path class="st0" d="M98.77,15.94h-3.92v-2.42h10.72v2.42h-3.92V26.6h-2.88V15.94z"/>
			<path class="st0" d="M107.07,13.52h7.05c0.57,0,1.1,0.09,1.58,0.28c0.48,0.18,0.88,0.44,1.22,0.78c0.34,0.34,0.59,0.72,0.77,1.15
				c0.18,0.43,0.27,0.9,0.27,1.4c0,0.79-0.17,1.47-0.5,2.02c-0.34,0.56-0.86,0.97-1.57,1.26v0.04c0.65,0.17,1.11,0.53,1.4,1.07
				c0.29,0.54,0.45,1.21,0.5,1.99c0,0.05,0.01,0.2,0.02,0.44c0.04,0.62,0.09,1.15,0.16,1.59c0.07,0.44,0.19,0.79,0.38,1.06h-2.88
				c-0.11-0.24-0.19-0.53-0.23-0.84c-0.04-0.32-0.08-0.73-0.12-1.23c-0.04-0.46-0.07-0.82-0.11-1.06c-0.1-0.71-0.31-1.22-0.63-1.52
				c-0.32-0.31-0.84-0.46-1.55-0.46h-2.88v5.11h-2.88V13.52z M109.94,19.44h3.15c0.66,0,1.15-0.15,1.48-0.45
				c0.33-0.3,0.49-0.77,0.49-1.42c0-0.62-0.16-1.08-0.49-1.37c-0.33-0.29-0.82-0.44-1.48-0.44h-3.15V19.44z"/>
			<path class="st0" d="M123.87,13.52h2.95l4.89,13.08h-2.99l-0.99-2.91h-4.89l-1.03,2.91h-2.91L123.87,13.52z M123.6,21.54h3.39
				l-1.65-4.8h-0.04L123.6,21.54z"/>
			<path class="st0" d="M132.85,13.52h2.88v10.66h6.38v2.42h-9.25V13.52z"/>
			<path class="st0" d="M148.81,13.52h2.88v5.02h5.3v-5.02h2.88V26.6h-2.88v-5.64h-5.3v5.64h-2.88V13.52z"/>
			<path class="st0" d="M162.39,13.52h9.79v2.42h-6.91v2.8h6.34v2.24h-6.34v3.21h7.05v2.42h-9.93V13.52z"/>
			<path class="st0" d="M177.84,13.52h2.95l4.89,13.08h-2.99l-0.99-2.91h-4.89l-1.03,2.91h-2.91L177.84,13.52z M177.56,21.54h3.39
				l-1.65-4.8h-0.04L177.56,21.54z"/>
			<path class="st0" d="M186.81,13.52h2.88v10.66h6.38v2.42h-9.25V13.52z"/>
			<path class="st0" d="M198.54,15.94h-3.92v-2.42h10.72v2.42h-3.92V26.6h-2.88V15.94z"/>
			<path class="st0" d="M206.84,13.52h2.88v5.02h5.3v-5.02h2.88V26.6h-2.88v-5.64h-5.3v5.64h-2.88V13.52z"/>
			<path class="st1" d="M56.84,31.84h4.05l3.06,9h0.04l2.9-9h4.05v13.08h-2.69v-9.27H68.2L65,44.93h-2.22l-3.21-9.18h-0.04v9.18
				h-2.69V31.84z"/>
			<path class="st1" d="M74.6,31.84h9.79v2.42h-6.91v2.8h6.34v2.24h-6.34v3.21h7.05v2.42H74.6V31.84z"/>
			<path class="st1" d="M87.61,31.84h5.64c1.77,0,3.2,0.55,4.3,1.66c1.09,1.11,1.64,2.71,1.64,4.81c0,0.96-0.12,1.85-0.37,2.65
				s-0.62,1.5-1.12,2.1c-0.5,0.6-1.12,1.06-1.87,1.38c-0.74,0.32-1.61,0.49-2.58,0.49h-5.64V31.84z M90.48,42.51h2.57
				c0.44,0,0.85-0.07,1.24-0.21c0.39-0.14,0.73-0.37,1.04-0.68c0.31-0.31,0.55-0.72,0.72-1.23c0.18-0.51,0.27-1.11,0.27-1.81
				c0-1.4-0.29-2.48-0.86-3.22c-0.57-0.74-1.55-1.11-2.91-1.11h-2.05V42.51z"/>
			<path class="st1" d="M102.32,31.84h2.88v13.08h-2.88V31.84z"/>
			<path class="st1" d="M117.59,36.24c-0.09-0.65-0.4-1.19-0.95-1.63c-0.55-0.44-1.19-0.66-1.91-0.66c-0.62,0-1.16,0.12-1.62,0.37
				c-0.46,0.24-0.83,0.57-1.11,0.99c-0.28,0.42-0.49,0.89-0.62,1.43c-0.13,0.54-0.2,1.11-0.2,1.7c0,0.57,0.07,1.12,0.2,1.64
				c0.13,0.52,0.35,0.99,0.63,1.4c0.29,0.42,0.66,0.74,1.11,0.98c0.45,0.24,0.99,0.36,1.61,0.36c0.85,0,1.54-0.27,2.04-0.8
				c0.51-0.53,0.82-1.24,0.93-2.13h2.79c-0.07,0.81-0.26,1.54-0.57,2.2c-0.31,0.66-0.71,1.22-1.22,1.69
				c-0.51,0.47-1.1,0.83-1.77,1.08c-0.67,0.25-1.4,0.38-2.2,0.38c-0.99,0-1.88-0.17-2.68-0.52c-0.8-0.35-1.48-0.83-2.03-1.45
				c-0.56-0.62-0.98-1.34-1.27-2.17c-0.29-0.83-0.44-1.72-0.44-2.66c0-0.96,0.15-1.87,0.44-2.71c0.29-0.84,0.72-1.58,1.27-2.21
				c0.56-0.63,1.23-1.12,2.03-1.47c0.8-0.35,1.7-0.52,2.68-0.52c0.72,0,1.4,0.1,2.05,0.31c0.65,0.21,1.22,0.51,1.73,0.92
				c0.51,0.4,0.92,0.9,1.25,1.48c0.32,0.59,0.53,1.25,0.61,2H117.59z"/>
			<path class="st1" d="M127.15,31.84h2.95l4.89,13.08h-2.99l-0.99-2.91h-4.89l-1.03,2.91h-2.91L127.15,31.84z M126.88,39.87h3.39
				l-1.65-4.8h-0.04L126.88,39.87z"/>
			<path class="st1" d="M137.27,31.84h7.05c0.57,0,1.1,0.09,1.58,0.28c0.48,0.18,0.88,0.44,1.22,0.78c0.34,0.34,0.59,0.72,0.77,1.15
				s0.27,0.9,0.27,1.4c0,0.79-0.17,1.47-0.5,2.02c-0.34,0.56-0.86,0.97-1.57,1.26v0.04c0.65,0.17,1.11,0.53,1.4,1.07
				c0.29,0.54,0.45,1.21,0.5,1.99c0,0.05,0.01,0.2,0.02,0.44c0.04,0.62,0.09,1.15,0.16,1.59c0.07,0.44,0.19,0.79,0.38,1.06h-2.88
				c-0.11-0.24-0.19-0.53-0.23-0.84c-0.04-0.32-0.08-0.73-0.12-1.23c-0.04-0.46-0.07-0.82-0.11-1.06c-0.1-0.71-0.31-1.22-0.63-1.52
				c-0.32-0.31-0.84-0.46-1.55-0.46h-2.88v5.11h-2.88V31.84z M140.14,37.76h3.15c0.66,0,1.15-0.15,1.48-0.45
				c0.33-0.3,0.49-0.77,0.49-1.42c0-0.62-0.16-1.08-0.49-1.37c-0.33-0.29-0.82-0.44-1.48-0.44h-3.15V37.76z"/>
			<path class="st1" d="M151.63,31.84h9.79v2.42h-6.91v2.8h6.34v2.24h-6.34v3.21h7.05v2.42h-9.93V31.84z"/>
			<path class="st0" d="M170.19,31.84h5.9c0.78,0,1.46,0.11,2.04,0.34s1.05,0.54,1.42,0.93c0.37,0.4,0.63,0.85,0.81,1.35
				c0.17,0.5,0.26,1.03,0.26,1.58c0,0.55-0.09,1.08-0.26,1.58c-0.17,0.5-0.44,0.95-0.81,1.35s-0.84,0.71-1.42,0.93
				s-1.26,0.34-2.04,0.34h-3.02v4.69h-2.88V31.84z M173.07,38h2.24c0.37,0,0.7-0.03,0.99-0.08c0.29-0.06,0.56-0.15,0.8-0.29
				c0.24-0.14,0.42-0.34,0.55-0.6c0.13-0.26,0.19-0.59,0.19-0.99s-0.06-0.73-0.19-0.99c-0.13-0.26-0.31-0.46-0.55-0.6
				c-0.24-0.15-0.5-0.24-0.8-0.29c-0.29-0.05-0.62-0.07-0.99-0.07h-2.24V38z"/>
			<path class="st0" d="M182.87,31.84h2.88v10.66h6.38v2.42h-9.25V31.84z"/>
			<path class="st0" d="M197.77,31.84h2.95l4.89,13.08h-2.99l-0.99-2.91h-4.89l-1.03,2.91h-2.91L197.77,31.84z M197.5,39.87h3.39
				l-1.65-4.8h-0.04L197.5,39.87z"/>
			<path class="st0" d="M207.21,31.84h2.86l5.46,8.78h0.04v-8.78h2.69v13.08h-2.88l-5.44-8.76h-0.04v8.76h-2.69V31.84z"/>
		</g>
	</g>
	<g id="XMLID_121_">
		<g id="XMLID_122_">
			<path id="XMLID_147_" class="st2" d="M26.98,2.87c-13.65,0-24.71,11.06-24.71,24.71c0,13.66,11.06,24.72,24.71,24.72
				s24.72-11.07,24.72-24.72C51.69,13.93,40.63,2.87,26.98,2.87"/>
			<path id="XMLID_139_" class="st0" d="M26.98,2.86c-13.66,0-24.72,11.07-24.72,24.72c0,13.66,11.07,24.72,24.72,24.72
				c13.65,0,24.72-11.07,24.72-24.72C51.7,13.93,40.63,2.86,26.98,2.86 M26.98,50.6c-12.71,0-23.02-10.3-23.02-23.02
				c0-12.71,10.31-23.02,23.02-23.02C39.69,4.56,50,14.87,50,27.58C50,40.29,39.69,50.6,26.98,50.6"/>
			<path id="XMLID_136_" class="st0" d="M24.49,19.21c0,1.09-0.88,1.97-1.97,1.97c-1.08,0-1.96-0.88-1.96-1.97
				c0-1.09,0.88-1.97,1.96-1.97C23.61,17.24,24.49,18.12,24.49,19.21"/>
			<path id="XMLID_133_" class="st0" d="M32.36,20.7c0,1.09-0.88,1.97-1.97,1.97c-1.09,0-1.97-0.88-1.97-1.97
				c0-1.09,0.88-1.97,1.97-1.97C31.48,18.73,32.36,19.61,32.36,20.7"/>
			<path id="XMLID_130_" class="st0" d="M20.74,21.81h3.78c0.35,0.1,0.78,0.24,1,0.55c0.51,0.72,0.45,1.6,0.45,2.44v1.04l-0.05,0.7
				c0,1.22-0.26,2.41-0.35,3.59l-0.1,1.34c0,0-0.09,1.2-0.1,1.29c-0.03,0.46-0.22,0.91-0.35,1.35l-0.1,0.35l-0.14,2.5l-0.05,1.04
				l-0.1,1.25l-0.1,1.64v0.15l-0.05,0.45l-3.74-1.1l-0.05-0.95c0-1.19,0-2.35-0.1-3.54l-0.09-1.25l-0.15-2.04l-0.25-1.55
				c0,0-0.69-3.05-0.7-3.09c-0.09-0.37-0.17-0.77-0.2-1.15l-0.15-1.55l0.05-0.89c0.09-0.67,0.18-1.18,0.45-1.8
				C19.75,22.12,20.21,21.81,20.74,21.81"/>
			<rect id="XMLID_127_" x="25.29" y="28.29" class="st0" width="3.22" height="1.83"/>
			<path id="XMLID_124_" class="st0" d="M29.47,23.51h2.06c0.73,0,1.23,0.66,1.46,1.27c0.23,0.63,0.26,1.35,0.21,2.01
				c-0.05,0.63-0.26,1.22-0.41,1.83c-0.15,0.59-0.13,1.13-0.13,1.73c0,0.83,0.01,1.69-0.11,2.5l-0.11,1.39
				c-0.13,0.85-0.21,1.69-0.26,2.54l-0.03,0.82l-0.15,1.91l-0.15,1.27l-2.5,0.67l-0.23-1.98l-0.11-1.68l-0.22-1.76l-0.15-1.6
				l-0.11-1.54l-0.11-1.57l-0.12-0.89l-0.03-2.47l-0.19-1.42c0,0-0.07-0.96-0.07-1.04C27.91,24.54,28.55,23.69,29.47,23.51"/>
			<path id="XMLID_123_" class="st1" d="M26.98,41.58c-7.73,0-14-6.27-14-14c0-7.73,6.27-14,14-14c5.35,0,10,3.01,12.36,7.42h7.8
				C44.38,12.51,36.4,6.37,26.98,6.37c-11.71,0-21.21,9.5-21.21,21.21c0,11.72,9.5,21.21,21.21,21.21c9.36,0,17.31-6.07,20.12-14.48
				h-7.84C36.88,38.64,32.27,41.58,26.98,41.58"/>
		</g>
	</g>
</g>
<g>
	<g>
		<path class="st3" d="M434.75-29.34c-6.8,0.47-14.25,0.88-18.79,1.12c-0.03,0.24-0.17,0.41-0.44,0.47l-0.95-2.34
			c4.6-0.17,12.66-0.51,20.21-0.95L434.75-29.34z"/>
	</g>
</g>
</svg>
