<svg xmlns="http://www.w3.org/2000/svg" xmlns:xlink="http://www.w3.org/1999/xlink" version="1.0" viewBox="0 0 1024.0001 1024">
  <defs>
    <linearGradient id="b">
      <stop offset="0" stop-color="#fff"/>
    </linearGradient>
    <linearGradient id="a">
      <stop offset="0"/>
    </linearGradient>
    <linearGradient xlink:href="#a" id="e" x1="179.77654" x2="848.4422" y1="301.0311" y2="301.0311" gradientTransform="matrix(.99903 0 0 .99902 .49731989 .5022535)" gradientUnits="userSpaceOnUse"/>
    <linearGradient xlink:href="#a" id="c" x1="7.8e-7" x2="1024" y1="512" y2="512" gradientTransform="matrix(.99903 0 0 .99902 .49731989 .5022535)" gradientUnits="userSpaceOnUse"/>
    <linearGradient xlink:href="#a" id="g" x1="161.8259" x2="867.20532" y1="596.29559" y2="596.29559" gradientTransform="matrix(.99903 0 0 .99902 .49731989 .5022535)" gradientUnits="userSpaceOnUse"/>
    <linearGradient xlink:href="#b" id="f" x1="179.77654" x2="848.4422" y1="301.0311" y2="301.0311" gradientTransform="matrix(.99903 0 0 .99902 .49731989 .5022535)" gradientUnits="userSpaceOnUse"/>
    <linearGradient xlink:href="#b" id="d" x1="7.8e-7" x2="1024" y1="512" y2="512" gradientTransform="matrix(.99903 0 0 .99902 .49731989 .5022535)" gradientUnits="userSpaceOnUse"/>
    <linearGradient xlink:href="#b" id="h" x1="161.8259" x2="867.20532" y1="596.29559" y2="596.29559" gradientTransform="matrix(.99903 0 0 .99902 .49731989 .5022535)" gradientUnits="userSpaceOnUse"/>
  </defs>
  <path fill="url(#c)" stroke="url(#d)" stroke-linecap="round" stroke-linejoin="round" d="M417.85269 10.039065C301.96037 33.62803 219.18014 73.514825 219.18014 106.53937c0 33.02456 30.27391 42.46015 67.64326 21.01564 159.41108-91.353637 374.63968-72.911357 512.76441 43.31792 107.37778 90.49584 157.04591 198.57619 143.80108 312.23211-26.01731 202.99915-253.44352 368.27451-431.40324 458.05483-4.25727 0-28.38179-20.58673-53.4524-45.89127-59.19223-60.20245-119.12825-74.95967-156.85942-97.57483-70.33513-42.15719-99.65347-64.64451-157.70544-128.87922-94.605962-136.81601-86.564456-310.94546 19.39422-439.18367 34.05815-41.17345 28.3818-73.34024-13.24484-73.34024-18.44815 0-33.58512 12.86672-64.332043 55.32686C-90.654416 455.22717 16.250336 766.17263 318.04339 887.54859c44.93784 18.0134 51.56024 22.30229 84.67234 54.89795 117.31142 114.08486 93.91928 96.76536 205.29498 15.86894l54.98683-39.93899 67.52791-42.40794c180.95547-113.64115 296.96745-258.7772 292.86945-427.85201-.9776-40.33435-8.7908-82.03107-24.18842-124.98756C920.21043 102.67935 657.67885-38.425538 417.85269 10.039065"/>
  <path fill="url(#e)" stroke="url(#f)" stroke-linecap="round" stroke-linejoin="round" d="M432.04357 124.55276c-151.84258 35.5979-304.15819 208.86957-234.62281 266.76975 31.693 26.5912 35.47725 24.87565 52.03329-23.16006 12.29877-34.74012 12.29877-34.74012 46.82996-18.44228 43.51874 20.58674 96.97112 36.88456 141.90897 42.88902 35.00419 4.71778 35.00419 4.71778 37.84239 38.17123 3.31123 48.8935 13.24485 60.04464 48.24906 54.04018 19.86726-3.43112 26.01663-17.5845 26.01663-58.32907 0-29.16456 0-29.16456 26.9627-32.16678 43.99177-4.71778 105.01264-22.73117 145.6932-42.46013 42.09966-20.15784 46.35693-17.58451 58.6557 31.30899 4.25728 17.15562 10.87968 25.7334 20.81332 26.1623 1.89211 0 13.24484-8.14891 24.59756-17.5845 26.48967-22.30229 27.43572-33.88232 6.14939-79.77359-62.91298-137.67379-247.39462-223.880725-401.12936-187.42506m43.51876 107.22259c1.89214 53.18239 13.24485 69.48022 43.51876 64.33353 25.54363-4.71779 28.85482-11.15114 30.27391-63.04687 1.89212-47.60683 1.89212-47.60683 20.81331-45.03349 42.57271 6.43337 125.35292 53.1824 140.96291 80.2025 16.55604 27.44898-139.07079 66.47799-236.51493 58.75797-60.07482-4.7178-165.56047-39.45791-165.56047-54.46907 0-15.44005 83.72627-66.90689 130.08322-80.20248 35.00421-10.29338 34.05813-11.15116 36.42329 39.45791"/>
  <path fill="url(#g)" stroke="url(#h)" stroke-linecap="round" stroke-linejoin="round" d="M165.72777 425.20486c-7.09546 6.00446-2.83818 69.90911 6.14939 102.50478 98.86324 352.11892 653.72728 307.94321 693.46181-54.89797 5.2033-48.0357-2.83819-60.47352-26.01666-40.31568-61.49388 52.75351-203.40286 78.48693-381.26209 69.05132-113.52717-6.00445-195.36134-25.30452-251.65189-59.18684-35.47723-21.44452-35.95025-21.8734-40.68056-17.15561m124.87989 125.23596c46.35692 14.58226 131.97533 30.45121 164.61438 30.45121 22.23243 0 22.23243 0 22.23243 62.18909-.47304 34.31123-1.89214 62.1891-3.31122 62.1891-21.28636 0-124.40687-42.46015-144.74716-59.61576-27.43572-23.16008-90.34871-107.65147-80.41507-107.65147.94606 0 19.86725 5.57557 41.62664 12.43783m478.98303-3.61527c-17.29506 51.75278-34.47496 77.81129-72.39577 111.26175-29.80088 25.73342-81.1427 32.60065-118.51207 40.32068-41.12615 12.09041-29.57281-18.30421-30.38531-45.62774 4.41831-27.78867-10.87023-65.56788 24.70895-69.74376 32.76631-3.42793 133.70093-22.73118 141.90897-22.73118z"/>
</svg>
