<svg width="306" height="284" viewBox="0 0 306 284" fill="none" xmlns="http://www.w3.org/2000/svg">
<path d="M-1.71419e-05 153C-1.53854e-05 132.908 3.95744 113.012 11.6464 94.4494C19.3354 75.8866 30.6053 59.02 44.8127 44.8127C59.02 30.6053 75.8866 19.3354 94.4494 11.6464C113.012 3.95747 132.908 1.53854e-05 153 1.71419e-05C173.092 1.88984e-05 192.988 3.95748 211.551 11.6464C230.113 19.3354 246.98 30.6053 261.187 44.8127C275.395 59.0201 286.665 75.8867 294.354 94.4495C302.043 113.012 306 132.908 306 153L244.994 153C244.994 140.919 242.614 128.957 237.991 117.796C233.368 106.634 226.592 96.493 218.049 87.9506C209.507 79.4082 199.366 72.632 188.205 68.0088C177.043 63.3857 165.081 61.0062 153 61.0062C140.919 61.0062 128.957 63.3857 117.796 68.0088C106.634 72.6319 96.493 79.4082 87.9506 87.9506C79.4081 96.493 72.6319 106.634 68.0088 117.795C63.3857 128.957 61.0062 140.919 61.0062 153L-1.71419e-05 153Z" fill="#6D4C4C"/>
<path d="M-1.71419e-05 153C-1.44632e-05 122.359 9.19991 92.4245 26.4083 67.0725C43.6166 41.7206 68.0405 22.1194 96.5167 10.8078C124.993 -0.503892 156.21 -3.00496 186.124 3.62856C216.038 10.2621 243.271 25.7245 264.296 48.0133L219.919 89.875C207.277 76.4735 190.902 67.1765 172.916 63.1879C154.93 59.1994 136.16 60.7032 119.038 67.5045C101.917 74.3059 87.2314 86.0914 76.8846 101.335C66.5378 116.578 61.0062 134.577 61.0062 153L-1.71419e-05 153Z" fill="#A57131"/>
<path d="M-1.71419e-05 153C-1.53854e-05 132.908 3.95744 113.012 11.6464 94.4494C19.3354 75.8866 30.6053 59.02 44.8127 44.8127C59.02 30.6053 75.8866 19.3354 94.4494 11.6464C113.012 3.95747 132.908 1.53854e-05 153 1.71419e-05L153 61.0062C140.919 61.0062 128.957 63.3857 117.796 68.0088C106.634 72.6319 96.493 79.4082 87.9506 87.9506C79.4081 96.493 72.6319 106.634 68.0088 117.795C63.3857 128.957 61.0062 140.919 61.0062 153L-1.71419e-05 153Z" fill="#B05321"/>
<path d="M-1.71419e-05 153C-1.49862e-05 128.342 5.9597 104.049 17.3715 82.191C28.7833 60.3327 45.3091 41.5563 65.5413 27.4613L100.414 77.5177C88.2491 85.9927 78.3126 97.2822 71.4511 110.425C64.5896 123.568 61.0062 138.174 61.0062 153L-1.71419e-05 153Z" fill="#56783C"/>
<path d="M-1.71419e-05 153C-1.52559e-05 131.427 4.56218 110.098 13.3871 90.4121L69.0554 115.368C63.7493 127.204 61.0062 140.029 61.0062 153L-1.71419e-05 153Z" fill="#BC8808"/>
<path d="M256.754 109.044V108.187L259.971 104.665C260.348 104.253 260.659 103.895 260.903 103.59C261.148 103.282 261.329 102.993 261.446 102.724C261.567 102.451 261.627 102.165 261.627 101.867C261.627 101.525 261.544 101.228 261.379 100.977C261.218 100.727 260.995 100.533 260.713 100.397C260.431 100.26 260.113 100.192 259.761 100.192C259.387 100.192 259.06 100.27 258.781 100.425C258.505 100.577 258.291 100.792 258.138 101.068C257.989 101.344 257.915 101.667 257.915 102.038H256.792C256.792 101.467 256.923 100.966 257.187 100.535C257.45 100.103 257.808 99.7668 258.262 99.5257C258.719 99.2846 259.231 99.164 259.799 99.164C260.37 99.164 260.876 99.2846 261.317 99.5257C261.758 99.7668 262.104 100.092 262.355 100.501C262.606 100.911 262.731 101.366 262.731 101.867C262.731 102.226 262.666 102.576 262.536 102.919C262.409 103.258 262.187 103.638 261.87 104.056C261.555 104.472 261.119 104.98 260.561 105.579L258.372 107.921V107.997H262.902V109.044H256.754ZM267.913 109.177C267.355 109.177 266.852 109.066 266.405 108.844C265.958 108.622 265.599 108.317 265.329 107.93C265.06 107.543 264.912 107.102 264.887 106.607H266.029C266.073 107.048 266.273 107.413 266.629 107.702C266.987 107.987 267.415 108.13 267.913 108.13C268.313 108.13 268.669 108.036 268.98 107.849C269.294 107.662 269.54 107.405 269.717 107.078C269.898 106.748 269.988 106.376 269.988 105.96C269.988 105.535 269.895 105.156 269.708 104.823C269.524 104.486 269.27 104.221 268.946 104.028C268.623 103.834 268.253 103.736 267.837 103.733C267.539 103.73 267.233 103.776 266.919 103.871C266.605 103.963 266.346 104.082 266.143 104.228L265.039 104.094L265.629 99.2973H270.693V100.344H266.619L266.276 103.219H266.333C266.533 103.06 266.784 102.928 267.085 102.824C267.387 102.719 267.701 102.667 268.028 102.667C268.624 102.667 269.156 102.809 269.622 103.095C270.092 103.377 270.46 103.764 270.726 104.256C270.996 104.748 271.131 105.31 271.131 105.941C271.131 106.563 270.991 107.118 270.712 107.607C270.436 108.092 270.055 108.476 269.57 108.758C269.084 109.037 268.532 109.177 267.913 109.177ZM277.99 107.216V106.702C277.99 106.347 278.063 106.022 278.208 105.727C278.358 105.429 278.573 105.191 278.856 105.013C279.141 104.832 279.487 104.742 279.893 104.742C280.306 104.742 280.651 104.832 280.931 105.013C281.21 105.191 281.421 105.429 281.564 105.727C281.706 106.022 281.778 106.347 281.778 106.702V107.216C281.778 107.572 281.705 107.898 281.559 108.197C281.416 108.492 281.204 108.73 280.921 108.911C280.642 109.088 280.299 109.177 279.893 109.177C279.481 109.177 279.133 109.088 278.851 108.911C278.569 108.73 278.354 108.492 278.208 108.197C278.063 107.898 277.99 107.572 277.99 107.216ZM278.96 106.702V107.216C278.96 107.511 279.03 107.776 279.17 108.011C279.309 108.243 279.551 108.358 279.893 108.358C280.226 108.358 280.461 108.243 280.598 108.011C280.737 107.776 280.807 107.511 280.807 107.216V106.702C280.807 106.407 280.74 106.144 280.607 105.912C280.474 105.678 280.236 105.56 279.893 105.56C279.56 105.56 279.321 105.678 279.175 105.912C279.032 106.144 278.96 106.407 278.96 106.702ZM273.135 101.639V101.125C273.135 100.769 273.208 100.444 273.354 100.149C273.503 99.8509 273.719 99.613 274.001 99.4353C274.287 99.2544 274.633 99.164 275.039 99.164C275.451 99.164 275.797 99.2544 276.076 99.4353C276.356 99.613 276.567 99.8509 276.709 100.149C276.852 100.444 276.924 100.769 276.924 101.125V101.639C276.924 101.994 276.851 102.321 276.705 102.619C276.562 102.914 276.349 103.152 276.067 103.333C275.788 103.511 275.445 103.599 275.039 103.599C274.627 103.599 274.279 103.511 273.997 103.333C273.714 103.152 273.5 102.914 273.354 102.619C273.208 102.321 273.135 101.994 273.135 101.639ZM274.106 101.125V101.639C274.106 101.934 274.176 102.199 274.316 102.433C274.455 102.665 274.696 102.781 275.039 102.781C275.372 102.781 275.607 102.665 275.743 102.433C275.883 102.199 275.953 101.934 275.953 101.639V101.125C275.953 100.83 275.886 100.566 275.753 100.335C275.62 100.1 275.382 99.9826 275.039 99.9826C274.706 99.9826 274.466 100.1 274.32 100.335C274.178 100.566 274.106 100.83 274.106 101.125ZM273.497 109.044L280.198 99.2973H281.283L274.582 109.044H273.497Z" fill="white"/>
<path d="M196.447 45.3869V44.5302L199.664 41.0085C200.042 40.5961 200.352 40.2376 200.597 39.933C200.841 39.6252 201.022 39.3365 201.139 39.0668C201.26 38.794 201.32 38.5085 201.32 38.2102C201.32 37.8676 201.238 37.5709 201.073 37.3203C200.911 37.0696 200.689 36.8761 200.406 36.7397C200.124 36.6033 199.807 36.535 199.455 36.535C199.08 36.535 198.753 36.6128 198.474 36.7682C198.198 36.9205 197.984 37.1347 197.832 37.4107C197.683 37.6867 197.608 38.0103 197.608 38.3815H196.485C196.485 37.8105 196.617 37.3092 196.88 36.8777C197.143 36.4462 197.502 36.1099 197.956 35.8688C198.412 35.6276 198.925 35.5071 199.493 35.5071C200.064 35.5071 200.57 35.6276 201.011 35.8688C201.452 36.1099 201.798 36.4351 202.048 36.8444C202.299 37.2537 202.424 37.7089 202.424 38.2102C202.424 38.5687 202.359 38.9193 202.229 39.262C202.102 39.6014 201.88 39.9806 201.563 40.3994C201.249 40.815 200.813 41.3226 200.254 41.9223L198.065 44.2637V44.3399H202.596V45.3869H196.447ZM207.607 45.5201C207.048 45.5201 206.546 45.4091 206.098 45.187C205.651 44.9649 205.292 44.6603 205.023 44.2732C204.753 43.8862 204.605 43.4452 204.58 42.9502H205.722C205.767 43.3912 205.967 43.7561 206.322 44.0448C206.68 44.3303 207.109 44.4731 207.607 44.4731C208.007 44.4731 208.362 44.3795 208.673 44.1923C208.987 44.0051 209.233 43.7482 209.411 43.4214C209.591 43.0914 209.682 42.7186 209.682 42.303C209.682 41.8779 209.588 41.4987 209.401 41.1656C209.217 40.8293 208.963 40.5644 208.64 40.3708C208.316 40.1773 207.946 40.0789 207.531 40.0758C207.232 40.0726 206.926 40.1186 206.612 40.2138C206.298 40.3058 206.04 40.4248 205.836 40.5707L204.732 40.4375L205.323 35.6403H210.386V36.6873H206.312L205.97 39.5618H206.027C206.227 39.4032 206.477 39.2715 206.779 39.1668C207.08 39.0621 207.394 39.0097 207.721 39.0097C208.318 39.0097 208.849 39.1525 209.315 39.4381C209.785 39.7204 210.153 40.1075 210.419 40.5993C210.689 41.091 210.824 41.6526 210.824 42.284C210.824 42.9058 210.684 43.461 210.405 43.9496C210.129 44.435 209.748 44.8189 209.263 45.1013C208.778 45.3805 208.226 45.5201 207.607 45.5201ZM217.683 43.5594V43.0454C217.683 42.6901 217.756 42.3649 217.902 42.0698C218.051 41.7716 218.267 41.5336 218.549 41.3559C218.835 41.1751 219.18 41.0847 219.587 41.0847C219.999 41.0847 220.345 41.1751 220.624 41.3559C220.903 41.5336 221.114 41.7716 221.257 42.0698C221.4 42.3649 221.471 42.6901 221.471 43.0454V43.5594C221.471 43.9147 221.398 44.2415 221.252 44.5397C221.109 44.8348 220.897 45.0728 220.615 45.2536C220.335 45.4313 219.993 45.5201 219.587 45.5201C219.174 45.5201 218.827 45.4313 218.544 45.2536C218.262 45.0728 218.048 44.8348 217.902 44.5397C217.756 44.2415 217.683 43.9147 217.683 43.5594ZM218.654 43.0454V43.5594C218.654 43.8544 218.724 44.1194 218.863 44.3541C219.003 44.5858 219.244 44.7016 219.587 44.7016C219.92 44.7016 220.154 44.5858 220.291 44.3541C220.43 44.1194 220.5 43.8544 220.5 43.5594V43.0454C220.5 42.7503 220.434 42.487 220.3 42.2554C220.167 42.0206 219.929 41.9032 219.587 41.9032C219.253 41.9032 219.014 42.0206 218.868 42.2554C218.725 42.487 218.654 42.7503 218.654 43.0454ZM212.829 37.9818V37.4678C212.829 37.1125 212.902 36.7873 213.048 36.4922C213.197 36.194 213.412 35.956 213.695 35.7784C213.98 35.5975 214.326 35.5071 214.732 35.5071C215.145 35.5071 215.491 35.5975 215.77 35.7784C216.049 35.956 216.26 36.194 216.403 36.4922C216.546 36.7873 216.617 37.1125 216.617 37.4678V37.9818C216.617 38.3371 216.544 38.6639 216.398 38.9622C216.255 39.2572 216.043 39.4952 215.76 39.676C215.481 39.8537 215.138 39.9425 214.732 39.9425C214.32 39.9425 213.972 39.8537 213.69 39.676C213.408 39.4952 213.194 39.2572 213.048 38.9622C212.902 38.6639 212.829 38.3371 212.829 37.9818ZM213.8 37.4678V37.9818C213.8 38.2768 213.869 38.5418 214.009 38.7765C214.149 39.0082 214.39 39.124 214.732 39.124C215.065 39.124 215.3 39.0082 215.437 38.7765C215.576 38.5418 215.646 38.2768 215.646 37.9818V37.4678C215.646 37.1728 215.579 36.9094 215.446 36.6778C215.313 36.443 215.075 36.3256 214.732 36.3256C214.399 36.3256 214.16 36.443 214.014 36.6778C213.871 36.9094 213.8 37.1728 213.8 37.4678ZM213.19 45.3869L219.891 35.6403H220.976L214.275 45.3869H213.19Z" fill="white"/>
<path d="M109.337 37.5694V36.7127L112.554 33.191C112.932 32.7786 113.243 32.4201 113.487 32.1155C113.731 31.8077 113.912 31.519 114.03 31.2494C114.15 30.9765 114.211 30.691 114.211 30.3927C114.211 30.0501 114.128 29.7534 113.963 29.5028C113.801 29.2521 113.579 29.0586 113.297 28.9222C113.014 28.7858 112.697 28.7175 112.345 28.7175C111.971 28.7175 111.644 28.7953 111.365 28.9507C111.089 29.103 110.874 29.3172 110.722 29.5932C110.573 29.8692 110.498 30.1928 110.498 30.5641H109.375C109.375 29.993 109.507 29.4917 109.77 29.0602C110.034 28.6287 110.392 28.2924 110.846 28.0513C111.303 27.8102 111.815 27.6896 112.383 27.6896C112.954 27.6896 113.46 27.8102 113.901 28.0513C114.342 28.2924 114.688 28.6176 114.939 29.0269C115.189 29.4362 115.315 29.8914 115.315 30.3927C115.315 30.7512 115.25 31.1018 115.12 31.4445C114.993 31.784 114.771 32.1631 114.453 32.5819C114.139 32.9975 113.703 33.5051 113.145 34.1048L110.955 36.4462V36.5224H115.486V37.5694H109.337ZM120.63 37.7026C119.913 37.7026 119.303 37.5075 118.798 37.1172C118.294 36.7238 117.908 36.1543 117.642 35.4088C117.375 34.66 117.242 33.7558 117.242 32.6961C117.242 31.6428 117.375 30.7433 117.642 29.9977C117.911 29.249 118.299 28.6779 118.803 28.2845C119.311 27.8879 119.92 27.6896 120.63 27.6896C121.341 27.6896 121.949 27.8879 122.453 28.2845C122.961 28.6779 123.348 29.249 123.614 29.9977C123.884 30.7433 124.019 31.6428 124.019 32.6961C124.019 33.7558 123.886 34.66 123.619 35.4088C123.353 36.1543 122.967 36.7238 122.463 37.1172C121.958 37.5075 121.348 37.7026 120.63 37.7026ZM120.63 36.6556C121.341 36.6556 121.893 36.313 122.287 35.6277C122.68 34.9424 122.877 33.9652 122.877 32.6961C122.877 31.8522 122.786 31.1335 122.605 30.5403C122.428 29.947 122.171 29.4949 121.835 29.1839C121.501 28.873 121.1 28.7175 120.63 28.7175C119.926 28.7175 119.376 29.065 118.979 29.7598C118.583 30.4514 118.384 31.4302 118.384 32.6961C118.384 33.54 118.473 34.2571 118.651 34.8472C118.828 35.4373 119.084 35.8862 119.417 36.194C119.753 36.5017 120.158 36.6556 120.63 36.6556ZM130.796 35.7419V35.2279C130.796 34.8726 130.869 34.5474 131.015 34.2523C131.164 33.9541 131.38 33.7161 131.662 33.5385C131.947 33.3576 132.293 33.2672 132.699 33.2672C133.112 33.2672 133.458 33.3576 133.737 33.5385C134.016 33.7161 134.227 33.9541 134.37 34.2523C134.513 34.5474 134.584 34.8726 134.584 35.2279V35.7419C134.584 36.0972 134.511 36.424 134.365 36.7222C134.222 37.0173 134.01 37.2553 133.727 37.4361C133.448 37.6138 133.106 37.7026 132.699 37.7026C132.287 37.7026 131.94 37.6138 131.657 37.4361C131.375 37.2553 131.161 37.0173 131.015 36.7222C130.869 36.424 130.796 36.0972 130.796 35.7419ZM131.767 35.2279V35.7419C131.767 36.0369 131.836 36.3019 131.976 36.5366C132.116 36.7683 132.357 36.8841 132.699 36.8841C133.033 36.8841 133.267 36.7683 133.404 36.5366C133.543 36.3019 133.613 36.0369 133.613 35.7419V35.2279C133.613 34.9329 133.547 34.6695 133.413 34.4379C133.28 34.2031 133.042 34.0857 132.699 34.0857C132.366 34.0857 132.127 34.2031 131.981 34.4379C131.838 34.6695 131.767 34.9329 131.767 35.2279ZM125.942 30.1643V29.6503C125.942 29.295 126.015 28.9698 126.16 28.6747C126.31 28.3765 126.525 28.1385 126.808 27.9609C127.093 27.78 127.439 27.6896 127.845 27.6896C128.258 27.6896 128.603 27.78 128.883 27.9609C129.162 28.1385 129.373 28.3765 129.516 28.6747C129.658 28.9698 129.73 29.295 129.73 29.6503V30.1643C129.73 30.5196 129.657 30.8464 129.511 31.1447C129.368 31.4397 129.156 31.6777 128.873 31.8585C128.594 32.0362 128.251 32.125 127.845 32.125C127.433 32.125 127.085 32.0362 126.803 31.8585C126.521 31.6777 126.306 31.4397 126.16 31.1447C126.015 30.8464 125.942 30.5196 125.942 30.1643ZM126.912 29.6503V30.1643C126.912 30.4594 126.982 30.7243 127.122 30.9591C127.261 31.1907 127.503 31.3065 127.845 31.3065C128.178 31.3065 128.413 31.1907 128.55 30.9591C128.689 30.7243 128.759 30.4594 128.759 30.1643V29.6503C128.759 29.3553 128.692 29.0919 128.559 28.8603C128.426 28.6255 128.188 28.5081 127.845 28.5081C127.512 28.5081 127.273 28.6255 127.127 28.8603C126.984 29.0919 126.912 29.3553 126.912 29.6503ZM126.303 37.5694L133.004 27.8228H134.089L127.388 37.5694H126.303Z" fill="white"/>
<path d="M52.4574 68.0272V77.7737H51.2772V69.2645H51.22L48.8405 70.8445V69.6453L51.2772 68.0272H52.4574ZM58.3063 77.907C57.7479 77.907 57.245 77.7959 56.7976 77.5738C56.3503 77.3517 55.9918 77.0472 55.7221 76.6601C55.4524 76.273 55.3049 75.832 55.2795 75.3371H56.4217C56.4661 75.7781 56.666 76.1429 57.0213 76.4317C57.3798 76.7172 57.8081 76.86 58.3063 76.86C58.706 76.86 59.0614 76.7664 59.3723 76.5792C59.6864 76.392 59.9323 76.135 60.1099 75.8082C60.2908 75.4783 60.3812 75.1055 60.3812 74.6899C60.3812 74.2647 60.2876 73.8856 60.1004 73.5524C59.9164 73.2161 59.6626 72.9512 59.339 72.7577C59.0154 72.5641 58.6457 72.4658 58.2301 72.4626C57.9319 72.4594 57.6257 72.5055 57.3116 72.6006C56.9975 72.6926 56.7389 72.8116 56.5359 72.9576L55.4318 72.8243L56.0219 68.0272H61.0855V69.0742H57.0118L56.6691 71.9486H56.7263C56.9261 71.79 57.1768 71.6583 57.4782 71.5536C57.7796 71.4489 58.0937 71.3966 58.4205 71.3966C59.0169 71.3966 59.5484 71.5394 60.0148 71.8249C60.4843 72.1073 60.8523 72.4943 61.1189 72.9861C61.3885 73.4779 61.5234 74.0395 61.5234 74.6708C61.5234 75.2927 61.3838 75.8479 61.1046 76.3365C60.8286 76.8219 60.4478 77.2058 59.9624 77.4882C59.477 77.7674 58.9249 77.907 58.3063 77.907ZM68.3823 75.9462V75.4323C68.3823 75.0769 68.4553 74.7517 68.6013 74.4567C68.7504 74.1584 68.9661 73.9205 69.2485 73.7428C69.534 73.562 69.8799 73.4715 70.286 73.4715C70.6984 73.4715 71.0442 73.562 71.3234 73.7428C71.6026 73.9205 71.8136 74.1584 71.9564 74.4567C72.0991 74.7517 72.1705 75.0769 72.1705 75.4323V75.9462C72.1705 76.3016 72.0976 76.6284 71.9516 76.9266C71.8088 77.2217 71.5963 77.4596 71.3139 77.6405C71.0347 77.8181 70.6921 77.907 70.286 77.907C69.8735 77.907 69.5261 77.8181 69.2437 77.6405C68.9614 77.4596 68.7472 77.2217 68.6013 76.9266C68.4553 76.6284 68.3823 76.3016 68.3823 75.9462ZM69.3532 75.4323V75.9462C69.3532 76.2413 69.423 76.5062 69.5626 76.741C69.7022 76.9726 69.9433 77.0884 70.286 77.0884C70.6191 77.0884 70.8539 76.9726 70.9903 76.741C71.1299 76.5062 71.1997 76.2413 71.1997 75.9462V75.4323C71.1997 75.1372 71.1331 74.8739 70.9998 74.6423C70.8666 74.4075 70.6286 74.2901 70.286 74.2901C69.9528 74.2901 69.7133 74.4075 69.5673 74.6423C69.4246 74.8739 69.3532 75.1372 69.3532 75.4323ZM63.5281 70.3686V69.8547C63.5281 69.4993 63.6011 69.1741 63.747 68.8791C63.8961 68.5808 64.1119 68.3429 64.3943 68.1652C64.6798 67.9844 65.0256 67.8939 65.4317 67.8939C65.8442 67.8939 66.19 67.9844 66.4692 68.1652C66.7484 68.3429 66.9594 68.5808 67.1022 68.8791C67.2449 69.1741 67.3163 69.4993 67.3163 69.8547V70.3686C67.3163 70.724 67.2433 71.0508 67.0974 71.349C66.9546 71.6441 66.7421 71.882 66.4597 72.0629C66.1805 72.2405 65.8378 72.3294 65.4317 72.3294C65.0193 72.3294 64.6719 72.2405 64.3895 72.0629C64.1071 71.882 63.893 71.6441 63.747 71.349C63.6011 71.0508 63.5281 70.724 63.5281 70.3686ZM64.499 69.8547V70.3686C64.499 70.6637 64.5688 70.9286 64.7084 71.1634C64.848 71.395 65.0891 71.5108 65.4317 71.5108C65.7649 71.5108 65.9996 71.395 66.1361 71.1634C66.2757 70.9286 66.3455 70.6637 66.3455 70.3686V69.8547C66.3455 69.5596 66.2788 69.2963 66.1456 69.0647C66.0123 68.8299 65.7744 68.7125 65.4317 68.7125C65.0986 68.7125 64.8591 68.8299 64.7131 69.0647C64.5703 69.2963 64.499 69.5596 64.499 69.8547ZM63.8898 77.7737L70.5905 68.0272H71.6756L64.9749 77.7737H63.8898Z" fill="white"/>
<path d="M26.7714 120.516V130.263H25.5911V121.754H25.534L23.1545 123.334V122.134L25.5911 120.516H26.7714ZM32.6202 130.396C32.0618 130.396 31.559 130.285 31.1116 130.063C30.6643 129.841 30.3057 129.536 30.0361 129.149C29.7664 128.762 29.6189 128.321 29.5935 127.826H30.7356C30.7801 128.267 30.9799 128.632 31.3353 128.921C31.6938 129.206 32.1221 129.349 32.6202 129.349C33.02 129.349 33.3753 129.255 33.6862 129.068C34.0003 128.881 34.2462 128.624 34.4239 128.297C34.6047 127.967 34.6952 127.595 34.6952 127.179C34.6952 126.754 34.6016 126.375 34.4144 126.042C34.2304 125.705 33.9766 125.44 33.6529 125.247C33.3293 125.053 32.9597 124.955 32.5441 124.952C32.2458 124.949 31.9397 124.995 31.6256 125.09C31.3115 125.182 31.0529 125.301 30.8499 125.447L29.7458 125.313L30.3359 120.516H35.3995V121.563H31.3258L30.9831 124.438H31.0402C31.2401 124.279 31.4907 124.147 31.7922 124.043C32.0936 123.938 32.4077 123.886 32.7344 123.886C33.3309 123.886 33.8623 124.028 34.3287 124.314C34.7983 124.596 35.1663 124.983 35.4328 125.475C35.7025 125.967 35.8373 126.529 35.8373 127.16C35.8373 127.782 35.6977 128.337 35.4185 128.826C35.1425 129.311 34.7618 129.695 34.2764 129.977C33.7909 130.256 33.2389 130.396 32.6202 130.396ZM42.6963 128.435V127.921C42.6963 127.566 42.7693 127.241 42.9152 126.946C43.0643 126.648 43.2801 126.41 43.5624 126.232C43.848 126.051 44.1938 125.961 44.5999 125.961C45.0124 125.961 45.3582 126.051 45.6374 126.232C45.9166 126.41 46.1276 126.648 46.2703 126.946C46.4131 127.241 46.4845 127.566 46.4845 127.921V128.435C46.4845 128.791 46.4115 129.117 46.2656 129.416C46.1228 129.711 45.9102 129.949 45.6279 130.13C45.3487 130.307 45.006 130.396 44.5999 130.396C44.1875 130.396 43.8401 130.307 43.5577 130.13C43.2753 129.949 43.0612 129.711 42.9152 129.416C42.7693 129.117 42.6963 128.791 42.6963 128.435ZM43.6671 127.921V128.435C43.6671 128.73 43.7369 128.995 43.8765 129.23C44.0161 129.462 44.2573 129.577 44.5999 129.577C44.9331 129.577 45.1678 129.462 45.3043 129.23C45.4439 128.995 45.5137 128.73 45.5137 128.435V127.921C45.5137 127.626 45.447 127.363 45.3138 127.131C45.1805 126.897 44.9426 126.779 44.5999 126.779C44.2668 126.779 44.0272 126.897 43.8813 127.131C43.7385 127.363 43.6671 127.626 43.6671 127.921ZM37.8421 122.858V122.344C37.8421 121.988 37.9151 121.663 38.061 121.368C38.2101 121.07 38.4259 120.832 38.7082 120.654C38.9938 120.473 39.3396 120.383 39.7457 120.383C40.1581 120.383 40.504 120.473 40.7832 120.654C41.0624 120.832 41.2734 121.07 41.4161 121.368C41.5589 121.663 41.6303 121.988 41.6303 122.344V122.858C41.6303 123.213 41.5573 123.54 41.4114 123.838C41.2686 124.133 41.056 124.371 40.7737 124.552C40.4945 124.73 40.1518 124.818 39.7457 124.818C39.3332 124.818 38.9858 124.73 38.7035 124.552C38.4211 124.371 38.2069 124.133 38.061 123.838C37.9151 123.54 37.8421 123.213 37.8421 122.858ZM38.8129 122.344V122.858C38.8129 123.153 38.8827 123.418 39.0223 123.652C39.1619 123.884 39.403 124 39.7457 124C40.0788 124 40.3136 123.884 40.45 123.652C40.5896 123.418 40.6594 123.153 40.6594 122.858V122.344C40.6594 122.049 40.5928 121.785 40.4596 121.554C40.3263 121.319 40.0883 121.202 39.7457 121.202C39.4126 121.202 39.173 121.319 39.0271 121.554C38.8843 121.785 38.8129 122.049 38.8129 122.344ZM38.2038 130.263L44.9045 120.516H45.9896L39.2888 130.263H38.2038Z" fill="white"/>
</svg>
