<svg width="19" height="20" viewBox="0 0 19 20" fill="none" xmlns="http://www.w3.org/2000/svg">
<path d="M6.09754 17.514H12.1951C15.2591 17.514 15.8079 16.2868 15.968 14.7929L16.5396 8.69537C16.7454 6.83562 16.2119 5.31885 12.9573 5.31885H5.33535C2.08078 5.31885 1.54724 6.83562 1.75303 8.69537L2.32468 14.7929C2.48474 16.2868 3.03352 17.514 6.09754 17.514Z" stroke="#B3B3B3" stroke-width="1.14329" stroke-miterlimit="10" stroke-linecap="round" stroke-linejoin="round"/>
<path d="M6.09753 5.31886V4.7091C6.09753 3.36002 6.09753 2.27008 8.53656 2.27008H9.75607C12.1951 2.27008 12.1951 3.36002 12.1951 4.7091V5.31886" stroke="#B3B3B3" stroke-width="1.14329" stroke-miterlimit="10" stroke-linecap="round" stroke-linejoin="round"/>
<path d="M10.6708 10.6542V11.4164C10.6708 11.424 10.6708 11.424 10.6708 11.4316C10.6708 12.2624 10.6631 12.9408 9.14637 12.9408C7.63722 12.9408 7.62198 12.27 7.62198 11.4393V10.6542C7.62198 9.892 7.62198 9.892 8.38417 9.892H9.90856C10.6708 9.892 10.6708 9.892 10.6708 10.6542Z" stroke="#B3B3B3" stroke-width="1.14329" stroke-miterlimit="10" stroke-linecap="round" stroke-linejoin="round"/>
<path d="M16.5015 9.12982C14.7408 10.4103 12.7286 11.1725 10.6707 11.4317" stroke="#B3B3B3" stroke-width="1.14329" stroke-miterlimit="10" stroke-linecap="round" stroke-linejoin="round"/>
<path d="M1.99692 9.33563C3.71186 10.5094 5.64783 11.2183 7.62192 11.4393" stroke="#B3B3B3" stroke-width="1.14329" stroke-miterlimit="10" stroke-linecap="round" stroke-linejoin="round"/>
</svg>
