<svg width="19" height="19" viewBox="0 0 19 19" fill="none" xmlns="http://www.w3.org/2000/svg">
<path d="M13.5203 0.817383H5.90521C2.59747 0.817383 0.625546 2.7893 0.625546 6.09704V13.703C0.625546 17.0199 2.59747 18.9918 5.90521 18.9918H13.5112C16.8189 18.9918 18.7908 17.0199 18.7908 13.7121V6.09704C18.7999 2.7893 16.828 0.817383 13.5203 0.817383ZM7.08654 14.3573C7.08654 14.6117 6.88662 14.8117 6.63218 14.8117H4.09685C3.84241 14.8117 3.64249 14.6117 3.64249 14.3573V10.159C3.64249 9.58653 4.10594 9.12308 4.67843 9.12308H6.63218C6.88662 9.12308 7.08654 9.323 7.08654 9.57744V14.3573ZM11.4302 14.3573C11.4302 14.6117 11.2303 14.8117 10.9759 14.8117H8.44053C8.18609 14.8117 7.98617 14.6117 7.98617 14.3573V6.03343C7.98617 5.46094 8.44962 4.99749 9.02211 4.99749H10.4034C10.9759 4.99749 11.4393 5.46094 11.4393 6.03343V14.3573H11.4302ZM15.783 14.3573C15.783 14.6117 15.5831 14.8117 15.3286 14.8117H12.7933C12.5389 14.8117 12.3389 14.6117 12.3389 14.3573V11.1313C12.3389 10.8769 12.5389 10.677 12.7933 10.677H14.747C15.3195 10.677 15.783 11.1404 15.783 11.7129V14.3573Z" fill="#111115"/>
</svg>
