<svg width="24" height="25" viewBox="0 0 24 25" fill="none" xmlns="http://www.w3.org/2000/svg">
<path d="M17 2.22412H7C4.24 2.22412 2 4.45412 2 7.20412V13.1841V14.1841C2 16.9341 4.24 19.1641 7 19.1641H8.5C8.77 19.1641 9.13 19.3441 9.3 19.5641L10.8 21.5541C11.46 22.4341 12.54 22.4341 13.2 21.5541L14.7 19.5641C14.89 19.3141 15.19 19.1641 15.5 19.1641H17C19.76 19.1641 22 16.9341 22 14.1841V7.20412C22 4.45412 19.76 2.22412 17 2.22412ZM8 12.2241C7.44 12.2241 7 11.7741 7 11.2241C7 10.6741 7.45 10.2241 8 10.2241C8.55 10.2241 9 10.6741 9 11.2241C9 11.7741 8.56 12.2241 8 12.2241ZM12 12.2241C11.44 12.2241 11 11.7741 11 11.2241C11 10.6741 11.45 10.2241 12 10.2241C12.55 10.2241 13 10.6741 13 11.2241C13 11.7741 12.56 12.2241 12 12.2241ZM16 12.2241C15.44 12.2241 15 11.7741 15 11.2241C15 10.6741 15.45 10.2241 16 10.2241C16.55 10.2241 17 10.6741 17 11.2241C17 11.7741 16.56 12.2241 16 12.2241Z" fill="white"/>
</svg>
