<svg width="21" height="19" viewBox="0 0 21 19" fill="none" xmlns="http://www.w3.org/2000/svg">
<path d="M13.4394 18.4847H7.98685C3.05234 18.4847 0.944042 16.3764 0.944042 11.4419V7.80685C0.944042 3.54481 2.52527 1.40925 6.06939 0.891264C6.45107 0.836739 6.7873 1.09119 6.84183 1.46378C6.89635 1.83636 6.6419 2.18169 6.26932 2.23621C3.41584 2.65424 2.30717 4.21729 2.30717 7.80685V11.4419C2.30717 15.6312 3.79752 17.1215 7.98685 17.1215H13.4394C17.6287 17.1215 19.119 15.6312 19.119 11.4419V7.80685C19.119 4.21729 18.0104 2.65424 15.1569 2.23621C14.7843 2.18169 14.5299 1.83636 14.5844 1.46378C14.6389 1.09119 14.9842 0.836739 15.3568 0.891264C18.9009 1.40925 20.4822 3.54481 20.4822 7.80685V11.4419C20.4822 16.3764 18.3739 18.4847 13.4394 18.4847Z" fill="#B3B3B3"/>
</svg>
