<svg width="40" height="40" viewBox="0 0 40 40" fill="none" xmlns="http://www.w3.org/2000/svg">
<path d="M19.6694 32.0833C13.1129 32.0833 7.7858 26.6666 7.7858 20C7.7858 13.3333 13.1129 7.91663 19.6694 7.91663C26.2258 7.91663 31.553 13.3333 31.553 20C31.553 26.6666 26.2258 32.0833 19.6694 32.0833ZM19.6694 10.4166C14.4734 10.4166 10.2445 14.7166 10.2445 20C10.2445 25.2833 14.4734 29.5833 19.6694 29.5833C24.8654 29.5833 29.0943 25.2833 29.0943 20C29.0943 14.7166 24.8654 10.4166 19.6694 10.4166Z" fill="#FFA800"/>
<path d="M19.6694 38.2667C18.7679 38.2667 18.0303 37.5834 18.0303 36.6667V36.5334C18.0303 35.6167 18.7679 34.8667 19.6694 34.8667C20.5709 34.8667 21.3085 35.6167 21.3085 36.5334C21.3085 37.4501 20.5709 38.2667 19.6694 38.2667ZM31.3727 33.5667C30.9465 33.5667 30.5367 33.4001 30.2089 33.0834L29.9958 32.8667C29.3566 32.2167 29.3566 31.1667 29.9958 30.5167C30.6351 29.8667 31.6677 29.8667 32.307 30.5167L32.52 30.7334C33.1593 31.3834 33.1593 32.4334 32.52 33.0834C32.2086 33.4001 31.7988 33.5667 31.3727 33.5667ZM7.9661 33.5667C7.53993 33.5667 7.13015 33.4001 6.80233 33.0834C6.16307 32.4334 6.16307 31.3834 6.80233 30.7334L7.01541 30.5167C7.65467 29.8667 8.68731 29.8667 9.32657 30.5167C9.96582 31.1667 9.96582 32.2167 9.32657 32.8667L9.11348 33.0834C8.80205 33.4001 8.37588 33.5667 7.9661 33.5667ZM36.0605 21.6667H35.9294C35.0279 21.6667 34.2903 20.9167 34.2903 20.0001C34.2903 19.0834 35.0279 18.3334 35.9294 18.3334C36.8309 18.3334 37.6341 19.0834 37.6341 20.0001C37.6341 20.9167 36.962 21.6667 36.0605 21.6667ZM3.40936 21.6667H3.27823C2.37672 21.6667 1.63911 20.9167 1.63911 20.0001C1.63911 19.0834 2.37672 18.3334 3.27823 18.3334C4.17974 18.3334 4.98291 19.0834 4.98291 20.0001C4.98291 20.9167 4.31087 21.6667 3.40936 21.6667ZM31.1596 9.98341C30.7334 9.98341 30.3236 9.81675 29.9958 9.50008C29.3566 8.85008 29.3566 7.80008 29.9958 7.15008L30.2089 6.93341C30.8482 6.28341 31.8808 6.28341 32.52 6.93341C33.1593 7.58341 33.1593 8.63341 32.52 9.28341L32.307 9.50008C31.9955 9.81675 31.5858 9.98341 31.1596 9.98341ZM8.17918 9.98341C7.75301 9.98341 7.34324 9.81675 7.01541 9.50008L6.80233 9.26675C6.16307 8.61675 6.16307 7.56675 6.80233 6.91675C7.44158 6.26675 8.47423 6.26675 9.11348 6.91675L9.32657 7.13341C9.96582 7.78341 9.96582 8.83341 9.32657 9.48341C9.01513 9.81675 8.58896 9.98341 8.17918 9.98341ZM19.6694 5.06675C18.7679 5.06675 18.0303 4.38341 18.0303 3.46675V3.33341C18.0303 2.41675 18.7679 1.66675 19.6694 1.66675C20.5709 1.66675 21.3085 2.41675 21.3085 3.33341C21.3085 4.25008 20.5709 5.06675 19.6694 5.06675Z" fill="#FFA800"/>
</svg>
