<svg width="306" height="153" viewBox="0 0 306 153" fill="none" xmlns="http://www.w3.org/2000/svg">
<path d="M-1.71419e-05 153C-1.53854e-05 132.908 3.95744 113.012 11.6464 94.4494C19.3354 75.8866 30.6053 59.02 44.8127 44.8127C59.02 30.6053 75.8866 19.3354 94.4494 11.6464C113.012 3.95747 132.908 1.53854e-05 153 1.71419e-05C173.092 1.88984e-05 192.988 3.95748 211.551 11.6464C230.113 19.3354 246.98 30.6053 261.187 44.8127C275.395 59.0201 286.665 75.8867 294.354 94.4495C302.043 113.012 306 132.908 306 153L244.994 153C244.994 140.919 242.614 128.957 237.991 117.796C233.368 106.634 226.592 96.493 218.049 87.9506C209.507 79.4082 199.366 72.632 188.205 68.0088C177.043 63.3857 165.081 61.0062 153 61.0062C140.919 61.0062 128.957 63.3857 117.796 68.0088C106.634 72.6319 96.493 79.4082 87.9506 87.9506C79.4081 96.493 72.6319 106.634 68.0088 117.795C63.3857 128.957 61.0062 140.919 61.0062 153L-1.71419e-05 153Z" fill="#6D4C4C"/>
</svg>
