<svg width="153" height="153" viewBox="0 0 153 153" fill="none" xmlns="http://www.w3.org/2000/svg">
<path d="M-1.71419e-05 153C-1.53854e-05 132.908 3.95744 113.012 11.6464 94.4494C19.3354 75.8866 30.6053 59.02 44.8127 44.8127C59.02 30.6053 75.8866 19.3354 94.4494 11.6464C113.012 3.95747 132.908 1.53854e-05 153 1.71419e-05L153 61.0062C140.919 61.0062 128.957 63.3857 117.796 68.0088C106.634 72.6319 96.493 79.4082 87.9506 87.9506C79.4081 96.493 72.6319 106.634 68.0088 117.795C63.3857 128.957 61.0062 140.919 61.0062 153L-1.71419e-05 153Z" fill="#B05321"/>
</svg>
