<svg width="22" height="22" viewBox="0 0 22 22" fill="none" xmlns="http://www.w3.org/2000/svg">
<path fill-rule="evenodd" clip-rule="evenodd" d="M11.439 0.911133C8.5966 0.911133 8.23988 0.923561 7.12349 0.974366C6.00928 1.02539 5.24873 1.20179 4.58326 1.46061C3.89489 1.72793 3.31096 2.08553 2.72921 2.66749C2.14703 3.24924 1.78944 3.83316 1.52124 4.52131C1.26177 5.18701 1.08515 5.94777 1.035 7.06155C0.985068 8.17794 0.971985 8.53488 0.971985 11.3773C0.971985 14.2198 0.984632 14.5754 1.03522 15.6918C1.08646 16.806 1.26286 17.5665 1.52146 18.232C1.789 18.9204 2.1466 19.5043 2.72856 20.0861C3.31009 20.6682 3.89401 21.0267 4.58195 21.294C5.24786 21.5529 6.00862 21.7293 7.12262 21.7803C8.23901 21.8311 8.59552 21.8435 11.4377 21.8435C14.2804 21.8435 14.636 21.8311 15.7524 21.7803C16.8666 21.7293 17.6281 21.5529 18.294 21.294C18.9821 21.0267 19.5652 20.6682 20.1467 20.0861C20.7289 19.5043 21.0865 18.9204 21.3547 18.2322C21.612 17.5665 21.7886 16.8058 21.8409 15.692C21.8911 14.5756 21.9041 14.2198 21.9041 11.3773C21.9041 8.53488 21.8911 8.17816 21.8409 7.06176C21.7886 5.94755 21.612 5.18701 21.3547 4.52153C21.0865 3.83316 20.7289 3.24924 20.1467 2.66749C19.5645 2.08531 18.9823 1.72771 18.2933 1.46061C17.6261 1.20179 16.8651 1.02539 15.7509 0.974366C14.6345 0.923561 14.2791 0.911133 11.4358 0.911133H11.439ZM10.5001 2.7972C10.7788 2.79676 11.0897 2.7972 11.439 2.7972C14.2335 2.7972 14.5647 2.80723 15.6682 2.85738C16.6887 2.90404 17.2425 3.07455 17.6114 3.21781C18.0999 3.40751 18.4481 3.63428 18.8142 4.00059C19.1805 4.36691 19.4073 4.71578 19.5974 5.2042C19.7407 5.5727 19.9114 6.12654 19.9578 7.14699C20.008 8.2503 20.0189 8.58173 20.0189 11.3749C20.0189 14.1681 20.008 14.4995 19.9578 15.6028C19.9112 16.6233 19.7407 17.1771 19.5974 17.5456C19.4077 18.034 19.1805 18.3818 18.8142 18.7479C18.4479 19.1142 18.1001 19.341 17.6114 19.5307C17.2429 19.6746 16.6887 19.8447 15.6682 19.8913C14.5649 19.9415 14.2335 19.9524 11.439 19.9524C8.64431 19.9524 8.3131 19.9415 7.20979 19.8913C6.18934 19.8442 5.6355 19.6737 5.26635 19.5305C4.77793 19.3408 4.42905 19.114 4.06274 18.7477C3.69642 18.3814 3.46965 18.0334 3.27952 17.5447C3.13626 17.1762 2.96553 16.6224 2.91909 15.6019C2.86894 14.4986 2.85891 14.1672 2.85891 11.3723C2.85891 8.57737 2.86894 8.24769 2.91909 7.14437C2.96575 6.12392 3.13626 5.57008 3.27952 5.20115C3.46922 4.71273 3.69642 4.36386 4.06274 3.99754C4.42905 3.63122 4.77793 3.40446 5.26635 3.21432C5.63528 3.07041 6.18934 2.90033 7.20979 2.85345C8.1753 2.80984 8.54946 2.79676 10.5001 2.79458V2.7972ZM17.0258 4.53503C16.3324 4.53503 15.7698 5.09693 15.7698 5.79053C15.7698 6.48392 16.3324 7.04648 17.0258 7.04648C17.7192 7.04648 18.2817 6.48392 18.2817 5.79053C18.2817 5.09715 17.7192 4.53503 17.0258 4.53503ZM11.4391 6.00247C8.47081 6.00247 6.06424 8.40904 6.06424 11.3773C6.06424 14.3455 8.47081 16.751 11.4391 16.751C14.4073 16.751 16.813 14.3455 16.813 11.3773C16.813 8.40904 14.4073 6.00247 11.4391 6.00247ZM11.439 7.88856C13.3657 7.88856 14.9278 9.45043 14.9278 11.3773C14.9278 13.3039 13.3657 14.866 11.439 14.866C9.51216 14.866 7.95029 13.3039 7.95029 11.3773C7.95029 9.45043 9.51216 7.88856 11.439 7.88856Z" fill="white"/>
</svg>
