<svg width="28" height="28" viewBox="0 0 28 28" fill="none" xmlns="http://www.w3.org/2000/svg">
<path d="M14.9421 16.821H12.1117C11.6476 16.821 11.2626 16.4361 11.2626 15.9719C11.2626 15.5077 11.6476 15.1228 12.1117 15.1228H14.9421C17.9083 15.1228 20.3198 12.7113 20.3198 9.74509C20.3198 6.77886 17.9083 4.36738 14.9421 4.36738H9.28137C6.31514 4.36738 3.90367 6.77886 3.90367 9.74509C3.90367 10.9904 4.3452 12.2018 5.13771 13.1642C5.43207 13.5265 5.38678 14.0586 5.02449 14.3643C4.66221 14.6586 4.1301 14.6133 3.82442 14.251C2.78284 12.983 2.20544 11.3867 2.20544 9.74509C2.20544 5.83917 5.37546 2.66916 9.28137 2.66916H14.9421C18.848 2.66916 22.018 5.83917 22.018 9.74509C22.018 13.651 18.848 16.821 14.9421 16.821Z" fill="white"/>
<path d="M19.4706 24.7461H13.8099C9.90396 24.7461 6.73395 21.576 6.73395 17.6701C6.73395 13.7642 9.90396 10.5942 13.8099 10.5942H16.6402C17.1044 10.5942 17.4894 10.9791 17.4894 11.4433C17.4894 11.9075 17.1044 12.2924 16.6402 12.2924H13.8099C10.8436 12.2924 8.43217 14.7039 8.43217 17.6701C8.43217 20.6364 10.8436 23.0478 13.8099 23.0478H19.4706C22.4368 23.0478 24.8483 20.6364 24.8483 17.6701C24.8483 16.4248 24.4068 15.2134 23.6143 14.251C23.3199 13.8888 23.3652 13.3566 23.7275 13.051C24.0898 12.7453 24.6219 12.8019 24.9276 13.1642C25.9805 14.4322 26.5579 16.0285 26.5579 17.6701C26.5465 21.576 23.3765 24.7461 19.4706 24.7461Z" fill="white"/>
</svg>
