<svg width="21" height="21" viewBox="0 0 21 21" fill="none" xmlns="http://www.w3.org/2000/svg">
<path d="M5.16136 2.87333C5.1325 1.56319 4.19561 0.565315 2.67425 0.565315C1.15289 0.565315 0.158279 1.56319 0.158279 2.87333C0.158279 4.15633 1.1235 5.18294 2.61653 5.18294H2.64495C4.19562 5.18294 5.16136 4.15633 5.16136 2.87333Z" fill="white"/>
<path d="M4.86847 7.00681H0.42126V20.3688H4.86847V7.00681Z" fill="white"/>
<path d="M15.7864 6.693C18.7129 6.693 20.9068 8.60317 20.9068 12.7074L20.9066 20.3688H16.4596V13.2201C16.4596 11.4245 15.8161 10.1992 14.2062 10.1992C12.9775 10.1992 12.2457 11.0252 11.9243 11.823C11.8067 12.109 11.7778 12.5073 11.7778 12.9067V20.3691H7.3301C7.3301 20.3691 7.38871 8.26094 7.3301 7.00712H11.7778V8.89973C12.3681 7.98992 13.4252 6.693 15.7864 6.693Z" fill="white"/>
</svg>
