<svg width="19" height="20" viewBox="0 0 19 20" fill="none" xmlns="http://www.w3.org/2000/svg">
<path d="M9.34148 11.546C7.718 11.546 6.39178 10.2274 6.39178 8.59631C6.39178 6.96521 7.718 5.65424 9.34148 5.65424C10.965 5.65424 12.2912 6.97283 12.2912 8.60393C12.2912 10.235 10.965 11.546 9.34148 11.546ZM9.34148 6.79753C8.35063 6.79753 7.53508 7.60546 7.53508 8.60393C7.53508 9.60241 8.343 10.4103 9.34148 10.4103C10.34 10.4103 11.1479 9.60241 11.1479 8.60393C11.1479 7.60546 10.3323 6.79753 9.34148 6.79753Z" fill="#B3B3B3"/>
<path d="M9.34147 18.0932C8.21342 18.0932 7.07775 17.6664 6.1936 16.8204C3.94513 14.6557 1.46037 11.203 2.39787 7.09477C3.24391 3.36763 6.49848 1.69843 9.34147 1.69843C9.34147 1.69843 9.34147 1.69843 9.34909 1.69843C12.1921 1.69843 15.4467 3.36763 16.2927 7.10239C17.2226 11.2106 14.7378 14.6557 12.4893 16.8204C11.6052 17.6664 10.4695 18.0932 9.34147 18.0932ZM9.34147 2.84172C7.12348 2.84172 4.27287 4.02312 3.5183 7.34629C2.69513 10.9362 4.95123 14.0307 6.99391 15.9896C8.31251 17.2624 10.3781 17.2624 11.6967 15.9896C13.7317 14.0307 15.9878 10.9362 15.1799 7.34629C14.4177 4.02312 11.5595 2.84172 9.34147 2.84172Z" fill="#B3B3B3"/>
</svg>
