<svg width="15" height="18" viewBox="0 0 15 18" fill="none" xmlns="http://www.w3.org/2000/svg">
<path d="M7.34147 17.0932C6.21342 17.0932 5.07775 16.6664 4.1936 15.8204C1.94513 13.6557 -0.539626 10.203 0.397874 6.09477C1.24391 2.36763 4.49848 0.698425 7.34147 0.698425C7.34147 0.698425 7.34147 0.698425 7.34909 0.698425C10.1921 0.698425 13.4467 2.36763 14.2927 6.10239C15.2226 10.2106 12.7378 13.6557 10.4893 15.8204C9.60519 16.6664 8.46952 17.0932 7.34147 17.0932ZM7.34147 1.84172C5.12348 1.84172 2.27287 3.02312 1.5183 6.34629C0.69513 9.93623 2.95123 13.0307 4.99391 14.9896C6.31251 16.2624 8.37806 16.2624 9.69665 14.9896C11.7317 13.0307 13.9878 9.93623 13.1799 6.34629C12.4177 3.02312 9.55946 1.84172 7.34147 1.84172Z" fill="#B3B3B3"/>
</svg>
