<svg width="21" height="21" viewBox="0 0 21 21" fill="none" xmlns="http://www.w3.org/2000/svg">
<path d="M3.62345 20.2507C2.89259 20.2507 2.22163 19.9871 1.73039 19.5079C1.1433 18.9208 0.891688 18.0701 1.02348 17.1715L1.53869 13.5651C1.63454 12.8702 2.08983 11.9716 2.58107 11.4803L12.0224 2.03896C14.4067 -0.345344 16.827 -0.345344 19.2113 2.03896C20.5173 3.34494 21.1044 4.67487 20.9845 6.00481C20.8767 7.08314 20.3016 8.13751 19.2113 9.21584L9.76993 18.6572C9.27869 19.1484 8.38008 19.6037 7.68516 19.6996L4.07875 20.2148C3.92299 20.2507 3.76723 20.2507 3.62345 20.2507ZM13.2925 3.30899L3.8511 12.7504C3.62345 12.978 3.35986 13.5052 3.31194 13.8167L2.79674 17.4231C2.74881 17.7706 2.8207 18.0581 3.00042 18.2379C3.18014 18.4176 3.46769 18.4895 3.81516 18.4415L7.42157 17.9263C7.73308 17.8784 8.27225 17.6148 8.48791 17.3872L17.9293 7.9458C18.7081 7.16701 19.1154 6.47209 19.1753 5.82509C19.2472 5.0463 18.8399 4.21958 17.9293 3.29701C16.0122 1.37998 14.6943 1.91915 13.2925 3.30899Z" fill="white"/>
<path d="M17.2226 10.8333C17.1387 10.8333 17.0549 10.8213 16.983 10.7974C13.8318 9.91074 11.3277 7.40662 10.4411 4.25551C10.3093 3.77625 10.5849 3.28501 11.0641 3.14124C11.5434 3.00944 12.0346 3.28501 12.1664 3.76427C12.8853 6.31631 14.9102 8.34118 17.4622 9.06006C17.9415 9.19186 18.217 9.69508 18.0853 10.1743C17.9774 10.5817 17.618 10.8333 17.2226 10.8333Z" fill="white"/>
</svg>
