<svg width="50" height="26" viewBox="0 0 50 26" fill="none" xmlns="http://www.w3.org/2000/svg">
<path d="M50 25.3801C50 22.097 49.3534 18.8461 48.097 15.813C46.8406 12.7798 44.9991 10.0239 42.6777 7.7024C40.3562 5.38093 37.6002 3.53944 34.5671 2.28308C31.5339 1.02671 28.283 0.380066 25 0.380066C21.7169 0.380066 18.4661 1.02671 15.4329 2.28308C12.3998 3.53945 9.64379 5.38093 7.32233 7.7024C5.00086 10.0239 3.15938 12.7798 1.90301 15.813C0.646644 18.8461 -2.87013e-07 22.097 0 25.3801H3.6325C3.6325 22.574 4.18519 19.7955 5.259 17.2031C6.33282 14.6107 7.90674 12.2551 9.89089 10.271C11.875 8.28681 14.2306 6.71289 16.823 5.63907C19.4154 4.56525 22.194 4.01257 25 4.01257C27.806 4.01257 30.5846 4.56525 33.177 5.63907C35.7694 6.71289 38.1249 8.28681 40.1091 10.271C42.0933 12.2551 43.6672 14.6107 44.741 17.2031C45.8148 19.7955 46.3675 22.574 46.3675 25.3801H50Z" fill="#808080"/>
</svg>
