<svg width="37" height="38" viewBox="0 0 37 38" fill="none" xmlns="http://www.w3.org/2000/svg">
<path d="M18.6694 37.2667C17.7679 37.2667 17.0303 36.5834 17.0303 35.6667V35.5334C17.0303 34.6167 17.7679 33.8667 18.6694 33.8667C19.5709 33.8667 20.3085 34.6167 20.3085 35.5334C20.3085 36.4501 19.5709 37.2667 18.6694 37.2667ZM30.3727 32.5667C29.9465 32.5667 29.5367 32.4001 29.2089 32.0834L28.9958 31.8667C28.3566 31.2167 28.3566 30.1667 28.9958 29.5167C29.6351 28.8667 30.6677 28.8667 31.307 29.5167L31.52 29.7334C32.1593 30.3834 32.1593 31.4334 31.52 32.0834C31.2086 32.4001 30.7988 32.5667 30.3727 32.5667ZM6.9661 32.5667C6.53993 32.5667 6.13015 32.4001 5.80233 32.0834C5.16307 31.4334 5.16307 30.3834 5.80233 29.7334L6.01541 29.5167C6.65467 28.8667 7.68731 28.8667 8.32657 29.5167C8.96582 30.1667 8.96582 31.2167 8.32657 31.8667L8.11348 32.0834C7.80205 32.4001 7.37588 32.5667 6.9661 32.5667ZM35.0605 20.6667H34.9294C34.0279 20.6667 33.2903 19.9167 33.2903 19.0001C33.2903 18.0834 34.0279 17.3334 34.9294 17.3334C35.8309 17.3334 36.6341 18.0834 36.6341 19.0001C36.6341 19.9167 35.962 20.6667 35.0605 20.6667ZM2.40936 20.6667H2.27823C1.37672 20.6667 0.639114 19.9167 0.639114 19.0001C0.639114 18.0834 1.37672 17.3334 2.27823 17.3334C3.17974 17.3334 3.98291 18.0834 3.98291 19.0001C3.98291 19.9167 3.31087 20.6667 2.40936 20.6667ZM30.1596 8.98341C29.7334 8.98341 29.3236 8.81675 28.9958 8.50008C28.3566 7.85008 28.3566 6.80008 28.9958 6.15008L29.2089 5.93341C29.8482 5.28341 30.8808 5.28341 31.52 5.93341C32.1593 6.58341 32.1593 7.63341 31.52 8.28341L31.307 8.50008C30.9955 8.81675 30.5858 8.98341 30.1596 8.98341ZM7.17918 8.98341C6.75301 8.98341 6.34324 8.81675 6.01541 8.50008L5.80233 8.26675C5.16307 7.61675 5.16307 6.56675 5.80233 5.91675C6.44158 5.26675 7.47423 5.26675 8.11348 5.91675L8.32657 6.13341C8.96582 6.78341 8.96582 7.83341 8.32657 8.48341C8.01513 8.81675 7.58896 8.98341 7.17918 8.98341ZM18.6694 4.06675C17.7679 4.06675 17.0303 3.38341 17.0303 2.46675V2.33341C17.0303 1.41675 17.7679 0.666748 18.6694 0.666748C19.5709 0.666748 20.3085 1.41675 20.3085 2.33341C20.3085 3.25008 19.5709 4.06675 18.6694 4.06675Z" fill="#FFA800"/>
</svg>
