<svg width="20" height="17" viewBox="0 0 20 17" fill="none" xmlns="http://www.w3.org/2000/svg">
<path fill-rule="evenodd" clip-rule="evenodd" d="M9.91227 4.70386L9.95345 5.38289L9.26712 5.29975C6.7689 4.98102 4.58638 3.90011 2.7333 2.08474L1.82735 1.18398L1.594 1.84916C1.09984 3.33194 1.41555 4.89787 2.44504 5.95106C2.9941 6.53309 2.87057 6.61624 1.92344 6.26979C1.594 6.15893 1.30574 6.07578 1.27829 6.11735C1.1822 6.21436 1.51164 7.47542 1.77244 7.9743C2.12933 8.66719 2.85684 9.34622 3.65298 9.74809L4.32558 10.0668L3.52944 10.0807C2.76075 10.0807 2.7333 10.0945 2.81566 10.3856C3.09019 11.2863 4.17458 12.2425 5.38252 12.6582L6.23356 12.9492L5.49233 13.3927C4.39421 14.0301 3.10392 14.3905 1.81362 14.4182C1.19593 14.432 0.688049 14.4875 0.688049 14.529C0.688049 14.6676 2.36268 15.4436 3.33727 15.7485C6.26101 16.6493 9.73382 16.2613 12.3419 14.723C14.1949 13.6283 16.048 11.4526 16.9128 9.34622C17.3795 8.22374 17.8462 6.17279 17.8462 5.18888C17.8462 4.55143 17.8874 4.46828 18.6561 3.7061C19.109 3.26265 19.5346 2.77763 19.6169 2.63905C19.7542 2.37575 19.7405 2.37575 19.0404 2.61134C17.8736 3.02707 17.7089 2.97164 18.2854 2.34804C18.711 1.90459 19.2188 1.10084 19.2188 0.865256C19.2188 0.823682 19.0129 0.892971 18.7796 1.01769C18.5325 1.15627 17.9835 1.36414 17.5717 1.48886L16.8304 1.72444L16.1578 1.26713C15.7872 1.01769 15.2656 0.740536 14.9911 0.657389C14.291 0.46338 13.2204 0.491096 12.5889 0.71282C10.8731 1.33642 9.78873 2.94392 9.91227 4.70386Z" fill="white"/>
</svg>
